<?xml version="1.0" encoding="utf-8"?>
<!-- Generator: Adobe Illustrator 25.3.1, SVG Export Plug-In . SVG Version: 6.00 Build 0)  -->
<svg version="1.1" id="Ebene_1" xmlns="http://www.w3.org/2000/svg" xmlns:xlink="http://www.w3.org/1999/xlink" x="0px" y="0px"
	 viewBox="0 0 300 100" style="enable-background:new 0 0 300 100;" xml:space="preserve">
<style type="text/css">
	.st0{fill:#3D3939;}
</style>
<g>
	<g>
		<path class="st0" d="M29.6,74c-0.8,0-1.6-0.2-2.4-0.6c-2.3-1.3-3.2-4.3-1.8-6.6c0.6-1.1,1.7-1.9,2.9-2.3c1.2-0.4,2.6-0.2,3.7,0.4
			c0.1,0,0.1,0.1,0.2,0.1c1.7-0.8,3.2-1.9,4.6-3.3c2.5-2.5,4.2-5.8,4.8-9.3h-8.2c-1.5,1.9-4.2,2.4-6.3,1.2c-2.3-1.3-3.2-4.4-1.8-6.7
			c1.3-2.3,4.4-3.1,6.7-1.8c0.5,0.3,1,0.7,1.4,1.2h8.2C40,37.3,31.5,31,22.4,32.1v5c1.9,1.5,2.4,4.2,1.2,6.3
			c-1.3,2.3-4.3,3.2-6.7,1.8c-2.3-1.3-3.2-4.3-1.8-6.7c0.3-0.5,0.7-1,1.2-1.4v-9.8l0.6-0.2c11.3-3.6,23.6,1.8,28.6,12.7
			c5.3,11.7,0.2,25.5-11.3,31c-0.1,0.3-0.2,0.5-0.3,0.7c-0.6,1.1-1.7,1.9-2.9,2.3C30.5,74,30,74,29.6,74z M29.6,66
			c-1.1,0-2.2,0.6-2.8,1.6c-0.9,1.5-0.3,3.4,1.2,4.3c0.7,0.4,1.6,0.5,2.4,0.3c0.8-0.2,1.5-0.8,1.9-1.5c0.1-0.2,0.2-0.5,0.3-0.7
			l0.1-0.4l0.4-0.2c11-5,15.8-18,10.8-28.9C39.4,30.6,28.4,25.6,18,28.5V38l-0.4,0.3c-0.4,0.3-0.8,0.7-1,1.1
			c-0.9,1.5-0.3,3.5,1.2,4.4c0.7,0.4,1.6,0.5,2.4,0.3s1.5-0.8,1.9-1.5c0.8-1.5,0.4-3.4-1-4.3L20.7,38v-7.4l0.7-0.1
			c5.1-0.8,10.1,0.4,14.3,3.5c4.1,3,6.8,7.5,7.6,12.5c0,0.2,0.1,0.4,0.1,0.6l0.1,1H32.5l-0.3-0.4c-0.3-0.4-0.6-0.8-1.1-1
			c-1.5-0.9-3.5-0.3-4.4,1.2c-0.9,1.5-0.4,3.5,1.2,4.4c1.5,0.8,3.4,0.4,4.3-1l0.3-0.4h11l-0.1,1C42.9,56,40.9,60,37.9,63
			c-1.6,1.6-3.5,2.9-5.5,3.8L31.9,67l-0.4-0.3c-0.1-0.1-0.3-0.2-0.4-0.3C30.6,66.1,30.1,66,29.6,66z"/>
	</g>
	<g>
		<path class="st0" d="M8.3,33.9c-8.9,8.9-8.9,23.2,0,32.1c3.6,3.6,8.3,5.9,13.3,6.5V51h1c0.1,0,0.1,0,0.1-0.1c0,0,0,0,0-0.1
			c0,0,0-0.1,0-0.1l-3.2-4.6c-0.1-0.1-0.2-0.1-0.2,0c0,0,0,0,0,0L16,50.8c0,0,0,0.1,0,0.2c0,0.1,0.1,0.1,0.1,0.1h1l0.1,15.7
			C7.9,62.8,3.6,52,7.6,42.7c0.9-2.1,2.2-4,3.8-5.7c0.4-0.4,0.9-0.9,1.4-1.2v-5.4C11.1,31.4,9.6,32.5,8.3,33.9z"/>
	</g>
	<g>
		<path class="st0" d="M67,57.8h-3.2v-1.3c-3,2.2-7.2,1.9-9.8-0.8c-3-3-3-7.9,0-10.9c1.4-1.5,3.4-2.3,5.4-2.3c1.6,0,3.1,0.5,4.4,1.5
			v-6.3H67V57.8z M59.4,54.8c1.2,0,2.3-0.5,3.1-1.3c1.7-1.8,1.7-4.6,0-6.4c-1.7-1.7-4.4-1.8-6.2-0.1c0,0-0.1,0.1-0.1,0.1
			c-0.8,0.9-1.3,2-1.3,3.2c0,1.2,0.4,2.4,1.3,3.2C57.1,54.3,58.2,54.8,59.4,54.8L59.4,54.8z"/>
	</g>
	<g>
		<path class="st0" d="M72.9,38c0.3,0.3,0.5,0.8,0.5,1.2c0,1-0.8,1.7-1.7,1.7c-1,0-1.7-0.8-1.7-1.7s0.8-1.7,1.7-1.7c0,0,0,0,0,0
			C72.1,37.5,72.5,37.7,72.9,38z M70.1,57.8h3.1V42.6h-3.1V57.8z"/>
	</g>
	<g>
		<path class="st0" d="M79,57.1c0.3,0.7,0.9,1.4,1.5,1.8c0.7,0.5,1.4,0.8,2.3,0.8c1,0,2-0.5,2.6-1.3c0.7-0.8,1.1-1.8,1.1-2.9
			c-2.8,1.9-6.5,1.5-8.8-0.9c-1.4-1.3-2.1-3.2-2.1-5.1c0-1.9,0.7-3.7,2.1-5.1c2.3-2.4,6.1-2.8,8.8-0.9v-1h3.2v12.8
			c0,2-0.7,4-2.1,5.4c-1.2,1.4-3,2.2-4.8,2.2c-1.5,0-2.9-0.5-4.1-1.4c-1.2-0.8-2.1-2-2.7-3.3L79,57.1z M82.7,53.6c1,0,2-0.4,2.7-1.2
			c0.8-0.7,1.2-1.8,1.2-2.8c0-1-0.4-2.1-1.1-2.8c-0.7-0.8-1.7-1.2-2.7-1.2c-1,0-2,0.4-2.7,1.2c-1.5,1.6-1.5,4,0,5.6
			C80.7,53.1,81.6,53.6,82.7,53.6z"/>
	</g>
	<g>
		<path class="st0" d="M95.6,38c0.3,0.3,0.5,0.8,0.5,1.2c0,0.5-0.2,0.9-0.5,1.2c-0.3,0.3-0.8,0.5-1.2,0.5c-1,0-1.7-0.8-1.7-1.7
			c0-1,0.8-1.7,1.7-1.7c0,0,0,0,0,0C94.8,37.5,95.3,37.7,95.6,38z M92.8,57.8h3.1V42.6h-3.1L92.8,57.8z"/>
	</g>
	<g>
		<path class="st0" d="M103.3,42.6h2v3.1h-2v12.1h-3.1V45.7h-2v-3.1h2v-4.9h3.1L103.3,42.6L103.3,42.6z"/>
	</g>
	<g>
		<path class="st0" d="M122.1,57.8h-3.2v-1.3c-1.3,1-2.8,1.5-4.4,1.5c-2,0-4-0.8-5.4-2.3c-3-3-3-8,0-11c1.4-1.5,3.4-2.3,5.4-2.3
			c1.6,0,3.1,0.5,4.4,1.5v-1.3h3.2V57.8z M114.4,54.7c1.2,0,2.3-0.5,3.2-1.3c1.7-1.8,1.7-4.6,0-6.4c-1.7-1.7-4.4-1.8-6.2-0.1
			c0,0-0.1,0.1-0.1,0.1c-0.8,0.9-1.3,2-1.3,3.2c0,1.2,0.4,2.4,1.3,3.2C112.1,54.2,113.2,54.7,114.4,54.7z"/>
	</g>
	<g>
		<path class="st0" d="M125.4,37.6h3.1v20.2h-3.1V37.6z"/>
	</g>
	<g>
		<path class="st0" d="M144.9,54.5c-0.6,1-1.5,1.8-2.5,2.4c-3,1.8-6.8,1.3-9.2-1.2c-3-3-3-8,0-11c2.9-3,7.7-3,10.6-0.2
			c0.1,0.1,0.1,0.1,0.2,0.2c1.5,1.4,2.3,3.4,2.2,5.5v1.3h-11.8c0.2,1,0.8,1.8,1.6,2.4c0.7,0.5,1.6,0.8,2.6,0.8
			c1.4,0.1,2.8-0.6,3.6-1.8L144.9,54.5z M142.8,48.6c-0.3-0.9-0.9-1.6-1.6-2.1c-1.5-1.1-3.6-1.1-5.1,0c-0.7,0.5-1.3,1.3-1.6,2.1
			H142.8z"/>
	</g>
	<g>
		<path class="st0" d="M160.3,57.8l-4.6-5.2l-4.5,5.2h-4.1l6.6-7.6l-6.6-7.6h4.1l4.5,5.2l4.6-5.2h4.1l-6.6,7.6l6.6,7.6L160.3,57.8z"
			/>
	</g>
	<g>
		<path class="st0" d="M172.9,45.6c-1.2,0-2.3,0.5-3.1,1.3c-1.7,1.8-1.7,4.6,0,6.4c1.7,1.7,4.4,1.8,6.2,0.1c0.2-0.2,0.4-0.4,0.5-0.6
			l2.6,1.8c-2.4,3.4-7.1,4.3-10.5,1.9c-0.4-0.3-0.8-0.6-1.1-0.9c-3-3-3-8,0-11c2.9-3,7.7-3,10.7-0.1c0.3,0.3,0.7,0.7,0.9,1.1
			l-2.6,1.8C175.8,46.3,174.4,45.6,172.9,45.6z"/>
	</g>
	<g>
		<path class="st0" d="M188.4,42.4c1.9,0,3.7,0.8,4.9,2.2c1.4,1.5,2.1,3.4,2.1,5.4v7.8h-3.1V50c0-1.2-0.4-2.3-1.1-3.2
			c-1.2-1.5-3.4-1.8-4.9-0.5c-0.2,0.2-0.4,0.3-0.5,0.5c-0.8,0.9-1.2,2-1.1,3.2v7.8h-3.1V37.6h3.1v6C185.6,42.8,187,42.4,188.4,42.4z
			"/>
	</g>
	<g>
		<path class="st0" d="M212.8,57.8h-3.2v-1.3c-1.3,1-2.8,1.5-4.4,1.5c-2,0-4-0.8-5.4-2.3c-3-3-3-8,0-11c1.4-1.5,3.4-2.3,5.4-2.3
			c1.6,0,3.2,0.5,4.4,1.5v-1.3h3.2L212.8,57.8z M205.1,54.7c1.2,0,2.3-0.5,3.1-1.3c1.7-1.8,1.7-4.6,0-6.4c-1.7-1.7-4.4-1.8-6.2-0.1
			c0,0-0.1,0.1-0.1,0.1c-0.8,0.9-1.3,2-1.3,3.2c0,1.2,0.4,2.4,1.3,3.2C202.8,54.3,203.9,54.7,205.1,54.7z"/>
	</g>
	<g>
		<path class="st0" d="M222.7,42.3c1.9,0,3.7,0.8,4.9,2.2c1.4,1.4,2.1,3.4,2.1,5.4v7.9h-3.1v-7.9c0-1.2-0.4-2.3-1.1-3.2
			c-1.2-1.5-3.5-1.7-5-0.5c-0.2,0.1-0.3,0.3-0.5,0.5c-0.8,0.9-1.2,2-1.1,3.2v7.9h-3.1V42.6h3.1v1C219.9,42.7,221.3,42.3,222.7,42.3z
			"/>
	</g>
	<g>
		<path class="st0" d="M235.3,57.1c0.3,0.7,0.9,1.4,1.5,1.8c0.7,0.5,1.4,0.8,2.3,0.8c1,0,2-0.5,2.6-1.3c0.7-0.8,1.1-1.8,1.1-2.9
			c-2.8,1.9-6.5,1.5-8.8-0.9c-1.3-1.3-2.1-3.1-2.1-5c0-1.9,0.7-3.7,2.1-5.1c2.3-2.4,6-2.8,8.8-0.9v-1h3.2v12.7c0,2-0.7,4-2.1,5.4
			c-1.2,1.4-3,2.2-4.8,2.2c-1.5,0-2.9-0.5-4.1-1.4c-1.2-0.8-2.1-2-2.7-3.3L235.3,57.1z M239,53.6c1,0,2-0.4,2.7-1.2
			c0.7-0.8,1.1-1.8,1.1-2.8c0-1-0.4-2.1-1.1-2.8c-0.7-0.8-1.7-1.2-2.7-1.2c-1,0-2,0.4-2.7,1.2c-1.5,1.6-1.5,4,0,5.6
			C237,53.1,237.9,53.6,239,53.6z"/>
	</g>
	<g>
		<path class="st0" d="M262.4,54.5c-0.6,1-1.5,1.8-2.5,2.4c-3,1.8-6.8,1.3-9.2-1.2c-3-3.1-3-7.9,0-11c2.9-3,7.7-3.1,10.6-0.2
			c0.1,0,0.1,0.1,0.2,0.2c1.5,1.4,2.3,3.4,2.2,5.5v1.3h-11.8c0.2,1,0.8,1.9,1.6,2.5c0.7,0.5,1.6,0.8,2.6,0.8
			c1.4,0.1,2.8-0.6,3.6-1.8L262.4,54.5z M260.2,48.6c-0.8-2.3-3.3-3.5-5.6-2.7c-0.4,0.1-0.7,0.3-1,0.5c-0.7,0.5-1.3,1.3-1.6,2.1
			H260.2z"/>
	</g>
	<g>
		<path class="st0" d="M276.1,37.9c0.7,0.7,0.7,1.8,0,2.5s-1.8,0.7-2.5,0c-0.7-0.7-0.7-1.8,0-2.5C274.2,37.2,275.4,37.2,276.1,37.9
			C276.1,37.9,276.1,37.9,276.1,37.9z M273.2,58.2h3.2V42.6h-3.2V58.2z"/>
	</g>
	<g>
		<path class="st0" d="M294.8,58.2h-3.3v-1.3c-3.1,2.3-7.4,1.9-10.1-0.8c-3-3.1-3-8.1,0-11.2c1.4-1.5,3.4-2.4,5.5-2.3
			c1.6,0,3.2,0.5,4.5,1.5v-6.5h3.3L294.8,58.2z M287,55.1c1.2,0,2.4-0.5,3.2-1.4c1.8-1.8,1.8-4.8,0-6.6c-1.7-1.8-4.5-1.8-6.3-0.1
			c0,0-0.1,0.1-0.1,0.1c-1.7,1.8-1.7,4.7,0,6.6C284.6,54.6,285.8,55.1,287,55.1L287,55.1z"/>
	</g>
	<g>
		<path class="st0" d="M266.8,57.5c-0.4-0.4-0.6-0.9-0.6-1.5c0-0.5,0.2-1.1,0.6-1.4c0.4-0.4,0.9-0.6,1.4-0.6c0.5,0,1,0.2,1.4,0.6
			c0.4,0.4,0.6,0.9,0.6,1.4c0,0.5-0.2,1.1-0.6,1.5c-0.4,0.4-0.9,0.6-1.4,0.6C267.7,58.1,267.2,57.9,266.8,57.5z"/>
	</g>
	<g>
		<path class="st0" d="M53.5,70.9v-5.5h-1.8v-1.1h4.8v1.1h-1.8v5.5H53.5z"/>
		<path class="st0" d="M59.3,64.3v2.4c0.4-0.5,0.8-0.7,1.3-0.7c0.3,0,0.5,0.1,0.7,0.2s0.4,0.2,0.5,0.4c0.1,0.2,0.2,0.4,0.2,0.6
			c0,0.2,0.1,0.5,0.1,0.9v2.8H61v-2.5c0-0.5,0-0.8-0.1-1c0-0.1-0.1-0.2-0.2-0.3C60.6,67,60.4,67,60.3,67c-0.2,0-0.4,0.1-0.5,0.2
			c-0.2,0.1-0.3,0.3-0.3,0.5c-0.1,0.2-0.1,0.5-0.1,0.9v2.4h-1.2v-6.6H59.3z"/>
		<path class="st0" d="M66.7,69.3l1.2,0.2c-0.1,0.5-0.4,0.8-0.7,1.1S66.4,71,66,71c-0.8,0-1.3-0.3-1.7-0.8c-0.3-0.4-0.4-1-0.4-1.6
			c0-0.8,0.2-1.4,0.6-1.9c0.4-0.4,0.9-0.7,1.4-0.7c0.7,0,1.2,0.2,1.5,0.7c0.4,0.5,0.6,1.2,0.5,2.2H65c0,0.4,0.1,0.7,0.3,0.9
			c0.2,0.2,0.4,0.3,0.7,0.3c0.2,0,0.3-0.1,0.5-0.2C66.5,69.8,66.6,69.6,66.7,69.3z M66.8,68.1c0-0.4-0.1-0.6-0.3-0.8
			c-0.2-0.2-0.4-0.3-0.6-0.3c-0.3,0-0.5,0.1-0.6,0.3c-0.2,0.2-0.2,0.5-0.2,0.8H66.8z"/>
		<path class="st0" d="M72.9,70.9v-6.6h4.1v1.1h-2.9V67h2.5v1.1h-2.5v2.8H72.9z"/>
		<path class="st0" d="M81.8,70.9v-0.7c-0.2,0.3-0.4,0.5-0.6,0.6S80.6,71,80.3,71c-0.3,0-0.6-0.1-0.8-0.2c-0.2-0.1-0.4-0.3-0.5-0.6
			s-0.2-0.6-0.2-1.1v-3H80v2.2c0,0.7,0,1.1,0.1,1.2c0,0.2,0.1,0.3,0.2,0.4s0.3,0.1,0.4,0.1c0.2,0,0.4-0.1,0.5-0.2
			c0.2-0.1,0.3-0.3,0.3-0.4c0.1-0.2,0.1-0.6,0.1-1.3v-2h1.2v4.8H81.8z"/>
		<path class="st0" d="M86.9,66.1v1h-0.8V69c0,0.4,0,0.6,0,0.7s0,0.1,0.1,0.2c0.1,0,0.1,0.1,0.2,0.1c0.1,0,0.3,0,0.5-0.1l0.1,1
			c-0.3,0.1-0.6,0.2-0.9,0.2c-0.2,0-0.4,0-0.6-0.1c-0.2-0.1-0.3-0.2-0.4-0.3c-0.1-0.1-0.1-0.3-0.2-0.5c0-0.1,0-0.4,0-0.9v-2.1h-0.5
			v-1H85v-0.9l1.2-0.7v1.7H86.9z"/>
		<path class="st0" d="M91.4,70.9v-0.7c-0.2,0.3-0.4,0.5-0.6,0.6S90.3,71,90,71c-0.3,0-0.6-0.1-0.8-0.2c-0.2-0.1-0.4-0.3-0.5-0.6
			s-0.2-0.6-0.2-1.1v-3h1.2v2.2c0,0.7,0,1.1,0.1,1.2c0,0.2,0.1,0.3,0.2,0.4s0.3,0.1,0.4,0.1c0.2,0,0.4-0.1,0.5-0.2
			c0.2-0.1,0.3-0.3,0.3-0.4c0.1-0.2,0.1-0.6,0.1-1.3v-2h1.2v4.8H91.4z"/>
		<path class="st0" d="M95.7,70.9h-1.2v-4.8h1.1v0.7c0.2-0.3,0.4-0.5,0.5-0.6s0.3-0.2,0.5-0.2c0.3,0,0.5,0.1,0.8,0.2L97,67.3
			c-0.2-0.1-0.4-0.2-0.5-0.2c-0.2,0-0.3,0-0.4,0.1c-0.1,0.1-0.2,0.3-0.3,0.5c-0.1,0.3-0.1,0.8-0.1,1.6V70.9z"/>
		<path class="st0" d="M101.2,69.3l1.2,0.2c-0.1,0.5-0.4,0.8-0.7,1.1S101,71,100.5,71c-0.8,0-1.3-0.3-1.7-0.8
			c-0.3-0.4-0.4-1-0.4-1.6c0-0.8,0.2-1.4,0.6-1.9c0.4-0.4,0.9-0.7,1.4-0.7c0.7,0,1.2,0.2,1.5,0.7c0.4,0.5,0.6,1.2,0.5,2.2h-2.9
			c0,0.4,0.1,0.7,0.3,0.9c0.2,0.2,0.4,0.3,0.7,0.3c0.2,0,0.3-0.1,0.5-0.2C101.1,69.8,101.2,69.6,101.2,69.3z M101.3,68.1
			c0-0.4-0.1-0.6-0.3-0.8c-0.2-0.2-0.4-0.3-0.6-0.3c-0.3,0-0.5,0.1-0.6,0.3c-0.2,0.2-0.2,0.5-0.2,0.8H101.3z"/>
		<path class="st0" d="M107.2,68.4c0-0.4,0.1-0.8,0.3-1.2c0.2-0.4,0.5-0.7,0.8-0.9c0.3-0.2,0.7-0.3,1.2-0.3c0.7,0,1.2,0.2,1.6,0.7
			c0.4,0.5,0.6,1.1,0.6,1.8c0,0.7-0.2,1.3-0.6,1.8c-0.4,0.5-1,0.7-1.6,0.7c-0.4,0-0.8-0.1-1.1-0.3s-0.6-0.5-0.8-0.9
			C107.3,69.4,107.2,69,107.2,68.4z M108.4,68.5c0,0.5,0.1,0.8,0.3,1.1c0.2,0.3,0.5,0.4,0.8,0.4c0.3,0,0.6-0.1,0.8-0.4
			c0.2-0.2,0.3-0.6,0.3-1.1c0-0.5-0.1-0.8-0.3-1.1c-0.2-0.3-0.5-0.4-0.8-0.4c-0.3,0-0.6,0.1-0.8,0.4C108.5,67.6,108.4,68,108.4,68.5
			z"/>
		<path class="st0" d="M112.9,66.1h0.6v-0.4c0-0.4,0-0.7,0.1-0.9c0.1-0.2,0.2-0.4,0.4-0.5c0.2-0.1,0.5-0.2,0.8-0.2
			c0.3,0,0.7,0.1,1,0.2l-0.2,0.9c-0.2,0-0.4-0.1-0.5-0.1c-0.2,0-0.3,0-0.4,0.1c-0.1,0.1-0.1,0.2-0.1,0.5v0.3h0.9v1h-0.9v3.8h-1.2
			v-3.8h-0.6V66.1z"/>
		<path class="st0" d="M120.3,64.3h2.2c0.5,0,0.9,0,1.2,0.1c0.4,0.1,0.7,0.3,0.9,0.6c0.3,0.3,0.4,0.6,0.6,1.1s0.2,0.9,0.2,1.6
			c0,0.5-0.1,1-0.2,1.4c-0.2,0.5-0.4,0.9-0.6,1.2c-0.2,0.2-0.5,0.4-0.9,0.5c-0.3,0.1-0.6,0.1-1.1,0.1h-2.3V64.3z M121.5,65.4v4.4
			h0.9c0.3,0,0.6,0,0.7-0.1c0.2-0.1,0.4-0.1,0.5-0.3c0.1-0.1,0.2-0.3,0.3-0.6c0.1-0.3,0.1-0.7,0.1-1.2c0-0.5,0-0.9-0.1-1.2
			s-0.2-0.5-0.3-0.6s-0.3-0.3-0.6-0.3c-0.2,0-0.5-0.1-1-0.1H121.5z"/>
		<path class="st0" d="M127.2,65.5v-1.2h1.2v1.2H127.2z M127.2,70.9v-4.8h1.2v4.8H127.2z"/>
		<path class="st0" d="M130.3,71.2l1.3,0.2c0,0.2,0.1,0.3,0.2,0.3c0.1,0.1,0.3,0.1,0.5,0.1c0.3,0,0.5,0,0.7-0.1
			c0.1-0.1,0.2-0.2,0.2-0.3c0-0.1,0.1-0.3,0.1-0.6v-0.7c-0.3,0.5-0.8,0.8-1.3,0.8c-0.6,0-1.1-0.3-1.4-0.8c-0.3-0.4-0.4-1-0.4-1.6
			c0-0.8,0.2-1.4,0.5-1.8c0.4-0.4,0.8-0.6,1.3-0.6c0.5,0,1,0.3,1.3,0.8v-0.7h1.1v4.3c0,0.6,0,1-0.1,1.3c-0.1,0.3-0.2,0.5-0.4,0.7
			c-0.2,0.2-0.4,0.3-0.6,0.4c-0.3,0.1-0.6,0.1-1,0.1c-0.7,0-1.3-0.1-1.6-0.4c-0.3-0.3-0.5-0.6-0.5-1.1
			C130.3,71.3,130.3,71.2,130.3,71.2z M131.3,68.4c0,0.5,0.1,0.9,0.3,1.1c0.2,0.2,0.4,0.4,0.7,0.4c0.3,0,0.5-0.1,0.7-0.4
			c0.2-0.2,0.3-0.6,0.3-1.1c0-0.5-0.1-0.9-0.3-1.1c-0.2-0.2-0.4-0.4-0.7-0.4c-0.3,0-0.5,0.1-0.7,0.4
			C131.4,67.5,131.3,67.9,131.3,68.4z"/>
		<path class="st0" d="M136.4,65.5v-1.2h1.2v1.2H136.4z M136.4,70.9v-4.8h1.2v4.8H136.4z"/>
		<path class="st0" d="M141.6,66.1v1h-0.8V69c0,0.4,0,0.6,0,0.7s0,0.1,0.1,0.2c0.1,0,0.1,0.1,0.2,0.1c0.1,0,0.3,0,0.5-0.1l0.1,1
			c-0.3,0.1-0.6,0.2-0.9,0.2c-0.2,0-0.4,0-0.6-0.1c-0.2-0.1-0.3-0.2-0.4-0.3c-0.1-0.1-0.1-0.3-0.2-0.5c0-0.1,0-0.4,0-0.9v-2.1h-0.5
			v-1h0.5v-0.9l1.2-0.7v1.7H141.6z"/>
		<path class="st0" d="M144.1,67.6l-1.1-0.2c0.1-0.5,0.3-0.8,0.6-1c0.3-0.2,0.7-0.3,1.3-0.3c0.5,0,0.9,0.1,1.2,0.2s0.4,0.3,0.5,0.5
			c0.1,0.2,0.2,0.6,0.2,1.1l0,1.5c0,0.4,0,0.7,0.1,0.9s0.1,0.4,0.2,0.6h-1.1c0-0.1-0.1-0.2-0.1-0.4c0-0.1,0-0.1,0-0.1
			c-0.2,0.2-0.4,0.4-0.6,0.5c-0.2,0.1-0.5,0.2-0.7,0.2c-0.5,0-0.8-0.1-1.1-0.4c-0.3-0.3-0.4-0.6-0.4-1c0-0.3,0.1-0.5,0.2-0.7
			c0.1-0.2,0.3-0.4,0.5-0.5c0.2-0.1,0.5-0.2,0.9-0.3c0.5-0.1,0.9-0.2,1.1-0.3v-0.1c0-0.2-0.1-0.4-0.2-0.5c-0.1-0.1-0.3-0.2-0.6-0.2
			c-0.2,0-0.4,0-0.5,0.1C144.3,67.2,144.2,67.3,144.1,67.6z M145.7,68.6c-0.1,0.1-0.4,0.1-0.7,0.2c-0.3,0.1-0.5,0.1-0.6,0.2
			c-0.2,0.1-0.2,0.3-0.2,0.4c0,0.2,0.1,0.3,0.2,0.5c0.1,0.1,0.3,0.2,0.5,0.2c0.2,0,0.4-0.1,0.6-0.2c0.1-0.1,0.2-0.3,0.3-0.4
			c0-0.1,0-0.3,0-0.6V68.6z"/>
		<path class="st0" d="M148.8,70.9v-6.6h1.2v6.6H148.8z"/>
		<path class="st0" d="M160.3,70.9H159l-0.5-1.5h-2.4l-0.5,1.5h-1.3l2.4-6.6h1.3L160.3,70.9z M158.1,68.3l-0.8-2.4l-0.8,2.4H158.1z"
			/>
		<path class="st0" d="M161.4,69.5l1.2-0.2c0,0.2,0.2,0.4,0.3,0.6c0.2,0.1,0.4,0.2,0.6,0.2c0.3,0,0.5-0.1,0.7-0.2
			c0.1-0.1,0.2-0.2,0.2-0.3c0-0.1,0-0.2-0.1-0.2c-0.1-0.1-0.2-0.1-0.4-0.2c-0.9-0.2-1.5-0.4-1.8-0.6c-0.3-0.3-0.5-0.6-0.5-1.1
			c0-0.4,0.2-0.8,0.4-1c0.3-0.3,0.8-0.4,1.4-0.4c0.6,0,1,0.1,1.3,0.3c0.3,0.2,0.5,0.5,0.6,0.9l-1.1,0.2c0-0.2-0.1-0.3-0.3-0.4
			c-0.1-0.1-0.3-0.1-0.6-0.1c-0.3,0-0.5,0-0.7,0.1c-0.1,0.1-0.1,0.2-0.1,0.3c0,0.1,0,0.2,0.1,0.2c0.1,0.1,0.5,0.2,1.1,0.4
			c0.6,0.2,1,0.3,1.3,0.6c0.2,0.2,0.4,0.5,0.4,0.9c0,0.4-0.2,0.8-0.5,1.1s-0.8,0.5-1.5,0.5c-0.6,0-1.1-0.1-1.4-0.4
			S161.5,70,161.4,69.5z"/>
		<path class="st0" d="M167,69.5l1.2-0.2c0,0.2,0.2,0.4,0.3,0.6s0.4,0.2,0.6,0.2c0.3,0,0.5-0.1,0.7-0.2c0.1-0.1,0.2-0.2,0.2-0.3
			c0-0.1,0-0.2-0.1-0.2c-0.1-0.1-0.2-0.1-0.4-0.2c-0.9-0.2-1.5-0.4-1.8-0.6c-0.3-0.3-0.5-0.6-0.5-1.1c0-0.4,0.2-0.8,0.4-1
			c0.3-0.3,0.8-0.4,1.4-0.4c0.6,0,1,0.1,1.3,0.3c0.3,0.2,0.5,0.5,0.6,0.9l-1.1,0.2c0-0.2-0.1-0.3-0.3-0.4c-0.1-0.1-0.3-0.1-0.6-0.1
			c-0.3,0-0.5,0-0.7,0.1c-0.1,0.1-0.1,0.2-0.1,0.3c0,0.1,0,0.2,0.1,0.2c0.1,0.1,0.5,0.2,1.1,0.4c0.6,0.2,1,0.3,1.3,0.6
			c0.2,0.2,0.4,0.5,0.4,0.9c0,0.4-0.2,0.8-0.5,1.1c-0.3,0.3-0.8,0.5-1.5,0.5c-0.6,0-1.1-0.1-1.4-0.4S167.1,70,167,69.5z"/>
		<path class="st0" d="M175.4,69.3l1.2,0.2c-0.1,0.5-0.4,0.8-0.7,1.1s-0.7,0.4-1.2,0.4c-0.8,0-1.3-0.3-1.7-0.8
			c-0.3-0.4-0.4-1-0.4-1.6c0-0.8,0.2-1.4,0.6-1.9c0.4-0.4,0.9-0.7,1.4-0.7c0.7,0,1.2,0.2,1.5,0.7c0.4,0.5,0.6,1.2,0.5,2.2h-2.9
			c0,0.4,0.1,0.7,0.3,0.9c0.2,0.2,0.4,0.3,0.7,0.3c0.2,0,0.3-0.1,0.5-0.2C175.3,69.8,175.4,69.6,175.4,69.3z M175.5,68.1
			c0-0.4-0.1-0.6-0.3-0.8c-0.2-0.2-0.4-0.3-0.6-0.3c-0.3,0-0.5,0.1-0.6,0.3c-0.2,0.2-0.2,0.5-0.2,0.8H175.5z"/>
		<path class="st0" d="M180.5,66.1v1h-0.8V69c0,0.4,0,0.6,0,0.7c0,0.1,0,0.1,0.1,0.2c0.1,0,0.1,0.1,0.2,0.1c0.1,0,0.3,0,0.5-0.1
			l0.1,1c-0.3,0.1-0.6,0.2-0.9,0.2c-0.2,0-0.4,0-0.6-0.1s-0.3-0.2-0.4-0.3s-0.1-0.3-0.2-0.5c0-0.1,0-0.4,0-0.9v-2.1H178v-1h0.5v-0.9
			l1.2-0.7v1.7H180.5z"/>
		<path class="st0" d="M181.7,69.5l1.2-0.2c0,0.2,0.2,0.4,0.3,0.6s0.4,0.2,0.6,0.2c0.3,0,0.5-0.1,0.7-0.2c0.1-0.1,0.2-0.2,0.2-0.3
			c0-0.1,0-0.2-0.1-0.2c-0.1-0.1-0.2-0.1-0.4-0.2c-0.9-0.2-1.5-0.4-1.8-0.6c-0.3-0.3-0.5-0.6-0.5-1.1c0-0.4,0.2-0.8,0.4-1
			c0.3-0.3,0.8-0.4,1.4-0.4c0.6,0,1,0.1,1.3,0.3c0.3,0.2,0.5,0.5,0.6,0.9l-1.1,0.2c0-0.2-0.1-0.3-0.3-0.4c-0.1-0.1-0.3-0.1-0.6-0.1
			c-0.3,0-0.5,0-0.7,0.1c-0.1,0.1-0.1,0.2-0.1,0.3c0,0.1,0,0.2,0.1,0.2c0.1,0.1,0.5,0.2,1.1,0.4c0.6,0.2,1,0.3,1.3,0.6
			c0.2,0.2,0.4,0.5,0.4,0.9c0,0.4-0.2,0.8-0.5,1.1c-0.3,0.3-0.8,0.5-1.5,0.5c-0.6,0-1.1-0.1-1.4-0.4S181.8,70,181.7,69.5z"/>
		<path class="st0" d="M190.8,70.9v-6.6h4.5v1.1h-3.3v1.5h3V68h-3v1.8h3.4v1.1H190.8z"/>
		<path class="st0" d="M196.8,70.9l1.6-2.5l-1.5-2.3h1.4l0.8,1.3l0.8-1.3h1.4l-1.5,2.3l1.6,2.5h-1.4l-0.9-1.5l-0.9,1.5H196.8z"/>
		<path class="st0" d="M206.7,67.5l-1.1,0.2c0-0.2-0.1-0.4-0.3-0.6c-0.1-0.1-0.3-0.2-0.5-0.2c-0.3,0-0.5,0.1-0.7,0.3
			s-0.3,0.6-0.3,1.1c0,0.6,0.1,1,0.3,1.2c0.2,0.2,0.4,0.3,0.7,0.3c0.2,0,0.4-0.1,0.5-0.2c0.1-0.1,0.2-0.4,0.3-0.7l1.1,0.2
			c-0.1,0.6-0.3,1-0.7,1.3c-0.3,0.3-0.8,0.4-1.3,0.4c-0.6,0-1.2-0.2-1.5-0.7c-0.4-0.4-0.6-1-0.6-1.8c0-0.8,0.2-1.4,0.6-1.8
			c0.4-0.4,0.9-0.7,1.5-0.7c0.5,0,1,0.1,1.3,0.4C206.3,66.6,206.5,67,206.7,67.5z"/>
		<path class="st0" d="M209.6,64.3v2.4c0.4-0.5,0.8-0.7,1.3-0.7c0.3,0,0.5,0.1,0.7,0.2s0.4,0.2,0.5,0.4c0.1,0.2,0.2,0.4,0.2,0.6
			c0,0.2,0.1,0.5,0.1,0.9v2.8h-1.2v-2.5c0-0.5,0-0.8-0.1-1c0-0.1-0.1-0.2-0.2-0.3c-0.1-0.1-0.2-0.1-0.4-0.1c-0.2,0-0.4,0.1-0.5,0.2
			c-0.2,0.1-0.3,0.3-0.3,0.5s-0.1,0.5-0.1,0.9v2.4h-1.2v-6.6H209.6z"/>
		<path class="st0" d="M215.3,67.6l-1.1-0.2c0.1-0.5,0.3-0.8,0.6-1c0.3-0.2,0.7-0.3,1.3-0.3c0.5,0,0.9,0.1,1.2,0.2
			c0.3,0.1,0.4,0.3,0.5,0.5c0.1,0.2,0.2,0.6,0.2,1.1l0,1.5c0,0.4,0,0.7,0.1,0.9s0.1,0.4,0.2,0.6h-1.1c0-0.1-0.1-0.2-0.1-0.4
			c0-0.1,0-0.1,0-0.1c-0.2,0.2-0.4,0.4-0.6,0.5c-0.2,0.1-0.5,0.2-0.7,0.2c-0.5,0-0.8-0.1-1.1-0.4c-0.3-0.3-0.4-0.6-0.4-1
			c0-0.3,0.1-0.5,0.2-0.7c0.1-0.2,0.3-0.4,0.5-0.5c0.2-0.1,0.5-0.2,0.9-0.3c0.5-0.1,0.9-0.2,1.1-0.3v-0.1c0-0.2-0.1-0.4-0.2-0.5
			c-0.1-0.1-0.3-0.2-0.6-0.2c-0.2,0-0.4,0-0.5,0.1C215.4,67.2,215.3,67.3,215.3,67.6z M216.8,68.6c-0.1,0.1-0.4,0.1-0.7,0.2
			c-0.3,0.1-0.5,0.1-0.6,0.2c-0.2,0.1-0.2,0.3-0.2,0.4c0,0.2,0.1,0.3,0.2,0.5s0.3,0.2,0.5,0.2c0.2,0,0.4-0.1,0.6-0.2
			c0.1-0.1,0.2-0.3,0.3-0.4c0-0.1,0-0.3,0-0.6V68.6z"/>
		<path class="st0" d="M223.9,70.9h-1.2v-2.4c0-0.5,0-0.8-0.1-1s-0.1-0.3-0.2-0.4s-0.2-0.1-0.4-0.1c-0.2,0-0.4,0.1-0.5,0.2
			c-0.2,0.1-0.3,0.3-0.3,0.5c-0.1,0.2-0.1,0.6-0.1,1.1v2.2h-1.2v-4.8h1.1v0.7c0.4-0.5,0.9-0.8,1.4-0.8c0.3,0,0.5,0.1,0.7,0.2
			c0.2,0.1,0.4,0.2,0.5,0.4c0.1,0.2,0.2,0.3,0.2,0.5s0.1,0.5,0.1,0.8V70.9z"/>
		<path class="st0" d="M225.8,71.2l1.3,0.2c0,0.2,0.1,0.3,0.2,0.3c0.1,0.1,0.3,0.1,0.5,0.1c0.3,0,0.5,0,0.7-0.1
			c0.1-0.1,0.2-0.2,0.2-0.3c0-0.1,0.1-0.3,0.1-0.6v-0.7c-0.3,0.5-0.8,0.8-1.3,0.8c-0.6,0-1.1-0.3-1.4-0.8c-0.3-0.4-0.4-1-0.4-1.6
			c0-0.8,0.2-1.4,0.5-1.8c0.4-0.4,0.8-0.6,1.3-0.6c0.5,0,1,0.3,1.3,0.8v-0.7h1.1v4.3c0,0.6,0,1-0.1,1.3c-0.1,0.3-0.2,0.5-0.4,0.7
			c-0.2,0.2-0.4,0.3-0.6,0.4s-0.6,0.1-1,0.1c-0.7,0-1.3-0.1-1.6-0.4c-0.3-0.3-0.5-0.6-0.5-1.1C225.8,71.3,225.8,71.2,225.8,71.2z
			 M226.9,68.4c0,0.5,0.1,0.9,0.3,1.1c0.2,0.2,0.4,0.4,0.7,0.4c0.3,0,0.5-0.1,0.7-0.4c0.2-0.2,0.3-0.6,0.3-1.1
			c0-0.5-0.1-0.9-0.3-1.1c-0.2-0.2-0.4-0.4-0.7-0.4c-0.3,0-0.5,0.1-0.7,0.4C227,67.5,226.9,67.9,226.9,68.4z"/>
		<path class="st0" d="M234.5,69.3l1.2,0.2c-0.1,0.5-0.4,0.8-0.7,1.1s-0.7,0.4-1.2,0.4c-0.8,0-1.3-0.3-1.7-0.8
			c-0.3-0.4-0.4-1-0.4-1.6c0-0.8,0.2-1.4,0.6-1.9c0.4-0.4,0.9-0.7,1.4-0.7c0.7,0,1.2,0.2,1.5,0.7c0.4,0.5,0.6,1.2,0.5,2.2h-2.9
			c0,0.4,0.1,0.7,0.3,0.9c0.2,0.2,0.4,0.3,0.7,0.3c0.2,0,0.3-0.1,0.5-0.2S234.4,69.6,234.5,69.3z M234.6,68.1c0-0.4-0.1-0.6-0.3-0.8
			c-0.2-0.2-0.4-0.3-0.6-0.3c-0.3,0-0.5,0.1-0.6,0.3c-0.2,0.2-0.2,0.5-0.2,0.8H234.6z"/>
		<path class="st0" d="M240.7,65.5v-1.2h1.2v1.2H240.7z M240.7,70.9v-4.8h1.2v4.8H240.7z"/>
		<path class="st0" d="M247.9,70.9h-1.2v-2.4c0-0.5,0-0.8-0.1-1c0-0.2-0.1-0.3-0.2-0.4S246.1,67,246,67c-0.2,0-0.4,0.1-0.5,0.2
			c-0.2,0.1-0.3,0.3-0.3,0.5c-0.1,0.2-0.1,0.6-0.1,1.1v2.2h-1.2v-4.8h1.1v0.7c0.4-0.5,0.9-0.8,1.4-0.8c0.3,0,0.5,0.1,0.7,0.2
			s0.4,0.2,0.5,0.4c0.1,0.2,0.2,0.3,0.2,0.5s0.1,0.5,0.1,0.8V70.9z"/>
		<path class="st0" d="M253,70.9v-6.6h1.2v6.6H253z"/>
		<path class="st0" d="M260.2,70.9h-1.2v-2.4c0-0.5,0-0.8-0.1-1c0-0.2-0.1-0.3-0.2-0.4s-0.2-0.1-0.4-0.1c-0.2,0-0.4,0.1-0.5,0.2
			c-0.2,0.1-0.3,0.3-0.3,0.5c-0.1,0.2-0.1,0.6-0.1,1.1v2.2h-1.2v-4.8h1.1v0.7c0.4-0.5,0.9-0.8,1.4-0.8c0.3,0,0.5,0.1,0.7,0.2
			c0.2,0.1,0.4,0.2,0.5,0.4c0.1,0.2,0.2,0.3,0.2,0.5c0,0.2,0.1,0.5,0.1,0.8V70.9z"/>
		<path class="st0" d="M266.3,70.9h-1.1v-0.7c-0.2,0.3-0.4,0.5-0.6,0.6s-0.5,0.2-0.7,0.2c-0.5,0-0.9-0.2-1.3-0.7
			c-0.4-0.4-0.5-1.1-0.5-1.8c0-0.8,0.2-1.4,0.5-1.8c0.3-0.4,0.8-0.6,1.3-0.6c0.5,0,0.9,0.2,1.3,0.7v-2.4h1.2V70.9z M263.2,68.4
			c0,0.5,0.1,0.9,0.2,1.1c0.2,0.3,0.4,0.5,0.8,0.5c0.3,0,0.5-0.1,0.7-0.4c0.2-0.2,0.3-0.6,0.3-1.1c0-0.5-0.1-0.9-0.3-1.2
			c-0.2-0.2-0.4-0.4-0.7-0.4c-0.3,0-0.5,0.1-0.7,0.4S263.2,67.9,263.2,68.4z"/>
		<path class="st0" d="M268,68.4c0-0.4,0.1-0.8,0.3-1.2s0.5-0.7,0.8-0.9c0.3-0.2,0.7-0.3,1.2-0.3c0.7,0,1.2,0.2,1.6,0.7
			c0.4,0.5,0.6,1.1,0.6,1.8c0,0.7-0.2,1.3-0.6,1.8c-0.4,0.5-1,0.7-1.6,0.7c-0.4,0-0.8-0.1-1.1-0.3c-0.4-0.2-0.6-0.5-0.8-0.9
			S268,69,268,68.4z M269.2,68.5c0,0.5,0.1,0.8,0.3,1.1c0.2,0.3,0.5,0.4,0.8,0.4s0.6-0.1,0.8-0.4c0.2-0.2,0.3-0.6,0.3-1.1
			c0-0.5-0.1-0.8-0.3-1.1c-0.2-0.3-0.5-0.4-0.8-0.4s-0.6,0.1-0.8,0.4S269.2,68,269.2,68.5z"/>
		<path class="st0" d="M278.3,70.9h-1.2v-2.4c0-0.5,0-0.8-0.1-1c-0.1-0.2-0.1-0.3-0.2-0.4s-0.2-0.1-0.4-0.1c-0.2,0-0.4,0.1-0.5,0.2
			c-0.2,0.1-0.3,0.3-0.3,0.5c-0.1,0.2-0.1,0.6-0.1,1.1v2.2h-1.2v-4.8h1.1v0.7c0.4-0.5,0.9-0.8,1.4-0.8c0.3,0,0.5,0.1,0.7,0.2
			c0.2,0.1,0.4,0.2,0.5,0.4c0.1,0.2,0.2,0.3,0.2,0.5c0,0.2,0.1,0.5,0.1,0.8V70.9z"/>
		<path class="st0" d="M282.8,69.3l1.2,0.2c-0.1,0.5-0.4,0.8-0.7,1.1s-0.7,0.4-1.2,0.4c-0.8,0-1.3-0.3-1.7-0.8
			c-0.3-0.4-0.4-1-0.4-1.6c0-0.8,0.2-1.4,0.6-1.9c0.4-0.4,0.9-0.7,1.4-0.7c0.7,0,1.2,0.2,1.5,0.7c0.4,0.5,0.6,1.2,0.5,2.2h-2.9
			c0,0.4,0.1,0.7,0.3,0.9c0.2,0.2,0.4,0.3,0.7,0.3c0.2,0,0.3-0.1,0.5-0.2C282.7,69.8,282.7,69.6,282.8,69.3z M282.9,68.1
			c0-0.4-0.1-0.6-0.3-0.8c-0.2-0.2-0.4-0.3-0.6-0.3c-0.3,0-0.5,0.1-0.6,0.3c-0.2,0.2-0.2,0.5-0.2,0.8H282.9z"/>
		<path class="st0" d="M285.4,69.5l1.2-0.2c0,0.2,0.1,0.4,0.3,0.6c0.2,0.1,0.4,0.2,0.6,0.2c0.3,0,0.5-0.1,0.7-0.2
			c0.1-0.1,0.2-0.2,0.2-0.3c0-0.1,0-0.2-0.1-0.2c-0.1-0.1-0.2-0.1-0.4-0.2c-0.9-0.2-1.5-0.4-1.8-0.6c-0.3-0.3-0.5-0.6-0.5-1.1
			c0-0.4,0.1-0.8,0.4-1c0.3-0.3,0.8-0.4,1.4-0.4c0.6,0,1,0.1,1.3,0.3c0.3,0.2,0.5,0.5,0.6,0.9l-1.1,0.2c0-0.2-0.1-0.3-0.3-0.4
			s-0.3-0.1-0.6-0.1c-0.3,0-0.5,0-0.7,0.1c-0.1,0.1-0.1,0.2-0.1,0.3c0,0.1,0,0.2,0.1,0.2c0.1,0.1,0.5,0.2,1.1,0.4s1,0.3,1.3,0.6
			c0.2,0.2,0.4,0.5,0.4,0.9c0,0.4-0.2,0.8-0.5,1.1c-0.3,0.3-0.8,0.5-1.5,0.5c-0.6,0-1.1-0.1-1.4-0.4S285.5,70,285.4,69.5z"/>
		<path class="st0" d="M291.4,65.5v-1.2h1.2v1.2H291.4z M291.4,70.9v-4.8h1.2v4.8H291.4z"/>
		<path class="st0" d="M295.4,67.6l-1.1-0.2c0.1-0.5,0.3-0.8,0.6-1s0.7-0.3,1.3-0.3c0.5,0,0.9,0.1,1.2,0.2c0.3,0.1,0.4,0.3,0.5,0.5
			c0.1,0.2,0.2,0.6,0.2,1.1l0,1.5c0,0.4,0,0.7,0.1,0.9s0.1,0.4,0.2,0.6h-1.1c0-0.1-0.1-0.2-0.1-0.4c0-0.1,0-0.1,0-0.1
			c-0.2,0.2-0.4,0.4-0.6,0.5c-0.2,0.1-0.5,0.2-0.7,0.2c-0.5,0-0.8-0.1-1.1-0.4c-0.3-0.3-0.4-0.6-0.4-1c0-0.3,0.1-0.5,0.2-0.7
			c0.1-0.2,0.3-0.4,0.5-0.5c0.2-0.1,0.5-0.2,0.9-0.3c0.5-0.1,0.9-0.2,1.1-0.3v-0.1c0-0.2-0.1-0.4-0.2-0.5c-0.1-0.1-0.3-0.2-0.6-0.2
			c-0.2,0-0.4,0-0.5,0.1C295.6,67.2,295.5,67.3,295.4,67.6z M297,68.6c-0.1,0.1-0.4,0.1-0.7,0.2c-0.3,0.1-0.5,0.1-0.6,0.2
			c-0.2,0.1-0.2,0.3-0.2,0.4c0,0.2,0.1,0.3,0.2,0.5c0.1,0.1,0.3,0.2,0.5,0.2c0.2,0,0.4-0.1,0.6-0.2c0.1-0.1,0.2-0.3,0.3-0.4
			c0-0.1,0-0.3,0-0.6V68.6z"/>
	</g>
</g>
</svg>
