<svg width="1500" height="881" viewBox="0 0 1500 881" fill="none" xmlns="http://www.w3.org/2000/svg">
<path d="M1350 740H750V140H750.2C1081.5 140 1350 408.7 1350 740Z" fill="#CBDBE8"/>
<path d="M535.218 235.465C562.415 317.672 487.469 417.518 403.074 445.438C318.679 473.358 202.702 442.253 175.506 360.046C148.31 277.838 219.86 174.653 304.255 146.733C388.65 118.813 508.022 153.258 535.218 235.465Z" fill="#ED8D47"/>
<path d="M462.536 64.2427C522.142 21.3142 522.757 145.418 503.095 210.386L377.865 147.636C389.599 139.358 402.931 107.171 462.536 64.2427Z" fill="#ED8D47"/>
<path d="M132.805 172.831C59.3581 173.92 132.877 273.905 187.405 314.329L250.505 189.275C236.15 189.628 206.253 171.742 132.805 172.831Z" fill="#ED8D47"/>
<path d="M146.557 188.491C98.7804 189.149 146.676 254.435 182.176 280.848L223.133 199.304C213.795 199.524 194.334 187.833 146.557 188.491Z" fill="#EC6E5D"/>
<path d="M464.002 83.4727C502.745 55.5075 503.234 136.477 490.491 178.85L408.983 137.82C416.61 132.428 425.259 111.438 464.002 83.4727Z" fill="#EC6E5D"/>
<path d="M551.957 286.834C553.994 346.414 494.573 426.326 408.752 454.717C322.932 483.109 241.05 468.912 192.647 405.702C153.961 364.942 270.362 324.202 356.182 295.81C442.003 267.419 550.109 232.77 551.957 286.834Z" fill="#FFF6C5"/>
<ellipse cx="375.996" cy="353.972" rx="107.666" ry="104.875" transform="rotate(-18.3055 375.996 353.972)" fill="#FFF6C5"/>
<path d="M376.373 300.289C386.859 296.82 392.738 284.846 384.514 277.472C381.829 275.064 378.79 273.013 375.466 271.396C365.993 266.787 354.979 266.081 344.847 269.433C334.715 272.785 326.295 279.92 321.44 289.269C319.736 292.55 318.52 296.008 317.8 299.543C315.596 310.366 327.456 316.472 337.943 313.002L357.158 306.646L376.373 300.289Z" fill="#454545"/>
<path d="M353.864 293.229L370.5 343.516" stroke="#454545" stroke-width="5" stroke-linecap="round"/>
<path d="M264.403 240.412C274.32 235.547 278.454 222.916 269.244 216.755C266.234 214.741 262.923 213.128 259.391 211.984C249.333 208.727 238.302 209.536 228.725 214.233C219.148 218.93 211.81 227.131 208.325 237.032C207.101 240.509 206.388 244.096 206.179 247.689C205.538 258.681 218.181 263.084 228.098 258.219L246.25 249.316L264.403 240.412Z" fill="#FFF6C5"/>
<ellipse cx="252.042" cy="288.419" rx="27.7322" ry="36.5475" transform="rotate(-18.3055 252.042 288.419)" fill="#454545"/>
<ellipse rx="14.1287" ry="19.0814" transform="matrix(0.88879 -0.458314 0.465673 0.884957 256.145 279.42)" fill="white"/>
<path d="M400.953 195.312C390.092 197.322 379.241 189.648 382.959 179.21C384.174 175.798 385.87 172.529 388.023 169.504C394.154 160.891 403.491 154.962 413.98 153.021C424.468 151.08 435.25 153.287 443.952 159.156C447.008 161.217 449.719 163.67 452.03 166.43C459.1 174.871 451.577 185.945 440.716 187.955L420.835 191.634L400.953 195.312Z" fill="#FFF6C5"/>
<ellipse rx="27.7321" ry="36.5475" transform="matrix(-0.949395 0.314083 0.314083 0.949395 439.507 226.476)" fill="#454545"/>
<ellipse rx="14.114" ry="19.1023" transform="matrix(-0.840041 0.542523 0.553455 0.832879 437.517 214.958)" fill="white"/>
<path d="M368.103 343.194L340.088 365.852C346.356 379.027 362.438 410.901 385.153 403.386C407.868 395.872 410.012 370.614 403.071 345.015L368.103 343.194Z" fill="#EC6E5D"/>
<path d="M418.935 312.04C415.063 333.166 391.522 361.895 368.826 338.364" stroke="#454545" stroke-width="5" stroke-linecap="round"/>
<path d="M311.19 348.119C326.897 362.768 362.928 371.789 367.112 339.365" stroke="#454545" stroke-width="5" stroke-linecap="round"/>
<ellipse cx="245.739" cy="368.053" rx="31.5386" ry="14.8309" transform="rotate(-18.3055 245.739 368.053)" fill="#FFA89D"/>
<ellipse rx="31.5385" ry="14.8309" transform="matrix(-0.949395 0.314083 0.314083 0.949395 491.475 286.758)" fill="#FFA89D"/>
<path d="M750 140V740H150V739.8C150 408.6 418.6 140 750 140Z" fill="#DFEBF2"/>
<path d="M1052.3 458.9H447.7C446.3 458.9 445.2 457.8 445.2 456.4C445.2 455 446.3 453.9 447.7 453.9H1052.3C1053.7 453.9 1054.8 455 1054.8 456.4C1054.8 457.8 1053.7 458.9 1052.3 458.9Z" fill="black"/>
<path d="M1052.3 525.7H447.7C446.3 525.7 445.2 524.6 445.2 523.2C445.2 521.8 446.3 520.7 447.7 520.7H1052.3C1053.7 520.7 1054.8 521.8 1054.8 523.2C1054.8 524.6 1053.7 525.7 1052.3 525.7Z" fill="black"/>
<path d="M953.901 326.9H546.101V652.6H953.901V326.9Z" fill="#ABB8C1"/>
<path d="M886.801 387.9H613.101V591.6H886.801V387.9Z" fill="#C5D1DA"/>
<path d="M886.901 594.1H613.101C611.701 594.1 610.601 593 610.601 591.6V387.9C610.601 386.5 611.701 385.4 613.101 385.4H886.801C888.201 385.4 889.301 386.5 889.301 387.9V591.6C889.401 593 888.201 594.1 886.901 594.1ZM615.601 589.1H884.301V390.4H615.601V589.1Z" fill="black"/>
<path d="M746.996 514.945H774.796V464.545H746.996V514.945Z" stroke="black" stroke-width="5" stroke-miterlimit="10" stroke-linecap="round" stroke-linejoin="round"/>
<path d="M798.108 514.945H825.908V464.545H798.108V514.945Z" stroke="black" stroke-width="5" stroke-miterlimit="10" stroke-linecap="round" stroke-linejoin="round"/>
<path d="M697.39 514.945H725.19V464.545H697.39V514.945Z" stroke="black" stroke-width="5" stroke-miterlimit="10" stroke-linecap="round" stroke-linejoin="round"/>
<path d="M674.101 514.9V464.6" stroke="black" stroke-width="5" stroke-miterlimit="10" stroke-linecap="round" stroke-linejoin="round"/>
</svg>
