<svg width="370" height="1004" viewBox="0 0 370 1004" fill="none" xmlns="http://www.w3.org/2000/svg">
<g opacity="0.4">
<path d="M152.937 1004C152.937 1004 0 972.106 0 849.36C0 726.613 78.5319 660.342 24.8093 611.248C24.8093 611.248 80.6187 596.509 88.873 716.795C88.873 716.795 157.087 603.867 62.0001 466.404C-33.0636 328.941 4.12716 243.032 47.5319 184.096C90.9366 125.184 136.405 81.0108 119.873 0C119.873 0 163.278 46.6334 152.937 93.2669C142.596 139.9 41.3411 257.749 128.127 314.201C128.127 314.201 223.075 346.42 183.937 230.73C183.937 230.73 266.596 265.107 289.342 336.276C312.064 407.468 334.81 522.833 181.873 704.492C28.9365 886.151 152.937 1003.98 152.937 1003.98V1004Z" fill="url(#paint0_linear_216_370)"/>
<path d="M208.25 786.851C208.25 786.851 213.406 728.279 289.459 644.572C365.512 560.865 337.861 461.386 337.861 461.386C337.861 461.386 399.482 585.773 349.665 655.978C299.847 726.209 255.515 700.267 208.25 786.851Z" fill="url(#paint1_linear_216_370)"/>
</g>
<defs>
<linearGradient id="paint0_linear_216_370" x1="152.847" y1="0" x2="152.847" y2="1004" gradientUnits="userSpaceOnUse">
<stop stop-color="#FBC2C2"/>
<stop offset="1" stop-color="#FBC2C2" stop-opacity="0"/>
</linearGradient>
<linearGradient id="paint1_linear_216_370" x1="288.681" y1="461.386" x2="288.681" y2="786.851" gradientUnits="userSpaceOnUse">
<stop stop-color="#FBC2C2"/>
<stop offset="1" stop-color="#FBC2C2" stop-opacity="0"/>
</linearGradient>
</defs>
</svg>
