<?xml version="1.0" encoding="UTF-8" standalone="no"?>
<svg
   viewBox="0 0 1000 1000"
   version="1.1"
   id="svg385"
   sodipodi:docname="language.svg"
   inkscape:version="1.2.2 (b0a8486541, 2022-12-01)"
   xmlns:inkscape="http://www.inkscape.org/namespaces/inkscape"
   xmlns:sodipodi="http://sodipodi.sourceforge.net/DTD/sodipodi-0.dtd"
   xmlns="http://www.w3.org/2000/svg"
   xmlns:svg="http://www.w3.org/2000/svg">
  <defs
     id="defs389" />
  <sodipodi:namedview
     id="namedview387"
     pagecolor="#ffffff"
     bordercolor="#666666"
     borderopacity="1.0"
     inkscape:showpageshadow="2"
     inkscape:pageopacity="0.0"
     inkscape:pagecheckerboard="0"
     inkscape:deskcolor="#d1d1d1"
     showgrid="false"
     inkscape:zoom="0.779"
     inkscape:cx="500"
     inkscape:cy="499.35815"
     inkscape:window-width="1920"
     inkscape:window-height="959"
     inkscape:window-x="0"
     inkscape:window-y="48"
     inkscape:window-maximized="1"
     inkscape:current-layer="svg385" />
  <path
     d="M365 602q-1 1-7-1l-18-6-11-5q-24-11-48-28-4-2-23-17-19-15-21-16-38 57-75 101-45 53-59 61-2 1-11 3-9 2-10 0l46-52q12-13 48-64 36-51 43-66 10-17 29-55 19-38 20-43-5-1-61 18-5 2-16 5l-19 5q-8 2-9.5 3-1.5 1-1.5 6l0 5q-3 5-18 8-12 4-26 0-10-2-15-11-3-4-3-13l13-3 17-3q32-9 59-18 55-20 56-20 6-1 24-11 18-10 25-12 5-1 12-4 7-3 8-3l3 0q2 7 0 18 0 2-7 16l-15 29q-8 15-9 19-14 28-43 73l35 16 42 18q35 15 37.5 15.5 2.5 0.5 5.5 13.5 3 13 3 18z m-114-272q1 9-3 16-6 13-28 21-16 7-33 7-15-2-27-15-8-8-10-23l0-1q2 1 11 3 9 2 15 0 6-2 32-9 20-7 31-8 9 0 12 9z m389 72l35 127-77-23 42-104z m-618 447l387-130 0-576-387 130 0 576z m692-177l57 17-101-367-56-17-120 299 57 18 25-62 118 36 20 76z m-280-537l319 103 0-212-319 109z m173 738l88 8-30 89-22-37q-73 46-154 60-32 7-51 7l-47 0q-44 0-111-22-67-22-102-47-5-4-5-9 0-5 3-8 3-3 6-3 3 0 11 5 8 5 17 9 9 4 12 6 40 21 89 34 49 13 87 14 54 0 94-8 40-8 87-28 9-4 17-9 8-5 19-11l16-9-24-41z m250-602l0 602-432-137-209 71q-201 68-205 68-8 0-10-7 0-1-1-2l0-602 2-5q3-3 11-6l84-28 0-214 311 110q1 0 90-31 89-31 176-60l90-30q11 0 11 12l0 233 82 26z"
     id="path383"
     style="fill:#8c939a;fill-opacity:1" />
</svg>
