<?xml version="1.0" encoding="utf-8"?>
<!-- Generator: Adobe Illustrator 26.0.1, SVG Export Plug-In . SVG Version: 6.00 Build 0)  -->
<svg version="1.1" id="Layer_1" xmlns="http://www.w3.org/2000/svg" xmlns:xlink="http://www.w3.org/1999/xlink" x="0px" y="0px"
	 viewBox="0 0 485 485" style="enable-background:new 0 0 485 485;" xml:space="preserve">
<style type="text/css">
	.st0{fill:#4F4C4C;}
</style>
<g>
	<path class="st0" d="M362.8,161.9H122.2c-5.4,0-9.7,4.3-9.7,9.7v201.8c0,5.4,4.3,9.7,9.7,9.7h42.9v68c0,15.8,12.8,28.6,28.6,28.6
		l0,0c15.8,0,28.6-12.8,28.6-28.6v-68h40v68c0,15.8,12.8,28.6,28.6,28.6l0,0c15.8,0,28.6-12.8,28.6-28.6v-68h43.5
		c5.4,0,9.7-4.3,9.7-9.7V171.6C372.5,166.3,368.2,161.9,362.8,161.9z"/>
	<path class="st0" d="M71.8,161.9L71.8,161.9c-15.8,0-28.6,12.8-28.6,28.6v116c0,15.8,12.8,28.6,28.6,28.6l0,0
		c15.8,0,28.6-12.8,28.6-28.6v-116C100.3,174.7,87.6,161.9,71.8,161.9z"/>
	<path class="st0" d="M413.2,161.9L413.2,161.9c-15.8,0-28.6,12.8-28.6,28.6v116c0,15.8,12.8,28.6,28.6,28.6l0,0
		c15.8,0,28.6-12.8,28.6-28.6v-116C441.8,174.7,429,161.9,413.2,161.9z"/>
	<path class="st0" d="M124.1,147.8h236.1c6.2,0,10.8-5.7,9.5-11.7c-7.8-37.2-31.5-68.6-63.7-86.7l20.2-36.4c1.4-2.5,0.5-5.6-2-6.9
		c-2.5-1.4-5.6-0.5-6.9,2L297,44.7c-16.7-7.7-35.2-12-54.8-12c-19.6,0-38.1,4.3-54.8,12L167.1,8c-1.4-2.5-4.5-3.4-6.9-2
		c-2.5,1.4-3.4,4.5-2,6.9l20.2,36.4c-32.2,18.1-55.9,49.5-63.7,86.7C113.4,142.1,118,147.8,124.1,147.8z M312.7,93.5
		c0,6.1-4.9,11-11,11c-6.1,0-11-4.9-11-11c0-6.1,4.9-11,11-11C307.8,82.5,312.7,87.4,312.7,93.5z M182.7,82.5c6.1,0,11,4.9,11,11
		c0,6.1-4.9,11-11,11c-6.1,0-11-4.9-11-11C171.8,87.4,176.7,82.5,182.7,82.5z"/>
</g>
</svg>
