<?xml version="1.0" encoding="utf-8"?>
<!-- Generator: Adobe Illustrator 24.1.0, SVG Export Plug-In . SVG Version: 6.00 Build 0)  -->
<svg version="1.1" id="Ebene_1" xmlns="http://www.w3.org/2000/svg" xmlns:xlink="http://www.w3.org/1999/xlink" x="0px" y="0px"
	 width="300px" height="100px" viewBox="0 0 300 100" style="enable-background:new 0 0 300 100;" xml:space="preserve">
<style type="text/css">
	.st0{fill-rule:evenodd;clip-rule:evenodd;fill:#3d3939;}
</style>
<g id="Page-1">
	<g id="Logo-Copy">
		<path id="Combined-Shape" class="st0" d="M10,51L10,51c0-8.4,6.2-15.3,14.7-15.3c5.3,0,8.5,1.9,11.4,4.7l-2.2,2.4
			c-2.5-2.4-5.2-4-9.2-4c-6.5,0-11.3,5.3-11.3,12.1v0.1c0,6.8,4.9,12.2,11.3,12.2c4,0,6.6-1.6,9.4-4.3l2.2,2.1
			c-3,3.1-6.4,5.2-11.7,5.2C16.2,66.1,10,59.4,10,51z M76.9,65.6V36.1h3.3v29.5H76.9z M88.7,36.1h3.1l18.4,23.6V36.1h3.2v29.5h-2.6
			L91.9,41.5v24.2h-3.2V36.1z M145.9,36.1h6.9l6,20l6.5-20.1h5.5l6.5,20.1l6-20h6.7l-10,29.7h-5.6L168,46.6l-6.6,19.3h-5.6
			L145.9,36.1z M195.2,65.6V36.1h6.4v29.5H195.2z M215.7,42.1h-8.9v-6H231v6h-8.9v23.5h-6.4V42.1z M66.2,51L66.2,51
			c0-6.8-4.8-12.3-11.5-12.3s-11.4,5.4-11.4,12.1v0.1c0,6.7,4.8,12.2,11.5,12.2C61.5,63.1,66.2,57.7,66.2,51 M39.9,51L39.9,51
			c0-8.2,6-15.3,14.9-15.3s14.8,7,14.8,15.2v0.1c0,8.1-6,15.3-14.9,15.3S39.9,59.1,39.9,51z M233.3,51L233.3,51
			c0-8.5,6.2-15.3,15.2-15.3c5.5,0,8.8,1.9,11.5,4.5l-4.1,4.8c-2.2-2.1-4.5-3.3-7.5-3.3c-4.9,0-8.5,4.1-8.5,9.2v0.1
			c0,5.1,3.5,9.3,8.5,9.3c3.3,0,5.4-1.3,7.7-3.5l4.1,4.2c-3,3.2-6.3,5.3-12,5.3C239.7,66.1,233.3,59.4,233.3,51z M265.3,36.1h6.4
			v11.7h11.8V36.1h6.4v29.5h-6.4V53.8h-11.8v11.8h-6.4V36.1z M127.3,63.4C127.3,63.4,127.3,63.4,127.3,63.4
			c-0.2,0.2-0.4,0.3-0.6,0.4l0,0c-0.4,0.2-0.8,0.3-1.3,0.4h0c-0.1,0-0.2,0-0.3,0c0,0-0.1,0-0.1,0c-2,0-3.7-1.7-3.6-3.8
			c0-2,1.7-3.7,3.7-3.7c0,0,0.1,0,0.1,0c2,0,3.5,1.6,3.6,3.6c0,0.1,0,0.1,0,0.2c0,0.2,0,0.5-0.1,0.7c0,0.1-0.1,0.2-0.1,0.3
			c0,0.1-0.1,0.3-0.1,0.4c-0.1,0.1-0.1,0.2-0.2,0.4c0,0.1-0.1,0.2-0.1,0.2c-0.1,0.1-0.2,0.3-0.3,0.4c0,0-0.1,0.1-0.1,0.1
			C127.6,63.1,127.5,63.3,127.3,63.4z M134.3,40c0-0.2-0.1-0.4,0-0.6c0-0.2,0-0.4,0.1-0.7c0-0.1,0-0.1,0-0.2c0-0.2,0.1-0.4,0.2-0.5
			c0-0.1,0.1-0.1,0.1-0.2c0.1-0.1,0.1-0.2,0.2-0.4c0.1-0.1,0.1-0.2,0.2-0.3c0-0.1,0.1-0.1,0.1-0.2c0.1-0.2,0.3-0.3,0.5-0.5
			c0,0,0,0,0.1-0.1c0.1-0.1,0.2-0.2,0.4-0.2c0.5-0.3,1.2-0.5,1.9-0.5c0,0,0.1,0,0.1,0c2,0,3.7,1.7,3.6,3.8c0,2-1.7,3.7-3.7,3.7
			c0,0-0.1,0-0.1,0c-1.6,0-3-1.1-3.4-2.6C134.4,40.3,134.4,40.1,134.3,40z M134,47.5c5.9,1.7,9.2,3.9,9.1,9l0,0.1
			c-0.1,3.8-2,6.5-5.1,7.9l0,0c-2.4,1.3-8,1.5-11,1.5c2.2-0.8,3.8-2.9,3.9-5.4c0-0.1,0-0.2,0-0.4c1.2-0.1,2.4-0.3,3.6-0.7v0
			c1.4-0.4,2.2-1.2,2.2-2.5l0-0.1c0-1.6-1-2.5-5.8-3.9c-5.8-1.6-9.6-3.4-9.5-9.2l0-0.1c0.1-3.4,1.9-6.1,4.7-7.5l0,0
			c2.2-1.3,6-1.5,8.2-1.4c-1.3,1.1-2.1,2.6-2.1,4.4c0,0.4,0,0.9,0.1,1.3c-0.9,0.1-1.9,0.3-3,0.7c-1,0.4-1.5,1.2-1.5,2.1l0,0.1
			C127.7,45.4,129,46,134,47.5z"/>
	</g>
</g>
</svg>
