<svg xmlns="http://www.w3.org/2000/svg" viewBox="0 0 1005.13 217.62"><defs><style>.cls-1{fill:#2b2e34;}</style></defs><g id="Layer_2" data-name="Layer 2"><g id="Layer_2-2" data-name="Layer 2"><g id="main"><path class="cls-1" d="M383.76,95.85V78.78h-97v71.48H307V131.07h60.89V114H307V95.85Z"/><path class="cls-1" d="M508.27,78.78l-30.33,51.54L447.63,78.78h-29.4v71.48h20.26V96.92l31.37,53.34H486l31.37-53.34v53.34h20.26V78.78Z"/><path class="cls-1" d="M675.91,95.85V78.78H578.85v71.48h20.26V131.07H660V114h-60.9V95.85Z"/><path class="cls-1" d="M808.64,78.78v53.35L777.27,78.78H761.11l-31.37,53.35V78.78H709.48v71.48h29.4l30.31-51.54,30.31,51.54h29.4V78.78Z"/><rect class="cls-1" x="855.64" y="131.82" width="21.22" height="18.64"/><rect class="cls-1" x="902" y="102.34" width="18.53" height="48.11"/><rect class="cls-1" x="902" y="78.66" width="18.53" height="14.22"/><path class="cls-1" d="M1001.17,111.82A24,24,0,0,0,990,103a50.33,50.33,0,0,0-33.22,0,23.91,23.91,0,0,0-11.2,8.79c-2.63,3.88-4,8.78-4,14.54a25.57,25.57,0,0,0,3.95,14.49,24.12,24.12,0,0,0,11.2,8.87,49.56,49.56,0,0,0,33.24,0,24.12,24.12,0,0,0,11.2-8.87,25.52,25.52,0,0,0,4-14.49C1005.13,120.6,1003.8,115.71,1001.17,111.82Zm-41.39,15.37v-1.66a10.34,10.34,0,0,1,1.53-5.79,9.75,9.75,0,0,1,4.4-3.51,22.73,22.73,0,0,1,15.24,0,9.59,9.59,0,0,1,4.44,3.5,10.34,10.34,0,0,1,1.54,5.79v1.66a10.37,10.37,0,0,1-1.54,5.75,9.8,9.8,0,0,1-4.46,3.6,22.22,22.22,0,0,1-15.2,0,9.87,9.87,0,0,1-4.41-3.6A10.39,10.39,0,0,1,959.78,127.19Z"/><path class="cls-1" d="M35.2,134.91a34.61,34.61,0,1,0,59.4,35.53l2.87-5-10.4-6-2.82,4.88A22.6,22.6,0,0,1,45.5,141.08L72.34,96.2,69,90.31A52.73,52.73,0,0,1,161.2,39.15L178.45,70.1l7.11-11.87L171.69,33.32A64.73,64.73,0,0,0,58.43,96Z"/><path class="cls-1" d="M166.17,186.64a34.38,34.38,0,0,0,0-68.76h-5.65v12h5.65a22.38,22.38,0,0,1,0,44.76H113.08L110,180A52.73,52.73,0,0,1,13.6,165.66a52.34,52.34,0,0,1,6-39.91L37.75,95.34,23.89,95.1,9.26,119.58A64.72,64.72,0,0,0,120,186.64Z"/><path class="cls-1" d="M167.31,87.35,145.45,48.13A34.61,34.61,0,1,0,85,81.78l2.87,5,10.4-6-2.82-4.9A22.59,22.59,0,0,1,134.94,54l25.27,45.36h5.62a52.94,52.94,0,0,1,0,105.88H130.27l6.69,12h28.87a64.93,64.93,0,0,0,1.48-129.85Z"/></g></g></g></svg>