<svg width="1500" height="881" viewBox="0 0 1500 881" fill="none" xmlns="http://www.w3.org/2000/svg">
<path d="M150 740H750V140H749.8C418.5 140 150 408.7 150 740Z" fill="#CBDBE8"/>
<path d="M750 140V740H1350V739.8C1350 408.6 1081.4 140 750 140Z" fill="#DFEBF2"/>
<path d="M519.3 506.2C525.1 518.4 537.7 525.9 550.9 525.2C562.9 524.6 573.7 517.1 578.9 506C584.1 494.9 594.9 487.6 606.9 486.9C620.1 486.2 632.7 493.7 638.5 506C644.3 518.2 656.9 525.8 670.1 525.1C682.1 524.5 692.9 517.1 698.1 506C703.3 494.9 714.1 487.6 726.1 486.9C739.3 486.2 751.9 493.7 757.7 506C763.5 518.2 776.1 525.8 789.3 525.1C801.3 524.5 812.1 517.1 817.3 506" stroke="black" stroke-width="5" stroke-miterlimit="10" stroke-linecap="round" stroke-linejoin="round"/>
<path d="M519.3 578.7C525.1 590.9 537.7 598.4 550.9 597.7C562.9 597.1 573.7 589.6 578.9 578.5C584.1 567.4 594.9 560.1 606.9 559.4C620.1 558.7 632.7 566.2 638.5 578.5C644.3 590.7 656.9 598.3 670.1 597.6C682.1 597 692.9 589.6 698.1 578.5C703.3 567.4 714.1 560.1 726.1 559.4C739.3 558.7 751.9 566.2 757.7 578.5C763.5 590.7 776.1 598.3 789.3 597.6C801.3 597 812.1 589.6 817.3 578.5" stroke="black" stroke-width="5" stroke-miterlimit="10" stroke-linecap="round" stroke-linejoin="round"/>
<path d="M519.3 578.7C525.1 590.9 537.7 598.4 550.9 597.7C562.9 597.1 573.7 589.6 578.9 578.5C584.1 567.4 594.9 560.1 606.9 559.4C620.1 558.7 632.7 566.2 638.5 578.5C644.3 590.7 656.9 598.3 670.1 597.6C682.1 597 692.9 589.6 698.1 578.5C703.3 567.4 714.1 560.1 726.1 559.4C739.3 558.7 751.9 566.2 757.7 578.5C763.5 590.7 776.1 598.3 789.3 597.6C801.3 597 812.1 589.6 817.3 578.5" stroke="black" stroke-width="5" stroke-miterlimit="10" stroke-linecap="round" stroke-linejoin="round"/>
<path d="M519.3 651.2C525.1 663.4 537.7 670.9 550.9 670.2C562.9 669.6 573.7 662.1 578.9 651C584.1 639.9 594.9 632.6 606.9 631.9C620.1 631.2 632.7 638.7 638.5 651C644.3 663.2 656.9 670.8 670.1 670.1C682.1 669.5 692.9 662.1 698.1 651C703.3 639.9 714.1 632.6 726.1 631.9C739.3 631.2 751.9 638.7 757.7 651C763.5 663.2 776.1 670.8 789.3 670.1C801.3 669.5 812.1 662.1 817.3 651" stroke="black" stroke-width="5" stroke-miterlimit="10" stroke-linecap="round" stroke-linejoin="round"/>
<path d="M610.477 449.767L622.977 417.067C639.577 373.667 668.377 336.567 706.177 309.667L716.277 302.467L752.677 360.467L610.477 449.767Z" fill="#C9D3DC"/>
<path d="M610.476 452.267C609.876 452.267 609.376 452.067 608.876 451.667C608.076 450.967 607.776 449.867 608.176 448.867L620.676 416.167C637.476 372.367 666.576 334.767 704.776 307.667L714.876 300.467C715.476 300.067 716.176 299.967 716.776 300.067C717.476 300.167 718.076 300.567 718.376 301.167L754.776 359.167C755.176 359.767 755.276 360.367 755.076 361.067C754.976 361.667 754.576 362.267 753.976 362.667L611.776 451.867C611.376 452.167 610.876 452.267 610.476 452.267ZM715.576 306.167L707.676 311.767C670.276 338.367 641.776 375.067 625.376 417.967L615.576 443.667L749.276 359.767L715.576 306.167Z" fill="black"/>
<path d="M823.097 327.411L765.325 363.653L892.011 565.601L949.783 529.36L823.097 327.411Z" fill="#C9D3DC"/>
<path d="M891.976 568.167C891.176 568.167 890.376 567.767 889.876 566.967L763.176 365.067C762.776 364.467 762.676 363.867 762.876 363.167C762.976 362.567 763.376 361.967 763.976 361.567L821.676 325.367C822.876 324.667 824.376 324.967 825.076 326.167L951.776 528.067C952.176 528.667 952.276 529.267 952.076 529.967C951.976 530.567 951.576 531.167 950.976 531.567L893.276 567.767C892.876 567.967 892.476 568.167 891.976 568.167ZM768.776 364.467L892.776 562.167L946.276 528.567L822.276 330.867L768.776 364.467Z" fill="black"/>
<path d="M784.725 249.458L711.79 295.212L757.544 368.147L830.479 322.394L784.725 249.458Z" fill="#C9D3DC"/>
<path d="M757.577 370.567C756.777 370.567 755.977 370.167 755.477 369.367L709.777 296.467C709.377 295.867 709.277 295.267 709.477 294.567C709.577 293.967 709.977 293.367 710.577 292.967L783.477 247.267C784.677 246.567 786.177 246.867 786.877 248.067L832.577 320.967C832.977 321.567 833.077 322.167 832.877 322.867C832.777 323.467 832.377 324.067 831.777 324.467L758.877 370.167C758.477 370.467 757.977 370.567 757.577 370.567ZM715.277 295.967L758.377 364.667L827.077 321.567L783.977 252.867L715.277 295.967Z" fill="black"/>
<path d="M800.577 250.667C841.177 228.267 887.177 218.567 933.477 222.467L968.277 225.467L826.077 314.667L789.677 256.667L800.577 250.667Z" fill="#C9D3DC"/>
<path d="M826.077 317.167C825.277 317.167 824.477 316.767 823.977 315.967L787.577 257.967C787.177 257.367 787.077 256.667 787.277 255.967C787.477 255.267 787.877 254.767 788.477 254.367L799.277 248.367C840.377 225.767 886.777 215.867 933.577 219.867L968.377 222.867C969.477 222.967 970.377 223.767 970.577 224.767C970.877 225.767 970.377 226.867 969.477 227.467L827.277 316.667C826.977 316.967 826.577 317.167 826.077 317.167ZM793.177 257.567L826.777 311.167L960.577 227.267L933.177 224.967C887.377 221.067 841.877 230.767 801.677 252.867L793.177 257.567Z" fill="black"/>
<path d="M615.1 572.5H521.6V666H615.1V572.5Z" fill="#9B1C2E"/>
<path d="M615 668.5H521.5C520.1 668.5 519 667.4 519 666V572.5C519 571.1 520.1 570 521.5 570H615C616.4 570 617.5 571.1 617.5 572.5V666C617.5 667.4 616.4 668.5 615 668.5ZM524.1 663.5H612.6V575H524.1V663.5Z" fill="black"/>
<path d="M1228.12 580.741C1206.56 668.355 1085.06 714.921 995.085 692.782C905.11 670.642 819.973 578.915 841.532 491.301C863.09 403.687 983.444 352.293 1073.42 374.432C1163.39 396.571 1249.68 493.128 1228.12 580.741Z" fill="#ED8D47"/>
<path d="M1258.86 389.369C1335.27 384.526 1267.03 494.377 1213.66 540.807L1137.9 416.027C1152.84 415.227 1182.45 394.213 1258.86 389.369Z" fill="#ED8D47"/>
<path d="M907.607 302.435C842.169 262.687 851.648 391.663 877.376 457.556L1002.39 382.18C989.523 374.536 973.046 342.182 907.607 302.435Z" fill="#ED8D47"/>
<path d="M911.067 323.875C868.527 297.975 874.621 382.131 891.318 425.114L972.67 375.859C964.305 370.878 953.606 349.776 911.067 323.875Z" fill="#EC6E5D"/>
<path d="M1249.5 407.151C1299.2 403.947 1254.75 475.666 1220.02 505.993L1170.81 424.613C1180.53 424.082 1199.8 410.354 1249.5 407.151Z" fill="#EC6E5D"/>
<path d="M1214.42 635.347C1183.2 689.05 1086.45 726.631 994.955 704.117C903.46 681.604 839.048 623.694 831.356 541.089C819.8 483.68 945.133 512.246 1036.63 534.76C1128.12 557.273 1242.76 586.617 1214.42 635.347Z" fill="#FFF6C5"/>
<ellipse cx="1021.88" cy="597.064" rx="112.226" ry="109.282" transform="rotate(13.8237 1021.88 597.064)" fill="#FFF6C5"/>
<path d="M1052.79 550.104C1063.52 552.744 1074.85 545.77 1072.02 535.091C1070.99 531.19 1069.37 527.417 1067.18 523.904C1061.37 514.587 1052.04 507.86 1041.24 505.202C1030.44 502.544 1019.05 504.173 1009.58 509.731C1006.01 511.827 1002.83 514.417 1000.1 517.394C992.646 525.543 999.449 536.979 1010.17 539.618L1031.48 544.861L1052.79 550.104Z" fill="#454545"/>
<path d="M1036.01 531.198L1022.82 584.792" stroke="#454545" stroke-width="5" stroke-linecap="round"/>
<path d="M987.158 435.095C998.143 436.251 1008.35 427.794 1004.04 417.589C1002.46 413.857 1000.32 410.333 997.648 407.145C990.575 398.695 980.389 393.295 969.332 392.132C958.274 390.969 947.251 394.139 938.687 400.944C935.455 403.511 932.673 406.518 930.406 409.845C924.204 418.944 932.57 429.354 943.555 430.51L965.356 432.803L987.158 435.095Z" fill="#FFF6C5"/>
<ellipse cx="948.794" cy="470.518" rx="28.9067" ry="38.0831" transform="rotate(13.8237 948.794 470.518)" fill="#454545"/>
<ellipse rx="14.727" ry="19.8833" transform="matrix(0.996414 0.0846104 -0.0762386 0.99709 957.404 464.851)" fill="white"/>
<path d="M1131.07 470.582C1120.8 466.507 1115.68 454.279 1124.24 447.241C1127.37 444.667 1130.9 442.54 1134.74 440.954C1144.93 436.752 1156.46 436.695 1166.79 440.796C1177.13 444.896 1185.42 452.819 1189.85 462.821C1191.52 466.596 1192.59 470.549 1193.05 474.549C1194.33 485.487 1182.08 490.827 1171.82 486.753L1151.44 478.667L1131.07 470.582Z" fill="#FFF6C5"/>
<ellipse rx="28.9067" ry="38.0831" transform="matrix(-0.971035 -0.238935 -0.238935 0.971035 1148.61 519.761)" fill="#454545"/>
<ellipse rx="14.7114" ry="19.9054" transform="matrix(-0.999921 0.0125998 0.0258258 0.999666 1153.24 508.495)" fill="white"/>
<path d="M1020.89 583.179L983.598 587.645C981.828 602.745 978.356 639.784 1002.57 645.743C1026.79 651.701 1042.68 630.603 1050.74 604.167L1020.89 583.179Z" fill="#EC6E5D"/>
<path d="M1083.03 583.862C1067.9 600.358 1031.19 612.661 1024.2 579.317" stroke="#454545" stroke-width="5" stroke-linecap="round"/>
<path d="M967.917 555.98C973.662 577.612 1000.47 605.543 1022.13 579.251" stroke="#454545" stroke-width="5" stroke-linecap="round"/>
<ellipse cx="899.092" cy="537.295" rx="32.8743" ry="15.454" transform="rotate(13.8237 899.092 537.295)" fill="#FFA89D"/>
<ellipse rx="32.8743" ry="15.454" transform="matrix(-0.971035 -0.238935 -0.238935 0.971035 1161.07 601.758)" fill="#FFA89D"/>
</svg>
