<?xml version="1.0" encoding="UTF-8" standalone="no"?>
<svg
   viewBox="0 0 1000 1000"
   version="1.1"
   id="svg4"
   sodipodi:docname="apple.svg"
   inkscape:version="1.2.2 (b0a8486541, 2022-12-01)"
   xmlns:inkscape="http://www.inkscape.org/namespaces/inkscape"
   xmlns:sodipodi="http://sodipodi.sourceforge.net/DTD/sodipodi-0.dtd"
   xmlns="http://www.w3.org/2000/svg"
   xmlns:svg="http://www.w3.org/2000/svg">
  <defs
     id="defs8" />
  <sodipodi:namedview
     id="namedview6"
     pagecolor="#ffffff"
     bordercolor="#666666"
     borderopacity="1.0"
     inkscape:showpageshadow="2"
     inkscape:pageopacity="0.0"
     inkscape:pagecheckerboard="0"
     inkscape:deskcolor="#d1d1d1"
     showgrid="false"
     inkscape:zoom="0.779"
     inkscape:cx="500"
     inkscape:cy="499.35815"
     inkscape:window-width="1920"
     inkscape:window-height="959"
     inkscape:window-x="0"
     inkscape:window-y="48"
     inkscape:window-maximized="1"
     inkscape:current-layer="svg4" />
  <path
     d="M683 12q-39 2-80 24.5-41 22.5-68 55-27 32.5-41 71.5-15 44-8 84 42 1 84-22 40-21 66-54.5 26-33.5 39-72.5 14-44 8-86z m206 327q-37-46-87-72.5-50-26.5-100-26.5-31 0-61 8-18 4-49 16-24 9-36 12-20 6-39.5 6-19.5 0-42.5-6-14-4-42-14-30-11-47-15-28-7-54-7-57 0-112 33-55 33-92 91-36 55-43 137-7 82 18 172 25 96 81 181 39 60 72 91 47 43 95 43 20 0 39-5 11-4 32-13 25-11 40-15 26-8 56.5-8 30.5 0 56.5 7 15 5 40 16 20 9 31 13 19 5 39 5 48 0 97-47 32-31 73-94 20-32 34-57 10-20 29-62-60-23-97-75-35-48-40.5-109-5.5-61 21.5-115 29-57 88-90z"
     id="path2"
     style="fill:#8c939a;fill-opacity:1" />
</svg>
