<?xml version="1.0" encoding="utf-8"?>
<!-- Generator: Adobe Illustrator 24.3.0, SVG Export Plug-In . SVG Version: 6.00 Build 0)  -->
<svg version="1.1" id="Layer_1" xmlns="http://www.w3.org/2000/svg" xmlns:xlink="http://www.w3.org/1999/xlink" x="0px" y="0px"
	 viewBox="0 0 158.1 84.2" style="enable-background:new 0 0 158.1 84.2;" xml:space="preserve">
<style type="text/css">
	.st0{opacity:0.2;}
	.st1{fill:#CCCED1;}
	.st2{fill:#0F0E0E;}
	.st3{fill:#FEFEFE;}
	.st4{fill:#9B1C2E;}
	.st5{opacity:0.8;}
	.st6{opacity:0.8;fill:#CCCED1;}
	.st7{fill:none;stroke:#CCCED1;stroke-width:0.25;stroke-linecap:round;stroke-linejoin:round;}
</style>
<g>
	<g class="st0">
		<path class="st1" d="M155.3,22V2.7H2.8v78.8h152.5V62.2h0L155.3,22L155.3,22z M22.1,62.2V22H136v40.2H22.1z"/>
	</g>
	<g>
		<g>
			<g>
				<path class="st2" d="M76.5,40.7h-4v-4.3h4v-1.9c0-7.2,2.1-7.5,10.4-7.5v3.9c-4.5,0-5.1,0.2-5.1,2.7v2.7H87v4.3h-5.1v16.2h-5.4
					V40.7z M90.8,27h5.5v4.8h-5.5V27z M90.8,36.3h5.4v20.6h-5.4V36.3z"/>
				<path class="st2" d="M101.9,36.3h5l0.2,3.5h0.3c1.1-3.1,3.3-3.9,6.6-3.9v5.1c-5.3,0-6.7,1.9-6.7,7.5v8.2h-5.4V36.3z"/>
				<path class="st2" d="M116.8,46.6c0-8.3,0.5-10.6,9.4-10.6c8.9,0,9.4,2.3,9.4,10.6s-0.5,10.6-9.4,10.6
					C117.3,57.2,116.8,54.9,116.8,46.6z M130.3,46.6c0-5.6,0-6.2-4-6.2c-4,0-4,0.6-4,6.2s0,6.3,4,6.3
					C130.3,52.9,130.3,52.2,130.3,46.6z"/>
			</g>
			<g>
				<g>
					<circle class="st3" cx="42.1" cy="42.1" r="20"/>
				</g>
				<g>
					<path class="st4" d="M33.9,50.9c0.5,0,0.9-0.3,1.1-0.7l2.9-5.6h-4.6c-0.7,0-1.3-0.6-1.3-1.3v-2.5c0-0.7,0.6-1.3,1.3-1.3h7.2
						L46.1,29c0.2-0.4,0.6-0.7,1.1-0.7h9.4c-3.7-3.9-8.8-6.3-14.5-6.3c-11.1,0-20,9-20,20c0,3.1,0.7,6.1,2,8.8H33.9z"/>
					<path class="st4" d="M50.4,33.3c-0.5,0-0.9,0.3-1.1,0.7l-2.9,5.6h4.6c0.7,0,1.3,0.6,1.3,1.3v2.5c0,0.7-0.6,1.3-1.3,1.3h-7.2
						l-5.6,10.6c-0.2,0.4-0.6,0.7-1.1,0.7h-9.4c3.7,3.9,8.8,6.3,14.5,6.3c11.1,0,20-9,20-20c0-3.1-0.7-6.1-2-8.8H50.4z"/>
				</g>
			</g>
		</g>
		<g>
			<g class="st5">
				<path class="st1" d="M81.6,11.6l5-8.8h-4.8L79,8.9l-2.7-6.1h-4.9l4.9,8.9L71,21.9h4.8l3.2-7.3l3.3,7.3h4.9L81.6,11.6z"/>
			</g>
			<g class="st5">
				<path class="st1" d="M81.6,71.1l5-8.8h-4.8L79,68.4l-2.7-6.1h-4.9l4.9,8.9L71,81.3h4.8l3.2-7.3l3.3,7.3h4.9L81.6,71.1z"/>
			</g>
			<path class="st6" d="M146.4,44.7l-10.3,5.5v-4.9l7.2-3.3l-7.2-3.2V34l10.1,5.3l8.9-4.9v4.9l-6.1,2.7l6.1,2.9v4.8L146.4,44.7z"/>
			<g class="st5">
				<path class="st1" d="M3,49.7v-4.8L9.1,42L3,39.3v-4.9l8.9,4.9L22,34v4.8L14.8,42l7.2,3.3v4.9l-10.3-5.5L3,49.7z"/>
			</g>
			<path class="st7" d="M136,2.7V22h19.3V2.7H136z M2.8,81.5h19.3V2.7H2.8V81.5z M136,62.2v19.3h19.3V62.2H136z"/>
			<path class="st7" d="M22.1,2.7V22H136V2.7H22.1z"/>
			<rect x="22.1" y="62.2" class="st7" width="113.9" height="19.3"/>
			<rect x="136" y="22" class="st7" width="19.3" height="40.2"/>
			<rect x="136" y="2.7" class="st7" width="19.3" height="19.3"/>
			<rect x="2.8" y="62.2" class="st7" width="19.3" height="19.3"/>
			<rect x="2.8" y="2.7" class="st7" width="19.3" height="19.3"/>
			<rect x="136" y="62.2" class="st7" width="19.3" height="19.3"/>
		</g>
	</g>
</g>
</svg>
