<?xml version="1.0" encoding="utf-8"?>
<!-- Generator: Adobe Illustrator 24.3.0, SVG Export Plug-In . SVG Version: 6.00 Build 0)  -->
<svg version="1.1" id="Layer_1" xmlns="http://www.w3.org/2000/svg" xmlns:xlink="http://www.w3.org/1999/xlink" x="0px" y="0px"
	 viewBox="0 0 512 512" style="enable-background:new 0 0 512 512;" xml:space="preserve">
<style type="text/css">
	.st0{fill-rule:evenodd;clip-rule:evenodd;fill:#CBDBE8;}
	.st1{fill-rule:evenodd;clip-rule:evenodd;fill:#DFEBF2;}
	.st2{fill:#99A4AA;stroke:#000000;stroke-width:5;stroke-linecap:round;stroke-linejoin:round;stroke-miterlimit:10;}
	.st3{fill:#DFEBF2;stroke:#000000;stroke-width:5;stroke-linecap:round;stroke-linejoin:round;stroke-miterlimit:10;}
	.st4{fill-rule:evenodd;clip-rule:evenodd;fill:#DFEBF2;stroke:#000000;stroke-width:5;stroke-miterlimit:10;}
	
		.st5{fill-rule:evenodd;clip-rule:evenodd;fill:#99A4AA;stroke:#000000;stroke-width:5;stroke-linecap:round;stroke-linejoin:round;stroke-miterlimit:10;}
</style>
<circle class="st0" cx="256" cy="256" r="250"/>
<g>
	<path class="st3" d="M229,215.4h-18.5c-0.2,0-0.4,0-0.6,0v19.8H229c2.6,0,5.1-1,7-2.9c1.9-1.9,2.9-4.4,2.9-7
		C238.9,219.8,234.4,215.4,229,215.4z"/>
	<path class="st3" d="M229,178.3h-19.2v19.8c0.2,0,0.4,0,0.6,0H229c5.4,0,9.9-4.4,9.9-9.9c0-2.6-1-5.1-2.9-7
		C234.1,179.3,231.6,178.3,229,178.3z"/>
	<path class="st3" d="M326.2,128.1c-8.6-8.6-20.1-13.4-32.3-13.4h-139c-12.2,0-23.7,4.8-32.3,13.4c-8.6,8.6-13.4,20.1-13.4,32.3
		v166.8c0,3.5,2.1,6.7,5.3,8c1.1,0.4,2.2,0.7,3.3,0.7c2.3,0,4.5-0.9,6.1-2.5l34.5-34.5h135.4c25.2,0,45.7-20.5,45.7-45.7v-92.7
		C339.6,148.2,334.8,136.7,326.2,128.1z M256.2,225.3c0,7.3-2.8,14.1-8,19.2c-5.1,5.1-12,8-19.2,8h-0.6v9.9c0,4.8-3.9,8.7-8.7,8.7
		c-4.8,0-8.7-3.9-8.7-8.7v-9.9h-19.2c-4.8,0-8.7-3.9-8.7-8.7c0-4.8,3.9-8.7,8.7-8.7h0.6v-56.8h-0.6c-4.8,0-8.7-3.9-8.7-8.7
		c0-4.8,3.9-8.7,8.7-8.7h19.2v-9.9c0-4.8,3.9-8.7,8.7-8.7c4.8,0,8.7,3.9,8.7,8.7v9.9h0.6c7.3,0,14.1,2.8,19.2,8c5.1,5.1,8,12,8,19.2
		c0,7.2-2.8,13.7-7.3,18.5C253.4,211.6,256.2,218.1,256.2,225.3z"/>
	<path class="st3" d="M358.8,198.1h-1.8v55c0,34.8-28.3,63-63,63H174v11.1c0,25.2,20.5,45.7,45.7,45.7h135.4l34.5,34.5
		c1.7,1.7,3.9,2.5,6.1,2.5c1.1,0,2.2-0.2,3.3-0.7c3.2-1.3,5.3-4.5,5.3-8V243.8C404.5,218.6,384,198.1,358.8,198.1z"/>
</g>
</svg>
