<?xml version="1.0" encoding="utf-8"?>
<!-- Generator: Adobe Illustrator 24.3.0, SVG Export Plug-In . SVG Version: 6.00 Build 0)  -->
<svg version="1.1" id="Layer_1" xmlns="http://www.w3.org/2000/svg" xmlns:xlink="http://www.w3.org/1999/xlink" x="0px" y="0px"
	 viewBox="0 0 1500 880.1" style="enable-background:new 0 0 1500 880.1;" xml:space="preserve">
<style type="text/css">
	.st0{fill:#CBDBE8;}
	.st1{fill:#DFEBF2;}
	.st2{fill:#C9D3DC;}
	.st3{fill:#BB3437;}
	.st4{fill:none;stroke:#000000;stroke-width:5;stroke-linejoin:round;stroke-miterlimit:10;}
	.st5{fill:none;stroke:#000000;stroke-width:5;stroke-miterlimit:10;}
	.st6{fill:#C5D1DA;}
	.st7{fill:#9B1C2E;}
	.st8{clip-path:url(#SVGID_2_);}
	.st9{opacity:0.7;}
	.st10{fill:#ABB8C1;}
	.st11{fill:none;stroke:#000000;stroke-width:5;stroke-linecap:round;stroke-linejoin:round;stroke-miterlimit:10;}
	.st12{fill:#FFFFFF;}
	.st13{fill:#BB3437;stroke:#000000;stroke-width:5;stroke-miterlimit:10;}
	.st14{fill:#DDEDF2;}
	.st15{fill:#C9D3DC;stroke:#000000;stroke-width:5;stroke-miterlimit:10;}
</style>
<g>
	<g>
		<g>
			<g>
				<path class="st0" d="M1350,740H750V140h0.2C1081.5,140,1350,408.7,1350,740z"/>
			</g>
		</g>
		<g>
			<g>
				<path class="st1" d="M750,140v600H150v-0.2C150,408.6,418.6,140,750,140z"/>
			</g>
		</g>
	</g>
	<g>
		<g>
			<rect x="471.6" y="297" class="st7" width="371.2" height="268.4"/>
		</g>
	</g>
	<g>
		<g>
			<rect x="657.2" y="401.7" class="st2" width="371.2" height="268.4"/>
		</g>
	</g>
	<g>
		<g>
			<rect x="657.2" y="401.7" class="st14" width="185.6" height="163.8"/>
		</g>
	</g>
	<g>
		<g>
			<g>
				<path d="M1028.4,672.6H657.2c-1.4,0-2.5-1.1-2.5-2.5V401.7c0-1.4,1.1-2.5,2.5-2.5h146.5c1.4,0,2.5,1.1,2.5,2.5s-1.1,2.5-2.5,2.5
					h-144v263.4h366.2V404.2H842.8c-1.4,0-2.5-1.1-2.5-2.5s1.1-2.5,2.5-2.5h185.6c1.4,0,2.5,1.1,2.5,2.5v268.4
					C1030.9,671.5,1029.8,672.6,1028.4,672.6z"/>
			</g>
		</g>
		<g>
			<g>
				<g>
					<path d="M784.6,424c-0.6,0-1.3-0.2-1.8-0.7c-1-1-1-2.6,0-3.5l18-18l-18-18c-0.5-0.5-0.7-1.1-0.7-1.8s0.2-1.3,0.7-1.8
						c1-1,2.6-1,3.5,0l19.8,19.8c0.5,0.5,0.7,1.1,0.7,1.8s-0.2,1.3-0.7,1.8l-19.8,19.8C785.9,423.7,785.3,424,784.6,424z"/>
				</g>
			</g>
		</g>
	</g>
	<g>
		<g>
			<path d="M842.8,567.9H696.3c-1.4,0-2.5-1.1-2.5-2.5s1.1-2.5,2.5-2.5h144V299.5H474.1v263.4h183.1c1.4,0,2.5,1.1,2.5,2.5
				s-1.1,2.5-2.5,2.5H471.6c-1.4,0-2.5-1.1-2.5-2.5V297c0-1.4,1.1-2.5,2.5-2.5h371.2c1.4,0,2.5,1.1,2.5,2.5v268.4
				C845.3,566.8,844.2,567.9,842.8,567.9z"/>
		</g>
	</g>
	<g>
		<g>
			<g>
				<path d="M715.4,587.7c-0.6,0-1.3-0.2-1.8-0.7l-19.8-19.8c0,0,0,0,0,0h0c-0.5-0.5-0.7-1.1-0.7-1.7l0,0c0,0,0,0,0,0l0,0
					c0,0,0,0,0,0c0,0,0,0,0,0c0,0,0,0,0,0c0,0,0,0,0,0l0,0c0,0,0,0,0,0v0c0,0,0,0,0,0c0,0,0,0,0,0c0,0,0,0,0,0v0c0,0,0,0,0,0v0
					c0,0,0,0,0,0c0,0,0,0,0,0l0,0c0,0,0,0,0,0l0,0c0,0,0,0,0,0l0,0c0-0.6,0.3-1.3,0.7-1.7c0,0,0,0,0,0c0,0,0,0,0,0l0,0l19.8-19.8
					c1-1,2.6-1,3.5,0s1,2.6,0,3.5l-18,18l18,18c0.5,0.5,0.7,1.1,0.7,1.8s-0.2,1.3-0.7,1.8S716,587.7,715.4,587.7z"/>
			</g>
		</g>
	</g>
	<g>
		<g>
			<g>
				<path class="st14" d="M620.4,381.7h-70.8c-2.2,0-4-1.8-4-4s1.8-4,4-4h70.8c2.2,0,4,1.8,4,4S622.6,381.7,620.4,381.7z"/>
			</g>
		</g>
		<g>
			<g>
				<path class="st14" d="M657.2,341.6h-50.8c-2.2,0-4-1.8-4-4s1.8-4,4-4h50.8c2.2,0,4,1.8,4,4S659.4,341.6,657.2,341.6z"/>
			</g>
		</g>
		<g>
			<g>
				<path class="st14" d="M564.3,421.6h-50.7c-2.2,0-4-1.8-4-4s1.8-4,4-4h48.2l41.1-77.9c1-2,3.5-2.7,5.4-1.7c2,1,2.7,3.4,1.7,5.4
					l-42.2,80C567.1,420.7,565.7,421.6,564.3,421.6z"/>
			</g>
		</g>
	</g>
	<g>
		<g>
			<g>
				<path d="M910.7,570.8c-2.2,0-4-1.8-4-4v-40.8c0-2.2,1.8-4,4-4s4,1.8,4,4v40.8C914.7,569,912.9,570.8,910.7,570.8z"/>
			</g>
		</g>
		<g>
			<g>
				<g>
					<g>
						<path d="M981.9,529.9h-71.2c-2.2,0-4-1.8-4-4s1.8-4,4-4h71.2c2.2,0,4,1.8,4,4S984.1,529.9,981.9,529.9z"/>
					</g>
				</g>
				<g>
					<g>
						<path d="M981.9,570.8h-71.2c-2.2,0-4-1.8-4-4s1.8-4,4-4h71.2c2.2,0,4,1.8,4,4S984.1,570.8,981.9,570.8z"/>
					</g>
				</g>
				<g>
					<g>
						<path d="M981.9,608.9h-71.2c-2.2,0-4-1.8-4-4s1.8-4,4-4h71.2c2.2,0,4,1.8,4,4S984.1,608.9,981.9,608.9z"/>
					</g>
				</g>
				<g>
					<g>
						<path d="M981.9,608.9c-2.2,0-4-1.8-4-4v-38.2c0-2.2,1.8-4,4-4s4,1.8,4,4v38.2C985.9,607.1,984.1,608.9,981.9,608.9z"/>
					</g>
				</g>
			</g>
			<g>
				<g>
					<path d="M946.3,635.3c-2.2,0-4-1.8-4-4V499.5c0-2.2,1.8-4,4-4s4,1.8,4,4v131.8C950.3,633.6,948.5,635.3,946.3,635.3z"/>
				</g>
			</g>
		</g>
	</g>
	<g>
		<g>
			<g>
				<path d="M800.5,461.5H699.5c-1.4,0-2.5-1.1-2.5-2.5s1.1-2.5,2.5-2.5h101.1c1.4,0,2.5,1.1,2.5,2.5S801.9,461.5,800.5,461.5z"/>
			</g>
		</g>
		<g>
			<g>
				<path d="M800.5,486H699.5c-1.4,0-2.5-1.1-2.5-2.5s1.1-2.5,2.5-2.5h101.1c1.4,0,2.5,1.1,2.5,2.5S801.9,486,800.5,486z"/>
			</g>
		</g>
		<g>
			<g>
				<path d="M800.5,510.6H699.5c-1.4,0-2.5-1.1-2.5-2.5s1.1-2.5,2.5-2.5h101.1c1.4,0,2.5,1.1,2.5,2.5S801.9,510.6,800.5,510.6z"/>
			</g>
		</g>
	</g>
</g>
</svg>
