<?xml version="1.0" encoding="utf-8"?>
<!-- Generator: Adobe Illustrator 21.1.0, SVG Export Plug-In . SVG Version: 6.00 Build 0)  -->
<svg version="1.1" id="Ebene_1" xmlns="http://www.w3.org/2000/svg" xmlns:xlink="http://www.w3.org/1999/xlink" x="0px" y="0px"
	 width="300px" height="100px" viewBox="0 0 300 100" style="enable-background:new 0 0 300 100;" xml:space="preserve">
<style type="text/css">
	.st0{fill:#3d3939;}
</style>
<g id="DeefwX.tif_1_">
	<g>
		<path class="st0" d="M14.6,41.9c0.7-0.4,1.4-0.7,2.3-0.8c2.7-0.4,5.6,2.1,5.6,4.8c0,2.3-2.1,4.3-4.4,4.3c-1.2,0-2.2-0.3-3.2-0.9
			c-0.1-0.1-0.2-0.1-0.3-0.1C14.6,46.8,14.6,44.4,14.6,41.9z"/>
		<path class="st0" d="M14.6,25.6c3.5,0,7,0,10.5,0c0,0,0,0.1,0,0.1c-0.3,0.2-0.6,0.3-0.9,0.5c-2.2,1.3-4.2,2.8-5.9,4.7
			c-1.2,1.3-2.3,2.8-3.4,4.3c-0.1,0.1-0.2,0.3-0.3,0.4C14.6,32.2,14.6,28.9,14.6,25.6z"/>
		<path class="st0" d="M55.6,76.3c0.5-0.4,0.9-0.7,1.4-1.1c3.3-2.4,6-5.5,8.1-9c0,0,0.1-0.1,0.1-0.2c0,0.2,0.1,0.3,0.1,0.4
			c0,3.2,0,6.4,0,9.6c0,0.1,0,0.2,0,0.3C62.1,76.3,58.9,76.3,55.6,76.3z"/>
		<path class="st0" d="M48.6,76.3c-0.5-1-0.8-2-0.7-3.1c0.1-1,0.4-2,1-2.8c1.4-1.6,3.5-1.5,4.7,0.3c1.1,1.6,1.1,3.4,0.3,5.2
			c-0.1,0.1-0.1,0.3-0.2,0.5C52,76.3,50.3,76.3,48.6,76.3z"/>
		<path class="st0" d="M26.4,76.3c-0.3-0.4-0.7-0.7-0.9-1.1c-0.8-1.4-0.6-3.3,0.5-4.5c0.6-0.6,1.2-1.1,2.1-1.3
			c1.5-0.2,2.7,0.6,3.2,2.1c0.5,1.5-0.2,3.4-1.6,4.4c-0.1,0.1-0.2,0.2-0.3,0.3C28.4,76.3,27.4,76.3,26.4,76.3z"/>
		<path class="st0" d="M14.6,67.4c0.5,0.7,1,1.4,1.5,2.1c1.5,2,3.3,3.8,5.3,5.3c0.6,0.5,1.2,0.9,1.8,1.3c0.1,0.1,0.1,0.2,0.2,0.2
			c-2.9,0-5.9,0-8.8,0C14.6,73.4,14.6,70.4,14.6,67.4z"/>
		<path class="st0" d="M40.3,76.3c-0.2-1.9,1.3-3.7,3-3.6c1.1,0,2.1,0.9,2.3,2.1c0.1,0.5,0.1,1,0.1,1.5C44,76.3,42.1,76.3,40.3,76.3
			z"/>
		<path class="st0" d="M14.6,52.9c1.2,0,2.1,0.7,2.6,1.7c0.5,1,0.6,2-0.1,2.9c-0.5,0.7-1.3,1-2.5,0.6C14.6,56.3,14.6,54.6,14.6,52.9
			z"/>
		<path class="st0" d="M161.2,34c0.2,0,0.4,0,0.6,0c4.9,0,9.8,0,14.8,0c2.4,0,4.9,0.2,7.2,1c1.9,0.7,3.4,1.8,3.9,3.8
			c0.4,1.6,0.2,3.1-0.4,4.6c-0.8,2.1-2.3,3.6-4.2,4.9c-0.2,0.1-0.4,0.3-0.6,0.4c0.6,0.3,1.3,0.6,1.8,1c1.5,1.1,2.2,2.7,2.2,4.5
			c0,5.2-2.9,9-8.1,10.5c-2.3,0.6-4.6,0.9-7,0.9c-5.1,0-10.2,0-15.3,0c-0.1,0-0.2,0-0.5,0C157.5,55,159.3,44.6,161.2,34z
			 M167.2,58.3c0.4,0,0.8,0,1.2,0c1.8-0.1,3.7,0,5.5-0.2c1.5-0.1,2.5-0.9,2.9-2.5c0.4-1.4-0.1-2.4-1.3-2.9c-0.4-0.1-0.8-0.2-1.2-0.2
			c-1.9-0.1-3.9-0.1-5.8-0.1c-0.1,0-0.1,0-0.2,0C167.9,54.3,167.5,56.3,167.2,58.3z M169.3,46.6c1.8,0,3.6,0.1,5.4,0
			c1.6-0.1,2.7-1.2,3-2.7c0.3-1.2-0.2-2.1-1.3-2.4c-0.3-0.1-0.6-0.1-0.9-0.1c-1.4,0-2.7-0.1-4.1-0.1c-0.4,0-0.8,0-1.2,0
			C169.9,43.1,169.6,44.9,169.3,46.6z"/>
		<path class="st0" d="M269,42.7c-0.2,1-0.3,1.9-0.5,2.8c-0.5,3-1.1,6-1.6,8.9c-0.1,0.9-0.3,1.8-0.2,2.7c0.1,1.3,0.8,2,2.2,2.1
			c2.2,0.1,3.5-0.7,4.2-2.8c0.5-1.4,0.7-2.8,1-4.3c0.5-2.6,0.9-5.2,1.4-7.8c0.1-0.5,0.2-1,0.3-1.4c0-0.1,0.2-0.3,0.3-0.3
			c2.9,0,5.8,0,8.6,0c0,0,0.1,0,0.1,0.1c-0.2,1.4-0.5,2.8-0.7,4.3c-0.5,2.6-0.9,5.2-1.4,7.8c-0.5,3-1.1,6-1.6,9
			c-0.1,0.5-0.1,1-0.2,1.4c0,0.1-0.2,0.3-0.3,0.3c-2.7,0-5.4,0-8.1,0c0.2-1.1,0.4-2.1,0.5-3.2c-0.1-0.1-0.2-0.1-0.2-0.2
			c-0.1,0.2-0.2,0.4-0.4,0.6c-1.4,1.5-3.1,2.7-5.2,3.1c-2,0.4-4.1,0.5-6.1-0.2c-2.3-0.8-3.5-2.5-3.8-4.9c-0.3-1.8,0-3.6,0.4-5.3
			c0.5-3,1-6,1.6-8.9c0.2-1.2,0.4-2.4,0.6-3.5c0-0.1,0.2-0.3,0.3-0.3C263.1,42.7,266,42.7,269,42.7z"/>
		<path class="st0" d="M154.9,56.1c-0.3,0-0.5,0-0.7,0c-5.4,0-10.8,0-16.2,0c-0.5,0-0.6,0.2-0.6,0.6c-0.2,3.4,3.3,4.7,5.9,3.4
			c0.6-0.3,1-0.8,1.5-1.2c0.1-0.1,0.3-0.3,0.5-0.3c2.7,0,5.4,0,8.1,0c0.1,0,0.1,0,0.2,0.1c-0.6,1.4-1.5,2.6-2.6,3.6
			c-2.1,1.9-4.6,3-7.3,3.5c-1.9,0.4-3.8,0.5-5.8,0.3c-3.2-0.4-6-1.4-7.9-4.1c-1.3-1.9-1.6-4.1-1.4-6.4c0.3-2.6,1.1-5.1,2.7-7.2
			c2.3-3.1,5.3-5,9-5.9c2.8-0.7,5.7-0.6,8.5,0.4c3.7,1.3,5.7,4,6.3,7.8C155.3,52.5,155.2,54.3,154.9,56.1z M146.6,51.5
			c0.2-0.9,0-1.7-0.5-2.4c-0.7-1-1.6-1.5-2.8-1.5c-1.5,0-2.9,0.3-4,1.5c-0.6,0.7-1,1.5-1.1,2.4C141.1,51.5,143.8,51.5,146.6,51.5z"
			/>
		<path class="st0" d="M256.2,56.1c-0.3,0-0.5,0-0.7,0c-5.4,0-10.8,0-16.2,0c-0.5,0-0.7,0.2-0.7,0.7c0,1.5,0.5,2.7,1.8,3.4
			c1.5,0.8,3.1,0.7,4.6-0.3c0.4-0.2,0.7-0.5,0.9-0.8c0.2-0.3,0.5-0.4,0.9-0.4c2.5,0,5,0,7.5,0c0.2,0,0.3,0,0.5,0
			c0,0,0.1,0.1,0.1,0.1c-0.5,0.8-0.9,1.6-1.5,2.3c-2,2.6-4.8,3.9-7.9,4.6c-2.1,0.5-4.2,0.6-6.3,0.4c-3-0.3-5.8-1.3-7.7-3.9
			c-1.4-1.8-1.8-3.9-1.7-6.2c0.3-3.9,1.8-7.2,4.6-9.9c2.2-2,4.8-3.3,7.7-3.8c2.8-0.5,5.5-0.4,8.2,0.6c3.5,1.4,5.4,4,6,7.6
			c0.1,0.9,0.2,1.8,0.2,2.7C256.5,54.2,256.3,55.1,256.2,56.1z M247.9,51.5c0.2-1.4-0.2-2.5-1.3-3.3c-1.8-1.3-4.9-0.7-6.2,1.2
			c-0.4,0.6-0.8,1.3-0.8,2.1C242.4,51.5,245.1,51.5,247.9,51.5z"/>
		<path class="st0" d="M97.6,58.3c-0.4,2.4-0.8,4.6-1.2,6.9c-0.1,0.4-0.3,0.4-0.6,0.4c-4.1,0-8.2,0-12.2,0c-3.7,0-7.5,0-11.2,0
			c-0.2,0-0.3,0-0.6,0c1.9-10.5,3.7-21,5.6-31.5c3.4,0,6.8,0,10.3,0c-1.4,8.1-2.8,16.1-4.3,24.2C88.2,58.3,92.9,58.3,97.6,58.3z"/>
		<path class="st0" d="M203.9,47.9c-1.1,0-2.1,0-3.2,0c0.3-1.8,0.6-3.5,0.9-5.2c1,0,1.9,0,2.9,0c0.4,0,0.5-0.1,0.6-0.5
			c0.3-2.1,0.7-4.2,1.1-6.3c0-0.2,0.1-0.4,0.4-0.4c2.8,0,5.6,0,8.4,0c0,0,0.1,0,0.2,0.1c-0.4,2.3-0.8,4.7-1.2,7c1.5,0,2.9,0,4.4,0
			c-0.3,1.8-0.6,3.5-0.9,5.2c-1.3,0-2.6,0-3.9,0c-0.4,0-0.5,0.1-0.6,0.5c-0.5,2.8-1,5.6-1.5,8.4c-0.1,0.4-0.1,0.8,0,1.2
			c0.1,0.6,0.6,1,1.3,1.1c0.8,0.1,1.6,0.1,2.5,0.1c-0.1,0.8-0.2,1.5-0.4,2.3c-0.2,1.3-0.5,2.5-0.7,3.8c0,0.3-0.2,0.4-0.4,0.4
			c-2.3,0-4.6,0.1-6.9,0.1c-0.9,0-1.8-0.2-2.7-0.5c-1.6-0.5-2.5-1.6-2.4-3.3c0.1-1.7,0.3-3.4,0.6-5.1
			C202.8,53.8,203.4,50.9,203.9,47.9z"/>
		<path class="st0" d="M112.6,42.7c1,0,1.9,0,2.9,0c0.3,0,0.5,0,0.6-0.5c0.3-2.1,0.7-4.2,1.1-6.3c0-0.2,0.1-0.4,0.4-0.4
			c2.8,0,5.6,0,8.4,0c0,0,0.1,0,0.2,0c-0.4,2.3-0.8,4.6-1.2,7c1.5,0,2.9,0,4.4,0c-0.2,1.1-0.4,2.1-0.5,3.1c-0.1,0.5-0.2,1.1-0.3,1.6
			c-0.1,0.3-0.2,0.5-0.6,0.5c-1.2,0-2.3,0-3.5,0c-0.3,0-0.5,0-0.5,0.4c-0.5,2.8-1,5.6-1.5,8.5c-0.1,0.4-0.1,0.8,0,1.2
			c0.1,0.6,0.6,1,1.4,1.1c0.8,0.1,1.6,0.1,2.5,0.2c-0.1,0.5-0.2,1.1-0.2,1.6c-0.3,1.5-0.5,2.9-0.8,4.4c0,0.3-0.1,0.4-0.4,0.4
			c-2.3,0-4.6,0.1-6.8,0.1c-1.1,0-2.2-0.3-3.2-0.6c-1.4-0.5-2-1.8-1.9-3.2c0.1-1.8,0.3-3.7,0.6-5.5c0.4-2.7,0.9-5.3,1.4-7.9
			c0-0.1,0.1-0.3,0.1-0.5c-1.1,0-2.1,0-3.3,0C112,46.1,112.3,44.4,112.6,42.7z"/>
		<path class="st0" d="M187.1,65.5c1.4-7.7,2.7-15.3,4-22.9c3,0,6,0,9.1,0c-1.3,7.6-2.7,15.2-4,22.9
			C193.2,65.5,190.2,65.5,187.1,65.5z"/>
		<path class="st0" d="M107.4,65.5c-3,0-6,0-9,0c0.4-2.4,0.8-4.7,1.2-7c0.5-2.8,1-5.6,1.5-8.4c0.4-2.3,0.8-4.7,1.2-7
			c0-0.1,0.2-0.4,0.4-0.4c2.9,0,5.7,0,8.7,0C110.1,50.3,108.7,57.9,107.4,65.5z"/>
		<path class="st0" d="M226.1,65.6c-3.1,0-6.2,0-9.3,0c0.4-2.4,0.8-4.7,1.2-7.1c0.1-0.5,0.2-1,0.3-1.5c0-0.2,0.1-0.4,0.4-0.4
			c2.9,0,5.8,0,8.8,0c0,0,0.1,0,0.2,0C227.1,59.6,226.6,62.5,226.1,65.6z"/>
		<path class="st0" d="M28.1,62.1c0.1,2.7-2.3,5-4.7,5c-2.5,0-4.5-2-4.5-4.5c0-2.7,2.1-5.1,4.9-5.1C26.2,57.6,28.1,59.8,28.1,62.1z"
			/>
		<path class="st0" d="M24.3,29.5c2.7,0.1,5.3,2.2,5.4,5.2c0.1,1.9-1.2,3.4-3.2,3.8c-2.9,0.5-5.9-1.9-6.2-4.9
			c-0.2-1.8,1.3-3.6,3.1-3.9C23.7,29.5,24,29.5,24.3,29.5z"/>
		<path class="st0" d="M200.8,39.7c-3.1,0-6,0-9.1,0c0.4-2.2,0.8-4.3,1.1-6.4c3,0,6,0,9.1,0C201.5,35.4,201.2,37.5,200.8,39.7z"/>
		<path class="st0" d="M102.9,39.6c0.4-2.1,0.8-4.3,1.1-6.4c3,0,6,0,9,0c-0.4,2.1-0.8,4.2-1.1,6.4C108.9,39.6,105.9,39.6,102.9,39.6
			z"/>
		<path class="st0" d="M29.3,52.9c-2.2,0.1-4.4-2.1-4.4-4.5c0-2.4,1.8-4,3.8-4c2.3,0,4.4,2,4.4,4.5C33.2,51.2,31.4,53,29.3,52.9z"/>
		<path class="st0" d="M65.3,36.8c-2.8-4.7-6.6-8.4-11.5-11.2c3.9,0,7.7,0,11.5,0C65.3,29.3,65.3,33.1,65.3,36.8z"/>
		<path class="st0" d="M30.2,36c0-1.1,0.5-2,1.6-2.7c1.2-0.7,2.4-0.5,3.5,0.1c1.5,0.8,2.3,2.1,2.4,3.8c0.1,2.4-1.9,4-4.3,3.2
			C31.6,39.9,30.2,38,30.2,36z"/>
		<path class="st0" d="M51.2,60.7c0.2-0.7,0.3-1.4,0.6-2c0.8-1.6,2.6-1.9,4-0.8c1.5,1.3,2,3.9,1,5.6c-1.1,1.8-3.2,1.8-4.4,0.2
			c-0.7-0.9-1-1.8-1-2.9C51.3,60.7,51.2,60.7,51.2,60.7z"/>
		<path class="st0" d="M56.7,46.4c0.7,0,1.3,0.3,1.8,0.7c1.3,1.3,1.8,2.8,1.2,4.6c-0.3,1-1,1.6-2,1.7c-0.5,0-1-0.2-1.5-0.5
			c-1.6-1-2.3-3.5-1.5-5.2C55,46.9,55.8,46.4,56.7,46.4z"/>
		<path class="st0" d="M65.4,58.5c-0.8,0-1.4-0.2-1.9-0.6c-1.9-1.5-2.6-4.1-1.9-6.2c0.4-1,1-1.8,2.1-1.9c0.5-0.1,1,0.2,1.5,0.3
			c0.1,0,0.1,0.2,0.1,0.3C65.4,53.1,65.4,55.7,65.4,58.5z"/>
		<path class="st0" d="M33.6,60c1.1,0.1,2.2,0.9,2.6,2c0.6,1.4,0,3.1-1.3,4c-1.4,0.9-3.1,0.4-3.9-1.2c-0.9-1.7-0.1-3.8,1.6-4.6
			C32.9,60.1,33.3,60.1,33.6,60z"/>
		<path class="st0" d="M58.5,64.6c0-0.7,0.1-1.4,0.5-2.1c0.7-1.2,2.1-1.4,3.1-0.5c1.4,1.2,1.8,3.8,0.7,5.3c-0.9,1.4-2.6,1.3-3.6-0.2
			C58.8,66.4,58.5,65.6,58.5,64.6z"/>
		<path class="st0" d="M62.1,40.8c0,1.3-0.6,2.2-1.6,2.4c-0.8,0.2-1.4-0.2-2-0.7c-1.2-1.1-1.8-2.5-1.5-4.1c0.3-1.4,1.5-2,2.8-1.4
			C61.2,37.7,62.1,39.2,62.1,40.8z"/>
		<path class="st0" d="M42.1,68c0.1-0.9,0.2-1.7,0.8-2.3c0.9-1.1,2.6-1.1,3.5,0c0.9,1.1,1.1,2.7,0.4,3.9c-0.5,0.9-1.3,1.5-2.3,1.4
			c-1.1-0.1-1.7-0.9-2.1-1.8C42.2,68.8,42.1,68.3,42.1,68z"/>
		<path class="st0" d="M34.8,25.6c2.1,0,4.2,0,6.3,0c0.4,0.8,0.5,1.6,0.3,2.4c-0.4,1.6-1.7,2.3-3.3,1.9
			C36.4,29.5,34.7,27.4,34.8,25.6z"/>
		<path class="st0" d="M37.6,48.6c1.4,0,2.5,1.2,2.8,2.7c0.2,1.6-0.8,2.9-2.2,3.1c-1,0.1-1.8-0.4-2.4-1.1c-0.9-1.2-1-2.6,0-3.8
			C36.3,48.9,36.9,48.6,37.6,48.6z"/>
		<path class="st0" d="M49.7,28.3c0-0.2,0-0.5,0.1-0.8c0.3-0.9,1.1-1.3,2-1c1.6,0.5,2.7,2.3,2.6,4.2c-0.1,0.9-0.6,1.5-1.4,1.7
			c-0.7,0.1-1.2-0.2-1.7-0.6C50.3,31,49.7,29.9,49.7,28.3z"/>
		<path class="st0" d="M45.5,56.2c0.2-0.6,0.3-1.2,0.7-1.6c0.7-1.1,2.2-1.1,3.2-0.1c0.9,0.9,1.2,2.4,0.7,3.6
			c-0.3,0.8-0.9,1.2-1.7,1.3c-0.8,0.1-1.5-0.3-2-1c-0.6-0.8-0.7-1.2-0.7-2.1C45.6,56.2,45.6,56.2,45.5,56.2z"/>
		<path class="st0" d="M39,40.6c0.1-0.9,0.4-1.7,1.3-2.1c0.9-0.3,1.7-0.1,2.3,0.5c0.9,0.8,1.4,1.7,1.1,3c-0.4,1.7-2,2.3-3.4,1.2
			C39.6,42.6,39.1,41.7,39,40.6z"/>
		<path class="st0" d="M48.8,46c0-1.1,0.5-1.9,1.5-2.1c0.7-0.2,1.3,0.1,1.8,0.6c0.8,0.8,1.2,1.8,1,3c-0.3,1.5-1.8,2-3,1
			C49.2,47.8,48.8,47,48.8,46z"/>
		<path class="st0" d="M42.6,31.2c0-0.8,0.3-1.4,1-1.8c0.7-0.3,1.3-0.2,1.9,0.2c1.1,0.7,1.7,2,1.5,3.1c-0.2,1.2-1.2,1.8-2.4,1.3
			C43.5,33.7,42.5,32.3,42.6,31.2z"/>
		<path class="st0" d="M55.6,37.8c0,0.7-0.2,1.4-0.9,1.7c-0.6,0.3-1.4,0.1-2-0.5c-0.8-0.8-1.2-1.7-1-2.8c0.2-1.1,1.1-1.6,2.2-1.2
			C54.8,35.4,55.6,36.6,55.6,37.8z"/>
		<path class="st0" d="M34.9,74.3c0.1-0.9,0.3-1.5,0.9-2c0.9-0.7,2.1-0.3,2.5,0.8c0.4,1.1-0.1,2.3-1,2.8c-1,0.4-1.5,0-1.9-0.6
			C35,74.9,35,74.5,34.9,74.3z"/>
		<path class="st0" d="M38.6,63.1c0-1,0.2-1.6,0.9-1.9c0.6-0.3,1.1-0.2,1.6,0.2c0.6,0.5,0.8,1.2,0.7,2c-0.2,0.8-0.9,1.5-1.6,1.4
			C39.4,64.6,38.6,63.8,38.6,63.1z"/>
		<path class="st0" d="M43.2,51.1c0.9,0,1.7,0.8,1.8,1.8c0.1,0.8-0.4,1.5-1.3,1.6c-0.3,0-0.6-0.1-0.8-0.2c-0.7-0.4-0.9-1.1-0.9-1.8
			c0-0.6,0.3-1.1,0.9-1.2C43.1,51.1,43.2,51.1,43.2,51.1z"/>
		<path class="st0" d="M47.7,44c0,0.8-0.4,1.3-1.1,1.3c-0.9,0-1.6-0.9-1.6-1.9c0-0.7,0.5-1.3,1.1-1.3C46.9,42.2,47.7,43.1,47.7,44z"
			/>
		<path class="st0" d="M65.3,42.3c0,1.5,0,3.1,0,4.6c0,0-0.1,0.1-0.1,0.1c-0.3-0.3-0.6-0.6-0.8-0.9c-0.5-0.9-0.9-1.9-0.5-3
			C64.1,42.5,64.6,42.2,65.3,42.3z"/>
		<path class="st0" d="M50.3,36.1c0,0.3-0.1,0.7-0.6,0.9c-0.6,0.3-1-0.1-1.3-0.4c-0.4-0.4-0.7-1-0.6-1.6c0.1-0.7,0.7-1,1.4-0.7
			C49.8,34.5,50.3,35.2,50.3,36.1z"/>
		<path class="st0" d="M56.2,33c0-1.1,0.5-1.5,1.3-1.1c0.7,0.3,1.1,1.1,1.1,1.8c0,0.7-0.6,1-1.2,0.8C56.6,34.2,56.3,33.6,56.2,33z"
			/>
		<path class="st0" d="M45.2,25.6c0.7,0,1.4,0,2,0c0.1,0,0.2,0,0.2,0.1c0.2,0.3,0.2,1-0.1,1.3c-0.3,0.3-0.7,0.4-1.2,0.1
			C45.6,26.8,45.3,26.3,45.2,25.6z"/>
	</g>
</g>
</svg>
