<svg width="1500" height="1500" viewBox="0 0 1500 1500" fill="none" xmlns="http://www.w3.org/2000/svg">
<path d="M1350 150H750V750H1350V150Z" fill="#C5D1DA"/>
<path d="M750 750H150V1350H750V750Z" fill="#DFEBF2"/>
<path d="M390.6 434.9H342.3C340.9 434.9 339.8 433.8 339.8 432.4V345C339.8 343.6 340.9 342.5 342.3 342.5H390.6C392 342.5 393.1 343.6 393.1 345V432.4C393.1 433.8 392 434.9 390.6 434.9ZM344.8 429.9H388.1V347.5H344.8V429.9Z" fill="black"/>
<path d="M431.1 434.9C429.7 434.9 428.6 433.8 428.6 432.4V345C428.6 343.6 429.7 342.5 431.1 342.5C432.5 342.5 433.6 343.6 433.6 345V432.4C433.6 433.8 432.5 434.9 431.1 434.9Z" fill="black"/>
<path d="M517.2 434.9H468.9C467.5 434.9 466.4 433.8 466.4 432.4V345C466.4 343.6 467.5 342.5 468.9 342.5H517.2C518.6 342.5 519.7 343.6 519.7 345V432.4C519.7 433.8 518.6 434.9 517.2 434.9ZM471.4 429.9H514.7V347.5H471.4V429.9V429.9Z" fill="black"/>
<path d="M557.7 434.9C556.3 434.9 555.2 433.8 555.2 432.4V345C555.2 343.6 556.3 342.5 557.7 342.5C559.1 342.5 560.2 343.6 560.2 345V432.4C560.2 433.8 559.1 434.9 557.7 434.9Z" fill="black"/>
<path d="M557.7 557.6H509.4C508 557.6 506.9 556.5 506.9 555.1V467.7C506.9 466.3 508 465.2 509.4 465.2H557.7C559.1 465.2 560.2 466.3 560.2 467.7V555.1C560.2 556.4 559.1 557.6 557.7 557.6ZM511.9 552.6H555.2V470.2H511.9V552.6V552.6Z" fill="black"/>
<path d="M468.9 557.6C467.5 557.6 466.4 556.5 466.4 555.1V467.7C466.4 466.3 467.5 465.2 468.9 465.2C470.3 465.2 471.4 466.3 471.4 467.7V555.1C471.4 556.4 470.3 557.6 468.9 557.6Z" fill="black"/>
<path d="M431.1 557.6H382.8C381.4 557.6 380.3 556.5 380.3 555.1V467.7C380.3 466.3 381.4 465.2 382.8 465.2H431.1C432.5 465.2 433.6 466.3 433.6 467.7V555.1C433.6 556.4 432.5 557.6 431.1 557.6ZM385.3 552.6H428.6V470.2H385.3V552.6Z" fill="black"/>
<path d="M342.3 557.6C340.9 557.6 339.8 556.5 339.8 555.1V467.7C339.8 466.3 340.9 465.2 342.3 465.2C343.7 465.2 344.8 466.3 344.8 467.7V555.1C344.8 556.4 343.7 557.6 342.3 557.6Z" fill="black"/>
<path d="M930.8 1035.5C917.3 1035.5 904.9 1027.7 898.8 1015.2C898.6 1014.9 898.4 1014.5 898.4 1014C898.3 1012.8 899.1 1011.7 900.3 1011.4C901.5 1011.1 902.7 1011.7 903.2 1012.7C908.6 1024.1 920.1 1031 932.4 1030.4C943.4 1029.8 953.3 1023.1 958.2 1012.8C958.2 1012.7 958.3 1012.6 958.3 1012.5C964 1000.5 975.5 992.7 988.4 992C1002.6 991.2 1015.9 999.1 1022.2 1012.2C1022.3 1012.3 1022.3 1012.4 1022.4 1012.5C1027.8 1023.9 1039.3 1030.8 1051.6 1030.2C1062.7 1029.6 1072.6 1022.8 1077.5 1012.5C1077.5 1012.4 1077.6 1012.3 1077.7 1012.2C1083.4 1000.4 1094.9 992.7 1107.7 992C1121.9 991.2 1135.2 999.1 1141.5 1012.2C1141.6 1012.3 1141.6 1012.4 1141.6 1012.5C1147 1023.9 1158.5 1030.8 1170.8 1030.2C1181.9 1029.6 1191.8 1022.8 1196.7 1012.5C1197.3 1011.3 1198.8 1010.7 1200 1011.3C1201.2 1011.9 1201.8 1013.4 1201.2 1014.6C1195.5 1026.6 1184 1034.4 1171.1 1035.1C1156.9 1035.9 1143.6 1028 1137.3 1014.9C1137.2 1014.8 1137.2 1014.7 1137.2 1014.6C1131.8 1003.2 1120.3 996.3 1108 996.9C1096.9 997.5 1087 1004.3 1082.1 1014.6C1082.1 1014.7 1082 1014.8 1081.9 1014.9C1076.2 1026.7 1064.7 1034.4 1051.9 1035.1C1037.7 1035.9 1024.4 1028 1018.1 1014.9C1018 1014.8 1018 1014.7 1018 1014.6C1012.6 1003.2 1001.1 996.3 988.8 996.9C977.8 997.5 967.9 1004.2 963 1014.3C963 1014.4 962.9 1014.5 962.9 1014.6C957.2 1026.6 945.6 1034.5 932.8 1035.2C932 1035.4 931.4 1035.5 930.8 1035.5Z" fill="black"/>
<path d="M930.8 1108C917.3 1108 904.9 1100.2 898.8 1087.7C898.6 1087.4 898.4 1087 898.4 1086.5C898.3 1085.3 899.1 1084.2 900.3 1083.9C901.5 1083.6 902.7 1084.2 903.2 1085.2C908.6 1096.6 920.1 1103.5 932.4 1102.9C943.4 1102.3 953.3 1095.6 958.2 1085.3C958.2 1085.2 958.3 1085.1 958.3 1085C964 1073 975.5 1065.2 988.4 1064.5C1002.6 1063.7 1015.9 1071.6 1022.2 1084.7C1022.3 1084.8 1022.3 1084.9 1022.4 1085C1027.8 1096.4 1039.3 1103.3 1051.6 1102.7C1062.7 1102.1 1072.6 1095.3 1077.5 1085C1077.5 1084.9 1077.6 1084.8 1077.7 1084.7C1083.4 1072.9 1094.9 1065.2 1107.7 1064.5C1121.9 1063.7 1135.2 1071.6 1141.5 1084.7C1141.6 1084.8 1141.6 1084.9 1141.6 1085C1147 1096.4 1158.5 1103.3 1170.8 1102.7C1181.9 1102.1 1191.8 1095.3 1196.7 1085C1197.3 1083.8 1198.8 1083.2 1200 1083.8C1201.2 1084.4 1201.8 1085.9 1201.2 1087.1C1195.5 1099.1 1184 1106.9 1171.1 1107.6C1156.9 1108.4 1143.6 1100.5 1137.3 1087.4C1137.2 1087.3 1137.2 1087.2 1137.2 1087.1C1131.8 1075.7 1120.3 1068.8 1108 1069.4C1096.9 1070 1087 1076.8 1082.1 1087.1C1082.1 1087.2 1082 1087.3 1081.9 1087.4C1076.2 1099.2 1064.7 1106.9 1051.9 1107.6C1037.7 1108.4 1024.4 1100.5 1018.1 1087.4C1018 1087.3 1018 1087.2 1018 1087.1C1012.6 1075.7 1001.1 1068.8 988.8 1069.4C977.8 1070 967.9 1076.7 963 1086.8C963 1086.9 962.9 1087 962.9 1087.1C957.2 1099.1 945.6 1107 932.8 1107.7C932 1107.9 931.4 1108 930.8 1108Z" fill="black"/>
<path d="M1271.21 552.247C1251.57 586.948 1194.02 592.083 1158.14 571.775C1122.25 551.467 1096.7 502.112 1116.34 467.411C1135.98 432.71 1193.6 425.379 1229.49 445.687C1265.38 465.995 1290.84 517.546 1271.21 552.247Z" fill="#ED8D47"/>
<path d="M1307.1 474.474C1340.39 481.652 1298.12 520.176 1269.76 533.494L1252.15 471.197C1258.64 472.664 1273.82 467.296 1307.1 474.474Z" fill="#ED8D47"/>
<path d="M1167.06 394.978C1143.77 370.139 1132.51 426.206 1135.69 457.376L1198.16 440.398C1193.56 435.586 1190.35 419.817 1167.06 394.978Z" fill="#ED8D47"/>
<path d="M1166 404.526C1150.86 388.353 1143.47 424.925 1145.51 445.247L1186.19 434.112C1183.2 430.979 1181.13 420.699 1166 404.526Z" fill="#EC6E5D"/>
<path d="M1300.98 480.913C1322.64 485.559 1295.09 510.724 1276.62 519.437L1265.22 478.833C1269.44 479.783 1279.32 476.267 1300.98 480.913Z" fill="#EC6E5D"/>
<path d="M1258.86 573.843C1239.11 592.935 1193.23 597.238 1156.73 576.587C1120.24 555.936 1099.55 523.487 1106.07 487.382C1107.94 461.538 1158.2 488.858 1194.69 509.51C1231.19 530.161 1276.77 556.519 1258.86 573.843Z" fill="#FFF6C5"/>
<ellipse cx="1180.98" cy="534.257" rx="49.9422" ry="48.2924" transform="rotate(29.5054 1180.98 534.257)" fill="#FFF6C5"/>
<path d="M1195.12 515.357C1201.98 519.236 1211.29 516.137 1209.06 508.582V508.582C1207.68 503.912 1204.49 499.919 1200.18 497.481C1195.87 495.043 1190.8 494.36 1186.09 495.582V495.582C1178.46 497.558 1180.6 507.142 1187.46 511.021L1191.29 513.189L1195.12 515.357Z" fill="#454545"/>
<path d="M1194.85 507.918L1182.84 529.145" stroke="#454545" stroke-width="5" stroke-linecap="round"/>
<path d="M1180.37 459.099C1187.69 462.018 1196.44 457.662 1193.17 450.454V450.454C1191.14 446.001 1187.43 442.47 1182.83 440.637C1178.23 438.805 1173.14 438.822 1168.66 440.684V440.684C1161.42 443.698 1164.9 452.933 1172.22 455.852L1176.3 457.475L1180.37 459.099Z" fill="#FFF6C5"/>
<ellipse cx="1164.73" cy="471.532" rx="12.8639" ry="16.8292" transform="rotate(29.5054 1164.73 471.532)" fill="#454545"/>
<ellipse rx="6.5526" ry="8.78823" transform="matrix(0.936078 0.351791 -0.341837 0.939759 1169.09 470.161)" fill="white"/>
<path d="M1247.02 496.854C1240.75 492.081 1239.97 482.333 1247.84 481.43V481.43C1252.7 480.873 1257.64 482.242 1261.58 485.238C1265.51 488.234 1268.12 492.611 1268.83 497.406V497.406C1269.98 505.166 1260.27 506.936 1254 502.163L1250.51 499.509L1247.02 496.854Z" fill="#FFF6C5"/>
<ellipse rx="12.8639" ry="16.8292" transform="matrix(-0.87031 -0.492505 -0.492505 0.87031 1244.41 516.665)" fill="#454545"/>
<ellipse rx="6.54391" ry="8.80063" transform="matrix(-0.965668 -0.25978 -0.243603 0.969875 1247.73 512.427)" fill="white"/>
<path d="M1182.2 528.224L1165.71 525.616C1163.16 531.833 1157.27 547.185 1166.93 552.651C1176.59 558.117 1185.9 551.054 1192.49 540.772L1182.2 528.224Z" fill="#EC6E5D"/>
<path d="M1208.72 536.029C1200.29 541.224 1183.11 542.025 1184.08 526.981" stroke="#454545" stroke-width="5" stroke-linecap="round"/>
<path d="M1162.76 510.237C1162.65 520.143 1170.81 535.278 1183.2 526.702" stroke="#454545" stroke-width="5" stroke-linecap="round"/>
<ellipse cx="1135.52" cy="493.957" rx="14.6295" ry="6.82922" transform="rotate(29.5054 1135.52 493.957)" fill="#FFA89D"/>
<ellipse rx="14.6295" ry="6.82922" transform="matrix(-0.87031 -0.492505 -0.492505 0.87031 1240.01 553.088)" fill="#FFA89D"/>
<path d="M1108.1 502.3H991.9V335.4C991.9 317.3 1006.7 302.5 1024.8 302.5H1075.2C1093.3 302.5 1108.1 317.3 1108.1 335.4V502.3V502.3ZM996.9 497.3H1103.1V335.4C1103.1 320 1090.6 307.5 1075.2 307.5H1024.8C1009.4 307.5 996.9 320 996.9 335.4V497.3V497.3Z" fill="black"/>
<path d="M1170.2 415.5H929.7V594.9H1170.2V415.5Z" fill="#9B1C2E"/>
<path d="M1068.1 495.5C1068.1 485.5 1060 477.4 1050 477.4C1040 477.4 1031.9 485.5 1031.9 495.5C1031.9 502.6 1036 508.8 1042 511.7V529.1C1042 531.3 1043.8 533.1 1046 533.1H1053.9C1056.1 533.1 1057.9 531.3 1057.9 529.1V511.7C1063.9 508.8 1068.1 502.6 1068.1 495.5Z" fill="#C5D1DA"/>
<path d="M1054 535.6H1046.1C1042.5 535.6 1039.6 532.7 1039.6 529.1V513.2C1033.3 509.5 1029.5 502.9 1029.5 495.5C1029.5 484.2 1038.7 474.9 1050.1 474.9C1061.5 474.9 1070.7 484.1 1070.7 495.5C1070.7 502.9 1066.9 509.5 1060.6 513.2V529.1C1060.4 532.7 1057.5 535.6 1054 535.6ZM1050 479.9C1041.4 479.9 1034.4 486.9 1034.4 495.5C1034.4 501.5 1037.7 506.8 1043.1 509.5L1044.5 510.2V529.1C1044.5 529.9 1045.2 530.6 1046 530.6H1053.9C1054.7 530.6 1055.4 529.9 1055.4 529.1V510.2L1056.8 509.5C1062.2 506.9 1065.5 501.5 1065.5 495.5C1065.6 486.9 1058.6 479.9 1050 479.9Z" fill="black"/>
<path d="M653.2 1263.4H246.8C246.8 1166 315.4 1084.6 406.9 1064.8C418.7 1158.4 498.6 1230.7 595.4 1230.7C614.1 1230.7 632.1 1228 649.2 1223C651.8 1236.1 653.2 1249.6 653.2 1263.4Z" fill="#C9D3DC"/>
<path d="M653.2 1265.9H246.8C245.4 1265.9 244.3 1264.8 244.3 1263.4C244.3 1216.1 260.7 1169.9 290.6 1133.4C320 1097.4 361.1 1072.1 406.4 1062.4C407.1 1062.3 407.8 1062.4 408.4 1062.8C409 1063.2 409.3 1063.8 409.4 1064.5C421.2 1157.9 501.2 1228.3 595.4 1228.3C613.4 1228.3 631.3 1225.7 648.5 1220.7C649.2 1220.5 649.9 1220.6 650.5 1221C651.1 1221.4 651.5 1222 651.7 1222.6C654.4 1236 655.8 1249.7 655.8 1263.5C655.7 1264.8 654.6 1265.9 653.2 1265.9ZM249.3 1260.9H650.7C650.6 1249.2 649.4 1237.5 647.3 1226.2C630.5 1230.9 613 1233.3 595.4 1233.3C499.6 1233.3 418.1 1162.4 404.8 1067.9C315.3 1088.4 250.5 1169 249.3 1260.9Z" fill="black"/>
<path d="M595.4 1233.2C498.6 1233.2 416.5 1160.9 404.4 1065.1C404.2 1063.8 405.1 1062.6 406.4 1062.3C420.7 1059.2 435.3 1057.7 450 1057.7C497.8 1057.7 544.3 1074.4 581.1 1104.8C617.4 1134.8 642.4 1176.6 651.7 1222.5C652 1223.8 651.2 1225 650 1225.4C632.2 1230.6 613.9 1233.2 595.4 1233.2ZM409.7 1066.8C422.5 1159 501.9 1228.3 595.4 1228.3C612.7 1228.3 629.8 1226 646.3 1221.3C626.6 1129.3 544.5 1062.8 450 1062.8C436.4 1062.7 422.9 1064.1 409.7 1066.8Z" fill="black"/>
<path d="M596.542 927.78C596.542 994.723 516.703 1049.81 447.471 1049.81C378.238 1049.81 300.093 998.818 300.093 931.875C300.093 864.933 378.238 806.57 447.471 806.57C516.703 806.57 596.542 860.838 596.542 927.78Z" fill="#ED8D47"/>
<path d="M584.685 784.457C639.259 767.421 609.356 858.661 578.925 901.573L501.679 825.107C512.38 821.88 530.11 801.492 584.685 784.457Z" fill="#ED8D47"/>
<path d="M314.315 784.094C259.741 767.058 289.644 858.298 320.075 901.21L397.321 824.743C386.62 821.517 368.89 801.129 314.315 784.094Z" fill="#ED8D47"/>
<path d="M320.653 798.927C285.165 787.809 304.61 847.358 324.398 875.365L374.629 825.458C367.67 823.352 356.141 810.046 320.653 798.927Z" fill="#EC6E5D"/>
<path d="M581.065 798.927C616.552 787.809 597.108 847.358 577.32 875.365L527.089 825.458C534.047 823.352 545.577 810.046 581.065 798.927Z" fill="#EC6E5D"/>
<path d="M596.354 969.549C583.286 1013.77 519.802 1058 449.4 1058C378.999 1058 321.927 1027.7 301.599 969.549C282.965 930.237 378.999 928.599 449.4 928.599C519.802 928.599 608.212 929.418 596.354 969.549Z" fill="#FFF6C5"/>
<ellipse cx="449.824" cy="976.101" rx="83.8529" ry="81.0801" fill="#FFF6C5"/>
<path d="M458.81 936.789C469.855 936.789 479.174 926.916 472.286 918.282C471.471 917.26 470.585 916.284 469.631 915.362C463.754 909.679 455.782 906.487 447.471 906.487C439.159 906.487 431.188 909.679 425.311 915.362C424.357 916.284 423.471 917.26 422.656 918.282C415.768 926.916 425.086 936.789 436.132 936.789L447.471 936.789H458.81Z" fill="#454545"/>
<path d="M448.318 926.142V967.092" stroke="#454545" stroke-width="5" stroke-linecap="round"/>
<path d="M390.704 866.25C401.648 864.757 409.459 853.73 401.394 846.109C400.438 845.205 399.417 844.356 398.337 843.57C391.696 838.736 383.342 836.651 375.112 837.774C366.882 838.896 359.45 843.134 354.451 849.555C353.638 850.599 352.9 851.688 352.239 852.813C346.669 862.293 357.329 870.801 368.273 869.309L379.489 867.779L390.704 866.25Z" fill="#FFF6C5"/>
<ellipse cx="374.205" cy="897.887" rx="21.5985" ry="28.2552" fill="#454545"/>
<ellipse rx="11.0018" ry="14.755" transform="matrix(0.987938 -0.154851 0.165338 0.986237 379.441 892.278)" fill="white"/>
<path d="M511.473 866.305C500.528 864.812 492.718 853.785 500.782 846.164C501.739 845.26 502.76 844.411 503.84 843.624C510.48 838.791 518.835 836.706 527.065 837.828C535.295 838.951 542.727 843.189 547.726 849.609C548.539 850.654 549.277 851.743 549.938 852.867C555.508 862.348 544.848 870.856 533.903 869.364L522.688 867.834L511.473 866.305Z" fill="#FFF6C5"/>
<ellipse rx="21.5985" ry="28.2552" transform="matrix(-1 0 0 1 527.971 897.942)" fill="#454545"/>
<ellipse rx="10.9872" ry="14.7758" transform="matrix(-0.968375 0.249499 0.265667 0.964065 529.317 889.005)" fill="white"/>
<path d="M446.624 966.273L420.367 976.101C421.778 987.294 425.872 1014.59 444.506 1014.59C463.14 1014.59 470.904 996.576 472.034 976.101L446.624 966.273Z" fill="#EC6E5D"/>
<path d="M491.83 955.749C483.8 970.315 459.365 985.686 448.34 962.903" stroke="#454545" stroke-width="5" stroke-linecap="round"/>
<path d="M403.337 956.068C411.367 970.634 435.802 986.005 446.828 963.222" stroke="#454545" stroke-width="5" stroke-linecap="round"/>
<ellipse cx="350.066" cy="954.807" rx="24.563" ry="11.4659" fill="#FFA89D"/>
<ellipse rx="24.563" ry="11.4659" transform="matrix(-1 0 0 1 551.652 954.807)" fill="#FFA89D"/>
<g opacity="0.7">
<g opacity="0.7">
<g opacity="0.7">
<path opacity="0.7" d="M595.4 1230.7C700.334 1230.7 785.4 1145.63 785.4 1040.7C785.4 935.766 700.334 850.7 595.4 850.7C490.466 850.7 405.4 935.766 405.4 1040.7C405.4 1145.63 490.466 1230.7 595.4 1230.7Z" fill="#DFEBF2"/>
</g>
</g>
</g>
<path d="M595.4 1233.2C489.2 1233.2 402.9 1146.8 402.9 1040.7C402.9 934.6 489.3 848.2 595.4 848.2C701.5 848.2 787.9 934.6 787.9 1040.7C787.9 1146.8 701.5 1233.2 595.4 1233.2ZM595.4 853.2C492 853.2 407.9 937.3 407.9 1040.7C407.9 1144.1 492 1228.2 595.4 1228.2C698.8 1228.2 782.9 1144.1 782.9 1040.7C782.9 937.3 698.8 853.2 595.4 853.2Z" fill="black"/>
<path d="M896 1339.4C895.4 1339.4 894.7 1339.2 894.2 1338.7L730.2 1174.7C729.2 1173.7 729.2 1172.1 730.2 1171.2C731.2 1170.3 732.8 1170.2 733.7 1171.2L897.7 1335.2C898.7 1336.2 898.7 1337.8 897.7 1338.7C897.2 1339.1 896.6 1339.4 896 1339.4Z" fill="black"/>
</svg>
