<?xml version="1.0" encoding="utf-8"?>
<!-- Generator: Adobe Illustrator 24.3.0, SVG Export Plug-In . SVG Version: 6.00 Build 0)  -->
<svg version="1.1" id="Ebene_1" xmlns="http://www.w3.org/2000/svg" xmlns:xlink="http://www.w3.org/1999/xlink" x="0px" y="0px"
	 viewBox="0 0 900 907.5" style="enable-background:new 0 0 900 907.5;" xml:space="preserve">
<style type="text/css">
	.st0{fill:#141516;}
	.st1{fill:#FFFFFF;}
	.st2{fill:#FEFEFE;}
	.st3{fill:#9B1C2E;}
</style>
<path class="st0" d="M829.2,668H71.6c-31.7,0-57.3-25.7-57.3-57.3V303c0-31.7,25.7-57.3,57.3-57.3h757.5c31.7,0,57.3,25.7,57.3,57.3
	v307.7C886.6,642.2,860.8,668,829.2,668z"/>
<g>
	<g>
		<path class="st1" d="M451.1,587.2H446c-0.6,0-1.1-0.1-1.4-0.4c-0.4-0.3-0.6-0.7-0.8-1.1l-2.6-7.2h-14.6l-2.6,7.2
			c-0.1,0.4-0.4,0.7-0.8,1.1s-0.9,0.5-1.4,0.5h-5.2l13.9-35.3h6.7L451.1,587.2z M439.5,573.9l-4.3-11.7c-0.2-0.5-0.4-1.2-0.7-1.9
			c-0.2-0.7-0.5-1.5-0.7-2.3c-0.2,0.9-0.4,1.6-0.7,2.3c-0.2,0.7-0.5,1.4-0.7,1.9l-4.3,11.7H439.5z"/>
		<path class="st1" d="M478,578.9c0.4,0,0.7,0.1,1,0.4l2.6,2.8c-1.5,1.8-3.2,3.1-5.3,4.1c-2,1-4.6,1.5-7.5,1.5c-2.6,0-5-0.5-7.1-1.4
			c-2-0.9-3.9-2.1-5.4-3.7c-1.5-1.6-2.6-3.5-3.4-5.8c-0.8-2.2-1.2-4.7-1.2-7.2c0-2.6,0.4-5.1,1.3-7.3c0.9-2.2,2-4.1,3.6-5.7
			c1.6-1.6,3.4-2.8,5.5-3.7s4.5-1.4,7.1-1.4c2.5,0,4.9,0.4,6.8,1.3s3.7,1.9,5.1,3.3l-2.2,3c-0.1,0.2-0.3,0.4-0.5,0.5
			c-0.2,0.2-0.5,0.2-0.9,0.2c-0.3,0-0.5-0.1-0.8-0.2c-0.3-0.1-0.6-0.3-0.9-0.5c-0.3-0.2-0.7-0.4-1.1-0.7c-0.4-0.2-0.9-0.5-1.5-0.7
			c-0.6-0.2-1.2-0.4-1.9-0.5c-0.7-0.1-1.6-0.2-2.4-0.2c-1.6,0-3,0.3-4.3,0.9c-1.3,0.6-2.4,1.4-3.4,2.4s-1.7,2.3-2.2,3.9
			c-0.6,1.6-0.8,3.3-0.8,5.3c0,1.9,0.3,3.7,0.9,5.3c0.6,1.6,1.4,2.8,2.2,3.9c1,1.1,2,1.9,3.4,2.4c1.3,0.6,2.7,0.9,4.2,0.9
			c0.9,0,1.7-0.1,2.4-0.2c0.7-0.1,1.4-0.3,2-0.5c0.6-0.2,1.2-0.5,1.8-0.8c0.6-0.3,1.1-0.8,1.7-1.3c0.2-0.1,0.3-0.3,0.5-0.4
			C477.6,578.9,477.8,578.9,478,578.9z"/>
		<path class="st1" d="M509.5,578.9c0.4,0,0.7,0.1,1,0.4l2.6,2.8c-1.5,1.8-3.2,3.1-5.3,4.1c-2,1-4.6,1.5-7.5,1.5
			c-2.6,0-5-0.5-7.1-1.4c-2-0.9-3.9-2.1-5.4-3.7c-1.5-1.6-2.6-3.5-3.4-5.8c-0.8-2.2-1.2-4.7-1.2-7.2c0-2.6,0.4-5.1,1.3-7.3
			s2-4.1,3.6-5.7c1.6-1.6,3.4-2.8,5.5-3.7c2.1-0.9,4.5-1.4,7.1-1.4c2.5,0,4.9,0.4,6.8,1.3s3.7,1.9,5.1,3.3l-2.2,2.9
			c-0.1,0.2-0.3,0.4-0.5,0.5c-0.2,0.1-0.5,0.2-0.9,0.2c-0.3,0-0.5-0.1-0.8-0.2c-0.3-0.1-0.6-0.3-0.9-0.5s-0.7-0.4-1.1-0.7
			c-0.4-0.2-0.9-0.5-1.5-0.7c-0.6-0.2-1.2-0.4-1.9-0.5c-0.7-0.1-1.6-0.2-2.4-0.2c-1.6,0-3,0.3-4.3,0.9c-1.3,0.6-2.4,1.4-3.4,2.4
			c-1,1.1-1.7,2.3-2.2,3.9c-0.6,1.6-0.8,3.3-0.8,5.3c0,1.9,0.3,3.7,0.9,5.3c0.6,1.6,1.4,2.8,2.2,3.9c1,1.1,2,1.9,3.4,2.4
			c1.4,0.6,2.7,0.9,4.2,0.9c0.9,0,1.8-0.1,2.4-0.2c0.7-0.1,1.4-0.3,2-0.5c0.6-0.2,1.2-0.5,1.8-0.8c0.6-0.3,1.1-0.8,1.7-1.3
			c0.2-0.1,0.3-0.3,0.5-0.4C509.1,578.9,509.3,578.9,509.5,578.9z"/>
		<path class="st1" d="M524.2,557.2v9.7h12.4v5.1h-12.4v9.9h15.7v5.3h-22.2v-35.3h22.2v5.3H524.2z"/>
		<path class="st1" d="M557.2,551.9c2.3,0,4.4,0.3,6.1,0.9c1.8,0.6,3.1,1.4,4.3,2.3c1.2,1,1.9,2.1,2.5,3.6c0.6,1.4,0.8,2.9,0.8,4.6
			c0,1.8-0.3,3.3-0.9,4.7c-0.6,1.5-1.5,2.6-2.5,3.7c-1.2,1.1-2.5,1.9-4.3,2.4s-3.7,0.9-6,0.9h-4.9v12.5h-6.5v-35.3h11.4V551.9z
			 M557.2,569.7c1.2,0,2.2-0.2,3.1-0.5s1.7-0.8,2.2-1.3c0.6-0.5,1.1-1.3,1.4-2s0.5-1.8,0.5-2.7s-0.2-1.8-0.5-2.5
			c-0.3-0.8-0.8-1.5-1.4-1.9c-0.6-0.6-1.4-1-2.2-1.3c-0.9-0.3-1.9-0.4-3.2-0.4h-4.9v12.7H557.2L557.2,569.7z"/>
		<path class="st1" d="M600.5,557.3h-10.6v29.9h-6.5v-29.9h-10.6v-5.4h27.9L600.5,557.3L600.5,557.3z"/>
		<path class="st1" d="M611.8,557.2v9.7h12.4v5.1h-12.4v9.9h15.7v5.3h-22.2v-35.3h22.2v5.3H611.8z"/>
		<path class="st1" d="M664.6,569.6c0,2.6-0.4,5-1.3,7.1c-0.9,2.1-2,4-3.6,5.6c-1.6,1.6-3.4,2.7-5.7,3.6c-2.2,0.9-4.7,1.3-7.3,1.3
			h-13.5v-35.3h13.5c2.7,0,5.2,0.4,7.3,1.3c2.2,0.9,4.1,2,5.7,3.6c1.6,1.6,2.7,3.4,3.6,5.6C664.2,564.6,664.6,567,664.6,569.6z
			 M657.9,569.6c0-1.9-0.3-3.7-0.8-5.2s-1.3-2.8-2.2-3.9c-1-1.1-2.1-1.9-3.5-2.4c-1.4-0.6-2.9-0.9-4.7-0.9h-6.8v24.9h6.8
			c1.8,0,3.3-0.3,4.7-0.9s2.5-1.4,3.5-2.4c1-1.1,1.8-2.3,2.2-3.9S657.9,571.5,657.9,569.6z"/>
		<path class="st1" d="M712.1,551.9v35.3h-6.6v-15.4h-16.6v15.4h-6.6v-35.3h6.6v15.2h16.6v-15.2H712.1L712.1,551.9z"/>
		<path class="st1" d="M726.5,557.2v9.7h12.4v5.1h-12.4v9.9h15.7v5.3H720v-35.3h22.2v5.3H726.5z"/>
		<path class="st1" d="M775.6,587.2h-5.9c-1.2,0-1.9-0.5-2.4-1.4l-7.4-11.3c-0.3-0.4-0.6-0.7-0.9-0.9c-0.3-0.2-0.8-0.3-1.5-0.3h-2.8
			v13.8h-6.5v-35.3h10.7c2.4,0,4.5,0.3,6.1,0.8c1.8,0.5,3.1,1.2,4.2,2c1.1,0.9,1.9,1.9,2.4,3.2s0.8,2.6,0.8,4.1
			c0,1.2-0.2,2.3-0.5,3.4s-0.9,2-1.6,2.9c-0.7,0.9-1.5,1.7-2.4,2.2c-1,0.7-2,1.2-3.3,1.6c0.4,0.2,0.8,0.5,1.2,0.9
			c0.4,0.3,0.7,0.7,1,1.2L775.6,587.2z M758.7,568.7c1.3,0,2.3-0.2,3.2-0.5c0.9-0.3,1.7-0.8,2.2-1.3c0.6-0.5,1.1-1.2,1.4-1.9
			c0.3-0.8,0.5-1.6,0.5-2.4c0-1.8-0.6-3.1-1.8-4.1c-1.2-1-3-1.5-5.4-1.5h-4.2v11.7H758.7z"/>
		<path class="st1" d="M786.1,557.2v9.7h12.4v5.1h-12.4v9.9h15.7v5.3h-22.3v-35.3h22.2v5.3H786.1z"/>
	</g>
	<g>
		<path class="st1" d="M440.8,409.6h-24.1v-26.3h24.1V372c0-44,12.8-45.8,63.7-45.8V350c-27.5,0-31,1.5-31,16.5v16.7h31v26.3h-31
			v99.2h-32.7V409.6L440.8,409.6z M527.7,325.9h33.7v29h-33.7V325.9z M527.9,383.3h32.9v125.5h-32.9V383.3z"/>
		<path class="st1" d="M595.4,383.3h30.7l0.9,21.7h2c6.7-18.6,20-23.7,40.2-23.7v31.3c-32.2,0-41.1,11.8-41.1,46v50.2h-32.7V383.3
			L595.4,383.3z"/>
		<path class="st1" d="M686.7,445.8c0-50.7,3.2-64.5,57.6-64.5s57.6,13.8,57.6,64.5s-3.2,64.9-57.6,64.9
			C689.9,510.8,686.7,496.4,686.7,445.8z M768.8,445.8c0-34.5,0-38.1-24.6-38.1s-24.6,3.7-24.6,38.1s0,38.6,24.6,38.6
			S768.8,480.2,768.8,445.8z"/>
	</g>
	<g>
		<g>
			<circle class="st2" cx="229.8" cy="456.7" r="130.6"/>
		</g>
		<g>
			<path class="st3" d="M175.8,514c3,0,5.9-1.7,7.2-4.4l19.2-36.5h-29.7c-4.5,0-8.1-3.7-8.1-8.1v-16.4c0-4.5,3.7-8.1,8.1-8.1h47
				l36.5-69.2c1.4-2.7,4.2-4.4,7.2-4.4h61.6c-23.9-25.2-57.6-40.9-95-40.9C157.7,325.9,99,384.5,99,456.8c0,20.5,4.7,40,13.2,57.3
				L175.8,514L175.8,514L175.8,514z"/>
			<path class="st3" d="M283.9,399.4c-3,0-5.9,1.7-7.2,4.4l-19.2,36.5h29.7c4.5,0,8.1,3.7,8.1,8.1v16.4c0,4.5-3.7,8.1-8.1,8.1h-47
				l-36.5,69.2c-1.4,2.7-4.2,4.4-7.2,4.4h-61.6c23.9,25.2,57.6,40.9,95,40.9c72.3,0,130.9-58.6,130.9-130.9c0-20.5-4.7-40-13.2-57.3
				L283.9,399.4L283.9,399.4L283.9,399.4z"/>
		</g>
	</g>
</g>
</svg>
