<svg width="878" height="710" viewBox="0 0 878 710" fill="none" xmlns="http://www.w3.org/2000/svg">
<g clip-path="url(#clip0_191_287)">
<g filter="url(#filter0_f_191_287)">
<ellipse cx="439" cy="355" rx="339" ry="255" fill="#F4CACB"/>
</g>
<path opacity="0.5" d="M571.562 382.87C614.165 382.87 648.702 348.334 648.702 305.73C648.702 263.127 614.165 228.59 571.562 228.59C528.959 228.59 494.422 263.127 494.422 305.73C494.422 348.334 528.959 382.87 571.562 382.87Z" stroke="white" stroke-miterlimit="10" stroke-linecap="round" stroke-dasharray="3 3"/>
<path opacity="0.5" d="M594.38 275.29L592.17 289.28L590.26 301.34L599.15 309.82L609.48 319.66L595.44 321.78L583.33 323.62L578.04 334.62L571.93 347.39L565.46 334.72L559.88 323.78L547.71 322.1L533.62 320.15L543.67 310.18L552.32 301.57L550.07 289.53L547.46 275.57L560.15 282.09L571.08 287.7L581.85 281.93L594.34 275.25M624.71 232.52L570.72 261.41L515.92 233.24L527.16 293.59L483.75 336.69L544.69 345.1L572.66 399.89L599.1 344.72L659.79 335.5L615.18 293L624.72 232.51L624.71 232.52Z" fill="url(#paint0_linear_191_287)"/>
<path opacity="0.5" d="M208.578 220.481C208.578 220.481 248.318 176.361 290.508 186.651C332.698 196.951 324.348 239.951 307.928 243.341C291.518 246.731 286.428 232.891 286.428 232.891C286.428 232.891 278.138 204.911 320.358 191.141C362.578 177.371 386.408 231.651 386.408 231.651" stroke="white" stroke-miterlimit="10" stroke-linecap="round" stroke-dasharray="3 3"/>
<path opacity="0.5" d="M389.371 494.48L449.641 485.61L389.371 476.75L436.861 438.59L381.281 461.1L403.801 405.53L365.621 453.02L356.771 392.75L347.891 453.02L309.731 405.53L332.251 461.1L276.671 438.58L324.161 476.76L263.891 485.62L324.161 494.49L276.671 532.64L332.251 510.13L309.731 565.7L347.891 518.21L356.771 578.48L365.621 518.21L403.791 565.7L381.281 510.13L436.861 532.65L389.371 494.49V494.48Z" stroke="white" stroke-miterlimit="10" stroke-linecap="round" stroke-dasharray="3 3"/>
<path d="M373.952 241.53C373.882 241.53 373.802 241.53 373.732 241.53C373.012 241.47 372.362 241.13 371.812 240.66C369.072 238.33 365.542 236.91 361.682 236.83C361.132 236.82 360.572 236.83 360.012 236.88C352.022 237.53 345.612 244.17 345.212 252.17C345.202 252.45 345.212 252.71 345.212 252.99C345.212 253.27 345.192 253.53 345.212 253.81C345.602 261.81 352.022 268.46 360.012 269.1C360.572 269.15 361.132 269.16 361.682 269.15C365.542 269.07 369.072 267.65 371.812 265.32C372.362 264.86 373.012 264.51 373.732 264.45C373.802 264.45 373.882 264.45 373.952 264.45C375.062 264.45 376.332 265.14 376.332 268.33V305H413.002C416.402 305 416.962 303.56 416.872 302.4C416.812 301.68 416.472 301.03 416.002 300.48C413.342 297.35 411.862 293.19 412.222 288.68C412.872 280.69 419.512 274.28 427.512 273.88C427.792 273.87 428.052 273.88 428.332 273.88C428.612 273.88 428.872 273.86 429.152 273.88C435.972 274.22 441.792 278.93 443.762 285.25L459.632 255.19C461.332 251.99 464.632 249.99 468.232 249.99H511.172C509.832 243 503.892 237.47 496.652 236.88C496.092 236.83 495.532 236.82 494.982 236.83C491.122 236.91 487.592 238.33 484.852 240.66C484.302 241.12 483.652 241.47 482.932 241.53C482.862 241.53 482.782 241.53 482.712 241.53C481.602 241.53 480.332 240.84 480.332 237.65V210.14C464.112 204.41 446.642 201.28 428.432 201.28C410.222 201.28 392.622 204.44 376.332 210.22V237.65C376.332 240.84 375.062 241.53 373.952 241.53Z" fill="#B61936" stroke="#DB546A" stroke-miterlimit="10"/>
<path d="M478.242 304.99H480.312H480.332V301.01L478.242 304.99Z" fill="#9B1B2F" stroke="#630F21" stroke-miterlimit="10"/>
<path d="M440.66 300.47C440.2 301.02 439.85 301.67 439.79 302.39C439.7 303.54 440.26 304.99 443.66 304.99H478.23L480.32 301.02V268.33C480.32 265.14 481.59 264.45 482.7 264.45C482.77 264.45 482.85 264.45 482.92 264.45C483.64 264.51 484.29 264.85 484.84 265.32C487.58 267.65 491.11 269.07 494.97 269.15C495.52 269.16 496.08 269.15 496.64 269.1C504.63 268.45 511.04 261.81 511.44 253.81C511.45 253.53 511.44 253.27 511.44 252.99C511.44 252.71 511.46 252.45 511.44 252.17C511.4 251.43 511.3 250.7 511.16 249.99H468.22C464.62 249.99 461.32 251.99 459.62 255.19L443.75 285.25C444.09 286.35 444.34 287.49 444.43 288.67C444.8 293.18 443.31 297.34 440.65 300.47H440.66Z" fill="white" stroke="#DB546A" stroke-miterlimit="10"/>
<path d="M543.77 307.59C543.83 308.31 544.17 308.96 544.64 309.51C547.3 312.64 548.78 316.8 548.42 321.31C547.77 329.3 541.13 335.71 533.13 336.11C533.13 336.11 533.12 336.11 533.11 336.11C532.84 336.12 532.57 336.11 532.3 336.11C532.03 336.11 531.77 336.13 531.49 336.11C531.49 336.11 531.48 336.11 531.47 336.11C523.47 335.72 516.82 329.3 516.18 321.31C515.81 316.8 517.3 312.64 519.96 309.51C520.42 308.96 520.77 308.31 520.83 307.59C520.92 306.44 520.36 304.99 516.96 304.99H480.32V337.49H496.52C501.92 337.49 506.22 341.89 506.22 347.19V366.69C506.22 367.03 506.2 367.36 506.17 367.69C505.67 372.61 501.49 376.39 496.52 376.39H480.32V408.99H516.99C517.2 408.99 517.4 408.99 517.59 408.97C520.44 408.8 520.92 407.47 520.84 406.39C520.78 405.67 520.44 405.02 519.97 404.47C517.31 401.34 515.83 397.18 516.19 392.67C516.84 384.68 523.48 378.27 531.48 377.87C531.48 377.87 531.49 377.87 531.5 377.87C531.78 377.86 532.04 377.87 532.32 377.87C532.6 377.87 532.86 377.85 533.14 377.87C541.14 378.26 547.79 384.68 548.43 392.67C548.8 397.18 547.31 401.34 544.65 404.47C544.19 405.02 543.84 405.67 543.78 406.39C543.69 407.54 544.25 408.99 547.65 408.99H575.08C580.86 392.7 584.01 375.17 584.01 356.89C584.01 338.61 580.9 321.24 575.16 304.99H547.65C544.25 304.99 543.69 306.43 543.78 307.59H543.77Z" fill="#B61936" stroke="#DB546A" stroke-miterlimit="10"/>
<path d="M506.201 347.19C506.201 341.89 501.901 337.49 496.501 337.49H480.301V341.66C480.301 344.86 479.021 345.54 477.911 345.54C477.831 345.54 477.751 345.54 477.681 345.54C476.961 345.48 476.311 345.14 475.761 344.67C473.021 342.35 469.491 340.92 465.641 340.84C465.091 340.83 464.541 340.84 463.981 340.89C455.991 341.54 449.581 348.18 449.181 356.18C449.171 356.46 449.181 356.72 449.181 357C449.181 357.28 449.161 357.54 449.181 357.82C449.571 365.82 455.991 372.47 463.981 373.11C464.541 373.16 465.091 373.17 465.641 373.16C469.501 373.08 473.021 371.66 475.761 369.33C476.311 368.87 476.961 368.52 477.681 368.46C477.761 368.46 477.831 368.46 477.911 368.46C479.021 368.46 480.301 369.14 480.301 372.34V376.41H496.501C501.471 376.41 505.651 372.63 506.151 367.71C506.181 367.38 506.201 367.05 506.201 366.71V347.21V347.19Z" fill="white" stroke="#C43050" stroke-miterlimit="10"/>
<path d="M376.328 337.59H416.128L443.758 285.25C441.778 278.93 435.958 274.21 429.148 273.88C428.868 273.87 428.608 273.88 428.328 273.88C428.058 273.88 427.788 273.86 427.508 273.88C419.508 274.27 412.858 280.69 412.218 288.68C411.848 293.19 413.338 297.35 415.998 300.48C416.458 301.03 416.808 301.68 416.868 302.4C416.958 303.55 416.398 305 412.998 305H376.328V337.6V337.59Z" fill="#B61936" stroke="#DB546A" stroke-miterlimit="10"/>
<path d="M376.328 408.99H378.418L395.528 376.49H376.328V408.99Z" fill="#B61936" stroke="#DB546A" stroke-miterlimit="10"/>
<path d="M443.661 408.991H480.301V376.391H440.521L412.891 428.731C414.871 435.051 420.691 439.771 427.501 440.101C427.781 440.111 428.041 440.101 428.321 440.101C428.601 440.101 428.861 440.121 429.141 440.101C437.141 439.711 443.791 433.291 444.431 425.301C444.791 420.791 443.311 416.631 440.651 413.501C440.191 412.951 439.841 412.301 439.781 411.581C439.781 411.511 439.781 411.431 439.781 411.361C439.781 410.251 440.471 408.981 443.661 408.981V408.991Z" fill="#B61936" stroke="#DB546A" stroke-miterlimit="10"/>
<path d="M480.305 337.49V304.99H478.235L461.125 337.49H480.305Z" fill="#B61936" stroke="#DB546A" stroke-miterlimit="10"/>
<path d="M480.308 376.39V372.32C480.308 369.14 479.048 368.45 477.938 368.44C477.868 368.44 477.798 368.44 477.728 368.44C477.008 368.5 476.358 368.84 475.808 369.31C473.058 371.64 469.528 373.07 465.668 373.14C465.118 373.15 464.558 373.14 463.988 373.09C455.998 372.44 449.588 365.8 449.188 357.8C449.178 357.52 449.188 357.26 449.188 356.98C449.188 356.7 449.168 356.44 449.188 356.16C449.578 348.16 455.998 341.51 463.988 340.87C464.558 340.82 465.118 340.81 465.668 340.82C469.538 340.89 473.068 342.32 475.808 344.65C476.358 345.11 477.008 345.46 477.728 345.52C477.798 345.52 477.868 345.52 477.938 345.52C479.048 345.52 480.308 344.82 480.308 341.64V337.47H461.128L478.238 304.97H443.658C440.258 304.97 439.698 303.53 439.788 302.37C439.848 301.65 440.188 301 440.658 300.45C443.318 297.32 444.798 293.16 444.438 288.65C444.338 287.47 444.098 286.33 443.758 285.23L416.128 337.57H376.328V341.64C376.328 345.04 377.768 345.6 378.928 345.51C379.648 345.45 380.298 345.11 380.848 344.64C383.978 341.98 388.138 340.5 392.648 340.86C400.638 341.51 407.048 348.15 407.448 356.15C407.458 356.43 407.448 356.69 407.448 356.97C407.448 357.25 407.468 357.51 407.448 357.79C407.058 365.79 400.638 372.44 392.648 373.08C388.138 373.45 383.978 371.96 380.848 369.3C380.298 368.84 379.648 368.49 378.928 368.43C377.778 368.34 376.328 368.9 376.328 372.3V376.47H395.528L378.418 408.97H412.998C416.188 408.97 416.878 410.24 416.878 411.35C416.878 411.42 416.878 411.5 416.878 411.57C416.818 412.29 416.478 412.94 416.008 413.49C413.678 416.23 412.258 419.76 412.178 423.62C412.168 424.17 412.178 424.73 412.228 425.29C412.328 426.47 412.568 427.61 412.908 428.71L440.538 376.37H480.318L480.308 376.39Z" fill="white" stroke="#DB546A" stroke-miterlimit="10"/>
<path d="M496.648 236.9C503.888 237.49 509.828 243.02 511.168 250.01H541.528C524.728 232.26 503.828 218.47 480.328 210.17V237.68C480.328 240.87 481.598 241.56 482.708 241.56C482.778 241.56 482.858 241.56 482.928 241.56C483.648 241.5 484.298 241.16 484.848 240.69C487.588 238.36 491.118 236.94 494.978 236.86C495.528 236.85 496.088 236.86 496.648 236.91V236.9Z" fill="#B61936" stroke="#DB546A" stroke-miterlimit="10"/>
<path d="M568.278 288.71H492.628V288.81C489.028 288.81 485.628 290.81 484.028 294.01L480.328 301.04V305.01H516.998C520.398 305.01 520.958 306.45 520.868 307.61C520.808 308.33 520.468 308.98 519.998 309.53C517.338 312.66 515.858 316.82 516.218 321.33C516.868 329.32 523.508 335.73 531.508 336.13C531.778 336.14 532.038 336.13 532.298 336.13H532.318C532.588 336.13 532.848 336.14 533.118 336.13C541.118 335.74 547.768 329.32 548.408 321.33C548.778 316.82 547.288 312.66 544.628 309.53C544.168 308.98 543.818 308.33 543.758 307.61C543.668 306.46 544.228 305.01 547.628 305.01H575.158C573.178 299.42 570.898 293.98 568.308 288.71H568.258H568.278Z" fill="#B61936" stroke="#DB546A" stroke-miterlimit="10"/>
<path d="M511.44 253.01C511.44 253.28 511.46 253.55 511.44 253.83C511.05 261.83 504.63 268.48 496.64 269.12C496.08 269.17 495.52 269.18 494.97 269.17C491.11 269.09 487.58 267.67 484.84 265.34C484.29 264.88 483.64 264.53 482.92 264.47C482.85 264.47 482.77 264.47 482.7 264.47C481.59 264.47 480.32 265.16 480.32 268.35V301.04L484.02 294.01C485.62 290.81 489.02 288.81 492.62 288.81V288.71H568.27C561.3 274.45 552.21 261.42 541.42 250.01H511.16C511.3 250.73 511.4 251.45 511.44 252.19C511.45 252.47 511.44 252.73 511.44 253.01Z" fill="white" stroke="#DB546A" stroke-miterlimit="10"/>
<path d="M376.297 408.98V412.95L378.387 408.98H376.297Z" fill="#9B1B2F" stroke="#630F21" stroke-miterlimit="10"/>
<path d="M363.995 425.18C367.595 425.18 370.995 423.18 372.595 419.98L376.295 412.95V408.98H339.625C337.075 408.98 336.125 408.17 335.845 407.27C335.755 406.97 335.735 406.67 335.755 406.38C335.815 405.66 336.155 405.01 336.625 404.46C339.285 401.33 340.765 397.17 340.405 392.66C340.285 391.16 339.955 389.72 339.435 388.36C337.215 382.48 331.605 378.18 325.105 377.86C324.825 377.85 324.565 377.86 324.285 377.86C324.005 377.86 323.745 377.84 323.465 377.86C315.465 378.25 308.815 384.67 308.175 392.66C307.995 394.91 308.275 397.08 308.935 399.07C309.595 401.06 310.625 402.89 311.955 404.45C312.305 404.86 312.585 405.33 312.725 405.84C312.775 406.01 312.805 406.19 312.825 406.37C312.915 407.52 312.355 408.97 308.955 408.97H281.445C283.425 414.56 285.705 420 288.285 425.27H363.985V425.17L363.995 425.18Z" fill="#B61936" stroke="#DB546A" stroke-miterlimit="10"/>
<path d="M373.922 472.44C373.852 472.44 373.772 472.44 373.702 472.44C372.982 472.5 372.332 472.84 371.782 473.31C369.042 475.64 365.512 477.06 361.652 477.14C361.102 477.15 360.542 477.14 359.982 477.09C352.742 476.5 346.802 470.97 345.462 463.98H315.202H315.102C331.902 481.73 352.802 495.52 376.302 503.82V476.31C376.302 473.12 375.032 472.43 373.922 472.43V472.44Z" fill="#B61936" stroke="#DB546A" stroke-miterlimit="10"/>
<path d="M345.182 461.8C345.172 461.52 345.182 461.26 345.182 460.98C345.182 460.7 345.162 460.44 345.182 460.16C345.572 452.16 351.992 445.51 359.982 444.87C360.542 444.82 361.102 444.81 361.652 444.82C365.512 444.9 369.042 446.32 371.782 448.65C372.332 449.11 372.982 449.46 373.702 449.52C373.772 449.52 373.852 449.52 373.922 449.52C375.032 449.52 376.302 448.83 376.302 445.64V412.95L372.602 419.98C371.002 423.18 367.602 425.18 364.002 425.18V425.28H288.352C295.322 439.54 304.412 452.57 315.202 463.98H345.462C345.322 463.26 345.222 462.54 345.182 461.8Z" fill="white" stroke="#DB546A" stroke-miterlimit="10"/>
<path d="M480.319 503.74V476.31C480.319 473.12 481.589 472.43 482.699 472.43C482.769 472.43 482.849 472.43 482.919 472.43C483.639 472.49 484.289 472.83 484.839 473.3C487.579 475.63 491.109 477.05 494.969 477.13C495.519 477.14 496.079 477.13 496.639 477.08C504.629 476.43 511.039 469.79 511.439 461.79C511.449 461.51 511.439 461.25 511.439 460.97C511.439 460.69 511.459 460.43 511.439 460.15C511.049 452.15 504.629 445.5 496.639 444.86C496.079 444.81 495.519 444.8 494.969 444.81C491.109 444.89 487.579 446.31 484.839 448.64C484.289 449.1 483.639 449.45 482.919 449.51C482.849 449.51 482.769 449.51 482.699 449.51C481.589 449.51 480.319 448.82 480.319 445.63V408.96H443.649C440.459 408.96 439.769 410.23 439.769 411.34C439.769 411.41 439.769 411.49 439.769 411.56C439.829 412.28 440.169 412.93 440.639 413.48C443.299 416.61 444.779 420.77 444.419 425.28C443.769 433.27 437.129 439.68 429.129 440.08C428.849 440.09 428.589 440.08 428.309 440.08C428.029 440.08 427.769 440.1 427.489 440.08C420.669 439.74 414.849 435.03 412.879 428.7L397.009 458.76C395.309 461.96 392.009 463.96 388.409 463.96H345.469C346.809 470.95 352.749 476.48 359.989 477.07C360.549 477.12 361.109 477.13 361.659 477.12C365.519 477.04 369.049 475.62 371.789 473.29C372.339 472.83 372.989 472.48 373.709 472.42C373.779 472.42 373.859 472.42 373.929 472.42C375.039 472.42 376.309 473.11 376.309 476.3V503.81C392.529 509.54 409.999 512.67 428.209 512.67C446.419 512.67 464.019 509.51 480.309 503.73L480.319 503.74Z" fill="#B61936" stroke="#DB546A" stroke-miterlimit="10"/>
<path d="M412.151 423.62C412.231 419.76 413.651 416.23 415.981 413.49C416.441 412.94 416.791 412.29 416.851 411.57C416.851 411.5 416.851 411.43 416.851 411.35C416.851 410.24 416.161 408.97 412.971 408.97H378.391L376.301 412.94V445.63C376.301 448.82 375.031 449.51 373.921 449.51C373.851 449.51 373.771 449.51 373.701 449.51C372.981 449.45 372.331 449.11 371.781 448.64C369.041 446.31 365.511 444.89 361.651 444.81C361.101 444.8 360.541 444.81 359.981 444.86C351.991 445.51 345.581 452.15 345.181 460.15C345.171 460.43 345.181 460.69 345.181 460.97C345.181 461.25 345.161 461.51 345.181 461.79C345.221 462.53 345.321 463.26 345.461 463.97H388.401C392.001 463.97 395.301 461.97 397.001 458.77L412.871 428.71C412.531 427.61 412.291 426.47 412.191 425.29C412.141 424.73 412.131 424.17 412.141 423.62H412.151Z" fill="white" stroke="#DB546A" stroke-miterlimit="10"/>
<path d="M312.857 307.57C312.797 308.29 312.457 308.94 311.987 309.49C309.327 312.62 307.847 316.78 308.207 321.29C308.857 329.28 315.497 335.69 323.497 336.09C323.777 336.1 324.037 336.09 324.317 336.09C324.597 336.09 324.857 336.11 325.137 336.09C333.137 335.7 339.787 329.28 340.427 321.29C340.797 316.78 339.307 312.62 336.647 309.49C336.187 308.94 335.837 308.29 335.777 307.57C335.687 306.42 336.247 304.97 339.647 304.97H376.317V268.3C376.317 264.9 374.877 264.34 373.717 264.43C372.997 264.49 372.347 264.83 371.797 265.3C368.667 267.96 364.507 269.44 359.997 269.08C352.007 268.43 345.597 261.79 345.197 253.79C345.187 253.51 345.197 253.25 345.197 252.97C345.197 252.69 345.177 252.43 345.197 252.15C345.587 244.15 352.007 237.5 359.997 236.86C364.507 236.49 368.667 237.98 371.797 240.64C372.347 241.1 372.997 241.45 373.717 241.51C374.867 241.6 376.317 241.04 376.317 237.64V210.21C332.197 225.86 297.207 260.83 281.547 304.97H308.977C312.377 304.97 312.937 306.41 312.847 307.57H312.857Z" fill="#B61936" stroke="#DB546A" stroke-miterlimit="10"/>
<path d="M640.065 497.78C682.972 497.78 717.755 462.997 717.755 420.09C717.755 377.183 682.972 342.4 640.065 342.4C597.158 342.4 562.375 377.183 562.375 420.09C562.375 462.997 597.158 497.78 640.065 497.78Z" fill="#E8EEF9"/>
<path opacity="0.46" d="M627.18 427.961L629.11 424.001C629.11 424.001 633.19 424.061 639.42 422.391L627.19 427.961H627.18Z" fill="#7F4924"/>
<path d="M611.157 450.84C606.747 450.67 603.647 445.07 603.467 440.66C603.287 435.99 607.387 432.42 611.067 429.53C615.947 425.7 620.807 421.67 624.287 416.53C627.767 411.39 629.747 404.93 628.287 398.9C626.817 392.83 622.017 387.04 623.827 381.06C624.807 377.83 627.667 375.38 630.877 374.35C634.087 373.32 637.597 373.55 640.867 374.39C644.537 375.34 651.877 376.45 654.097 379.52C656.317 382.59 668.757 391.22 666.517 394.27C666.517 394.27 667.917 462.36 658.767 471.86C649.887 481.07 623.757 451.34 611.157 450.86V450.84Z" fill="#92684B"/>
<path d="M630.102 373.831C627.412 373.911 624.752 374.971 622.822 376.861C620.912 378.721 620.002 381.311 620.222 383.961C620.442 386.611 621.662 389.151 623.682 390.851C625.832 392.651 628.762 393.181 630.872 395.011C633.282 397.101 633.142 400.351 632.332 403.181C631.462 406.241 630.002 409.181 628.482 411.961C625.312 417.751 621.262 423.011 616.892 427.941C612.392 433.001 607.182 438.531 600.132 439.521C599.502 439.611 599.772 440.571 600.402 440.481C606.522 439.621 611.402 435.341 615.482 430.981C619.872 426.291 623.982 421.261 627.392 415.811C629.102 413.071 630.632 410.211 631.902 407.231C633.042 404.561 634.182 401.621 633.822 398.651C633.662 397.271 633.132 395.971 632.212 394.921C631.352 393.951 630.222 393.271 629.072 392.701C627.812 392.071 626.502 391.551 625.312 390.801C624.162 390.081 623.212 389.101 622.512 387.931C620.932 385.291 620.642 381.771 622.292 379.091C623.922 376.441 627.052 374.911 630.102 374.821C630.742 374.801 630.742 373.801 630.102 373.821V373.831Z" fill="#724B3B"/>
<path d="M629.096 424.001C627.236 427.831 625.246 431.891 623.386 435.721C620.006 434.191 616.626 433.191 613.066 434.211C609.506 435.231 606.386 438.181 605.816 441.841C605.336 444.921 606.676 448.071 608.736 450.421C610.796 452.771 613.516 454.421 616.246 455.921C621.656 458.901 627.396 461.481 633.516 462.311C635.796 462.621 638.166 462.681 640.376 462.021C642.586 461.361 644.636 459.911 645.606 457.821C646.796 455.281 646.226 452.191 644.826 449.761C643.426 447.331 641.126 444.981 639.036 443.111C641.916 435.381 645.626 427.021 649.386 419.671C651.826 420.191 654.616 419.281 656.106 417.281C657.596 415.281 657.676 412.291 656.176 410.301C654.676 408.311 651.656 407.581 649.486 408.801L658.916 388.831L640.036 374.641C631.446 377.541 625.016 386.321 623.426 395.361C623.286 396.161 622.826 396.861 622.176 397.351L618.756 400.061C618.486 400.271 618.436 400.661 618.646 400.931L620.226 402.961C620.386 403.201 620.406 403.491 620.306 403.761C618.616 408.071 617.716 412.551 617.406 417.171C617.296 418.731 617.326 420.451 618.316 421.671C619.306 422.881 620.846 423.481 622.396 423.691C628.036 424.471 633.966 423.871 639.466 422.381" fill="#F4A373"/>
<path d="M630.292 391.121C629.932 391.311 629.852 391.991 629.852 392.481C629.852 393.091 630.572 393.401 631.162 393.591C633.142 394.221 634.962 395.321 636.442 396.781C636.602 396.931 636.852 396.781 636.772 396.571C635.752 393.941 633.432 391.821 630.702 391.101L630.292 391.131V391.121Z" fill="#724B3B"/>
<path d="M652.85 410.511C654.45 410.831 655.41 412.581 655.31 414.121C655.21 415.651 654.03 416.941 652.56 417.301C652.25 417.381 652.38 417.861 652.69 417.781C654.38 417.361 655.69 415.871 655.8 414.121C655.91 412.371 654.78 410.391 652.97 410.031C652.66 409.971 652.52 410.451 652.84 410.511H652.85Z" fill="#2E3234"/>
<path d="M625.898 398.21C626.938 399.75 628.528 400.92 630.318 401.45C632.108 401.98 634.078 401.87 635.788 401.15C634.968 399.36 633.188 397.76 631.288 397.25C629.388 396.74 627.508 397.08 625.898 398.22V398.21Z" fill="white"/>
<path d="M625.678 398.33C627.928 401.6 632.168 402.89 635.848 401.38C636.008 401.32 636.068 401.17 635.998 401.01C635.168 399.25 633.608 397.78 631.768 397.13C629.738 396.41 627.518 396.77 625.758 397.99C625.498 398.17 625.748 398.61 626.008 398.42C627.668 397.28 629.708 396.93 631.628 397.61C633.348 398.23 634.788 399.62 635.558 401.27L635.708 400.9C632.238 402.32 628.238 401.17 626.098 398.08C625.918 397.82 625.488 398.07 625.668 398.33H625.678Z" fill="#2E3234"/>
<path d="M625.898 398.2C627.218 397.26 628.718 396.88 630.268 397.05L630.348 397.15C630.858 397.75 631.038 398.62 630.788 399.37C630.538 400.12 629.888 400.72 629.118 400.89L629.048 400.94C627.788 400.32 626.688 399.37 625.898 398.2Z" fill="#2E3234"/>
<path d="M626.016 398.421C627.266 397.541 628.736 397.141 630.256 397.301L630.036 397.181C630.236 397.451 630.426 397.701 630.536 398.031C630.666 398.441 630.676 398.871 630.546 399.281C630.426 399.661 630.186 400.001 629.876 400.251C629.726 400.371 629.556 400.471 629.386 400.551C629.226 400.621 629.056 400.641 628.916 400.731H629.166C627.936 400.121 626.876 399.211 626.106 398.081C625.926 397.821 625.496 398.071 625.676 398.331C626.496 399.531 627.616 400.511 628.916 401.161C628.996 401.201 629.096 401.211 629.166 401.161C629.256 401.101 629.376 401.081 629.486 401.041C629.646 400.981 629.806 400.901 629.956 400.801C630.226 400.631 630.456 400.411 630.646 400.151C631.046 399.611 631.206 398.941 631.106 398.281C631.056 397.951 630.946 397.641 630.786 397.351C630.686 397.181 630.496 396.841 630.286 396.801C629.936 396.721 629.536 396.751 629.186 396.771C628.816 396.791 628.436 396.841 628.076 396.931C627.246 397.121 626.456 397.501 625.756 397.991C625.496 398.171 625.746 398.611 626.006 398.421H626.016Z" fill="#2E3234"/>
<path d="M626.887 411.53C624.967 412.7 622.437 412.26 621.067 410.46C620.877 410.21 620.437 410.46 620.637 410.71C622.167 412.72 624.967 413.28 627.147 411.96C627.417 411.79 627.167 411.36 626.897 411.53H626.887Z" fill="#2E3234"/>
<path d="M659.809 377.081C661.779 380.521 664.679 383.311 667.939 385.561C669.669 386.751 671.249 388.521 672.709 390.281C677.779 396.401 679.599 405.071 677.409 412.711C675.639 418.881 671.439 424.461 671.369 430.881C671.269 440.641 680.779 449.471 678.079 458.851C677.119 462.171 674.699 464.901 671.909 466.941C668.039 469.721 662.099 472.161 657.769 472.771C659.659 465.961 657.039 458.951 654.679 455.091C653.559 453.251 650.689 452.691 650.469 450.581C650.299 448.921 650.669 447.251 651.539 445.831C657.579 436.001 660.349 424.211 659.309 412.721C659.109 410.521 657.609 408.641 655.509 407.951C652.769 407.041 650.029 407.561 648.509 410.201C648.329 410.511 647.879 410.431 647.829 410.081C646.949 404.571 652.939 396.641 640.139 389.081C637.119 387.291 633.629 385.631 632.309 383.501C630.149 380.011 628.909 377.681 629.849 373.681C630.719 369.961 638.909 368.141 642.689 367.611C647.529 366.931 652.659 368.711 656.039 372.261C657.489 373.781 658.829 375.391 659.819 377.121L659.809 377.081Z" fill="#92684B"/>
<path opacity="0.46" d="M627.016 428.28L629.096 424.02C629.096 424.02 633.496 424.09 640.216 422.3L627.016 428.29V428.28Z" fill="#7F4924"/>
<mask id="mask0_191_287" style="mask-type:luminance" maskUnits="userSpaceOnUse" x="561" y="342" width="157" height="156">
<path d="M639.409 497.78C682.316 497.78 717.099 462.997 717.099 420.09C717.099 377.183 682.316 342.4 639.409 342.4C596.502 342.4 561.719 377.183 561.719 420.09C561.719 462.997 596.502 497.78 639.409 497.78Z" fill="white"/>
</mask>
<g mask="url(#mask0_191_287)">
<path d="M595.287 432.31C596.797 430.43 603.467 428.83 606.507 429.39C611.967 430.4 618.057 432.39 623.387 435.72C622.357 436.24 622.697 438.39 622.697 438.39C622.697 438.39 621.357 440.82 628.837 444.67C635.117 447.91 636.757 446.75 636.757 446.75C637.377 446.51 639.707 444.01 639.027 443.11C647.127 449.86 648.667 450.95 652.867 456.44C656.537 461.24 657.967 464.85 657.877 470.9C657.697 482.13 645.037 492.31 640.867 535.21L612.027 531.01L573.767 513.33L566.867 511.5C578.697 462.55 588.987 451.8 592.407 447.31L595.307 432.31H595.287Z" fill="#ABB8C1"/>
</g>
<path d="M662.195 383.68C663.025 378.66 660.835 373.27 657.065 369.93C652.675 366.04 646.235 365.29 640.635 366.11C637.785 366.53 634.815 367.32 632.385 368.93C630.085 370.45 628.495 372.73 628.005 375.46C627.525 378.14 628.005 380.93 629.165 383.37C630.175 385.47 632.135 386.79 634.185 387.75C636.385 388.78 638.715 389.46 640.985 390.3C644.025 391.42 646.925 392.89 649.695 394.56C652.065 395.99 654.475 397.48 656.285 399.61C657.905 401.51 659.045 403.79 659.815 406.16C661.435 411.12 661.625 416.47 661.325 421.64C660.965 427.92 658.115 433.63 657.035 439.76C656.505 442.76 656.495 445.77 657.235 448.74C658.045 451.95 659.525 454.92 660.855 457.94C663.185 463.24 665.365 470.19 661.045 475.13C660.225 476.07 659.215 476.81 658.045 477.25C657.445 477.48 657.705 478.44 658.315 478.21C663.495 476.26 665.125 470.23 664.305 465.22C663.245 458.77 658.985 453.37 657.875 446.93C656.805 440.74 659.445 434.75 661.045 428.9C662.485 423.64 662.745 418.14 662.165 412.73C661.645 407.85 660.285 402.87 657.085 399.03C655.405 397.02 653.215 395.58 651.015 394.21C648.285 392.51 645.425 391.02 642.435 389.81C640.175 388.89 637.815 388.24 635.565 387.29C633.505 386.42 631.255 385.26 630.175 383.2C628.915 380.82 628.435 377.9 629.035 375.26C629.685 372.4 631.635 370.3 634.215 369.01C636.845 367.69 639.915 367.07 642.835 366.87C645.755 366.67 648.855 366.96 651.685 367.99C654.245 368.91 656.465 370.43 658.135 372.59C659.735 374.64 660.825 377.14 661.205 379.71C661.385 380.94 661.385 382.2 661.185 383.43C661.085 384.06 662.045 384.33 662.145 383.7L662.195 383.68Z" fill="#724B3B"/>
<path d="M661.357 383.9C663.457 386.13 665.537 388.4 667.287 390.93C669.037 393.46 670.437 396.35 671.297 399.38C672.177 402.49 672.537 405.75 672.177 408.97C671.837 411.94 670.797 414.78 669.607 417.5C667.377 422.6 664.417 427.77 664.527 433.51C664.637 439.37 668.097 444.34 670.027 449.69C671.137 452.77 671.607 455.99 671.027 459.24C670.447 462.49 669.017 465.49 666.817 467.92C666.387 468.4 667.097 469.11 667.527 468.63C671.427 464.31 673.097 458.22 671.887 452.52C670.647 446.65 666.757 441.69 665.737 435.76C664.707 429.76 667.677 424.22 670.057 418.92C671.257 416.25 672.387 413.52 672.927 410.63C673.517 407.46 673.407 404.21 672.747 401.06C672.027 397.59 670.657 394.26 668.737 391.28C666.817 388.3 664.467 385.73 662.067 383.18C661.627 382.71 660.917 383.42 661.357 383.89V383.9Z" fill="#724B3B"/>
<path d="M662.146 383.29C660.166 379.28 656.876 376 652.886 373.99C648.916 371.99 643.996 371.04 639.586 371.91C637.416 372.34 635.126 373.87 634.486 376.08C633.846 378.31 634.726 380.71 636.106 382.47C638.876 386 643.746 387.38 648.076 387.3C650.656 387.25 653.246 386.8 655.756 386.19C657.866 385.67 660.066 385.06 661.976 383.98C662.536 383.66 662.036 382.8 661.476 383.12C659.956 383.98 658.236 384.5 656.556 384.95C654.516 385.5 652.416 385.93 650.306 386.15C646.286 386.58 641.886 386.05 638.586 383.52C636.876 382.21 635.476 380.25 635.306 378.06C635.116 375.65 636.786 373.89 638.966 373.13C640.956 372.43 643.396 372.55 645.466 372.79C647.516 373.02 649.546 373.57 651.436 374.41C655.716 376.3 659.226 379.61 661.296 383.81C661.586 384.39 662.446 383.88 662.156 383.31L662.146 383.29Z" fill="#724B3B"/>
<path d="M661.58 384.03C666.12 385.25 670.54 387.32 673.82 390.76C677.32 394.43 679.28 399.55 679.68 404.57C679.89 407.23 679.68 409.89 679.03 412.48C678.33 415.24 677.23 417.88 676.25 420.54C675.28 423.18 674.43 425.89 674.18 428.7C673.95 431.28 674.35 433.79 675.36 436.17C677.31 440.82 681.26 444.97 681.34 450.24C681.34 450.88 682.35 450.88 682.34 450.24C682.27 445.44 679.17 441.56 677.07 437.48C675.87 435.15 675.09 432.71 675.11 430.06C675.14 427.14 675.96 424.3 676.93 421.57C677.91 418.82 679.07 416.12 679.84 413.3C680.55 410.7 680.86 408 680.73 405.3C680.47 400.19 678.7 394.99 675.4 391.03C671.96 386.9 666.96 384.43 661.84 383.06C661.22 382.89 660.95 383.86 661.57 384.02L661.58 384.03Z" fill="#724B3B"/>
<path d="M628.445 444.24C621.195 454.9 615.255 466.44 610.575 478.45C609.255 481.84 608.035 485.28 606.925 488.74C606.725 489.35 607.695 489.62 607.885 489.01C611.815 476.75 617.075 464.89 623.595 453.78C625.395 450.71 627.305 447.69 629.305 444.75C629.665 444.22 628.805 443.72 628.445 444.25V444.24Z" fill="#CBDBE8"/>
<path d="M566.849 440.52C554.149 440.34 553.109 440.51 539.659 436.41C536.309 442.44 534.899 448.54 535.569 455.4C550.459 460.29 551.479 459.53 567.149 459.08C582.819 458.63 598.949 453.96 610.639 443.51L609.509 440.65C608.729 438.69 608.269 436.63 607.859 434.56C607.269 431.58 606.809 429.92 604.419 429.42C603.019 429.12 597.819 430.62 596.539 431.27C578.039 440.67 566.859 440.52 566.859 440.52" fill="#ABB8C1"/>
<path d="M590.879 454.15C579.429 457.51 567.399 458.55 555.519 457.61C552.059 457.34 548.619 456.89 545.199 456.3C544.569 456.19 544.299 457.15 544.929 457.26C556.869 459.33 569.129 459.56 581.079 457.46C584.479 456.86 587.839 456.08 591.139 455.1C591.759 454.92 591.489 453.95 590.869 454.14L590.879 454.15Z" fill="#CBDBE8"/>
<path d="M609.762 454.97C609.092 457.1 607.922 459.01 606.942 461C606.192 462.53 605.202 464.84 603.132 464.42C602.082 464.21 601.032 463.78 600.012 463.45C598.852 463.08 597.762 462.51 596.692 461.94C595.882 461.51 594.872 460.95 594.482 460.07C594.002 459 595.052 457.92 595.602 457.09C597.132 454.77 598.622 452.42 600.172 450.12L599.492 450.3C602.912 452.22 606.422 453.97 610.002 455.54C610.582 455.8 611.092 454.94 610.502 454.68C606.912 453.1 603.412 451.35 599.992 449.44C599.742 449.3 599.462 449.39 599.312 449.62C597.722 451.99 596.202 454.41 594.622 456.78C593.992 457.72 593.162 458.71 593.402 459.93C593.602 460.96 594.432 461.7 595.262 462.26C597.382 463.69 599.882 464.51 602.312 465.24C603.352 465.55 604.442 465.64 605.372 464.98C606.162 464.42 606.722 463.58 607.182 462.75C607.802 461.65 608.322 460.5 608.912 459.39C609.622 458.05 610.292 456.69 610.752 455.24C610.942 454.62 609.982 454.36 609.792 454.97H609.762Z" fill="#CBDBE8"/>
<path d="M598.261 452.31C601.291 454.99 605.211 456.78 609.101 457.79C609.721 457.95 609.991 456.99 609.371 456.83C605.651 455.85 601.871 454.17 598.971 451.6C598.491 451.17 597.781 451.88 598.261 452.31Z" fill="#CBDBE8"/>
<path d="M564.532 424.99C564.592 424.27 564.932 423.62 565.402 423.07C568.062 419.94 569.542 415.78 569.182 411.27C568.532 403.28 561.892 396.87 553.892 396.47C553.612 396.46 553.352 396.47 553.072 396.47C552.792 396.47 552.532 396.45 552.262 396.47C544.272 396.87 537.632 403.29 536.982 411.27C536.612 415.78 538.102 419.94 540.762 423.07C541.222 423.62 541.572 424.27 541.632 424.99C541.722 426.07 541.232 427.41 538.362 427.57C538.162 427.58 537.962 427.59 537.742 427.59H501.102V464.26C501.102 467.45 502.372 468.14 503.482 468.14C503.552 468.14 503.632 468.14 503.702 468.14C504.422 468.08 505.072 467.74 505.622 467.27C508.362 464.94 511.892 463.52 515.752 463.44C516.302 463.43 516.862 463.44 517.422 463.49C525.412 464.14 531.822 470.78 532.222 478.78C532.232 479.06 532.222 479.32 532.222 479.6C532.222 479.88 532.242 480.14 532.222 480.42C531.832 488.42 525.412 495.07 517.422 495.71C516.862 495.76 516.302 495.77 515.752 495.76C511.892 495.68 508.362 494.26 505.622 491.93C505.072 491.47 504.422 491.12 503.702 491.06C503.632 491.06 503.552 491.06 503.482 491.06C502.372 491.06 501.102 491.75 501.102 494.94V522.37C545.222 506.72 580.212 471.75 595.872 427.61H568.412C565.012 427.61 564.452 426.17 564.542 425.01L564.532 424.99Z" fill="#B61936" stroke="#DB546A" stroke-miterlimit="10"/>
<path d="M623.389 435.72C620.879 435.41 619.929 440.63 618.659 444.02C618.549 444.3 618.719 444.61 619.009 444.68C622.309 445.45 625.459 446.25 628.669 445.11C629.529 447.34 632.209 449.98 634.299 451.42C634.509 451.57 634.799 451.51 634.959 451.31C637.939 447.58 641.999 444.76 639.029 443.1C633.889 445.01 628.499 444.68 624.679 440.75C623.589 439.63 623.079 437.24 623.389 435.72Z" fill="#CBDBE8"/>
<path d="M543.1 475.5C540.83 474.96 538.61 473.88 536.79 472.44C536.36 472.1 535.91 471.62 536.05 471.09C536.23 470.42 537.15 470.36 537.83 470.45C539.51 470.68 541.19 470.97 542.85 471.33C542.86 471.33 542.88 471.33 542.89 471.34L543.8 471.55C542.73 471.27 543.93 471.55 542.85 471.33C540.69 470.82 538.61 469.85 536.73 468.67C536.03 468.23 535.26 467.54 535.43 466.73C535.55 466.16 536.12 465.77 536.7 465.68C537.28 465.59 537.86 465.74 538.43 465.89C539.75 466.24 541.07 466.58 542.39 466.93C542.39 466.93 542.41 466.93 542.42 466.94L543.96 467.34C542.59 466.98 543.76 467.29 542.39 466.93C541.21 466.5 540.04 465.8 538.93 465.21C538.46 464.96 537.96 464.65 537.83 464.13C537.66 463.46 538.25 462.8 538.92 462.63C539.59 462.46 540.28 462.65 540.94 462.84C544.18 463.76 547.3 464.74 550.41 464.42C550.73 464.39 550.98 464.1 550.96 463.78C550.85 462.05 549.96 460.39 549.02 457.84C548.88 457.46 548.77 457.15 548.89 456.76C549.04 456.3 549.47 455.81 549.95 455.85C550.43 455.89 550.94 455.88 551.32 456.18C554.1 458.39 553.26 461.6 560.73 466.23C560.32 470.4 560.61 475.11 561.52 479.36C559.63 479.15 557.98 479.07 556.59 478.89C553.57 478.48 550.46 479.43 547.41 479.32C544.09 479.2 540.81 478.34 537.86 476.8C537.41 476.57 536.9 476.21 536.92 475.7C536.95 474.97 537.94 474.77 538.67 474.83C540.15 474.94 541.62 475.16 543.06 475.48C543.24 475.52 543.42 475.57 543.59 475.6" fill="#F4A373"/>
<mask id="mask1_191_287" style="mask-type:luminance" maskUnits="userSpaceOnUse" x="535" y="455" width="27" height="25">
<path d="M543.1 475.5C540.83 474.96 538.61 473.88 536.79 472.44C536.36 472.1 535.91 471.62 536.05 471.09C536.23 470.42 537.15 470.36 537.83 470.45C539.51 470.68 541.19 470.97 542.85 471.33C542.86 471.33 542.88 471.33 542.89 471.34L543.8 471.55C542.73 471.27 543.93 471.55 542.85 471.33C540.69 470.82 538.61 469.85 536.73 468.67C536.03 468.23 535.26 467.54 535.43 466.73C535.55 466.16 536.12 465.77 536.7 465.68C537.28 465.59 537.86 465.74 538.43 465.89C539.75 466.24 541.07 466.58 542.39 466.93C542.39 466.93 542.41 466.93 542.42 466.94L543.96 467.34C542.59 466.98 543.76 467.29 542.39 466.93C541.21 466.5 540.04 465.8 538.93 465.21C538.46 464.96 537.96 464.65 537.83 464.13C537.66 463.46 538.25 462.8 538.92 462.63C539.59 462.46 540.28 462.65 540.94 462.84C544.18 463.76 547.3 464.74 550.41 464.42C550.73 464.39 550.98 464.1 550.96 463.78C550.85 462.05 549.96 460.39 549.02 457.84C548.88 457.46 548.77 457.15 548.89 456.76C549.04 456.3 549.47 455.81 549.95 455.85C550.43 455.89 550.94 455.88 551.32 456.18C554.1 458.39 553.26 461.6 560.73 466.23C560.32 470.4 560.61 475.11 561.52 479.36C559.63 479.15 557.98 479.07 556.59 478.89C553.57 478.48 550.46 479.43 547.41 479.32C544.09 479.2 540.81 478.34 537.86 476.8C537.41 476.57 536.9 476.21 536.92 475.7C536.95 474.97 537.94 474.77 538.67 474.83C540.15 474.94 541.62 475.16 543.06 475.48C543.24 475.52 543.42 475.57 543.59 475.6" fill="white"/>
</mask>
<g mask="url(#mask1_191_287)">
<path d="M543.449 475.85C544.859 476.24 546.299 476.5 547.759 476.64C548.079 476.67 548.079 476.17 547.759 476.14C546.349 476 544.949 475.74 543.589 475.37C543.279 475.28 543.149 475.77 543.459 475.85H543.449Z" fill="#8E5C49"/>
<path d="M543.631 471.871C544.881 472.231 546.181 472.441 547.481 472.501C547.801 472.511 547.801 472.011 547.481 472.001C546.221 471.941 544.981 471.741 543.761 471.391C543.451 471.301 543.321 471.781 543.631 471.871Z" fill="#8E5C49"/>
<path d="M547.821 468.091C546.261 467.821 544.722 467.431 543.222 466.911C542.912 466.811 542.782 467.291 543.092 467.391C544.592 467.901 546.131 468.301 547.691 468.571C548.001 468.621 548.141 468.141 547.821 468.091Z" fill="#8E5C49"/>
<path d="M549.074 477.24C550.154 474.11 550.364 470.74 549.704 467.49C549.644 467.17 549.154 467.31 549.224 467.62C549.874 470.78 549.644 474.06 548.594 477.11C548.484 477.41 548.974 477.55 549.074 477.24Z" fill="#8E5C49"/>
</g>
<path d="M629.587 466.031C620.397 468.441 614.927 472.081 605.217 471.811C592.087 471.431 575.117 467.041 561.267 462.601C557.717 468.791 556.157 475.071 556.747 482.181C572.077 487.461 589.497 493.411 605.707 493.851C629.837 494.511 638.587 492.531 649.507 475.791L629.577 466.021L629.587 466.031Z" fill="#ABB8C1"/>
<path d="M645.277 486.231C634.817 491.251 623.227 493.421 611.667 493.491C599.677 493.561 587.747 491.511 576.237 488.251C569.727 486.411 563.337 484.171 557.077 481.631L557.447 482.111C556.837 475.361 558.607 468.911 562.007 463.091L561.447 463.321C573.687 467.381 586.187 471.481 599.147 472.241C605.387 472.601 611.707 472.181 617.757 470.581C623.847 468.981 629.357 465.971 634.967 463.211C637.867 461.791 640.827 460.331 643.887 459.281C646.747 458.301 649.637 458.081 652.627 458.461C653.267 458.541 653.257 457.541 652.627 457.461C650.027 457.131 647.427 457.221 644.887 457.921C642.327 458.631 639.897 459.821 637.487 460.911C631.737 463.521 626.277 466.821 620.247 468.801C608.097 472.791 595.007 471.591 582.777 468.651C575.647 466.931 568.667 464.661 561.707 462.351C561.497 462.281 561.247 462.401 561.147 462.581C557.667 468.541 555.827 475.181 556.447 482.101C556.467 482.351 556.587 482.491 556.817 482.581C568.137 487.171 579.907 490.801 591.977 492.811C603.597 494.741 615.557 495.181 627.187 493.061C633.627 491.891 639.897 489.901 645.797 487.071C646.377 486.791 645.867 485.931 645.297 486.211L645.277 486.231Z" fill="#CBDBE8"/>
<path d="M224.69 369.87C267.597 369.87 302.38 335.087 302.38 292.18C302.38 249.273 267.597 214.49 224.69 214.49C181.783 214.49 147 249.273 147 292.18C147 335.087 181.783 369.87 224.69 369.87Z" fill="#E8EEF9"/>
<path d="M211.967 292.33C214.897 287.87 216.627 283 218.257 277.92C219.257 274.81 219.977 271.35 218.697 268.34C217.097 264.57 212.187 262.62 208.437 264.26L201.377 268.39C201.377 268.39 200.797 277.96 208.697 285.86L211.527 294.63L211.967 292.33Z" fill="#92684B"/>
<path d="M226.948 298.71C226.448 302.93 225.918 307.43 225.418 311.66C229.078 312.2 232.478 313.19 234.918 315.98C237.358 318.76 238.388 322.93 236.888 326.31C235.628 329.16 232.788 331.09 229.788 331.94C226.788 332.8 223.608 332.72 220.498 332.51C214.338 332.09 208.108 331.16 202.518 328.55C200.428 327.58 198.408 326.35 196.908 324.6C195.408 322.85 194.468 320.52 194.778 318.24C195.148 315.46 197.298 313.17 199.798 311.88C202.288 310.59 205.498 309.86 208.268 309.42C210.028 301.36 211.428 292.32 212.238 284.11C209.908 283.23 208.048 280.96 207.878 278.47C207.708 275.98 209.248 273.42 211.588 272.56C213.928 271.7 216.858 272.72 218.028 274.92L220.898 253.02L244.448 251.3C250.098 258.38 250.758 269.25 247.208 277.71C246.898 278.46 246.908 279.3 247.188 280.06L248.598 284.19C248.708 284.52 248.538 284.87 248.218 284.98L245.798 285.83C245.538 285.95 245.358 286.18 245.298 286.46C244.388 290.99 242.718 295.25 240.478 299.31C239.718 300.68 238.768 302.11 237.278 302.6C235.798 303.09 234.168 302.75 232.758 302.09C227.588 299.69 222.928 295.99 219.118 291.76" fill="#F4A373"/>
<mask id="mask2_191_287" style="mask-type:luminance" maskUnits="userSpaceOnUse" x="147" y="214" width="156" height="156">
<path d="M224.69 369.87C267.597 369.87 302.38 335.087 302.38 292.18C302.38 249.273 267.597 214.49 224.69 214.49C181.783 214.49 147 249.273 147 292.18C147 335.087 181.783 369.87 224.69 369.87Z" fill="white"/>
</mask>
<g mask="url(#mask2_191_287)">
<path d="M246.704 348.97C262.214 364.31 264.384 370.13 274.204 380.86C279.454 381.67 285.004 380.31 289.284 377.16C277.734 351.29 267.684 335.72 253.274 321.62C251.484 319.87 245.944 315.95 243.594 315.07C238.404 313.11 231.714 311.66 225.424 311.66C233.154 312.61 230.524 314.77 230.524 314.77C230.524 314.77 226.964 318.47 213.204 316.94C199.444 315.42 205.154 311.11 205.154 311.11C205.944 310.3 207.214 309.81 208.274 309.41C200.804 310.41 196.024 310.99 189.934 313.43C184.324 315.68 181.144 317.86 178.024 323.04C172.224 332.65 173.194 347.74 173.194 358.56L239.224 392.81L261.314 375.22L249.404 364.93C248.444 359.37 246.574 343.37 246.064 337.75" fill="#CBDBE8"/>
<mask id="mask3_191_287" style="mask-type:luminance" maskUnits="userSpaceOnUse" x="173" y="309" width="117" height="84">
<path d="M246.704 348.97C262.214 364.31 264.384 370.13 274.204 380.86C279.454 381.67 285.004 380.31 289.284 377.16C277.734 351.29 267.684 335.72 253.274 321.62C251.484 319.87 245.944 315.95 243.594 315.07C238.404 313.11 231.714 311.66 225.424 311.66C233.154 312.61 230.524 314.77 230.524 314.77C230.524 314.77 226.964 318.47 213.204 316.94C199.444 315.42 205.154 311.11 205.154 311.11C205.944 310.3 207.214 309.81 208.274 309.41C200.804 310.41 196.024 310.99 189.934 313.43C184.324 315.68 181.144 317.86 178.024 323.04C172.224 332.65 173.194 347.74 173.194 358.56L239.224 392.81L261.314 375.22L249.404 364.93C248.444 359.37 246.574 343.37 246.064 337.75" fill="white"/>
</mask>
<g mask="url(#mask3_191_287)">
<path d="M228.877 309.78C222.267 309 215.627 308.21 208.957 308.4C206.337 308.47 203.197 308.48 201.267 310.56C199.597 312.36 199.747 314.85 201.557 316.48C203.507 318.23 206.367 319.01 208.847 319.63C211.757 320.36 214.757 320.71 217.757 320.79C220.657 320.87 223.677 320.8 226.527 320.22C229.077 319.7 231.607 318.43 232.767 315.97C233.967 313.43 233.027 310.74 230.707 309.24C227.917 307.44 224.477 308.03 221.407 308.62C220.777 308.74 221.047 309.71 221.677 309.58C224.237 309.09 227.127 308.52 229.577 309.74C231.627 310.77 232.897 312.87 232.037 315.15C231.177 317.43 228.787 318.7 226.467 319.2C223.937 319.75 221.247 319.81 218.677 319.79C215.957 319.77 213.227 319.53 210.557 318.98C208.117 318.48 205.477 317.8 203.317 316.52C202.437 316 201.547 315.27 201.207 314.27C200.837 313.19 201.227 312.07 201.977 311.25C203.777 309.3 206.887 309.43 209.327 309.37C215.867 309.23 222.387 310 228.877 310.76C229.517 310.84 229.507 309.83 228.877 309.76V309.78Z" fill="#9CA8AF"/>
</g>
</g>
<path opacity="0.46" d="M226.428 303.08L226.948 298.71C226.948 298.71 223.488 296.56 219.148 291.78L226.428 303.08Z" fill="#7F4924"/>
<path d="M243.735 270.41C243.935 270.76 243.625 271.38 243.375 271.79C243.045 272.31 242.265 272.17 241.675 272.01C239.675 271.47 237.535 271.41 235.505 271.84C235.285 271.88 235.165 271.61 235.345 271.48C237.625 269.81 240.725 269.29 243.415 270.16L243.745 270.4L243.735 270.41Z" fill="#724B3B"/>
<path d="M214.421 274.04C212.711 273.37 210.711 274.42 209.851 275.93C208.971 277.47 209.271 279.45 210.481 280.73C210.701 280.96 211.061 280.61 210.831 280.38C209.771 279.27 209.511 277.53 210.271 276.19C211.031 274.85 212.771 273.94 214.271 274.53C214.571 274.65 214.701 274.16 214.401 274.05L214.421 274.04Z" fill="#2E3234"/>
<path d="M243.598 278.75C241.888 279.49 239.918 279.61 238.128 279.09C236.338 278.57 234.737 277.41 233.688 275.87C235.347 274.8 237.708 274.42 239.588 275.02C241.468 275.62 242.858 276.92 243.598 278.75Z" fill="white"/>
<path d="M243.532 278.51C240.072 279.95 236.062 278.83 233.912 275.75L233.822 276.09C235.462 275.07 237.592 274.68 239.462 275.25C241.332 275.82 242.652 277.1 243.362 278.82C243.482 279.11 243.972 278.98 243.842 278.69C243.072 276.84 241.642 275.44 239.732 274.81C237.712 274.15 235.352 274.54 233.572 275.66C233.462 275.73 233.402 275.89 233.482 276C235.752 279.25 239.992 280.53 243.672 278.99C243.962 278.87 243.832 278.38 243.542 278.51H243.532Z" fill="#2E3234"/>
<path d="M243.6 278.75C243 277.25 241.94 276.11 240.55 275.42L240.43 275.46C239.68 275.68 239.06 276.32 238.86 277.09C238.66 277.85 238.89 278.71 239.44 279.27L239.47 279.35C240.87 279.51 242.31 279.3 243.6 278.75Z" fill="#2E3234"/>
<path d="M243.842 278.68C243.302 277.37 242.422 276.25 241.202 275.49C240.962 275.34 240.672 275.11 240.382 275.2C240.072 275.31 239.792 275.43 239.532 275.63C238.992 276.05 238.622 276.67 238.542 277.35C238.492 277.75 238.542 278.17 238.692 278.54C238.762 278.72 238.842 278.89 238.942 279.04C239.002 279.13 239.062 279.21 239.132 279.29C239.152 279.32 239.182 279.34 239.202 279.37C239.162 279.32 239.202 279.35 239.222 279.39C239.272 279.5 239.342 279.56 239.462 279.57C240.912 279.73 242.372 279.5 243.722 278.93C244.022 278.81 243.762 278.37 243.472 278.5C242.212 279.03 240.822 279.21 239.462 279.07L239.702 279.25C239.642 279.1 239.542 279 239.442 278.87C239.322 278.71 239.222 278.52 239.152 278.33C239.012 277.93 238.982 277.5 239.102 277.09C239.312 276.33 239.902 275.88 240.612 275.63L240.422 275.6C241.762 276.28 242.792 277.39 243.362 278.78C243.482 279.07 243.962 278.95 243.842 278.65V278.68Z" fill="#2E3234"/>
<path d="M235.119 289.66C236.209 291.91 238.869 292.98 241.219 292.13C241.519 292.02 241.389 291.54 241.089 291.65C238.929 292.43 236.559 291.46 235.559 289.41C235.419 289.12 234.989 289.37 235.129 289.66H235.119Z" fill="#2E3234"/>
<path d="M257.871 251.07C257.851 250.98 257.711 250.98 257.701 251.07C257.591 251.73 257.181 252.49 256.471 252.66C255.581 252.88 254.631 252.47 253.951 251.86C253.271 251.25 252.791 250.44 252.281 249.68C248.891 244.6 243.491 240.89 237.531 239.57C234.751 238.95 231.861 238.86 229.041 239.25C227.001 239.54 224.991 240.08 223.081 240.87C222.131 241.26 221.191 241.71 220.311 242.24C219.981 242.44 219.721 242.7 219.421 242.94C217.971 244.13 216.791 245.46 215.751 247.02C209.221 247.87 204.261 251.06 201.451 257.02C199.291 261.61 199.431 266.23 200.321 271.03C201.051 274.96 202.541 278.74 204.931 281.95C205.971 283.34 207.221 284.73 208.691 285.84C208.691 285.84 199.121 268.13 216.231 270.93C216.231 270.93 217.871 273.22 218.081 275.27C218.081 275.27 218.211 275.45 218.331 275.23C218.741 274.49 219.081 272.95 220.671 268.99C222.571 264.28 226.751 260.76 231.771 260C232.701 259.86 233.701 259.8 234.741 259.88C237.201 260.06 239.461 261.25 241.271 262.94C242.721 264.29 244.321 265.5 245.991 266.5C247.151 267.19 248.431 267.69 249.761 267.92C249.761 267.92 263.071 269.01 257.871 251.05V251.07Z" fill="#92684B"/>
<path d="M219.467 251.44C224.667 244.94 234.577 246.08 240.857 250.21C244.407 252.55 247.137 255.78 249.477 259.28C250.487 260.79 251.597 262.39 253.187 263.35C254.777 264.31 256.587 264.29 258.037 263.25C261.897 260.49 260.507 254.48 258.447 251.05C258.117 250.5 257.247 251 257.587 251.55C259.357 254.5 260.957 260.31 257.267 262.56C253.577 264.81 250.707 259.15 248.997 256.81C244.417 250.54 237.567 245.63 229.517 245.83C225.427 245.93 221.367 247.47 218.767 250.72C218.367 251.22 219.077 251.93 219.477 251.43L219.467 251.44Z" fill="#724B3B"/>
<path d="M218.861 250.65C214.211 253.09 210.371 256.99 207.891 261.6C205.341 266.33 204.091 272.06 204.981 277.39C205.501 280.48 206.841 283.32 208.771 285.78C209.171 286.29 209.871 285.57 209.481 285.07C202.791 276.54 205.751 264.05 212.691 256.62C214.621 254.56 216.871 252.83 219.371 251.51C219.941 251.21 219.441 250.35 218.871 250.65H218.861Z" fill="#724B3B"/>
<path d="M219.599 250.951C219.169 248.021 216.209 246.191 213.489 245.761C210.109 245.221 206.879 246.861 204.479 249.151C200.469 253.001 198.509 258.621 198.639 264.121C198.739 268.381 200.029 272.501 201.919 276.291C202.209 276.871 203.069 276.361 202.779 275.791C199.939 270.111 198.609 263.531 200.589 257.351C201.289 255.161 202.389 253.071 203.849 251.301C205.769 248.971 208.469 246.901 211.569 246.671C214.449 246.461 218.159 248.051 218.629 251.221C218.719 251.851 219.689 251.581 219.589 250.951H219.599Z" fill="#724B3B"/>
<path d="M219.546 251.33C223.186 244.2 231.376 239.27 239.386 241.78C243.166 242.96 246.496 245.54 248.786 248.75C249.956 250.39 250.816 252.18 251.436 254.1C252.036 255.97 252.716 258.07 254.606 259.01C255.466 259.43 256.486 259.62 257.406 259.28C258.326 258.94 258.886 258.14 259.226 257.26C259.566 256.38 259.616 255.48 259.546 254.54C259.466 253.48 259.326 252.43 258.716 251.53C258.356 251 257.496 251.5 257.856 252.03C258.406 252.85 258.486 253.77 258.556 254.72C258.626 255.58 258.546 256.4 258.166 257.19C257.176 259.29 254.676 258.41 253.636 256.83C252.526 255.13 252.216 252.99 251.356 251.17C250.556 249.47 249.486 247.9 248.246 246.5C245.736 243.67 242.386 241.48 238.696 240.56C234.996 239.65 231.146 240.18 227.746 241.83C223.856 243.73 220.646 246.99 218.676 250.83C218.386 251.4 219.246 251.91 219.536 251.33H219.546Z" fill="#724B3B"/>
<path d="M219.37 251.51C222.78 249.64 226.52 251.32 229.55 253.16C231.18 254.15 232.8 255.21 234.25 256.45C235.59 257.6 236.8 258.9 237.98 260.22C240.32 262.83 242.6 265.47 245.69 267.22C248.24 268.67 251.76 270.12 254.66 268.92C257.49 267.76 259.84 264.64 259.41 261.49C259.32 260.86 258.36 261.13 258.45 261.76C258.83 264.53 256.34 267.41 253.8 268.17C252.37 268.6 250.81 268.24 249.43 267.79C247.79 267.26 246.24 266.46 244.82 265.5C241.99 263.58 239.89 260.77 237.58 258.29C235.17 255.7 232.37 253.59 229.3 251.84C226.11 250.02 222.33 248.74 218.87 250.64C218.31 250.95 218.81 251.81 219.37 251.5V251.51Z" fill="#724B3B"/>
<path d="M219.028 250.451C217.808 251.661 217.498 253.331 217.258 254.961C216.998 256.731 216.618 258.451 215.948 260.121C214.598 263.471 212.288 266.431 209.368 268.551C208.848 268.921 209.348 269.791 209.868 269.411C212.758 267.311 215.088 264.491 216.558 261.221C217.288 259.611 217.808 257.911 218.088 256.161C218.368 254.411 218.428 252.451 219.738 251.151C220.198 250.701 219.488 249.991 219.028 250.441V250.451Z" fill="#724B3B"/>
<path d="M218.106 355.43C218.026 353.58 219.156 352.09 220.456 350.89C221.956 349.51 223.706 348.38 225.376 347.22C229.006 344.71 232.726 342.34 236.536 340.11C237.086 339.78 236.586 338.92 236.036 339.25C231.956 341.64 227.976 344.19 224.106 346.9C221.256 348.9 216.936 351.41 217.106 355.43C217.136 356.07 218.136 356.07 218.106 355.43Z" fill="#9CA8AF"/>
<path d="M222.17 356.481C225.39 352.431 229.56 349.221 234.31 347.151C234.9 346.891 234.39 346.031 233.81 346.291C229 348.391 224.74 351.661 221.47 355.771C221.07 356.271 221.78 356.981 222.18 356.481H222.17Z" fill="#9CA8AF"/>
<path d="M246.782 349.01C262.292 364.35 264.462 370.17 274.282 380.9C279.532 381.71 285.082 380.35 289.362 377.2C277.812 351.33 267.762 335.76 253.352 321.66C251.562 319.91 246.022 315.99 243.672 315.11" fill="#CBDBE8"/>
<mask id="mask4_191_287" style="mask-type:luminance" maskUnits="userSpaceOnUse" x="243" y="315" width="47" height="67">
<path d="M246.782 349.01C262.292 364.35 264.462 370.17 274.282 380.9C279.532 381.71 285.082 380.35 289.362 377.2C277.812 351.33 267.762 335.76 253.352 321.66C251.562 319.91 246.022 315.99 243.672 315.11" fill="white"/>
</mask>
<g mask="url(#mask4_191_287)">
<path d="M270.28 379.07C277.19 380.34 284.47 378.42 289.85 373.91C290.08 373.72 290.03 373.25 289.75 373.12C289.52 373.02 289.3 372.92 289.07 372.82C288.49 372.56 287.98 373.43 288.57 373.68C288.8 373.78 289.02 373.88 289.25 373.98L289.15 373.19C284.06 377.46 277.08 379.3 270.55 378.09C269.92 377.97 269.65 378.94 270.28 379.05V379.07Z" fill="#F2863D"/>
</g>
<path d="M254.775 357.07C256.585 357.22 258.295 358.08 259.545 359.39C260.945 360.87 261.595 362.86 261.495 364.88C261.465 365.52 262.465 365.52 262.495 364.88C262.605 362.6 261.825 360.34 260.255 358.68C258.815 357.17 256.855 356.25 254.785 356.07C254.145 356.02 254.145 357.02 254.785 357.07H254.775Z" fill="#F2863D"/>
<path d="M238.849 323C242.589 329.52 245.069 336.72 246.139 344.15C246.449 346.28 246.619 348.42 246.699 350.57C246.719 351.21 247.719 351.21 247.699 350.57C247.449 342.93 245.729 335.37 242.679 328.37C241.799 326.36 240.809 324.4 239.719 322.5C239.399 321.94 238.539 322.45 238.859 323H238.849Z" fill="#F2863D"/>
<path d="M262.179 424.06C262.169 423.88 262.129 423.71 262.089 423.54C261.949 423.03 261.669 422.56 261.319 422.15C259.989 420.58 258.949 418.76 258.299 416.76C257.639 414.76 257.359 412.6 257.539 410.34C258.189 402.35 264.829 395.94 272.829 395.54C273.109 395.53 273.369 395.54 273.649 395.54C273.929 395.54 274.189 395.52 274.469 395.54C280.969 395.86 286.579 400.16 288.799 406.04C289.309 407.4 289.649 408.84 289.769 410.34C290.139 414.85 288.649 419.01 285.989 422.14C285.529 422.69 285.179 423.34 285.119 424.06C285.099 424.35 285.119 424.65 285.209 424.95C285.489 425.84 286.439 426.65 288.989 426.65H325.659V394.15H309.459C304.059 394.15 299.759 389.75 299.759 384.45V364.95C299.759 359.55 304.159 355.25 309.459 355.25H325.659V322.65H288.989C285.589 322.65 285.029 324.09 285.119 325.25C285.179 325.97 285.519 326.62 285.989 327.17C288.649 330.3 290.129 334.46 289.769 338.97C289.119 346.96 282.479 353.37 274.479 353.77C274.199 353.78 273.939 353.77 273.659 353.77C273.379 353.77 273.119 353.79 272.839 353.77C264.839 353.38 258.189 346.96 257.549 338.97C257.179 334.46 258.669 330.3 261.329 327.17C261.789 326.62 262.139 325.97 262.199 325.25C262.289 324.1 261.729 322.65 258.329 322.65H230.899C225.119 338.94 221.969 356.47 221.969 374.75C221.969 393.03 225.079 410.4 230.819 426.65H258.329C261.729 426.65 262.289 425.21 262.199 424.05L262.179 424.06Z" fill="#B61936" stroke="#DB546A" stroke-miterlimit="10"/>
<path d="M309.45 394.15H325.65V389.98C325.65 386.58 327.09 386.02 328.25 386.11C328.97 386.17 329.62 386.51 330.17 386.98C333.3 389.64 337.46 391.12 341.97 390.76C349.96 390.11 356.37 383.47 356.77 375.47C356.78 375.19 356.77 374.93 356.77 374.65C356.77 374.37 356.79 374.11 356.77 373.83C356.38 365.83 349.96 359.18 341.97 358.54C337.46 358.17 333.3 359.66 330.17 362.32C329.62 362.78 328.97 363.13 328.25 363.19C327.1 363.28 325.65 362.72 325.65 359.32V355.25H309.45C304.15 355.25 299.75 359.55 299.75 364.95V384.45C299.75 389.75 304.05 394.15 309.45 394.15Z" fill="white" stroke="#DB546A" stroke-miterlimit="10"/>
<path d="M259.649 405.63C261.649 406.84 263.979 407.63 266.289 407.89C266.829 407.95 267.499 407.92 267.759 407.45C268.099 406.85 267.489 406.16 266.939 405.75C265.579 404.73 264.179 403.77 262.749 402.85C262.739 402.85 262.719 402.84 262.709 402.83L261.909 402.34C262.869 402.89 261.809 402.25 262.739 402.85C264.629 404.01 266.799 404.77 268.959 405.25C269.769 405.43 270.799 405.48 271.249 404.78C271.569 404.29 271.429 403.61 271.079 403.14C270.729 402.67 270.209 402.37 269.699 402.08C268.519 401.4 267.339 400.72 266.149 400.04C266.149 400.04 266.129 400.04 266.119 400.03L264.739 399.24C265.969 399.95 264.919 399.34 266.149 400.05C267.289 400.57 268.619 400.9 269.819 401.26C270.329 401.41 270.909 401.54 271.359 401.26C271.949 400.9 271.989 400.02 271.639 399.43C271.279 398.84 270.659 398.49 270.049 398.16C267.099 396.55 264.179 395.04 262.189 392.64C261.979 392.39 262.009 392.01 262.249 391.8C263.539 390.65 265.339 390.09 267.799 388.93C268.169 388.76 268.459 388.61 268.649 388.25C268.869 387.82 268.899 387.17 268.529 386.86C268.159 386.55 267.799 386.18 267.319 386.13C263.789 385.75 262.139 388.63 253.569 386.67C250.929 389.92 247.419 393.08 243.789 395.46C245.289 396.64 246.509 397.75 247.629 398.58C250.069 400.41 251.609 403.27 253.859 405.33C256.299 407.57 259.249 409.27 262.419 410.24C262.909 410.39 263.509 410.49 263.859 410.12C264.359 409.58 263.779 408.74 263.229 408.27C262.099 407.31 260.899 406.44 259.639 405.65C259.479 405.56 259.319 405.46 259.169 405.36" fill="#F4A373"/>
<mask id="mask5_191_287" style="mask-type:luminance" maskUnits="userSpaceOnUse" x="243" y="386" width="29" height="25">
<path d="M259.649 405.63C261.649 406.84 263.979 407.63 266.289 407.89C266.829 407.95 267.499 407.92 267.759 407.45C268.099 406.85 267.489 406.16 266.939 405.75C265.579 404.73 264.179 403.77 262.749 402.85C262.739 402.85 262.719 402.84 262.709 402.83L261.909 402.34C262.869 402.89 261.809 402.25 262.739 402.85C264.629 404.01 266.799 404.77 268.959 405.25C269.769 405.43 270.799 405.48 271.249 404.78C271.569 404.29 271.429 403.61 271.079 403.14C270.729 402.67 270.209 402.37 269.699 402.08C268.519 401.4 267.339 400.72 266.149 400.04C266.149 400.04 266.129 400.04 266.119 400.03L264.739 399.24C265.969 399.95 264.919 399.34 266.149 400.05C267.289 400.57 268.619 400.9 269.819 401.26C270.329 401.41 270.909 401.54 271.359 401.26C271.949 400.9 271.989 400.02 271.639 399.43C271.279 398.84 270.659 398.49 270.049 398.16C267.099 396.55 264.179 395.04 262.189 392.64C261.979 392.39 262.009 392.01 262.249 391.8C263.539 390.65 265.339 390.09 267.799 388.93C268.169 388.76 268.459 388.61 268.649 388.25C268.869 387.82 268.899 387.17 268.529 386.86C268.159 386.55 267.799 386.18 267.319 386.13C263.789 385.75 262.139 388.63 253.569 386.67C250.929 389.92 247.419 393.08 243.789 395.46C245.289 396.64 246.509 397.75 247.629 398.58C250.069 400.41 251.609 403.27 253.859 405.33C256.299 407.57 259.249 409.27 262.419 410.24C262.909 410.39 263.509 410.49 263.859 410.12C264.359 409.58 263.779 408.74 263.229 408.27C262.099 407.31 260.899 406.44 259.639 405.65C259.479 405.56 259.319 405.46 259.169 405.36" fill="white"/>
</mask>
<g mask="url(#mask5_191_287)">
<path d="M259.401 405.2C258.161 404.51 256.981 403.71 255.881 402.82C255.631 402.62 255.281 402.97 255.531 403.17C256.661 404.09 257.871 404.92 259.151 405.63C259.431 405.79 259.681 405.36 259.401 405.2Z" fill="#8E5C49"/>
<path d="M262.073 402.24C260.963 401.64 259.933 400.91 258.993 400.06C258.753 399.84 258.403 400.2 258.643 400.41C259.613 401.28 260.673 402.04 261.823 402.66C262.103 402.81 262.363 402.38 262.073 402.23V402.24Z" fill="#8E5C49"/>
<path d="M261.25 397.47C262.55 398.38 263.92 399.18 265.35 399.87C265.64 400.01 265.89 399.58 265.6 399.44C264.17 398.75 262.8 397.95 261.5 397.04C261.24 396.86 260.99 397.29 261.25 397.47Z" fill="#8E5C49"/>
<path d="M254.622 402.92C256.012 400.01 258.162 397.51 260.842 395.72C261.112 395.54 260.862 395.11 260.592 395.29C257.842 397.13 255.612 399.68 254.192 402.67C254.052 402.96 254.482 403.21 254.622 402.92Z" fill="#8E5C49"/>
</g>
<path d="M204.741 338.15C209.591 346.32 210.931 352.76 218.031 359.37C227.641 368.32 242.811 377.11 255.781 383.68C253.961 390.58 250.661 396.15 245.241 400.79C230.621 393.78 214.351 386.72 200.751 374.7C188.311 363.71 180.121 353.58 178.381 341.06C177.091 331.83 187.691 325.67 195.211 331.17L204.731 338.15H204.741Z" fill="#CBDBE8"/>
<mask id="mask6_191_287" style="mask-type:luminance" maskUnits="userSpaceOnUse" x="178" y="329" width="78" height="72">
<path d="M204.741 338.15C209.591 346.32 210.931 352.76 218.031 359.37C227.641 368.32 242.811 377.11 255.781 383.68C253.961 390.58 250.661 396.15 245.241 400.79C230.621 393.78 214.351 386.72 200.751 374.7C188.311 363.71 180.121 353.58 178.381 341.06C177.091 331.83 187.691 325.67 195.211 331.17L204.731 338.15H204.741Z" fill="white"/>
</mask>
<g mask="url(#mask6_191_287)">
<path d="M248.167 400.07H248.357C248.427 400.07 248.487 400.06 248.547 400.03C248.607 400.01 248.667 399.98 248.707 399.93C248.757 399.88 248.787 399.83 248.807 399.77C248.837 399.71 248.857 399.65 248.847 399.58L248.827 399.45C248.807 399.37 248.757 399.29 248.697 399.23L248.597 399.15C248.517 399.1 248.437 399.08 248.347 399.08H248.157C248.087 399.08 248.027 399.09 247.967 399.12C247.907 399.14 247.847 399.17 247.807 399.22C247.757 399.27 247.727 399.32 247.707 399.38C247.677 399.44 247.657 399.5 247.667 399.57L247.687 399.7C247.707 399.78 247.757 399.86 247.817 399.92L247.917 400C247.997 400.05 248.077 400.07 248.167 400.07Z" fill="#93847D"/>
<path d="M252.949 380.31C251.909 387.01 248.519 393.23 243.499 397.78C242.059 399.09 240.489 400.23 238.809 401.22C238.259 401.55 238.759 402.41 239.309 402.08C245.329 398.52 249.979 392.86 252.409 386.32C253.099 384.46 253.599 382.53 253.899 380.57C253.999 379.94 253.029 379.67 252.939 380.3L252.949 380.31Z" fill="#9CA8AF"/>
</g>
<path d="M193.737 316.661C195.737 318.191 197.447 320.011 198.697 322.201C199.977 324.451 200.857 326.931 201.777 329.351C204.177 335.641 205.847 342.23 209.087 348.18C214.997 359.03 224.777 367.111 235.187 373.451C241.627 377.371 248.387 380.751 255.147 384.09C255.727 384.37 256.227 383.511 255.647 383.231C243.897 377.431 231.877 371.49 222.067 362.65C217.577 358.61 213.577 353.991 210.547 348.751C207.167 342.901 205.427 336.371 203.107 330.071C202.097 327.341 201.117 324.531 199.707 321.971C198.357 319.511 196.467 317.511 194.237 315.801C193.727 315.411 193.227 316.281 193.737 316.661Z" fill="#9CA8AF"/>
<path d="M216.906 358.21C215.036 359.59 213.166 360.98 211.296 362.36C211.076 362.52 210.966 362.79 211.116 363.04C211.236 363.25 211.586 363.38 211.796 363.22C213.666 361.84 215.536 360.45 217.406 359.07C217.626 358.91 217.736 358.64 217.586 358.39C217.466 358.18 217.116 358.05 216.906 358.21Z" fill="#9CA8AF"/>
<path d="M217.421 359.4C216.921 360.99 216.421 362.58 215.931 364.18C215.741 364.8 216.701 365.06 216.891 364.45C217.391 362.86 217.891 361.27 218.381 359.67C218.571 359.05 217.611 358.79 217.421 359.4Z" fill="#9CA8AF"/>
<path d="M254.908 383.511C253.248 390.041 249.978 395.881 244.798 400.261C244.308 400.681 245.018 401.381 245.508 400.971C250.808 396.491 254.168 390.461 255.868 383.781C256.028 383.161 255.058 382.891 254.908 383.511Z" fill="#9CA8AF"/>
<path d="M245.285 400.13C233.975 395.44 222.965 389.89 212.775 383.09C202.795 376.44 193.465 368.48 186.315 358.79C182.445 353.55 179.255 347.81 177.055 341.67C176.835 341.07 175.875 341.33 176.095 341.94C180.105 353.1 187.255 362.82 195.805 370.94C204.795 379.49 215.265 386.41 226.185 392.24C232.315 395.51 238.615 398.44 245.025 401.1C245.615 401.35 245.875 400.38 245.295 400.14L245.285 400.13Z" fill="#9CA8AF"/>
<path d="M195.817 370.18C199.677 369.18 203.987 370.05 207.087 372.6C210.127 375.09 211.857 378.97 211.747 382.89C211.727 383.53 212.727 383.53 212.747 382.89C212.937 376.09 207.967 370 201.227 368.95C199.337 368.65 197.417 368.74 195.557 369.22C194.937 369.38 195.197 370.35 195.827 370.18H195.817Z" fill="#9CA8AF"/>
<path d="M315.168 512.61L312.488 502.13L309.808 512.61L299.328 515.29L309.808 517.98L312.488 528.46L315.168 517.98L325.648 515.29L315.168 512.61Z" fill="#F8BEBF"/>
<path d="M545.127 185.96L541.527 171.9L537.927 185.96L523.867 189.55L537.927 193.15L541.527 207.21L545.127 193.15L559.187 189.55L545.127 185.96Z" fill="#F8BEBF"/>
<path d="M194.636 452.26L190.156 435.54L185.676 452.26L168.156 456.54L185.676 460.82L190.156 477.54L194.636 460.82L212.156 456.54L194.636 452.26Z" fill="white"/>
<path d="M720.071 397.65L717.101 386.05L714.131 397.65L702.531 400.62L714.131 403.59L717.101 415.19L720.071 403.59L731.671 400.62L720.071 397.65Z" fill="#FEFEFE"/>
<path d="M357.399 157.94L354.429 146.34L351.459 157.94L339.859 160.91L351.459 163.88L354.429 175.48L357.399 163.88L368.999 160.91L357.399 157.94Z" fill="#FEFEFE"/>
<path opacity="0.5" d="M470.381 149.19L480.331 146.34L470.381 143.5L473.571 137.76L467.831 140.95L464.981 131L462.141 140.95L456.401 137.76L459.591 143.5L449.641 146.34L459.591 149.19L456.401 154.93L462.141 151.74L464.981 161.69L467.831 151.74L473.571 154.93L470.381 149.19Z" fill="white"/>
</g>
<defs>
<filter id="filter0_f_191_287" x="0" y="0" width="878" height="710" filterUnits="userSpaceOnUse" color-interpolation-filters="sRGB">
<feFlood flood-opacity="0" result="BackgroundImageFix"/>
<feBlend mode="normal" in="SourceGraphic" in2="BackgroundImageFix" result="shape"/>
<feGaussianBlur stdDeviation="50" result="effect1_foregroundBlur_191_287"/>
</filter>
<linearGradient id="paint0_linear_191_287" x1="504.503" y1="249.304" x2="648.363" y2="351.578" gradientUnits="userSpaceOnUse">
<stop stop-color="white"/>
<stop offset="0.28" stop-color="#FEFEFE" stop-opacity="0.99"/>
<stop offset="0.42" stop-color="#FEFCFC" stop-opacity="0.96"/>
<stop offset="0.52" stop-color="#FEF9F9" stop-opacity="0.91"/>
<stop offset="0.61" stop-color="#FEF5F5" stop-opacity="0.84"/>
<stop offset="0.69" stop-color="#FDEFEF" stop-opacity="0.74"/>
<stop offset="0.77" stop-color="#FDE8E8" stop-opacity="0.62"/>
<stop offset="0.84" stop-color="#FCDFDF" stop-opacity="0.48"/>
<stop offset="0.9" stop-color="#FCD5D5" stop-opacity="0.32"/>
<stop offset="0.96" stop-color="#FBCACA" stop-opacity="0.14"/>
<stop offset="1" stop-color="#FBC2C2" stop-opacity="0"/>
</linearGradient>
<clipPath id="clip0_191_287">
<rect width="878" height="710" fill="white"/>
</clipPath>
</defs>
</svg>
