<?xml version="1.0" encoding="utf-8"?>
<!-- Generator: Adobe Illustrator 24.3.0, SVG Export Plug-In . SVG Version: 6.00 Build 0)  -->
<svg version="1.1" id="Layer_1" xmlns="http://www.w3.org/2000/svg" xmlns:xlink="http://www.w3.org/1999/xlink" x="0px" y="0px"
	 viewBox="0 0 512 512" style="enable-background:new 0 0 512 512;" xml:space="preserve">
<style type="text/css">
	.st0{fill-rule:evenodd;clip-rule:evenodd;fill:#CBDBE8;}
	.st1{fill-rule:evenodd;clip-rule:evenodd;fill:#DFEBF2;}
	.st2{fill:#99A4AA;stroke:#000000;stroke-width:5;stroke-linecap:round;stroke-linejoin:round;stroke-miterlimit:10;}
	.st3{fill:#DFEBF2;stroke:#000000;stroke-width:5;stroke-linecap:round;stroke-linejoin:round;stroke-miterlimit:10;}
	.st4{fill-rule:evenodd;clip-rule:evenodd;fill:#DFEBF2;stroke:#000000;stroke-width:5;stroke-miterlimit:10;}
	
		.st5{fill-rule:evenodd;clip-rule:evenodd;fill:#99A4AA;stroke:#000000;stroke-width:5;stroke-linecap:round;stroke-linejoin:round;stroke-miterlimit:10;}
</style>
<circle class="st0" cx="256" cy="256" r="250"/>
<g id="_9-wechat">
	<path class="st3" d="M210,121.8c-66.1,0-119.8,44.7-119.8,99.8c0.8,30.9,16.8,59.5,42.7,76.4l-4.3,31.6c-0.2,1.4,0.8,2.7,2.2,2.9
		c0.5,0.1,1,0,1.4-0.2l38.1-16.5c14.2,5.5,29.6,7.4,44.8,5.6c-2.3-7.4-3.5-15-3.5-22.7c0-51,49.5-92.6,110.1-92.6c2.2,0,4.4,0,6.5,0
		C319.6,158.8,269.9,121.8,210,121.8z M167.4,206.1c-8.6,0-15.5-7-15.5-15.5s7-15.5,15.5-15.5c8.6,0,15.5,7,15.5,15.5l0,0
		C183,199.1,176,206,167.4,206.1L167.4,206.1z M249.3,206.1c-8.6,0-15.5-7-15.5-15.5c0-8.6,7-15.5,15.5-15.5c8.6,0,15.5,7,15.5,15.5
		c-0.1,8.4-6.8,15.3-15.3,15.5L249.3,206.1z"/>
	<path class="st3" d="M421.8,298.7c0-45.3-44.8-82.2-100-82.2s-100,36.8-100,82.2s44.8,82.2,100,82.2c12.2,0,24.4-1.9,36-5.6
		l26.5,14.6c1.3,0.7,2.8,0.2,3.5-1c0.2-0.5,0.4-1,0.3-1.5l-2.6-25.4C407.4,348.2,421,324.5,421.8,298.7z M288.4,282.4
		c-6.4,0-11.7-5.2-11.7-11.7s5.2-11.7,11.7-11.7c6.4,0,11.7,5.2,11.7,11.7l0,0C300.1,277.2,294.8,282.4,288.4,282.4z M355.8,282.4
		c-6.4,0-11.7-5.2-11.7-11.7s5.2-11.7,11.7-11.7s11.7,5.2,11.7,11.7l0,0c0,6.4-5.1,11.6-11.5,11.7H355.8z"/>
</g>
</svg>
