<?xml version="1.0" encoding="UTF-8" standalone="no"?>
<svg
   viewBox="0 0 1000 1000"
   version="1.1"
   id="svg1135"
   sodipodi:docname="youku.svg"
   inkscape:version="1.2.2 (b0a8486541, 2022-12-01)"
   xmlns:inkscape="http://www.inkscape.org/namespaces/inkscape"
   xmlns:sodipodi="http://sodipodi.sourceforge.net/DTD/sodipodi-0.dtd"
   xmlns="http://www.w3.org/2000/svg"
   xmlns:svg="http://www.w3.org/2000/svg">
  <defs
     id="defs1139" />
  <sodipodi:namedview
     id="namedview1137"
     pagecolor="#ffffff"
     bordercolor="#666666"
     borderopacity="1.0"
     inkscape:showpageshadow="2"
     inkscape:pageopacity="0.0"
     inkscape:pagecheckerboard="0"
     inkscape:deskcolor="#d1d1d1"
     showgrid="false"
     inkscape:zoom="0.779"
     inkscape:cx="500"
     inkscape:cy="499.35815"
     inkscape:window-width="1920"
     inkscape:window-height="959"
     inkscape:window-x="0"
     inkscape:window-y="48"
     inkscape:window-maximized="1"
     inkscape:current-layer="svg1135" />
  <path
     d="M501 12q133 0 247 67 110 64 174 175 67 114 67 246 0 132-67 246-65 110-175 175-114 67-246.5 67-132.5 0-246.5-67-111-65-176-175-67-114-66.5-246 0.5-132 67.5-246 65-111 176-175 114-67 246-67z m337 488q0-91-47-171-45-76-122-121-79-47-171-47-92 0-171 47-76 45-121 122-47 80-47 171.5 0 91.5 47 170.5 45 77 122 122 79 46 171.5 46 92.5 0 171.5-47 77-45 122-122 46-79 45-171z m-107-2l0 0 0 0q0-8-7-13l-60-40q-70-46-119-73.5-49-27.5-111-55.5l-52-23q-8-4-14.5 0-6.5 4-8.5 13l-4 50q-4 66-4 142l0 0 0 0 0 0 0 0q0 76 4 142l4 51q2 9 8.5 13 6.5 4 14.5 0l25-10q30-13 61-28 42-21 77-41 49-28 119-73l60-40q7-4 7-14l0 0 0 0z"
     id="path1133"
     style="fill:#8c939a;fill-opacity:1" />
</svg>
