<?xml version="1.0" encoding="UTF-8"?>
<svg id="Layer_2" data-name="Layer 2" xmlns="http://www.w3.org/2000/svg" viewBox="0 0 764.3 487">
  <defs>
    <style>
      .cls-1 {
        fill: #787878;
      }

      .cls-1, .cls-2 {
        stroke-width: 0px;
      }

      .cls-2 {
        fill: #272727;
      }
    </style>
  </defs>
  <g id="_图层_1" data-name="图层 1">
    <g>
      <path class="cls-1" d="M577.72,2.29c-11.22-4.62-23.96-2.12-32.53,6.44l-105.07,104.91v60.73l113.03-112.72v199.32h-192.86l-22.97-37.23-37.15,37.23h-.08l-42.99,42.99h309.32c16.3-.08,29.72-13.42,29.72-29.87V29.81c0-12.13-7.2-22.9-18.42-27.52Z"/>
      <path class="cls-2" d="M249.88,260.98l131.92-131.92v118.19h42.99V97.29c0-12.13-7.2-22.9-18.42-27.52-11.22-4.62-23.96-2.12-32.53,6.44l-227.68,227.68h92.5l42.99-42.91h-31.77Z"/>
      <path class="cls-2" d="M369.77,414.26c-4.31-6.43-9.84-11.5-16.5-15.14-6.66-3.63-13.93-5.45-21.65-5.45-6.51,0-12.56,1.21-18.09,3.63-5.53,2.42-10.52,6.13-14.83,10.9-4.09,4.39-7.27,9.39-9.39,14.76-2.12,5.37-3.18,11.28-3.18,17.41s1.21,11.88,3.48,17.63c2.35,5.75,5.6,10.82,9.69,15.14,4.39,4.62,9.31,8.1,14.68,10.37,5.37,2.27,11.43,3.48,17.94,3.48,9.69,0,18.24-2.65,25.51-7.8,7.27-5.15,13.02-12.72,17.03-22.48l.53-1.29h-19.53l-.3.45c-2.42,4.31-5.68,7.72-9.76,10.14-4.09,2.35-8.63,3.56-13.55,3.56-6.89,0-13.02-2.19-18.01-6.51-4.77-4.09-7.87-9.46-9.23-15.97h72.66v-3.41c0-6.05-.61-11.58-1.82-16.35-1.21-4.69-3.1-9.08-5.68-13.09ZM305.21,431.29c1.89-6.13,5.15-11.13,9.69-14.76,4.84-3.86,10.6-5.83,17.18-5.83s11.96,1.89,16.58,5.68c4.31,3.56,7.49,8.55,9.38,14.91h-52.83Z"/>
      <path class="cls-2" d="M160.05,434.24l-13.82-3.67c-4.3-1.11-7.37-2.59-9.13-4.39-1.71-1.75-2.52-3.78-2.46-6.28.05-2.15.64-3.95,1.81-5.52,1.16-1.56,2.83-2.76,4.98-3.58,2.07-.79,4.52-1.18,7.27-1.17.18,0,.36,0,.55,0,9.8.05,11.95,9.06,12.3,12.46l.17,1.47h19.33c0-3.26-1.56-11.43-4.26-15.71-6.57-10.37-21.13-14.03-27.15-14.17-.36,0-.72-.01-1.08-.02-6.19-.03-11.78.97-16.61,2.98-5.16,2.14-9.26,5.28-12.2,9.33-2.95,4.07-4.51,8.9-4.64,14.46-.16,6.59,1.83,12.15,5.92,16.51,4.03,4.31,10.22,7.57,18.41,9.7l13.8,3.58c4.36,1.22,7.38,2.67,8.99,4.31,1.55,1.58,2.28,3.6,2.21,6.27-.05,2.18-.69,3.99-1.94,5.52-1.26,1.54-3.07,2.72-5.38,3.52-2.21.76-4.9,1.13-8.01,1.12-.24,0-.48,0-.73-.01-5.09-.12-9.04-1.29-11.76-3.46-2.98-2.38-4.51-4.13-5.18-7.65l-.28-1.65-19.23-.46c0,3.03,2.48,11.19,5.27,15.28,2.9,4.23,7,7.62,12.17,10.06,5.14,2.43,11.41,3.74,18.62,3.91.37,0,.73.01,1.1.02,6.35.03,12.13-1.01,17.2-3.09,5.39-2.22,9.73-5.43,12.88-9.54,3.18-4.15,4.85-9.06,4.99-14.68.16-6.59-1.65-11.97-5.36-15.99-3.66-3.97-9.96-7.15-18.73-9.46Z"/>
      <path class="cls-2" d="M234.82,411c5.75,0,10.82,1.29,14.91,3.78,4.16,2.5,7.57,6.43,10.22,11.5l.23.53h18.92l-.38-1.21c-3.33-10.07-8.78-18.01-16.2-23.54-7.42-5.6-16.27-8.4-26.41-8.4-6.43,0-12.56,1.29-18.24,3.78-5.68,2.5-10.82,6.21-15.36,11.05-4.09,4.39-7.27,9.39-9.39,14.76-2.12,5.37-3.18,11.2-3.18,17.33s1.21,11.88,3.48,17.63c2.35,5.75,5.6,10.82,9.69,15.14,4.31,4.54,9.23,7.95,14.53,10.22,5.37,2.27,11.35,3.41,17.94,3.41,10.37,0,19.38-2.8,26.64-8.25,7.27-5.45,12.79-13.62,16.42-24.14l.45-1.29h-19l-.08.3c-2.35,5.07-5.75,9.01-9.99,11.81-4.24,2.72-9.01,4.16-14.3,4.16-7.8,0-14.46-2.8-19.68-8.33-5.3-5.6-7.95-12.64-7.95-20.96s2.65-15.29,7.8-20.89c5.15-5.6,11.5-8.4,18.92-8.4Z"/>
      <path class="cls-2" d="M425.98,394.53c-21.33,0-38.68,17.97-38.68,40.06v50.66h19v-50.66c0-11.61,8.83-21.06,19.68-21.06s19.68,9.45,19.68,21.06v50.66h19v-50.66c0-22.09-17.35-40.06-38.68-40.06Z"/>
      <polygon class="cls-1" points="764.3 366.88 742.64 366.88 715.41 409.21 688.18 366.88 666.52 366.88 704.58 426.05 666.52 485.23 688.18 485.23 715.41 442.89 742.64 485.23 764.3 485.23 726.24 426.05 764.3 366.88"/>
      <path class="cls-2" d="M549.16,405.85h0c-3.86-3.56-8.02-6.28-12.49-8.17-5.07-2.12-10.75-3.25-16.73-3.25-6.74,0-12.79,1.14-18.01,3.33-5.3,2.19-10.14,5.68-14.61,10.29-4.09,4.24-7.19,9.16-9.38,14.68-2.2,5.53-3.25,11.5-3.25,17.63,0,13.24,4.47,24.45,13.17,33.3,8.78,8.86,19.91,13.32,33.07,13.32,5.68,0,11.05-1.14,16.05-3.25,4.31-1.89,8.4-4.54,12.03-8.02v9.46h19.71v-118.22h-19.55v38.9ZM541.29,461.71c-5.68,5.75-12.26,8.63-19.6,8.63-8.1,0-15.06-2.88-20.59-8.63-5.6-5.75-8.4-12.94-8.4-21.34s2.8-14.91,8.4-20.51c5.6-5.6,12.41-8.4,20.28-8.4s14.38,2.95,19.98,8.78c5.6,5.83,8.4,13.02,8.4,21.19.08,7.72-2.8,14.53-8.48,20.28Z"/>
      <path class="cls-2" d="M45.67,366.89L0,485.24h20.21l14.55-38.13h43.35l14.12,38.13h21.3l-45.67-118.35h-22.2ZM40.77,431.35l15.99-41.92,15.52,41.92h-31.51Z"/>
      <polygon class="cls-1" points="582.76 485.25 659.73 485.25 659.73 467.69 601.32 467.69 601.32 433.94 641.17 433.94 641.17 418.19 601.32 418.19 601.32 384.44 659.73 384.44 659.73 366.88 582.76 366.88 582.76 485.25"/>
    </g>
  </g>
</svg>