<?xml version="1.0" encoding="utf-8"?>
<!-- Generator: Adobe Illustrator 24.1.0, SVG Export Plug-In . SVG Version: 6.00 Build 0)  -->
<svg version="1.1" id="Ebene_1" xmlns="http://www.w3.org/2000/svg" xmlns:xlink="http://www.w3.org/1999/xlink" x="0px" y="0px"
	 width="300px" height="100px" viewBox="0 0 300 100" style="enable-background:new 0 0 300 100;" xml:space="preserve">
<style type="text/css">
	.st0{fill:#3d3939;}
</style>
<rect x="173.4" y="44.2" class="st0" width="10.7" height="32.3"/>
<rect x="173.4" y="30.8" class="st0" width="10.7" height="9.3"/>
<path class="st0" d="M209.6,49.5v-9.7h-8.9V29.2l-10.7,10v29.5c0,4.3,3.5,7.8,7.8,7.8h11.8v-9.7h-6.5c-1.3,0-2.4-1.1-2.4-2.4V49.5
	H209.6z"/>
<path class="st0" d="M234.8,39.4H214v-8.8h27.6c7.4,0,10,7.4,5.6,12.5c-3,3.5-14.7,16.7-19.8,22.4c-0.8,0.9-0.1,2.3,1.1,2.3h21.3
	v8.3h-29c-6.9,0-11.5-6.1-5.9-12.2c3.6-3.9,16.8-19.5,20.3-23.7C235.5,40,235.2,39.4,234.8,39.4"/>
<path class="st0" d="M160.2,52.9c-0.7-0.2-0.7-0.7,0-0.9c4.3-1.5,7.3-5.5,7.3-10.3v0c0-6-4.9-10.8-10.8-10.8h-30.1v8.7h4.9v26.8
	h-4.9v9.9h30.3c6.6,0,11.9-5.3,11.9-11.9v0C168.8,58.9,165.2,54.3,160.2,52.9z M151.5,66.7h-8.4v-9h8.4c2.5,0,4.5,2,4.5,4.5
	C156,64.7,154,66.7,151.5,66.7z M150.5,48.6h-7.4v-9h7.4c2.5,0,4.5,2,4.5,4.5S153,48.6,150.5,48.6z"/>
<path class="st0" d="M105.4,48.5c1.8-3.2,2.7-7,2.7-10.9c0-10.8-7.4-19.8-17.4-22.3c-1.5-0.5-3-0.7-4.5-0.7c-4.2,0-42,0-42,0v72.1
	c0,0,33.2,0,43.5,0c0.4,0,0.8,0,1.2,0s0.8,0,1.2,0c0.2,0,0.3,0,0.4,0c0.3,0,0.8-0.1,1.5-0.2c5.6-0.8,10.5-3.6,14-7.6
	c2.9-3,5.1-7.1,5.4-12.4c0.1-0.8,0.1-1.6,0.1-2.5C111.6,58.1,109.2,52.6,105.4,48.5z M91.2,70.7H67.3c-5.7,0-9.5-5.3-4.9-10.6
	c3-3.4,13.8-16.9,16.7-20.5c0.2-0.3,0-0.7-0.4-0.7H61.7v-7.6h22.8c6.1,0,8.2,6.4,4.6,10.8c-2.4,3-12.1,14.4-16.4,19.3
	c-0.7,0.8-0.1,2,0.9,2h17.6V70.7z"/>
</svg>
