<?xml version="1.0" encoding="utf-8"?>
<!-- Generator: Adobe Illustrator 21.1.0, SVG Export Plug-In . SVG Version: 6.00 Build 0)  -->
<svg version="1.1" id="Ebene_1" xmlns="http://www.w3.org/2000/svg" xmlns:xlink="http://www.w3.org/1999/xlink" x="0px" y="0px"
	 width="300px" height="100px" viewBox="0 0 300 100" style="enable-background:new 0 0 300 100;" xml:space="preserve">
<style type="text/css">
	.st0{fill:#3d3939;}
</style>
<g id="_x39_ORX1V.tif_1_">
	<g>
		<path class="st0" d="M34.3,75.7c0-13.5,0-27,0-40.5c13.5,0,27,0,40.5,0c0,7,0,14,0,21c-1.7,0-3.3,0-5.1,0c0-5.4,0-10.8,0-16.3
			c-10.2,0-20.4,0-30.6,0c0,10.2,0,20.4,0,30.6c10.2,0,20.4,0,30.6,0c0-1.1,0-2.2,0-3.3c1.7,0,3.4,0,5.1,0c0,2.8,0,5.7,0,8.5
			C61.4,75.7,47.8,75.7,34.3,75.7z"/>
		<path class="st0" d="M264.8,64.5c-1.1,0-2.3,0-3.4,0c-0.2,0-0.5-0.1-0.6-0.3c-2.2-3.9-4.4-7.9-6.6-11.8c-0.2-0.4-0.3-0.8-0.4-1
			c-1.1,2-2.2,4.1-3.3,6.1c-0.8,1.5-1.7,3.1-2.5,4.6c-0.4,0.7-0.8,1.5-1.2,2.2c-0.1,0.1-0.3,0.3-0.5,0.3c-1.2,0-2.3,0-3.6,0
			c0.6-1.1,1.2-2.1,1.9-3.1c1.7-2.8,3.4-5.7,5.1-8.5c0.6-1,1.2-2,1.8-3.1c0.2-0.3,0.2-0.5,0-0.8c-2.6-4.2-5.1-8.4-7.7-12.7
			c-0.3-0.5-0.6-1-0.9-1.6c1.3,0,2.4,0,3.6,0c0.1,0,0.3,0.2,0.4,0.3c0.5,0.9,1.1,1.8,1.6,2.7c1.6,2.8,3.1,5.7,4.7,8.5
			c0.2,0.4,0.3,0.9,0.4,1.2c0.9-1.7,1.8-3.5,2.8-5.2c1-1.8,2-3.6,3-5.4c0.4-0.7,0.7-1.3,1.1-2c0.1-0.1,0.3-0.2,0.5-0.3
			c1.1,0,2.2,0,3.5,0c-0.7,1.1-1.3,2.2-1.9,3.2c-1.5,2.5-3,5-4.5,7.4c-0.7,1.2-1.4,2.3-2.1,3.4c-0.2,0.4-0.2,0.6,0,0.9
			c2.9,4.8,5.8,9.7,8.7,14.5c0,0,0,0,0.1,0C264.8,64.4,264.8,64.5,264.8,64.5z"/>
		<path class="st0" d="M49.9,28.8c0,1,0,1.9,0,2.9c-1.7,0-3.4,0-5.1,0c0-2.7,0-5.3,0-8c13.5,0,26.9,0,40.4,0c0,13.5,0,26.9,0,40.5
			c-13.5,0-26.9,0-40.5,0c0-7,0-14,0-21c1.7,0,3.3,0,5.1,0c0,5.4,0,10.8,0,16.3c10.1,0,20.2,0,30.3,0c0-10.2,0-20.4,0-30.6
			C70.1,28.8,60,28.8,49.9,28.8z"/>
		<path class="st0" d="M101.1,64.5c0-9.9,0-19.8,0-29.7c0.3,0,0.5,0,0.7,0c3,0,6.1,0,9.1,0c2.5,0,4.8,0.6,6.7,2.2
			c1,0.8,1.6,1.9,1.9,3.2c0.4,2,0.3,4-0.7,5.9c-0.7,1.3-2,2.4-3.8,3.1c0.7,0.3,1.4,0.5,2,0.8c2.4,1.1,3.9,3,4.2,5.7
			c0.3,2.7-0.7,5.7-3.5,7.3c-1.7,1-3.5,1.4-5.5,1.5c-3.4,0-6.9,0.1-10.3,0.1C101.7,64.5,101.4,64.5,101.1,64.5z M104.4,61.7
			c1.9,0,3.7,0,5.5,0c1.3,0,2.6-0.1,3.9-0.3c1.4-0.2,2.7-0.9,3.4-2.3c0.6-1,0.8-2.1,0.7-3.3c-0.1-0.9-0.2-1.7-0.7-2.5
			c-1.1-1.8-2.9-2.6-4.9-2.6c-2.4-0.1-4.9,0-7.3,0c-0.2,0-0.4,0-0.6,0C104.4,54.4,104.4,58,104.4,61.7z M104.4,48.2
			c2.4,0,4.8,0,7.2,0c1.3,0,2.5-0.5,3.4-1.4c1.3-1.3,1.7-2.9,1.5-4.8c-0.2-2.2-1.4-3.4-3-3.8c-1-0.3-2.1-0.5-3.2-0.5c-2-0.1-4,0-6,0
			C104.4,41.2,104.4,44.6,104.4,48.2z"/>
		<path class="st0" d="M203.9,52.5c1.2,1.8,2.3,3.6,3.4,5.3c1.3,2.2,2.6,4.4,4,6.7c-1.2,0-2.4,0-3.6,0c-0.2,0-0.4-0.3-0.5-0.5
			c-1.3-2.4-2.7-4.8-4-7.2c-0.7-1.2-1.3-2.4-2-3.5c-0.1-0.1-0.3-0.3-0.4-0.3c-2.1,0-4.1,0-6.3,0c0,3.8,0,7.6,0,11.4
			c-1.1,0-2.1,0-3.1,0c0-9.9,0-19.7,0-29.7c0.2,0,0.4,0,0.6,0c2.8,0,5.7,0,8.5,0c2.1,0,4.1,0.5,5.9,1.6c2,1.2,3.2,3,3.6,5.4
			c0.4,2.4,0.3,4.7-0.9,6.8c-1,1.9-2.6,3.1-4.7,3.7C204.2,52.4,204,52.5,203.9,52.5z M194.7,50.3c2.5,0,4.9,0.2,7.4,0
			c2.3-0.2,3.8-1.6,4.6-3.8c0.5-1.4,0.5-2.9,0.2-4.3c-0.3-1.5-1.1-2.8-2.4-3.6c-0.9-0.5-1.9-0.9-3-0.9c-2.2,0-4.4,0-6.7,0
			C194.7,41.9,194.7,46.1,194.7,50.3z"/>
		<path class="st0" d="M222.2,61.7c4.6,0,9.1,0,13.7,0c0,0.9,0,1.8,0,2.8c-5.6,0-11.3,0-16.9,0c0-9.9,0-19.7,0-29.7
			c5.6,0,11.3,0,16.9,0c0,0.9,0,1.8,0,2.8c-4.6,0-9.1,0-13.7,0c0,3.5,0,7,0,10.5c4.1,0,8.1,0,12.2,0c0,0.9,0,1.7,0,2.6
			c-4,0-8.1,0-12.2,0C222.2,54.4,222.2,58,222.2,61.7z"/>
		<path class="st0" d="M184,34.8c0,0.9,0,1.8,0,2.8c-2.7,0-5.3,0-8,0c0,9,0,17.9,0,26.9c-1.1,0-2.2,0-3.3,0c0-8.9,0-17.8,0-26.8
			c-2.9,0-5.8,0-8.6,0c0-1,0-1.9,0-2.8C170.7,34.8,177.4,34.8,184,34.8z"/>
		<path class="st0" d="M151,64.5c-1.1,0-2.2,0-3.2,0c0-8.9,0-17.8,0-26.8c-2.8,0-5.5,0-8.2,0c0-1,0-1.9,0-2.8c6.5,0,13,0,19.5,0
			c0,0.9,0,1.8,0,2.8c-2.7,0-5.3,0-8.1,0C151,46.6,151,55.5,151,64.5z"/>
		<path class="st0" d="M128.7,34.8c1.1,0,2.1,0,3.2,0c0,9.9,0,19.8,0,29.7c-1.1,0-2.1,0-3.2,0C128.7,54.6,128.7,44.7,128.7,34.8z"/>
	</g>
</g>
</svg>
