<?xml version="1.0" encoding="utf-8"?>
<!-- Generator: Adobe Illustrator 24.1.0, SVG Export Plug-In . SVG Version: 6.00 Build 0)  -->
<svg version="1.1" id="Ebene_1" xmlns="http://www.w3.org/2000/svg" xmlns:xlink="http://www.w3.org/1999/xlink" x="0px" y="0px"
	 width="300px" height="100px" viewBox="0 0 300 100" style="enable-background:new 0 0 300 100;" xml:space="preserve">
<style type="text/css">
	.st0{fill-rule:evenodd;clip-rule:evenodd;fill:#3d3939;}
	.st1{filter:url(#Adobe_OpacityMaskFilter);}
	.st2{mask:url(#mask-2_1_);fill-rule:evenodd;clip-rule:evenodd;fill:#3d3939;}
	.st3{filter:url(#Adobe_OpacityMaskFilter_1_);}
	.st4{mask:url(#mask-5_8_);fill-rule:evenodd;clip-rule:evenodd;fill:#3d3939;}
	.st5{filter:url(#Adobe_OpacityMaskFilter_2_);}
	.st6{mask:url(#mask-5_7_);fill-rule:evenodd;clip-rule:evenodd;fill:#3d3939;}
	.st7{filter:url(#Adobe_OpacityMaskFilter_3_);}
	.st8{mask:url(#mask-5_6_);fill-rule:evenodd;clip-rule:evenodd;fill:#3d3939;}
	.st9{filter:url(#Adobe_OpacityMaskFilter_4_);}
	.st10{mask:url(#mask-5_5_);fill-rule:evenodd;clip-rule:evenodd;fill:#3d3939;}
	.st11{filter:url(#Adobe_OpacityMaskFilter_5_);}
	.st12{mask:url(#mask-5_4_);fill-rule:evenodd;clip-rule:evenodd;fill:#3d3939;}
	.st13{filter:url(#Adobe_OpacityMaskFilter_6_);}
	.st14{mask:url(#mask-5_3_);fill-rule:evenodd;clip-rule:evenodd;fill:#3d3939;}
	.st15{filter:url(#Adobe_OpacityMaskFilter_7_);}
	.st16{mask:url(#mask-5_2_);fill-rule:evenodd;clip-rule:evenodd;fill:#3d3939;}
	.st17{filter:url(#Adobe_OpacityMaskFilter_8_);}
	.st18{mask:url(#mask-5_1_);fill-rule:evenodd;clip-rule:evenodd;fill:#3d3939;}
</style>
<g id="页面-1">
	<g id="web备份" transform="translate(-20.000000, -24.000000)">
		<g id="newhead-1920" transform="translate(0.000000, 10.000000)">
			<g id="newhead">
				<g id="logo_white_pc_header-copy" transform="translate(20.000000, 14.000000)">
					<g id="Group-15">
						<polygon id="Fill-1" class="st0" points="28.8,34.6 36.9,34.6 36.9,26.4 28.8,26.4 						"/>
						<g id="Group-4">
							<defs>
								<filter id="Adobe_OpacityMaskFilter" filterUnits="userSpaceOnUse" x="28.8" y="26.4" width="46.7" height="47.5">
									<feColorMatrix  type="matrix" values="1 0 0 0 0  0 1 0 0 0  0 0 1 0 0  0 0 0 1 0"/>
								</filter>
							</defs>
							<mask maskUnits="userSpaceOnUse" x="28.8" y="26.4" width="46.7" height="47.5" id="mask-2_1_">
								<g class="st1">
									<polygon id="path-1_1_" class="st0" points="28.8,26.4 75.5,26.4 75.5,73.9 28.8,73.9 									"/>
								</g>
							</mask>
							<path id="Fill-2" class="st2" d="M52.8,26.4L52.8,26.4l-10.2,0v8.3v2.8v3.1h9.8v0c5.1,0.1,9.2,4.4,9.2,9.6
								c0,5.2-4.1,9.5-9.2,9.6v0h-9.8V40.5H28.8v33.4h24v0C65.4,73.5,75.5,63,75.5,50.1C75.5,37.2,65.4,26.8,52.8,26.4"/>
						</g>
					</g>
					<g id="Group-16">
						<path id="Fill-5" class="st0" d="M92,39.3v16.9h5.9c3,0,5.1-1.3,6.3-3.8c0.6-1.4,1-3,1-4.9c0-2.6-0.5-4.7-1.5-6.1
							c-1-1.4-2.9-2.1-5.8-2.1H92z M103.6,35.4c2.1,0.6,3.9,1.7,5.2,3.3c1.1,1.3,1.8,2.7,2.2,4.2c0.4,1.5,0.6,2.9,0.6,4.3
							c0,3.4-0.8,6.4-2.4,8.8c-2.2,3.2-5.6,4.8-10.2,4.8H85.8V34.8h13.1C100.8,34.9,102.4,35,103.6,35.4L103.6,35.4z"/>
						<defs>
							<filter id="Adobe_OpacityMaskFilter_1_" filterUnits="userSpaceOnUse" x="115.9" y="34.7" width="6" height="26.1">
								<feColorMatrix  type="matrix" values="1 0 0 0 0  0 1 0 0 0  0 0 1 0 0  0 0 0 1 0"/>
							</filter>
						</defs>
						<mask maskUnits="userSpaceOnUse" x="115.9" y="34.7" width="6" height="26.1" id="mask-5_8_">
							<g class="st3">
								<polygon id="path-4_8_" class="st0" points="28.8,73.9 271.8,73.9 271.8,26.4 28.8,26.4 								"/>
							</g>
						</mask>
						<path id="Fill-7" class="st4" d="M115.9,60.7h6V41.6h-6V60.7z M115.9,39.3h6v-4.6h-6V39.3z"/>
						<defs>
							<filter id="Adobe_OpacityMaskFilter_2_" filterUnits="userSpaceOnUse" x="126.2" y="41.1" width="21.7" height="27.5">
								<feColorMatrix  type="matrix" values="1 0 0 0 0  0 1 0 0 0  0 0 1 0 0  0 0 0 1 0"/>
							</filter>
						</defs>
						<mask maskUnits="userSpaceOnUse" x="126.2" y="41.1" width="21.7" height="27.5" id="mask-5_7_">
							<g class="st5">
								<polygon id="path-4_7_" class="st0" points="28.8,73.9 271.8,73.9 271.8,26.4 28.8,26.4 								"/>
							</g>
						</mask>
						<path id="Fill-9" class="st6" d="M140.7,55.3c0.9-0.9,1.4-2.3,1.4-4.2c0-1.8-0.4-3.2-1.3-4.1c-0.9-0.9-2.1-1.4-3.6-1.4
							c-2.1,0-3.5,0.8-4.2,2.5c-0.4,0.9-0.6,2-0.6,3.3c0,1.1,0.2,2.1,0.7,3c0.8,1.6,2.2,2.4,4.3,2.4
							C138.6,56.6,139.7,56.2,140.7,55.3 M138.7,41.6c1.4,0.5,2.6,1.4,3.5,2.8v-2.8h5.7v18.2c0,2.5-0.5,4.3-1.5,5.6
							c-1.7,2.2-4.9,3.2-9.6,3.2c-2.9,0-5.2-0.5-7-1.4c-1.8-1-2.8-2.4-3-4.3h6.4c0.2,0.6,0.4,1,0.8,1.3c0.6,0.5,1.7,0.7,3.2,0.7
							c2.1,0,3.5-0.6,4.2-1.8c0.5-0.8,0.7-2.1,0.7-3.9v-1.2c-0.6,0.8-1.2,1.4-1.8,1.8c-1.2,0.8-2.7,1.1-4.6,1.1
							c-2.9,0-5.2-0.9-6.9-2.6c-1.7-1.7-2.6-4.1-2.6-7c0-2.8,0.8-5.2,2.5-7.2c1.7-1.9,4-2.9,7.1-2.9
							C136.8,41.1,137.8,41.3,138.7,41.6"/>
						<defs>
							<filter id="Adobe_OpacityMaskFilter_3_" filterUnits="userSpaceOnUse" x="153.4" y="34.7" width="6" height="26.1">
								<feColorMatrix  type="matrix" values="1 0 0 0 0  0 1 0 0 0  0 0 1 0 0  0 0 0 1 0"/>
							</filter>
						</defs>
						<mask maskUnits="userSpaceOnUse" x="153.4" y="34.7" width="6" height="26.1" id="mask-5_6_">
							<g class="st7">
								<polygon id="path-4_6_" class="st0" points="28.8,73.9 271.8,73.9 271.8,26.4 28.8,26.4 								"/>
							</g>
						</mask>
						<path id="Fill-10" class="st8" d="M153.4,60.7h6V41.6h-6V60.7z M153.4,39.3h6v-4.6h-6V39.3z"/>
						<defs>
							<filter id="Adobe_OpacityMaskFilter_4_" filterUnits="userSpaceOnUse" x="165.5" y="34.9" width="21.7" height="25.9">
								<feColorMatrix  type="matrix" values="1 0 0 0 0  0 1 0 0 0  0 0 1 0 0  0 0 0 1 0"/>
							</filter>
						</defs>
						<mask maskUnits="userSpaceOnUse" x="165.5" y="34.9" width="21.7" height="25.9" id="mask-5_5_">
							<g class="st9">
								<polygon id="path-4_5_" class="st0" points="28.8,73.9 271.8,73.9 271.8,26.4 28.8,26.4 								"/>
							</g>
						</mask>
						<polygon id="Fill-11" class="st10" points="165.5,34.9 187.2,34.9 187.2,39.4 171.8,39.4 171.8,45.4 185.3,45.4 185.3,49.9 
							171.8,49.9 171.8,60.7 165.5,60.7 						"/>
						<defs>
							<filter id="Adobe_OpacityMaskFilter_5_" filterUnits="userSpaceOnUse" x="190.9" y="34.7" width="6" height="26.1">
								<feColorMatrix  type="matrix" values="1 0 0 0 0  0 1 0 0 0  0 0 1 0 0  0 0 0 1 0"/>
							</filter>
						</defs>
						<mask maskUnits="userSpaceOnUse" x="190.9" y="34.7" width="6" height="26.1" id="mask-5_4_">
							<g class="st11">
								<polygon id="path-4_4_" class="st0" points="28.8,73.9 271.8,73.9 271.8,26.4 28.8,26.4 								"/>
							</g>
						</mask>
						<path id="Fill-12" class="st12" d="M190.9,60.7h6V41.6h-6V60.7z M190.9,39.3h6v-4.6h-6V39.3z"/>
						<defs>
							<filter id="Adobe_OpacityMaskFilter_6_" filterUnits="userSpaceOnUse" x="202.6" y="41.1" width="20.3" height="19.6">
								<feColorMatrix  type="matrix" values="1 0 0 0 0  0 1 0 0 0  0 0 1 0 0  0 0 0 1 0"/>
							</filter>
						</defs>
						<mask maskUnits="userSpaceOnUse" x="202.6" y="41.1" width="20.3" height="19.6" id="mask-5_3_">
							<g class="st13">
								<polygon id="path-4_3_" class="st0" points="28.8,73.9 271.8,73.9 271.8,26.4 28.8,26.4 								"/>
							</g>
						</mask>
						<path id="Fill-13" class="st14" d="M220.7,42.7c1.5,1,2.2,2.8,2.2,5.2v12.9h-6V49.1c0-1-0.2-1.8-0.5-2.3
							c-0.6-1-1.7-1.5-3.3-1.5c-2,0-3.3,0.7-4.1,2.2c-0.4,0.8-0.6,1.7-0.6,2.9v10.4h-5.9V41.6h5.7v2.8c0.8-1,1.5-1.7,2.1-2.1
							c1.2-0.8,2.7-1.2,4.6-1.2C217.3,41.1,219.2,41.6,220.7,42.7"/>
						<defs>
							<filter id="Adobe_OpacityMaskFilter_7_" filterUnits="userSpaceOnUse" x="226.6" y="41.1" width="22.3" height="20.3">
								<feColorMatrix  type="matrix" values="1 0 0 0 0  0 1 0 0 0  0 0 1 0 0  0 0 0 1 0"/>
							</filter>
						</defs>
						<mask maskUnits="userSpaceOnUse" x="226.6" y="41.1" width="22.3" height="20.3" id="mask-5_2_">
							<g class="st15">
								<polygon id="path-4_2_" class="st0" points="28.8,73.9 271.8,73.9 271.8,26.4 28.8,26.4 								"/>
							</g>
						</mask>
						<path id="Fill-14" class="st16" d="M234.2,46.3c-0.8,0.7-1.4,1.7-1.6,3h10.1c-0.1-1.3-0.6-2.3-1.6-3c-0.9-0.7-2.1-1-3.5-1
							C236.2,45.2,235.1,45.6,234.2,46.3 M243,42c1.6,0.6,2.9,1.5,3.9,2.8c0.9,1.1,1.5,2.5,1.8,4c0.2,0.9,0.2,2.1,0.2,3.8h-16.4
							c0.1,1.9,0.9,3.3,2.4,4c0.9,0.5,2,0.7,3.2,0.7c1.3,0,2.4-0.3,3.3-0.9c0.5-0.3,0.9-0.8,1.2-1.3h6c-0.2,1.1-0.9,2.3-2.2,3.5
							c-2,1.9-4.8,2.8-8.5,2.8c-3,0-5.6-0.8-7.9-2.4c-2.3-1.6-3.4-4.1-3.4-7.7c0-3.3,1-5.9,3.1-7.6c2.1-1.8,4.7-2.7,8-2.7
							C239.7,41.1,241.4,41.4,243,42"/>
						<defs>
							<filter id="Adobe_OpacityMaskFilter_8_" filterUnits="userSpaceOnUse" x="249.6" y="41.6" width="22.2" height="19.1">
								<feColorMatrix  type="matrix" values="1 0 0 0 0  0 1 0 0 0  0 0 1 0 0  0 0 0 1 0"/>
							</filter>
						</defs>
						<mask maskUnits="userSpaceOnUse" x="249.6" y="41.6" width="22.2" height="19.1" id="mask-5_1_">
							<g class="st17">
								<polygon id="path-4_1_" class="st0" points="28.8,73.9 271.8,73.9 271.8,26.4 28.8,26.4 								"/>
							</g>
						</mask>
						<polygon id="Fill-15" class="st18" points="249.6,60.7 257.3,51 249.9,41.6 257.1,41.6 260.9,47.2 264.6,41.6 271.6,41.6 
							264.2,50.9 271.8,60.7 264.5,60.7 260.7,55 256.8,60.7 						"/>
					</g>
				</g>
			</g>
		</g>
	</g>
</g>
</svg>
