<?xml version="1.0" encoding="utf-8"?>
<!-- Generator: Adobe Illustrator 26.1.0, SVG Export Plug-In . SVG Version: 6.00 Build 0)  -->
<svg version="1.1" id="Layer_1" xmlns="http://www.w3.org/2000/svg" xmlns:xlink="http://www.w3.org/1999/xlink" x="0px" y="0px"
	 viewBox="0 0 300 100" style="enable-background:new 0 0 300 100;" xml:space="preserve">
<style type="text/css">
	.st0{fill:#3D3939;}
	.st1{fill-rule:evenodd;clip-rule:evenodd;fill:#3D3939;}
</style>
<g>
	<path class="st0" d="M84.7,48.2l9.8-10.9h-5.1L78.2,50.1V37.3H74v25.3h4.1v-7.4l3.7-4.1l8,11.4h5L84.7,48.2z"/>
	<path class="st1" d="M113.6,53.1l6.6,9.6h-5.1l-6-8.8h-5.4v8.8h-4.3V37.3h10.9c1.3,0,2.6,0.2,3.8,0.6c1.1,0.3,2,0.9,2.9,1.6
		c0.8,0.7,1.4,1.5,1.8,2.5c0.4,1.1,0.7,2.2,0.6,3.3c0,1-0.1,1.9-0.4,2.8c-0.3,0.8-0.7,1.5-1.2,2.2c-0.5,0.6-1.2,1.2-1.9,1.6
		C115.2,52.5,114.4,52.8,113.6,53.1z M113.7,48.7c0.9-0.8,1.4-1.9,1.4-3.1c0-1.4-0.5-2.4-1.3-3.2c-0.9-0.7-2.1-1.1-3.8-1.1h-6.3v8.5
		h6.3C111.5,49.9,112.8,49.5,113.7,48.7z"/>
	<path class="st0" d="M124.7,37.3v25.3h4.5V37.3H124.7z"/>
	<path class="st1" d="M155.4,42.3c0.4,1.1,0.6,2.3,0.6,3.5c0,1.3-0.2,2.6-0.7,3.8c-0.5,1.1-1.1,2-2,2.7c-0.9,0.7-1.9,1.3-2.9,1.7
		c-1.2,0.4-2.4,0.6-3.6,0.6h-4.6v8.1h-4.1V37.3h9.1c1.2,0,2.5,0.2,3.6,0.6c1,0.4,2,0.9,2.8,1.7C154.4,40.4,155,41.3,155.4,42.3z
		 M150.5,49.2c0.9-0.8,1.4-2,1.3-3.3c0-1.5-0.4-2.7-1.3-3.4c-0.9-0.8-2.1-1.1-3.6-1.1h-4.7v9.1h4.7
		C148.4,50.5,149.6,50.1,150.5,49.2z"/>
	<path class="st0" d="M172.2,41.4h7.6v-4.1h-19.4v4.1h7.6v21.2h4.2V41.4z"/>
	<path class="st1" d="M207.1,45.1c0.6,1.6,0.9,3.2,0.9,4.9c0,1.7-0.3,3.3-0.9,4.9c-0.6,1.5-1.5,2.9-2.6,4c-1.1,1.2-2.5,2.1-4,2.7
		c-1.6,0.7-3.4,1-5.1,1c-1.8,0-3.5-0.3-5.1-1c-1.5-0.6-2.8-1.5-4-2.7c-1.1-1.2-2-2.5-2.6-4c-1.6-3.9-1.1-8.4,1.2-12
		c2.4-3.5,6.3-5.6,10.5-5.6c1.8,0,3.5,0.3,5.1,1C203.6,39.6,205.9,42,207.1,45.1z M203,53.4c0.4-1.1,0.6-2.2,0.6-3.4
		c0-1.2-0.2-2.3-0.6-3.4c-0.4-1-1-2-1.7-2.8c-0.7-0.8-1.6-1.5-2.6-1.9c-1-0.5-2.2-0.7-3.3-0.7c-1.1,0-2.3,0.2-3.3,0.7
		c-1,0.4-1.9,1.1-2.6,1.8c-0.7,0.8-1.3,1.7-1.7,2.8c-0.8,2.2-0.8,4.6,0,6.8c0.4,1,1,2,1.7,2.8c0.7,0.8,1.6,1.4,2.6,1.9
		c1,0.5,2.2,0.7,3.3,0.7c2.2,0,4.4-0.9,5.9-2.5C202.1,55.4,202.6,54.4,203,53.4z"/>
	<path class="st0" d="M232.6,44.5v18.2h4.3V37.3h-4.5l-7.4,12l-7.4-12H213v25.3h4.2V44.6l7.6,11.9h0.1L232.6,44.5z"/>
	<path class="st1" d="M251.5,37.3h4l10.7,25.3h-4.5l-2.5-6.1h-11.5l-2.5,6.1h-4.4L251.5,37.3z M249.3,52.7h8.3l-4.2-10L249.3,52.7z"
		/>
	<path class="st0" d="M279.5,41.4h7.6v-4.1h-19.4v4.1h7.6v21.2h4.2V41.4z"/>
	<path class="st1" d="M36.1,31.1c1,0,1.9,0.1,2.9,0.2l3.5-3.5c-2.1-0.6-4.2-0.9-6.4-0.9c-9.3,0-17.7,5.5-21.3,14.1
		c-3.6,8.5-1.8,18.4,4.6,25c6.4,6.7,16.2,8.9,24.9,5.6c1.4-0.5,2.7-1.2,3.9-2l-3.1-3L28.6,50l16.6-16.6l3.1-3
		c-1.2-0.8-2.6-1.4-3.9-2l-3.3,3.3l-5.9,5.9L22.7,50l18.3,18.3c-1.6,0.4-3.3,0.7-5,0.7c-10.5,0-19-8.5-19-18.9
		C17.1,39.5,25.6,31.1,36.1,31.1z M49.9,37l3-2.9c-1-1-2-1.9-3.1-2.8l-3,3L31,49.9l15.7,15.6l3,3c1.1-0.8,2.2-1.8,3.1-2.8
		c8-8.4,8.5-21.4,1.2-30.4l-3,3c5.7,7.3,5.2,17.7-1.2,24.5l-13-12.9l5.2-5.2L49.9,37z"/>
</g>
</svg>
