<?xml version="1.0" encoding="utf-8"?>
<!-- Generator: Adobe Illustrator 24.3.0, SVG Export Plug-In . SVG Version: 6.00 Build 0)  -->
<svg version="1.1" id="Layer_1" xmlns="http://www.w3.org/2000/svg" xmlns:xlink="http://www.w3.org/1999/xlink" x="0px" y="0px"
	 viewBox="0 0 512 512" style="enable-background:new 0 0 512 512;" xml:space="preserve">
<style type="text/css">
	.st0{fill:#3D3939;}
</style>
<g>
	<path class="st0" d="M428.1,31.9H126.9c-28.7,0-52,23.4-52,52v344.1c0,13.7,5.5,27.1,15.2,36.8c9.8,9.8,22.9,15.2,36.8,15.2
		c0,0,0,0,0.1,0h279.6c5,0,9-4,9-9v-77h12.5c5,0,9-4,9-9V40.9C437.1,35.9,433,31.9,428.1,31.9z M92.9,83.9c0-18.8,15.3-34,34-34
		h12.5V376h-12.5c-3.2,0-6.5,0.4-9.6,1c-0.7,0.1-1.2,0.3-1.8,0.4l-1.1,0.3c-2.1,0.5-4.1,1.2-6.2,1.9c-1,0.4-2.1,0.9-3.1,1.3
		c-1.9,0.9-3.7,1.9-5.4,2.9l-0.8,0.5c-0.6,0.4-1.2,0.7-1.8,1.2c-0.3,0.2-0.6,0.4-0.8,0.5c-0.2,0.1-0.3,0.2-0.5,0.3l-2.8,2L92.9,83.9
		z M397.5,419.1H128.7v18h268.9v25H126.9c-18.7,0-34-15.2-34-34c0-18.8,15.3-34,34-34h270.6V419.1z M419.1,376H157.5V49.9h261.6V376
		z"/>
	<path class="st0" d="M202.2,179h172.1c5,0,9-4,9-9v-64.5c0-5-4-9-9-9H202.2c-5,0-9,4-9,9V170C193.2,174.9,197.3,179,202.2,179z
		 M211.2,114.5h154v46.5h-154V114.5z"/>
</g>
</svg>
