<?xml version="1.0" encoding="utf-8"?>
<!-- Generator: Adobe Illustrator 24.1.0, SVG Export Plug-In . SVG Version: 6.00 Build 0)  -->
<svg version="1.1" id="Ebene_1" xmlns="http://www.w3.org/2000/svg" xmlns:xlink="http://www.w3.org/1999/xlink" x="0px" y="0px"
	 width="300px" height="100px" viewBox="0 0 300 100" style="enable-background:new 0 0 300 100;" xml:space="preserve">
<style type="text/css">
	.st0{fill:#3d3939;}
	.st1{opacity:0.2;fill:#3d3939;}
	.st2{opacity:0.5;fill:#3d3939;}
</style>
<g id="MxyrbC_1_">
	<g>
		<g>
			<path class="st0" d="M80.7,49.3c0.2,0.1,0.3,0.2,0.5,0.2c2.9,0.9,4.9,2.6,5.3,5.8c0.4,3.5-0.7,6.5-3.7,8.5c-2.1,1.4-4.6,2-7.1,2
				c-4.5,0.1-9.1,0-13.6,0c-1,0-1-0.5-1-1.2c0-8.3,0-16.6,0-25c0-1.3-0.1-2.7,0-4c0-0.3,0.4-0.8,0.6-0.8c5.7,0.1,11.3,0.1,17,0.3
				c0.9,0,1.8,0.4,2.6,0.8c2.9,1.2,4.5,3.3,4.5,6.5c0,3.2-1.4,5.4-4.4,6.6C81,49.1,80.9,49.2,80.7,49.3z M67.8,60.9
				c2.9,0,5.6,0.1,8.4,0c2.2-0.2,3.4-1.8,3.5-4.2c0.1-2.4-1-4.2-3.3-4.4c-2.8-0.3-5.7-0.1-8.6-0.1C67.8,55.1,67.8,58,67.8,60.9z
				 M67.7,39.5c0,2.6,0,5.1,0,7.7c2.5,0,5,0.1,7.5,0c2.4-0.1,3.6-1.5,3.6-3.8c0-2.2-1.3-3.7-3.6-3.8C72.8,39.4,70.3,39.5,67.7,39.5z
				"/>
			<path class="st0" d="M255.8,45.5c3.6-4.5,11.1-4,13,1c1.2-1.9,2.6-3.4,4.9-3.9c4.8-1.1,8.7,1.5,9,6.4c0.2,3.1,0.2,6.2,0.2,9.3
				c0,2.2,0,4.3,0.1,6.5c0,0.7-0.2,1-0.9,0.9c-1.6,0-3.2-0.1-4.7,0c-0.9,0-1.1-0.3-1.1-1.1c0.1-4.3,0.1-8.5,0.1-12.8
				c0-0.8,0-1.6-0.3-2.4c-0.6-2.3-3-2.9-4.7-1.1c-1.2,1.3-1.8,2.9-1.8,4.6c-0.1,3.7,0,7.4,0,11.1c0,1.7,0,1.7-1.7,1.7
				c-1.1,0-2.2,0-3.4,0c-1.7,0-1.7,0-1.6-1.7c0-4.2,0.1-8.3,0.1-12.5c0-0.7-0.1-1.4-0.2-2.1c-0.2-1.1-0.9-1.9-2-2.1
				c-1.2-0.3-2.3,0.1-2.8,1.1c-0.7,1.2-1.5,2.6-1.6,3.9c-0.2,3.9-0.2,7.8-0.2,11.7c0,1.7,0,1.7-1.7,1.7c-1.3,0-2.7,0-4,0
				c-0.8,0-1.1-0.2-1.1-1c0.1-6.9,0.1-13.9,0.1-20.8c0-0.8,0.3-1.1,1.1-1.1c1.4,0.1,2.8,0.1,4.2,0c1,0,1.4,0.2,1.2,1.2
				C255.7,44.5,255.8,44.9,255.8,45.5z"/>
			<path class="st0" d="M175.6,45.7c1.9-2,4-3.1,6.5-3.2c5.2-0.2,8.5,2.7,8.7,7.9c0.2,4.8,0.1,9.7,0.1,14.6c0,0.7-0.3,0.9-1,0.9
				c-1.5,0-3.1-0.1-4.6,0c-0.9,0-1.2-0.3-1.2-1.2c0.1-4,0.1-8.1,0.1-12.1c0-0.6,0-1.2-0.1-1.7c-0.2-1.5-0.8-2.7-2.3-3.2
				c-1.5-0.6-2.9-0.1-4,1c-1.7,1.6-2,3.7-2,5.8c0,3.3,0,6.7,0.1,10.1c0,1.1-0.3,1.4-1.4,1.4c-1.5-0.1-3,0-4.5,0c-0.7,0-1-0.2-1-1
				c0-7,0.1-13.9,0.1-20.9c0-0.8,0.3-1,1-1c1.4,0,2.9,0.1,4.3,0c0.9,0,1.3,0.3,1.1,1.2C175.6,44.5,175.6,45,175.6,45.7z"/>
			<path class="st0" d="M148.3,66.4c-8.8,0-13.4-5.6-12.5-13.8c0.9-7.3,6.3-11.2,14.2-10c5,0.7,8.1,4,8.9,9.1c0.5,3,0.3,6-1.1,8.8
				C155.8,64.8,152.1,66.3,148.3,66.4z M152.4,55c0-2.1-0.2-2.4-0.3-3.4c-0.1-0.6-0.3-1.2-0.5-1.8c-0.7-1.9-2.1-2.9-4.1-2.9
				c-2,0-3.5,0.9-4.2,2.9c-1,3.1-1.1,6.2,0,9.3c0.7,2,2.2,2.9,4.3,2.9c2.1,0,3.5-0.9,4.1-3C152.1,57.5,152.4,57.1,152.4,55z"/>
			<path class="st0" d="M134.5,57c-0.3,3.4-1.7,6-4.5,7.7c-4,2.5-10.1,2.2-13.8-0.7c-3-2.4-4-5.6-4-9.3c0-4.4,1.2-8.4,5.3-10.7
				c3.7-2.1,7.7-2.2,11.7-0.5c3.2,1.4,4.7,4,5,7.6c-2,0-3.8,0-5.7,0c-0.2,0-0.5-0.5-0.6-0.8c-0.8-2.3-2.1-3.4-4-3.3
				c-2.1,0-3.6,1.2-4.3,3.4c-0.8,2.8-0.8,5.6,0.1,8.4c0.7,2.2,2.3,3.3,4.7,3.1c1.9-0.1,3.3-1.4,3.7-3.7c0.2-1,0.6-1.3,1.5-1.2
				C131.1,57.1,132.7,57,134.5,57z"/>
			<path class="st0" d="M222.7,51.1c-2,0-3.8,0-5.7-0.1c-0.3,0-0.6-0.7-0.7-1.1c-0.9-2.8-3.9-3.9-6.2-2.3c-0.9,0.7-1.7,1.8-2,2.9
				c-0.8,2.5-0.7,5.1-0.1,7.6c0.4,1.6,1.3,3,3,3.5c2.7,0.8,4.9-0.5,5.4-3.3c0.2-1.2,0.7-1.5,1.8-1.4c1.5,0.1,3.1,0,4.7,0
				c-0.1,2.9-1.2,5.2-3.3,6.8c-3.9,3.1-8.2,3.2-12.7,1.5c-4.3-1.7-6.1-5.3-6.3-9.7c-0.1-2.1,0.1-4.3,0.8-6.2c1.5-4.6,5.7-7.1,11.2-7
				c2.5,0,4.8,0.6,6.8,2.2C221.5,46.2,222.5,48.4,222.7,51.1z"/>
			<path class="st0" d="M99.2,47.8c-1,0-1.9-0.1-2.9-0.1c0-1.4,0-2.8,0-4.1c0-0.2,0.4-0.5,0.7-0.5c0.7-0.1,1.4,0,2.2,0
				c0-1.5,0.1-3,0-4.4c-0.1-1.1,0.3-1.4,1.4-1.4c1.4,0.1,2.8,0.1,4.3,0c0.8,0,1.1,0.3,1,1.1c0,1.5,0,3,0,4.7c1.5,0,2.9,0,4.4,0
				c0.9,0,1.2,0.3,1.1,1.1c-0.1,0.9-0.1,1.8,0,2.7c0,0.8-0.3,1-1,1c-1.5,0-2.9,0-4.5,0c0,1.4,0,2.7,0,4c0,2.2,0,4.5,0,6.7
				c0,2.5,0.8,3.2,3.3,3c0.6-0.1,1.3-0.2,2.1-0.3c0,1.3,0,2.6,0,3.8c0,0.3-0.4,0.7-0.7,0.8c-2.2,0.7-4.5,0.9-6.8,0.2
				c-2.6-0.9-4.3-2.7-4.4-5.5c-0.2-3.6-0.1-7.2-0.1-10.9C99.2,48.9,99.2,48.4,99.2,47.8z"/>
			<path class="st0" d="M88,54.3c0-3.4,0-6.8,0-10.2c0-0.9,0.3-1.2,1.2-1.2c1.5,0.1,3,0,4.5,0c0.7,0,1,0.2,1,1c0,7,0,13.9,0,20.9
				c0,0.8-0.3,1-1,1c-1.6,0-3.2,0-4.7,0c-0.8,0-1-0.3-1-1C88,61.3,88,57.8,88,54.3z"/>
			<path class="st0" d="M167.4,54.4c0,3.4,0,6.8,0,10.2c0,0.9-0.2,1.3-1.2,1.3c-1.5-0.1-3,0-4.5,0c-0.7,0-1.1-0.2-1.1-1
				c0-7,0-13.9,0-20.9c0-0.7,0.2-1,1-1c1.5,0,3.1,0.1,4.6,0c0.9,0,1.2,0.3,1.2,1.2C167.3,47.6,167.4,51,167.4,54.4z"/>
			<path class="st0" d="M195.9,65.9c-1.1-0.1-2.5,0.2-3.2-0.4c-0.6-0.5-0.2-2-0.3-3.1c0-3,0-3,3-3c1,0,2.1,0,3.1,0
				c0.6,0,0.8,0.2,0.8,0.8c0,1.6,0,3.1,0,4.7c0,0.7-0.3,0.9-0.9,0.8c-0.8,0-1.7,0-2.5,0C195.9,65.8,195.9,65.9,195.9,65.9z"/>
			<path class="st0" d="M164,34.7c1.1,0.1,2.6-0.2,3.2,0.4c0.6,0.5,0.2,2,0.2,3.1c0,2.6,0,2.6-2.5,2.6c-1.1,0-2.2,0-3.4,0
				c-0.6,0-0.9-0.3-0.9-0.9c0-1.4,0-2.9,0-4.3c0-0.3,0.5-0.7,0.8-0.8C162.3,34.7,163.1,34.8,164,34.7C164,34.8,164,34.7,164,34.7z"
				/>
			<path class="st0" d="M91.4,34.8c0.7,0,1.5,0,2.2,0c0.8-0.1,1.2,0.2,1.1,1.1c-0.1,1.4,0,2.8,0,4.1c0,0.6-0.2,0.8-0.8,0.8
				c-1.7,0-3.5,0-5.2,0c-0.6,0-0.8-0.3-0.8-0.8c0-1.5,0-2.9,0-4.4c0-0.6,0.2-0.8,0.8-0.8C89.6,34.8,90.5,34.8,91.4,34.8z"/>
			<path class="st0" d="M236.9,66.4c-8.8,0-13.4-5.6-12.5-13.8c0.9-7.3,6.3-11.2,14.2-10c5,0.7,8.1,4,8.9,9.1c0.5,3,0.3,6-1.1,8.8
				C244.4,64.8,240.6,66.3,236.9,66.4z M241,55c0-2.1-0.2-2.4-0.3-3.4c-0.1-0.6-0.3-1.2-0.5-1.8c-0.7-1.9-2.1-2.9-4.1-2.9
				c-2,0-3.5,0.9-4.2,2.9c-1,3.1-1.1,6.2,0,9.3c0.7,2,2.2,2.9,4.3,2.9c2.1,0,3.5-0.9,4.1-3C240.7,57.5,241,57.1,241,55z"/>
			<path class="st1" d="M29.5,44.2H17v-9.1c0-1.8,1.5-3.3,3.3-3.3h9.1V44.2z"/>
			<rect x="29.5" y="31.7" class="st2" width="12.5" height="12.5"/>
			<path class="st0" d="M54.5,44.2H42V31.7h9.1c1.8,0,3.3,1.5,3.3,3.3V44.2z"/>
			<rect x="17" y="44.2" class="st2" width="12.5" height="12.5"/>
			<rect x="29.5" y="44.2" class="st0" width="12.5" height="12.5"/>
			<rect x="42" y="44.2" class="st2" width="12.5" height="12.5"/>
			<path class="st0" d="M29.5,69.2h-9.1c-1.8,0-3.3-1.5-3.3-3.3v-9.1h12.5V69.2z"/>
			<rect x="29.5" y="56.7" class="st2" width="12.5" height="12.5"/>
			<path class="st1" d="M51.1,69.2H42V56.7h12.5v9.1C54.5,67.7,53,69.2,51.1,69.2z"/>
		</g>
	</g>
</g>
</svg>
