<?xml version="1.0" encoding="utf-8"?>
<!-- Generator: Adobe Illustrator 24.1.0, SVG Export Plug-In . SVG Version: 6.00 Build 0)  -->
<svg version="1.1" id="Ebene_1" xmlns="http://www.w3.org/2000/svg" xmlns:xlink="http://www.w3.org/1999/xlink" x="0px" y="0px"
	 width="300px" height="100px" viewBox="0 0 300 100" style="enable-background:new 0 0 300 100;" xml:space="preserve">
<style type="text/css">
	.st0{fill:#3d3939;}
</style>
<g id="_x31_iyGEl.tif">
	<g>
		<path class="st0" d="M284.3,17.5c-1.8,0.6-3.2,2-4.6,3.3c-2.8,2.7-4.9,5.8-6.9,9.1c-1.1,1.9-2.2,3.8-3.3,5.6
			c-0.6,1-1.6,1.3-2.5,1.7c-0.5,0.2-1.1,0.4-1.7,0.7c0.5,0.7,1,0.4,1.5,0.2c0.5-0.2,0.9-0.4,1.6-0.6c-0.2,0.5-0.2,0.7-0.3,0.9
			c-1.7,2.8-3.3,5.5-5,8.3c-2,3.3-4.4,6.4-7.3,9c-2.6,2.4-5.5,4.2-8.7,5.7c-6.4,2.9-13.2,3.5-20,3.4c-0.9,0-1.5,0.3-2.1,1
			c-2.5,3-4.3,6.4-5.9,10c-0.8,1.8-1.6,3.7-2.3,5.5c-0.2,0.6-0.4,1.2-0.6,1.7c-0.1,0-0.2,0-0.3,0c0.2-0.9,0.2-1.8,0.5-2.6
			c0.7-1.9,1.4-3.8,2.2-5.7c1.1-2.5,2.3-5,3.5-7.5c2-4.1,4.6-7.9,7.4-11.6c2-2.7,4.2-5.2,6.4-7.7c2.9-3.4,6.3-6.3,9.8-9.2
			c0.4-0.3,0.9-0.7,1.3-1c-0.1-0.1-0.2-0.2-0.3-0.4c-0.8,0.6-1.7,1.2-2.5,1.8c-4.9,3.7-9.5,7.8-13.5,12.4c-2.3,2.6-4.5,5.3-6.2,8.4
			c-0.3,0.5-0.4,1-0.7,1.6c-0.1,0.2-0.3,0.3-0.4,0.4c-0.1-0.1-0.3-0.3-0.4-0.4c-0.1-0.2-0.1-0.4-0.1-0.6c-0.2-3.3-0.3-6.7,0.5-9.9
			c0.6-2.6,1.6-5.1,3-7.5c2.6-4.5,6-8.1,10.3-11c2.6-1.8,5.4-3.5,8.2-5c2.3-1.2,4.8-2.1,7.3-3c2.6-1,5.3-1.8,8-2.6
			c2-0.6,4.1-1.1,6.1-1.6c1.9-0.4,3.7-0.9,5.6-1.3c1.9-0.4,3.8-0.7,5.6-1.1c1.8-0.3,3.7-0.7,5.5-1.1c0.3,0,0.6,0,0.9,0
			C284.5,16.9,284.3,17.2,284.3,17.5z"/>
		<path class="st0" d="M14.5,45.1c0.6-0.2,1.2-0.4,1.8-0.5c5.9,0,11.7,0,17.6,0c0.2,0,0.5,0,0.7-0.1c0.8-0.1,1.3,0.4,1.3,1.2
			c0,0.4,0,0.8,0,1.2c0,0.9-0.4,1.2-1.2,1.2c-4.8,0-9.6-0.1-14.4-0.2c-0.7,0-0.9,0.2-0.9,0.9c0,1,0,1.9,0,2.9c0,0.5,0.1,0.8,0.8,0.7
			c1.1-0.1,2.3-0.1,3.5-0.1c1.6,0,3.2,0,4.8,0c1,0,1.2,0.2,1.2,1.2c0,0.6,0,1.2,0,1.8c0,0.7-0.3,1.1-1,1.1c-2.5,0-5,0-7.6,0
			c-1.7,0-1.7-0.1-1.7,1.6c0,1.4,0.1,2.8,0.1,4.1c0,0.2-0.2,0.6-0.4,0.6c-1.6,0-3.2-0.1-4.8-0.1C14.5,56.8,14.5,51,14.5,45.1z"/>
		<path class="st0" d="M56.1,51.5c0,0.5,0,1,0,1.6c0,2.7,0,5.4,0,8c0,1.7,0,1.7-1.8,1.7c-1,0-2.1,0-3.1,0c-0.6,0-0.9-0.1-0.9-0.8
			c0-5.4,0-10.8,0-16.2c0-1,0.3-1.2,1.3-1.2c1.6,0,3.3,0,4.9,0.1c0.4,0,0.9,0.2,1.2,0.5c2.8,2.7,5.5,5.4,8.2,8.1
			c0.9,0.9,1.7,1.8,2.7,2.8c0-0.5,0.1-0.9,0.1-1.2c0-3.2-0.1-6.4-0.1-9.6c0-0.6,0.5-0.7,1-0.7c1.2,0,2.4,0,3.6,0
			c0.8,0,1.3,0.5,1.3,1.3c0,5.4,0,10.8,0,16.2c0,0.6-0.2,0.8-0.8,0.8c-1.9,0-3.8,0-5.7,0c-0.3,0-0.6-0.1-0.8-0.3
			c-3.4-3.3-6.7-6.7-10-10c-0.3-0.3-0.6-0.7-0.9-1C56.3,51.4,56.2,51.4,56.1,51.5z"/>
		<path class="st0" d="M154.4,53.1c1,0.3,1.7,0.5,2.4,0.8c2.2,1.1,2.9,2.9,2.4,5.1c-0.4,2-2.6,3.6-4.4,3.6c-5.8,0.1-11.5,0-17.3,0.1
			c-0.6,0-0.8-0.2-0.8-0.8c0-5.7,0-11.4,0-17c0-0.9,0.3-1.2,1.2-1c0.3,0.1,0.6,0.1,1,0.1c4.6,0,9.2,0,13.8,0c1.4,0,2.7,0.2,3.9,1
			c2.2,1.3,2.5,4.7,1.1,6.4c-0.4,0.5-1.2,0.8-1.8,1.2C155.5,52.8,155.1,52.9,154.4,53.1z M146.9,59.4
			C146.9,59.4,146.9,59.4,146.9,59.4c1.6,0,3.3,0.1,4.9,0c0.7-0.1,1.7-0.3,2.1-0.8c0.7-0.8,0.8-1.9,0.2-3c-0.5-0.8-1.3-1.1-2.2-1.1
			c-1.8,0-3.6,0-5.4,0c-1.5,0-3-0.1-4.4-0.1c-0.6,0-0.9,0.2-0.9,0.9c0,1.1,0,2.2,0,3.3c0,0.6,0.3,0.9,0.9,0.9
			C143.6,59.4,145.2,59.4,146.9,59.4z M147.1,47.1C147.1,47.1,147.1,47.1,147.1,47.1c-1.8,0-3.5,0-5.3,0c-0.6,0-0.8,0.2-0.8,0.8
			c0,1,0,2,0,3c0,0.5,0.2,0.7,0.7,0.7c3.5,0,7,0,10.5,0c1.1,0,2.4-1.4,2.3-2.4c-0.2-1.3-1.1-2.1-2.5-2.1
			C150.3,47.1,148.7,47.1,147.1,47.1z"/>
		<path class="st0" d="M89.7,62.8c-3.4,0-6.7,0-10.1,0c-0.9,0-1.1-0.2-1-1.1c0.1-0.5,0.1-1,0.1-1.4c0-4.2,0-8.3,0-12.5
			c0-0.6-0.1-1.2-0.1-1.9c-0.1-0.9,0.4-1.4,1.3-1.3c0.2,0,0.5,0,0.7,0c6,0,12,0,18,0c0.2,0,0.5,0,0.7,0c1-0.1,1.4,0.3,1.3,1.3
			c0,0.5,0,1.1,0,1.6c0.1,0.9-0.2,1.2-1.1,1.2c-4.2,0-8.3,0-12.5,0c-0.5,0-1.1-0.1-1.6-0.1c-0.6-0.1-0.9,0.2-0.9,0.7
			c0,0.1,0,0.2,0,0.2c0,2,0,2,1.9,2c2.3,0,4.7,0,7,0c0.7,0,1,0.3,1,1c0,0.9,0,1.7,0,2.6c0,0.9-0.4,1.1-1.2,1.1
			C90.7,56,88,56,85.3,55.9c-0.5,0-0.6,0.3-0.6,0.7c0,0.6,0,1.2,0,1.8c0,0.5,0.1,0.8,0.7,0.8c4.5,0,8.9,0,13.4,0
			c0.2,0,0.4,0,0.6-0.1c0.9-0.2,1.3,0.1,1.3,1.1c0,0.6,0,1.1,0,1.7c0.1,0.7-0.2,0.9-0.9,0.9C96.5,62.8,93.1,62.8,89.7,62.8
			C89.7,62.8,89.7,62.8,89.7,62.8z"/>
		<path class="st0" d="M194.8,54.1c-0.8-0.9-1.6-1.9-2.5-2.7c-1.9-1.9-3.9-3.7-5.9-5.5c-0.5-0.4-0.3-1.1,0.3-1.2
			c0.4-0.1,0.8,0,1.3,0c1.3,0,2.6,0,3.9,0c0.7,0,1.1,0.2,1.6,0.7c1.5,1.5,3.1,3.1,4.6,4.6c0.4,0.4,0.8,0.4,1.2-0.1
			c1.4-1.5,2.9-2.9,4.3-4.3c0.6-0.6,1.3-0.9,2.1-0.9c1.5,0,3-0.1,4.5-0.1c0.4,0,0.7,0.3,1.1,0.4c-0.2,0.4-0.3,0.8-0.5,1.1
			c-2.8,2.6-5.6,5.2-8.4,7.8c0,0,0,0.1,0,0.1c2,1.8,4,3.6,6,5.4c0.8,0.8,1.7,1.5,2.5,2.2c0.3,0.3,1.1,0.2,0.8,0.9
			c-0.1,0.3-0.8,0.3-1.3,0.3c-2,0-4,0-5.9,0c-0.4,0-0.8-0.2-1.1-0.4c-1.5-1.4-2.9-2.9-4.3-4.4c-0.2-0.2-0.8-0.1-1,0
			c-1.5,1.4-2.9,2.9-4.4,4.4c-0.2,0.2-0.5,0.4-0.8,0.4c-2.1,0-4.1,0-6.2,0c-0.3,0-0.5-0.2-0.8-0.3c0.2-0.2,0.3-0.5,0.5-0.7
			c0.9-0.8,1.9-1.6,2.9-2.5C191.1,57.6,193,55.8,194.8,54.1z"/>
		<path class="st0" d="M122.4,53.9c2.1,1.9,4.1,3.8,6.1,5.7c0.9,0.8,1.8,1.6,2.8,2.4c0.1,0.1,0.2,0.4,0.2,0.5c0,0.1-0.3,0.3-0.5,0.3
			c-2.2,0-4.4,0-6.6,0c-0.2,0-0.5-0.1-0.6-0.3c-1.5-1.5-3-3-4.4-4.5c-0.4-0.5-0.8-0.2-1.1,0.1c-1.4,1.5-2.9,2.9-4.3,4.4
			c-0.2,0.2-0.5,0.3-0.7,0.4c-2.4,0-4.7,0-7.1,0c-0.1,0-0.3-0.1-0.5-0.1c0.1-0.2,0.1-0.5,0.3-0.7c1.9-1.7,3.8-3.3,5.7-4.9
			c1.2-1,2.3-2.1,3.4-3.1c-0.6-0.7-1.2-1.4-1.9-2.1c-2.2-2-4.4-4-6.6-6c-0.3-0.2-0.3-0.7-0.5-1.3c0.8,0,1.3,0,1.8,0
			c1.3,0,2.6-0.1,3.9,0c0.7,0.1,1.5,0.3,1.9,0.8c1.6,1.4,3,2.9,4.5,4.4c0.4,0.4,0.7,0.5,1.1,0c1.6-1.6,3.2-3.2,4.9-4.8
			c0.3-0.3,0.7-0.4,1.1-0.5c1.6-0.1,3.2-0.1,4.8-0.1c0.4,0,0.9,0.2,1,0.5c0.2,0.4-0.1,0.7-0.4,1.1c-2.4,2.2-4.7,4.5-7.1,6.8
			C123.2,53.2,122.8,53.5,122.4,53.9z"/>
		<path class="st0" d="M173.3,43.7c4.9-0.2,9.7,4.1,9.7,9.5c0,5.2-4.1,9.1-8.5,9.6c-6.3,0.7-10.5-4.3-10.9-8.6
			C163.1,48.6,167.7,43.4,173.3,43.7z M173.3,48.3c-2.7-0.2-5.1,2.4-5,5c0.1,2.7,2.2,4.8,5,4.8c2.9,0,5-2.2,5.1-4.9
			C178.4,50.8,176.2,48.1,173.3,48.3z"/>
		<path class="st0" d="M40.2,53.6c0-2.5,0-5.1,0-7.6c0-1,0.5-1.4,1.4-1.4c1.1,0,2.2,0,3.3,0c0.8,0,1.1,0.3,1,1.1
			c0,1.2-0.1,2.3-0.1,3.5c0,3.7,0,7.4,0,11.1c0,0.5,0,1.1,0.1,1.6c0.1,0.6-0.1,0.9-0.7,0.9c-1.5,0-3,0-4.5,0c-0.3,0-0.7-0.4-0.7-0.6
			c0-2.8,0-5.7,0-8.5C40.1,53.6,40.1,53.6,40.2,53.6z"/>
	</g>
</g>
</svg>
