<svg width="878" height="710" viewBox="0 0 878 710" fill="none" xmlns="http://www.w3.org/2000/svg">
<g clip-path="url(#clip0_191_289)">
<g filter="url(#filter0_f_191_289)">
<ellipse cx="439" cy="355" rx="339" ry="255" fill="#F4CACB"/>
</g>
<path opacity="0.5" d="M579.881 318.83L670.971 292.77L579.881 266.74L609.101 214.16L556.521 243.37L530.461 152.27L504.431 243.37L451.851 214.16L481.031 266.74L389.961 292.77L481.031 318.83L451.851 371.41L504.431 342.2L530.461 433.27L556.521 342.2L609.101 371.41L579.881 318.83Z" fill="url(#paint0_linear_191_289)"/>
<path d="M447.969 370.24C447.969 370.24 506.809 362.24 522.059 321.57C537.309 280.9 497.059 263.6 485.019 275.25C472.979 286.9 481.549 298.9 481.549 298.9C481.549 298.9 500.009 321.51 535.159 294.37C570.309 267.23 538.869 216.98 538.869 216.98" stroke="#B61936" stroke-miterlimit="10" stroke-linecap="round" stroke-linejoin="round" stroke-dasharray="3 3"/>
<path d="M450.297 350.91C450.297 350.91 502.897 311.9 539.597 344.85C539.597 344.85 551.857 360.19 550.327 373.6C548.947 385.73 533.237 390.46 525.557 380.98C522.497 377.2 520.937 371.33 523.797 362.25C523.797 362.25 533.297 337.75 568.967 332.75" stroke="#B61936" stroke-miterlimit="10" stroke-linecap="round" stroke-linejoin="round" stroke-dasharray="3 3"/>
<path d="M450.297 357.8C450.297 357.8 484.077 351.13 504.187 379.13C524.297 407.13 509.627 436.75 542.207 441.08" stroke="#B61936" stroke-miterlimit="10" stroke-linecap="round" stroke-linejoin="round" stroke-dasharray="3 3"/>
<path d="M569.963 398.15C569.693 398.15 569.423 398.27 569.243 398.51C562.463 407.47 551.733 413.35 540.533 414.25C539.823 414.31 539.283 414.91 539.283 415.62C539.283 420.6 539.243 425.24 539.283 430.15C539.303 432.01 539.403 433.91 539.593 435.8H569.973V398.15H569.963Z" fill="#B61936"/>
<path d="M600.331 435.8C600.521 433.91 600.621 432.02 600.641 430.15C600.681 425.24 600.641 420.6 600.641 415.62C600.641 414.91 600.101 414.3 599.391 414.25C588.191 413.35 577.461 407.47 570.681 398.51C570.501 398.27 570.231 398.15 569.961 398.15V435.8H600.341H600.331Z" fill="#F7B2B6"/>
<path d="M569.963 435.8V473.45C570.183 473.45 570.393 473.32 570.463 473.07C571.363 469.87 573.273 467.33 576.463 465.77C580.483 463.81 585.693 461.79 589.373 459.27C593.803 456.24 596.733 451.38 598.303 446.25C599.323 442.9 599.983 439.36 600.333 435.8H569.953H569.963Z" fill="#B61936"/>
<path d="M539.58 435.8C539.93 439.35 540.59 442.9 541.61 446.25C543.18 451.38 546.12 456.24 550.54 459.27C554.23 461.8 559.44 463.81 563.45 465.77C566.64 467.33 568.55 469.87 569.45 473.07C569.52 473.32 569.74 473.45 569.95 473.45V435.8H539.57H539.58Z" fill="#F7B2B6"/>
<path d="M473.823 459.14C468.843 474.47 468.373 494.91 455.303 504.34C438.123 516.76 413.993 513.16 394.683 521.9C382.043 527.62 372.343 538.22 360.703 545.78C331.183 564.96 289.623 561.76 261.923 540.05C234.223 518.34 221.143 480.34 227.263 445.68C233.393 411.02 257.543 380.58 288.843 364.48C320.143 348.38 357.803 346.2 391.573 356.12C417.143 363.63 423.423 378.38 439.773 399.43C446.563 408.18 462.783 412.04 469.313 419.43C478.493 429.81 476.673 443.83 473.823 459.13" fill="#F8BEBF"/>
<path d="M331.231 493.43C335.021 499.56 342.991 502.05 350.161 501.32C357.331 500.6 364.911 498.47 371.721 496.09C383.641 491.92 389.941 487.46 400.061 480.26C410.181 473.05 432.461 449.89 438.761 439.18C440.571 436.11 476.761 417.86 473.821 415.84C471.911 414.53 467.591 409.81 453.451 412.95C420.221 420.34 314.731 465.72 331.241 493.43" fill="#94A5AA"/>
<path d="M457.872 469.37C464.772 481.68 471.682 493.99 478.582 506.3C482.382 504.4 486.402 502.93 490.532 501.91C485.762 488.08 482.632 473.69 481.232 459.13C472.992 462.26 464.932 465.84 457.102 469.86" fill="#F4A373"/>
<path d="M389.107 546.77C389.107 546.77 389.047 546.82 389.017 546.84C388.557 547.15 387.917 547.01 387.607 546.55C377.207 531.17 370.427 513.36 367.957 494.96C367.557 494.97 367.147 495 366.757 495.09C365.477 495.37 364.247 496.23 363.897 497.49C363.637 498.42 363.897 499.41 364.147 500.34C368.817 517.61 373.777 535.45 385.107 549.29C386.807 549.59 388.367 548.36 389.127 546.78L389.107 546.77Z" fill="#798184"/>
<path d="M388.931 489.9C388.771 488.27 386.051 489.06 384.481 489.56C379.041 491.31 373.281 492.86 367.961 494.95C370.391 513.49 377.201 531.45 387.671 546.94C387.981 547.4 388.621 547.55 389.081 547.23C393.211 544.47 396.111 539.93 396.861 535.01C397.951 527.78 394.681 519.84 398.031 513.35C399.301 510.88 401.541 508.36 400.661 505.73C399.941 503.57 397.501 502.63 395.551 501.46C391.481 499.01 389.141 494.81 388.941 490.06" fill="#ABB8C1"/>
<path d="M377.583 492.47C377.043 497.47 374.223 501.94 370.213 504.92C369.703 505.3 370.203 506.17 370.713 505.78C375.033 502.58 377.993 497.86 378.573 492.47C378.643 491.83 377.643 491.84 377.573 492.47H377.583Z" fill="#798184"/>
<path d="M386.591 523.4C389.731 522.61 393.251 523.36 395.621 525.61C396.091 526.05 396.801 525.35 396.331 524.9C393.691 522.4 389.811 521.56 386.331 522.44C385.711 522.6 385.971 523.56 386.601 523.4H386.591Z" fill="#798184"/>
<path d="M389.931 516.42C391.901 516.38 393.881 517.02 395.361 518.35C395.841 518.78 396.551 518.08 396.071 517.64C394.401 516.13 392.181 515.37 389.941 515.41C389.301 515.42 389.301 516.42 389.941 516.41L389.931 516.42Z" fill="#798184"/>
<path d="M393.734 511.35C395.054 511.79 396.244 512.57 397.154 513.65C397.324 513.86 397.684 513.83 397.864 513.65C398.064 513.45 398.044 513.15 397.864 512.94C396.854 511.74 395.484 510.88 394.004 510.39C393.744 510.31 393.454 510.49 393.384 510.74C393.314 511.01 393.474 511.27 393.734 511.36V511.35Z" fill="#798184"/>
<path d="M529.987 519.08C529.987 519.08 530.017 519.15 530.027 519.19C530.177 519.73 529.837 520.29 529.297 520.44C511.417 525.46 492.387 526.29 474.137 522.84C474.017 523.23 473.927 523.62 473.877 524.02C473.737 525.32 474.167 526.76 475.257 527.49C476.057 528.03 477.077 528.1 478.047 528.15C495.907 529.16 514.397 530.07 531.107 523.68C531.927 522.16 531.257 520.29 529.987 519.07V519.08Z" fill="#798184"/>
<path d="M475.959 501.33C474.359 500.97 474.249 503.8 474.239 505.45C474.179 511.17 473.839 517.12 474.159 522.83C492.519 526.37 511.709 525.56 529.719 520.5C530.259 520.35 530.589 519.79 530.449 519.25C529.129 514.46 525.729 510.27 521.299 508.02C514.779 504.7 506.219 505.31 501.109 500.08C499.169 498.09 497.479 495.18 494.699 495.18C492.429 495.18 490.769 497.2 489.039 498.68C485.429 501.78 480.709 502.67 476.139 501.36" fill="#ABB8C1"/>
<path d="M474.731 512.87C479.371 514.98 482.751 519.04 484.321 523.85C484.521 524.46 485.491 524.2 485.281 523.58C483.631 518.54 480.091 514.21 475.231 512C474.651 511.74 474.141 512.6 474.731 512.86V512.87Z" fill="#798184"/>
<path d="M507.023 514.08C507.263 510.85 509.113 507.75 511.993 506.21C512.563 505.91 512.053 505.04 511.493 505.35C508.293 507.06 506.293 510.51 506.033 514.08C505.983 514.72 506.983 514.72 507.033 514.08H507.023Z" fill="#798184"/>
<path d="M501.461 508.71C502.041 506.82 503.291 505.15 505.021 504.18C505.581 503.86 505.081 503 504.521 503.32C502.571 504.42 501.151 506.32 500.501 508.45C500.311 509.07 501.281 509.33 501.461 508.72V508.71Z" fill="#798184"/>
<path d="M497.85 503.5C498.23 502.98 498.77 502.44 499.31 502.02C499.51 501.86 499.84 501.64 500.11 501.49C500.26 501.4 500.42 501.32 500.57 501.24C500.72 501.16 500.88 501.09 501 501.04C501.25 500.94 501.43 500.71 501.35 500.42C501.28 500.18 500.99 499.97 500.73 500.07C499.22 500.68 497.95 501.69 496.98 502.99C496.82 503.21 496.94 503.55 497.16 503.67C497.42 503.82 497.68 503.71 497.84 503.49L497.85 503.5Z" fill="#798184"/>
<path opacity="0.46" d="M356.309 309.71L355.879 304.05C355.879 304.05 350.969 302.19 344.289 297.22L356.309 309.7V309.71Z" fill="#7F4924"/>
<path d="M335.338 299.7C337.928 293.33 338.918 286.74 339.718 279.91C340.208 275.73 340.258 271.17 337.898 267.68C334.938 263.31 328.248 262.06 323.908 265.06L316.008 272.04C316.008 272.04 317.658 284.29 329.608 292.32L335.358 302.71L335.338 299.69V299.7Z" fill="#92684B"/>
<path d="M355.883 304.05C356.293 309.52 356.753 315.34 357.163 320.81C362.533 321.43 365.723 320.98 370.253 323.91C374.263 326.5 376.373 331.84 375.313 336.49C374.423 340.41 371.313 343.55 367.733 345.38C364.153 347.21 360.103 347.9 356.113 348.4C348.223 349.4 340.113 349.77 332.383 347.86C329.503 347.15 326.643 346.09 324.303 344.25C321.973 342.41 320.203 339.69 320.023 336.73C319.803 333.12 321.953 329.69 324.793 327.44C327.633 325.19 331.493 323.47 334.893 322.23C335.113 311.6 334.643 299.81 333.633 289.23C330.463 288.69 327.553 286.28 326.713 283.18C325.873 280.07 327.193 276.46 329.943 274.78C332.693 273.11 336.643 273.67 338.673 276.17L336.863 247.75L366.233 239.72C375.143 247.27 378.683 260.85 376.283 272.45C376.073 273.47 376.293 274.54 376.843 275.42L379.653 280.29C379.873 280.67 379.743 281.16 379.363 281.39L376.513 283.07C376.213 283.28 376.043 283.62 376.043 283.99C376.023 289.95 374.963 295.75 373.143 301.44C372.523 303.36 371.683 305.41 369.913 306.4C368.153 307.38 366.023 307.36 364.063 306.88C356.933 305.13 350.113 301.6 344.233 297.2" fill="#F4A373"/>
<path d="M370.091 264.08C370.431 264.47 370.201 265.34 369.971 265.92C369.681 266.66 368.671 266.68 367.881 266.62C365.121 266.43 362.311 266.93 359.781 268.04C359.591 268.13 359.401 267.9 359.541 267.74C362.001 264.93 365.901 263.4 369.621 263.85L370.101 264.08H370.091Z" fill="#724B3B"/>
<path d="M333.944 276.03C331.634 275.61 329.404 277.35 328.674 279.46C327.924 281.62 328.804 284.03 330.644 285.33C330.904 285.52 331.154 285.08 330.894 284.9C329.274 283.75 328.514 281.62 329.114 279.71C329.714 277.8 331.734 276.13 333.814 276.5C334.124 276.56 334.264 276.08 333.944 276.02V276.03Z" fill="#2E3234"/>
<path d="M371.992 274.66C370.012 276.02 367.552 276.66 365.152 276.45C362.762 276.24 360.452 275.17 358.742 273.48C360.572 271.72 363.472 270.65 365.992 270.94C368.522 271.23 370.602 272.53 371.992 274.66Z" fill="white"/>
<path d="M371.863 274.45C367.813 277.16 362.423 276.69 358.913 273.31V273.66C360.723 271.96 363.313 270.95 365.803 271.18C368.293 271.41 370.403 272.75 371.773 274.79C371.953 275.06 372.384 274.81 372.204 274.54C370.774 272.39 368.573 270.99 365.993 270.7C363.413 270.41 360.503 271.49 358.563 273.31C358.463 273.4 358.473 273.57 358.563 273.66C362.223 277.19 367.883 277.71 372.113 274.88C372.383 274.7 372.133 274.27 371.863 274.45Z" fill="#2E3234"/>
<path d="M371.987 274.65C370.847 272.9 369.237 271.72 367.297 271.2L367.147 271.29C366.247 271.76 365.627 272.72 365.567 273.74C365.507 274.76 366.007 275.78 366.847 276.36L366.907 276.45C368.717 276.3 370.487 275.69 371.987 274.66V274.65Z" fill="#2E3234"/>
<path d="M372.199 274.53C371.199 273.02 369.799 271.84 368.099 271.2C367.899 271.13 367.709 271.06 367.509 271C367.309 270.94 367.229 270.96 367.049 271.06C366.689 271.27 366.369 271.51 366.099 271.83C365.539 272.5 365.239 273.38 365.339 274.26C365.399 274.74 365.559 275.21 365.819 275.63C365.949 275.83 366.099 276.03 366.269 276.2C366.399 276.33 366.599 276.44 366.689 276.58C366.739 276.65 366.819 276.71 366.909 276.7C368.769 276.54 370.559 275.92 372.109 274.88C372.379 274.7 372.129 274.27 371.859 274.45C370.379 275.45 368.679 276.05 366.909 276.2L367.129 276.32C367.019 276.16 366.879 276.07 366.729 275.94C366.529 275.76 366.369 275.56 366.229 275.33C365.949 274.86 365.799 274.32 365.819 273.78C365.839 273.24 366.039 272.74 366.349 272.31C366.639 271.91 367.009 271.66 367.429 271.41L367.239 271.44C369.129 271.97 370.699 273.15 371.779 274.78C371.959 275.05 372.389 274.8 372.209 274.53H372.199Z" fill="#2E3234"/>
<path d="M363.996 290.48C365.936 293.05 369.506 293.77 372.276 292.11C372.556 291.94 372.296 291.51 372.026 291.68C369.506 293.19 366.206 292.59 364.426 290.23C364.236 289.98 363.796 290.23 363.996 290.48Z" fill="#2E3234"/>
<path d="M346.148 258.97C344.638 259.83 343.248 260.83 342.368 262.35C341.368 264.08 340.948 266.1 340.578 268.04C339.548 273.44 339.508 275.47 339.168 276.51C339.068 276.82 338.858 276.63 338.858 276.63C338.088 274.08 335.438 271.59 335.438 271.59C313.108 272.29 329.608 292.32 329.608 292.32C327.468 291.28 325.538 289.84 323.878 288.33C320.058 284.87 317.228 280.46 315.328 275.66C313.008 269.81 311.698 263.99 313.278 257.65C313.628 256.27 314.078 254.92 314.658 253.62C316.288 249.98 318.908 246.89 322.218 244.67C325.098 242.73 328.458 241.71 331.268 239.67C335.688 236.46 339.928 232.97 344.248 229.62C347.278 227.27 350.408 224.87 354.108 223.88C358.098 222.82 362.378 223.53 366.238 225.01C371.698 227.09 376.558 230.7 380.138 235.32C381.848 237.53 383.308 240.1 383.378 242.89C383.478 247.36 379.888 251.22 375.768 252.95C371.648 254.68 367.058 254.75 362.598 254.96C360.848 255.04 359.088 255.15 357.348 255.4C356.138 255.57 354.928 255.81 353.748 256.15C352.568 256.49 351.818 256.58 350.688 257.04C350.688 257.04 347.038 258.45 346.138 258.97H346.148Z" fill="#92684B"/>
<path opacity="0.46" d="M356.347 310.15L355.877 304.05C355.877 304.05 350.577 302.05 343.367 296.71L356.347 310.15Z" fill="#7F4924"/>
<path d="M380.577 356.89C384.317 379.97 387.227 401.46 403.837 417.92C405.907 419.97 408.127 421.98 410.857 422.99C414.827 424.45 419.357 423.55 423.087 421.54C426.807 419.53 429.887 416.53 432.897 413.56C421.967 402.31 410.587 390.26 407.047 374.97C405.087 366.51 402.487 358.01 399.187 349.98C394.397 338.32 388.907 328.54 376.297 324.26C369.297 321.95 367.537 321.58 357.147 320.81C358.387 321.18 358.817 321.4 359.797 322.26C360.777 323.12 360.807 324.47 360.247 325.64C359.997 326.16 359.577 326.59 359.087 326.9C357.037 328.2 354.717 329.01 352.327 329.37C346.597 330.24 340.557 330.95 334.897 329.46C333.727 329.15 332.477 328.67 331.877 327.62C331.117 326.31 331.717 324.59 332.807 323.54C332.947 323.41 334.897 322.22 334.897 322.22L331.777 322.37C331.297 322.37 330.807 322.39 330.327 322.43C321.757 323.14 316.347 324.87 310.637 328.27C306.027 331.02 301.877 334.46 298.187 338.36C290.157 347.28 284.027 367.42 280.957 383.38C275.717 410.68 274.417 438.72 277.097 466.39C277.267 468.48 279.157 470.03 281.237 469.75C288.467 468.76 295.597 467.41 302.627 465.76C335.557 458.04 366.477 443.77 396.597 429.19C398.587 428.22 400.717 427.1 401.667 425.1C402.537 423.26 402.187 421.1 401.807 419.1C397.637 397.51 390.467 376.5 380.577 356.87" fill="#B61936"/>
<mask id="mask0_191_289" style="mask-type:luminance" maskUnits="userSpaceOnUse" x="275" y="320" width="158" height="150">
<path d="M380.577 356.89C384.317 379.97 387.227 401.46 403.837 417.92C405.907 419.97 408.127 421.98 410.857 422.99C414.827 424.45 419.357 423.55 423.087 421.54C426.807 419.53 429.887 416.53 432.897 413.56C421.967 402.31 410.587 390.26 407.047 374.97C405.087 366.51 402.487 358.01 399.187 349.98C394.397 338.32 388.907 328.54 376.297 324.26C369.297 321.95 367.537 321.58 357.147 320.81C358.387 321.18 358.817 321.4 359.797 322.26C360.777 323.12 360.807 324.47 360.247 325.64C359.997 326.16 359.577 326.59 359.087 326.9C357.037 328.2 354.717 329.01 352.327 329.37C346.597 330.24 340.557 330.95 334.897 329.46C333.727 329.15 332.477 328.67 331.877 327.62C331.117 326.31 331.717 324.59 332.807 323.54C332.947 323.41 334.897 322.22 334.897 322.22L331.777 322.37C331.297 322.37 330.807 322.39 330.327 322.43C321.757 323.14 316.347 324.87 310.637 328.27C306.027 331.02 301.877 334.46 298.187 338.36C290.157 347.28 284.027 367.42 280.957 383.38C275.717 410.68 274.417 438.72 277.097 466.39C277.267 468.48 279.157 470.03 281.237 469.75C288.467 468.76 295.597 467.41 302.627 465.76C335.557 458.04 366.477 443.77 396.597 429.19C398.587 428.22 400.717 427.1 401.667 425.1C402.537 423.26 402.187 421.1 401.807 419.1C397.637 397.51 390.467 376.5 380.577 356.87" fill="white"/>
</mask>
<g mask="url(#mask0_191_289)">
<path d="M329.448 320.8C327.248 320.74 325.298 322.21 324.388 324.16C323.478 326.11 323.718 328.51 324.808 330.44C327.438 335.1 333.168 336.18 338.028 336.78C343.278 337.43 348.638 337.37 353.828 336.3C356.358 335.78 358.838 335 361.208 333.95C363.438 332.96 365.768 331.76 367.508 330.01C369.418 328.09 370.088 325.51 368.918 323C367.648 320.3 364.898 318.86 362.318 317.67C361.738 317.4 361.228 318.27 361.818 318.53C363.948 319.51 366.248 320.61 367.578 322.64C368.908 324.67 368.838 326.91 367.318 328.74C365.898 330.46 363.818 331.59 361.848 332.55C359.758 333.57 357.558 334.36 355.308 334.93C350.748 336.09 345.998 336.39 341.308 336.08C338.908 335.92 336.498 335.64 334.138 335.13C331.828 334.64 329.458 333.85 327.648 332.29C325.838 330.73 324.488 328.45 324.838 326.05C325.168 323.8 327.078 321.72 329.448 321.78C330.088 321.8 330.088 320.8 329.448 320.78V320.8Z" fill="#ABB8C1"/>
<path d="M324.695 326.77C326.025 326.64 327.355 326.51 328.685 326.38C328.955 326.35 329.185 326.17 329.185 325.88C329.185 325.63 328.955 325.35 328.685 325.38C327.355 325.51 326.025 325.64 324.695 325.77C324.425 325.8 324.195 325.98 324.195 326.27C324.195 326.52 324.425 326.8 324.695 326.77Z" fill="#ABB8C1"/>
<path d="M327.364 332.75C328.564 331.94 329.694 331.03 330.734 330.02C330.924 329.83 330.924 329.5 330.734 329.31C330.544 329.12 330.224 329.12 330.024 329.31C329.034 330.27 327.984 331.11 326.854 331.88C326.634 332.03 326.534 332.32 326.674 332.56C326.804 332.78 327.134 332.89 327.354 332.74L327.364 332.75Z" fill="#ABB8C1"/>
<path d="M333.504 335.35C334.064 334.1 334.624 332.85 335.184 331.61C335.294 331.36 335.254 331.07 335.004 330.93C334.794 330.81 334.434 330.86 334.324 331.11C333.764 332.36 333.204 333.61 332.644 334.85C332.534 335.1 332.574 335.39 332.824 335.53C333.034 335.65 333.394 335.6 333.504 335.35Z" fill="#ABB8C1"/>
<path d="M341.066 336.48C341.376 334.97 341.676 333.45 341.986 331.94C342.036 331.68 341.906 331.4 341.636 331.32C341.386 331.25 341.076 331.4 341.016 331.67C340.706 333.18 340.406 334.7 340.096 336.21C340.046 336.47 340.176 336.75 340.446 336.83C340.696 336.9 341.006 336.75 341.066 336.48Z" fill="#ABB8C1"/>
<path d="M348.476 336.34C348.516 334.84 348.506 333.34 348.446 331.84C348.426 331.2 347.426 331.2 347.446 331.84C347.506 333.34 347.506 334.84 347.476 336.34C347.456 336.98 348.456 336.98 348.476 336.34Z" fill="#ABB8C1"/>
<path d="M355.707 335.21C355.387 333.74 355.077 332.27 354.757 330.8C354.697 330.54 354.387 330.38 354.137 330.45C353.867 330.53 353.727 330.8 353.787 331.07C354.107 332.54 354.417 334.01 354.737 335.48C354.797 335.74 355.107 335.9 355.357 335.83C355.627 335.75 355.767 335.48 355.707 335.21Z" fill="#ABB8C1"/>
<path d="M362.223 332.7C361.893 332.06 361.563 331.42 361.233 330.78L360.743 329.84C360.613 329.59 360.393 329.3 360.383 329.01C360.373 328.74 360.163 328.51 359.883 328.51C359.623 328.51 359.373 328.74 359.383 329.01C359.403 329.43 359.593 329.77 359.773 330.13L360.293 331.14C360.643 331.83 361.003 332.51 361.353 333.2C361.473 333.44 361.813 333.51 362.033 333.38C362.273 333.24 362.333 332.94 362.213 332.7H362.223Z" fill="#ABB8C1"/>
<path d="M368.674 326.73C366.894 325.93 365.074 325.22 363.224 324.61C362.614 324.41 362.344 325.37 362.954 325.57C364.724 326.15 366.464 326.83 368.164 327.59C368.414 327.7 368.704 327.66 368.844 327.41C368.974 327.2 368.914 326.84 368.664 326.73H368.674Z" fill="#ABB8C1"/>
<path d="M329.446 320.8C327.246 320.74 325.296 322.21 324.386 324.16C323.426 326.2 323.716 328.51 324.806 330.44C327.436 335.1 333.166 336.18 338.026 336.78C343.276 337.43 348.636 337.37 353.826 336.3C356.356 335.78 358.836 335 361.206 333.95C363.436 332.96 365.766 331.76 367.506 330.01C369.416 328.09 370.086 325.51 368.916 323C367.646 320.3 364.896 318.86 362.316 317.67C361.736 317.4 361.226 318.27 361.816 318.53C363.946 319.51 366.246 320.61 367.576 322.64C368.906 324.67 368.836 326.91 367.316 328.74C365.896 330.46 363.816 331.59 361.846 332.55C359.756 333.57 357.556 334.36 355.306 334.93C350.746 336.09 345.996 336.39 341.306 336.08C338.906 335.92 336.496 335.64 334.136 335.13C331.776 334.62 329.456 333.85 327.646 332.29C325.836 330.73 324.486 328.45 324.836 326.05C325.166 323.8 327.076 321.72 329.446 321.78C330.086 321.8 330.086 320.8 329.446 320.78V320.8Z" fill="#DB546A"/>
<path d="M324.695 326.77C326.025 326.64 327.355 326.51 328.685 326.38C328.955 326.35 329.185 326.17 329.185 325.88C329.185 325.63 328.955 325.35 328.685 325.38C327.355 325.51 326.025 325.64 324.695 325.77C324.425 325.8 324.195 325.98 324.195 326.27C324.195 326.52 324.425 326.8 324.695 326.77Z" fill="#DB546A"/>
<path d="M327.364 332.75C328.564 331.94 329.694 331.03 330.734 330.02C330.924 329.83 330.924 329.5 330.734 329.31C330.544 329.12 330.224 329.12 330.024 329.31C329.034 330.27 327.984 331.11 326.854 331.88C326.634 332.03 326.534 332.32 326.674 332.56C326.804 332.78 327.134 332.89 327.354 332.74L327.364 332.75Z" fill="#DB546A"/>
<path d="M333.504 335.35C334.064 334.1 334.624 332.85 335.184 331.61C335.294 331.36 335.254 331.07 335.004 330.93C334.794 330.81 334.434 330.86 334.324 331.11C333.764 332.36 333.204 333.61 332.644 334.85C332.534 335.1 332.574 335.39 332.824 335.53C333.034 335.65 333.394 335.6 333.504 335.35Z" fill="#DB546A"/>
<path d="M341.066 336.48C341.376 334.97 341.676 333.45 341.986 331.94C342.036 331.68 341.906 331.4 341.636 331.32C341.386 331.25 341.076 331.4 341.016 331.67C340.706 333.18 340.406 334.7 340.096 336.21C340.046 336.47 340.176 336.75 340.446 336.83C340.696 336.9 341.006 336.75 341.066 336.48Z" fill="#DB546A"/>
<path d="M348.476 336.34C348.516 334.84 348.506 333.34 348.446 331.84C348.426 331.2 347.426 331.2 347.446 331.84C347.506 333.34 347.506 334.84 347.476 336.34C347.456 336.98 348.456 336.98 348.476 336.34Z" fill="#DB546A"/>
<path d="M355.707 335.21C355.387 333.74 355.077 332.27 354.757 330.8C354.697 330.54 354.387 330.38 354.137 330.45C353.867 330.53 353.727 330.8 353.787 331.07C354.107 332.54 354.417 334.01 354.737 335.48C354.797 335.74 355.107 335.9 355.357 335.83C355.627 335.75 355.767 335.48 355.707 335.21Z" fill="#DB546A"/>
<path d="M362.229 332.7C361.859 331.98 361.519 331.24 361.169 330.51C360.889 329.92 360.569 329.35 360.319 328.75C360.209 328.5 359.849 328.45 359.639 328.57C359.379 328.72 359.349 329.01 359.459 329.25C359.719 329.85 360.029 330.42 360.309 331.01C360.659 331.74 360.999 332.48 361.369 333.2C361.489 333.44 361.829 333.51 362.049 333.38C362.289 333.24 362.349 332.94 362.229 332.7Z" fill="#DB546A"/>
<path d="M368.674 326.73C366.894 325.93 365.074 325.22 363.224 324.61C362.614 324.41 362.344 325.37 362.954 325.57C364.724 326.15 366.464 326.83 368.164 327.59C368.414 327.7 368.704 327.66 368.844 327.41C368.974 327.2 368.914 326.84 368.664 326.73H368.674Z" fill="#DB546A"/>
</g>
<path d="M378.373 362.5C380.413 377.12 384.373 391.46 390.123 405.05C391.753 408.91 393.533 412.71 395.453 416.44C395.743 417.01 396.613 416.51 396.313 415.94C389.573 402.82 384.583 388.82 381.483 374.39C380.623 370.36 379.903 366.31 379.333 362.23C379.243 361.6 378.283 361.87 378.373 362.5Z" fill="#DB546A"/>
<path d="M452.861 415.2C458.061 411.84 464.911 411.2 470.641 413.52C476.371 415.84 480.831 421.09 482.221 427.12C483.821 434.09 482.501 441.96 478.421 447.84C469.081 461.26 460.451 469.3 447.921 480.6C435.751 491.57 418.691 504.03 404.821 513.26C404.081 513.75 403.111 513.7 402.431 513.12C393.741 505.77 389.701 499.97 384.081 490.01C383.671 489.29 383.751 488.4 384.271 487.76C406.211 461.15 448.131 421.6 452.791 415.57" fill="#CBDBE8"/>
<mask id="mask1_191_289" style="mask-type:luminance" maskUnits="userSpaceOnUse" x="383" y="412" width="100" height="102">
<path d="M452.861 415.2C458.061 411.84 464.911 411.2 470.641 413.52C476.371 415.84 480.831 421.09 482.221 427.12C483.821 434.09 482.501 441.96 478.421 447.84C469.081 461.26 460.451 469.3 447.921 480.6C435.751 491.57 418.691 504.03 404.821 513.26C404.081 513.75 403.111 513.7 402.431 513.12C393.741 505.77 389.701 499.97 384.081 490.01C383.671 489.29 383.751 488.4 384.271 487.76C406.211 461.15 448.131 421.6 452.791 415.57" fill="white"/>
</mask>
<g mask="url(#mask1_191_289)">
<path d="M385.853 481.34C390.483 491.8 397.503 501.18 406.203 508.6C408.633 510.67 411.193 512.59 413.863 514.34C414.403 514.69 414.903 513.83 414.363 513.48C404.903 507.27 396.893 498.92 391.063 489.22C389.443 486.52 387.993 483.72 386.713 480.84C386.453 480.25 385.593 480.76 385.853 481.34Z" fill="#9CA8AF"/>
</g>
<path d="M444.352 321.59L436.382 390.18L368.422 403.39C369.282 407.83 373.582 410.72 378.012 409.86L442.362 397.26C443.212 397.09 443.862 396.39 443.962 395.53L451.522 330.67C452.042 326.18 448.832 322.12 444.342 321.6L444.352 321.59Z" fill="#798184"/>
<path d="M378.742 388.6C381.982 387.48 385.712 386.51 388.912 385.34C394.292 383.52 401.342 382.83 407.022 383.09C412.702 383.35 417.052 384.74 420.752 389.06C421.092 389.45 421.422 389.91 421.392 390.43C421.332 391.33 420.152 391.78 419.292 391.5C418.432 391.22 417.802 390.5 417.102 389.92C415.432 388.51 414.972 387.89 411.042 387.56L413.642 387.89C415.082 388.53 415.092 389.71 414.892 390.77C414.792 391.3 414.412 391.65 413.932 391.89C413.152 392.28 412.232 392.28 411.392 392.05L410.502 391.81C412.952 392.73 413.062 393.2 412.942 394.54C412.822 395.88 411.442 396.96 410.092 396.94L407.192 395.48C408.352 395.89 408.212 395.74 409.362 396.88C410.022 397.54 410.232 398.58 409.752 399.39C409.192 400.33 408.272 401 407.332 401.58C406.602 402.03 405.802 402.45 404.942 402.41C404.082 402.37 403.212 401.66 403.282 400.81C403.322 400.34 403.612 399.73 403.952 399.4C404.382 398.99 404.482 398.87 404.962 398.58L406.542 398.81C405.572 398.87 405.352 398.89 404.462 398.5C403.202 400.32 399.642 400.97 397.432 401.14C395.222 401.31 393.002 400.99 390.802 401.17C388.592 401.35 386.212 401.33 383.692 402.24" fill="#F4A373"/>
<mask id="mask2_191_289" style="mask-type:luminance" maskUnits="userSpaceOnUse" x="378" y="383" width="44" height="20">
<path d="M378.742 388.6C381.982 387.48 385.712 386.51 388.912 385.34C394.292 383.52 401.342 382.83 407.022 383.09C412.702 383.35 417.052 384.74 420.752 389.06C421.092 389.45 421.422 389.91 421.392 390.43C421.332 391.33 420.152 391.78 419.292 391.5C418.432 391.22 417.802 390.5 417.102 389.92C415.432 388.51 414.972 387.89 411.042 387.56L413.642 387.89C415.082 388.53 415.092 389.71 414.892 390.77C414.792 391.3 414.412 391.65 413.932 391.89C413.152 392.28 412.232 392.28 411.392 392.05L410.502 391.81C412.952 392.73 413.062 393.2 412.942 394.54C412.822 395.88 411.442 396.96 410.092 396.94L407.192 395.48C408.352 395.89 408.212 395.74 409.362 396.88C410.022 397.54 410.232 398.58 409.752 399.39C409.192 400.33 408.272 401 407.332 401.58C406.602 402.03 405.802 402.45 404.942 402.41C404.082 402.37 403.212 401.66 403.282 400.81C403.322 400.34 403.612 399.73 403.952 399.4C404.382 398.99 404.482 398.87 404.962 398.58L406.542 398.81C405.572 398.87 405.352 398.89 404.462 398.5C403.202 400.32 399.642 400.97 397.432 401.14C395.222 401.31 393.002 400.99 390.802 401.17C388.592 401.35 386.212 401.33 383.692 402.24" fill="white"/>
</mask>
<g mask="url(#mask2_191_289)">
<path d="M403.052 398C403.962 398.3 404.842 398.65 405.752 398.91C406.062 399 406.192 398.52 405.882 398.43C404.962 398.17 404.082 397.81 403.182 397.52C402.872 397.42 402.742 397.9 403.052 398Z" fill="#8E5C49"/>
<path d="M404.795 394.89C405.425 394.92 406.055 395.01 406.665 395.19C407.305 395.39 407.955 395.72 408.295 396.32C408.455 396.6 408.885 396.35 408.725 396.07C407.965 394.75 406.175 394.47 404.795 394.39C404.475 394.37 404.475 394.87 404.795 394.89Z" fill="#8E5C49"/>
<path d="M407.381 391.12C408.461 391.06 409.491 391.39 410.371 392C410.641 392.18 410.891 391.75 410.621 391.57C409.671 390.92 408.531 390.56 407.381 390.62C407.061 390.64 407.061 391.14 407.381 391.12Z" fill="#8E5C49"/>
<path d="M408.709 387.08C410.359 386.9 411.999 387.36 413.379 388.28C413.649 388.46 413.899 388.03 413.629 387.85C412.189 386.89 410.439 386.4 408.709 386.59C408.389 386.62 408.389 387.13 408.709 387.09V387.08Z" fill="#8E5C49"/>
</g>
<path d="M339.173 383.06C355.403 386.33 366.323 386.81 384.073 385.93C386.013 392.14 387.092 399.06 386.253 405.51C370.993 410.64 356.062 412.91 339.962 412.96C331.232 412.99 322.233 412.18 314.453 408.22C306.673 404.26 300.302 396.56 300.062 387.83C300.062 387.83 296.923 364.44 298.753 352.6C300.583 340.77 320.083 335.87 326.923 349.23C333.753 362.6 333.753 380.29 333.753 380.29C333.753 380.29 334.863 382.19 339.173 383.05V383.06Z" fill="#B61936"/>
<mask id="mask3_191_289" style="mask-type:luminance" maskUnits="userSpaceOnUse" x="298" y="341" width="89" height="72">
<path d="M339.173 383.06C355.403 386.33 366.323 386.81 384.073 385.93C386.013 392.14 387.092 399.06 386.253 405.51C370.993 410.64 356.062 412.91 339.962 412.96C331.232 412.99 322.233 412.18 314.453 408.22C306.673 404.26 300.302 396.56 300.062 387.83C300.062 387.83 296.923 364.44 298.753 352.6C300.583 340.77 320.083 335.87 326.923 349.23C333.753 362.6 333.753 380.29 333.753 380.29C333.753 380.29 334.863 382.19 339.173 383.05V383.06Z" fill="white"/>
</mask>
<g mask="url(#mask3_191_289)">
<path d="M326.909 382.85C329.129 381.55 331.449 380.76 334.029 380.8C335.819 380.83 337.549 381.02 339.269 380.39C339.869 380.17 339.609 379.2 338.999 379.43C337.239 380.07 335.469 379.79 333.639 379.8C331.029 379.8 328.629 380.67 326.399 381.99C325.839 382.32 326.349 383.18 326.899 382.85H326.909Z" fill="#DB546A"/>
<path d="M327.701 387.28C328.721 385.12 330.201 383.46 332.361 382.42C334.161 381.56 336.101 381.04 337.801 379.97C338.341 379.63 337.841 378.76 337.301 379.11C335.531 380.22 333.511 380.74 331.651 381.66C329.451 382.76 327.881 384.56 326.841 386.77C326.571 387.35 327.431 387.86 327.701 387.27V387.28Z" fill="#DB546A"/>
<path d="M381.358 388.89C383.048 389.13 384.768 388.98 386.378 388.41C386.628 388.32 386.798 388.07 386.728 387.79C386.658 387.54 386.368 387.35 386.108 387.44C384.668 387.95 383.128 388.13 381.618 387.92C381.348 387.88 381.078 387.99 380.998 388.27C380.938 388.5 381.078 388.85 381.348 388.89H381.358Z" fill="#DB546A"/>
<path d="M380.998 391.63C382.948 391.72 384.888 391.56 386.798 391.17C387.428 391.04 387.158 390.08 386.528 390.21C384.708 390.58 382.848 390.72 380.988 390.63C380.348 390.6 380.348 391.6 380.988 391.63H380.998Z" fill="#DB546A"/>
<path d="M382 394.61C383.64 394.78 385.29 394.65 386.89 394.27C387.52 394.12 387.25 393.15 386.62 393.31C385.11 393.68 383.55 393.78 382 393.62C381.73 393.59 381.5 393.87 381.5 394.12C381.5 394.41 381.73 394.59 382 394.62V394.61Z" fill="#DB546A"/>
<path d="M381.996 398.19C383.916 398.11 385.826 397.87 387.716 397.5C388.346 397.37 388.076 396.41 387.446 396.54C385.646 396.9 383.826 397.12 381.996 397.2C381.356 397.23 381.356 398.23 381.996 398.2V398.19Z" fill="#DB546A"/>
<path d="M383.089 401.46C384.669 401.52 386.249 401.4 387.809 401.11C388.079 401.06 388.229 400.74 388.159 400.49C388.079 400.21 387.809 400.09 387.539 400.14C386.069 400.41 384.579 400.51 383.089 400.46C382.449 400.44 382.449 401.44 383.089 401.46Z" fill="#DB546A"/>
<path d="M382.258 405.47C384.148 405.25 386.038 405.03 387.928 404.8C388.198 404.77 388.428 404.59 388.428 404.3C388.428 404.05 388.198 403.77 387.928 403.8C386.038 404.02 384.148 404.24 382.258 404.47C381.988 404.5 381.758 404.68 381.758 404.97C381.758 405.22 381.988 405.5 382.258 405.47Z" fill="#DB546A"/>
</g>
<path d="M426.249 440.27C435.309 448.6 451.919 479.92 469.959 503.37C470.499 504.08 471.459 504.33 472.289 504C484.729 499.03 491.519 494.72 499.759 484.1C500.259 483.46 500.309 482.57 499.909 481.87C487.099 459.81 472.469 438.82 456.209 419.17C452.269 414.41 448.179 409.68 443.159 406.08C438.139 402.48 432.009 400.09 425.849 400.57C420.819 400.96 416.149 403.2 411.619 405.42C386.219 417.89 360.499 429.73 335.229 442.47C325.379 447.44 315.489 452.45 306.109 458.28C304.729 459.14 303.379 460.04 302.029 460.93C299.629 462.51 297.749 464.78 296.769 467.48C295.319 471.51 294.959 476.09 295.389 480.19C295.929 485.32 297.819 490.34 300.999 494.42C307.939 503.31 319.739 505.7 331.349 503.95C341.069 502.48 347.739 500.04 355.559 496.09C390.049 478.66 416.509 446.25 424.399 440.19C424.959 439.76 425.729 439.8 426.249 440.27Z" fill="#CBDBE8"/>
<mask id="mask4_191_289" style="mask-type:luminance" maskUnits="userSpaceOnUse" x="295" y="400" width="206" height="105">
<path d="M426.249 440.27C435.309 448.6 451.919 479.92 469.959 503.37C470.499 504.08 471.459 504.33 472.289 504C484.729 499.03 491.519 494.72 499.759 484.1C500.259 483.46 500.309 482.57 499.909 481.87C487.099 459.81 472.469 438.82 456.209 419.17C452.269 414.41 448.179 409.68 443.159 406.08C438.139 402.48 432.009 400.09 425.849 400.57C420.819 400.96 416.149 403.2 411.619 405.42C386.219 417.89 360.499 429.73 335.229 442.47C325.379 447.44 315.489 452.45 306.109 458.28C304.729 459.14 303.379 460.04 302.029 460.93C299.629 462.51 297.749 464.78 296.769 467.48C295.319 471.51 294.959 476.09 295.389 480.19C295.929 485.32 297.819 490.34 300.999 494.42C307.939 503.31 319.739 505.7 331.349 503.95C341.069 502.48 347.739 500.04 355.559 496.09C390.049 478.66 416.509 446.25 424.399 440.19C424.959 439.76 425.729 439.8 426.249 440.27Z" fill="white"/>
</mask>
<g mask="url(#mask4_191_289)">
<path d="M421.999 436.17C424.379 439.17 425.899 442.83 426.349 446.63C426.419 447.26 427.429 447.27 427.349 446.63C426.869 442.54 425.269 438.69 422.699 435.46C422.299 434.96 421.599 435.67 421.989 436.17H421.999Z" fill="#9CA8AF"/>
<path d="M424.055 430.37C425.135 435.14 425.445 440.03 424.995 444.9C424.935 445.54 425.935 445.54 425.995 444.9C426.445 439.95 426.115 434.96 425.015 430.11C424.875 429.48 423.905 429.75 424.055 430.38V430.37Z" fill="#9CA8AF"/>
<path d="M428.913 433.22C426.773 438.22 424.623 443.21 422.483 448.21C422.233 448.8 423.093 449.31 423.343 448.71C425.483 443.71 427.633 438.72 429.773 433.72C430.023 433.13 429.163 432.62 428.913 433.22Z" fill="#9CA8AF"/>
<path d="M461.683 499.31C468.093 498.28 474.283 496.05 479.923 492.83C485.583 489.6 490.703 485.39 494.913 480.42C497.283 477.63 499.363 474.61 501.113 471.39C501.423 470.82 500.553 470.32 500.253 470.89C497.183 476.52 493.083 481.54 488.243 485.74C483.403 489.94 477.843 493.27 471.873 495.55C468.493 496.84 464.993 497.78 461.413 498.35C460.783 498.45 461.053 499.42 461.683 499.31Z" fill="#9CA8AF"/>
<path d="M329.686 442.12C332.366 445.69 333.776 450.12 333.636 454.59C333.506 458.8 331.906 462.91 329.226 466.16C327.746 467.96 325.956 469.48 323.946 470.65C323.386 470.97 323.896 471.84 324.446 471.51C328.206 469.33 331.236 465.93 332.976 461.94C334.796 457.75 335.126 453.05 333.956 448.63C333.286 446.1 332.136 443.71 330.556 441.61C330.176 441.1 329.306 441.6 329.696 442.11L329.686 442.12Z" fill="#9CA8AF"/>
</g>
<path d="M426.568 440.46C433.178 449.67 439.628 458.99 445.908 468.42C447.668 471.07 449.418 473.72 451.158 476.39C451.508 476.93 452.378 476.43 452.018 475.89C445.828 466.4 439.478 457.01 432.958 447.74C431.128 445.14 429.288 442.55 427.438 439.97C427.068 439.45 426.198 439.95 426.578 440.47L426.568 440.46Z" fill="#9CA8AF"/>
<path d="M452.473 415.81C458.933 424.31 465.393 432.82 471.853 441.32C473.683 443.74 475.523 446.15 477.353 448.57C477.733 449.08 478.603 448.57 478.213 448.07C471.753 439.57 465.293 431.06 458.833 422.56C457.003 420.14 455.163 417.73 453.333 415.31C452.953 414.8 452.083 415.31 452.473 415.81Z" fill="#9CA8AF"/>
<path d="M330.767 241.62C326.557 240.84 322.007 242.35 318.407 244.47C316.627 245.52 314.927 246.82 313.627 248.44C312.107 250.33 311.117 252.68 310.417 254.98C308.877 260.05 309.037 265.34 310.547 270.38C311.927 274.96 314.227 279.23 317.237 282.95C320.617 287.14 324.917 290.59 329.787 292.91C330.367 293.19 330.877 292.32 330.287 292.05C322.007 288.09 315.427 280.84 312.227 272.24C310.497 267.6 309.797 262.7 310.747 257.79C311.237 255.28 312.097 252.83 313.367 250.6C314.347 248.87 315.777 247.47 317.387 246.32C319.357 244.92 321.567 243.85 323.887 243.16C326.007 242.53 328.307 242.17 330.507 242.58C331.137 242.7 331.407 241.73 330.777 241.62H330.767Z" fill="#724B3B"/>
<path d="M330.289 241.75C324.259 246.78 320.339 254.48 320.399 262.4C320.419 264.5 320.729 266.6 321.339 268.6C321.529 269.21 322.489 268.95 322.299 268.33C320.089 261.17 322.089 253.28 326.409 247.32C327.719 245.51 329.269 243.88 330.989 242.45C331.479 242.04 330.769 241.33 330.279 241.74L330.289 241.75Z" fill="#724B3B"/>
<path d="M330.509 242.58C334.239 243.99 337.989 245.39 341.869 246.33C345.609 247.24 349.429 247.65 353.269 247.7C357.999 247.77 362.839 247.77 367.529 247.16C369.609 246.89 371.669 246.48 373.659 245.8C375.339 245.23 377.109 244.49 378.399 243.22C380.769 240.89 381.129 237.11 380.119 234.07C378.919 230.45 375.789 227.87 372.569 226.05C368.769 223.9 364.479 222.19 360.139 221.56C355.869 220.94 351.619 221.56 347.659 223.24C343.679 224.93 340.159 227.61 337.149 230.69C334.609 233.28 332.549 236.28 331.089 239.6C330.749 240.38 330.439 241.16 330.149 241.96C329.929 242.57 330.899 242.83 331.109 242.23C332.269 239.05 333.849 236.06 336.009 233.45C338.539 230.38 341.669 227.63 345.119 225.64C348.639 223.6 352.639 222.32 356.719 222.31C361.139 222.31 365.439 223.72 369.409 225.57C372.759 227.13 376.189 229.14 378.199 232.36C379.869 235.03 380.269 238.76 378.519 241.5C377.579 242.98 375.999 243.84 374.409 244.47C372.649 245.17 370.799 245.63 368.929 245.95C364.429 246.72 359.839 246.66 355.289 246.71C351.519 246.75 347.749 246.53 344.049 245.8C340.349 245.07 337.079 243.95 333.699 242.71C332.719 242.35 331.739 241.99 330.769 241.62C330.169 241.39 329.909 242.36 330.499 242.58H330.509Z" fill="#724B3B"/>
<path d="M380.023 236.71C381.873 237.45 383.143 239.36 383.803 241.17C384.553 243.23 384.573 245.32 383.663 247.33C382.663 249.54 380.953 251.51 378.923 252.83C376.733 254.26 374.183 254.84 371.643 255.27C366.763 256.1 361.823 256.45 356.913 255.7C352.333 255 347.943 253.42 343.783 251.4C341.233 250.16 338.683 248.81 336.313 247.26C334.153 245.85 332.393 244.07 331.083 241.85C330.753 241.3 329.893 241.8 330.223 242.35C331.403 244.35 332.923 246.04 334.793 247.42C337.013 249.06 339.543 250.36 341.993 251.62C346.443 253.9 351.143 255.74 356.083 256.58C361.293 257.46 366.503 257.15 371.693 256.28C374.353 255.83 377.033 255.23 379.343 253.76C381.473 252.4 383.293 250.39 384.403 248.11C385.533 245.79 385.663 243.33 384.773 240.91C383.973 238.73 382.513 236.64 380.293 235.75C379.693 235.51 379.433 236.48 380.023 236.71Z" fill="#724B3B"/>
<path d="M299.401 425.52C308.131 427.58 317.131 428.47 326.101 428.17C335.061 427.87 344.001 426.41 352.581 423.8C357.381 422.34 362.071 420.52 366.601 418.37C367.181 418.09 366.671 417.23 366.101 417.51C358.111 421.31 349.611 424.01 340.911 425.59C332.211 427.17 323.301 427.61 314.481 426.89C309.491 426.49 304.541 425.7 299.671 424.55C299.041 424.4 298.781 425.37 299.401 425.51V425.52Z" fill="#DB546A"/>
<path d="M292.959 445.03C301.259 443.66 309.509 441.93 317.659 439.85C325.779 437.78 333.799 435.35 341.709 432.58C346.199 431.01 350.649 429.32 355.059 427.54C355.649 427.3 355.389 426.33 354.789 426.58C346.989 429.74 339.059 432.57 331.009 435.05C322.999 437.52 314.889 439.64 306.699 441.4C302.049 442.4 297.369 443.29 292.679 444.07C292.049 444.17 292.319 445.14 292.949 445.03H292.959Z" fill="#DB546A"/>
<path d="M292.902 358.79L293.062 358.08L292.102 357.81C290.432 365.69 290.802 373.92 293.012 381.65C295.232 389.41 299.282 397.14 305.362 402.55C308.502 405.34 312.052 407.75 315.892 409.45C319.892 411.22 324.162 412.25 328.492 412.82C332.822 413.39 337.552 413.51 342.092 413.43C346.742 413.36 351.402 413.09 356.032 412.6C365.182 411.63 374.222 409.79 383.002 407.07C384.132 406.72 385.262 406.36 386.382 405.98C386.612 405.9 386.722 405.73 386.752 405.5C387.542 399.26 386.642 392.87 384.882 386.87C384.772 386.48 384.702 385.71 384.302 385.48C384.082 385.35 383.762 385.39 383.512 385.39C382.672 385.41 381.832 385.49 380.992 385.55C378.522 385.75 376.042 385.86 373.572 385.99C366.772 386.34 359.942 386.53 353.162 385.72C350.042 385.35 346.932 384.8 343.882 384.06C342.452 383.72 340.992 383.37 339.612 382.87C338.502 382.47 337.432 381.94 336.382 381.42C330.372 378.42 326.342 372.53 325.942 365.79C325.902 365.15 324.902 365.15 324.942 365.79C325.282 371.56 328.142 376.95 332.782 380.41C337.242 383.73 342.822 385.02 348.192 385.97C354.832 387.14 361.492 387.44 368.222 387.22C371.602 387.11 374.982 386.92 378.362 386.73C380.042 386.64 381.722 386.45 383.412 386.39C383.512 386.39 383.782 386.44 383.882 386.39C384.032 386.31 383.502 386.34 383.652 386.27C383.652 386.27 383.842 386.89 383.852 386.92C384.102 387.75 384.332 388.59 384.542 389.44C384.972 391.19 385.332 392.95 385.592 394.73C386.102 398.29 386.212 401.93 385.752 405.5L386.122 405.02C377.522 407.9 368.672 409.99 359.682 411.18C355.212 411.77 350.712 412.14 346.212 412.32C341.762 412.5 337.282 412.55 332.832 412.25C328.452 411.95 324.072 411.28 319.892 409.92C315.902 408.62 312.222 406.63 308.862 404.13C307.132 402.84 305.502 401.41 303.992 399.86C302.482 398.31 301.352 396.71 300.222 395C298.042 391.69 296.262 388.11 294.932 384.37C292.282 376.91 291.382 368.81 292.542 360.97C292.682 360 292.862 359.04 293.062 358.08C293.192 357.45 292.242 357.18 292.102 357.81L291.942 358.52C291.802 359.15 292.762 359.41 292.902 358.79Z" fill="#DB546A"/>
<path d="M517.35 244.41C532.493 244.41 544.77 232.133 544.77 216.99C544.77 201.846 532.493 189.57 517.35 189.57C502.206 189.57 489.93 201.846 489.93 216.99C489.93 232.133 502.206 244.41 517.35 244.41Z" fill="white" stroke="#DB546A" stroke-miterlimit="10"/>
<path d="M532.033 193.81H522.812" stroke="#DB546A" stroke-miterlimit="10"/>
<path d="M537.31 198.19H527.18" stroke="#DB546A" stroke-miterlimit="10"/>
<path d="M540.478 202.26H532.508" stroke="#DB546A" stroke-miterlimit="10"/>
<path d="M542.663 206.44H532.203" stroke="#DB546A" stroke-miterlimit="10"/>
<path d="M544.104 210.67H534.344" stroke="#DB546A" stroke-miterlimit="10"/>
<path d="M544.773 214.89H536.312" stroke="#DB546A" stroke-miterlimit="10"/>
<path d="M544.766 219.21H534.906" stroke="#DB546A" stroke-miterlimit="10"/>
<path d="M543.87 223.53H535.68" stroke="#DB546A" stroke-miterlimit="10"/>
<path d="M542.543 227.58H533.953" stroke="#DB546A" stroke-miterlimit="10"/>
<path d="M540.196 231.93H531.406" stroke="#DB546A" stroke-miterlimit="10"/>
<path d="M537.112 236H528.172" stroke="#DB546A" stroke-miterlimit="10"/>
<path d="M531.759 240.32H521.359" stroke="#DB546A" stroke-miterlimit="10"/>
<path d="M512.553 244.41C527.696 244.41 539.973 232.133 539.973 216.99C539.973 201.846 527.696 189.57 512.553 189.57C497.409 189.57 485.133 201.846 485.133 216.99C485.133 232.133 497.409 244.41 512.553 244.41Z" fill="#B61936"/>
<path d="M512.969 202.55V231.43" stroke="white" stroke-linecap="round" stroke-linejoin="round"/>
<path d="M498.531 216.99H527.421" stroke="white" stroke-linecap="round" stroke-linejoin="round"/>
<path d="M634.992 297.44L593.792 319.3C588.312 312.7 578.482 310.95 570.872 316.05C564.242 320.51 561.542 329.19 564.492 336.61C568.352 346.33 579.642 350.31 588.622 345.54C596.322 341.45 599.652 332.36 596.732 324.39L622.472 310.74L625.612 316.9C625.662 317 625.792 317.04 625.892 316.99L627.222 316.29C627.322 316.24 627.362 316.12 627.312 316.02L625.653 312.56L627.762 311.44L629.072 313.91L630.372 313.22L631.612 315.56C631.662 315.66 631.792 315.7 631.892 315.64L633.762 314.65C633.862 314.6 633.903 314.47 633.843 314.37L632.202 311.29L634.982 309.81L635.702 311.16C635.752 311.26 635.882 311.3 635.982 311.24L638.642 309.83C638.742 309.78 638.782 309.65 638.722 309.55L635.632 303.75L637.762 302.62C638.102 302.44 638.232 302.02 638.052 301.68L635.942 297.71C635.762 297.37 635.342 297.24 635.002 297.42L634.992 297.44ZM579.442 334.88C578.682 336.2 577.173 337 575.653 336.89C572.903 336.69 571.212 334.05 571.972 331.58C572.642 329.41 574.932 328.19 577.102 328.86C579.572 329.62 580.812 332.49 579.432 334.89L579.442 334.88Z" fill="#ABB8C1"/>
<path d="M597.478 319.75C600.558 318.17 603.638 316.59 606.718 315.01C607.288 314.72 606.788 313.85 606.218 314.15C603.138 315.73 600.058 317.31 596.978 318.89C596.408 319.18 596.908 320.05 597.478 319.75Z" fill="#798184"/>
<path d="M601.448 320.58C603.568 319.27 605.748 318.08 607.988 317C608.568 316.72 608.058 315.86 607.488 316.14C605.248 317.22 603.058 318.41 600.948 319.72C600.398 320.06 600.908 320.92 601.448 320.58Z" fill="#798184"/>
<path d="M590.161 318.25C587.181 315.95 583.491 314.66 579.711 314.75C575.931 314.84 572.441 316.23 569.591 318.59C569.091 319 569.811 319.71 570.301 319.3C575.761 314.76 583.831 314.61 589.451 318.95C589.951 319.34 590.671 318.64 590.161 318.24V318.25Z" fill="#798184"/>
<path d="M594.489 334.82C593.529 339.32 590.009 342.83 585.499 343.77C584.869 343.9 585.139 344.87 585.769 344.73C590.589 343.72 594.429 339.9 595.459 335.08C595.589 334.45 594.629 334.18 594.499 334.81L594.489 334.82Z" fill="#798184"/>
<path opacity="0.5" d="M426.779 242.57L436.729 239.72L426.779 236.88L429.969 231.14L424.229 234.33L421.379 224.38L418.539 234.33L412.799 231.14L415.989 236.88L406.039 239.72L415.989 242.57L412.799 248.31L418.539 245.12L421.379 255.07L424.229 245.12L429.969 248.31L426.779 242.57Z" fill="white"/>
<path opacity="0.5" d="M296.951 196.66L306.901 193.81L296.951 190.97L300.141 185.23L294.401 188.42L291.551 178.47L288.711 188.42L282.971 185.23L286.161 190.97L276.211 193.81L286.161 196.66L282.971 202.4L288.711 199.21L291.551 209.16L294.401 199.21L300.141 202.4L296.951 196.66Z" fill="white"/>
<path opacity="0.5" d="M589.717 518.77L599.667 515.92L589.717 513.08L592.907 507.34L587.167 510.53L584.317 500.58L581.477 510.53L575.737 507.34L578.927 513.08L568.977 515.92L578.927 518.77L575.737 524.51L581.477 521.32L584.317 531.27L587.167 521.32L592.907 524.51L589.717 518.77Z" fill="white"/>
<path d="M468.429 161.85L465.349 149.8L462.269 161.85L450.219 164.93L462.269 168.02L465.349 180.07L468.429 168.02L480.479 164.93L468.429 161.85Z" fill="white"/>
<path d="M609.554 241.32L606.474 229.28L603.394 241.32L591.344 244.41L603.394 247.49L606.474 259.54L609.554 247.49L621.604 244.41L609.554 241.32Z" fill="white"/>
<path d="M265.718 300.38L262.638 288.33L259.558 300.38L247.508 303.46L259.558 306.55L262.638 318.6L265.718 306.55L277.768 303.46L265.718 300.38Z" fill="white"/>
<path d="M632.221 374L628.991 361.95L625.761 374L613.141 377.08L625.761 380.17L628.991 392.22L632.221 380.17L644.841 377.08L632.221 374Z" fill="white"/>
<path d="M656.477 437.53C655.047 442.74 651.127 446.82 646.117 448.3C651.127 449.79 655.047 453.87 656.477 459.07C657.907 453.86 661.827 449.78 666.837 448.3C661.827 446.81 657.907 442.73 656.477 437.53Z" fill="#F8BEBF"/>
<path d="M201.687 348.17C200.217 353.32 196.187 357.35 191.047 358.81C196.197 360.28 200.227 364.31 201.687 369.45C203.157 364.3 207.187 360.27 212.327 358.81C207.177 357.34 203.147 353.31 201.687 348.17Z" fill="#F8BEBF"/>
<path d="M384.419 163.86C383.649 166.55 381.549 168.65 378.859 169.42C381.549 170.19 383.649 172.29 384.419 174.98C385.189 172.29 387.289 170.19 389.979 169.42C387.289 168.65 385.189 166.55 384.419 163.86Z" fill="#F8BEBF"/>
</g>
<defs>
<filter id="filter0_f_191_289" x="0" y="0" width="878" height="710" filterUnits="userSpaceOnUse" color-interpolation-filters="sRGB">
<feFlood flood-opacity="0" result="BackgroundImageFix"/>
<feBlend mode="normal" in="SourceGraphic" in2="BackgroundImageFix" result="shape"/>
<feGaussianBlur stdDeviation="50" result="effect1_foregroundBlur_191_289"/>
</filter>
<linearGradient id="paint0_linear_191_289" x1="389.971" y1="292.78" x2="670.971" y2="292.78" gradientUnits="userSpaceOnUse">
<stop stop-color="white"/>
<stop offset="0.28" stop-color="#FEFEFE" stop-opacity="0.99"/>
<stop offset="0.42" stop-color="#FEFCFC" stop-opacity="0.96"/>
<stop offset="0.52" stop-color="#FEF9F9" stop-opacity="0.91"/>
<stop offset="0.61" stop-color="#FEF5F5" stop-opacity="0.84"/>
<stop offset="0.69" stop-color="#FDEFEF" stop-opacity="0.74"/>
<stop offset="0.77" stop-color="#FDE8E8" stop-opacity="0.62"/>
<stop offset="0.84" stop-color="#FCDFDF" stop-opacity="0.48"/>
<stop offset="0.9" stop-color="#FCD5D5" stop-opacity="0.32"/>
<stop offset="0.96" stop-color="#FBCACA" stop-opacity="0.14"/>
<stop offset="1" stop-color="#FBC2C2" stop-opacity="0"/>
</linearGradient>
<clipPath id="clip0_191_289">
<rect width="878" height="710" fill="white"/>
</clipPath>
</defs>
</svg>
