<?xml version="1.0" encoding="utf-8"?>
<!-- Generator: Adobe Illustrator 24.3.0, SVG Export Plug-In . SVG Version: 6.00 Build 0)  -->
<svg version="1.1" id="Layer_1" xmlns="http://www.w3.org/2000/svg" xmlns:xlink="http://www.w3.org/1999/xlink" x="0px" y="0px"
	 viewBox="0 0 1500 1500" style="enable-background:new 0 0 1500 1500;" xml:space="preserve">
<style type="text/css">
	.st0{fill:#CBDBE8;}
	.st1{fill:#DFEBF2;}
	.st2{fill:#C9D3DC;}
	.st3{fill:#BB3437;}
	.st4{fill:none;stroke:#000000;stroke-width:5;stroke-linejoin:round;stroke-miterlimit:10;}
	.st5{fill:none;stroke:#000000;stroke-width:5;stroke-miterlimit:10;}
	.st6{fill:#C5D1DA;}
	.st7{fill:#9B1C2E;}
	.st8{clip-path:url(#SVGID_2_);}
	.st9{opacity:0.7;}
	.st10{fill:#ABB8C1;}
	.st11{fill:none;stroke:#000000;stroke-width:5;stroke-linecap:round;stroke-linejoin:round;stroke-miterlimit:10;}
	.st12{fill:#FFFFFF;}
	.st13{fill:#BB3437;stroke:#000000;stroke-width:5;stroke-miterlimit:10;}
	.st14{fill:#DDEDF2;}
	.st15{fill:#C9D3DC;stroke:#000000;stroke-width:5;stroke-miterlimit:10;}
</style>
<g>
	<g>
		<g>
			<rect x="750" y="150" class="st6" width="600" height="600"/>
		</g>
	</g>
	<g>
		<g>
			<rect x="150" y="750" class="st1" width="600" height="600"/>
		</g>
	</g>
	<g>
		<g>
			<g>
				<g>
					<path d="M390.6,434.9h-48.3c-1.4,0-2.5-1.1-2.5-2.5v-87.4c0-1.4,1.1-2.5,2.5-2.5h48.3c1.4,0,2.5,1.1,2.5,2.5v87.4
						C393.1,433.8,392,434.9,390.6,434.9z M344.8,429.9h43.3v-82.4h-43.3V429.9z"/>
				</g>
			</g>
			<g>
				<g>
					<path d="M431.1,434.9c-1.4,0-2.5-1.1-2.5-2.5v-87.4c0-1.4,1.1-2.5,2.5-2.5s2.5,1.1,2.5,2.5v87.4
						C433.6,433.8,432.5,434.9,431.1,434.9z"/>
				</g>
			</g>
		</g>
		<g>
			<g>
				<g>
					<path d="M517.2,434.9h-48.3c-1.4,0-2.5-1.1-2.5-2.5v-87.4c0-1.4,1.1-2.5,2.5-2.5h48.3c1.4,0,2.5,1.1,2.5,2.5v87.4
						C519.7,433.8,518.6,434.9,517.2,434.9z M471.4,429.9h43.3v-82.4h-43.3V429.9z"/>
				</g>
			</g>
			<g>
				<g>
					<path d="M557.7,434.9c-1.4,0-2.5-1.1-2.5-2.5v-87.4c0-1.4,1.1-2.5,2.5-2.5s2.5,1.1,2.5,2.5v87.4
						C560.2,433.8,559.1,434.9,557.7,434.9z"/>
				</g>
			</g>
		</g>
		<g>
			<g>
				<g>
					<path d="M557.7,557.6h-48.3c-1.4,0-2.5-1.1-2.5-2.5v-87.4c0-1.4,1.1-2.5,2.5-2.5h48.3c1.4,0,2.5,1.1,2.5,2.5v87.4
						C560.2,556.4,559.1,557.6,557.7,557.6z M511.9,552.6h43.3v-82.4h-43.3V552.6z"/>
				</g>
			</g>
			<g>
				<g>
					<path d="M468.9,557.6c-1.4,0-2.5-1.1-2.5-2.5v-87.4c0-1.4,1.1-2.5,2.5-2.5s2.5,1.1,2.5,2.5v87.4
						C471.4,556.4,470.3,557.6,468.9,557.6z"/>
				</g>
			</g>
		</g>
		<g>
			<g>
				<g>
					<path d="M431.1,557.6h-48.3c-1.4,0-2.5-1.1-2.5-2.5v-87.4c0-1.4,1.1-2.5,2.5-2.5h48.3c1.4,0,2.5,1.1,2.5,2.5v87.4
						C433.6,556.4,432.5,557.6,431.1,557.6z M385.3,552.6h43.3v-82.4h-43.3V552.6z"/>
				</g>
			</g>
			<g>
				<g>
					<path d="M342.3,557.6c-1.4,0-2.5-1.1-2.5-2.5v-87.4c0-1.4,1.1-2.5,2.5-2.5s2.5,1.1,2.5,2.5v87.4
						C344.8,556.4,343.7,557.6,342.3,557.6z"/>
				</g>
			</g>
		</g>
	</g>
	<g>
		<g>
			<g>
				<path d="M930.8,1035.5c-13.5,0-25.9-7.8-32-20.3c-0.2-0.3-0.4-0.7-0.4-1.2l0,0c-0.1-1.2,0.7-2.3,1.9-2.6
					c1.2-0.3,2.4,0.3,2.9,1.3c5.4,11.4,16.9,18.3,29.2,17.7c11-0.6,20.9-7.3,25.8-17.6c0-0.1,0.1-0.2,0.1-0.3
					c5.7-12,17.2-19.8,30.1-20.5c14.2-0.8,27.5,7.1,33.8,20.2c0.1,0.1,0.1,0.2,0.2,0.3c5.4,11.4,16.9,18.3,29.2,17.7
					c11.1-0.6,21-7.4,25.9-17.7c0-0.1,0.1-0.2,0.2-0.3c5.7-11.8,17.2-19.5,30-20.2c14.2-0.8,27.5,7.1,33.8,20.2
					c0.1,0.1,0.1,0.2,0.1,0.3c5.4,11.4,16.9,18.3,29.2,17.7c11.1-0.6,21-7.4,25.9-17.7c0.6-1.2,2.1-1.8,3.3-1.2
					c1.2,0.6,1.8,2.1,1.2,3.3c-5.7,12-17.2,19.8-30.1,20.5c-14.2,0.8-27.5-7.1-33.8-20.2c-0.1-0.1-0.1-0.2-0.1-0.3
					c-5.4-11.4-16.9-18.3-29.2-17.7c-11.1,0.6-21,7.4-25.9,17.7c0,0.1-0.1,0.2-0.2,0.3c-5.7,11.8-17.2,19.5-30,20.2
					c-14.2,0.8-27.5-7.1-33.8-20.2c-0.1-0.1-0.1-0.2-0.1-0.3c-5.4-11.4-16.9-18.3-29.2-17.7c-11,0.6-20.9,7.3-25.8,17.4
					c0,0.1-0.1,0.2-0.1,0.3c-5.7,12-17.3,19.9-30.1,20.6C932,1035.4,931.4,1035.5,930.8,1035.5z"/>
			</g>
		</g>
		<g>
			<g>
				<path d="M930.8,1108c-13.5,0-25.9-7.8-32-20.3c-0.2-0.3-0.4-0.7-0.4-1.2l0,0c-0.1-1.2,0.7-2.3,1.9-2.6c1.2-0.3,2.4,0.3,2.9,1.3
					c5.4,11.4,16.9,18.3,29.2,17.7c11-0.6,20.9-7.3,25.8-17.6c0-0.1,0.1-0.2,0.1-0.3c5.7-12,17.2-19.8,30.1-20.5
					c14.2-0.8,27.5,7.1,33.8,20.2c0.1,0.1,0.1,0.2,0.2,0.3c5.4,11.4,16.9,18.3,29.2,17.7c11.1-0.6,21-7.4,25.9-17.7
					c0-0.1,0.1-0.2,0.2-0.3c5.7-11.8,17.2-19.5,30-20.2c14.2-0.8,27.5,7.1,33.8,20.2c0.1,0.1,0.1,0.2,0.1,0.3
					c5.4,11.4,16.9,18.3,29.2,17.7c11.1-0.6,21-7.4,25.9-17.7c0.6-1.2,2.1-1.8,3.3-1.2c1.2,0.6,1.8,2.1,1.2,3.3
					c-5.7,12-17.2,19.8-30.1,20.5c-14.2,0.8-27.5-7.1-33.8-20.2c-0.1-0.1-0.1-0.2-0.1-0.3c-5.4-11.4-16.9-18.3-29.2-17.7
					c-11.1,0.6-21,7.4-25.9,17.7c0,0.1-0.1,0.2-0.2,0.3c-5.7,11.8-17.2,19.5-30,20.2c-14.2,0.8-27.5-7.1-33.8-20.2
					c-0.1-0.1-0.1-0.2-0.1-0.3c-5.4-11.4-16.9-18.3-29.2-17.7c-11,0.6-20.9,7.3-25.8,17.4c0,0.1-0.1,0.2-0.1,0.3
					c-5.7,12-17.3,19.9-30.1,20.6C932,1107.9,931.4,1108,930.8,1108z"/>
			</g>
		</g>
	</g>
	<g>
		<g>
			<g>
				<g>
					<path d="M1108.1,502.3H991.9V335.4c0-18.1,14.8-32.9,32.9-32.9h50.4c18.1,0,32.9,14.8,32.9,32.9V502.3z M996.9,497.3h106.2
						V335.4c0-15.4-12.5-27.9-27.9-27.9h-50.4c-15.4,0-27.9,12.5-27.9,27.9V497.3z"/>
				</g>
			</g>
			<g>
				<g>
					<rect x="929.7" y="415.5" class="st7" width="240.5" height="179.4"/>
				</g>
			</g>
		</g>
		<g>
			<g>
				<g>
					<path class="st6" d="M1068.1,495.5c0-10-8.1-18.1-18.1-18.1s-18.1,8.1-18.1,18.1c0,7.1,4.1,13.3,10.1,16.2v17.4
						c0,2.2,1.8,4,4,4h7.9c2.2,0,4-1.8,4-4v-17.4C1063.9,508.8,1068.1,502.6,1068.1,495.5z"/>
				</g>
			</g>
			<g>
				<g>
					<path d="M1054,535.6h-7.9c-3.6,0-6.5-2.9-6.5-6.5v-15.9c-6.3-3.7-10.1-10.3-10.1-17.7c0-11.3,9.2-20.6,20.6-20.6
						s20.6,9.2,20.6,20.6c0,7.4-3.8,14-10.1,17.7v15.9C1060.4,532.7,1057.5,535.6,1054,535.6z M1050,479.9c-8.6,0-15.6,7-15.6,15.6
						c0,6,3.3,11.3,8.7,14l1.4,0.7v18.9c0,0.8,0.7,1.5,1.5,1.5h7.9c0.8,0,1.5-0.7,1.5-1.5v-18.9l1.4-0.7c5.4-2.6,8.7-8,8.7-14
						C1065.6,486.9,1058.6,479.9,1050,479.9z"/>
				</g>
			</g>
		</g>
	</g>
	<g>
		<g>
			<path class="st2" d="M521.6,865.5c-66,27.8-113,91.9-116.1,167.3c-34.7-16.6-58.7-52-58.7-93.1c0-56.9,46.2-103.1,103.1-103.1
				C477.8,836.6,503.1,847.6,521.6,865.5z"/>
		</g>
		<g>
			<path d="M405.5,1035.3c-0.4,0-0.7-0.1-1.1-0.2c-17.7-8.5-32.7-21.7-43.4-38.3c-10.9-17-16.7-36.7-16.7-57.1
				c0-58.2,47.4-105.6,105.6-105.6c27.5,0,53.6,10.5,73.4,29.6c0.6,0.6,0.9,1.4,0.7,2.3c-0.2,0.8-0.7,1.5-1.5,1.8
				C456,895.9,411,960.7,408,1032.9c0,0.8-0.5,1.6-1.2,2C406.4,1035.2,406,1035.3,405.5,1035.3z M450,839.1
				c-55.5,0-100.6,45.1-100.6,100.6c0,37.3,21,71.8,53.9,89.1c2.2-35.6,14.1-69.8,34.7-98.9c20.1-28.5,47.4-51,79.2-65.1
				C498.6,848.2,475,839.1,450,839.1z"/>
		</g>
	</g>
	<g>
		<g>
			<path d="M450,1045.3c-15.9,0-31.3-3.5-45.5-10.3c-0.9-0.4-1.5-1.4-1.4-2.4c1.5-37,13.6-72.6,34.9-102.8
				c20.9-29.6,49.5-52.6,82.7-66.7c0.9-0.4,2-0.2,2.7,0.5c20.8,20.1,32.3,47.1,32.3,76C555.6,998,508.2,1045.3,450,1045.3z
				 M408.1,1031.2c13.2,6,27.2,9.1,41.9,9.1c55.5,0,100.6-45.1,100.6-100.6c0-27-10.5-52.2-29.5-71.2
				C455.8,896.7,411.7,960.3,408.1,1031.2z"/>
		</g>
	</g>
	<g>
		<g>
			<path class="st2" d="M653.2,1263.4H246.8c0-97.4,68.6-178.8,160.1-198.6c11.8,93.6,91.7,165.9,188.5,165.9
				c18.7,0,36.7-2.7,53.8-7.7C651.8,1236.1,653.2,1249.6,653.2,1263.4z"/>
		</g>
		<g>
			<path d="M653.2,1265.9H246.8c-1.4,0-2.5-1.1-2.5-2.5c0-47.3,16.4-93.5,46.3-130c29.4-36,70.5-61.3,115.8-71c0.7-0.1,1.4,0,2,0.4
				c0.6,0.4,0.9,1,1,1.7c11.8,93.4,91.8,163.8,186,163.8c18,0,35.9-2.6,53.1-7.6c0.7-0.2,1.4-0.1,2,0.3s1,1,1.2,1.6
				c2.7,13.4,4.1,27.1,4.1,40.9C655.7,1264.8,654.6,1265.9,653.2,1265.9z M249.3,1260.9h401.4c-0.1-11.7-1.3-23.4-3.4-34.7
				c-16.8,4.7-34.3,7.1-51.9,7.1c-95.8,0-177.3-70.9-190.6-165.4C315.3,1088.4,250.5,1169,249.3,1260.9z"/>
		</g>
	</g>
	<g>
		<g>
			<path d="M595.4,1233.2c-96.8,0-178.9-72.3-191-168.1c-0.2-1.3,0.7-2.5,2-2.8c14.3-3.1,28.9-4.6,43.6-4.6
				c47.8,0,94.3,16.7,131.1,47.1c36.3,30,61.3,71.8,70.6,117.7c0.3,1.3-0.5,2.5-1.7,2.9C632.2,1230.6,613.9,1233.2,595.4,1233.2z
				 M409.7,1066.8c12.8,92.2,92.2,161.5,185.7,161.5c17.3,0,34.4-2.3,50.9-7c-19.7-92-101.8-158.5-196.3-158.5
				C436.4,1062.7,422.9,1064.1,409.7,1066.8z"/>
		</g>
	</g>
	<g>
		<defs>
			<path id="SVGID_1_" d="M450,1042.8c-15.9,0-31-3.6-44.5-10.1c3.1-75.4,50.1-139.4,116.1-167.3c19.4,18.8,31.5,45.1,31.5,74.2
				C553.1,996.7,507,1042.8,450,1042.8z M450,1060.2c-14.8,0-29.2,1.6-43.1,4.6c11.8,93.6,91.7,165.9,188.5,165.9
				c18.7,0,36.7-2.7,53.8-7.7C630.4,1130.1,548.4,1060.2,450,1060.2z"/>
		</defs>
		<clipPath id="SVGID_2_">
			<use xlink:href="#SVGID_1_"  style="overflow:visible;"/>
		</clipPath>
		<g class="st8">
			<g>
				<g>
					<path d="M398.7,911.8c3.1,5.7,9.5,9.2,16.3,9.2c0.3,0,0.6,0,1,0c6.6-0.3,12.5-3.9,15.4-9.5c0-0.1,0.1-0.1,0.1-0.2
						c2.1-3.9,6.4-6.4,11.2-6.6c5.3-0.3,10.4,2.5,12.7,6.8c0,0.1,0.1,0.1,0.1,0.2c3.3,5.9,10,9.5,17.3,9.2
						c6.5-0.3,12.4-3.8,15.3-9.2c0-0.1,0.1-0.1,0.1-0.2c2.1-3.9,6.4-6.5,11.3-6.8c5.2-0.2,10.2,2.4,12.6,6.5
						c0.1,0.2,0.2,0.4,0.3,0.6c3.1,5.7,9.5,9.2,16.3,9.2c0.3,0,0.6,0,1,0c6.6-0.3,12.5-3.9,15.4-9.5c0-0.1,0.1-0.1,0.1-0.2
						c2.1-3.9,6.4-6.4,11.2-6.6c5.3-0.3,10.4,2.5,12.7,6.8c0,0.1,0.1,0.1,0.1,0.2c3.3,5.9,10.1,9.6,17.3,9.2
						c6.5-0.3,12.4-3.8,15.3-9.2c0-0.1,0.1-0.1,0.1-0.2c2.1-3.9,6.4-6.5,11.3-6.8c5.3-0.3,10.4,2.5,12.7,6.8c0,0.1,0.1,0.1,0.1,0.2
						c3.3,5.9,10,9.5,17.3,9.2c6.6-0.3,12.5-3.9,15.4-9.4c0.6-1.2,0.2-2.7-1-3.4c-1.2-0.6-2.7-0.2-3.4,1c-2.1,3.9-6.4,6.5-11.3,6.8
						c-5.3,0.3-10.4-2.5-12.7-6.8c0-0.1-0.1-0.1-0.1-0.2c-3.3-5.9-10.1-9.5-17.3-9.2c-6.5,0.3-12.4,3.8-15.3,9.2
						c0,0.1-0.1,0.1-0.1,0.2c-2.1,3.9-6.4,6.5-11.3,6.8c-5.3,0.3-10.4-2.5-12.7-6.8c0-0.1-0.1-0.1-0.1-0.2c-3.3-5.9-10-9.5-17.3-9.2
						c-6.5,0.3-12.3,3.8-15.3,9.1c-0.1,0.1-0.1,0.2-0.2,0.3c-2.1,3.9-6.4,6.5-11.3,6.8c-5.3,0.3-10.4-2.5-12.7-6.8
						c0-0.1-0.1-0.1-0.1-0.2c-3.3-5.9-10-9.5-17.3-9.2c-6.5,0.3-12.4,3.8-15.3,9.2c0,0.1-0.1,0.1-0.1,0.2c-2.1,3.9-6.4,6.5-11.3,6.8
						c-5.3,0.3-10.4-2.5-12.7-6.8c0-0.1-0.1-0.1-0.1-0.2c-3.3-5.9-10.1-9.5-17.3-9.2c-6.6,0.3-12.5,3.9-15.4,9.4
						c0,0.1-0.1,0.1-0.1,0.2c-2.1,3.9-6.4,6.5-11.2,6.7c-5.3,0.3-10.4-2.5-12.7-6.8c-0.6-1-1.7-1.5-2.9-1.2
						c-1.1,0.3-1.9,1.4-1.8,2.5l0,0C398.3,911,398.5,911.5,398.7,911.8z"/>
				</g>
			</g>
			<g>
				<g>
					<path d="M657.6,938.9c-1.2-0.6-2.7-0.2-3.4,1c-2.1,3.9-6.4,6.5-11.3,6.8c-5.3,0.3-10.4-2.5-12.7-6.8c0-0.1-0.1-0.1-0.1-0.2
						c-3.3-5.9-10.1-9.5-17.3-9.2c-6.5,0.3-12.4,3.8-15.3,9.2c0,0.1-0.1,0.1-0.1,0.2c-2.1,3.9-6.4,6.5-11.3,6.8
						c-5.3,0.3-10.4-2.5-12.7-6.8c0-0.1-0.1-0.1-0.1-0.2c-3.3-5.9-10-9.5-17.3-9.2c-6.5,0.3-12.3,3.8-15.3,9.1
						c-0.1,0.1-0.1,0.2-0.2,0.2c-2.1,3.9-6.4,6.5-11.3,6.8c-5.3,0.3-10.4-2.5-12.7-6.8c0-0.1-0.1-0.1-0.1-0.2
						c-3.3-5.9-10-9.5-17.3-9.2c-6.5,0.3-12.4,3.8-15.3,9.2c0,0.1-0.1,0.1-0.1,0.2c-2.1,3.9-6.4,6.5-11.3,6.8
						c-5.3,0.3-10.4-2.5-12.7-6.8c0-0.1-0.1-0.1-0.1-0.2c-3.3-5.9-10-9.5-17.3-9.2c-6.6,0.3-12.5,3.9-15.4,9.4
						c0,0.1-0.1,0.1-0.1,0.2c-2.1,3.9-6.4,6.4-11.2,6.7c-5.3,0.3-10.4-2.5-12.7-6.8c-0.6-1-1.7-1.5-2.9-1.2
						c-1.1,0.3-1.9,1.4-1.8,2.5l0,0c0,0.5,0.2,0.9,0.4,1.2c3.1,5.7,9.5,9.2,16.3,9.2c0.3,0,0.6,0,1,0c6.6-0.3,12.5-3.9,15.4-9.5
						c0-0.1,0.1-0.1,0.1-0.2c2.1-3.9,6.4-6.4,11.2-6.6c5.3-0.3,10.4,2.5,12.7,6.8c0,0.1,0.1,0.1,0.1,0.2c3.3,5.9,10,9.5,17.3,9.2
						c6.5-0.3,12.4-3.8,15.3-9.2c0-0.1,0.1-0.1,0.1-0.2c2.1-3.9,6.4-6.5,11.3-6.8c5.2-0.2,10.2,2.4,12.6,6.5
						c0.1,0.2,0.2,0.4,0.3,0.6c3.1,5.7,9.5,9.2,16.3,9.2c0.3,0,0.6,0,1,0c6.6-0.3,12.5-3.9,15.4-9.5c0-0.1,0.1-0.1,0.1-0.2
						c2.1-3.9,6.4-6.4,11.2-6.6c5.3-0.3,10.4,2.5,12.7,6.8c0,0.1,0.1,0.1,0.1,0.2c3.3,5.9,10.1,9.6,17.3,9.2
						c6.5-0.3,12.4-3.8,15.3-9.2c0-0.1,0.1-0.1,0.1-0.2c2.1-3.9,6.4-6.5,11.3-6.8c5.3-0.3,10.4,2.5,12.7,6.8c0,0.1,0.1,0.1,0.1,0.2
						c3.3,5.9,10,9.5,17.3,9.2c6.6-0.3,12.5-3.9,15.4-9.4C659.3,941.1,658.9,939.6,657.6,938.9z"/>
				</g>
			</g>
			<g>
				<g>
					<path d="M657.6,970.5c-1.2-0.6-2.7-0.2-3.4,1c-2.1,3.9-6.4,6.5-11.3,6.8c-5.3,0.3-10.4-2.5-12.7-6.8c0-0.1-0.1-0.1-0.1-0.2
						c-3.3-5.9-10.1-9.5-17.3-9.2c-6.5,0.3-12.4,3.8-15.3,9.2c0,0.1-0.1,0.1-0.1,0.2c-2.1,3.9-6.4,6.5-11.3,6.8
						c-5.3,0.3-10.4-2.5-12.7-6.8c0-0.1-0.1-0.1-0.1-0.2c-3.3-5.9-10-9.5-17.3-9.2c-6.5,0.3-12.3,3.8-15.3,9.1
						c-0.1,0.1-0.1,0.2-0.2,0.2c-2.1,3.9-6.4,6.5-11.3,6.8c-5.3,0.3-10.4-2.5-12.7-6.8c0-0.1-0.1-0.1-0.1-0.2
						c-3.3-5.9-10-9.5-17.3-9.2c-6.5,0.3-12.4,3.8-15.3,9.2c0,0.1-0.1,0.1-0.1,0.2c-2.1,3.9-6.4,6.5-11.3,6.8
						c-5.3,0.3-10.4-2.5-12.7-6.8c0-0.1-0.1-0.1-0.1-0.2c-3.3-5.9-10-9.5-17.3-9.2c-6.6,0.3-12.5,3.9-15.4,9.4
						c0,0.1-0.1,0.1-0.1,0.2c-2.1,3.9-6.4,6.4-11.2,6.7c-5.3,0.3-10.4-2.5-12.7-6.8c-0.6-1-1.7-1.5-2.9-1.2
						c-1.1,0.3-1.9,1.4-1.8,2.5l0,0c0,0.5,0.2,0.9,0.4,1.2c3.1,5.7,9.5,9.2,16.3,9.2c0.3,0,0.6,0,1,0c6.6-0.3,12.5-3.9,15.4-9.5
						c0-0.1,0.1-0.1,0.1-0.2c2.1-3.9,6.4-6.4,11.2-6.6c5.3-0.3,10.4,2.5,12.7,6.8c0,0.1,0.1,0.1,0.1,0.2c3.3,5.9,10,9.5,17.3,9.2
						c6.5-0.3,12.4-3.8,15.3-9.2c0-0.1,0.1-0.1,0.1-0.2c2.1-3.9,6.4-6.5,11.3-6.8c5.2-0.2,10.2,2.4,12.6,6.5
						c0.1,0.2,0.2,0.4,0.3,0.6c3.1,5.7,9.5,9.2,16.3,9.2c0.3,0,0.6,0,1,0c6.6-0.3,12.5-3.9,15.4-9.5c0-0.1,0.1-0.1,0.1-0.2
						c2.1-3.9,6.4-6.4,11.2-6.6c5.3-0.3,10.4,2.5,12.7,6.8c0,0.1,0.1,0.1,0.1,0.2c3.3,5.9,10.1,9.6,17.3,9.2
						c6.5-0.3,12.4-3.8,15.3-9.2c0-0.1,0.1-0.1,0.1-0.2c2.1-3.9,6.4-6.5,11.3-6.8c5.3-0.3,10.4,2.5,12.7,6.8c0,0.1,0.1,0.1,0.1,0.2
						c3.3,5.9,10,9.5,17.3,9.2c6.6-0.3,12.5-3.9,15.4-9.4C659.3,972.6,658.9,971.1,657.6,970.5z"/>
				</g>
			</g>
			<g>
				<g>
					<path d="M657.6,1001.2c-1.2-0.6-2.7-0.2-3.4,1c-2.1,3.9-6.4,6.5-11.3,6.8c-5.3,0.3-10.4-2.5-12.7-6.8c0-0.1-0.1-0.1-0.1-0.2
						c-3.3-5.9-10-9.5-17.3-9.2c-6.5,0.3-12.4,3.8-15.3,9.2c0,0.1-0.1,0.1-0.1,0.2c-2.1,3.9-6.4,6.5-11.3,6.8
						c-5.3,0.3-10.4-2.5-12.7-6.8c0-0.1-0.1-0.1-0.1-0.2c-3.3-5.9-10.1-9.6-17.3-9.2c-6.5,0.3-12.3,3.8-15.3,9.1
						c-0.1,0.1-0.1,0.2-0.2,0.2c-2.1,3.9-6.4,6.5-11.3,6.8c-5.3,0.3-10.4-2.5-12.7-6.8c0-0.1-0.1-0.1-0.1-0.2
						c-3.3-5.9-10-9.5-17.3-9.2c-6.5,0.3-12.4,3.8-15.3,9.2c0,0.1-0.1,0.1-0.1,0.2c-2.1,3.9-6.4,6.5-11.3,6.8
						c-5.3,0.3-10.4-2.5-12.7-6.8c0-0.1-0.1-0.1-0.1-0.2c-3.3-5.9-10-9.5-17.3-9.2c-6.6,0.3-12.5,3.9-15.4,9.4
						c0,0.1-0.1,0.1-0.1,0.2c-2.1,3.9-6.4,6.5-11.2,6.7c-5.3,0.3-10.4-2.5-12.7-6.8c-0.6-1-1.8-1.5-2.9-1.2
						c-1.1,0.3-1.9,1.4-1.8,2.5l0,0c0,0.5,0.2,0.9,0.4,1.2c3.1,5.7,9.5,9.2,16.3,9.2c0.3,0,0.6,0,1,0c6.6-0.3,12.5-3.9,15.4-9.5
						c0-0.1,0.1-0.1,0.1-0.2c2.1-3.9,6.4-6.4,11.2-6.6c5.3-0.3,10.4,2.5,12.7,6.8c0,0.1,0.1,0.1,0.1,0.2c3.3,5.9,10,9.5,17.3,9.2
						c6.5-0.3,12.4-3.8,15.3-9.2c0-0.1,0.1-0.1,0.1-0.2c2.1-3.9,6.4-6.5,11.3-6.8c5.2-0.2,10.2,2.4,12.6,6.5
						c0.1,0.2,0.2,0.4,0.3,0.6c3.1,5.7,9.5,9.2,16.3,9.2c0.3,0,0.6,0,1,0c6.6-0.3,12.5-3.9,15.4-9.5c0-0.1,0.1-0.1,0.1-0.2
						c2.1-3.9,6.4-6.4,11.2-6.6c5.3-0.3,10.4,2.5,12.7,6.8c0,0.1,0.1,0.1,0.1,0.2c3.3,5.9,10.1,9.6,17.3,9.2
						c6.5-0.3,12.4-3.8,15.3-9.2c0-0.1,0.1-0.1,0.1-0.2c2.1-3.9,6.4-6.5,11.3-6.8c5.3-0.3,10.4,2.5,12.7,6.8c0,0.1,0.1,0.1,0.1,0.2
						c3.3,5.9,10.1,9.5,17.3,9.2c6.6-0.3,12.5-3.9,15.4-9.4C659.3,1003.4,658.9,1001.9,657.6,1001.2z"/>
				</g>
			</g>
			<g>
				<g>
					<path d="M657.6,1032.8c-1.2-0.6-2.7-0.2-3.4,1c-2.1,3.9-6.4,6.5-11.3,6.8c-5.3,0.3-10.4-2.5-12.7-6.8c0-0.1-0.1-0.1-0.1-0.2
						c-3.3-5.9-10.1-9.5-17.3-9.2c-6.5,0.3-12.4,3.8-15.3,9.2c0,0.1-0.1,0.1-0.1,0.2c-2.1,3.9-6.4,6.5-11.3,6.8
						c-5.3,0.3-10.4-2.5-12.7-6.8c0-0.1-0.1-0.1-0.1-0.2c-3.3-5.9-10-9.6-17.3-9.2c-6.5,0.3-12.3,3.8-15.3,9.1
						c-0.1,0.1-0.1,0.2-0.2,0.2c-2.1,3.9-6.4,6.5-11.3,6.8c-5.3,0.3-10.4-2.5-12.7-6.8c0-0.1-0.1-0.1-0.1-0.2
						c-3.3-5.9-10-9.5-17.3-9.2c-6.5,0.3-12.4,3.8-15.3,9.2c0,0.1-0.1,0.1-0.1,0.2c-2.1,3.9-6.4,6.5-11.3,6.8
						c-5.3,0.3-10.4-2.5-12.7-6.8c0-0.1-0.1-0.1-0.1-0.2c-3.3-5.9-10-9.5-17.3-9.2c-6.6,0.3-12.5,3.9-15.4,9.4
						c0,0.1-0.1,0.1-0.1,0.2c-2.1,3.9-6.4,6.4-11.2,6.7c-5.3,0.3-10.4-2.5-12.7-6.8c-0.6-1-1.7-1.5-2.9-1.2
						c-1.1,0.3-1.9,1.4-1.8,2.5l0,0c0,0.5,0.2,0.9,0.4,1.2c3.1,5.7,9.5,9.2,16.3,9.2c0.3,0,0.6,0,1,0c6.6-0.3,12.5-3.9,15.4-9.5
						c0-0.1,0.1-0.1,0.1-0.2c2.1-3.9,6.4-6.4,11.2-6.6c5.3-0.3,10.4,2.5,12.7,6.8c0,0.1,0.1,0.1,0.1,0.2c3.3,5.9,10,9.5,17.3,9.2
						c6.5-0.3,12.4-3.8,15.3-9.2c0-0.1,0.1-0.1,0.1-0.2c2.1-3.9,6.4-6.5,11.3-6.8c5.2-0.2,10.2,2.4,12.6,6.5
						c0.1,0.2,0.2,0.4,0.3,0.6c3.1,5.7,9.5,9.2,16.3,9.2c0.3,0,0.6,0,1,0c6.6-0.3,12.5-3.9,15.4-9.5c0-0.1,0.1-0.1,0.1-0.2
						c2.1-3.9,6.4-6.4,11.2-6.6c5.3-0.3,10.4,2.5,12.7,6.8c0,0.1,0.1,0.1,0.1,0.2c3.3,5.9,10.1,9.6,17.3,9.2
						c6.5-0.3,12.4-3.8,15.3-9.2c0-0.1,0.1-0.1,0.1-0.2c2.1-3.9,6.4-6.5,11.3-6.8c5.3-0.3,10.4,2.5,12.7,6.8c0,0.1,0.1,0.1,0.1,0.2
						c3.3,5.9,10,9.5,17.3,9.2c6.6-0.3,12.5-3.9,15.4-9.4C659.3,1035,658.9,1033.4,657.6,1032.8z"/>
				</g>
			</g>
			<g>
				<g>
					<path d="M657.6,1063.6c-1.2-0.6-2.7-0.2-3.4,1c-2.1,3.9-6.4,6.5-11.3,6.8c-5.3,0.3-10.4-2.5-12.7-6.8c0-0.1-0.1-0.1-0.1-0.2
						c-3.3-5.9-10-9.5-17.3-9.2c-6.5,0.3-12.4,3.8-15.3,9.2c0,0.1-0.1,0.1-0.1,0.2c-2.1,3.9-6.4,6.5-11.3,6.8
						c-5.3,0.3-10.4-2.5-12.7-6.8c0-0.1-0.1-0.1-0.1-0.2c-3.3-5.9-10.1-9.6-17.3-9.2c-6.5,0.3-12.3,3.8-15.3,9.1
						c-0.1,0.1-0.1,0.2-0.2,0.2c-2.1,3.9-6.4,6.5-11.3,6.8c-5.3,0.3-10.4-2.5-12.7-6.8c0-0.1-0.1-0.1-0.1-0.2
						c-3.3-5.9-10-9.5-17.3-9.2c-6.5,0.3-12.4,3.8-15.3,9.2c0,0.1-0.1,0.1-0.1,0.2c-2.1,3.9-6.4,6.5-11.3,6.8
						c-5.3,0.3-10.4-2.5-12.7-6.8c0-0.1-0.1-0.1-0.1-0.2c-3.3-5.9-10-9.5-17.3-9.2c-6.6,0.3-12.5,3.9-15.4,9.4
						c0,0.1-0.1,0.1-0.1,0.2c-2.1,3.9-6.4,6.4-11.2,6.7c-5.3,0.3-10.4-2.5-12.7-6.8c-0.6-1-1.8-1.5-2.9-1.2
						c-1.1,0.3-1.9,1.4-1.8,2.5l0,0c0,0.5,0.2,0.9,0.4,1.2c3.1,5.7,9.5,9.2,16.3,9.2c0.3,0,0.6,0,1,0c6.6-0.3,12.5-3.9,15.4-9.5
						c0-0.1,0.1-0.1,0.1-0.2c2.1-3.9,6.4-6.4,11.2-6.6c5.3-0.3,10.4,2.5,12.7,6.8c0,0.1,0.1,0.1,0.1,0.2c3.3,5.9,10,9.5,17.3,9.2
						c6.5-0.3,12.4-3.8,15.3-9.2c0-0.1,0.1-0.1,0.1-0.2c2.1-3.9,6.4-6.5,11.3-6.8c5.2-0.2,10.2,2.4,12.6,6.5
						c0.1,0.2,0.2,0.4,0.3,0.6c3.1,5.7,9.5,9.2,16.3,9.2c0.3,0,0.6,0,1,0c6.6-0.3,12.5-3.9,15.4-9.5c0-0.1,0.1-0.1,0.1-0.2
						c2.1-3.9,6.4-6.4,11.2-6.6c5.3-0.2,10.4,2.5,12.7,6.8c0,0.1,0.1,0.1,0.1,0.2c3.3,5.9,10.1,9.6,17.3,9.2
						c6.5-0.3,12.4-3.8,15.3-9.2c0-0.1,0.1-0.1,0.1-0.2c2.1-3.9,6.4-6.5,11.3-6.8c5.3-0.2,10.4,2.5,12.7,6.8c0,0.1,0.1,0.1,0.1,0.2
						c3.3,5.9,10.1,9.5,17.3,9.2c6.6-0.3,12.5-3.9,15.4-9.4C659.3,1065.7,658.9,1064.2,657.6,1063.6z"/>
				</g>
			</g>
			<g>
				<g>
					<path d="M657.6,1095.1c-1.2-0.6-2.7-0.2-3.4,1c-2.1,3.9-6.4,6.5-11.3,6.8c-5.3,0.3-10.4-2.5-12.7-6.8c0-0.1-0.1-0.1-0.1-0.2
						c-3.3-5.9-10-9.5-17.3-9.2c-6.5,0.3-12.4,3.8-15.3,9.2c0,0.1-0.1,0.1-0.1,0.2c-2.1,3.9-6.4,6.5-11.3,6.8
						c-5.3,0.3-10.4-2.5-12.7-6.8c0-0.1-0.1-0.1-0.1-0.2c-3.3-5.9-10.1-9.6-17.3-9.2c-6.5,0.3-12.3,3.8-15.3,9.1
						c-0.1,0.1-0.1,0.2-0.2,0.2c-2.1,3.9-6.4,6.5-11.3,6.8c-5.3,0.3-10.4-2.5-12.7-6.8c0-0.1-0.1-0.1-0.1-0.2
						c-3.3-5.9-10-9.5-17.3-9.2c-6.5,0.3-12.4,3.8-15.3,9.2c0,0.1-0.1,0.1-0.1,0.2c-2.1,3.9-6.4,6.5-11.3,6.8
						c-5.3,0.3-10.4-2.5-12.7-6.8c0-0.1-0.1-0.1-0.1-0.2c-3.3-5.9-10-9.5-17.3-9.2c-6.6,0.3-12.5,3.9-15.4,9.4
						c0,0.1-0.1,0.1-0.1,0.2c-2.1,3.9-6.4,6.5-11.2,6.7c-5.3,0.3-10.4-2.5-12.7-6.8c-0.6-1-1.8-1.5-2.9-1.2
						c-1.1,0.3-1.9,1.4-1.8,2.5l0,0c0,0.5,0.2,0.9,0.4,1.2c3.1,5.7,9.5,9.2,16.3,9.2c0.3,0,0.6,0,1,0c6.6-0.3,12.5-3.9,15.4-9.5
						c0-0.1,0.1-0.1,0.1-0.2c2.1-3.9,6.4-6.4,11.2-6.6c5.3-0.3,10.4,2.5,12.7,6.8c0,0.1,0.1,0.1,0.1,0.2c3.3,5.9,10,9.5,17.3,9.2
						c6.5-0.3,12.4-3.8,15.3-9.2c0-0.1,0.1-0.1,0.1-0.2c2.1-3.9,6.4-6.5,11.3-6.8c5.2-0.2,10.2,2.4,12.6,6.5
						c0.1,0.2,0.2,0.4,0.3,0.6c3.1,5.7,9.5,9.2,16.3,9.2c0.3,0,0.6,0,1,0c6.6-0.3,12.5-3.9,15.4-9.5c0-0.1,0.1-0.1,0.1-0.2
						c2.1-3.9,6.4-6.4,11.2-6.6c5.3-0.3,10.4,2.5,12.7,6.8c0,0.1,0.1,0.1,0.1,0.2c3.3,5.9,10.1,9.6,17.3,9.2
						c6.5-0.3,12.4-3.8,15.3-9.2c0-0.1,0.1-0.1,0.1-0.2c2.1-3.9,6.4-6.5,11.3-6.8c5.3-0.3,10.4,2.5,12.7,6.8c0,0.1,0.1,0.1,0.1,0.2
						c3.3,5.9,10.1,9.5,17.3,9.2c6.6-0.3,12.5-3.9,15.4-9.4C659.3,1097.3,658.9,1095.8,657.6,1095.1z"/>
				</g>
			</g>
			<g>
				<g>
					<path d="M657.6,1125.9c-1.2-0.6-2.7-0.2-3.4,1c-2.1,3.9-6.4,6.5-11.3,6.8c-5.3,0.3-10.4-2.5-12.7-6.8c0-0.1-0.1-0.1-0.1-0.2
						c-3.3-5.9-10.1-9.5-17.3-9.2c-6.5,0.3-12.4,3.8-15.3,9.2c0,0.1-0.1,0.1-0.1,0.2c-2.1,3.9-6.4,6.5-11.3,6.8
						c-5.3,0.3-10.4-2.5-12.7-6.8c0-0.1-0.1-0.1-0.1-0.2c-3.3-5.9-10-9.6-17.3-9.2c-6.5,0.3-12.3,3.8-15.3,9.1
						c-0.1,0.1-0.1,0.2-0.2,0.3c-2.1,3.9-6.4,6.5-11.3,6.8c-5.3,0.3-10.4-2.5-12.7-6.8c0-0.1-0.1-0.1-0.1-0.2
						c-3.3-5.9-10-9.5-17.3-9.2c-6.5,0.3-12.4,3.8-15.3,9.2c0,0.1-0.1,0.1-0.1,0.2c-2.1,3.9-6.4,6.5-11.3,6.8
						c-5.3,0.3-10.4-2.5-12.7-6.8c0-0.1-0.1-0.1-0.1-0.2c-3.3-5.9-10.1-9.5-17.3-9.2c-6.6,0.3-12.5,3.9-15.4,9.4
						c0,0.1-0.1,0.1-0.1,0.2c-2.1,3.9-6.4,6.5-11.2,6.7c-5.3,0.3-10.4-2.5-12.7-6.8c-0.6-1-1.7-1.5-2.9-1.2
						c-1.1,0.3-1.9,1.4-1.8,2.5l0,0c0,0.5,0.2,0.9,0.4,1.2c3.1,5.7,9.5,9.2,16.3,9.2c0.3,0,0.6,0,1,0c6.6-0.3,12.5-3.9,15.4-9.5
						c0-0.1,0.1-0.1,0.1-0.2c2.1-3.9,6.4-6.4,11.2-6.6c5.3-0.3,10.4,2.5,12.7,6.8c0,0.1,0.1,0.1,0.1,0.2c3.3,5.9,10,9.5,17.3,9.2
						c6.5-0.3,12.4-3.8,15.3-9.2c0-0.1,0.1-0.1,0.1-0.2c2.1-3.9,6.4-6.5,11.3-6.8c5.2-0.2,10.2,2.4,12.6,6.5
						c0.1,0.2,0.2,0.4,0.3,0.6c3.1,5.7,9.5,9.2,16.3,9.2c0.3,0,0.6,0,1,0c6.6-0.3,12.5-3.9,15.4-9.5c0-0.1,0.1-0.1,0.1-0.2
						c2.1-3.9,6.4-6.4,11.2-6.6c5.3-0.3,10.4,2.5,12.7,6.8c0,0.1,0.1,0.1,0.1,0.2c3.3,5.9,10.1,9.6,17.3,9.2
						c6.5-0.3,12.4-3.8,15.3-9.2c0-0.1,0.1-0.1,0.1-0.2c2.1-3.9,6.4-6.5,11.3-6.8c5.3-0.3,10.4,2.5,12.7,6.8c0,0.1,0.1,0.1,0.1,0.2
						c3.3,5.9,10,9.5,17.3,9.2c6.6-0.3,12.5-3.9,15.4-9.4C659.3,1128,658.9,1126.5,657.6,1125.9z"/>
				</g>
			</g>
			<g>
				<g>
					<path d="M657.6,1157.4c-1.2-0.6-2.7-0.2-3.4,1c-2.1,3.9-6.4,6.5-11.3,6.8c-5.3,0.3-10.4-2.5-12.7-6.8c0-0.1-0.1-0.1-0.1-0.2
						c-3.3-5.9-10-9.5-17.3-9.2c-6.5,0.3-12.4,3.8-15.3,9.2c0,0.1-0.1,0.1-0.1,0.2c-2.1,3.9-6.4,6.5-11.3,6.8
						c-5.3,0.3-10.4-2.5-12.7-6.8c0-0.1-0.1-0.1-0.1-0.2c-3.3-5.9-10.1-9.6-17.3-9.2c-6.5,0.3-12.3,3.8-15.3,9.1
						c-0.1,0.1-0.1,0.2-0.2,0.2c-2.1,3.9-6.4,6.5-11.3,6.8c-5.3,0.3-10.4-2.5-12.7-6.8c0-0.1-0.1-0.1-0.1-0.2
						c-3.3-5.9-10-9.5-17.3-9.2c-6.5,0.3-12.4,3.8-15.3,9.2c0,0.1-0.1,0.1-0.1,0.2c-2.1,3.9-6.4,6.5-11.3,6.8
						c-5.3,0.3-10.4-2.5-12.7-6.8c0-0.1-0.1-0.1-0.1-0.2c-3.3-5.9-10-9.5-17.3-9.2c-6.6,0.3-12.5,3.9-15.4,9.4
						c0,0.1-0.1,0.1-0.1,0.2c-2.1,3.9-6.4,6.4-11.2,6.7c-5.3,0.3-10.4-2.5-12.7-6.8c-0.6-1-1.8-1.5-2.9-1.2
						c-1.1,0.3-1.9,1.4-1.8,2.5l0,0c0,0.5,0.2,0.9,0.4,1.2c3.1,5.7,9.5,9.2,16.3,9.2c0.3,0,0.6,0,1,0c6.6-0.3,12.5-3.9,15.4-9.5
						c0-0.1,0.1-0.1,0.1-0.2c2.1-3.9,6.4-6.4,11.2-6.6c5.3-0.3,10.4,2.5,12.7,6.8c0,0.1,0.1,0.1,0.1,0.2c3.3,5.9,10,9.5,17.3,9.2
						c6.5-0.3,12.4-3.8,15.3-9.2c0-0.1,0.1-0.1,0.1-0.2c2.1-3.9,6.4-6.5,11.3-6.8c5.2-0.2,10.2,2.4,12.6,6.5
						c0.1,0.2,0.2,0.4,0.3,0.6c3.1,5.7,9.5,9.2,16.3,9.2c0.3,0,0.6,0,1,0c6.6-0.3,12.5-3.9,15.4-9.5c0-0.1,0.1-0.1,0.1-0.2
						c2.1-3.9,6.4-6.4,11.2-6.6c5.3-0.3,10.4,2.5,12.7,6.8c0,0.1,0.1,0.1,0.1,0.2c3.3,5.9,10.1,9.6,17.3,9.2
						c6.5-0.3,12.4-3.8,15.3-9.2c0-0.1,0.1-0.1,0.1-0.2c2.1-3.9,6.4-6.5,11.3-6.8c5.3-0.3,10.4,2.5,12.7,6.8c0,0.1,0.1,0.1,0.1,0.2
						c3.3,5.9,10.1,9.5,17.3,9.2c6.6-0.3,12.5-3.9,15.4-9.4C659.3,1159.6,658.9,1158.1,657.6,1157.4z"/>
				</g>
			</g>
			<g>
				<g>
					<path d="M657.6,1188.2c-1.2-0.6-2.7-0.2-3.4,1c-2.1,3.9-6.4,6.5-11.3,6.8c-5.3,0.3-10.4-2.5-12.7-6.8c0-0.1-0.1-0.1-0.1-0.2
						c-3.3-5.9-10-9.5-17.3-9.2c-6.5,0.3-12.4,3.8-15.3,9.2c0,0.1-0.1,0.1-0.1,0.2c-2.1,3.9-6.4,6.5-11.3,6.8
						c-5.3,0.3-10.4-2.5-12.7-6.8c0-0.1-0.1-0.1-0.1-0.2c-3.3-5.9-10.1-9.5-17.3-9.2c-6.5,0.3-12.3,3.8-15.3,9.1
						c-0.1,0.1-0.1,0.2-0.2,0.2c-2.1,3.9-6.4,6.5-11.3,6.8c-5.3,0.3-10.4-2.5-12.7-6.8c0-0.1-0.1-0.1-0.1-0.2
						c-3.3-5.9-10-9.5-17.3-9.2c-6.5,0.3-12.4,3.8-15.3,9.2c0,0.1-0.1,0.1-0.1,0.2c-2.1,3.9-6.4,6.5-11.3,6.8
						c-5.3,0.3-10.4-2.5-12.7-6.8c0-0.1-0.1-0.1-0.1-0.2c-3.3-5.9-10.1-9.5-17.3-9.2c-6.6,0.3-12.5,3.9-15.4,9.4
						c0,0.1-0.1,0.1-0.1,0.2c-2.1,3.9-6.4,6.5-11.2,6.7c-5.3,0.3-10.4-2.5-12.7-6.8c-0.6-1-1.7-1.5-2.9-1.2
						c-1.1,0.3-1.9,1.4-1.8,2.5l0,0c0,0.5,0.2,0.9,0.4,1.2c3.1,5.7,9.5,9.2,16.3,9.2c0.3,0,0.6,0,1,0c6.6-0.3,12.5-3.9,15.4-9.5
						c0-0.1,0.1-0.1,0.1-0.2c2.1-3.9,6.4-6.4,11.2-6.6c5.3-0.3,10.4,2.5,12.7,6.8c0,0.1,0.1,0.1,0.1,0.2c3.3,5.9,10,9.5,17.3,9.2
						c6.5-0.3,12.4-3.8,15.3-9.2c0-0.1,0.1-0.1,0.1-0.2c2.1-3.9,6.4-6.5,11.3-6.8c5.2-0.2,10.2,2.4,12.6,6.5
						c0.1,0.2,0.2,0.4,0.3,0.6c3.1,5.7,9.5,9.2,16.3,9.2c0.3,0,0.6,0,1,0c6.6-0.3,12.5-3.9,15.4-9.5c0-0.1,0.1-0.1,0.1-0.2
						c2.1-3.9,6.4-6.4,11.2-6.6c5.3-0.3,10.4,2.5,12.7,6.8c0,0.1,0.1,0.1,0.1,0.2c3.3,5.9,10,9.5,17.3,9.2
						c6.5-0.3,12.4-3.8,15.3-9.2c0-0.1,0.1-0.1,0.1-0.2c2.1-3.9,6.4-6.5,11.3-6.8c5.3-0.3,10.4,2.5,12.7,6.8c0,0.1,0.1,0.1,0.1,0.2
						c3.3,5.9,10,9.5,17.3,9.2c6.6-0.3,12.5-3.9,15.4-9.4C659.3,1190.4,658.9,1188.8,657.6,1188.2z"/>
				</g>
			</g>
			<g>
				<g>
					<path d="M657.6,1219.8c-1.2-0.6-2.7-0.2-3.4,1c-2.1,3.9-6.4,6.5-11.3,6.8c-5.3,0.3-10.4-2.5-12.7-6.8c0-0.1-0.1-0.1-0.1-0.2
						c-3.3-5.9-10-9.5-17.3-9.2c-6.5,0.3-12.4,3.8-15.3,9.2c0,0.1-0.1,0.1-0.1,0.2c-2.1,3.9-6.4,6.5-11.3,6.8
						c-5.3,0.3-10.4-2.5-12.7-6.8c0-0.1-0.1-0.1-0.1-0.2c-3.3-5.9-10.1-9.5-17.3-9.2c-6.5,0.3-12.3,3.8-15.3,9.1
						c-0.1,0.1-0.1,0.2-0.2,0.3c-2.1,3.9-6.4,6.5-11.3,6.8c-5.3,0.3-10.4-2.5-12.7-6.8c0-0.1-0.1-0.1-0.1-0.2
						c-3.3-5.9-10-9.5-17.3-9.2c-6.5,0.3-12.4,3.8-15.3,9.2c0,0.1-0.1,0.1-0.1,0.2c-2.1,3.9-6.4,6.5-11.3,6.8
						c-5.3,0.3-10.4-2.5-12.7-6.8c0-0.1-0.1-0.1-0.1-0.2c-3.3-5.9-10.1-9.5-17.3-9.2c-6.6,0.3-12.5,3.9-15.4,9.4
						c0,0.1-0.1,0.1-0.1,0.2c-2.1,3.9-6.4,6.5-11.2,6.7c-5.3,0.3-10.4-2.5-12.7-6.8c-0.6-1-1.7-1.5-2.9-1.2
						c-1.1,0.3-1.9,1.4-1.8,2.5l0,0c0,0.5,0.2,0.9,0.4,1.2c3.1,5.7,9.5,9.2,16.3,9.2c0.3,0,0.6,0,1,0c6.6-0.3,12.5-3.9,15.4-9.5
						c0-0.1,0.1-0.1,0.1-0.2c2.1-3.9,6.4-6.4,11.2-6.6c5.3-0.3,10.4,2.5,12.7,6.8c0,0.1,0.1,0.1,0.1,0.2c3.3,5.9,10,9.5,17.3,9.2
						c6.5-0.3,12.4-3.8,15.3-9.2c0-0.1,0.1-0.1,0.1-0.2c2.1-3.9,6.4-6.5,11.3-6.8c5.2-0.2,10.2,2.4,12.6,6.5
						c0.1,0.2,0.2,0.4,0.3,0.6c3.1,5.7,9.5,9.2,16.3,9.2c0.3,0,0.6,0,1,0c6.6-0.3,12.5-3.9,15.4-9.5c0-0.1,0.1-0.1,0.1-0.2
						c2.1-3.9,6.4-6.4,11.2-6.6c5.3-0.3,10.4,2.5,12.7,6.8c0,0.1,0.1,0.1,0.1,0.2c3.3,5.9,10.1,9.6,17.3,9.2
						c6.5-0.3,12.4-3.8,15.3-9.2c0-0.1,0.1-0.1,0.1-0.2c2.1-3.9,6.4-6.5,11.3-6.8c5.3-0.3,10.4,2.5,12.7,6.8c0,0.1,0.1,0.1,0.1,0.2
						c3.3,5.9,10,9.5,17.3,9.2c6.6-0.3,12.5-3.9,15.4-9.4C659.3,1221.9,658.9,1220.4,657.6,1219.8z"/>
				</g>
			</g>
			<g>
				<g>
					<path d="M657.6,1250.5c-1.2-0.6-2.7-0.2-3.4,1c-2.1,3.9-6.4,6.5-11.3,6.8c-5.3,0.3-10.4-2.5-12.7-6.8c0-0.1-0.1-0.1-0.1-0.2
						c-3.3-5.9-10.1-9.5-17.3-9.2c-6.5,0.3-12.4,3.8-15.3,9.2c0,0.1-0.1,0.1-0.1,0.2c-2.1,3.9-6.4,6.5-11.3,6.8
						c-5.3,0.3-10.4-2.5-12.7-6.8c0-0.1-0.1-0.1-0.1-0.2c-3.3-5.9-10-9.5-17.3-9.2c-6.5,0.3-12.3,3.8-15.3,9.1
						c-0.1,0.1-0.1,0.2-0.2,0.2c-2.1,3.9-6.4,6.5-11.3,6.8c-5.3,0.3-10.4-2.5-12.7-6.8c0-0.1-0.1-0.1-0.1-0.2
						c-3.3-5.9-10-9.5-17.3-9.2c-6.5,0.3-12.4,3.8-15.3,9.2c0,0.1-0.1,0.1-0.1,0.2c-2.1,3.9-6.4,6.5-11.3,6.8
						c-5.3,0.3-10.4-2.5-12.7-6.8c0-0.1-0.1-0.1-0.1-0.2c-3.3-5.9-10-9.5-17.3-9.2c-6.6,0.3-12.5,3.9-15.4,9.4
						c0,0.1-0.1,0.1-0.1,0.2c-2.1,3.9-6.4,6.4-11.2,6.7c-5.3,0.3-10.4-2.5-12.7-6.8c-0.6-1-1.7-1.5-2.9-1.2
						c-1.1,0.3-1.9,1.4-1.8,2.5l0,0c0,0.5,0.2,0.9,0.4,1.2c3.1,5.7,9.5,9.2,16.3,9.2c0.3,0,0.6,0,1,0c6.6-0.3,12.5-3.9,15.4-9.5
						c0-0.1,0.1-0.1,0.1-0.2c2.1-3.9,6.4-6.4,11.2-6.6c5.3-0.3,10.4,2.5,12.7,6.8c0,0.1,0.1,0.1,0.1,0.2c3.3,5.9,10,9.5,17.3,9.2
						c6.5-0.3,12.4-3.8,15.3-9.2c0-0.1,0.1-0.1,0.1-0.2c2.1-3.9,6.4-6.5,11.3-6.8c5.2-0.2,10.2,2.4,12.6,6.5
						c0.1,0.2,0.2,0.4,0.3,0.6c3.1,5.7,9.5,9.2,16.3,9.2c0.3,0,0.6,0,1,0c6.6-0.3,12.5-3.9,15.4-9.5c0-0.1,0.1-0.1,0.1-0.2
						c2.1-3.9,6.4-6.4,11.2-6.6c5.3-0.2,10.4,2.5,12.7,6.8c0,0.1,0.1,0.1,0.1,0.2c3.3,5.9,10.1,9.5,17.3,9.2
						c6.5-0.3,12.4-3.8,15.3-9.2c0-0.1,0.1-0.1,0.1-0.2c2.1-3.9,6.4-6.5,11.3-6.8c5.3-0.2,10.4,2.5,12.7,6.8c0,0.1,0.1,0.1,0.1,0.2
						c3.3,5.9,10,9.5,17.3,9.2c6.6-0.3,12.5-3.9,15.4-9.4C659.3,1252.7,658.9,1251.2,657.6,1250.5z"/>
				</g>
			</g>
		</g>
		<g class="st8">
			<g>
				<g>
					<path d="M398.7,538.3c3.1,5.7,9.5,9.2,16.3,9.2c0.3,0,0.6,0,1,0c6.6-0.3,12.5-3.9,15.4-9.5c0-0.1,0.1-0.1,0.1-0.2
						c2.1-3.9,6.4-6.4,11.2-6.6c5.3-0.3,10.4,2.5,12.7,6.8c0,0.1,0.1,0.1,0.1,0.2c3.3,5.9,10,9.5,17.3,9.2
						c6.5-0.3,12.4-3.8,15.3-9.2c0-0.1,0.1-0.1,0.1-0.2c2.1-3.9,6.4-6.5,11.3-6.8c5.2-0.2,10.2,2.4,12.6,6.5
						c0.1,0.2,0.2,0.4,0.3,0.6c3.1,5.7,9.5,9.2,16.3,9.2c0.3,0,0.6,0,1,0c6.6-0.3,12.5-3.9,15.4-9.5c0-0.1,0.1-0.1,0.1-0.2
						c2.1-3.9,6.4-6.4,11.2-6.6c5.3-0.3,10.4,2.5,12.7,6.8c0,0.1,0.1,0.1,0.1,0.2c3.3,5.9,10.1,9.6,17.3,9.2
						c6.5-0.3,12.4-3.8,15.3-9.2c0-0.1,0.1-0.1,0.1-0.2c2.1-3.9,6.4-6.5,11.3-6.8c5.3-0.3,10.4,2.5,12.7,6.8c0,0.1,0.1,0.1,0.1,0.2
						c3.3,5.9,10,9.5,17.3,9.2c6.6-0.3,12.5-3.9,15.4-9.4c0.6-1.2,0.2-2.7-1-3.4c-1.2-0.6-2.7-0.2-3.4,1c-2.1,3.9-6.4,6.5-11.3,6.8
						c-5.3,0.3-10.4-2.5-12.7-6.8c0-0.1-0.1-0.1-0.1-0.2c-3.3-5.9-10.1-9.5-17.3-9.2c-6.5,0.3-12.4,3.8-15.3,9.2
						c0,0.1-0.1,0.1-0.1,0.2c-2.1,3.9-6.4,6.5-11.3,6.8c-5.3,0.3-10.4-2.5-12.7-6.8c0-0.1-0.1-0.1-0.1-0.2c-3.3-5.9-10-9.5-17.3-9.2
						c-6.5,0.3-12.3,3.8-15.3,9.1c-0.1,0.1-0.1,0.2-0.2,0.3c-2.1,3.9-6.4,6.5-11.3,6.8c-5.3,0.3-10.4-2.5-12.7-6.8
						c0-0.1-0.1-0.1-0.1-0.2c-3.3-5.9-10-9.5-17.3-9.2c-6.5,0.3-12.4,3.8-15.3,9.2c0,0.1-0.1,0.1-0.1,0.2c-2.1,3.9-6.4,6.5-11.3,6.8
						c-5.3,0.3-10.4-2.5-12.7-6.8c0-0.1-0.1-0.1-0.1-0.2c-3.3-5.9-10.1-9.5-17.3-9.2c-6.6,0.3-12.5,3.9-15.4,9.4
						c0,0.1-0.1,0.1-0.1,0.2c-2.1,3.9-6.4,6.5-11.2,6.7c-5.3,0.3-10.4-2.5-12.7-6.8c-0.6-1-1.7-1.5-2.9-1.2
						c-1.1,0.3-1.9,1.4-1.8,2.5l0,0C398.3,537.5,398.5,537.9,398.7,538.3z"/>
				</g>
			</g>
			<g>
				<g>
					<path d="M657.6,565.3c-1.2-0.6-2.7-0.2-3.4,1c-2.1,3.9-6.4,6.5-11.3,6.8c-5.3,0.3-10.4-2.5-12.7-6.8c0-0.1-0.1-0.1-0.1-0.2
						c-3.3-5.9-10.1-9.5-17.3-9.2c-6.5,0.3-12.4,3.8-15.3,9.2c0,0.1-0.1,0.1-0.1,0.2c-2.1,3.9-6.4,6.5-11.3,6.8
						c-5.3,0.3-10.4-2.5-12.7-6.8c0-0.1-0.1-0.1-0.1-0.2c-3.3-5.9-10-9.5-17.3-9.2c-6.5,0.3-12.3,3.8-15.3,9.1
						c-0.1,0.1-0.1,0.2-0.2,0.2c-2.1,3.9-6.4,6.5-11.3,6.8c-5.3,0.3-10.4-2.5-12.7-6.8c0-0.1-0.1-0.1-0.1-0.2
						c-3.3-5.9-10-9.5-17.3-9.2c-6.5,0.3-12.4,3.8-15.3,9.2c0,0.1-0.1,0.1-0.1,0.2c-2.1,3.9-6.4,6.5-11.3,6.8
						c-5.3,0.3-10.4-2.5-12.7-6.8c0-0.1-0.1-0.1-0.1-0.2c-3.3-5.9-10-9.5-17.3-9.2c-6.6,0.3-12.5,3.9-15.4,9.4
						c0,0.1-0.1,0.1-0.1,0.2c-2.1,3.9-6.4,6.4-11.2,6.7c-5.3,0.3-10.4-2.5-12.7-6.8c-0.6-1-1.7-1.5-2.9-1.2
						c-1.1,0.3-1.9,1.4-1.8,2.5l0,0c0,0.5,0.2,0.9,0.4,1.2c3.1,5.7,9.5,9.2,16.3,9.2c0.3,0,0.6,0,1,0c6.6-0.3,12.5-3.9,15.4-9.5
						c0-0.1,0.1-0.1,0.1-0.2c2.1-3.9,6.4-6.4,11.2-6.6c5.3-0.3,10.4,2.5,12.7,6.8c0,0.1,0.1,0.1,0.1,0.2c3.3,5.9,10,9.5,17.3,9.2
						c6.5-0.3,12.4-3.8,15.3-9.2c0-0.1,0.1-0.1,0.1-0.2c2.1-3.9,6.4-6.5,11.3-6.8c5.2-0.2,10.2,2.4,12.6,6.5
						c0.1,0.2,0.2,0.4,0.3,0.6c3.1,5.7,9.5,9.2,16.3,9.2c0.3,0,0.6,0,1,0c6.6-0.3,12.5-3.9,15.4-9.5c0-0.1,0.1-0.1,0.1-0.2
						c2.1-3.9,6.4-6.4,11.2-6.6c5.3-0.3,10.4,2.5,12.7,6.8c0,0.1,0.1,0.1,0.1,0.2c3.3,5.9,10.1,9.6,17.3,9.2
						c6.5-0.3,12.4-3.8,15.3-9.2c0-0.1,0.1-0.1,0.1-0.2c2.1-3.9,6.4-6.5,11.3-6.8c5.3-0.3,10.4,2.5,12.7,6.8c0,0.1,0.1,0.1,0.1,0.2
						c3.3,5.9,10,9.5,17.3,9.2c6.6-0.3,12.5-3.9,15.4-9.4C659.3,567.5,658.9,566,657.6,565.3z"/>
				</g>
			</g>
			<g>
				<g>
					<path d="M657.6,596.9c-1.2-0.6-2.7-0.2-3.4,1c-2.1,3.9-6.4,6.5-11.3,6.8c-5.3,0.3-10.4-2.5-12.7-6.8c0-0.1-0.1-0.1-0.1-0.2
						c-3.3-5.9-10.1-9.5-17.3-9.2c-6.5,0.3-12.4,3.8-15.3,9.2c0,0.1-0.1,0.1-0.1,0.2c-2.1,3.9-6.4,6.5-11.3,6.8
						c-5.3,0.3-10.4-2.5-12.7-6.8c0-0.1-0.1-0.1-0.1-0.2c-3.3-5.9-10-9.5-17.3-9.2c-6.5,0.3-12.3,3.8-15.3,9.1
						c-0.1,0.1-0.1,0.2-0.2,0.2c-2.1,3.9-6.4,6.5-11.3,6.8c-5.3,0.3-10.4-2.5-12.7-6.8c0-0.1-0.1-0.1-0.1-0.2
						c-3.3-5.9-10-9.5-17.3-9.2c-6.5,0.3-12.4,3.8-15.3,9.2c0,0.1-0.1,0.1-0.1,0.2c-2.1,3.9-6.4,6.5-11.3,6.8
						c-5.3,0.3-10.4-2.5-12.7-6.8c0-0.1-0.1-0.1-0.1-0.2c-3.3-5.9-10-9.5-17.3-9.2c-6.6,0.3-12.5,3.9-15.4,9.4
						c0,0.1-0.1,0.1-0.1,0.2c-2.1,3.9-6.4,6.4-11.2,6.7c-5.3,0.3-10.4-2.5-12.7-6.8c-0.6-1-1.7-1.5-2.9-1.2
						c-1.1,0.3-1.9,1.4-1.8,2.5l0,0c0,0.5,0.2,0.9,0.4,1.2c3.1,5.7,9.5,9.2,16.3,9.2c0.3,0,0.6,0,1,0c6.6-0.3,12.5-3.9,15.4-9.5
						c0-0.1,0.1-0.1,0.1-0.2c2.1-3.9,6.4-6.4,11.2-6.6c5.3-0.3,10.4,2.5,12.7,6.8c0,0.1,0.1,0.1,0.1,0.2c3.3,5.9,10,9.5,17.3,9.2
						c6.5-0.3,12.4-3.8,15.3-9.2c0-0.1,0.1-0.1,0.1-0.2c2.1-3.9,6.4-6.5,11.3-6.8c5.2-0.2,10.2,2.4,12.6,6.5
						c0.1,0.2,0.2,0.4,0.3,0.6c3.1,5.7,9.5,9.2,16.3,9.2c0.3,0,0.6,0,1,0c6.6-0.3,12.5-3.9,15.4-9.5c0-0.1,0.1-0.1,0.1-0.2
						c2.1-3.9,6.4-6.4,11.2-6.6c5.3-0.3,10.4,2.5,12.7,6.8c0,0.1,0.1,0.1,0.1,0.2c3.3,5.9,10.1,9.6,17.3,9.2
						c6.5-0.3,12.4-3.8,15.3-9.2c0-0.1,0.1-0.1,0.1-0.2c2.1-3.9,6.4-6.5,11.3-6.8c5.3-0.3,10.4,2.5,12.7,6.8c0,0.1,0.1,0.1,0.1,0.2
						c3.3,5.9,10,9.5,17.3,9.2c6.6-0.3,12.5-3.9,15.4-9.4C659.3,599.1,658.9,597.5,657.6,596.9z"/>
				</g>
			</g>
			<g>
				<g>
					<path d="M657.6,627.6c-1.2-0.6-2.7-0.2-3.4,1c-2.1,3.9-6.4,6.5-11.3,6.8c-5.3,0.3-10.4-2.5-12.7-6.8c0-0.1-0.1-0.1-0.1-0.2
						c-3.3-5.9-10-9.5-17.3-9.2c-6.5,0.3-12.4,3.8-15.3,9.2c0,0.1-0.1,0.1-0.1,0.2c-2.1,3.9-6.4,6.5-11.3,6.8
						c-5.3,0.3-10.4-2.5-12.7-6.8c0-0.1-0.1-0.1-0.1-0.2c-3.3-5.9-10.1-9.6-17.3-9.2c-6.5,0.3-12.3,3.8-15.3,9.1
						c-0.1,0.1-0.1,0.2-0.2,0.2c-2.1,3.9-6.4,6.5-11.3,6.8c-5.3,0.3-10.4-2.5-12.7-6.8c0-0.1-0.1-0.1-0.1-0.2
						c-3.3-5.9-10-9.5-17.3-9.2c-6.5,0.3-12.4,3.8-15.3,9.2c0,0.1-0.1,0.1-0.1,0.2c-2.1,3.9-6.4,6.5-11.3,6.8
						c-5.3,0.3-10.4-2.5-12.7-6.8c0-0.1-0.1-0.1-0.1-0.2c-3.3-5.9-10-9.5-17.3-9.2c-6.6,0.3-12.5,3.9-15.4,9.4
						c0,0.1-0.1,0.1-0.1,0.2c-2.1,3.9-6.4,6.5-11.2,6.7c-5.3,0.3-10.4-2.5-12.7-6.8c-0.6-1-1.8-1.5-2.9-1.2
						c-1.1,0.3-1.9,1.4-1.8,2.5l0,0c0,0.5,0.2,0.9,0.4,1.2c3.1,5.7,9.5,9.2,16.3,9.2c0.3,0,0.6,0,1,0c6.6-0.3,12.5-3.9,15.4-9.5
						c0-0.1,0.1-0.1,0.1-0.2c2.1-3.9,6.4-6.4,11.2-6.6c5.3-0.3,10.4,2.5,12.7,6.8c0,0.1,0.1,0.1,0.1,0.2c3.3,5.9,10,9.5,17.3,9.2
						c6.5-0.3,12.4-3.8,15.3-9.2c0-0.1,0.1-0.1,0.1-0.2c2.1-3.9,6.4-6.5,11.3-6.8c5.2-0.2,10.2,2.4,12.6,6.5
						c0.1,0.2,0.2,0.4,0.3,0.6c3.1,5.7,9.5,9.2,16.3,9.2c0.3,0,0.6,0,1,0c6.6-0.3,12.5-3.9,15.4-9.5c0-0.1,0.1-0.1,0.1-0.2
						c2.1-3.9,6.4-6.4,11.2-6.6c5.3-0.3,10.4,2.5,12.7,6.8c0,0.1,0.1,0.1,0.1,0.2c3.3,5.9,10.1,9.6,17.3,9.2
						c6.5-0.3,12.4-3.8,15.3-9.2c0-0.1,0.1-0.1,0.1-0.2c2.1-3.9,6.4-6.5,11.3-6.8c5.3-0.3,10.4,2.5,12.7,6.8c0,0.1,0.1,0.1,0.1,0.2
						c3.3,5.9,10.1,9.5,17.3,9.2c6.6-0.3,12.5-3.9,15.4-9.4C659.3,629.8,658.9,628.3,657.6,627.6z"/>
				</g>
			</g>
			<g>
				<g>
					<path d="M657.6,659.2c-1.2-0.6-2.7-0.2-3.4,1c-2.1,3.9-6.4,6.5-11.3,6.8c-5.3,0.3-10.4-2.5-12.7-6.8c0-0.1-0.1-0.1-0.1-0.2
						c-3.3-5.9-10.1-9.5-17.3-9.2c-6.5,0.3-12.4,3.8-15.3,9.2c0,0.1-0.1,0.1-0.1,0.2c-2.1,3.9-6.4,6.5-11.3,6.8
						c-5.3,0.3-10.4-2.5-12.7-6.8c0-0.1-0.1-0.1-0.1-0.2c-3.3-5.9-10-9.6-17.3-9.2c-6.5,0.3-12.3,3.8-15.3,9.1
						c-0.1,0.1-0.1,0.2-0.2,0.2c-2.1,3.9-6.4,6.5-11.3,6.8c-5.3,0.3-10.4-2.5-12.7-6.8c0-0.1-0.1-0.1-0.1-0.2
						c-3.3-5.9-10-9.5-17.3-9.2c-6.5,0.3-12.4,3.8-15.3,9.2c0,0.1-0.1,0.1-0.1,0.2c-2.1,3.9-6.4,6.5-11.3,6.8
						c-5.3,0.3-10.4-2.5-12.7-6.8c0-0.1-0.1-0.1-0.1-0.2c-3.3-5.9-10-9.5-17.3-9.2c-6.6,0.3-12.5,3.9-15.4,9.4
						c0,0.1-0.1,0.1-0.1,0.2c-2.1,3.9-6.4,6.4-11.2,6.7c-5.3,0.3-10.4-2.5-12.7-6.8c-0.6-1-1.7-1.5-2.9-1.2
						c-1.1,0.3-1.9,1.4-1.8,2.5l0,0c0,0.5,0.2,0.9,0.4,1.2c3.1,5.7,9.5,9.2,16.3,9.2c0.3,0,0.6,0,1,0c6.6-0.3,12.5-3.9,15.4-9.5
						c0-0.1,0.1-0.1,0.1-0.2c2.1-3.9,6.4-6.4,11.2-6.6c5.3-0.3,10.4,2.5,12.7,6.8c0,0.1,0.1,0.1,0.1,0.2c3.3,5.9,10,9.5,17.3,9.2
						c6.5-0.3,12.4-3.8,15.3-9.2c0-0.1,0.1-0.1,0.1-0.2c2.1-3.9,6.4-6.5,11.3-6.8c5.2-0.2,10.2,2.4,12.6,6.5
						c0.1,0.2,0.2,0.4,0.3,0.6c3.1,5.7,9.5,9.2,16.3,9.2c0.3,0,0.6,0,1,0c6.6-0.3,12.5-3.9,15.4-9.5c0-0.1,0.1-0.1,0.1-0.2
						c2.1-3.9,6.4-6.4,11.2-6.6c5.3-0.3,10.4,2.5,12.7,6.8c0,0.1,0.1,0.1,0.1,0.2c3.3,5.9,10.1,9.6,17.3,9.2
						c6.5-0.3,12.4-3.8,15.3-9.2c0-0.1,0.1-0.1,0.1-0.2c2.1-3.9,6.4-6.5,11.3-6.8c5.3-0.3,10.4,2.5,12.7,6.8c0,0.1,0.1,0.1,0.1,0.2
						c3.3,5.9,10,9.5,17.3,9.2c6.6-0.3,12.5-3.9,15.4-9.4C659.3,661.4,658.9,659.9,657.6,659.2z"/>
				</g>
			</g>
			<g>
				<g>
					<path d="M657.6,690c-1.2-0.6-2.7-0.2-3.4,1c-2.1,3.9-6.4,6.5-11.3,6.8c-5.3,0.3-10.4-2.5-12.7-6.8c0-0.1-0.1-0.1-0.1-0.2
						c-3.3-5.9-10-9.5-17.3-9.2c-6.5,0.3-12.4,3.8-15.3,9.2c0,0.1-0.1,0.1-0.1,0.2c-2.1,3.9-6.4,6.5-11.3,6.8
						c-5.3,0.3-10.4-2.5-12.7-6.8c0-0.1-0.1-0.1-0.1-0.2c-3.3-5.9-10.1-9.6-17.3-9.2c-6.5,0.3-12.3,3.8-15.3,9.1
						c-0.1,0.1-0.1,0.2-0.2,0.2c-2.1,3.9-6.4,6.5-11.3,6.8c-5.3,0.3-10.4-2.5-12.7-6.8c0-0.1-0.1-0.1-0.1-0.2
						c-3.3-5.9-10-9.5-17.3-9.2c-6.5,0.3-12.4,3.8-15.3,9.2c0,0.1-0.1,0.1-0.1,0.2c-2.1,3.9-6.4,6.5-11.3,6.8
						c-5.3,0.3-10.4-2.5-12.7-6.8c0-0.1-0.1-0.1-0.1-0.2c-3.3-5.9-10-9.5-17.3-9.2c-6.6,0.3-12.5,3.9-15.4,9.4
						c0,0.1-0.1,0.1-0.1,0.2c-2.1,3.9-6.4,6.4-11.2,6.7c-5.3,0.3-10.4-2.5-12.7-6.8c-0.6-1-1.8-1.5-2.9-1.2
						c-1.1,0.3-1.9,1.4-1.8,2.5l0,0c0,0.5,0.2,0.9,0.4,1.2c3.1,5.7,9.5,9.2,16.3,9.2c0.3,0,0.6,0,1,0c6.6-0.3,12.5-3.9,15.4-9.5
						c0-0.1,0.1-0.1,0.1-0.2c2.1-3.9,6.4-6.4,11.2-6.6c5.3-0.3,10.4,2.5,12.7,6.8c0,0.1,0.1,0.1,0.1,0.2c3.3,5.9,10,9.5,17.3,9.2
						c6.5-0.3,12.4-3.8,15.3-9.2c0-0.1,0.1-0.1,0.1-0.2c2.1-3.9,6.4-6.5,11.3-6.8c5.2-0.2,10.2,2.4,12.6,6.5
						c0.1,0.2,0.2,0.4,0.3,0.6c3.1,5.7,9.5,9.2,16.3,9.2c0.3,0,0.6,0,1,0c6.6-0.3,12.5-3.9,15.4-9.5c0-0.1,0.1-0.1,0.1-0.2
						c2.1-3.9,6.4-6.4,11.2-6.6c5.3-0.2,10.4,2.5,12.7,6.8c0,0.1,0.1,0.1,0.1,0.2c3.3,5.9,10.1,9.6,17.3,9.2
						c6.5-0.3,12.4-3.8,15.3-9.2c0-0.1,0.1-0.1,0.1-0.2c2.1-3.9,6.4-6.5,11.3-6.8c5.3-0.2,10.4,2.5,12.7,6.8c0,0.1,0.1,0.1,0.1,0.2
						c3.3,5.9,10.1,9.5,17.3,9.2c6.6-0.3,12.5-3.9,15.4-9.4C659.3,692.1,658.9,690.6,657.6,690z"/>
				</g>
			</g>
			<g>
				<g>
					<path d="M657.6,721.5c-1.2-0.6-2.7-0.2-3.4,1c-2.1,3.9-6.4,6.5-11.3,6.8c-5.3,0.3-10.4-2.5-12.7-6.8c0-0.1-0.1-0.1-0.1-0.2
						c-3.3-5.9-10-9.5-17.3-9.2c-6.5,0.3-12.4,3.8-15.3,9.2c0,0.1-0.1,0.1-0.1,0.2c-2.1,3.9-6.4,6.5-11.3,6.8
						c-5.3,0.3-10.4-2.5-12.7-6.8c0-0.1-0.1-0.1-0.1-0.2c-3.3-5.9-10.1-9.6-17.3-9.2c-6.5,0.3-12.3,3.8-15.3,9.1
						c-0.1,0.1-0.1,0.2-0.2,0.2c-2.1,3.9-6.4,6.5-11.3,6.8c-5.3,0.3-10.4-2.5-12.7-6.8c0-0.1-0.1-0.1-0.1-0.2
						c-3.3-5.9-10-9.5-17.3-9.2c-6.5,0.3-12.4,3.8-15.3,9.2c0,0.1-0.1,0.1-0.1,0.2c-2.1,3.9-6.4,6.5-11.3,6.8
						c-5.3,0.3-10.4-2.5-12.7-6.8c0-0.1-0.1-0.1-0.1-0.2c-3.3-5.9-10-9.5-17.3-9.2c-6.6,0.3-12.5,3.9-15.4,9.4
						c0,0.1-0.1,0.1-0.1,0.2c-2.1,3.9-6.4,6.5-11.2,6.7c-5.3,0.3-10.4-2.5-12.7-6.8c-0.6-1-1.8-1.5-2.9-1.2
						c-1.1,0.3-1.9,1.4-1.8,2.5l0,0c0,0.5,0.2,0.9,0.4,1.2c3.1,5.7,9.5,9.2,16.3,9.2c0.3,0,0.6,0,1,0c6.6-0.3,12.5-3.9,15.4-9.5
						c0-0.1,0.1-0.1,0.1-0.2c2.1-3.9,6.4-6.4,11.2-6.6c5.3-0.3,10.4,2.5,12.7,6.8c0,0.1,0.1,0.1,0.1,0.2c3.3,5.9,10,9.5,17.3,9.2
						c6.5-0.3,12.4-3.8,15.3-9.2c0-0.1,0.1-0.1,0.1-0.2c2.1-3.9,6.4-6.5,11.3-6.8c5.2-0.2,10.2,2.4,12.6,6.5
						c0.1,0.2,0.2,0.4,0.3,0.6c3.1,5.7,9.5,9.2,16.3,9.2c0.3,0,0.6,0,1,0c6.6-0.3,12.5-3.9,15.4-9.5c0-0.1,0.1-0.1,0.1-0.2
						c2.1-3.9,6.4-6.4,11.2-6.6c5.3-0.3,10.4,2.5,12.7,6.8c0,0.1,0.1,0.1,0.1,0.2c3.3,5.9,10.1,9.6,17.3,9.2
						c6.5-0.3,12.4-3.8,15.3-9.2c0-0.1,0.1-0.1,0.1-0.2c2.1-3.9,6.4-6.5,11.3-6.8c5.3-0.3,10.4,2.5,12.7,6.8c0,0.1,0.1,0.1,0.1,0.2
						c3.3,5.9,10.1,9.5,17.3,9.2c6.6-0.3,12.5-3.9,15.4-9.4C659.3,723.7,658.9,722.2,657.6,721.5z"/>
				</g>
			</g>
			<g>
				<g>
					<path d="M657.6,752.3c-1.2-0.6-2.7-0.2-3.4,1c-2.1,3.9-6.4,6.5-11.3,6.8c-5.3,0.3-10.4-2.5-12.7-6.8c0-0.1-0.1-0.1-0.1-0.2
						c-3.3-5.9-10.1-9.5-17.3-9.2c-6.5,0.3-12.4,3.8-15.3,9.2c0,0.1-0.1,0.1-0.1,0.2c-2.1,3.9-6.4,6.5-11.3,6.8
						c-5.3,0.3-10.4-2.5-12.7-6.8c0-0.1-0.1-0.1-0.1-0.2c-3.3-5.9-10-9.6-17.3-9.2c-6.5,0.3-12.3,3.8-15.3,9.1
						c-0.1,0.1-0.1,0.2-0.2,0.3c-2.1,3.9-6.4,6.5-11.3,6.8c-5.3,0.3-10.4-2.5-12.7-6.8c0-0.1-0.1-0.1-0.1-0.2
						c-3.3-5.9-10-9.5-17.3-9.2c-6.5,0.3-12.4,3.8-15.3,9.2c0,0.1-0.1,0.1-0.1,0.2c-2.1,3.9-6.4,6.5-11.3,6.8
						c-5.3,0.3-10.4-2.5-12.7-6.8c0-0.1-0.1-0.1-0.1-0.2c-3.3-5.9-10.1-9.5-17.3-9.2c-6.6,0.3-12.5,3.9-15.4,9.4
						c0,0.1-0.1,0.1-0.1,0.2c-2.1,3.9-6.4,6.5-11.2,6.7c-5.3,0.3-10.4-2.5-12.7-6.8c-0.6-1-1.7-1.5-2.9-1.2
						c-1.1,0.3-1.9,1.4-1.8,2.5l0,0c0,0.5,0.2,0.9,0.4,1.2c3.1,5.7,9.5,9.2,16.3,9.2c0.3,0,0.6,0,1,0c6.6-0.3,12.5-3.9,15.4-9.5
						c0-0.1,0.1-0.1,0.1-0.2c2.1-3.9,6.4-6.4,11.2-6.6c5.3-0.3,10.4,2.5,12.7,6.8c0,0.1,0.1,0.1,0.1,0.2c3.3,5.9,10,9.5,17.3,9.2
						c6.5-0.3,12.4-3.8,15.3-9.2c0-0.1,0.1-0.1,0.1-0.2c2.1-3.9,6.4-6.5,11.3-6.8c5.2-0.2,10.2,2.4,12.6,6.5
						c0.1,0.2,0.2,0.4,0.3,0.6c3.1,5.7,9.5,9.2,16.3,9.2c0.3,0,0.6,0,1,0c6.6-0.3,12.5-3.9,15.4-9.5c0-0.1,0.1-0.1,0.1-0.2
						c2.1-3.9,6.4-6.4,11.2-6.6c5.3-0.3,10.4,2.5,12.7,6.8c0,0.1,0.1,0.1,0.1,0.2c3.3,5.9,10.1,9.6,17.3,9.2
						c6.5-0.3,12.4-3.8,15.3-9.2c0-0.1,0.1-0.1,0.1-0.2c2.1-3.9,6.4-6.5,11.3-6.8c5.3-0.3,10.4,2.5,12.7,6.8c0,0.1,0.1,0.1,0.1,0.2
						c3.3,5.9,10,9.5,17.3,9.2c6.6-0.3,12.5-3.9,15.4-9.4C659.3,754.5,658.9,752.9,657.6,752.3z"/>
				</g>
			</g>
			<g>
				<g>
					<path d="M657.6,783.9c-1.2-0.6-2.7-0.2-3.4,1c-2.1,3.9-6.4,6.5-11.3,6.8c-5.3,0.3-10.4-2.5-12.7-6.8c0-0.1-0.1-0.1-0.1-0.2
						c-3.3-5.9-10-9.5-17.3-9.2c-6.5,0.3-12.4,3.8-15.3,9.2c0,0.1-0.1,0.1-0.1,0.2c-2.1,3.9-6.4,6.5-11.3,6.8
						c-5.3,0.3-10.4-2.5-12.7-6.8c0-0.1-0.1-0.1-0.1-0.2c-3.3-5.9-10.1-9.6-17.3-9.2c-6.5,0.3-12.3,3.8-15.3,9.1
						c-0.1,0.1-0.1,0.2-0.2,0.2c-2.1,3.9-6.4,6.5-11.3,6.8c-5.3,0.3-10.4-2.5-12.7-6.8c0-0.1-0.1-0.1-0.1-0.2
						c-3.3-5.9-10-9.5-17.3-9.2c-6.5,0.3-12.4,3.8-15.3,9.2c0,0.1-0.1,0.1-0.1,0.2c-2.1,3.9-6.4,6.5-11.3,6.8
						c-5.3,0.3-10.4-2.5-12.7-6.8c0-0.1-0.1-0.1-0.1-0.2c-3.3-5.9-10-9.5-17.3-9.2c-6.6,0.3-12.5,3.9-15.4,9.4
						c0,0.1-0.1,0.1-0.1,0.2c-2.1,3.9-6.4,6.4-11.2,6.7c-5.3,0.3-10.4-2.5-12.7-6.8c-0.6-1-1.8-1.5-2.9-1.2
						c-1.1,0.3-1.9,1.4-1.8,2.5l0,0c0,0.5,0.2,0.9,0.4,1.2c3.1,5.7,9.5,9.2,16.3,9.2c0.3,0,0.6,0,1,0c6.6-0.3,12.5-3.9,15.4-9.5
						c0-0.1,0.1-0.1,0.1-0.2c2.1-3.9,6.4-6.4,11.2-6.6c5.3-0.3,10.4,2.5,12.7,6.8c0,0.1,0.1,0.1,0.1,0.2c3.3,5.9,10,9.5,17.3,9.2
						c6.5-0.3,12.4-3.8,15.3-9.2c0-0.1,0.1-0.1,0.1-0.2c2.1-3.9,6.4-6.5,11.3-6.8c5.2-0.2,10.2,2.4,12.6,6.5
						c0.1,0.2,0.2,0.4,0.3,0.6c3.1,5.7,9.5,9.2,16.3,9.2c0.3,0,0.6,0,1,0c6.6-0.3,12.5-3.9,15.4-9.5c0-0.1,0.1-0.1,0.1-0.2
						c2.1-3.9,6.4-6.4,11.2-6.6c5.3-0.3,10.4,2.5,12.7,6.8c0,0.1,0.1,0.1,0.1,0.2c3.3,5.9,10.1,9.6,17.3,9.2
						c6.5-0.3,12.4-3.8,15.3-9.2c0-0.1,0.1-0.1,0.1-0.2c2.1-3.9,6.4-6.5,11.3-6.8c5.3-0.3,10.4,2.5,12.7,6.8c0,0.1,0.1,0.1,0.1,0.2
						c3.3,5.9,10.1,9.5,17.3,9.2c6.6-0.3,12.5-3.9,15.4-9.4C659.3,786,658.9,784.5,657.6,783.9z"/>
				</g>
			</g>
			<g>
				<g>
					<path d="M657.6,814.6c-1.2-0.6-2.7-0.2-3.4,1c-2.1,3.9-6.4,6.5-11.3,6.8c-5.3,0.3-10.4-2.5-12.7-6.8c0-0.1-0.1-0.1-0.1-0.2
						c-3.3-5.9-10-9.5-17.3-9.2c-6.5,0.3-12.4,3.8-15.3,9.2c0,0.1-0.1,0.1-0.1,0.2c-2.1,3.9-6.4,6.5-11.3,6.8
						c-5.3,0.3-10.4-2.5-12.7-6.8c0-0.1-0.1-0.1-0.1-0.2c-3.3-5.9-10.1-9.5-17.3-9.2c-6.5,0.3-12.3,3.8-15.3,9.1
						c-0.1,0.1-0.1,0.2-0.2,0.2c-2.1,3.9-6.4,6.5-11.3,6.8c-5.3,0.3-10.4-2.5-12.7-6.8c0-0.1-0.1-0.1-0.1-0.2
						c-3.3-5.9-10-9.5-17.3-9.2c-6.5,0.3-12.4,3.8-15.3,9.2c0,0.1-0.1,0.1-0.1,0.2c-2.1,3.9-6.4,6.5-11.3,6.8
						c-5.3,0.3-10.4-2.5-12.7-6.8c0-0.1-0.1-0.1-0.1-0.2c-3.3-5.9-10.1-9.5-17.3-9.2c-6.6,0.3-12.5,3.9-15.4,9.4
						c0,0.1-0.1,0.1-0.1,0.2c-2.1,3.9-6.4,6.5-11.2,6.7c-5.3,0.3-10.4-2.5-12.7-6.8c-0.6-1-1.7-1.5-2.9-1.2
						c-1.1,0.3-1.9,1.4-1.8,2.5l0,0c0,0.5,0.2,0.9,0.4,1.2c3.1,5.7,9.5,9.2,16.3,9.2c0.3,0,0.6,0,1,0c6.6-0.3,12.5-3.9,15.4-9.5
						c0-0.1,0.1-0.1,0.1-0.2c2.1-3.9,6.4-6.4,11.2-6.6c5.3-0.3,10.4,2.5,12.7,6.8c0,0.1,0.1,0.1,0.1,0.2c3.3,5.9,10,9.5,17.3,9.2
						c6.5-0.3,12.4-3.8,15.3-9.2c0-0.1,0.1-0.1,0.1-0.2c2.1-3.9,6.4-6.5,11.3-6.8c5.2-0.2,10.2,2.4,12.6,6.5
						c0.1,0.2,0.2,0.4,0.3,0.6c3.1,5.7,9.5,9.2,16.3,9.2c0.3,0,0.6,0,1,0c6.6-0.3,12.5-3.9,15.4-9.5c0-0.1,0.1-0.1,0.1-0.2
						c2.1-3.9,6.4-6.4,11.2-6.6c5.3-0.3,10.4,2.5,12.7,6.8c0,0.1,0.1,0.1,0.1,0.2c3.3,5.9,10,9.5,17.3,9.2
						c6.5-0.3,12.4-3.8,15.3-9.2c0-0.1,0.1-0.1,0.1-0.2c2.1-3.9,6.4-6.5,11.3-6.8c5.3-0.3,10.4,2.5,12.7,6.8c0,0.1,0.1,0.1,0.1,0.2
						c3.3,5.9,10,9.5,17.3,9.2c6.6-0.3,12.5-3.9,15.4-9.4C659.3,816.8,658.9,815.3,657.6,814.6z"/>
				</g>
			</g>
			<g>
				<g>
					<path d="M657.6,846.2c-1.2-0.6-2.7-0.2-3.4,1c-2.1,3.9-6.4,6.5-11.3,6.8c-5.3,0.3-10.4-2.5-12.7-6.8c0-0.1-0.1-0.1-0.1-0.2
						c-3.3-5.9-10-9.5-17.3-9.2c-6.5,0.3-12.4,3.8-15.3,9.2c0,0.1-0.1,0.1-0.1,0.2c-2.1,3.9-6.4,6.5-11.3,6.8
						c-5.3,0.3-10.4-2.5-12.7-6.8c0-0.1-0.1-0.1-0.1-0.2c-3.3-5.9-10.1-9.5-17.3-9.2c-6.5,0.3-12.3,3.8-15.3,9.1
						c-0.1,0.1-0.1,0.2-0.2,0.3c-2.1,3.9-6.4,6.5-11.3,6.8c-5.3,0.3-10.4-2.5-12.7-6.8c0-0.1-0.1-0.1-0.1-0.2
						c-3.3-5.9-10-9.5-17.3-9.2c-6.5,0.3-12.4,3.8-15.3,9.2c0,0.1-0.1,0.1-0.1,0.2c-2.1,3.9-6.4,6.5-11.3,6.8
						c-5.3,0.3-10.4-2.5-12.7-6.8c0-0.1-0.1-0.1-0.1-0.2c-3.3-5.9-10.1-9.5-17.3-9.2c-6.6,0.3-12.5,3.9-15.4,9.4
						c0,0.1-0.1,0.1-0.1,0.2c-2.1,3.9-6.4,6.5-11.2,6.7c-5.3,0.3-10.4-2.5-12.7-6.8c-0.6-1-1.7-1.5-2.9-1.2
						c-1.1,0.3-1.9,1.4-1.8,2.5l0,0c0,0.5,0.2,0.9,0.4,1.2c3.1,5.7,9.5,9.2,16.3,9.2c0.3,0,0.6,0,1,0c6.6-0.3,12.5-3.9,15.4-9.5
						c0-0.1,0.1-0.1,0.1-0.2c2.1-3.9,6.4-6.4,11.2-6.6c5.3-0.3,10.4,2.5,12.7,6.8c0,0.1,0.1,0.1,0.1,0.2c3.3,5.9,10,9.5,17.3,9.2
						c6.5-0.3,12.4-3.8,15.3-9.2c0-0.1,0.1-0.1,0.1-0.2c2.1-3.9,6.4-6.5,11.3-6.8c5.2-0.2,10.2,2.4,12.6,6.5
						c0.1,0.2,0.2,0.4,0.3,0.6c3.1,5.7,9.5,9.2,16.3,9.2c0.3,0,0.6,0,1,0c6.6-0.3,12.5-3.9,15.4-9.5c0-0.1,0.1-0.1,0.1-0.2
						c2.1-3.9,6.4-6.4,11.2-6.6c5.3-0.3,10.4,2.5,12.7,6.8c0,0.1,0.1,0.1,0.1,0.2c3.3,5.9,10.1,9.6,17.3,9.2
						c6.5-0.3,12.4-3.8,15.3-9.2c0-0.1,0.1-0.1,0.1-0.2c2.1-3.9,6.4-6.5,11.3-6.8c5.3-0.3,10.4,2.5,12.7,6.8c0,0.1,0.1,0.1,0.1,0.2
						c3.3,5.9,10,9.5,17.3,9.2c6.6-0.3,12.5-3.9,15.4-9.4C659.3,848.4,658.9,846.8,657.6,846.2z"/>
				</g>
			</g>
			<g>
				<g>
					<path d="M657.6,876.9c-1.2-0.6-2.7-0.2-3.4,1c-2.1,3.9-6.4,6.5-11.3,6.8c-5.3,0.3-10.4-2.5-12.7-6.8c0-0.1-0.1-0.1-0.1-0.2
						c-3.3-5.9-10.1-9.5-17.3-9.2c-6.5,0.3-12.4,3.8-15.3,9.2c0,0.1-0.1,0.1-0.1,0.2c-2.1,3.9-6.4,6.5-11.3,6.8
						c-5.3,0.3-10.4-2.5-12.7-6.8c0-0.1-0.1-0.1-0.1-0.2c-3.3-5.9-10-9.5-17.3-9.2c-6.5,0.3-12.3,3.8-15.3,9.1
						c-0.1,0.1-0.1,0.2-0.2,0.2c-2.1,3.9-6.4,6.5-11.3,6.8c-5.3,0.3-10.4-2.5-12.7-6.8c0-0.1-0.1-0.1-0.1-0.2
						c-3.3-5.9-10-9.5-17.3-9.2c-6.5,0.3-12.4,3.8-15.3,9.2c0,0.1-0.1,0.1-0.1,0.2c-2.1,3.9-6.4,6.5-11.3,6.8
						c-5.3,0.3-10.4-2.5-12.7-6.8c0-0.1-0.1-0.1-0.1-0.2c-3.3-5.9-10-9.5-17.3-9.2c-6.6,0.3-12.5,3.9-15.4,9.4
						c0,0.1-0.1,0.1-0.1,0.2c-2.1,3.9-6.4,6.4-11.2,6.7c-5.3,0.3-10.4-2.5-12.7-6.8c-0.6-1-1.7-1.5-2.9-1.2
						c-1.1,0.3-1.9,1.4-1.8,2.5l0,0c0,0.5,0.2,0.9,0.4,1.2c3.1,5.7,9.5,9.2,16.3,9.2c0.3,0,0.6,0,1,0c6.6-0.3,12.5-3.9,15.4-9.5
						c0-0.1,0.1-0.1,0.1-0.2c2.1-3.9,6.4-6.4,11.2-6.6c5.3-0.3,10.4,2.5,12.7,6.8c0,0.1,0.1,0.1,0.1,0.2c3.3,5.9,10,9.5,17.3,9.2
						c6.5-0.3,12.4-3.8,15.3-9.2c0-0.1,0.1-0.1,0.1-0.2c2.1-3.9,6.4-6.5,11.3-6.8c5.2-0.2,10.2,2.4,12.6,6.5
						c0.1,0.2,0.2,0.4,0.3,0.6c3.1,5.7,9.5,9.2,16.3,9.2c0.3,0,0.6,0,1,0c6.6-0.3,12.5-3.9,15.4-9.5c0-0.1,0.1-0.1,0.1-0.2
						c2.1-3.9,6.4-6.4,11.2-6.6c5.3-0.2,10.4,2.5,12.7,6.8c0,0.1,0.1,0.1,0.1,0.2c3.3,5.9,10.1,9.5,17.3,9.2
						c6.5-0.3,12.4-3.8,15.3-9.2c0-0.1,0.1-0.1,0.1-0.2c2.1-3.9,6.4-6.5,11.3-6.8c5.3-0.2,10.4,2.5,12.7,6.8c0,0.1,0.1,0.1,0.1,0.2
						c3.3,5.9,10,9.5,17.3,9.2c6.6-0.3,12.5-3.9,15.4-9.4C659.3,879.1,658.9,877.6,657.6,876.9z"/>
				</g>
			</g>
		</g>
	</g>
	<g>
		<g class="st9">
			<g>
				<g>
					<circle class="st1" cx="595.4" cy="1040.7" r="190"/>
				</g>
			</g>
		</g>
		<g>
			<g>
				<path d="M595.4,1233.2c-106.2,0-192.5-86.4-192.5-192.5s86.4-192.5,192.5-192.5s192.5,86.4,192.5,192.5
					S701.5,1233.2,595.4,1233.2z M595.4,853.2c-103.4,0-187.5,84.1-187.5,187.5s84.1,187.5,187.5,187.5s187.5-84.1,187.5-187.5
					S698.8,853.2,595.4,853.2z"/>
			</g>
		</g>
		<g>
			<g>
				<path d="M896,1339.4c-0.6,0-1.3-0.2-1.8-0.7l-164-164c-1-1-1-2.6,0-3.5s2.6-1,3.5,0l164,164c1,1,1,2.6,0,3.5
					C897.2,1339.1,896.6,1339.4,896,1339.4z"/>
			</g>
		</g>
	</g>
</g>
</svg>
