<?xml version="1.0" encoding="utf-8"?>
<!-- Generator: Adobe Illustrator 28.2.0, SVG Export Plug-In . SVG Version: 6.00 Build 0)  -->
<svg version="1.1" id="Layer_1" xmlns="http://www.w3.org/2000/svg" xmlns:xlink="http://www.w3.org/1999/xlink" x="0px" y="0px"
	 viewBox="0 0 912.8 211.3" style="enable-background:new 0 0 912.8 211.3;" xml:space="preserve">
<style type="text/css">
	.st0{fill:#FFFFFF;}
	.st1{fill:#1C1F24;}
	.st2{fill:none;}
	.st3{fill:#EC5404;}
</style>
<g>
	<path class="st0" d="M136.5,83.7V73.6c0-29.8-24.3-54.1-54.1-54.1S28.3,43.8,28.3,73.6v9.7c-7.7,2.4-13.3,9.5-13.3,18v77
		c0,10.4,8.4,18.8,18.8,18.8h96c10.4,0,18.8-8.4,18.8-18.8v-77C148.6,93.3,143.6,86.4,136.5,83.7z"/>
	<g>
		<path class="st1" d="M189,154.2v-47.7h-5.8V94.9h11.9v6.9h3c1.5-2.4,3.5-4.4,6-5.7c2.5-1.4,5.6-2,9.1-2c4.4,0,8.1,0.9,11.1,2.8
			c3,1.8,5.3,4.4,6.9,7.7c1.6,3.3,2.3,7.2,2.3,11.6c0,4.4-0.8,8.3-2.3,11.6s-3.7,5.9-6.6,7.7c-2.9,1.8-6.4,2.7-10.5,2.7
			c-3.1,0-5.8-0.6-8-1.7c-2.2-1.2-4-2.8-5.2-4.9h-0.3v22.7L189,154.2L189,154.2z M211,127.9c3.6,0,6.3-1.1,8.1-3.2
			c1.8-2.1,2.7-5,2.7-8.7s-0.9-6.6-2.7-8.7c-1.8-2.1-4.5-3.2-8.1-3.2c-3.2,0-5.7,0.9-7.5,2.6c-1.9,1.8-2.8,4.2-2.8,7.3v3.8
			c0,3.1,0.9,5.5,2.8,7.3C205.4,127,207.9,127.9,211,127.9z"/>
		<path class="st1" d="M241.4,137.2v-30.8h-5.8V94.8h11.9v8.3h3c1.1-3,2.9-5.2,5.4-6.6c2.4-1.5,5.2-2.2,8.3-2.2h3.6v10.2h-4.1
			c-3.7,0-6.4,1-8.1,3.1c-1.7,2.1-2.6,4.8-2.6,8.2v21.4L241.4,137.2L241.4,137.2z"/>
		<path class="st1" d="M278,90.7c-1.8,0-3.3-0.6-4.6-1.9c-1.2-1.2-1.9-2.8-1.9-4.6s0.6-3.3,1.9-4.6c1.2-1.2,2.8-1.9,4.6-1.9
			s3.3,0.6,4.6,1.9c1.2,1.2,1.9,2.8,1.9,4.6s-0.6,3.3-1.9,4.6C281.3,90.1,279.8,90.7,278,90.7z M272.2,137.2V94.8h11.7v42.4H272.2z"
			/>
		<path class="st1" d="M305.9,137.2l-18.1-42.4h12.4l11.9,28.8h0.3l11.5-28.8H336l-18.1,42.4H305.9z"/>
		<path class="st1" d="M352.7,138c-5,0-8.9-1.2-11.7-3.6c-2.8-2.4-4.2-5.6-4.2-9.6c0-4.2,1.5-7.4,4.4-9.7s7.1-3.4,12.6-3.4h12.1
			v-1.6c0-4.6-2.7-6.9-8.2-6.9c-4.8,0-7.6,1.6-8.6,4.9h-11.7c0.9-4.7,3.1-8.2,6.6-10.6c3.4-2.4,8-3.6,13.7-3.6
			c6.3,0,11.1,1.4,14.4,4.2c3.3,2.8,5,6.9,5,12.4v15h5.5v11.6h-11.9v-6.9h-3c-1.5,2.4-3.4,4.3-5.9,5.7
			C359.4,137.3,356.4,138,352.7,138z M354.4,129.1c2.2,0,4.2-0.4,5.9-1.2s3-1.9,4-3.2s1.5-2.9,1.5-4.6v-0.6h-11.6
			c-4.2,0-6.4,1.6-6.4,4.7c0,1.6,0.6,2.8,1.8,3.6C350.8,128.7,352.4,129.1,354.4,129.1z"/>
		<path class="st1" d="M406.4,138.1c-4.4,0-8.3-0.9-11.6-2.7s-5.9-4.4-7.8-7.7c-1.9-3.3-2.8-7.2-2.8-11.7s0.9-8.4,2.8-11.7
			c1.8-3.3,4.4-5.8,7.8-7.7c3.3-1.8,7.2-2.7,11.7-2.7c5.6,0,10.2,1.4,13.8,4.2s5.9,6.7,6.9,11.7h-11.8c-0.6-1.8-1.7-3.2-3.2-4.2
			s-3.4-1.5-5.7-1.5c-3.2,0-5.7,1-7.6,3.1c-1.9,2.1-2.9,5-2.9,8.8s1,6.7,2.9,8.8s4.4,3.1,7.6,3.1c5,0,8-2.1,9.1-6.4h11.8
			c-0.8,5.2-3.1,9.2-6.7,12.1C416.9,136.6,412.2,138.1,406.4,138.1z"/>
		<path class="st1" d="M432.4,154.2v-9.4h9.3l3.3-7.9l-18.3-42h12.5l11.9,28.5h0.3L463,94.9h12l-18.1,42.4l-3.5,8.2
			c-1.2,2.8-2.5,4.9-4.1,6.5c-1.6,1.5-3.9,2.3-7.1,2.3L432.4,154.2L432.4,154.2z"/>
		<path class="st1" d="M497.5,155c-6.4,0-11.5-1.3-15.5-3.8c-4-2.6-6.3-6.1-7.1-10.7h12.4c1.1,3.5,4.4,5.2,9.8,5.2
			c3.7,0,6.5-0.8,8.4-2.5c2-1.7,2.9-4.1,2.9-7.2v-5.6H508c-1.3,2.3-3,4-5.3,5.2c-2.2,1.2-4.9,1.8-8,1.8c-4,0-7.5-0.9-10.4-2.6
			c-2.9-1.8-5.2-4.3-6.9-7.5c-1.6-3.2-2.4-7.1-2.4-11.4c0-6.6,1.8-11.8,5.5-15.7c3.6-3.9,8.7-5.9,15-5.9c3.6,0,6.6,0.7,9.1,2
			c2.5,1.4,4.5,3.3,6,5.7h3v-6.9h11.9v11.6h-5.8v29.7c0,6-1.9,10.7-5.8,14C510.3,153.4,504.7,155,497.5,155z M497.8,127.1
			c3.2,0,5.8-0.9,7.6-2.7s2.8-4.2,2.8-7.3v-3c0-3.1-0.9-5.5-2.8-7.2c-1.9-1.8-4.4-2.6-7.6-2.6c-3.4,0-6.1,1-8,3s-2.9,4.8-2.9,8.5
			c0,3.6,1,6.4,2.9,8.4S494.4,127.1,497.8,127.1z"/>
		<path class="st1" d="M544,138c-5,0-8.9-1.2-11.7-3.6c-2.8-2.4-4.2-5.6-4.2-9.6c0-4.2,1.5-7.4,4.4-9.7s7.1-3.4,12.6-3.4h12.1v-1.6
			c0-4.6-2.7-6.9-8.2-6.9c-4.8,0-7.6,1.6-8.6,4.9h-11.7c0.9-4.7,3.1-8.2,6.6-10.6c3.4-2.4,8-3.6,13.7-3.6c6.3,0,11.1,1.4,14.4,4.2
			s5,6.9,5,12.4v15h5.5v11.6H562v-6.9h-3c-1.5,2.4-3.4,4.3-5.9,5.7C550.7,137.3,547.6,138,544,138z M545.7,129.1
			c2.2,0,4.2-0.4,5.9-1.2c1.7-0.8,3-1.9,4-3.2s1.5-2.9,1.5-4.6v-0.6h-11.6c-4.2,0-6.4,1.6-6.4,4.7c0,1.6,0.6,2.8,1.8,3.6
			C542.1,128.7,543.7,129.1,545.7,129.1z"/>
		<path class="st1" d="M590.6,137.2c-3,0-5.4-0.8-7-2.3c-1.7-1.5-2.5-3.9-2.5-7V104h-7.3v-9.2h7.4V82.1h11.4v12.7h9.8v9.2h-9.7v24
			h10.7v9.2H590.6z"/>
		<path class="st1" d="M627.1,138.1c-4.6,0-8.5-0.9-11.9-2.7s-6-4.4-7.8-7.7s-2.8-7.2-2.8-11.8c0-4.5,0.9-8.4,2.7-11.7
			c1.8-3.3,4.3-5.8,7.7-7.6s7.2-2.6,11.8-2.6c4.4,0,8.2,0.8,11.4,2.5c3.2,1.7,5.6,4.1,7.3,7.3c1.7,3.2,2.5,6.9,2.5,11.3v4h-32.1
			c0.5,3.2,1.7,5.6,3.6,7.2c1.9,1.6,4.5,2.5,7.6,2.5c2.5,0,4.5-0.4,5.9-1.3c1.5-0.8,2.5-2.1,3.1-3.9h11.7c-0.9,4.5-3.2,8.1-6.9,10.6
			C637.4,136.8,632.7,138.1,627.1,138.1z M616.1,111.3h20.6c-0.4-2.7-1.4-4.7-3.1-6s-4-2-6.9-2s-5.2,0.7-7,2
			C618,106.7,616.7,108.7,616.1,111.3z"/>
		<path class="st1" d="M662.8,137.2l-13.7-42.4h12l8.5,27.7h0.4l9.9-27.7h11l9.9,27.7h0.4l8.5-27.7h11.9L708,137.2h-12.5l-9.9-26.8
			h-0.3l-9.8,26.8H662.8z"/>
		<path class="st1" d="M739,138c-5,0-8.9-1.2-11.7-3.6c-2.8-2.4-4.2-5.6-4.2-9.6c0-4.2,1.5-7.4,4.4-9.7s7.1-3.4,12.6-3.4h12.1v-1.6
			c0-4.6-2.7-6.9-8.2-6.9c-4.8,0-7.6,1.6-8.6,4.9h-11.7c0.9-4.7,3.1-8.2,6.6-10.6c3.4-2.4,8-3.6,13.7-3.6c6.3,0,11.1,1.4,14.4,4.2
			s5,6.9,5,12.4v15h5.5v11.6H757v-6.9h-3c-1.5,2.4-3.4,4.3-5.9,5.7C745.7,137.3,742.6,138,739,138z M740.7,129.1
			c2.2,0,4.2-0.4,5.9-1.2c1.7-0.8,3-1.9,4-3.2s1.5-2.9,1.5-4.6v-0.6h-11.6c-4.2,0-6.4,1.6-6.4,4.7c0,1.6,0.6,2.8,1.8,3.6
			C737.1,128.7,738.7,129.1,740.7,129.1z"/>
		<path class="st1" d="M772.8,154.2v-9.4h9.3l3.3-7.9l-18.3-42h12.4l11.9,28.5h0.3l11.6-28.5h12l-18.1,42.4l-3.5,8.2
			c-1.2,2.8-2.5,4.9-4.1,6.5c-1.6,1.5-3.9,2.3-7.1,2.3L772.8,154.2L772.8,154.2z"/>
		<path class="st1" d="M819.5,138.1c-2,0-3.7-0.7-5-2.1c-1.4-1.4-2.1-3.1-2.1-5c0-2,0.7-3.7,2.1-5c1.4-1.4,3.1-2.1,5-2.1
			s3.7,0.7,5,2.1c1.4,1.4,2.1,3.1,2.1,5c0,2-0.7,3.7-2.1,5C823.1,137.4,821.5,138.1,819.5,138.1z"/>
		<path class="st1" d="M839,90.7c-1.8,0-3.3-0.6-4.6-1.9c-1.2-1.2-1.9-2.8-1.9-4.6s0.6-3.3,1.9-4.6c1.2-1.2,2.8-1.9,4.6-1.9
			c1.8,0,3.3,0.6,4.6,1.9c1.2,1.2,1.9,2.8,1.9,4.6s-0.6,3.3-1.9,4.6S840.8,90.7,839,90.7z M833.2,137.2V94.8h11.7v42.4H833.2z"/>
		<path class="st1" d="M872.6,138.1c-4.6,0-8.6-0.9-12-2.7s-6.1-4.4-7.9-7.7s-2.8-7.2-2.8-11.7s0.9-8.4,2.8-11.7s4.5-5.8,8-7.6
			s7.5-2.7,12.1-2.7s8.6,0.9,12,2.7s6,4.3,7.8,7.6c1.9,3.3,2.8,7.2,2.8,11.7s-0.9,8.4-2.8,11.7c-1.8,3.3-4.5,5.9-7.9,7.7
			C881.3,137.2,877.3,138.1,872.6,138.1z M872.6,127.9c3.5,0,6.2-1.1,8.1-3.2c1.9-2.1,2.8-5,2.8-8.7s-0.9-6.6-2.8-8.7
			c-1.9-2.1-4.6-3.1-8.1-3.1c-3.6,0-6.3,1-8.2,3.1c-1.9,2.1-2.9,5-2.9,8.7s1,6.6,2.9,8.7C866.3,126.8,869.1,127.9,872.6,127.9z"/>
	</g>
	<g id="XMLID_00000168106387504418981190000007858938712342648450_">
		<g>
			<polygon class="st1" points="110,146.1 110,185.9 53.8,185.9 53.8,146.1 81.9,169.9 			"/>
			<g>
				<path class="st2" d="M82.4,55c-10.2,0-18.6,8.3-18.6,18.6v8.9H101v-8.9C101,63.4,92.7,55,82.4,55z"/>
				<path class="st3" d="M129.8,93.8H52.5V73.6c0-16.5,13.4-29.8,29.8-29.8c16.5,0,29.8,13.4,29.8,29.8v10.6h13V73.6
					c0-23.6-19.2-42.8-42.8-42.8S39.5,50,39.5,73.6v20.2h-5.7c-4.1,0-7.5,3.4-7.5,7.5v77c0,4.1,3.4,7.5,7.5,7.5H42v-64.6l39.8,33.7
					l39.8-33.7v64.6h8.2c4.1,0,7.5-3.4,7.5-7.5v-77C137.4,97.1,134,93.8,129.8,93.8z"/>
			</g>
		</g>
		<g>
			<line class="st2" x1="110" y1="185.9" x2="53.8" y2="185.9"/>
			<path class="st2" d="M121.6,185.9h8.2c4.1,0,7.5-3.4,7.5-7.5v-77c0-4.1-3.4-7.5-7.5-7.5h-96c-4.1,0-7.5,3.4-7.5,7.5v77
				c0,4.1,3.4,7.5,7.5,7.5H42v-64.6L81.8,155l39.8-33.7V185.9z"/>
		</g>
	</g>
</g>
</svg>
