<?xml version="1.0" encoding="utf-8"?>
<!-- Generator: Adobe Illustrator 24.3.0, SVG Export Plug-In . SVG Version: 6.00 Build 0)  -->
<svg version="1.1" id="Layer_1" xmlns="http://www.w3.org/2000/svg" xmlns:xlink="http://www.w3.org/1999/xlink" x="0px" y="0px"
	 viewBox="0 0 512 512" style="enable-background:new 0 0 512 512;" xml:space="preserve">
<style type="text/css">
	.st0{fill:#3D3939;}
</style>
<g>
	<path class="st0" d="M418,30.8c-3.1-14-15.4-23.8-29.9-23.8H123.9c-14.5,0-26.7,9.8-29.9,23.8L71.2,131.4c-0.1,0.5-0.3,1.3-0.3,2.1
		v340.8c0,16.9,13.7,30.6,30.6,30.6h308.9c16.9,0,30.6-13.7,30.6-30.6V133.5c0-0.8-0.2-1.6-0.3-2.2L418,30.8z M112.1,34.6
		c1.4-5.3,6.3-9,11.8-9h264.1c5.8,0,10.7,4,11.7,9.5l20.3,89.1H91.9L112.1,34.6z M422.4,474.3c0,6.6-5.4,12-12,12H101.6
		c-6.6,0-12-5.4-12-12v-86.6h332.9V474.3z M422.4,369.2H89.5V260h332.9V369.2z M422.4,241.4H89.5v-98.6h332.9V241.4z"/>
	<path class="st0" d="M314.6,196.1h53.2c5,0,9.3-4.2,9.3-9.3c0-5-4.3-9.3-9.3-9.3h-53.2c-5,0-9.3,4.2-9.3,9.3
		C305.3,191.8,309.5,196.1,314.6,196.1z"/>
	<path class="st0" d="M314.6,323.9h53.2c5,0,9.3-4.3,9.3-9.3c0-5-4.3-9.3-9.3-9.3h-53.2c-5,0-9.3,4.2-9.3,9.3
		C305.3,319.6,309.5,323.9,314.6,323.9z"/>
	<path class="st0" d="M367.8,422.4h-53.2c-5,0-9.3,4.2-9.3,9.3c0,5,4.3,9.3,9.3,9.3h53.2c5,0,9.3-4.2,9.3-9.3
		C377.1,426.7,372.9,422.4,367.8,422.4z"/>
	<path class="st0" d="M208.7,206.7c5,0,9.3-4.3,9.3-9.3v-10.6c0-5-4.2-9.3-9.3-9.3c-5.1,0-9.3,4.2-9.3,9.3v10.6
		C199.4,202.5,203.6,206.7,208.7,206.7z"/>
	<path class="st0" d="M208.7,334.5c5,0,9.3-4.2,9.3-9.3v-10.7c0-5-4.2-9.3-9.3-9.3c-5.1,0-9.3,4.2-9.3,9.3v10.7
		C199.4,330.3,203.6,334.5,208.7,334.5z"/>
	<path class="st0" d="M208.7,422.4c-5.1,0-9.3,4.2-9.3,9.3v10.7c0,5.1,4.2,9.3,9.3,9.3c5,0,9.3-4.2,9.3-9.3v-10.7
		C218,426.7,213.7,422.4,208.7,422.4z"/>
	<path class="st0" d="M144.8,206.7c5,0,9.3-4.3,9.3-9.3v-10.6c0-5-4.2-9.3-9.3-9.3c-5.1,0-9.3,4.2-9.3,9.3v10.6
		C135.5,202.5,139.7,206.7,144.8,206.7z"/>
	<path class="st0" d="M144.8,334.5c5,0,9.3-4.2,9.3-9.3v-10.7c0-5-4.2-9.3-9.3-9.3c-5.1,0-9.3,4.2-9.3,9.3v10.7
		C135.5,330.3,139.7,334.5,144.8,334.5z"/>
	<path class="st0" d="M144.8,422.4c-5.1,0-9.3,4.2-9.3,9.3v10.7c0,5.1,4.2,9.3,9.3,9.3c5,0,9.3-4.2,9.3-9.3v-10.7
		C154.1,426.7,149.8,422.4,144.8,422.4z"/>
</g>
</svg>
