<?xml version="1.0" encoding="utf-8"?>
<!-- Generator: Adobe Illustrator 25.0.1, SVG Export Plug-In . SVG Version: 6.00 Build 0)  -->
<svg version="1.1"
	 id="Layer_1" inkscape:export-filename="C:\Dev\stakehound-branding\coin logos\Zcoin-high-res.png" xmlns:cc="http://creativecommons.org/ns#" xmlns:dc="http://purl.org/dc/elements/1.1/" xmlns:inkscape="http://www.inkscape.org/namespaces/inkscape" xmlns:rdf="http://www.w3.org/1999/02/22-rdf-syntax-ns#" xmlns:sodipodi="http://sodipodi.sourceforge.net/DTD/sodipodi-0.dtd" xmlns:svg="http://www.w3.org/2000/svg"
	 xmlns="http://www.w3.org/2000/svg" xmlns:xlink="http://www.w3.org/1999/xlink" x="0px" y="0px" viewBox="0 0 118.6 118.6"
	 style="enable-background:new 0 0 118.6 118.6;" xml:space="preserve">
<style type="text/css">
	.st0{fill:#3D3939;}
	.st1{fill:#FEFEFE;}
</style>
<sodipodi:namedview  bordercolor="#666666" borderopacity="1" gridtolerance="10" guidetolerance="10" id="namedview61" inkscape:current-layer="g16" inkscape:cx="75.85595" inkscape:cy="33.411556" inkscape:document-rotation="0" inkscape:pageopacity="0" inkscape:pageshadow="2" inkscape:window-height="1334" inkscape:window-maximized="0" inkscape:window-width="2947" inkscape:window-x="-10" inkscape:window-y="0" inkscape:zoom="7.1669478" objecttolerance="10" pagecolor="#ffffff" showgrid="false">
	</sodipodi:namedview>
<g id="g36">
	<g>
		<g id="g16_8_">
			<path id="path14_8_" class="st0" d="M90.5,86.2l-2.4-2c5.8-7,9-15.9,9-25.1c0-9-3-17.5-8.7-24.6l2.5-2c6.1,7.6,9.3,16.8,9.3,26.5
				C100.2,69,96.7,78.6,90.5,86.2z"/>
		</g>
		<g id="g22_8_">
			<path id="path20_8_" class="st0" d="M25,86.2c-6.3-7.6-9.7-17.2-9.7-27.1c0-9.7,3.2-18.9,9.3-26.6l2.5,2
				c-5.7,7.1-8.7,15.6-8.7,24.6c0,9.1,3.2,18,9,25.1L25,86.2z"/>
		</g>
		<g id="g28_8_">
			<path id="path26_8_" class="st0" d="M82.8,28.8c-7-5.8-15.9-9-25.1-9c-9.1,0-18,3.2-25.1,9l-2-2.4c7.6-6.3,17.2-9.7,27.1-9.7
				s19.5,3.5,27.1,9.7L82.8,28.8z"/>
		</g>
		<g id="g34_8_">
			<path id="path32_8_" class="st0" d="M57.7,101.6c-9.7,0-18.9-3.2-26.5-9.3l2-2.5c7.1,5.7,15.6,8.7,24.6,8.7s17.5-3,24.6-8.7
				l2,2.5C76.6,98.4,67.5,101.6,57.7,101.6z"/>
		</g>
	</g>
</g>
<circle id="circle38" class="st0" cx="88.9" cy="87.6" r="17.3"/>
<g id="g56">
	<polygon id="polygon45" class="st1" points="85.4,80.5 82.8,82.9 82.7,74.3 85.4,77.1 	"/>
	<path class="st1" d="M93.9,84.4l-0.1-2.9l-7.7-7.2v6.6l-3.6,3.5v2l-5,4.7c0.7,2.4,2.9,4.1,5.5,4.1c1.1,0,2.1-0.3,3-0.9l7.9,6.4
		l0.7-6.9l1.2,2.5l0.5-1.5l1.2-0.5l0.5-4.1l1.3,2.6l1-3.7L93.9,84.4z M84.7,87.6v-1.8l2.7,1.8H84.7z"/>
</g>
<g id="g14" transform="matrix(0.08395909,0,0,0.08395909,35.842384,37.412174)">
	<g id="g6">
		<circle id="circle4-7" class="st1" cx="260" cy="260" r="252.7"/>
	</g>
	<g id="g12">
		<g>
			<path id="path8_8_" class="st0" d="M155.6,370.7c5.9,0,11.2-3.2,14-8.4l37.3-70.6h-57.5c-8.7,0-15.8-7.1-15.8-15.8v-31.6
				c0-8.7,7.1-15.8,15.8-15.8h90.9l70.6-133.9c2.7-5.2,8.1-8.4,14-8.4h118.8C397.5,37.4,332.3,7,260,7C120.3,7,7,120.3,7,260
				c0,39.7,9.2,77.3,25.5,110.7H155.6z"/>
			<path id="path10_8_" class="st0" d="M364.4,149.3c-5.9,0-11.2,3.2-14,8.4l-37.3,70.6h57.5c8.7,0,15.8,7.1,15.8,15.8v31.6
				c0,8.7-7.1,15.8-15.8,15.8h-90.9l-70.6,133.9c-2.7,5.2-8.1,8.4-14,8.4H76.4C122.5,482.6,187.7,513,260,513
				c139.7,0,253-113.3,253-253c0-39.7-9.2-77.3-25.5-110.7L364.4,149.3z"/>
		</g>
	</g>
</g>
</svg>
