<?xml version="1.0" encoding="UTF-8" standalone="no"?>
<svg
   viewBox="0 0 1000 1000"
   version="1.1"
   id="svg4"
   sodipodi:docname="android.svg"
   inkscape:version="1.2.2 (b0a8486541, 2022-12-01)"
   xmlns:inkscape="http://www.inkscape.org/namespaces/inkscape"
   xmlns:sodipodi="http://sodipodi.sourceforge.net/DTD/sodipodi-0.dtd"
   xmlns="http://www.w3.org/2000/svg"
   xmlns:svg="http://www.w3.org/2000/svg">
  <defs
     id="defs8" />
  <sodipodi:namedview
     id="namedview6"
     pagecolor="#ffffff"
     bordercolor="#666666"
     borderopacity="1.0"
     inkscape:showpageshadow="2"
     inkscape:pageopacity="0.0"
     inkscape:pagecheckerboard="0"
     inkscape:deskcolor="#d1d1d1"
     showgrid="false"
     inkscape:zoom="0.779"
     inkscape:cx="500"
     inkscape:cy="499.35815"
     inkscape:window-width="1920"
     inkscape:window-height="959"
     inkscape:window-x="0"
     inkscape:window-y="48"
     inkscape:window-maximized="1"
     inkscape:current-layer="svg4" />
  <path
     d="M852 329q-25 0-42.5 17.5-17.5 17.5-17.5 42.5l0 252q0 25 17.5 42.5 17.5 17.5 42.5 17.5 25 0 43-17.5 18-17.5 18-42.5l0-252q0-25-18-42.5-18-17.5-43-17.5z m-704 0q-25 0-43 17.5-18 17.5-18 42.5l0 252q0 25 18 42.5 18 17.5 43 17.5 25 0 42.5-17.5 17.5-17.5 17.5-42.5l0-252q0-25-17.5-42.5-17.5-17.5-42.5-17.5z m104-11l0 0 517 0q0-30-8-62-13-45-41.5-82-28.5-37-69.5-62-1-1-6-4l-3-2q-3-1-9-5l42-77q2-3 1-6-1-3-4-5-1-1-4-1-6 0-7 4l-33 59-10 19q-4-2-9-4-5-2-11-4-48-17-98-17-50 0-96 17l-2 1q-6 1-8 3l-2 1q-6 1-8 3l-10-19-33-59q-2-3-5-4-3-1-6 1-3 2-4 5-1 3 0 7l33 58 10 19q-3 1-9 5-5 2-10 5-40 25-68.5 62-28.5 37-41.5 82-8 32-8 62l21 0z m124-144q3 0 9 2 13 6 13 21l0 2q-1 8-7.5 14-6.5 6-15.5 6-9 0-15.5-6.5-6.5-6.5-6.5-16 0-9.5 6.5-16 6.5-6.5 16.5-6.5z m248 0q10 0 16.5 6.5 6.5 6.5 6.5 16 0 9.5-6.5 16-6.5 6.5-15.5 6.5-9 0-15-6-6-6-8-14l0-2q0-15 13-21 6-2 9-2z m124 165l-1 0-516 0 0 390q0 27 19 46 19 19 46 19l43 0 0 134q0 25 17.5 42.5 17.5 17.5 42.5 17.5 25 0 43-17.5 18-17.5 18-42.5l0-134 81 0 0 134q0 25 17.5 42.5 17.5 17.5 42.5 17.5 25 0 42.5-17.5 17.5-17.5 17.5-42.5l0-134 44 0q27 0 46-19 19-19 19-46l0-390-22 0z"
     id="path2"
     style="fill:#8c939a;fill-opacity:1" />
</svg>
