<svg id="Layer_1" data-name="Layer 1" xmlns="http://www.w3.org/2000/svg" viewBox="0 0 1500 1500"><defs><style>.cls-1{fill:#c5d1da;}.cls-2,.cls-4{fill:#dfebf2;}.cls-3{fill:#cbdbe8;}.cls-4,.cls-5,.cls-6,.cls-8{stroke:#000;stroke-width:5px;}.cls-4,.cls-5,.cls-6{stroke-linecap:round;stroke-linejoin:round;}.cls-5{fill:#c9d3dc;}.cls-6,.cls-8{fill:none;}.cls-7{fill:#bb3437;}.cls-8{stroke-miterlimit:10;}</style></defs><rect class="cls-1" x="750" y="150" width="600" height="600"/><rect class="cls-2" x="150" y="750" width="600" height="600"/><circle class="cls-2" cx="1050" cy="450" r="300"/><circle class="cls-3" cx="450" cy="1050" r="300"/><circle class="cls-4" cx="1050" cy="1050" r="150"/><circle class="cls-5" cx="450" cy="450" r="150"/><path class="cls-6" d="M900.94,413.88v0a32.74,32.74,0,0,0,59.62-.14v0a32.8,32.8,0,0,1,59.63,0v0a32.8,32.8,0,0,0,59.63,0v0a32.8,32.8,0,0,1,59.63,0v0a32.79,32.79,0,0,0,59.62,0"/><path class="cls-6" d="M900.94,486.38v0a32.74,32.74,0,0,0,59.62-.14v0a32.8,32.8,0,0,1,59.63,0v0a32.8,32.8,0,0,0,59.63,0v0a32.8,32.8,0,0,1,59.63,0v0a32.79,32.79,0,0,0,59.62,0"/><path class="cls-6" d="M300.94,1013.86v-.05c0,.05,31.6,19.08,31.6,19.08l28-19.21v0s28-19.08,28-19.08l31.6,19.08v0s31.6,19.08,31.6,19.08,28-19,28-19.08v0l28-19.08,31.6,19.08v0s31.6,19.08,31.6,19.08l28-19.08"/><path class="cls-6" d="M300.94,1086.41v-.05c0,.05,31.6,19.08,31.6,19.08l28-19.21v0s28-19.08,28-19.08l31.6,19.08v0s31.6,19.08,31.6,19.08,28-19,28-19.08v0l28-19.08,31.6,19.08v0s31.6,19.08,31.6,19.08l28-19.08"/><circle class="cls-7" cx="620.69" cy="879.83" r="25"/><circle class="cls-8" cx="620.69" cy="879.83" r="25"/><circle class="cls-7" cx="620.69" cy="620.17" r="25"/><circle class="cls-8" cx="620.69" cy="620.17" r="25"/><circle class="cls-7" cx="879.31" cy="879.83" r="25"/><circle class="cls-8" cx="879.31" cy="879.83" r="25"/><circle class="cls-7" cx="879.31" cy="620.17" r="25"/><circle class="cls-8" cx="879.31" cy="620.17" r="25"/><line class="cls-8" x1="645.69" y1="620.17" x2="855" y2="620.17"/><line class="cls-8" x1="620.69" y1="645.17" x2="620.69" y2="854.83"/><line class="cls-8" x1="645.69" y1="879.83" x2="854.31" y2="879.83"/><line class="cls-8" x1="879.31" y1="645.17" x2="879.31" y2="854.83"/><rect class="cls-4" x="394.39" y="394.39" width="111.23" height="111.23"/><polygon class="cls-5" points="1050 978.18 987.76 1085.99 1112.24 1085.99 1050 978.18"/></svg>