<?xml version="1.0" encoding="utf-8"?>
<!-- Generator: Adobe Illustrator 27.2.0, SVG Export Plug-In . SVG Version: 6.00 Build 0)  -->
<svg version="1.1" id="Layer_1" xmlns="http://www.w3.org/2000/svg" xmlns:xlink="http://www.w3.org/1999/xlink" x="0px" y="0px"
	 viewBox="0 0 1920 1080" style="enable-background:new 0 0 1920 1080;" xml:space="preserve">
<style type="text/css">
	.st0{fill:#FFFFFF;}
	.st1{fill:#1C1F24;}
	.st2{fill:none;}
	.st3{fill:#EC5404;}
</style>
<g>
	<path class="st0" d="M641.3,515.7v-10.1c0-29.8-24.3-54.1-54.1-54.1c-29.8,0-54.1,24.3-54.1,54.1v9.7c-7.7,2.4-13.3,9.5-13.3,18v77
		c0,10.4,8.4,18.8,18.8,18.8h96c10.4,0,18.8-8.4,18.8-18.8v-77C653.4,525.3,648.4,518.4,641.3,515.7z"/>
	<g>
		<path class="st1" d="M693.8,586.2v-47.7H688v-11.6h11.9v6.9h3c1.5-2.4,3.5-4.4,6-5.7c2.5-1.4,5.6-2,9.1-2c4.4,0,8.1,0.9,11.1,2.8
			c3,1.8,5.3,4.4,6.9,7.7c1.6,3.3,2.3,7.2,2.3,11.6c0,4.4-0.8,8.3-2.3,11.6c-1.5,3.3-3.7,5.9-6.6,7.7c-2.9,1.8-6.4,2.7-10.5,2.7
			c-3.1,0-5.8-0.6-8-1.7c-2.2-1.2-4-2.8-5.2-4.9h-0.3v22.7H693.8z M715.8,559.9c3.6,0,6.3-1.1,8.1-3.2c1.8-2.1,2.7-5,2.7-8.7
			c0-3.7-0.9-6.6-2.7-8.7c-1.8-2.1-4.5-3.2-8.1-3.2c-3.2,0-5.7,0.9-7.5,2.6c-1.9,1.8-2.8,4.2-2.8,7.3v3.8c0,3.1,0.9,5.5,2.8,7.3
			C710.2,559,712.7,559.9,715.8,559.9z"/>
		<path class="st1" d="M746.2,569.2v-30.8h-5.8v-11.6h11.9v8.3h3c1.1-3,2.9-5.2,5.4-6.6c2.4-1.5,5.2-2.2,8.3-2.2h3.6v10.2h-4.1
			c-3.7,0-6.4,1-8.1,3.1c-1.7,2.1-2.6,4.8-2.6,8.2v21.4H746.2z"/>
		<path class="st1" d="M782.8,522.7c-1.8,0-3.3-0.6-4.6-1.9c-1.2-1.2-1.9-2.8-1.9-4.6c0-1.8,0.6-3.3,1.9-4.6
			c1.2-1.2,2.8-1.9,4.6-1.9c1.8,0,3.3,0.6,4.6,1.9c1.2,1.2,1.9,2.8,1.9,4.6c0,1.8-0.6,3.3-1.9,4.6
			C786.1,522.1,784.6,522.7,782.8,522.7z M777,569.2v-42.4h11.7v42.4H777z"/>
		<path class="st1" d="M810.7,569.2l-18.1-42.4H805l11.9,28.8h0.3l11.5-28.8h12.1l-18.1,42.4H810.7z"/>
		<path class="st1" d="M857.5,570c-5,0-8.9-1.2-11.7-3.6c-2.8-2.4-4.2-5.6-4.2-9.6c0-4.2,1.5-7.4,4.4-9.7c2.9-2.3,7.1-3.4,12.6-3.4
			h12.1v-1.6c0-4.6-2.7-6.9-8.2-6.9c-4.8,0-7.6,1.6-8.6,4.9h-11.7c0.9-4.7,3.1-8.2,6.6-10.6c3.4-2.4,8-3.6,13.7-3.6
			c6.3,0,11.1,1.4,14.4,4.2c3.3,2.8,5,6.9,5,12.4v15h5.5v11.6h-11.9v-6.9h-3c-1.5,2.4-3.4,4.3-5.9,5.7
			C864.2,569.3,861.2,570,857.5,570z M859.2,561.1c2.2,0,4.2-0.4,5.9-1.2c1.7-0.8,3-1.9,4-3.2c1-1.3,1.5-2.9,1.5-4.6v-0.6H859
			c-4.2,0-6.4,1.6-6.4,4.7c0,1.6,0.6,2.8,1.8,3.6C855.6,560.7,857.2,561.1,859.2,561.1z"/>
		<path class="st1" d="M911.2,570.1c-4.4,0-8.3-0.9-11.6-2.7c-3.3-1.8-5.9-4.4-7.8-7.7c-1.9-3.3-2.8-7.2-2.8-11.7
			c0-4.5,0.9-8.4,2.8-11.7c1.8-3.3,4.4-5.8,7.8-7.7c3.3-1.8,7.2-2.7,11.7-2.7c5.6,0,10.2,1.4,13.8,4.2c3.6,2.8,5.9,6.7,6.9,11.7
			h-11.8c-0.6-1.8-1.7-3.2-3.2-4.2c-1.5-1-3.4-1.5-5.7-1.5c-3.2,0-5.7,1-7.6,3.1c-1.9,2.1-2.9,5-2.9,8.8c0,3.8,1,6.7,2.9,8.8
			c1.9,2.1,4.4,3.1,7.6,3.1c5,0,8-2.1,9.1-6.4h11.8c-0.8,5.2-3.1,9.2-6.7,12.1C921.7,568.6,917,570.1,911.2,570.1z"/>
		<path class="st1" d="M937.2,586.2v-9.4h9.3l3.3-7.9l-18.3-42H944l11.9,28.5h0.3l11.6-28.5h12l-18.1,42.4l-3.5,8.2
			c-1.2,2.8-2.5,4.9-4.1,6.5c-1.6,1.5-3.9,2.3-7.1,2.3H937.2z"/>
		<path class="st1" d="M1002.3,587c-6.4,0-11.5-1.3-15.5-3.8c-4-2.6-6.3-6.1-7.1-10.7h12.4c1.1,3.5,4.4,5.2,9.8,5.2
			c3.7,0,6.5-0.8,8.4-2.5c2-1.7,2.9-4.1,2.9-7.2v-5.6h-0.4c-1.3,2.3-3,4-5.3,5.2c-2.2,1.2-4.9,1.8-8,1.8c-4,0-7.5-0.9-10.4-2.6
			c-2.9-1.8-5.2-4.3-6.9-7.5c-1.6-3.2-2.4-7.1-2.4-11.4c0-6.6,1.8-11.8,5.5-15.7c3.6-3.9,8.7-5.9,15-5.9c3.6,0,6.6,0.7,9.1,2
			c2.5,1.4,4.5,3.3,6,5.7h3v-6.9h11.9v11.6h-5.8v29.7c0,6-1.9,10.7-5.8,14C1015.1,585.4,1009.5,587,1002.3,587z M1002.6,559.1
			c3.2,0,5.8-0.9,7.6-2.7c1.8-1.8,2.8-4.2,2.8-7.3v-3c0-3.1-0.9-5.5-2.8-7.2c-1.9-1.8-4.4-2.6-7.6-2.6c-3.4,0-6.1,1-8,3
			c-1.9,2-2.9,4.8-2.9,8.5c0,3.6,1,6.4,2.9,8.4S999.2,559.1,1002.6,559.1z"/>
		<path class="st1" d="M1048.8,570c-5,0-8.9-1.2-11.7-3.6c-2.8-2.4-4.2-5.6-4.2-9.6c0-4.2,1.5-7.4,4.4-9.7c2.9-2.3,7.1-3.4,12.6-3.4
			h12.1v-1.6c0-4.6-2.7-6.9-8.2-6.9c-4.8,0-7.6,1.6-8.6,4.9h-11.7c0.9-4.7,3.1-8.2,6.6-10.6c3.4-2.4,8-3.6,13.7-3.6
			c6.3,0,11.1,1.4,14.4,4.2c3.3,2.8,5,6.9,5,12.4v15h5.5v11.6h-11.9v-6.9h-3c-1.5,2.4-3.4,4.3-5.9,5.7
			C1055.5,569.3,1052.4,570,1048.8,570z M1050.5,561.1c2.2,0,4.2-0.4,5.9-1.2c1.7-0.8,3-1.9,4-3.2c1-1.3,1.5-2.9,1.5-4.6v-0.6h-11.6
			c-4.2,0-6.4,1.6-6.4,4.7c0,1.6,0.6,2.8,1.8,3.6C1046.9,560.7,1048.5,561.1,1050.5,561.1z"/>
		<path class="st1" d="M1095.4,569.2c-3,0-5.4-0.8-7-2.3c-1.7-1.5-2.5-3.9-2.5-7V536h-7.3v-9.2h7.4v-12.7h11.4v12.7h9.8v9.2h-9.7v24
			h10.7v9.2H1095.4z"/>
		<path class="st1" d="M1131.9,570.1c-4.6,0-8.5-0.9-11.9-2.7c-3.4-1.8-6-4.4-7.8-7.7c-1.8-3.3-2.8-7.2-2.8-11.8
			c0-4.5,0.9-8.4,2.7-11.7c1.8-3.3,4.3-5.8,7.7-7.6s7.2-2.6,11.8-2.6c4.4,0,8.2,0.8,11.4,2.5c3.2,1.7,5.6,4.1,7.3,7.3
			c1.7,3.2,2.5,6.9,2.5,11.3v4h-32.1c0.5,3.2,1.7,5.6,3.6,7.2c1.9,1.6,4.5,2.5,7.6,2.5c2.5,0,4.5-0.4,5.9-1.3
			c1.5-0.8,2.5-2.1,3.1-3.9h11.7c-0.9,4.5-3.2,8.1-6.9,10.6C1142.2,568.8,1137.5,570.1,1131.9,570.1z M1120.9,543.3h20.6
			c-0.4-2.7-1.4-4.7-3.1-6c-1.7-1.3-4-2-6.9-2c-2.9,0-5.2,0.7-7,2C1122.8,538.7,1121.5,540.7,1120.9,543.3z"/>
		<path class="st1" d="M1167.6,569.2l-13.7-42.4h12l8.5,27.7h0.4l9.9-27.7h11l9.9,27.7h0.4l8.5-27.7h11.9l-13.6,42.4h-12.5
			l-9.9-26.8h-0.3l-9.8,26.8H1167.6z"/>
		<path class="st1" d="M1243.8,570c-5,0-8.9-1.2-11.7-3.6c-2.8-2.4-4.2-5.6-4.2-9.6c0-4.2,1.5-7.4,4.4-9.7c2.9-2.3,7.1-3.4,12.6-3.4
			h12.1v-1.6c0-4.6-2.7-6.9-8.2-6.9c-4.8,0-7.6,1.6-8.6,4.9h-11.7c0.9-4.7,3.1-8.2,6.6-10.6c3.4-2.4,8-3.6,13.7-3.6
			c6.3,0,11.1,1.4,14.4,4.2c3.3,2.8,5,6.9,5,12.4v15h5.5v11.6h-11.9v-6.9h-3c-1.5,2.4-3.4,4.3-5.9,5.7
			C1250.5,569.3,1247.4,570,1243.8,570z M1245.5,561.1c2.2,0,4.2-0.4,5.9-1.2c1.7-0.8,3-1.9,4-3.2c1-1.3,1.5-2.9,1.5-4.6v-0.6h-11.6
			c-4.2,0-6.4,1.6-6.4,4.7c0,1.6,0.6,2.8,1.8,3.6C1241.9,560.7,1243.5,561.1,1245.5,561.1z"/>
		<path class="st1" d="M1277.6,586.2v-9.4h9.3l3.3-7.9l-18.3-42h12.4l11.9,28.5h0.3l11.6-28.5h12l-18.1,42.4l-3.5,8.2
			c-1.2,2.8-2.5,4.9-4.1,6.5c-1.6,1.5-3.9,2.3-7.1,2.3H1277.6z"/>
		<path class="st1" d="M1324.3,570.1c-2,0-3.7-0.7-5-2.1c-1.4-1.4-2.1-3.1-2.1-5c0-2,0.7-3.7,2.1-5c1.4-1.4,3.1-2.1,5-2.1
			s3.7,0.7,5,2.1c1.4,1.4,2.1,3.1,2.1,5c0,2-0.7,3.7-2.1,5C1327.9,569.4,1326.3,570.1,1324.3,570.1z"/>
		<path class="st1" d="M1343.8,522.7c-1.8,0-3.3-0.6-4.6-1.9c-1.2-1.2-1.9-2.8-1.9-4.6c0-1.8,0.6-3.3,1.9-4.6
			c1.2-1.2,2.8-1.9,4.6-1.9c1.8,0,3.3,0.6,4.6,1.9c1.2,1.2,1.9,2.8,1.9,4.6c0,1.8-0.6,3.3-1.9,4.6
			C1347.1,522.1,1345.6,522.7,1343.8,522.7z M1338,569.2v-42.4h11.7v42.4H1338z"/>
		<path class="st1" d="M1377.4,570.1c-4.6,0-8.6-0.9-12-2.7c-3.4-1.8-6.1-4.4-7.9-7.7s-2.8-7.2-2.8-11.7c0-4.5,0.9-8.4,2.8-11.7
			c1.9-3.3,4.5-5.8,8-7.6c3.5-1.8,7.5-2.7,12.1-2.7c4.6,0,8.6,0.9,12,2.7c3.4,1.8,6,4.3,7.8,7.6c1.9,3.3,2.8,7.2,2.8,11.7
			c0,4.5-0.9,8.4-2.8,11.7c-1.8,3.3-4.5,5.9-7.9,7.7C1386.1,569.2,1382.1,570.1,1377.4,570.1z M1377.4,559.9c3.5,0,6.2-1.1,8.1-3.2
			c1.9-2.1,2.8-5,2.8-8.7c0-3.7-0.9-6.6-2.8-8.7c-1.9-2.1-4.6-3.1-8.1-3.1c-3.6,0-6.3,1-8.2,3.1c-1.9,2.1-2.9,5-2.9,8.7
			c0,3.7,1,6.6,2.9,8.7C1371.1,558.8,1373.9,559.9,1377.4,559.9z"/>
	</g>
	<g id="XMLID_00000168106387504418981190000007858938712342648450_">
		<g>
			<polygon class="st1" points="614.8,578.1 614.8,617.9 558.6,617.9 558.6,578.1 586.7,601.9 			"/>
			<g>
				<path class="st2" d="M587.2,487c-10.2,0-18.6,8.3-18.6,18.6v8.9h37.2v-8.9C605.8,495.4,597.5,487,587.2,487z"/>
				<path class="st3" d="M634.6,525.8h-77.3v-20.2c0-16.5,13.4-29.8,29.8-29.8c16.5,0,29.8,13.4,29.8,29.8v10.6h13v-10.6
					c0-23.6-19.2-42.8-42.8-42.8c-23.6,0-42.8,19.2-42.8,42.8v20.2h-5.7c-4.1,0-7.5,3.4-7.5,7.5v77c0,4.1,3.4,7.5,7.5,7.5h8.2v-64.6
					l39.8,33.7l39.8-33.7v64.6h8.2c4.1,0,7.5-3.4,7.5-7.5v-77C642.2,529.1,638.8,525.8,634.6,525.8z"/>
			</g>
		</g>
		<g>
			<line class="st2" x1="614.8" y1="617.9" x2="558.6" y2="617.9"/>
			<path class="st2" d="M626.4,617.9h8.2c4.1,0,7.5-3.4,7.5-7.5v-77c0-4.1-3.4-7.5-7.5-7.5h-96c-4.1,0-7.5,3.4-7.5,7.5v77
				c0,4.1,3.4,7.5,7.5,7.5h8.2v-64.6l39.8,33.7l39.8-33.7V617.9z"/>
		</g>
	</g>
</g>
</svg>
