<svg width="1920" height="832" viewBox="0 0 1920 832" fill="none" xmlns="http://www.w3.org/2000/svg">
<path d="M4.49219 464.645L282.491 464.944C317.944 465.004 346.601 493.735 346.541 529.133L346.122 766.603C346.062 802.001 374.748 830.732 410.172 830.792L476.138 830.911C511.591 830.971 540.367 802.33 540.427 766.962L541.086 380.396C541.146 344.998 569.922 316.386 605.375 316.446L671.342 316.566C706.795 316.626 735.452 345.357 735.392 380.754L734.973 618.255C734.913 653.653 763.599 682.384 799.022 682.444L864.989 682.563C900.442 682.623 929.218 653.982 929.278 618.614L929.398 553.708C929.458 518.31 958.234 489.699 993.687 489.758L1155.83 490.027C1191.29 490.087 1220.06 461.446 1220.12 426.078L1220.42 245.949C1220.48 210.552 1249.26 181.94 1284.71 182L1350.68 182.12C1386.13 182.179 1414.79 210.91 1414.73 246.308L1413.98 685.045C1413.92 720.443 1442.61 749.173 1478.03 749.233L1544 749.353C1579.45 749.413 1608.23 720.771 1608.29 685.403L1608.55 531.464C1608.61 496.067 1637.39 467.455 1672.84 467.515L1915.48 467.814" stroke="#EAADB1" stroke-linecap="round" stroke-linejoin="round" stroke-dasharray="3 3"/>
<path d="M-1.5 162.168H175.058C212.942 162.232 243.563 192.915 243.499 230.717L243.051 484.323C242.987 522.125 273.64 552.808 311.492 552.872L381.981 553C419.865 553.064 450.614 522.477 450.678 484.706L451.382 71.8751C451.446 34.0722 482.194 3.51697 520.079 3.58083L590.567 3.70854C628.452 3.7724 659.072 34.4553 659.008 72.2582L658.56 325.895C658.496 363.698 689.149 394.381 727.002 394.445L797.49 394.573C835.375 394.636 866.123 364.049 866.187 326.278L866.315 256.962C866.379 219.159 897.128 188.604 935.012 188.668L1108.27 188.955C1146.16 189.019 1176.91 158.432 1176.97 120.661L1177.29 -71.7057C1177.36 -109.509 1208.1 -140.064 1245.99 -140L1316.48 -139.872C1354.36 -139.808 1384.98 -109.125 1384.92 -71.3225L1384.12 397.223C1384.05 435.026 1414.71 465.708 1452.56 465.772L1523.05 465.9C1560.93 465.964 1591.68 435.377 1591.75 397.606L1592.03 233.208C1592.1 195.405 1622.85 164.85 1660.73 164.914L1920 165.233" stroke="#FFEFF0" stroke-linecap="round" stroke-linejoin="round" stroke-dasharray="3 3"/>
</svg>
