<?xml version="1.0" encoding="utf-8"?>
<!-- Generator: Adobe Illustrator 24.1.0, SVG Export Plug-In . SVG Version: 6.00 Build 0)  -->
<svg version="1.1" id="Ebene_1" xmlns="http://www.w3.org/2000/svg" xmlns:xlink="http://www.w3.org/1999/xlink" x="0px" y="0px"
	 width="300px" height="100px" viewBox="0 0 300 100" style="enable-background:new 0 0 300 100;" xml:space="preserve">
<style type="text/css">
	.st0{fill:#3d3939;}
</style>
<g id="_x35_sFbQg.tif">
	<g>
		<path class="st0" d="M86.9,94.5c0-10.9,0-21.7,0-32.7c0.2,0.2,0.3,0.4,0.4,0.5c2.3,3.5,4.7,6.9,7,10.4c4.8,7.1,9.7,14.3,14.5,21.4
			c0.2,0.4,0.5,0.5,0.9,0.5c1.9,0,3.8,0,5.8,0c0.2,0,0.3,0,0.5,0c0-13.3,0-26.5,0-39.8c-1.8,0-3.6,0-5.4,0c0,10.9,0,21.7,0,32.6
			c-0.2-0.1-0.3-0.2-0.4-0.3C103.1,76.4,96,65.8,88.9,55.2c-0.2-0.3-0.4-0.4-0.7-0.4c-2,0-4.1,0-6.1,0c-0.2,0-0.3,0-0.5,0
			c0,13.3,0,26.5,0,39.7C83.3,94.5,85.1,94.5,86.9,94.5z M101.3,5.2c0,11.1,0,22.1,0,33.2c1.3,0,2.6,0,4,0c0-0.2,0-0.4,0-0.6
			c0-3.3,0-6.7,0-10c0-0.7,0.1-1.5,0.2-2.2c0.5-2.9,2.6-4.7,5.4-4.7c2.3,0,4,1.2,4.6,3.4c0.2,0.7,0.2,1.5,0.3,2.3
			c0,3.8,0,7.6,0,11.4c0,0.2,0,0.4,0,0.6c1.4,0,2.6,0,4,0c0-0.2,0-0.3,0-0.5c0-4.2,0-8.5,0-12.7c0-0.7,0-1.4-0.2-2.1
			c-0.4-2.4-1.6-4.3-3.9-5.4c-1.6-0.7-3.4-0.9-5.2-0.6c-2.2,0.4-4,1.4-5.2,3.4h-0.1c0-5.1,0-10.3,0-15.4
			C103.9,5.2,102.6,5.2,101.3,5.2z M168.5,38.4c0-0.2,0-0.3,0-0.4c0-4.3,0-8.6,0-12.9c0-0.6,0-1.2-0.1-1.8c-0.3-2-1.2-3.7-2.9-4.9
			c-2.6-1.8-6.8-1.7-9.5,0.2c-0.8,0.6-1.4,1.3-2,2.1c0-1,0-2,0-3.1c-0.7,0-1.4,0-2,0s-1.3,0-1.9,0c0,7,0,13.9,0,20.8
			c1.3,0,2.6,0,3.9,0c0-0.2,0-0.4,0-0.6c0-3.3,0-6.5,0-9.8c0-0.7,0-1.3,0.1-2c0.3-3,2.1-4.9,5-5.2c2.3-0.3,4.3,0.6,5,2.8
			c0.3,0.9,0.4,1.8,0.4,2.8c0,3.8,0,7.5,0,11.3c0,0.2,0,0.4,0,0.6C165.9,38.4,167.2,38.4,168.5,38.4z M94.2,32.9
			c-0.1,0.1-0.2,0.3-0.3,0.4c-2.7,2.9-8,2.4-10.1-1c-1.4-2.2-1.5-4.5-0.8-6.9c1.5-5.2,7-5.6,9.9-3.5c0.5,0.4,0.9,0.7,1.4,1.1
			c1-0.9,2-1.8,2.9-2.7c-3.2-3.9-11-4.7-15.5-0.6c-4.4,4-4.5,12.2-0.3,16.2c4.5,4.3,12.6,3.6,15.7-0.3
			C96.2,34.8,95.3,33.9,94.2,32.9z"/>
		<path class="st0" d="M86.9,94.5c-1.9,0-3.6,0-5.4,0c0-13.2,0-26.5,0-39.7c0.2,0,0.3,0,0.5,0c2,0,4.1,0,6.1,0
			c0.4,0,0.6,0.1,0.7,0.4C96,65.8,103.1,76.4,110.2,87c0.1,0.1,0.2,0.2,0.4,0.3c0-10.8,0-21.7,0-32.6c1.8,0,3.6,0,5.4,0
			c0,13.2,0,26.5,0,39.8c-0.2,0-0.3,0-0.5,0c-1.9,0-3.8,0-5.8,0c-0.4,0-0.7-0.1-0.9-0.5c-4.8-7.1-9.6-14.3-14.5-21.4
			c-2.3-3.5-4.7-6.9-7-10.4c-0.1-0.1-0.2-0.3-0.4-0.5C86.9,72.8,86.9,83.6,86.9,94.5z"/>
		<path class="st0" d="M101.3,5.2c1.3,0,2.6,0,3.9,0c0,5.1,0,10.3,0,15.4c0.1,0,0.1,0,0.1,0c1.1-2,2.9-3.1,5.2-3.4
			c1.8-0.3,3.5-0.2,5.2,0.6c2.3,1,3.5,2.9,3.9,5.4c0.1,0.7,0.2,1.4,0.2,2.1c0,4.2,0,8.5,0,12.7c0,0.2,0,0.3,0,0.5c-1.3,0-2.6,0-4,0
			c0-0.2,0-0.4,0-0.6c0-3.8,0-7.6,0-11.4c0-0.8-0.1-1.6-0.3-2.3c-0.6-2.2-2.2-3.4-4.6-3.4c-2.9,0-4.9,1.8-5.4,4.7
			c-0.1,0.7-0.2,1.5-0.2,2.2c0,3.3,0,6.7,0,10c0,0.2,0,0.4,0,0.6c-1.3,0-2.6,0-4,0C101.3,27.3,101.3,16.3,101.3,5.2z"/>
		<path class="st0" d="M168.5,38.4c-1.3,0-2.6,0-3.9,0c0-0.2,0-0.4,0-0.6c0-3.8,0-7.5,0-11.3c0-0.9-0.1-1.9-0.4-2.8
			c-0.8-2.2-2.7-3.1-5-2.8c-2.9,0.3-4.6,2.2-5,5.2c-0.1,0.7-0.1,1.3-0.1,2c0,3.3,0,6.5,0,9.8c0,0.2,0,0.4,0,0.6c-1.3,0-2.6,0-3.9,0
			c0-6.9,0-13.8,0-20.8c0.6,0,1.3,0,1.9,0c0.6,0,1.3,0,2,0c0,1,0,2.1,0,3.1c0.6-0.8,1.2-1.6,2-2.1c2.7-1.9,6.9-2,9.5-0.2
			c1.7,1.2,2.6,2.9,2.9,4.9c0.1,0.6,0.1,1.2,0.1,1.8c0,4.3,0,8.6,0,12.9C168.5,38.1,168.5,38.2,168.5,38.4z"/>
		<path class="st0" d="M94.2,32.9c1,1,2,2,2.9,2.9c-3.1,3.8-11.2,4.5-15.7,0.3c-4.2-4-4.1-12.2,0.3-16.2c4.5-4.1,12.3-3.2,15.5,0.6
			c-1,0.9-2,1.8-2.9,2.7c-0.5-0.4-0.9-0.8-1.4-1.1C90,20,84.5,20.4,83,25.6c-0.7,2.4-0.6,4.7,0.8,6.9c2.1,3.4,7.4,3.9,10.1,1
			C94,33.2,94.1,33,94.2,32.9z"/>
	</g>
	<path class="st0" d="M224,54.9c-0.4,1.2-0.7,2.4-1.1,3.6c-3.5,11.9-6.9,23.8-10.4,35.7c-0.1,0.3-0.2,0.4-0.5,0.4
		c-1.6,0-3.2,0-4.8,0c-0.4,0-0.5-0.1-0.6-0.5c-1.7-5.8-3.5-11.7-5.2-17.5c-1.4-4.7-2.8-9.4-4.2-14.1c0-0.1-0.1-0.2-0.2-0.4
		c-0.2,0.8-0.5,1.5-0.7,2.2c-2.9,10-5.9,19.9-8.8,29.9c-0.1,0.4-0.3,0.5-0.7,0.5c-1.6,0-3.2,0-4.7,0c-0.4,0-0.5-0.1-0.6-0.4
		c-2.5-8.5-5-17-7.4-25.5c-1.3-4.4-2.6-8.8-3.8-13.2c-0.1-0.2-0.1-0.4-0.2-0.6c0.1,0,0.2,0,0.3,0c1.7,0,3.3,0,5,0
		c0.3,0,0.4,0.2,0.5,0.4c1.2,4.5,2.5,9,3.7,13.4c1.6,5.8,3.2,11.7,4.8,17.5c0,0.1,0.1,0.3,0.2,0.5c3.2-10.7,6.3-21.3,9.4-31.9
		c1.2,0,2.4,0,3.6,0c0.7,0,1.5,0,2.2,0c0.3,0,0.4,0.1,0.5,0.4c1,3.4,2,6.8,3,10.2c2,6.9,4.1,13.9,6.1,20.8c0,0.1,0.1,0.2,0.2,0.4
		c0.4-1.5,0.8-3,1.2-4.5c2.5-9,5-17.9,7.4-26.9c0.1-0.3,0.2-0.5,0.6-0.5C220.5,54.8,222.3,54.8,224,54.9C224,54.8,224,54.8,224,54.9
		z"/>
</g>
<path class="st0" d="M192.1,17.6c0,0.9,0,1.9,0,2.8c-1.9-2.2-4.2-3.3-7-3.3c-3.9-0.1-7,1.3-9.1,4.6c-1.5,2.3-1.9,4.8-1.7,7.5
	c0.2,2.3,1,4.3,2.5,6c2.5,2.7,5.6,3.8,9.2,3.4c2.1-0.3,3.9-1,5.3-2.6c0.3-0.3,0.5-0.6,0.8-1c0.1,0.1,0.1,0.1,0.1,0.2
	c0,1.3,0,2.6-0.1,3.9c-0.1,1.7-0.7,3.2-2,4.3c-1.2,1-2.6,1.5-4.2,1.7c-2.6,0.3-4.9-0.2-7-1.8c-0.6-0.5-1.1-1-1.7-1.5
	c-0.9,1.1-1.8,2.2-2.7,3.3c1.1,1.1,2.4,2,3.8,2.6c2.3,1,4.7,1.3,7.1,1.2c2.6-0.1,4.9-0.8,6.9-2.4c2.7-2.2,3.8-5.1,3.8-8.5
	c0-6.6,0-13.3,0-19.9c0-0.2,0-0.3,0-0.5C194.7,17.6,193.4,17.6,192.1,17.6z M188.9,34.1c-2.4,1.4-7.1,1.4-9.3-1.9
	c-1.8-2.7-1.5-7.3,0.8-9.5c2.1-2,4.5-2.4,7.2-1.6c2.7,0.9,4.1,3,4.4,5.7c0.1,0.4,0.1,0.8,0.1,1.1C192.1,30.6,191.2,32.7,188.9,34.1z
	"/>
<path class="st0" d="M222.5,29.4c0-0.7,0.1-1.5-0.1-2.3c-0.1-2.3-0.6-4.5-2-6.4c-1.9-2.6-4.6-3.8-7.8-3.8c-3.8,0-6.9,1.4-9.1,4.6
	c-1.8,2.7-2.2,5.7-1.6,8.9c0.4,2.1,1.3,4,2.8,5.5c1.7,1.7,3.8,2.7,6.2,2.9c3.7,0.4,7-0.4,9.7-3.1c0.4-0.3,0.7-0.7,1-1.1
	c-1-0.8-2-1.5-3-2.3c-0.1,0.2-0.3,0.3-0.4,0.5c-1.6,1.7-3.5,2.8-5.9,2.6c-2.7-0.2-4.8-1.4-6-3.9c-0.3-0.7-0.4-1.4-0.4-2.1
	c2.8,0,5.5,0,8.3,0S219.7,29.4,222.5,29.4z M206.8,23.2c1.8-2.8,5.4-3.8,8.4-2.4c1.8,0.9,3.1,2.9,3,5.4c-4.1,0-8.2,0-12.3,0
	C205.9,25.1,206.3,24.1,206.8,23.2z"/>
<g>
	<path class="st0" d="M129.1,22.4c-0.1,0.1-0.1,0.1-0.1,0.1C129.1,22.5,129.1,22.5,129.1,22.4z"/>
	<path class="st0" d="M143.7,33.1c-0.1-3.2,0-6.5-0.1-9.7c-0.1-2.4-1.3-4.3-3.5-5.3c-4.1-1.9-8-1.4-11.8,0.7
		c-0.6,0.3-1.1,0.8-1.8,1.3c1,0.8,1.8,1.6,2.6,2.3c0.3-0.1,0.6-0.3,1-0.5c1.8-1.4,3.9-1.9,6.2-1.5c2.6,0.4,4,2.7,3.6,5.1
		c-0.2,0-0.4,0-0.6,0c-1.6,0-3.1,0-4.7,0.1c-2.1,0.2-4.1,0.6-5.9,1.7c-1.7,1-2.8,2.5-3,4.6c-0.3,2.9,1.1,5.4,3.7,6.4
		c1.4,0.6,2.9,0.7,4.4,0.6c2.6-0.2,4.7-1.2,6.2-3.4c0.1-0.1,0.1-0.2,0.1-0.3l0.1,0.1c0,1,0.1,2,0.1,3c1.2,0,2.4,0,3.5,0
		C143.8,36.5,143.7,34.8,143.7,33.1z M139.8,29.7c0,0.1,0,0.2,0,0.3c0,0.2,0,0.4-0.1,0.6c0,0.1,0,0.1,0,0.2c0,0.1,0,0.2-0.1,0.4
		c-0.2,1.2-0.7,2.3-1.7,3.1c-1.2,1.1-2.6,1.3-4.1,1.3c-0.2,0-0.5,0-0.7,0c-0.9,0-1.8-0.2-2.5-0.7c-1.7-1.2-1.6-3.7,0-5
		c0.9-0.7,2-1,3-1.2c1.1-0.2,3.2-0.3,4.8-0.3c0.5,0,1,0,1.4,0c0,0.3,0,0.6,0,0.8C139.8,29.4,139.8,29.6,139.8,29.7z"/>
</g>
<path class="st0" d="M164.7,66.6c-1.9-5.2-5.6-9-10.8-11.2c-3.9-1.6-7.9-2-12-1.4c-4,0.6-7.5,2.2-10.5,4.9c-2.7,2.5-4.5,5.4-5.6,8.8
	c-1,3.2-1.3,6.5-0.9,9.8c0.7,5.7,3.2,10.4,7.7,13.9c3.8,2.9,8.1,4.2,12.9,4.2c0.9-0.1,1.7-0.1,2.4-0.2c6.7-0.7,12-3.9,15.4-9.8
	C166.8,79.5,167.1,73.1,164.7,66.6z M160.5,76.1c0,0.2,0,0.3-0.1,0.5c-0.1,1.2-0.3,2.4-0.7,3.5c-0.7,2.2-1.7,4.1-3.4,5.9
	c-2.9,3.1-6.6,4.6-10.9,4.6c-4.2-0.1-7.7-1.5-10.6-4.5c-1.9-2-3.1-4.4-3.7-7c-0.3-1.5-0.5-2.9-0.7-4.4h0c0,0,0-0.1,0-0.1
	c0,0.1,0,0.1,0.1,0.1c0-3.6,0.9-7,3.1-9.9c2.4-3.3,5.7-5.3,9.8-5.8c2.4-0.3,4.8-0.1,7.2,0.7c2.8,1,5.1,2.8,6.9,5.2
	c2.1,2.9,3,6.2,3,9.7C160.6,75.1,160.5,75.6,160.5,76.1z"/>
</svg>
