<?xml version="1.0" encoding="utf-8"?>
<!-- Generator: Adobe Illustrator 24.1.0, SVG Export Plug-In . SVG Version: 6.00 Build 0)  -->
<svg version="1.1" id="Ebene_1" xmlns="http://www.w3.org/2000/svg" xmlns:xlink="http://www.w3.org/1999/xlink" x="0px" y="0px"
	 width="300px" height="100px" viewBox="0 0 300 100" style="enable-background:new 0 0 300 100;" xml:space="preserve">
<style type="text/css">
	.st0{fill:#3d3939;}
</style>
<g id="I9srz3.tif">
	<g>
		<path class="st0" d="M45.5,82.9c-14.8,0-26.8-12.1-26.7-26.9c0-14.9,12.1-26.7,27.3-26.7c14.5,0,26.5,12.2,26.5,26.8
			C72.6,71,60.5,82.9,45.5,82.9z M35.7,56c0,5.5,4.4,10,9.9,10c5.4,0.1,10-4.5,10-10c0-5.4-4.4-9.9-9.9-10
			C40.3,46.1,35.8,50.5,35.7,56z"/>
		<path class="st0" d="M127.5,68.8c-2.1,0-4.2,0-6.3,0c-0.4,0-0.9-0.5-1-0.9c-0.6-1.3-1-2.7-1.5-4c-4,0-7.9,0-11.8,0
			c-0.4,0-1,0.5-1.2,0.9c-0.6,1.3-0.8,3.2-1.7,3.8c-1.1,0.7-3,0.2-4.5,0.3c-0.7,0-1.5,0-2.5,0c0.2-0.6,0.3-1.1,0.5-1.5
			c3.4-8.9,6.9-17.8,10.3-26.7c0.4-1.1,1-1.5,2.2-1.4c1.7,0.1,3.5,0,5.2,0.1c0.5,0,1.2,0.4,1.4,0.9c3.7,9.4,7.3,18.8,10.9,28.2
			C127.5,68.4,127.5,68.5,127.5,68.8z M107.8,58.1c3.1,0,6,0,9.1,0c-1.5-4.1-2.9-8-4.4-12c-0.1,0-0.3,0-0.4,0.1
			C110.7,50.1,109.3,54,107.8,58.1z"/>
		<path class="st0" d="M183.2,68.7c-1.9,0-3.7,0-5.6,0c0-7.1,0-14.1,0-21.3c1.8,0,3.7,0,5.5,0c0,0.8,0.1,1.5,0.1,2.2
			c6.2-4.1,10.3-3.9,12.9,0.7c0.3-0.3,0.6-0.5,0.9-0.8c2.3-2.1,4.8-3.2,8-2.6c2.8,0.4,4.4,2.1,4.8,4.9c0.1,0.5,0.1,0.9,0.1,1.4
			c0,5.1,0,10.2,0,15.4c-1.9,0-3.7,0-5.7,0c0-0.6,0-1.1,0-1.7c0-3.9,0-7.7,0-11.6c0-3.1-2.2-4.5-5.1-3.2c-1.7,0.8-2.7,1.9-2.6,4
			c0.2,4.1,0.1,8.2,0.1,12.4c-1.9,0-3.7,0-5.7,0c0-0.6,0-1.1,0-1.7c0-3.9,0-7.7,0-11.6c0-2.5-1.1-3.6-3.2-3.6
			c-2.4,0-4.4,1.8-4.4,3.8c0,3.8,0,7.6,0,11.4C183.2,67.6,183.2,68.1,183.2,68.7z"/>
		<path class="st0" d="M74.9,37c-5.5,0-10-4.4-10-9.9c0-5.4,4.4-9.9,9.9-9.9c5.5,0,9.9,4.3,10,9.8C84.9,32.4,80.5,36.9,74.9,37z"/>
		<path class="st0" d="M159.8,69.3c-6.8,0-11.3-4.5-11.3-11.4c0-6.6,4.7-11.2,11.4-11.2c6.6,0,11.3,4.7,11.4,11.3
			C171.2,64.7,166.5,69.3,159.8,69.3z M154.3,58.1c0,3.6,2.3,6.3,5.5,6.3c3.2,0,5.5-2.7,5.5-6.3c0-3.5-2.3-6.1-5.4-6.2
			C156.6,51.9,154.3,54.4,154.3,58.1z"/>
		<path class="st0" d="M230.6,57.8c0-0.9,0-1.4,0-2c0-2.7-1.4-4.2-4.1-4.3c-2.3-0.1-3.5,0.3-6.9,2.4c-0.7-1.2-1.4-2.4-2.1-3.7
			c2.9-2.7,6.4-3.5,10.1-3.4c1,0,2.1,0.2,3.1,0.5c3.6,1,5.5,3.2,5.6,7c0.1,4.6,0,9.2,0,13.8c0,0.2-0.1,0.4-0.1,0.7
			c-1.8,0-3.6,0-5.5,0c-0.1-0.5-0.1-1.1-0.2-1.9c-2,1.9-4.3,2.5-6.8,2.5c-5.3-0.1-8.5-4.4-7-9.4c0.7-2.6,3.5-4.5,6.9-4.6
			C226.1,55.2,228.4,55.8,230.6,57.8z M226.4,65.7c1-0.3,2.2-0.6,3.2-1.1c1.5-0.8,1.6-3.5,0.1-4.4c-1.9-1.2-4-1.5-6-0.3
			c-0.8,0.5-1.5,1.7-1.5,2.6c0,0.8,0.8,1.8,1.6,2.5C224.3,65.4,225.3,65.4,226.4,65.7z"/>
		<path class="st0" d="M260.5,65.9c0.8-1.3,1.6-2.5,2.2-3.4c2.3,0.8,4.5,1.8,6.7,2.3c1,0.3,2.3-0.1,3.4-0.4c0.5-0.2,1-1.1,1.1-1.7
			c0-0.5-0.6-1.2-1.2-1.4c-1.2-0.5-2.4-0.6-3.7-1c-1.2-0.3-2.5-0.6-3.6-1.1c-2.5-0.9-4-2.6-4.1-5.2c-0.2-2.7,1.1-4.7,3.4-6
			c3.9-2.3,10.5-1.4,14.1,1.8c-0.7,1.2-1.4,2.4-2,3.4c-1.8-0.7-3.3-1.4-5-1.9c-0.8-0.3-1.9-0.3-2.6,0c-0.9,0.3-2,1.1-2.2,1.8
			c-0.3,1.2,1.1,1.5,2,1.7c2.1,0.6,4.3,1,6.4,1.7c2.4,0.8,3.9,2.5,4.1,5.1c0.2,2.8-0.8,4.9-3.3,6.3
			C271.8,70.5,264.3,69.5,260.5,65.9z"/>
		<path class="st0" d="M133.7,52.3c-1.2,0-2.3,0-3.4,0c0-1.7,0-3.2,0-4.9c1.1,0,2.2,0,3.4,0c0-2,0-3.8,0-5.7c1.9,0,3.7,0,5.7,0
			c0,1.8,0,3.7,0,5.7c1.5,0,2.9,0,4.3,0c0,1.7,0,3.3,0,5c-1.4,0-2.8,0-4.3,0c0,3.5-0.1,6.8,0,10.1c0.1,1.7,1.3,2.1,3.9,1.5
			c0.3,0.8,0.4,1.7,0.8,2.5c0.7,1.5-0.1,2.3-1.4,2.4c-1.8,0.2-3.7,0.4-5.5,0.1c-2.3-0.4-3.6-2.5-3.6-5.1
			C133.7,60.1,133.7,56.3,133.7,52.3z"/>
		<path class="st0" d="M256.6,46.9c0,1.8,0,3.6,0,5c-1.8,0.5-3.5,0.8-5.2,1.4c-1.2,0.4-1.7,1.4-1.7,2.7c0.1,3.6,0,7.3,0,10.9
			c0,0.6,0,1.1,0,1.8c-2,0-3.8,0-5.7,0c0-7.1,0-14.2,0-21.3c1.8,0,3.6,0,5.5,0c0.1,0.7,0.1,1.4,0.2,2.4
			C251.9,48.3,253.9,46.8,256.6,46.9z"/>
	</g>
</g>
</svg>
