<?xml version="1.0" encoding="utf-8"?>
<!-- Generator: Adobe Illustrator 24.1.0, SVG Export Plug-In . SVG Version: 6.00 Build 0)  -->
<svg version="1.1" id="Ebene_1" xmlns="http://www.w3.org/2000/svg" xmlns:xlink="http://www.w3.org/1999/xlink" x="0px" y="0px"
	 width="300px" height="100px" viewBox="0 0 300 100" style="enable-background:new 0 0 300 100;" xml:space="preserve">
<style type="text/css">
	.st0{fill:#3d3939;}
</style>
<polygon class="st0" points="192.2,24.3 188.1,40.4 160.6,44.1 "/>
<polygon class="st0" points="206.5,60 197.6,56.2 199.7,89.1 "/>
<polygon class="st0" points="188.1,40.4 180.9,55.6 160.6,44.1 "/>
<polygon class="st0" points="197.6,56.2 180.9,55.6 199.7,89.1 "/>
<polygon class="st0" points="188.1,40.4 197.6,56.2 180.9,55.6 "/>
<polygon class="st0" points="192.2,24.3 215,27.3 188.1,40.4 "/>
<polygon class="st0" points="240,17.1 225.7,34.1 226.7,18.3 "/>
<polygon class="st0" points="240,17.1 248,7.3 246.2,17.8 "/>
<polygon class="st0" points="232.3,25.9 246.2,17.8 240,17.1 "/>
<polygon class="st0" points="206.5,60 207.2,40.4 197.6,56.2 "/>
<polygon class="st0" points="207.2,40.4 197.6,56.2 188.1,40.4 "/>
<polygon class="st0" points="215,27.3 207.2,40.4 188.1,40.4 "/>
<polyline class="st0" points="207.2,40.4 206.5,60 224,78.3 207.2,40.4 "/>
<polygon class="st0" points="233.2,68.1 224,44.5 224,78.3 "/>
<polygon class="st0" points="225.7,34.1 224,44.5 207.2,40.4 "/>
<polygon class="st0" points="234.1,48.3 224,44.5 225.7,34.1 "/>
<polygon class="st0" points="237.8,67.4 226.7,49.2 233,49.2 "/>
<polygon class="st0" points="217.1,23.4 225.7,34.1 226.7,18.3 "/>
<polygon class="st0" points="224,44.5 207.2,40.4 224,78.3 "/>
<path class="st0" d="M72.4,89.1v-9.3h-7.5v9.3H59V65h5.9v9.3h7.5V65h5.9v24.1H72.4z"/>
<path class="st0" d="M84.6,67.9c0.1-1.6,1.4-2.8,3-2.8c1.5-0.1,2.9,1,3,2.5c0.1,1.5-1,2.9-2.5,3c-0.1,0-0.3,0-0.4,0
	C86,70.8,84.6,69.5,84.6,67.9z M85,73.3l2.6,1.4l2.7-1.4v15.9h-5.4L85,73.3L85,73.3z"/>
<path class="st0" d="M102.7,89.1h-5.4v-12h-2.1v-5.2h2.1v-5.8h5.4v5.8h2.1v5.2h-2.1C102.7,77.1,102.7,89.1,102.7,89.1z"/>
<path class="st0" d="M119.9,65c7.1,0,8.3,4.3,8.3,6.6c0.1,2.1-1.1,4.1-3,5.1c2.3,0.8,3.8,2.9,3.7,5.4c0,3.8-2.1,7.1-9.2,7.1h-9.4V65
	H119.9z M116.2,74.2h4.4c1,0.2,1.9-0.5,2.1-1.4c0-0.1,0-0.2,0-0.4c0-1-0.8-1.8-1.8-1.8c-0.1,0-0.2,0-0.4,0h-4.4v3.7V74.2z
	 M116.2,83.6h4.8c1.2,0.2,2.3-0.6,2.5-1.8c0.2-1.2-0.6-2.3-1.8-2.5c-0.2,0-0.5,0-0.7,0h-4.8V83.6z"/>
<path class="st0" d="M144,89.1h-5.9V70.5H132V65h18.2v5.5H144V89.1z"/>
<path class="st0" d="M174.6,68.8l-3.8,3.6c-1.5-1.3-3.4-2-5.4-2c-3.5,0-6.4,2.8-6.4,6.3c0,0.1,0,0.3,0,0.4c-0.2,3.5,2.4,6.5,5.9,6.7
	c0.2,0,0.4,0,0.5,0c2,0.1,3.9-0.6,5.4-2l3.8,3.6c-2.4,2.5-5.7,4-9.1,4c-6.8,0-12.3-5.5-12.3-12.3c0-6.8,5.5-12.3,12.3-12.3
	C169,64.8,172.3,66.2,174.6,68.8z"/>
<polygon class="st0" points="233.2,68.1 236.9,70.2 224.1,78.3 "/>
<polygon class="st0" points="237.8,67.2 224,44.5 233.2,68.1 "/>
<polygon class="st0" points="217.1,23.4 207.2,40.4 225.7,34.1 "/>
<g>
	<path class="st0" d="M65.6,53.3v1.3h-6.3v-8.4h6.1v1.3h-4.6v2.2h4V51h-4v2.3H65.6z"/>
	<path class="st0" d="M68.9,54.4c-0.5-0.1-1-0.4-1.4-0.7l0.5-1.2c0.4,0.3,0.8,0.5,1.3,0.7c0.5,0.2,1,0.3,1.5,0.3
		c0.5,0,1-0.1,1.4-0.3c0.3-0.2,0.5-0.5,0.5-0.8c0-0.2-0.1-0.4-0.3-0.6c-0.2-0.2-0.4-0.3-0.7-0.4l-1.1-0.3c-0.5-0.1-1-0.3-1.6-0.4
		c-0.4-0.2-0.7-0.4-1-0.7c-0.3-0.4-0.5-0.8-0.4-1.3c0-0.4,0.1-0.9,0.4-1.3c0.3-0.4,0.7-0.7,1.1-0.9c0.6-0.2,1.2-0.3,1.8-0.3
		c0.5,0,1,0.1,1.5,0.2c0.5,0.1,0.9,0.3,1.3,0.6L73.3,48c-0.4-0.2-0.7-0.4-1.1-0.5c-0.4-0.1-0.8-0.2-1.2-0.2c-0.5,0-1,0.1-1.4,0.3
		c-0.3,0.2-0.4,0.5-0.4,0.8c0,0.2,0.1,0.4,0.3,0.6c0.2,0.2,0.4,0.3,0.7,0.4l1.1,0.3c0.5,0.1,1,0.3,1.5,0.4c0.4,0.2,0.7,0.4,1,0.7
		c0.3,0.4,0.5,0.8,0.4,1.3c0,0.4-0.1,0.9-0.4,1.3c-0.3,0.4-0.7,0.7-1.1,0.9c-0.6,0.2-1.2,0.3-1.8,0.3C70.2,54.7,69.5,54.6,68.9,54.4
		z"/>
	<path class="st0" d="M78.3,47.5h-2.8v-1.3h7.1v1.3h-2.8v7.1h-1.6V47.5z"/>
	<path class="st0" d="M83.5,54.4c-0.4-0.4-0.4-1,0-1.4c0.4-0.4,1-0.4,1.4,0c0.4,0.4,0.4,1,0,1.4c-0.2,0.2-0.4,0.3-0.7,0.3
		C83.9,54.7,83.6,54.6,83.5,54.4z"/>
	<path class="st0" d="M96.5,53.3v1.3h-6.1v-1.1l3.3-3.2c0.3-0.3,0.6-0.6,0.8-0.9c0.1-0.2,0.2-0.5,0.3-0.8c0-0.3-0.1-0.7-0.4-0.9
		c-0.3-0.2-0.8-0.3-1.2-0.3c-0.8-0.1-1.5,0.3-2,0.9l-1.1-0.8c0.3-0.5,0.8-0.8,1.3-1c0.6-0.2,1.2-0.4,1.8-0.4c0.8,0,1.5,0.2,2.2,0.6
		c0.5,0.4,0.9,1.1,0.8,1.8c0,0.4-0.1,0.9-0.3,1.3c-0.3,0.5-0.7,1-1.1,1.4l-2.2,2.1L96.5,53.3L96.5,53.3z"/>
	<path class="st0" d="M100,54.2c-0.6-0.4-1-0.9-1.3-1.5c-0.6-1.5-0.6-3.1,0-4.6c0.3-0.6,0.7-1.1,1.3-1.5c0.5-0.3,1.2-0.5,1.8-0.5
		c0.6,0,1.3,0.2,1.8,0.5c0.6,0.4,1,0.9,1.3,1.5c0.6,1.5,0.6,3.1,0,4.6c-0.3,0.6-0.7,1.1-1.3,1.5c-0.5,0.3-1.2,0.5-1.8,0.5
		C101.1,54.7,100.5,54.6,100,54.2z M103.2,52.6c0.4-0.7,0.5-1.4,0.5-2.2c0.1-0.8-0.1-1.5-0.5-2.2c-0.6-0.8-1.7-0.9-2.5-0.3
		c-0.1,0.1-0.2,0.2-0.3,0.3c-0.4,0.7-0.6,1.4-0.5,2.2c-0.1,0.8,0.1,1.5,0.5,2.2c0.6,0.8,1.7,0.9,2.5,0.4
		C103,52.9,103.1,52.8,103.2,52.6z"/>
	<path class="st0" d="M109.9,46.2v8.4h-1.6v-7.1h-1.8v-1.2H109.9L109.9,46.2z"/>
	<path class="st0" d="M117.6,50.5c0.4,0.4,0.6,1,0.6,1.6c0,0.5-0.1,0.9-0.4,1.3c-0.3,0.4-0.7,0.7-1.1,0.9c-0.6,0.2-1.2,0.4-1.8,0.4
		c-0.6,0-1.2-0.1-1.8-0.3c-0.5-0.2-1-0.4-1.4-0.7l0.7-1.2c0.3,0.3,0.7,0.5,1.1,0.6c0.4,0.1,0.9,0.2,1.3,0.2c0.5,0,0.9-0.1,1.3-0.3
		c0.3-0.2,0.5-0.6,0.5-0.9c0-0.4-0.2-0.7-0.5-0.9c-0.4-0.2-0.9-0.4-1.4-0.3h-0.8v-1.1l1.9-2.3h-3.8v-1.3h5.7v1l-2,2.4
		C116.5,49.7,117.1,50,117.6,50.5z"/>
</g>
</svg>
