<?xml version="1.0" encoding="UTF-8" standalone="no"?>
<svg
   viewBox="0 0 1000 1000"
   version="1.1"
   id="svg260"
   sodipodi:docname="github.svg"
   inkscape:version="1.2.2 (b0a8486541, 2022-12-01)"
   xmlns:inkscape="http://www.inkscape.org/namespaces/inkscape"
   xmlns:sodipodi="http://sodipodi.sourceforge.net/DTD/sodipodi-0.dtd"
   xmlns="http://www.w3.org/2000/svg"
   xmlns:svg="http://www.w3.org/2000/svg">
  <defs
     id="defs264" />
  <sodipodi:namedview
     id="namedview262"
     pagecolor="#ffffff"
     bordercolor="#666666"
     borderopacity="1.0"
     inkscape:showpageshadow="2"
     inkscape:pageopacity="0.0"
     inkscape:pagecheckerboard="0"
     inkscape:deskcolor="#d1d1d1"
     showgrid="false"
     inkscape:zoom="0.779"
     inkscape:cx="500"
     inkscape:cy="499.35815"
     inkscape:window-width="1920"
     inkscape:window-height="959"
     inkscape:window-x="0"
     inkscape:window-y="48"
     inkscape:window-maximized="1"
     inkscape:current-layer="svg260" />
  <path
     d="M500 24q-133 0-247 67-110 64-174 174-67 114-67 247 0 106 43 202 42 92 118 160.5 76 68.5 173 100.5 16 3 24.5-4.5 8.5-7.5 8.5-18.5l0-91q-38 8-69 5-27-2-48-12-17-9-29-22-9-9-15-20l-4-9q-10-25-24-43-10-13-21-22l-9-6q-20-13-19-21 0-6 11-8l11-1q22 2 41 15 14 9 25 24l9 12q28 48 77 53 32 2 65-13 3-22 11.5-38.5 8.5-16.5 19.5-26.5-99-11-151-55-71-59-71-186 0-76 50-131-8-21-9-44-3-42 14-86l8-1q10-1 24 2 19 4 42 15 28 12 60 34 62-16 122.5-16 60.5 0 122.5 16 32-22 60-34 23-11 42-15 14-3 24-2l8 1q17 44 14 86-1 24-9 44 50 55 50 131 0 127-71 186-52 44-152 55 14 13 23 34 10 25 10 56l0 134q0 12 7 18 9 9 26 6 97-32 172.5-101 75.5-69 117.5-161 43-96 43-202 0-133-67-247-64-110-174-174-114-67-247-67z m-303 701q-1 2-3.5 2-2.5 0-5-1-2.5-1-4-3-1.5-2-0.5-4 1-4 8-1.5 7 2.5 5 7.5l0 0z m-6-5l0 0z m25 27q-3 3-10-3-2-2-2.5-5-0.5-3 1.5-5 2-2 5-1 3 1 5 3.5 2 2.5 2.5 6 0.5 3.5-1.5 4.5l0 0z m-4-5l0 0z m24 33q-2 1-5.5 0-3.5-1-5.5-4.5-2-3.5-2-7 0-3.5 2-4.5 2-1 5.5 0 3.5 1 5.5 4.5 2 3.5 2 6.5 0 3-2 5l0 0z m0 0l0 0z m26 27q-2 2-5.5 1.5-3.5-0.5-7-3.5-3.5-3-4-6.5-0.5-3.5 1.5-5.5 6-6 13 2 3 3 3.5 6.5 0.5 3.5-1.5 5.5l0 0z m0 0l0 0z m36 16q-1 6-12 4-10-4-8-10 4-7 13-4 4 2 6 4.5 2 2.5 1 5.5l0 0z m0 0l0 0z m41 3q0 3-3 5-3 2-7.5 2-4.5 0-7.5-2-3-2-3-5 0-3 3-5 3-2 7.5-2 4.5 0 7.5 2 3 2 3 5l0 0z m0 0l0 0z m37-6q0 3-3 5.5-3 2.5-7 3.5-4 1-7-1-3-2-4-5-1-3 2-5.5 3-2.5 7-3.5 10-2 12 6l0 0z m0 0l0 0z"
     id="path258"
     style="fill:#8c939a;fill-opacity:1" />
</svg>
