<?xml version="1.0" encoding="utf-8"?>
<!-- Generator: Adobe Illustrator 24.3.0, SVG Export Plug-In . SVG Version: 6.00 Build 0)  -->
<svg version="1.1" id="Layer_1" xmlns="http://www.w3.org/2000/svg" xmlns:xlink="http://www.w3.org/1999/xlink" x="0px" y="0px"
	 viewBox="0 0 512 512" style="enable-background:new 0 0 512 512;" xml:space="preserve">
<style type="text/css">
	.st0{fill-rule:evenodd;clip-rule:evenodd;fill:#CBDBE8;}
	.st1{fill-rule:evenodd;clip-rule:evenodd;fill:#DFEBF2;}
	.st2{fill:#99A4AA;stroke:#000000;stroke-width:5;stroke-linecap:round;stroke-linejoin:round;stroke-miterlimit:10;}
	.st3{fill:#DFEBF2;stroke:#000000;stroke-width:5;stroke-linecap:round;stroke-linejoin:round;stroke-miterlimit:10;}
	.st4{fill-rule:evenodd;clip-rule:evenodd;fill:#DFEBF2;stroke:#000000;stroke-width:5;stroke-miterlimit:10;}
	
		.st5{fill-rule:evenodd;clip-rule:evenodd;fill:#99A4AA;stroke:#000000;stroke-width:5;stroke-linecap:round;stroke-linejoin:round;stroke-miterlimit:10;}
</style>
<circle class="st0" cx="256" cy="256" r="250"/>
<path class="st3" d="M214.6,387.6c104.2,0,161.2-86.3,161.2-161.2c0-2.5,0-4.9-0.2-7.3c11.1-8,20.7-17.9,28.3-29.3
	c-10.3,4.6-21.3,7.6-32.5,8.9c11.8-7.1,20.7-18.2,24.9-31.3c-11.1,6.6-23.3,11.2-36,13.7c-10.7-11.4-25.7-17.9-41.3-17.9
	c-31.1,0-56.7,25.6-56.7,56.7c0,4.3,0.5,8.6,1.5,12.8c-45.5-2.3-88-23.8-116.7-59.2c-14.9,25.7-7.2,59.1,17.5,75.6
	c-9-0.3-17.8-2.7-25.7-7.1v0.7c0,26.9,19.1,50.2,45.4,55.5c-8.3,2.3-17.1,2.6-25.6,1c7.4,23,28.7,38.9,52.9,39.3
	c-20.1,15.8-44.8,24.3-70.3,24.3c-4.5,0-9-0.3-13.5-0.8C153.7,378.8,183.9,387.6,214.6,387.6"/>
</svg>
