<?xml version="1.0" encoding="UTF-8" standalone="no"?>
<svg
   viewBox="0 0 1000 1000"
   version="1.1"
   id="svg4"
   sodipodi:docname="desktop.svg"
   inkscape:version="1.2.2 (b0a8486541, 2022-12-01)"
   xmlns:inkscape="http://www.inkscape.org/namespaces/inkscape"
   xmlns:sodipodi="http://sodipodi.sourceforge.net/DTD/sodipodi-0.dtd"
   xmlns="http://www.w3.org/2000/svg"
   xmlns:svg="http://www.w3.org/2000/svg">
  <defs
     id="defs8" />
  <sodipodi:namedview
     id="namedview6"
     pagecolor="#ffffff"
     bordercolor="#666666"
     borderopacity="1.0"
     inkscape:showpageshadow="2"
     inkscape:pageopacity="0.0"
     inkscape:pagecheckerboard="0"
     inkscape:deskcolor="#d1d1d1"
     showgrid="false"
     inkscape:zoom="0.779"
     inkscape:cx="500"
     inkscape:cy="499.35815"
     inkscape:window-width="1920"
     inkscape:window-height="959"
     inkscape:window-x="0"
     inkscape:window-y="48"
     inkscape:window-maximized="1"
     inkscape:current-layer="svg4" />
  <path
     d="M868 17l-736 0q-30 0-55.5 15-25.5 15-40.5 40-15 25-15 55l0 589q0 30 15 55.5 15 25.5 40.5 40.5 25.5 15 55.5 15l256 0-11 60-71 0q-17 0-29 14-12 14-12 34 0 20 12 34 12 14 29 14l388 0q17 0 28.5-14 11.5-14 11.5-34 0-20-11.5-34-11.5-14-28.5-14l-71 0-10-60 255 0q30 0 55.5-15 25.5-15 40.5-40.5 15-25.5 15-55.5l0-589q0-30-15-55-15-25-40.5-40-25.5-15-55.5-15z m18 292l0 407q0 7-5 12.5-5 5.5-13 5.5l-736 0q-7 0-12.5-5.5-5.5-5.5-5.5-12.5l0-589q0-7 5.5-12 5.5-5 12.5-5l736 0q7 0 12.5 5 5.5 5 5.5 12l0 182z"
     id="path2"
     style="fill:#8c939a;fill-opacity:1" />
</svg>
