<?xml version="1.0" encoding="utf-8"?>
<!-- Generator: Adobe Illustrator 24.3.0, SVG Export Plug-In . SVG Version: 6.00 Build 0)  -->
<svg version="1.1" id="Layer_1" xmlns="http://www.w3.org/2000/svg" xmlns:xlink="http://www.w3.org/1999/xlink" x="0px" y="0px"
	 viewBox="0 0 512 512" style="enable-background:new 0 0 512 512;" xml:space="preserve">
<style type="text/css">
	.st0{fill:#3D3939;}
</style>
<g>
	<path class="st0" d="M299.7,196.3l2.5-4c1.3-2.1,1.6-4.8,0.8-7.2l-1.5-4.5l142-112.2c1.8-1.4,2.9-3.4,3.1-5.6
		c0.3-2.2-0.4-4.4-1.7-6.2c-1.4-1.7-3.4-2.8-5.6-3.1h0c-68.6-8.2-137.5,9.1-194.1,48.6l-3.8,2.6l-3.8-2.6c-3-2-7-1.9-9.8,0.4
		l-78.6,62.2c-2.9,2.3-3.9,6.1-2.6,9.5l1.6,4.3l-3.4,3.1c-51.5,45.9-84.2,109-92.1,177.6c-0.3,2.2,0.4,4.4,1.7,6.2
		c1.4,1.8,3.4,2.9,5.6,3.1c2.2,0.3,4.4-0.4,6.1-1.7l142-112.2l4,2.5c2.1,1.3,4.8,1.6,7.2,0.8l4.5-1.5l155.8,197.1
		c3,3.8,7.4,6.3,12.3,6.8c4.9,0.6,9.7-0.8,13.5-3.8l47.2-37.3c7.9-6.3,9.3-17.9,3-25.8L299.7,196.3z M256.8,114.4
		c41.5-29.1,90.2-45.1,140.9-46.3l20-0.5L290.3,168.3L251,118.5L256.8,114.4z M71.2,341.4l5.1-19.4c12.9-49.1,39.7-92.7,77.6-126.4
		l5.3-4.7l39.3,49.8L71.2,341.4z M217.9,238.3l-51.8-65.5l65.5-51.8l51.8,65.5L217.9,238.3z M393.6,444.4L236.1,245.2l49.8-39.4
		L443.4,405L393.6,444.4z"/>
</g>
</svg>
