<?xml version="1.0" encoding="utf-8"?>
<!-- Generator: Adobe Illustrator 24.3.0, SVG Export Plug-In . SVG Version: 6.00 Build 0)  -->
<svg version="1.1" id="Ebene_1" xmlns="http://www.w3.org/2000/svg" xmlns:xlink="http://www.w3.org/1999/xlink" x="0px" y="0px"
	 viewBox="0 0 900 899.8" style="enable-background:new 0 0 900 899.8;" xml:space="preserve">
<style type="text/css">
	.st0{fill:#141516;}
	.st1{enable-background:new    ;}
	.st2{fill:#FFFFFF;}
	.st3{fill:#FEFEFE;}
	.st4{fill:#9B1C2E;}
</style>
<path class="st0" d="M828.8,661.2H71.2c-31.7,0-57.3-25.7-57.3-57.3V296.2c0-31.7,25.7-57.3,57.3-57.3h757.5
	c31.7,0,57.3,25.7,57.3,57.3v307.7C886.2,635.4,860.4,661.2,828.8,661.2z"/>
<g>
	<g class="st1">
		<path class="st2" d="M142.2,593.9c0,3.3-0.5,6.3-1.6,9.1c-1.1,2.7-2.6,5.1-4.6,7.1c-2,2-4.4,3.5-7.2,4.6c-2.8,1.1-5.9,1.6-9.3,1.6
			h-17.1v-44.9h17.1c3.4,0,6.6,0.5,9.3,1.6c2.8,1.1,5.1,2.6,7.2,4.6c2,2,3.5,4.4,4.6,7.1C141.7,587.5,142.2,590.6,142.2,593.9z
			 M133.6,593.9c0-2.5-0.3-4.7-1-6.7c-0.7-2-1.6-3.6-2.8-4.9c-1.2-1.3-2.7-2.4-4.5-3.2c-1.7-0.8-3.7-1.1-5.9-1.1h-8.7v31.6h8.7
			c2.2,0,4.1-0.3,5.9-1.1c1.7-0.8,3.3-1.7,4.5-3.2c1.2-1.3,2.2-3.1,2.8-4.9C133.3,598.6,133.6,596.4,133.6,593.9z"/>
		<path class="st2" d="M192.3,593.9c0,3.3-0.5,6.3-1.6,9.2c-1.1,2.8-2.6,5.2-4.6,7.3c-2,2.1-4.4,3.6-7.2,4.8
			c-2.8,1.2-5.9,1.7-9.3,1.7s-6.4-0.5-9.3-1.7c-2.8-1.2-5.2-2.7-7.2-4.8s-3.5-4.5-4.6-7.3c-1.1-2.8-1.6-5.9-1.6-9.2
			c0-3.3,0.5-6.3,1.6-9.2c1.1-2.8,2.6-5.2,4.6-7.3c2-2.1,4.4-3.6,7.2-4.8c2.8-1.2,5.9-1.7,9.3-1.7c2.3,0,4.4,0.2,6.4,0.8
			c2,0.5,3.8,1.3,5.6,2.2c1.6,1,3.2,2.2,4.5,3.5c1.3,1.4,2.5,2.9,3.4,4.6c1,1.7,1.6,3.5,2.1,5.6
			C192.1,589.6,192.3,591.7,192.3,593.9z M183.8,593.9c0-2.5-0.3-4.7-1-6.7c-0.7-2-1.6-3.6-2.8-5c-1.2-1.4-2.7-2.4-4.5-3.2
			c-1.7-0.8-3.7-1.1-5.9-1.1s-4.1,0.3-5.9,1.1c-1.7,0.8-3.3,1.7-4.5,3.2s-2.2,3.1-2.8,5c-0.7,2-1,4.1-1,6.7s0.3,4.7,1,6.7
			c0.7,2,1.6,3.6,2.8,4.9c1.2,1.3,2.7,2.4,4.5,3.2c1.7,0.8,3.7,1.1,5.9,1.1s4.1-0.3,5.9-1.1c1.7-0.8,3.3-1.7,4.5-3.2
			c1.2-1.3,2.2-3.1,2.8-4.9S183.8,596.4,183.8,593.9z"/>
		<path class="st2" d="M237.5,571.5v44.9h-4.3c-0.7,0-1.2-0.1-1.6-0.3c-0.4-0.2-0.9-0.5-1.3-1.1L206.8,585c0.1,1.4,0.2,2.6,0.2,3.8
			v27.5h-7.3v-44.9h4.4c0.3,0,0.7,0,0.9,0c0.2,0,0.4,0.1,0.7,0.2s0.4,0.2,0.5,0.4c0.2,0.2,0.4,0.4,0.7,0.7l23.5,30
			c-0.1-0.8-0.1-1.4-0.1-2.2c0-0.7-0.1-1.3-0.1-2v-27.3h7.4V571.5z"/>
		<path class="st2" d="M286,616.3h-6.4c-0.8,0-1.3-0.2-1.7-0.5c-0.4-0.3-0.8-0.8-1-1.3l-3.4-9.2h-18.6l-3.4,9.2
			c-0.2,0.4-0.4,0.9-1,1.3c-0.4,0.4-1.1,0.5-1.7,0.5h-6.6l17.7-44.9h8.5L286,616.3z M271.2,599.3l-5.5-15c-0.2-0.7-0.5-1.4-0.9-2.4
			c-0.3-0.9-0.5-1.9-0.9-2.9c-0.2,1.1-0.5,2.1-0.9,2.9c-0.3,0.9-0.5,1.7-0.9,2.4l-5.5,14.8h14.4V599.3z"/>
		<path class="st2" d="M317.6,578.4H304v38h-8.3v-38h-13.5v-6.9h35.4V578.4z"/>
		<path class="st2" d="M331.9,616.3h-8.4v-44.9h8.4V616.3z"/>
		<path class="st2" d="M384.6,593.9c0,3.3-0.5,6.3-1.6,9.2c-1.1,2.8-2.6,5.2-4.6,7.3c-2,2.1-4.4,3.6-7.2,4.8
			c-2.8,1.2-5.9,1.7-9.3,1.7c-3.4,0-6.4-0.5-9.3-1.7c-2.8-1.2-5.2-2.7-7.2-4.8c-2-2.1-3.5-4.5-4.6-7.3c-1.1-2.8-1.6-5.9-1.6-9.2
			c0-3.3,0.5-6.3,1.6-9.2c1.1-2.8,2.6-5.2,4.6-7.3c2-2.1,4.4-3.6,7.2-4.8c2.8-1.2,5.9-1.7,9.3-1.7c2.3,0,4.4,0.2,6.4,0.8
			c2,0.5,3.8,1.3,5.6,2.2c1.6,1,3.2,2.2,4.5,3.5c1.3,1.4,2.5,2.9,3.4,4.6c1,1.7,1.6,3.5,2.1,5.6
			C384.3,589.5,384.6,591.7,384.6,593.9z M376.1,593.9c0-2.5-0.3-4.7-1-6.7c-0.7-2-1.6-3.6-2.8-5c-1.2-1.4-2.7-2.4-4.5-3.2
			c-1.7-0.8-3.7-1.1-5.9-1.1c-2.2,0-4.1,0.3-5.9,1.1c-1.7,0.8-3.3,1.7-4.5,3.2s-2.2,3.1-2.8,5c-0.7,2-1,4.1-1,6.7s0.3,4.7,1,6.7
			c0.7,2,1.6,3.6,2.8,4.9c1.2,1.3,2.7,2.4,4.5,3.2c1.7,0.8,3.7,1.1,5.9,1.1c2.2,0,4.1-0.3,5.9-1.1c1.7-0.8,3.3-1.7,4.5-3.2
			c1.2-1.3,2.2-3.1,2.8-4.9C375.8,598.6,376.1,596.4,376.1,593.9z"/>
		<path class="st2" d="M429.8,571.5v44.9h-4.3c-0.7,0-1.2-0.1-1.6-0.3c-0.4-0.2-0.9-0.5-1.3-1.1L399.1,585c0.1,1.4,0.2,2.6,0.2,3.8
			v27.5H392v-44.9h4.4c0.3,0,0.7,0,0.9,0c0.2,0,0.4,0.1,0.7,0.2s0.4,0.2,0.5,0.4c0.2,0.2,0.4,0.4,0.7,0.7l23.5,30
			c-0.1-0.8-0.1-1.4-0.1-2.2c0-0.7-0.1-1.3-0.1-2v-27.3h7.4V571.5z"/>
		<path class="st2" d="M463.8,579.6c-0.2,0.4-0.5,0.8-0.8,1c-0.3,0.2-0.7,0.3-1.1,0.3c-0.4,0-0.9-0.1-1.4-0.4
			c-0.5-0.3-1.1-0.7-1.9-1.1c-0.7-0.4-1.5-0.8-2.5-1.1c-1-0.3-2.1-0.4-3.4-0.4c-1.2,0-2.2,0.1-3.1,0.4c-0.9,0.3-1.6,0.7-2.2,1.2
			c-0.5,0.5-1,1.1-1.3,1.7c-0.3,0.7-0.4,1.4-0.4,2.3c0,1.1,0.3,2,0.9,2.6c0.5,0.7,1.4,1.3,2.3,1.7c1,0.5,2.1,1,3.3,1.3
			c1.2,0.4,2.5,0.8,3.8,1.3c1.3,0.4,2.6,1,3.8,1.5c1.2,0.5,2.4,1.3,3.3,2.2c1,0.9,1.7,2,2.3,3.3c0.5,1.3,0.9,2.8,0.9,4.7
			c0,2.1-0.3,3.9-1.1,5.7c-0.7,1.7-1.7,3.3-3.1,4.6c-1.3,1.3-2.9,2.4-4.9,3.1c-2,0.8-4.1,1.1-6.7,1.1c-1.4,0-2.8-0.1-4.3-0.4
			s-2.7-0.7-4-1.2c-1.3-0.5-2.5-1.1-3.6-1.9c-1.1-0.8-2.1-1.5-2.9-2.4l2.4-4c0.2-0.3,0.4-0.5,0.8-0.8c0.3-0.2,0.7-0.3,1.1-0.3
			c0.5,0,1.1,0.2,1.6,0.7c0.5,0.4,1.3,0.9,2.2,1.4c0.9,0.5,1.7,1,2.9,1.4c1.1,0.4,2.4,0.7,4,0.7c2.4,0,4.3-0.5,5.6-1.6
			c1.3-1.1,2-2.7,2-4.8c0-1.2-0.3-2.2-0.9-2.8c-0.5-0.8-1.4-1.4-2.3-1.9c-1-0.5-2.1-1-3.3-1.3c-1.2-0.3-2.5-0.8-3.8-1.2
			c-1.3-0.4-2.5-0.9-3.8-1.5c-1.2-0.5-2.3-1.3-3.3-2.3c-1-1-1.7-2.1-2.3-3.5s-0.9-3.2-0.9-5.1c0-1.6,0.3-3.3,1-4.8s1.6-2.9,2.8-4.1
			s2.7-2.2,4.6-2.8c1.9-0.8,3.9-1.1,6.2-1.1c2.6,0,5.1,0.4,7.3,1.2c2.2,0.9,4.1,2,5.7,3.5L463.8,579.6z"/>
		<path class="st2" d="M525.3,616.3h-6.4c-0.8,0-1.3-0.2-1.7-0.5c-0.4-0.3-0.8-0.8-1-1.3l-3.4-9.2h-18.6l-3.4,9.2
			c-0.2,0.4-0.4,0.9-1,1.3c-0.4,0.4-1.1,0.5-1.7,0.5h-6.6l17.7-44.9h8.5L525.3,616.3z M510.6,599.3l-5.5-15
			c-0.2-0.7-0.5-1.4-0.9-2.4c-0.3-0.9-0.5-1.9-0.9-2.9c-0.2,1.1-0.5,2.1-0.9,2.9c-0.3,0.9-0.5,1.7-0.9,2.4l-5.5,14.8h14.4V599.3z"/>
		<path class="st2" d="M559.4,605.8c0.4,0,0.9,0.2,1.2,0.5l3.3,3.6c-1.9,2.3-4,3.9-6.8,5.1c-2.6,1.2-5.9,1.7-9.6,1.7
			c-3.3,0-6.3-0.5-9-1.7c-2.6-1.1-4.9-2.7-6.8-4.7s-3.3-4.5-4.4-7.3c-1-2.8-1.5-5.9-1.5-9.2c0-3.4,0.5-6.4,1.6-9.3
			c1.1-2.8,2.6-5.2,4.6-7.2c2-2.1,4.3-3.6,7-4.7c2.7-1.1,5.7-1.6,9-1.6c3.3,0,6.2,0.5,8.7,1.6s4.7,2.5,6.4,4.3l-2.8,3.9
			c-0.2,0.2-0.3,0.4-0.7,0.7c-0.2,0.2-0.7,0.3-1.1,0.3c-0.3,0-0.7-0.1-1-0.2c-0.3-0.2-0.7-0.4-1.1-0.7s-0.9-0.5-1.4-0.9
			c-0.5-0.3-1.1-0.5-1.7-0.9c-0.7-0.2-1.5-0.4-2.4-0.7c-0.9-0.2-2-0.2-3.2-0.2c-2,0-3.8,0.3-5.5,1.1c-1.6,0.8-3.1,1.7-4.3,3.1
			s-2.2,3.1-2.8,4.9c-0.7,1.9-1,4.1-1,6.7c0,2.5,0.3,4.8,1.1,6.8c0.8,2,1.6,3.6,2.9,4.9c1.2,1.3,2.6,2.4,4.3,3.1
			c1.6,0.8,3.4,1.1,5.3,1.1c1.1,0,2.2-0.1,3.1-0.2c0.9-0.1,1.7-0.3,2.5-0.5c0.8-0.2,1.5-0.7,2.2-1.1c0.7-0.4,1.4-1,2.1-1.5
			c0.2-0.2,0.4-0.3,0.7-0.4C559,605.8,559.2,605.8,559.4,605.8z"/>
		<path class="st2" d="M599.5,605.8c0.4,0,0.9,0.2,1.2,0.5l3.3,3.6c-1.9,2.3-4,3.9-6.8,5.1c-2.6,1.2-5.9,1.7-9.6,1.7
			c-3.4,0-6.3-0.5-9-1.7c-2.6-1.1-4.9-2.7-6.8-4.7c-1.9-2.1-3.3-4.5-4.4-7.3c-1-2.8-1.5-5.9-1.5-9.2c0-3.4,0.5-6.4,1.6-9.3
			c1.1-2.8,2.6-5.2,4.6-7.2c2-2.1,4.3-3.6,7-4.7s5.7-1.6,9-1.6c3.3,0,6.2,0.5,8.7,1.6c2.5,1.1,4.7,2.5,6.4,4.3l-2.8,3.9
			c-0.2,0.2-0.3,0.4-0.7,0.7c-0.2,0.2-0.7,0.3-1.1,0.3c-0.3,0-0.7-0.1-1-0.2c-0.3-0.2-0.7-0.4-1.1-0.7c-0.4-0.2-0.9-0.5-1.4-0.9
			c-0.5-0.3-1.1-0.5-1.7-0.9c-0.7-0.2-1.5-0.4-2.4-0.7s-2-0.2-3.2-0.2c-2,0-3.8,0.3-5.5,1.1s-3.1,1.7-4.3,3.1
			c-1.2,1.3-2.2,3.1-2.8,4.9c-0.7,2-1,4.1-1,6.7c0,2.5,0.3,4.8,1.1,6.8c0.8,2,1.6,3.6,2.9,4.9c1.2,1.3,2.6,2.4,4.4,3.1
			c1.6,0.8,3.4,1.1,5.4,1.1c1.1,0,2.2-0.1,3.1-0.2c0.9-0.1,1.7-0.3,2.5-0.5s1.5-0.7,2.2-1.1c0.7-0.4,1.4-1,2.1-1.5
			c0.2-0.2,0.4-0.3,0.7-0.4C599,605.8,599.3,605.8,599.5,605.8z"/>
		<path class="st2" d="M618.1,578.1v12.4h15.7v6.4h-15.7v12.7H638v6.7h-28.3v-44.9H638v6.7H618.1z"/>
		<path class="st2" d="M660.1,571.5c2.9,0,5.6,0.3,7.8,1.1c2.2,0.7,4,1.6,5.5,2.9c1.4,1.3,2.5,2.7,3.2,4.5c0.7,1.7,1.1,3.7,1.1,5.8
			c0,2.2-0.3,4.1-1.1,6c-0.8,1.9-1.9,3.4-3.3,4.7c-1.4,1.3-3.3,2.3-5.5,3.1s-4.7,1.1-7.6,1.1h-6.3v15.8h-8.3v-44.9h14.6V571.5z
			 M660.1,594c1.5,0,2.8-0.2,4-0.5c1.1-0.3,2.1-1,2.8-1.6c0.8-0.8,1.3-1.5,1.6-2.6c0.3-1,0.5-2.2,0.5-3.4c0-1.2-0.2-2.3-0.5-3.3
			c-0.3-1-1-1.7-1.6-2.5c-0.8-0.7-1.6-1.2-2.8-1.5c-1.1-0.3-2.5-0.5-4-0.5h-6.3v16L660.1,594L660.1,594z"/>
		<path class="st2" d="M715.2,578.4h-13.5v38h-8.3v-38h-13.5v-6.9h35.4V578.4z"/>
		<path class="st2" d="M729.5,578.1v12.4h15.7v6.4h-15.7v12.7h19.9v6.7h-28.3v-44.9h28.3v6.7H729.5z"/>
		<path class="st2" d="M796.7,593.9c0,3.3-0.5,6.3-1.6,9.1c-1.1,2.7-2.6,5.1-4.6,7.1c-2,2-4.4,3.5-7.2,4.6c-2.8,1.1-5.9,1.6-9.3,1.6
			h-17.1v-44.9h17c3.4,0,6.6,0.5,9.3,1.6c2.8,1.1,5.1,2.6,7.2,4.6c2,2,3.5,4.4,4.6,7.1C796,587.5,796.7,590.6,796.7,593.9z
			 M788,593.9c0-2.5-0.3-4.7-1-6.7c-0.7-2-1.6-3.6-2.8-4.9c-1.2-1.3-2.7-2.4-4.5-3.2c-1.7-0.8-3.7-1.1-5.9-1.1h-8.7v31.6h8.7
			c2.2,0,4.1-0.3,5.9-1.1c1.7-0.8,3.3-1.7,4.5-3.2c1.2-1.3,2.2-3.1,2.8-4.9C787.7,598.6,788,596.4,788,593.9z"/>
	</g>
	<g>
		<g>
			<path class="st2" d="M435.7,396.5h-24.1v-26.2h24.1V359c0-43.9,12.8-45.7,63.5-45.7v23.8c-27.5,0-30.9,1.5-30.9,16.5v16.7h30.9
				v26.2h-30.9v99h-32.6V396.5L435.7,396.5z M522.4,313H556v28.9h-33.7V313z M522.6,370.3h32.9v125.2h-32.9V370.3z"/>
			<path class="st2" d="M589.9,370.3h30.7l0.9,21.6h2c6.7-18.6,19.9-23.6,40.1-23.6v31.2c-32.2,0-41,11.8-41,45.9v50h-32.6V370.3
				L589.9,370.3z"/>
			<path class="st2" d="M681,432.6c0-50.6,3.2-64.3,57.4-64.3c54.2,0,57.4,13.7,57.4,64.3s-3.2,64.8-57.4,64.8
				C684.2,497.5,681,483.1,681,432.6z M763,432.6c0-34.4,0-38-24.6-38c-24.6,0-24.6,3.7-24.6,38s0,38.5,24.6,38.5
				C763,471.1,763,467,763,432.6z"/>
		</g>
		<g>
			<circle class="st3" cx="226.2" cy="405.2" r="121.9"/>
		</g>
		<g>
			<path class="st4" d="M175.9,458.7c2.8,0,5.5-1.6,6.7-4.1l18-34.1h-27.8c-4.2,0-7.6-3.5-7.6-7.6v-15.3c0-4.2,3.5-7.6,7.6-7.6h43.9
				l34.1-64.6c1.3-2.5,3.9-4.1,6.7-4.1h57.5c-22.3-23.5-53.7-38.2-88.7-38.2c-67.5,0-122.2,54.7-122.2,122.2
				c0,19.1,4.4,37.3,12.3,53.5L175.9,458.7L175.9,458.7L175.9,458.7z"/>
			<path class="st4" d="M276.7,351.7c-2.8,0-5.5,1.6-6.7,4.1l-18,34.1h27.8c4.2,0,7.6,3.5,7.6,7.6v15.3c0,4.2-3.5,7.6-7.6,7.6h-43.9
				l-34.1,64.6c-1.3,2.5-3.9,4.1-6.7,4.1h-57.5c22.3,23.5,53.7,38.2,88.7,38.2c67.5,0,122.2-54.7,122.2-122.2
				c0-19.1-4.4-37.3-12.3-53.5L276.7,351.7L276.7,351.7L276.7,351.7z"/>
		</g>
	</g>
</g>
</svg>
