<?xml version="1.0" encoding="utf-8"?>
<!-- Generator: Adobe Illustrator 24.1.0, SVG Export Plug-In . SVG Version: 6.00 Build 0)  -->
<svg version="1.1" id="Ebene_1" xmlns="http://www.w3.org/2000/svg" xmlns:xlink="http://www.w3.org/1999/xlink" x="0px" y="0px"
	 width="300px" height="100px" viewBox="0 0 300 100" style="enable-background:new 0 0 300 100;" xml:space="preserve">
<style type="text/css">
	.st0{fill:#3d3939;}
</style>
<g id="DBFUq9.tif">
	<g>
		<path class="st0" d="M204.3,49.7c3.8,2.3,4.7,4.2,3.9,7.9c-0.8,3.2-3.4,5.3-7.2,5.5c-2.9,0.2-5.8,0.1-8.7,0.1
			c-1.3,0-1.9-0.6-1.9-1.9c0-7,0-14,0-21.1c0-1.2,0.5-1.9,1.7-1.9c3,0,6.1-0.1,9.1,0.2c4.3,0.5,6.6,4.6,5.6,7.8
			C206.4,47.4,205.5,48.8,204.3,49.7z M193.6,51.6c0,2.9,0,5.7,0,8.5c2.8,0,5.5,0.2,8.2-0.1c2.3-0.2,3.7-2.1,3.7-4.4
			c0-2.2-1.3-3.8-3.8-4C199,51.5,196.4,51.6,193.6,51.6z M193.7,41.1c0,2.8,0,5.1,0,7.6c2.7,0,4.8-0.1,7.4-0.1
			c1.8,0,2.7-2.1,2.7-3.9c0-1.8-0.9-3.7-2.7-3.7C198.7,41.1,196.1,41.1,193.7,41.1z"/>
		<path class="st0" d="M147.8,53.6c0,2.5,0,4.7,0,7c0,1.2,0,2.6-1.7,2.5c-1.5,0-1.6-1.3-1.6-2.4c0-6.6,0-13.3,0-19.9
			c0-1.9,0.8-2.6,2.6-2.6c1.9,0.1,3.8-0.1,5.7,0.1c3.7,0.3,6.2,2.3,7.1,5.6c1,3.6-0.1,6.3-3.3,8.5c-0.2,0.1-0.3,0.2-0.7,0.5
			c1.1,1.8,2.3,3.6,3.4,5.4c0.4,0.7,1,1.3,1.2,2c0.2,0.8,0.3,2.1-0.2,2.5c-0.9,0.7-1.8,0.1-2.4-0.9c-1.2-2-2.7-3.9-3.7-6
			c-1-1.9-2.2-2.8-4.3-2.4C149.2,53.7,148.6,53.6,147.8,53.6z M147.9,41.1c0,3.3,0,6.3,0,9.4c1.8,0,3.5,0.2,5.2,0
			c2.2-0.3,3.8-2,3.9-4.1c0.1-2.1-1.3-4.4-3.3-4.8C151.8,41.2,149.9,41.2,147.9,41.1z"/>
		<path class="st0" d="M123.3,41.2c0,2.7,0,5.2,0,8c1.9,0,3.8,0,5.7,0c0.9,0,1.7,0,2.6,0c1.1,0,2.5-0.2,2.4,1.5
			c0,1.5-1.3,1.4-2.3,1.4c-2,0-4.1,0-6.1,0c-0.7,0-1.3,0-2.1,0c0,2.7,0,5.3,0,8.1c3.7,0,7.4,0,11.1,0c1.2,0,3.1-0.5,3.1,1.4
			c0.1,2.2-1.9,1.6-3.1,1.6c-4,0.1-7.9,0-11.9,0c-2.3,0-2.7-0.4-2.7-2.6c0-6.6,0-13.3,0-19.9c0-1.8,0.8-2.5,2.5-2.5
			c4.4,0,8.7,0,13.1,0c1.1,0,2.3,0.1,2.2,1.6c0,1.4-1.2,1.3-2.2,1.3c-3.4,0-6.7,0-10.1,0C124.7,41.2,124,41.2,123.3,41.2z"/>
		<path class="st0" d="M266.9,41.2c0,2.7,0,5.2,0,8c2.3,0,4.6,0,6.9,0c0.7,0,1.3,0,2,0c1,0,2,0.3,1.8,1.5c-0.1,0.6-1.1,1.3-1.7,1.4
			c-2.9,0.1-5.8,0.1-8.9,0.1c0,2.7,0,5.3,0,8.1c3.7,0,7.3,0,10.9,0c0.7,0,1.4-0.2,2,0.1c0.5,0.2,1.3,0.9,1.3,1.3
			c-0.1,0.6-0.8,1.4-1.3,1.5c-1.8,0.2-3.7,0.1-5.5,0.1c-2.8,0-5.7,0-8.5,0c-1.5,0-2.2-0.7-2.2-2.1c0-7,0-13.9,0-20.9
			c0-1.3,0.7-1.9,1.9-1.9c4.6,0,9.3,0,13.9,0c1,0,2,0.3,1.7,1.5c-0.2,0.6-1.1,1.3-1.7,1.3C275.3,41.2,271.3,41.2,266.9,41.2z"/>
		<path class="st0" d="M247.6,37.6c3.3,0.3,5.9,1.5,7.6,4.2c0.1,0.1,0.1,0.2,0.1,0.3c0.4,1.2-1.1,2.3-2.2,1.6
			c-0.1-0.1-0.2-0.2-0.3-0.2c-2.2-2.5-5.5-3.5-8.5-2c-1,0.5-2,1.8-2.3,2.9c-0.4,1.5,0.5,2.9,2,3.5c1.6,0.6,3.3,0.9,5,1.2
			c4.2,0.6,6.9,3,7.2,6.6c0.4,4.1-2.1,7-6.9,7.8c-4,0.6-7.6-0.3-10.3-3.5c-0.5-0.6-0.7-1.4-0.8-2.1c0-0.3,0.7-1,0.9-1.1
			c0.8-0.2,1.6,0.4,2,0.9c2,2.8,4.8,3.3,7.9,2.9c2.5-0.3,4-1.8,4.1-3.8c0.1-2.1-1.2-3.9-3.6-4.6c-1.5-0.4-3.1-0.3-4.4-0.9
			c-1.7-0.7-3.5-1.5-4.7-2.7c-2.8-2.8-1.8-7.1,1.7-9.2C243.7,38.4,243.7,38,247.6,37.6z"/>
		<path class="st0" d="M102.6,58.4c1.9-4.4,3.6-8.3,5.2-12.2c1-2.2,1.8-4.5,2.9-6.7c0.4-0.7,1.5-1.5,2.2-1.4
			c1.4,0.3,0.9,1.5,0.5,2.4c-3,7-6.1,13.9-9.2,20.9c-0.3,0.6-1.1,1.4-1.6,1.3c-0.6,0-1.3-0.8-1.6-1.4c-3.1-6.8-6-13.7-9-20.5
			c-0.4-1-1-2.2,0.4-2.7c1.3-0.6,2,0.4,2.4,1.6C97.3,45.8,99.9,51.8,102.6,58.4z"/>
		<path class="st0" d="M222.6,42.7c-1.3,3.1-2.5,5.9-3.7,8.6c-1.3,3.1-2.7,6.3-4,9.4c-0.2,0.5-0.4,1.2-0.8,1.5
			c-0.5,0.4-1.4,0.7-1.9,0.4c-0.7-0.4-0.6-1-0.6-1.5c0-0.5,0.4-1.1,0.6-1.6c2.9-6.5,5.7-13.1,8.6-19.6c0.3-0.7,0.9-1.7,1.8-1.7
			c0.9,0,1.5,0.9,1.8,1.7c3,6.6,5.9,13.3,8.8,20c0.2,0.4,0.4,0.9,0.4,1.3c0.1,0.9-0.4,1.5-0.8,1.7c-0.5,0.2-1.4-0.2-1.8-0.6
			c-0.4-0.4-0.6-1.1-0.8-1.8c-2.1-5.1-4.3-10.3-6.4-15.4C223.4,44.3,223.1,43.7,222.6,42.7z"/>
		<path class="st0" d="M172.6,41.2c-2.4,0-4.4,0-6.4,0c-1,0-1.9-0.1-1.9-1.4c0-1.2,0.9-1.5,1.9-1.5c5.4,0,10.8-0.1,16.3,0.1
			c0.7,0,1.8,0.8,1.9,1.4c0.3,1.4-0.9,1.5-2,1.5c-2,0-4.1,0-6.3,0c0,0.9-0.1,1.6-0.1,2.3c0,5.6,0,11.2,0,16.8c0,1.3,0.3,3-1.7,2.9
			c-1.9-0.1-1.6-1.7-1.6-3c0-5.5,0-11,0-16.6C172.6,42.8,172.6,42.1,172.6,41.2z"/>
		<g>
			<path class="st0" d="M35.9,24.9c1.2-0.2,2.3-0.5,3.5-0.6c10.9-0.9,21.3,0.9,31.2,5.9c1.4,0.7,1.8,1.5,1.8,3
				c-0.1,11-8.1,21.1-18.7,23.8c-1,0.3-2.1,0.8-2.9,1.5c-2,1.5-4.4,1.5-5.9-0.2c-1.3-1.5-1.2-4.2,0.2-5.5c1.7-1.7,4.1-1.9,5.8,0.1
				c1.2,1.4,2.2,1.2,3.6,0.7c8.4-3.2,13.4-9.1,14.7-18c0.3-1.9-0.3-2.8-2-3.6c-6-2.8-12.3-4.2-18.9-4.8c-4.1-0.4-8.1-0.9-12.2-1.3
				C35.9,25.5,35.9,25.2,35.9,24.9z"/>
			<path class="st0" d="M30.6,65.9c-5.3-6.3-9-13.4-10.8-21.4c-0.9-3.7-1.1-7.6-1.6-11.3c-0.2-1.6,0.5-2.3,1.8-3
				c9.3-4.8,20.9-3,28.4,4.2c0.9,0.9,2.2,1.6,3.5,2.1c2.2,0.9,3.3,2.7,2.8,4.9c-0.4,1.9-2.6,3.4-4.6,3c-2.1-0.4-3.8-2.3-3.2-4.6
				c0.5-2.1-0.4-3-1.7-4.1c-6.8-5.6-14.2-6.4-22.3-3.4c-1.3,0.5-1.8,1.4-1.6,2.8c0.8,6.6,2.4,13,5.4,19c1.8,3.7,3.2,7.6,4.8,11.4
				C31.1,65.6,30.9,65.7,30.6,65.9z"/>
			<path class="st0" d="M68.5,51C64.1,61.9,57,70.6,47.1,77.1c-1.6,1-2.7,0.9-4.2-0.1c-8.8-5.9-12.8-16.4-10.2-26.8
				c0.2-0.9,0.1-2.1-0.1-3c-0.5-2.3,0.6-4.6,2.8-5.2c2.1-0.6,4.3,0.6,4.9,2.8c0.7,2.2-0.5,4.1-2.8,5.1c-0.8,0.3-1.7,1.2-1.9,2
				c-2.2,7.5,1.7,17.9,8.5,22c0.6,0.4,2,0.2,2.7-0.3c5.5-3.8,10.1-8.6,13.9-14c2.2-3.1,4.8-6,7.2-9C68.1,50.6,68.3,50.8,68.5,51z"/>
		</g>
	</g>
</g>
</svg>
