<?xml version="1.0" encoding="utf-8"?>
<!-- Generator: Adobe Illustrator 24.3.0, SVG Export Plug-In . SVG Version: 6.00 Build 0)  -->
<svg version="1.1" id="Layer_1" xmlns="http://www.w3.org/2000/svg" xmlns:xlink="http://www.w3.org/1999/xlink" x="0px" y="0px"
	 viewBox="0 0 512 512" style="enable-background:new 0 0 512 512;" xml:space="preserve">
<style type="text/css">
	.st0{fill:#3D3939;}
</style>
<path class="st0" d="M464,67c-23.9-9.6-55-14.9-87.6-14.9c-32.6,0-63.7,5.3-87.6,14.9c-11.9,4.8-21.4,10.4-28.3,16.8l-4.5,4.2
	l-4.5-4.2c-6.9-6.4-16.4-12.1-28.3-16.8c-23.9-9.6-55-14.9-87.6-14.9S71.9,57.4,48,67c-26.4,10.6-41,25.6-41,42.1v234.9
	c0,16.5,14.5,31.5,41,42.1c20.9,8.4,47.9,13.6,76.3,14.7l5.6,0.2l0.8,5.6c1.9,14,14.4,26.9,35.2,36.5c23.3,10.7,55.3,16.7,90.1,16.7
	c34.9,0,66.9-5.9,90.1-16.7c20.8-9.6,33.3-22.5,35.2-36.5l0.8-5.6l5.6-0.2c28.3-1.1,55.4-6.3,76.3-14.7c26.4-10.6,41-25.6,41-42.1
	V109.2C504.9,92.6,490.4,77.7,464,67z M294.9,82.1c21.7-8.7,51.4-13.7,81.5-13.7c30.1,0,59.8,5,81.5,13.7
	c19.3,7.8,30.8,17.9,30.8,27.1c0,9.2-11.5,19.3-30.8,27.1c-21.7,8.7-51.4,13.8-81.5,13.8c-30.1,0-59.8-5-81.5-13.8
	c-19.3-7.8-30.8-17.9-30.8-27.1C264.1,100,275.6,89.8,294.9,82.1z M264.1,138.5l10,5.8c4.4,2.5,9.3,4.9,14.7,7.1
	c23.9,9.6,55,14.9,87.6,14.9c32.6,0,63.7-5.3,87.6-14.9c5.4-2.2,10.3-4.5,14.7-7.1l10-5.8v29.4c0,9.2-11.5,19.3-30.8,27.1
	c-21.7,8.7-51.4,13.7-81.5,13.7c-30.1,0-59.8-5-81.5-13.7c-19.3-7.8-30.8-17.9-30.8-27.1V138.5z M54.1,82.1
	c21.7-8.7,51.4-13.7,81.5-13.7s59.8,5,81.5,13.7c19.3,7.8,30.8,17.9,30.8,27.1c0,9.2-11.5,19.3-30.8,27.1
	c-21.7,8.7-51.4,13.8-81.5,13.8s-59.8-5-81.5-13.8c-19.3-7.8-30.8-17.9-30.8-27.1C23.3,100,34.8,89.8,54.1,82.1z M23.3,138.5l10,5.8
	c4.4,2.5,9.3,4.9,14.7,7.1c23.9,9.6,55,14.9,87.6,14.9s63.7-5.3,87.6-14.9c5.4-2.2,10.3-4.5,14.7-7.1l10-5.8v29.4
	c0,9.2-11.5,19.3-30.8,27.1c-21.7,8.7-51.4,13.7-81.5,13.7s-59.8-5-81.5-13.7c-19.3-7.8-30.8-17.9-30.8-27.1V138.5z M130.4,385
	l-7-0.3c-26.1-1.2-50.7-5.9-69.3-13.5c-19.3-7.8-30.8-17.9-30.8-27.1v-29.4l10,5.8c4.4,2.5,9.3,4.9,14.7,7.1
	c20.8,8.4,47.8,13.6,76,14.7l6.4,0.2V385z M130.4,326.2l-7-0.3c-26-1.2-50.7-6-69.3-13.5c-19.3-7.8-30.8-17.9-30.8-27.1v-29.4
	l10,5.8c4.4,2.5,9.4,4.9,14.7,7.1c20.8,8.4,47.7,13.6,76,14.7l6.4,0.3V326.2z M138.1,264.9l-2,2.6l-3.3,0
	c-29.1-0.3-57.8-5.3-78.7-13.7c-19.3-7.8-30.8-17.9-30.8-27.1v-29.4l10,5.8c4.4,2.5,9.4,4.9,14.7,7.1c23.9,9.6,55,14.9,87.6,14.9
	s63.7-5.3,87.6-14.9h0c5.3-2.1,10.3-4.5,14.7-7.1l10-5.8v31.2l-6.4,0.3c-23.6,1.2-45.8,5.2-64,11.6
	C159.2,246.8,145.9,255.1,138.1,264.9z M365.4,402.8c0,9.3-11,19.4-29.4,27.1c-21.2,8.8-49.6,13.7-79.9,13.7
	c-30.3,0-58.7-4.9-79.9-13.7c-18.4-7.7-29.4-17.8-29.4-27.1V374l10,5.8c15,8.7,35.4,15.1,59.1,18.5c0,0,0,0,0.1,0
	c12.6,1.8,26,2.8,40.2,2.8c14.1,0,27.6-1,40.2-2.8c0,0,0.1,0,0.1,0c23.6-3.5,44.1-9.9,59.1-18.5l10-5.8V402.8z M365.4,344.1
	c0,15.7-30.5,32-71,38.1c-4.6,0.6-22,2.7-38.4,2.7c-16.4,0-33.7-2.1-38.4-2.7c-40.5-6-71-22.4-71-38.1v-29l10.1,5.9
	c23.6,13.8,58.8,21.4,99.3,21.4s75.7-7.6,99.3-21.4l10.1-5.9V344.1z M335.9,312.5c-21.2,8.8-49.6,13.7-79.9,13.7
	c-30.3,0-58.7-4.9-79.9-13.7c-18.4-7.7-29.4-17.8-29.4-27.1c0-1.8,0.4-3.6,1.2-5.5c7.4-17.1,47.8-35.4,108.2-35.4
	c60.4,0,100.8,18.2,108.2,35.3c0.8,1.9,1.2,3.7,1.2,5.5C365.4,294.7,354.4,304.8,335.9,312.5z M379.2,267.5l-3.3,0l-2-2.6
	c-7.8-9.9-21.1-18.1-39.4-24.6c-18.3-6.4-40.4-10.5-64-11.6l-6.4-0.3v-31.2l10,5.8c4.4,2.5,9.4,4.9,14.7,7.1
	c23.9,9.6,55,14.9,87.6,14.9c32.6,0,63.7-5.3,87.6-14.9c5.3-2.1,10.3-4.5,14.7-7.1l10-5.8v29.4c0,9.2-11.5,19.3-30.8,27.1
	C437,262.2,408.3,267.2,379.2,267.5z M488.7,344.1c0,9.2-11.5,19.3-30.8,27.1c-18.7,7.5-43.3,12.3-69.3,13.5l-7,0.3v-42.5l6.4-0.3
	c28.2-1.1,55.2-6.3,76-14.7c5.4-2.2,10.3-4.5,14.7-7.1l10-5.8V344.1z M488.7,285.4c0,9.2-11.5,19.3-30.8,27.1
	c-18.7,7.5-43.3,12.3-69.3,13.5l-7,0.3v-42.5l6.4-0.3c28.2-1.1,55.2-6.3,76-14.7c5.3-2.1,10.3-4.5,14.7-7.1l10-5.8L488.7,285.4z"/>
</svg>
