<?xml version="1.0" encoding="utf-8"?>
<!-- Generator: Adobe Illustrator 24.3.0, SVG Export Plug-In . SVG Version: 6.00 Build 0)  -->
<svg version="1.1" id="Layer_1" xmlns="http://www.w3.org/2000/svg" xmlns:xlink="http://www.w3.org/1999/xlink" x="0px" y="0px"
	 viewBox="0 0 1024 256" style="enable-background:new 0 0 1024 256;" xml:space="preserve">
<style type="text/css">
	.st0{fill:#C9D3DC;}
	.st1{fill:#CBDBE8;}
	.st2{fill:#DFEBF2;}
	.st3{fill:#99A4AA;}
	.st4{fill:#BB3437;}
	.st5{fill:#FFFFFF;}
	.st6{fill:#FF5B7E;}
	.st7{fill:#ABB8C1;}
	.st8{fill:#961518;}
	.st9{fill:#99A5AA;}
	.st10{fill:#E96848;}
	.st11{fill:#FFBAB9;}
	.st12{fill:#FFA0A0;}
	.st13{fill:#F5887E;}
	.st14{fill:#070200;}
	.st15{fill:#F9B9B9;}
	.st16{opacity:0.7;}
	.st17{fill:none;stroke:#000000;stroke-width:3;stroke-linecap:round;stroke-linejoin:round;stroke-miterlimit:10;}
	.st18{clip-path:url(#SVGID_2_);}
	.st19{fill:#A4AEB2;}
	.st20{fill:#D8AD9C;}
	.st21{fill:#4F8BC6;}
	.st22{fill:#873C3A;}
	.st23{fill:#7F2F2F;}
	.st24{fill:#E9C5B5;}
	.st25{fill:#8B9950;}
	.st26{fill:#4C100D;}
	.st27{opacity:0.45;}
	.st28{fill:#EA4456;}
	.st29{fill:#3D3939;}
	.st30{clip-path:url(#SVGID_4_);}
	.st31{clip-path:url(#SVGID_6_);}
</style>
<g>
	<rect y="0.1" class="st0" width="256" height="255.8"/>
</g>
<g>
	<rect x="768" y="0.1" class="st2" width="256" height="255.8"/>
</g>
<g>
	<path class="st2" d="M256,255.9l0-255.8l127.8,0C454.6,0.1,512,57.3,512,128c0,70.6-57.4,127.9-128.2,127.9L256,255.9z"/>
</g>
<g>
	<g>
		<g>
			<path d="M843.7,95.4h-20.6c-0.6,0-1.1-0.5-1.1-1.1V57c0-0.6,0.5-1.1,1.1-1.1h20.6c0.6,0,1.1,0.5,1.1,1.1v37.3
				C844.7,94.9,844.2,95.4,843.7,95.4z M824.1,93.3h18.5V58.1h-18.5V93.3z"/>
		</g>
		<g>
			<path d="M860.9,95.4c-0.6,0-1.1-0.5-1.1-1.1V57c0-0.6,0.5-1.1,1.1-1.1s1.1,0.5,1.1,1.1v37.3C862,94.9,861.5,95.4,860.9,95.4z"/>
		</g>
	</g>
	<g>
		<g>
			<path d="M897.7,95.4h-20.6c-0.6,0-1.1-0.5-1.1-1.1V57c0-0.6,0.5-1.1,1.1-1.1h20.6c0.6,0,1.1,0.5,1.1,1.1v37.3
				C898.7,94.9,898.3,95.4,897.7,95.4z M878.1,93.3h18.5V58.1h-18.5V93.3z"/>
		</g>
		<g>
			<path d="M914.9,95.4c-0.6,0-1.1-0.5-1.1-1.1V57c0-0.6,0.5-1.1,1.1-1.1c0.6,0,1.1,0.5,1.1,1.1v37.3
				C916,94.9,915.5,95.4,914.9,95.4z"/>
		</g>
	</g>
	<g>
		<g>
			<path d="M951.7,95.4h-20.6c-0.6,0-1.1-0.5-1.1-1.1V57c0-0.6,0.5-1.1,1.1-1.1h20.6c0.6,0,1.1,0.5,1.1,1.1v37.3
				C952.8,94.9,952.3,95.4,951.7,95.4z M932.1,93.3h18.5V58.1h-18.5V93.3z"/>
		</g>
		<g>
			<path d="M968.9,95.4c-0.6,0-1.1-0.5-1.1-1.1V57c0-0.6,0.5-1.1,1.1-1.1s1.1,0.5,1.1,1.1v37.3C970,94.9,969.5,95.4,968.9,95.4z"/>
		</g>
	</g>
	<g>
		<g>
			<path d="M968.9,147.7h-20.6c-0.6,0-1.1-0.5-1.1-1.1v-37.3c0-0.6,0.5-1.1,1.1-1.1h20.6c0.6,0,1.1,0.5,1.1,1.1v37.3
				C970,147.2,969.5,147.7,968.9,147.7z M949.4,145.6h18.5v-35.1h-18.5V145.6z"/>
		</g>
		<g>
			<path d="M931.1,147.7c-0.6,0-1.1-0.5-1.1-1.1v-37.3c0-0.6,0.5-1.1,1.1-1.1s1.1,0.5,1.1,1.1v37.3
				C932.1,147.2,931.7,147.7,931.1,147.7z"/>
		</g>
	</g>
	<g>
		<g>
			<path d="M914.9,147.7h-20.6c-0.6,0-1.1-0.5-1.1-1.1v-37.3c0-0.6,0.5-1.1,1.1-1.1h20.6c0.6,0,1.1,0.5,1.1,1.1v37.3
				C916,147.2,915.5,147.7,914.9,147.7z M895.4,145.6h18.5v-35.1h-18.5V145.6z"/>
		</g>
		<g>
			<path d="M877.1,147.7c-0.6,0-1.1-0.5-1.1-1.1v-37.3c0-0.6,0.5-1.1,1.1-1.1s1.1,0.5,1.1,1.1v37.3
				C878.1,147.2,877.7,147.7,877.1,147.7z"/>
		</g>
	</g>
	<g>
		<g>
			<path d="M860.9,147.7h-20.6c-0.6,0-1.1-0.5-1.1-1.1v-37.3c0-0.6,0.5-1.1,1.1-1.1h20.6c0.6,0,1.1,0.5,1.1,1.1v37.3
				C862,147.2,861.5,147.7,860.9,147.7z M841.4,145.6h18.5v-35.1h-18.5V145.6z"/>
		</g>
		<g>
			<path d="M823.1,147.7c-0.6,0-1.1-0.5-1.1-1.1v-37.3c0-0.6,0.5-1.1,1.1-1.1s1.1,0.5,1.1,1.1v37.3
				C824.1,147.2,823.6,147.7,823.1,147.7z"/>
		</g>
	</g>
	<g>
		<g>
			<path d="M843.7,200h-20.6c-0.6,0-1.1-0.5-1.1-1.1v-37.3c0-0.6,0.5-1.1,1.1-1.1h20.6c0.6,0,1.1,0.5,1.1,1.1v37.3
				C844.7,199.5,844.2,200,843.7,200z M824.1,197.9h18.5v-35.1h-18.5V197.9z"/>
		</g>
		<g>
			<path d="M860.9,200c-0.6,0-1.1-0.5-1.1-1.1v-37.3c0-0.6,0.5-1.1,1.1-1.1s1.1,0.5,1.1,1.1v37.3C862,199.5,861.5,200,860.9,200z"/>
		</g>
	</g>
	<g>
		<g>
			<path d="M897.7,200h-20.6c-0.6,0-1.1-0.5-1.1-1.1v-37.3c0-0.6,0.5-1.1,1.1-1.1h20.6c0.6,0,1.1,0.5,1.1,1.1v37.3
				C898.7,199.5,898.3,200,897.7,200z M878.1,197.9h18.5v-35.1h-18.5V197.9z"/>
		</g>
		<g>
			<path d="M914.9,200c-0.6,0-1.1-0.5-1.1-1.1v-37.3c0-0.6,0.5-1.1,1.1-1.1c0.6,0,1.1,0.5,1.1,1.1v37.3
				C916,199.5,915.5,200,914.9,200z"/>
		</g>
	</g>
	<g>
		<g>
			<path d="M951.7,200h-20.6c-0.6,0-1.1-0.5-1.1-1.1v-37.3c0-0.6,0.5-1.1,1.1-1.1h20.6c0.6,0,1.1,0.5,1.1,1.1v37.3
				C952.8,199.5,952.3,200,951.7,200z M932.1,197.9h18.5v-35.1h-18.5V197.9z"/>
		</g>
		<g>
			<path d="M968.9,200c-0.6,0-1.1-0.5-1.1-1.1v-37.3c0-0.6,0.5-1.1,1.1-1.1s1.1,0.5,1.1,1.1v37.3C970,199.5,969.5,200,968.9,200z"/>
		</g>
	</g>
</g>
<g>
	<ellipse class="st1" cx="640" cy="128" rx="128" ry="127.9"/>
</g>
<g>
	<g>
		<g>
			<path class="st3" d="M658.5,167.6h-11.6v-7.1h11.6v-6.9h-15v-34c12-1.7,21.2-11.9,21.2-24.4c0-13.6-11-24.6-24.6-24.6
				c-13.6,0-24.6,11-24.6,24.6c0,12.4,9.2,22.7,21.2,24.4l0,65.6h6.9v-10.8h15V167.6z M634.8,82.8c0-2.9,2.3-5.2,5.2-5.2
				c2.9,0,5.2,2.3,5.2,5.2s-2.3,5.2-5.2,5.2C637.1,87.9,634.8,85.6,634.8,82.8z"/>
		</g>
	</g>
	<g>
		<g>
			<path d="M643.5,186.3h-6.9c-0.6,0-1.1-0.5-1.1-1.1l0-64.7c-12.1-2.2-21.2-12.9-21.2-25.3c0-14.1,11.5-25.7,25.7-25.7
				c14.2,0,25.7,11.5,25.7,25.7c0,12.4-9,23.1-21.2,25.3v32h13.9c0.6,0,1.1,0.5,1.1,1.1v6.9c0,0.6-0.5,1.1-1.1,1.1H648v5h10.5
				c0.6,0,1.1,0.5,1.1,1.1v6.9c0,0.6-0.5,1.1-1.1,1.1h-13.9v9.7C644.5,185.8,644,186.3,643.5,186.3z M637.6,184.2h4.8v-9.7
				c0-0.6,0.5-1.1,1.1-1.1h13.9v-4.8h-10.5c-0.6,0-1.1-0.5-1.1-1.1v-7.1c0-0.6,0.5-1.1,1.1-1.1h10.5v-4.8h-13.9
				c-0.6,0-1.1-0.5-1.1-1.1v-34c0-0.5,0.4-1,0.9-1.1c11.5-1.6,20.2-11.6,20.2-23.3c0-13-10.6-23.5-23.5-23.5
				c-13,0-23.5,10.6-23.5,23.5c0,11.7,8.7,21.7,20.2,23.3c0.5,0.1,0.9,0.5,0.9,1.1L637.6,184.2z M640,89c-3.4,0-6.2-2.8-6.2-6.2
				s2.8-6.2,6.2-6.2c3.4,0,6.2,2.8,6.2,6.2S643.4,89,640,89z M640,78.7c-2.3,0-4.1,1.8-4.1,4.1s1.8,4.1,4.1,4.1s4.1-1.8,4.1-4.1
				S642.3,78.7,640,78.7z"/>
		</g>
	</g>
</g>
<g>
	<defs>
		<rect id="SVGID_1_" x="125.6" y="-311.6" width="246.9" height="88.4"/>
	</defs>
	<clipPath id="SVGID_2_">
		<use xlink:href="#SVGID_1_"  style="overflow:visible;"/>
	</clipPath>
	<g class="st18">
		<g>
			<polygon class="st19" points="216.4,39.9 253.7,34.8 270.2,-259.8 265.3,-310.7 199.7,-299.5 200.4,-289.3 200.4,-287.5 
				199.3,-249.3 			"/>
		</g>
	</g>
</g>
<g>
	<g>
		<rect x="72.6" y="72.6" class="st2" width="42.7" height="42.6"/>
		<path d="M115.3,116.3H72.6c-0.6,0-1.1-0.5-1.1-1.1V72.6c0-0.6,0.5-1.1,1.1-1.1h42.7c0.6,0,1.1,0.5,1.1,1.1v42.6
			C116.3,115.9,115.9,116.3,115.3,116.3z M73.7,114.2h40.5V73.7H73.7V114.2z"/>
	</g>
	<g>
		<rect x="140.7" y="72.6" class="st2" width="42.7" height="42.6"/>
		<path d="M183.4,116.3h-42.7c-0.6,0-1.1-0.5-1.1-1.1V72.6c0-0.6,0.5-1.1,1.1-1.1h42.7c0.6,0,1.1,0.5,1.1,1.1v42.6
			C184.5,115.9,184,116.3,183.4,116.3z M141.8,114.2h40.5V73.7h-40.5V114.2z"/>
	</g>
	<g>
		<rect x="72.6" y="140.7" class="st2" width="42.7" height="42.6"/>
		<path d="M115.3,184.4H72.6c-0.6,0-1.1-0.5-1.1-1.1v-42.6c0-0.6,0.5-1.1,1.1-1.1h42.7c0.6,0,1.1,0.5,1.1,1.1v42.6
			C116.3,183.9,115.9,184.4,115.3,184.4z M73.7,182.3h40.5v-40.5H73.7V182.3z"/>
	</g>
	<g>
		<rect x="140.7" y="140.7" class="st2" width="42.7" height="42.6"/>
		<path d="M183.4,184.4h-42.7c-0.6,0-1.1-0.5-1.1-1.1v-42.6c0-0.6,0.5-1.1,1.1-1.1h42.7c0.6,0,1.1,0.5,1.1,1.1v42.6
			C184.5,183.9,184,184.4,183.4,184.4z M141.8,182.3h40.5v-40.5h-40.5V182.3z"/>
	</g>
</g>
<g>
	<g>
		<g>
			<g>
				<ellipse class="st4" cx="292.7" cy="43.3" rx="9.9" ry="9.9"/>
			</g>
			<g>
				<path d="M292.7,54.2c-6,0-10.9-4.9-10.9-10.9s4.9-10.9,10.9-10.9s10.9,4.9,10.9,10.9S298.7,54.2,292.7,54.2z M292.7,34.4
					c-4.9,0-8.9,4-8.9,8.9s4,8.9,8.9,8.9s8.9-4,8.9-8.9S297.6,34.4,292.7,34.4z"/>
			</g>
		</g>
	</g>
	<g>
		<g>
			<g>
				<ellipse class="st4" cx="341.8" cy="163.7" rx="9.9" ry="9.9"/>
			</g>
			<g>
				<path d="M341.8,174.6c-6,0-10.9-4.9-10.9-10.9s4.9-10.9,10.9-10.9s10.9,4.9,10.9,10.9S347.8,174.6,341.8,174.6z M341.8,154.8
					c-4.9,0-8.9,4-8.9,8.9s4,8.9,8.9,8.9s8.9-4,8.9-8.9S346.7,154.8,341.8,154.8z"/>
			</g>
		</g>
		<g>
			<rect x="351.5" y="162.8" width="48.6" height="2"/>
		</g>
	</g>
	<g>
		<g>
			<ellipse class="st0" cx="409.7" cy="163.7" rx="9.9" ry="9.9"/>
		</g>
		<g>
			<path d="M409.7,174.6c-3.5,0-7-1.7-9.1-4.8h0c-3.4-5-2-11.8,3-15.1c5-3.3,11.8-2,15.1,3c3.4,5,2,11.8-3,15.1
				C413.9,174,411.8,174.6,409.7,174.6z M402.3,168.7c2.7,4.1,8.3,5.2,12.4,2.4c4.1-2.7,5.2-8.3,2.4-12.4c-2.7-4.1-8.3-5.2-12.4-2.4
				C400.6,159.1,399.5,164.6,402.3,168.7L402.3,168.7z"/>
		</g>
	</g>
	<g>
		<g>
			<g>
				<ellipse class="st0" cx="438.1" cy="204.1" rx="9.9" ry="9.9"/>
			</g>
			<g>
				<path d="M438.1,215c-3.5,0-7-1.7-9.1-4.8h0c-3.4-5-2-11.8,3-15.1c5-3.3,11.8-2,15.1,3c3.4,5,2,11.8-3,15.1
					C442.3,214.4,440.2,215,438.1,215z M430.7,209.1c2.7,4.1,8.3,5.2,12.4,2.4c4.1-2.7,5.2-8.3,2.4-12.4c-2.7-4.1-8.3-5.2-12.4-2.4
					C429.1,199.5,428,205,430.7,209.1L430.7,209.1z"/>
			</g>
		</g>
		<g>
			<rect x="422.3" y="169.3" transform="matrix(0.83 -0.5577 0.5577 0.83 -30.8903 267.3931)" width="2" height="30.1"/>
		</g>
	</g>
	<g>
		<g>
			<g>
				<ellipse class="st0" cx="370.5" cy="204.5" rx="9.9" ry="9.9"/>
			</g>
			<g>
				<path d="M370.5,215.4c-3.5,0-7-1.7-9.1-4.8h0c-3.4-5-2-11.8,3-15.1c2.4-1.6,5.3-2.2,8.2-1.6c2.9,0.6,5.3,2.2,6.9,4.6
					c3.4,5,2,11.8-3,15.1C374.7,214.8,372.6,215.4,370.5,215.4z M363.1,209.4c2.7,4.1,8.3,5.2,12.4,2.4c4.1-2.7,5.2-8.3,2.4-12.4
					c-1.3-2-3.3-3.3-5.7-3.8c-2.3-0.5-4.7,0-6.7,1.3C361.4,199.8,360.3,205.4,363.1,209.4L363.1,209.4z"/>
			</g>
		</g>
		<g>
			<rect x="354.6" y="169.7" transform="matrix(0.83 -0.5577 0.5577 0.83 -42.5829 229.7332)" width="2" height="30.1"/>
		</g>
	</g>
	<g>
		<g>
			<g>
				<ellipse class="st0" cx="296.7" cy="142.6" rx="9.9" ry="9.9"/>
			</g>
			<g>
				<path d="M296.7,153.5c-1.7,0-3.5-0.4-5-1.2c-5.3-2.8-7.4-9.4-4.6-14.7c1.3-2.6,3.6-4.5,6.4-5.3c2.8-0.9,5.7-0.6,8.3,0.7
					c2.6,1.3,4.5,3.6,5.3,6.4c0.9,2.8,0.6,5.7-0.7,8.3c-1.3,2.6-3.6,4.5-6.4,5.3C298.9,153.3,297.8,153.5,296.7,153.5z M296.7,133.6
					c-0.9,0-1.8,0.1-2.7,0.4c-2.3,0.7-4.1,2.3-5.2,4.4c-2.3,4.4-0.6,9.7,3.8,12c2.1,1.1,4.5,1.3,6.8,0.6c2.3-0.7,4.1-2.3,5.2-4.4
					c1.1-2.1,1.3-4.5,0.6-6.8c-0.7-2.3-2.3-4.1-4.4-5.2l0,0C299.5,134,298.1,133.6,296.7,133.6z"/>
			</g>
		</g>
		<g>
			<rect x="318.2" y="137.8" transform="matrix(0.4632 -0.8862 0.8862 0.4632 35.8807 364.9009)" width="2" height="30.1"/>
		</g>
	</g>
	<g>
		<g>
			<g>
				<ellipse class="st4" cx="387.9" cy="109.4" rx="9.9" ry="9.9"/>
			</g>
			<g>
				<path d="M387.9,120.2c-1.6,0-3.2-0.3-4.7-1.1c-2.6-1.3-4.6-3.5-5.6-6.2c-1-2.7-0.8-5.7,0.4-8.3c1.3-2.6,3.5-4.6,6.2-5.6
					c2.7-1,5.7-0.8,8.3,0.4c5.4,2.6,7.7,9.1,5.1,14.5C395.8,118,391.9,120.2,387.9,120.2z M387.9,100.4c-1,0-2,0.2-3,0.5
					c-2.2,0.8-4.1,2.4-5.1,4.6c-1,2.1-1.2,4.6-0.4,6.8c0.8,2.2,2.4,4,4.6,5.1c4.4,2.1,9.8,0.2,11.9-4.2c2.1-4.4,0.2-9.8-4.2-11.9
					C390.5,100.7,389.2,100.4,387.9,100.4z"/>
			</g>
		</g>
		<g>
			<rect x="364.1" y="84.8" transform="matrix(0.4314 -0.9022 0.9022 0.4314 117.4626 386.1548)" width="2" height="30.1"/>
		</g>
	</g>
	<g>
		<g>
			<g>
				
					<ellipse transform="matrix(0.9598 -0.2808 0.2808 0.9598 -0.5767 108.5101)" class="st0" cx="378.4" cy="56.3" rx="9.9" ry="9.9"/>
			</g>
			<g>
				<path d="M386.5,49c4,4.5,3.6,11.4-0.8,15.4c-2.2,1.9-5,2.9-7.9,2.8c-2.9-0.2-5.6-1.4-7.5-3.6s-2.9-5-2.8-7.9s1.4-5.6,3.6-7.5
					c1.2-1.1,2.7-1.9,4.2-2.3C379.2,44.7,383.6,45.8,386.5,49z M384.4,62.9c3.7-3.3,4-8.9,0.7-12.6c-3.3-3.7-8.9-4-12.6-0.7
					c-1.8,1.6-2.8,3.8-3,6.2c-0.1,2.4,0.7,4.7,2.3,6.4c1.6,1.8,3.8,2.8,6.2,2.9c1,0.1,2-0.1,3-0.3C382.2,64.5,383.4,63.8,384.4,62.9
					z"/>
			</g>
		</g>
		<g>
			<rect x="344.1" y="70.8" transform="matrix(0.7448 -0.6673 0.6673 0.7448 43.7843 257.9906)" width="30.1" height="2"/>
		</g>
	</g>
	<g>
		<g>
			<g>
				<ellipse class="st4" cx="341.8" cy="90.5" rx="9.9" ry="9.9"/>
			</g>
			<g>
				<path d="M341.8,101.4c-2.9,0-5.6-1.1-7.7-3.2c-4.3-4.2-4.3-11.2,0-15.4c2.1-2.1,4.8-3.2,7.7-3.2c2.9,0,5.6,1.1,7.7,3.2l0,0l0,0
					c2.1,2.1,3.2,4.8,3.2,7.7s-1.1,5.6-3.2,7.7C347.5,100.3,344.7,101.4,341.8,101.4z M341.8,81.6c-2.4,0-4.6,0.9-6.3,2.6
					c-3.5,3.5-3.5,9.1,0,12.6c1.7,1.7,3.9,2.6,6.3,2.6c2.4,0,4.6-0.9,6.3-2.6c1.7-1.7,2.6-3.9,2.6-6.3c0-2.4-0.9-4.6-2.6-6.3l0,0
					C346.5,82.5,344.2,81.6,341.8,81.6z"/>
			</g>
		</g>
		<g>
			<rect x="316.6" y="42" transform="matrix(0.7068 -0.7074 0.7074 0.7068 46.1975 244.1291)" width="2" height="48.6"/>
		</g>
	</g>
	<g>
		<g>
			<rect x="292.8" y="187.1" transform="matrix(0.7068 -0.7074 0.7074 0.7068 -40.0199 279.7132)" width="49.2" height="2"/>
		</g>
	</g>
	<g>
		<g>
			<g>
				<ellipse class="st4" cx="292.7" cy="212.7" rx="9.9" ry="9.9"/>
			</g>
			<g>
				<path d="M292.7,223.6c-6,0-10.9-4.9-10.9-10.9s4.9-10.9,10.9-10.9s10.9,4.9,10.9,10.9S298.7,223.6,292.7,223.6z M292.7,203.8
					c-4.9,0-8.9,4-8.9,8.9s4,8.9,8.9,8.9s8.9-4,8.9-8.9S297.6,203.8,292.7,203.8z"/>
			</g>
		</g>
	</g>
	<g>
		<g>
			<rect x="393" y="89.2" transform="matrix(0.8466 -0.5322 0.5322 0.8466 16.0231 236.0702)" width="49.2" height="2"/>
		</g>
	</g>
	<g>
		<g>
			<rect x="418.6" y="97.7" transform="matrix(0.3811 -0.9245 0.9245 0.3811 146.5495 463.6239)" width="2" height="49.2"/>
		</g>
	</g>
	<g>
		<g>
			<g>
				
					<ellipse transform="matrix(0.2227 -0.9749 0.9749 0.2227 277.5215 491.7252)" class="st4" cx="447.1" cy="71.8" rx="9.9" ry="9.9"/>
			</g>
			<g>
				<path d="M449.6,61.2c5.9,1.3,9.5,7.2,8.2,13c-1.3,5.9-7.2,9.5-13.1,8.2c-5.9-1.3-9.5-7.2-8.2-13S443.7,59.9,449.6,61.2z
					 M445.1,80.5c4.8,1.1,9.6-1.9,10.7-6.7c1.1-4.8-1.9-9.6-6.7-10.7c-4.8-1.1-9.6,1.9-10.7,6.7C437.3,74.6,440.4,79.4,445.1,80.5z"
					/>
			</g>
		</g>
	</g>
	<g>
		<rect x="340.8" y="100.4" width="2" height="53.4"/>
	</g>
	<g>
		<g>
			<g>
				<ellipse class="st0" cx="449.3" cy="134.4" rx="9.9" ry="9.9"/>
			</g>
			<g>
				<path d="M449.3,145.3c-0.7,0-1.4-0.1-2.1-0.2c-2.9-0.6-5.3-2.2-6.9-4.6c-3.4-5-2-11.8,3-15.1c5-3.3,11.8-2,15.1,3
					c3.4,5,2,11.8-3,15.1l0,0C453.5,144.7,451.5,145.3,449.3,145.3z M449.3,125.5c-1.7,0-3.4,0.5-5,1.5c-4.1,2.7-5.2,8.3-2.4,12.4
					c1.3,2,3.3,3.3,5.7,3.8c2.3,0.5,4.7,0,6.7-1.3l0,0c4.1-2.7,5.2-8.3,2.4-12.4C455,126.9,452.1,125.5,449.3,125.5z"/>
			</g>
		</g>
	</g>
</g>
</svg>
