<?xml version="1.0" encoding="utf-8"?>
<!-- Generator: Adobe Illustrator 24.1.0, SVG Export Plug-In . SVG Version: 6.00 Build 0)  -->
<svg version="1.1" id="Ebene_1" xmlns="http://www.w3.org/2000/svg" xmlns:xlink="http://www.w3.org/1999/xlink" x="0px" y="0px"
	 width="300px" height="100px" viewBox="0 0 300 100" style="enable-background:new 0 0 300 100;" xml:space="preserve">
<style type="text/css">
	.st0{fill:#3d3939;}
</style>
<g id="KCVXCE.tif">
	<g>
		<path class="st0" d="M297.7,36.7c-5.3,0-10.7,0-16,0c-0.2,0-0.3,0-0.5,0c-0.9,0-0.9,0-0.9,0.9c0,4,0,8,0,11.9
			c0,0.6,0.1,0.7,0.7,0.7c4.8,0,9.6,0,14.4,0c0.2,0,0.5,0,0.7,0c0,0.2,0,0.3,0.1,0.4c0,0.8,0,0.8-0.8,0.8c-4.7,0-9.5,0-14.2,0
			c-0.3,0-0.5,0-0.8,0c0,0.3,0,0.5,0,0.7c0,4.3,0,8.6,0,12.9c0,0.6,0.1,0.8,0.7,0.8c5.3,0,10.6,0,16,0c0.2,0,0.5,0,0.7,0
			c0,0.4,0,0.8,0,1.2c-0.2,0-0.4,0-0.6,0c-5.7,0-11.5,0-17.2,0c-0.6,0-0.8-0.2-0.8-0.8c0-9.9,0-19.9,0-29.8c0-0.8,0-0.8,0.9-0.8
			c5.7,0,11.3,0,17,0c0.2,0,0.5,0,0.7,0C297.7,35.9,297.7,36.3,297.7,36.7z"/>
		<path class="st0" d="M18.9,67.6c-9.2,0-16.6-7.5-16.6-16.7c0-9.1,7.5-16.5,16.7-16.5c9.2,0,16.6,7.5,16.6,16.7
			C35.6,60.2,28.1,67.6,18.9,67.6z M19,44.2c1,0,2-0.3,2.9-1c1.1-0.9,1.1-2.2,0-3.1c-1.6-1.4-4.6-1.3-6.1,0c-1,0.9-1,2.2,0,3.1
			C16.7,43.9,17.7,44.2,19,44.2z M24.7,44.2c0,1.2,0.9,2.1,2.1,2.2c1.2,0,2.2-0.9,2.2-2.1c0-1.1-0.9-2.1-2.1-2.1
			C25.7,42,24.7,43,24.7,44.2z"/>
		<path class="st0" d="M92.6,46.3c-1,3.9-1.9,7.9-2.9,11.8c-0.7,2.8-1.4,5.5-2,8.3C87.6,66.9,87.4,67,87,67c-1.8,0-3.6,0-5.4,0
			c-0.4,0-0.6-0.1-0.6-0.5c-0.3-1.6-0.7-3.2-1.1-4.7c-0.7-3.3-1.4-6.5-2.2-9.8c-0.7-3.3-1.5-6.6-2.2-9.9c-0.4-1.9-0.9-3.8-1.3-5.8
			c0-0.2-0.1-0.4-0.1-0.7c0.3,0,0.4,0,0.6,0c1.7,0,3.4,0,5.1,0c0.5,0,0.7,0.2,0.8,0.6c0.6,3.2,1.2,6.3,1.8,9.5
			c0.5,2.6,1,5.2,1.5,7.8c0.2,1,0.4,2.1,0.6,3.1c0.1,0.3,0.2,0.6,0.3,0.9c0.2-1,0.5-2,0.7-3c1.2-5.2,2.5-10.5,3.7-15.7
			c0.2-0.9,0.4-1.7,0.6-2.6c0.1-0.4,0.3-0.7,0.8-0.6c1.4,0,2.9,0,4.3,0c0.4,0,0.6,0.1,0.7,0.5c0.9,3.9,1.8,7.8,2.7,11.7
			c0.7,2.8,1.3,5.6,2,8.5c0.1,0.4,0.2,0.8,0.3,1.2c0,0,0.1,0,0.1,0c0.2-0.9,0.4-1.9,0.6-2.8c0.5-2.6,1-5.2,1.5-7.8
			c0.6-3.2,1.2-6.3,1.8-9.5c0-0.2,0.1-0.4,0.1-0.6c0.2-1.4,0.1-1.2,1.4-1.2c1.5,0,3.1,0,4.6,0c0.5,0,0.6,0.2,0.5,0.6
			c-0.4,1.9-0.8,3.8-1.3,5.7c-0.6,2.7-1.2,5.4-1.8,8.1c-0.5,2.1-1,4.3-1.4,6.4c-0.7,3.3-1.5,6.6-2.2,9.9c-0.2,0.8-0.2,0.8-1,0.8
			c-1.7,0-3.4,0-5,0c-0.5,0-0.7-0.2-0.9-0.7c-1-4.1-2-8.3-3-12.4c-0.6-2.3-1.1-4.6-1.7-7c0-0.2-0.1-0.4-0.2-0.6
			C92.7,46.3,92.6,46.3,92.6,46.3z"/>
		<path class="st0" d="M68.4,44.8c-0.9,0-1.8,0-2.7,0c-0.3,0-0.5,0-0.5-0.4c-0.1-2.5-1.9-3.8-4-4.1c-1.6-0.2-3.2-0.1-4.6,0.8
			c-2,1.3-2.1,3.9-0.1,5.2c1.7,1.1,3.6,1.6,5.4,2.3c2.5,0.8,4.9,1.8,6.9,3.5c2.1,1.8,3,4,2.9,6.7c-0.1,3.7-2,6.3-5.8,7.6
			c-4.4,1.5-8.7,1.3-12.9-0.7c-2.8-1.3-4.7-3.5-5.4-6.6c-0.1-0.5-0.2-1-0.2-1.5c0-0.4,0.1-0.6,0.6-0.6c1.8,0,3.6,0,5.4,0
			c0.3,0,0.5,0,0.6,0.4c0.2,3.1,2,4.4,4.7,4.7c1.3,0.2,2.7,0.2,4-0.3c1.3-0.5,2.2-1.2,2.3-2.6c0.2-1.6-0.3-2.9-1.8-3.6
			c-1.2-0.6-2.5-1.1-3.8-1.6c-2.3-0.8-4.6-1.5-6.6-2.8c-2.7-1.7-4.4-3.9-4.5-7.2c0-2.9,1.3-5.2,3.7-6.7c2.8-1.8,5.9-2.2,9.1-2
			c2.8,0.2,5.3,1,7.4,2.9c1.9,1.7,2.8,3.8,3,6.3c0,0.4-0.1,0.5-0.5,0.5C70.2,44.8,69.3,44.8,68.4,44.8z"/>
		<path class="st0" d="M140.9,66.9c-0.2,0-0.4,0-0.5,0c-2,0-3.9,0-5.9,0c-0.4,0-0.5-0.1-0.6-0.4c-0.6-1.8-1.2-3.5-1.8-5.3
			c-0.2-0.6-0.4-0.7-1-0.7c-3.4,0-6.7,0-10.1,0c-0.5,0-0.6,0.1-0.8,0.6c-0.6,1.8-1.2,3.5-1.7,5.3c-0.2,0.5-0.4,0.7-0.9,0.6
			c-1.9,0-3.8,0-5.7,0c-0.1,0-0.3,0-0.5,0c0.1-0.3,0.1-0.5,0.2-0.7c3.7-10,7.5-19.9,11.2-29.9c0.2-0.6,0.5-0.8,1.2-0.8
			c1.5,0.1,3,0,4.6,0c0.5,0,0.7,0.1,0.9,0.6c3.8,10.1,7.6,20.1,11.4,30.2C140.8,66.5,140.8,66.6,140.9,66.9z M126.2,43.8
			c-0.1,0-0.1,0-0.2,0c-1.3,3.8-2.5,7.5-3.8,11.4c2.6,0,5.2,0,7.8,0C128.7,51.3,127.4,47.5,126.2,43.8z"/>
		<path class="st0" d="M143.9,66.9c0-0.3,0-0.5,0-0.6c0-10,0-20,0-30c0-0.8,0-0.8,0.8-0.8c4,0,8,0,12,0c2.3,0,4.6,0.5,6.6,1.7
			c3.4,2,4.9,5,4.8,8.9c0,2.7-1,5.1-3,6.9c-1.7,1.5-3.7,2.4-6,2.6c-2.6,0.2-5.2,0.2-7.9,0.3c-0.9,0-0.9,0-0.9,0.9c0,3.1,0,6.3,0,9.4
			c0,0.8,0,0.8-0.8,0.8c-1.7,0-3.4,0-5.1,0C144.3,66.9,144.1,66.9,143.9,66.9z M150.4,45.6c0,1.5,0,2.9,0,4.4c0,0.3,0,0.6,0.5,0.5
			c2.1,0,4.1,0,6.2,0c2.5-0.1,4.1-1.5,4.4-4c0.3-2.8-1.1-5.5-4.4-5.7c-2.1-0.1-4.1-0.1-6.2-0.1c-0.4,0-0.5,0.2-0.5,0.6
			C150.4,42.8,150.4,44.2,150.4,45.6z"/>
		<path class="st0" d="M192.7,44.3c-0.1-1.5-0.4-2.8-1.2-4.1c-1.7-2.5-4-3.7-6.9-3.9c-2.2-0.2-4.3,0-6.4,0.9c-1.8,0.8-3.3,2-3.9,4
			c-0.7,2.1,0.1,4.5,1.8,5.9c1.5,1.2,3.4,1.9,5.2,2.5c2.2,0.7,4.4,1.3,6.6,2c1.7,0.6,3.2,1.4,4.5,2.8c2.6,2.8,2.5,7.5-0.3,10.1
			c-1.8,1.6-3.9,2.4-6.3,2.7c-2.3,0.3-4.5,0.2-6.8-0.4c-2.8-0.8-5.2-2.2-6.3-4.9c-0.4-1-0.5-2.1-0.8-3.2c-0.1-0.3,0-0.6,0.4-0.6
			c0.4,0,0.8-0.1,0.8,0.6c0,1.6,0.5,3,1.6,4.2c1.3,1.6,3.1,2.5,5.1,2.9c2.7,0.6,5.4,0.7,8-0.2c2-0.7,3.8-1.7,4.7-3.8
			c1.1-2.4,0.4-5.5-1.7-7.1c-1.7-1.3-3.6-2-5.6-2.6c-2.4-0.8-4.9-1.5-7.3-2.4c-1.9-0.7-3.6-1.9-4.5-3.9c-1.2-2.7-0.7-6.2,1.9-8.2
			c2-1.6,4.3-2.2,6.8-2.4c2.2-0.1,4.3,0.1,6.3,1c3.2,1.5,5,4,5.4,7.5C193.9,44.4,193.8,44.5,192.7,44.3z"/>
		<path class="st0" d="M245.4,66.9c-0.4,0-0.7,0.1-1,0c-0.2,0-0.4-0.3-0.4-0.5c-1.1-2.8-2.1-5.6-3.2-8.4c-0.1-0.4-0.3-0.5-0.7-0.5
			c-4.8,0-9.6,0-14.4,0c-0.4,0-0.6,0.2-0.7,0.5c-1,2.7-2,5.3-3,8c-0.4,1-0.4,1-1.6,0.8c0.1-0.3,0.2-0.7,0.3-1
			c3.7-9.9,7.5-19.9,11.2-29.8c0.2-0.6,0.6-0.6,1-0.6c0.5,0,0.7,0.1,0.9,0.6c3.1,8.3,6.3,16.7,9.4,25c0.7,1.8,1.3,3.6,2,5.4
			C245.4,66.5,245.4,66.7,245.4,66.9z M240.2,56.3c-2.4-6.4-4.8-12.8-7.2-19.1c-0.1,0-0.1,0-0.2,0c-2.4,6.3-4.8,12.7-7.2,19.1
			C230.6,56.3,235.3,56.3,240.2,56.3z"/>
		<path class="st0" d="M201.6,66.9c-0.4,0-0.8,0-1.2,0c0-0.2,0-0.4,0-0.5c0-10.1,0-20.1,0-30.2c0-0.5,0.1-0.6,0.6-0.6
			c3,0,6.1,0,9.1,0c2,0,3.9,0.3,5.7,1.1c2.9,1.4,4.3,3.8,4.6,6.9c0.1,1.7,0,3.4-0.7,5c-1,2.4-2.9,3.7-5.3,4.5
			c-1.4,0.4-2.8,0.5-4.2,0.5c-2.6,0-5.3,0-7.9,0c-0.2,0-0.4,0-0.7,0C201.6,58.1,201.6,62.4,201.6,66.9z M201.6,52.5
			c0.3,0,0.5,0,0.7,0c2.5,0,5,0,7.5,0c1.3,0,2.6-0.1,3.8-0.4c2.3-0.5,4.1-1.8,5.1-4.1c0.6-1.5,0.7-3.1,0.5-4.6c-0.3-2-1.1-3.7-2.8-5
			c-1.6-1.1-3.4-1.6-5.3-1.6c-3.1-0.1-6.2,0-9.2-0.1c-0.1,0-0.1,0-0.2,0.1C201.6,42,201.6,47.2,201.6,52.5z"/>
		<path class="st0" d="M271.7,45.1c-0.2,0-0.4,0-0.6,0c-0.4,0-0.5-0.1-0.6-0.5c-0.3-2.1-0.9-4-2.4-5.5c-1.7-1.8-3.9-2.6-6.3-2.7
			c-1.5-0.1-3-0.1-4.5,0.5c-2.5,0.9-4.2,2.6-5.4,4.9c-1.1,2-1.5,4.3-1.5,6.5c0,2-0.1,4.1,0,6.1c0.1,3,0.8,5.9,2.8,8.3
			c1.7,2.1,3.9,3.2,6.6,3.5c1.8,0.2,3.5,0,5.2-0.6c2.8-1,4.4-3,5.2-5.8c0.2-0.6,0.3-1.3,0.4-1.9c0.1-0.6,0.6-0.4,0.9-0.4
			c0.1,0,0.3,0.3,0.3,0.5c-0.4,3.3-1.7,6.1-4.6,8c-2,1.2-4.1,1.6-6.4,1.6c-3.6,0-6.6-1.3-8.8-4.2c-1.3-1.8-2.2-3.7-2.5-5.9
			c-0.6-3.5-0.5-7-0.2-10.5c0.2-2.6,1-5,2.5-7.2c2-2.8,4.7-4.2,8.1-4.4c2.2-0.1,4.3,0.1,6.3,1.1c3.1,1.5,4.9,4.1,5.5,7.5
			c0.1,0.4,0.1,0.8,0.2,1.3C271.8,45,271.7,45,271.7,45.1z"/>
	</g>
</g>
</svg>
