<?xml version="1.0" encoding="UTF-8" standalone="no"?>
<svg
   viewBox="0 0 1000 1000"
   version="1.1"
   id="svg760"
   sodipodi:docname="telegram.svg"
   inkscape:version="1.2.2 (b0a8486541, 2022-12-01)"
   xmlns:inkscape="http://www.inkscape.org/namespaces/inkscape"
   xmlns:sodipodi="http://sodipodi.sourceforge.net/DTD/sodipodi-0.dtd"
   xmlns="http://www.w3.org/2000/svg"
   xmlns:svg="http://www.w3.org/2000/svg">
  <defs
     id="defs764" />
  <sodipodi:namedview
     id="namedview762"
     pagecolor="#ffffff"
     bordercolor="#666666"
     borderopacity="1.0"
     inkscape:showpageshadow="2"
     inkscape:pageopacity="0.0"
     inkscape:pagecheckerboard="0"
     inkscape:deskcolor="#d1d1d1"
     showgrid="false"
     inkscape:zoom="0.779"
     inkscape:cx="500"
     inkscape:cy="499.35815"
     inkscape:window-width="1920"
     inkscape:window-height="959"
     inkscape:window-x="0"
     inkscape:window-y="48"
     inkscape:window-maximized="1"
     inkscape:current-layer="svg760" />
  <path
     d="M500 12q-133 0-247 67-110 64-174 174-67 114-67 247 0 133 67 247 64 110 174 174 114 67 247 67 133 0 247-67 110-64 174-174 67-114 67-247 0-133-67-247-64-110-174-174-114-67-247-67z m226 332q-5 52-24 172-15 94-31 179-9 48-33 50-15 1-31-7-10-4-30-18l-17-12q-20-13-52-35-35-24-57-38-20-13-23.5-24-3.5-11 3.5-22 5-7 20-22l29-27q115-106 117-114 0-7-3-9.5-3-2.5-10.5-0.5-7.5 2-205.5 136-29 20-53 19.5-24-0.5-76-17.5l-8-3q-25-8-33-12-13-7-12-17 3-14 37-27 194-85 284-123 101-42 135-54 34-12 48-13 12 0 19 6 5 5 7 12.5 2 7.5 0 20.5z"
     id="path758"
     style="fill:#8c939a;fill-opacity:1" />
</svg>
