<?xml version="1.0" encoding="UTF-8" standalone="no"?>
<svg
   viewBox="0 0 1000 1000"
   version="1.1"
   id="svg885"
   sodipodi:docname="twitter.svg"
   inkscape:version="1.2.2 (b0a8486541, 2022-12-01)"
   xmlns:inkscape="http://www.inkscape.org/namespaces/inkscape"
   xmlns:sodipodi="http://sodipodi.sourceforge.net/DTD/sodipodi-0.dtd"
   xmlns="http://www.w3.org/2000/svg"
   xmlns:svg="http://www.w3.org/2000/svg">
  <defs
     id="defs889" />
  <sodipodi:namedview
     id="namedview887"
     pagecolor="#ffffff"
     bordercolor="#666666"
     borderopacity="1.0"
     inkscape:showpageshadow="2"
     inkscape:pageopacity="0.0"
     inkscape:pagecheckerboard="0"
     inkscape:deskcolor="#d1d1d1"
     showgrid="false"
     inkscape:zoom="0.779"
     inkscape:cx="500"
     inkscape:cy="499.35815"
     inkscape:window-width="1920"
     inkscape:window-height="959"
     inkscape:window-x="0"
     inkscape:window-y="48"
     inkscape:window-maximized="1"
     inkscape:current-layer="svg885" />
  <path
     d="M500 12q-133 0-247 67-110 64-174 174-67 114-67 247 0 133 67 247 64 110 174 174 114 67 247 67 133 0 247-67 110-64 174-174 67-114 67-247 0-133-67-247-64-110-174-174-114-67-247-67z m229 390q1 5 1 15 0 81-39 156-41 80-114 128-80 52-184 52l0 0q-98 0-181-52 10 1 28 1 40 0 78-12.5 38-12.5 69-37.5-38-1-68.5-23.5-30.5-22.5-41.5-59.5 24 6 53-1-41-9-68-41.5-27-32.5-27-74.5l0-2q26 13 54 15-39-26-49.5-71.5-10.5-45.5 12.5-86.5 45 55 109 87.5 64 32.5 135 36.5-3-14-3-27 0-32 16-59.5 16-27.5 43-43.5 27-16 59-16 25 0 47 10 22 10 39 28 39-7 75-29-6 20-19.5 37.5-13.5 17.5-32.5 28.5 38-5 68-19-23 34-59 61z"
     id="path883"
     style="fill:#8c939a;fill-opacity:1" />
</svg>
