<?xml version="1.0" encoding="UTF-8" standalone="no"?>
<svg
   viewBox="0 0 1000 1000"
   version="1.1"
   id="svg1260"
   sodipodi:docname="youtube.svg"
   inkscape:version="1.2.2 (b0a8486541, 2022-12-01)"
   xmlns:inkscape="http://www.inkscape.org/namespaces/inkscape"
   xmlns:sodipodi="http://sodipodi.sourceforge.net/DTD/sodipodi-0.dtd"
   xmlns="http://www.w3.org/2000/svg"
   xmlns:svg="http://www.w3.org/2000/svg">
  <defs
     id="defs1264" />
  <sodipodi:namedview
     id="namedview1262"
     pagecolor="#ffffff"
     bordercolor="#666666"
     borderopacity="1.0"
     inkscape:showpageshadow="2"
     inkscape:pageopacity="0.0"
     inkscape:pagecheckerboard="0"
     inkscape:deskcolor="#d1d1d1"
     showgrid="false"
     inkscape:zoom="0.779"
     inkscape:cx="500"
     inkscape:cy="499.35815"
     inkscape:window-width="1920"
     inkscape:window-height="959"
     inkscape:window-x="0"
     inkscape:window-y="48"
     inkscape:window-maximized="1"
     inkscape:current-layer="svg1260" />
  <path
     d="M503 16q-133 0-247 67-110 64-175 174-67 114-67 247 0 133 67 247 65 110 175 174 114 67 247 67 133 0 247-67 110-64 174-174 67-114 67-247 0-133-67-247-64-110-175-174-114-67-246-67z m296 569q-2 40-7 59-9 32-30 48-19 15-51 17-43 3-129 5l-78 0q-129 0-193-4-39-2-59.5-13-20.5-11-29.5-30-13-31-15-70-6-79-2-149l0-10q2-46 8-69 2-12 10-29 15-29 54-38 19-4 59-4 118-5 202-4 104 2 156 5 29 0 47 6 34 13 45 42 10 25 13 63 6 87 0 175z m-359-185q0 0 0 0l0 191q116-64 175-96l-1 0 1 0-175-95z"
     id="path1258"
     style="fill:#8c939a;fill-opacity:1" />
</svg>
