<?xml version="1.0" encoding="UTF-8"?>
<svg width="247px" height="67px" viewBox="0 0 247 67" version="1.1" xmlns="http://www.w3.org/2000/svg" xmlns:xlink="http://www.w3.org/1999/xlink">
    <title>Group 2</title>
    <g id="Page-1" stroke="none" stroke-width="1" fill="none" fill-rule="evenodd">
        <g id="Group-2">
            <g id="grayscale_-2" transform="translate(58.000000, 7.000000)" fill-rule="nonzero">
                <g id="grayscale_" transform="translate(0.000000, 0.447368)">
                    <g id="Group">
                        <path d="M0.625263158,36.4693333 L9.10105263,36.5386667 C9.10105263,38.272 9.58736842,39.6586667 10.6294737,40.8373333 C12.1578947,42.5706667 14.5894737,43.4026667 17.9936842,43.4026667 C20.5642105,43.4026667 22.5789474,43.056 23.9684211,42.3626667 C25.8442105,41.4613333 26.8168421,40.0053333 26.8168421,37.9946667 C26.8168421,36.816 26.4,35.9146667 25.5663158,35.152 C24.7326316,34.3893333 22.5789474,33.6266667 19.1747368,32.7253333 C16.5347368,32.032 13.8252632,31.3386667 11.1852632,30.576 C8.47578947,29.8826667 6.53052632,29.0506667 5.28,28.08 C3.96,27.1093333 2.98736842,25.792 2.36210526,24.0586667 C1.73684211,22.3253333 1.38947368,20.7306667 1.38947368,19.136 C1.38947368,15.9466667 2.43157895,13.1733333 4.37684211,10.9546667 C7.15578947,7.83466667 11.6021053,6.24 17.6463158,6.30933333 C23.4126316,6.37866667 27.72,7.97333333 30.6378947,11.3013333 C32.8610526,13.7973333 33.9726316,16.7786667 33.9726316,20.1066667 L25.5663158,20.0373333 C25.3578947,18.3733333 24.8715789,17.056 24.1073684,16.1546667 C22.7178947,14.4906667 20.3557895,13.5893333 17.0210526,13.5893333 C15.0757895,13.5893333 13.4084211,13.936 12.0884211,14.6293333 C10.4210526,15.5306667 9.65684211,16.848 9.58736842,18.5813333 C9.58736842,20.0373333 10.0736842,21.1466667 11.1157895,21.9093333 C11.6715789,22.3253333 12.6442105,22.7413333 14.0336842,23.0186667 L24.3157895,25.584 C27.7894737,26.4853333 30.36,27.664 31.9578947,28.9813333 C34.1810526,30.8533333 35.2926316,33.488 35.2926316,36.9546667 C35.2231579,42.432 32.9305263,46.3146667 28.2757895,48.5333333 C25.4273684,49.92 22.1621053,50.6133333 18.5494737,50.6133333 C11.7410526,50.544 6.80842105,48.88 3.82105263,45.4826667 C1.66736842,43.1253333 0.555789474,40.0746667 0.625263158,36.4693333 Z" id="Path" fill="#1E1E1C"></path>
                        <circle id="Oval" fill="#B2B2B2" transform="translate(79.634148, 28.070356) rotate(-45.000000) translate(-79.634148, -28.070356) " cx="79.634148" cy="28.0703557" r="16.5872882"></circle>
                        <polygon id="Path" fill="#1E1E1C" points="88.6484211 7.696 77.2547368 49.7813333 68.2926316 49.7813333 61.0673684 23.2266667 53.9115789 49.7813333 44.9494737 49.7813333 33.5557895 7.696 42.0315789 7.696 49.3957895 33.9733333 56.8294737 7.696 65.3747368 7.696 72.8084211 33.9733333 80.1726316 7.696"></polygon>
                        <path d="M96.2210526,28.0106667 C96.2210526,30.368 95.7347368,32.656 94.8315789,34.6666667 L81.84,34.6666667 L91.7052632,16.7093333 C94.4842105,19.6906667 96.2210526,23.6426667 96.2210526,28.0106667 Z" id="Path" fill="#706F6F"></path>
                        <g id="Path-2" transform="translate(91.080000, 0.485333)" fill="#575756">
                            <path d="M27.4421053,34.1813333 C27.3031579,34.1813333 27.2336842,34.1813333 27.0947368,34.1813333 L3.75157895,34.1813333 C4.65473684,32.1013333 5.21052632,29.8826667 5.21052632,27.456 C5.21052632,23.088 3.40421053,19.2053333 0.625263158,16.224 L9.58736842,-4.92642963e-15 L13.3389474,7.072 L17.16,14.352 L23.6905263,26.832 L27.4421053,34.1813333 Z" id="Path"></path>
                        </g>
                        <path d="M127.970526,11.3013333 C125.677895,8.87466667 122.551579,7.696 118.522105,7.696 L107.406316,7.696 L104.28,7.696 L99.4168421,7.696 L99.4168421,49.8506667 L108.101053,49.8506667 L108.101053,34.6666667 L118.105263,34.6666667 C118.244211,34.6666667 118.313684,34.6666667 118.452632,34.6666667 C123.315789,34.5973333 126.650526,32.7946667 128.943158,29.328 C130.541053,26.9013333 131.374737,24.1973333 131.374737,21.216 C131.374737,17.056 130.263158,13.728 127.970526,11.3013333 Z M121.648421,25.0986667 C120.606316,26.624 118.8,27.3866667 116.229474,27.3866667 L108.170526,27.3866667 L108.170526,14.9066667 L115.117895,14.9066667 C117.827368,14.9066667 119.772632,15.392 120.953684,16.2933333 C122.134737,17.1946667 122.76,18.72 122.76,20.8 C122.76,22.672 122.343158,24.0586667 121.648421,25.0986667 Z" id="Shape" fill="#1E1E1C"></path>
                        <path d="M118.522105,34.6666667 C118.383158,34.6666667 118.313684,34.6666667 118.174737,34.6666667 L108.170526,34.6666667 L108.170526,14.976 L114.701053,27.456 L118.522105,34.6666667 Z" id="Path" fill="#575756"></path>
                    </g>
                    <path d="M79.1305263,11.5093333 L72.8084211,33.9733333 L70.5852632,41.9466667 C67.1810526,39.728 64.6105263,36.2613333 63.5684211,32.1706667 C63.2210526,30.8533333 63.0126316,29.4666667 63.0126316,28.0106667 C63.0126316,23.4346667 64.8884211,19.344 67.8757895,16.3626667 C70.7242105,13.4506667 74.6842105,11.648 79.1305263,11.5093333 Z" id="Path" fill="#C9C8C7"></path>
                </g>
            </g>
            <rect id="Rectangle" fill-opacity="0" fill="#D8D8D8" x="0" y="0" width="247" height="67"></rect>
        </g>
    </g>
</svg>