<svg id="Слой_1" data-name="Слой 1" xmlns="http://www.w3.org/2000/svg" viewBox="0 0 719 404"><path d="M44.84,169H71.18v22.9H45.61v77.47H15.84V191.92H0V169H15.84v-4.58q0-17.56,10.3-27.86,10.5-10.31,29.39-10.31a50.09,50.09,0,0,1,12.59,1.53,29.25,29.25,0,0,1,10.12,4l-7.83,21.56a20.32,20.32,0,0,0-12-3.63q-13.55,0-13.55,14.89Z" style="fill:#3d3939"/><path d="M90.69,166.73h29.77V269.39H90.69Zm14.88-14.31q-8.2,0-13.36-4.78a16.16,16.16,0,0,1,0-23.66q5.16-4.77,13.36-4.77t13.36,4.58a14.69,14.69,0,0,1,5.15,11.45,16.51,16.51,0,0,1-5.15,12.4Q113.79,152.41,105.57,152.42Z" style="fill:#3d3939"/><path d="M178.89,165.2q23.85,0,36.64,11.45,12.78,11.26,12.79,34.16v58.58H200.46V256.61q-8.4,14.31-31.3,14.31a49.24,49.24,0,0,1-20.61-4,30.73,30.73,0,0,1-13.17-11.07,28.82,28.82,0,0,1-4.58-16q0-14.31,10.69-22.51,10.88-8.2,33.39-8.21h23.67q0-9.74-5.92-14.88-5.91-5.36-17.75-5.35a51.05,51.05,0,0,0-16.22,2.67,41.66,41.66,0,0,0-13.35,6.87l-10.69-20.8a64.89,64.89,0,0,1,20-9.16A91.26,91.26,0,0,1,178.89,165.2Zm-2.29,85.68a26.47,26.47,0,0,0,13.55-3.43,19.79,19.79,0,0,0,8.4-10.5V226.46H178.13q-18.31,0-18.32,12a11,11,0,0,0,4.39,9.16Q168.78,250.88,176.6,250.88Z" style="fill:#3d3939"/><path d="M310.87,264.43a31.73,31.73,0,0,1-10.87,5,56.43,56.43,0,0,1-13.36,1.53q-18.31,0-28.43-9.35-9.93-9.36-9.93-27.48V191.92H232.44V169h15.84V144h29.77v25h25.57v22.9H278.05v41.79q0,6.48,3.25,10.11c2.28,2.29,5.47,3.44,9.54,3.44a19.17,19.17,0,0,0,12-3.82Z" style="fill:#3d3939"/><path d="M562.69,165.2q19.27,0,30.53,11.45,11.46,11.26,11.45,34v58.77H574.9V215.2q0-12.22-5.15-18.13-5-6.1-14.31-6.11-10.5,0-16.6,6.87-6.11,6.67-6.11,20v51.52H503V215.2Q503,191,483.5,191q-10.31,0-16.41,6.87-6.1,6.67-6.11,20v51.52H431.21V166.73h28.44v11.83a37.66,37.66,0,0,1,13.93-9.93,47.87,47.87,0,0,1,18.31-3.43,43.27,43.27,0,0,1,19.66,4.39A34.13,34.13,0,0,1,525.67,182a42.28,42.28,0,0,1,15.84-12.4A50.87,50.87,0,0,1,562.69,165.2Z" style="fill:#3d3939"/><path d="M343.3,169.16c-11.65-28.28-17.85-55.5-17.88-79.64,0-27.33,7.88-51,25.1-67.43,27.23-26,71.2-27.89,119.05-11.75,48.05,16.2,101.15,50.88,148.09,100.06S696.79,214.23,710.74,263c13.9,48.55,10,92.38-17.27,118.37s-71.2,27.89-119.05,11.76c-48-16.2-101.15-50.88-148.09-100.06q-8.62-9-16.56-18.27l0,0L399.19,261.8q-2,1.29-4.12,2.44a61.76,61.76,0,0,1-29,6.68,62.87,62.87,0,0,1-29.19-6.68,51.16,51.16,0,0,1-20-18.89,55,55,0,0,1,0-54.58,49.8,49.8,0,0,1,20-18.7A57.22,57.22,0,0,1,343.3,169.16Zm7.64-2.31C339.4,139,333.4,112.57,333.37,89.51c0-25.84,7.43-47.14,22.64-61.66,24-22.94,64.22-25.76,111-10,46.6,15.71,98.64,49.58,144.88,98s77.66,102,91.19,149.27C716.69,312.65,712,352.67,688,375.6s-64.22,25.75-111,10c-46.6-15.71-98.64-49.57-144.88-98q-8.46-8.85-16.24-17.92L405.51,257a50.63,50.63,0,0,0,9.6-11.62,55,55,0,0,0,0-54.58,49.93,49.93,0,0,0-20-18.7,60.32,60.32,0,0,0-29-6.87A67.25,67.25,0,0,0,350.94,166.85Zm33.82,72q-7.25,7.63-18.7,7.63t-18.89-7.63q-7.44-7.83-7.44-20.8t7.44-20.61q7.44-7.83,18.89-7.82t18.7,7.82q7.46,7.63,7.44,20.61T384.76,238.86Z" style="fill:#3d3939;fill-rule:evenodd"/></svg>