<svg width="807" height="320" viewBox="0 0 807 320" fill="none" xmlns="http://www.w3.org/2000/svg">
<path d="M468.16 82.46C480.7 99.2 443.98 131.55 452.23 118.19H374C365.54 107.12 359.72 95.02 356.92 82.46H468.16Z" fill="url(#paint0_linear)"/>
<path d="M445.49 178.9C434.81 187.48 422.8 195.16 409.63 201.78L403.41 204.9L397.15 201.78C338.3 172.26 303.18 121.39 303.18 65.6299V0.189941H339.08V65.6299C339.08 69.8199 339.37 73.9799 339.94 78.1099C344.46 111.98 367.34 143.23 403.29 164.27C403.33 164.31 403.37 164.33 403.4 164.35C403.44 164.33 403.46 164.31 403.5 164.29C403.56 164.25 403.6 164.23 403.65 164.19C416.43 171.34 430.54 176.39 445.49 178.9Z" fill="url(#paint1_linear)"/>
<path d="M502.52 82.46C500.87 95.38 497.29 107.96 491.97 119.93C482.13 142.04 466.31 162.17 445.48 178.9C430.53 176.39 416.42 171.34 403.65 164.2C408.44 161.39 413.01 158.38 417.32 155.22C417.76 154.93 418.18 154.63 418.58 154.3C442.53 137.03 460.34 111.78 468.15 82.46H502.52Z" fill="url(#paint2_linear)"/>
<path d="M503.64 0.189941H339.08V36.0699H503.64V0.189941Z" fill="url(#paint3_linear)"/>
<path d="M503.63 36.0699V65.63C503.63 66.85 503.59 68.0799 503.55 69.3099H467.63C467.67 68.0799 467.69 66.86 467.69 65.63V36.0699H503.63Z" fill="url(#paint4_linear)"/>
<path d="M68.89 281.59C68.89 288.65 68.09 294.4 66.51 298.85C64.09 305.62 60.1 310.84 54.54 314.49C49.17 317.99 42.81 319.74 35.47 319.74C23.52 319.74 14.35 315.67 7.95996 307.53C3.12996 301.36 0.709961 294 0.709961 285.45C0.709961 275.98 3.53995 268.01 9.19995 261.56C15.62 254.22 24.59 250.54 36.09 250.54C43.78 250.54 50.3 252.51 55.64 256.45C59.45 259.25 62.71 263.38 65.42 268.85L49.4 275.48C48.03 272.44 46.43 270.16 44.62 268.64C42.01 266.49 38.9 265.41 35.29 265.41C27.92 265.41 22.79 269.2 19.89 276.78C18.81 279.57 18.26 282.46 18.26 285.44C18.26 291.62 20.22 296.78 24.14 300.9C27.04 303.98 30.92 305.51 35.76 305.51C40.07 305.51 43.48 304.26 46 301.76C47.66 300.11 48.74 297.68 49.25 294.45H35.33V281.58H68.89V281.59ZM155.95 290.17C155.95 294.08 155.63 297.42 155 300.18C154.01 304.47 151.66 308.38 147.94 311.91C142.66 316.9 135.61 319.4 126.77 319.4C117.77 319.4 110.75 316.86 105.69 311.77C103.02 309.1 101.19 305.75 100.21 301.71C99.51 298.85 99.1599 295 99.1599 290.17V252.64H116.09V287.85C116.09 290.68 116.14 292.79 116.23 294.19C116.55 298.6 118.57 301.68 122.29 303.43C123.82 304.16 125.5 304.53 127.34 304.53C131.47 304.53 134.59 303.09 136.69 300.19C138.25 298.06 139.03 293.95 139.03 287.85V252.64H155.96V290.17H155.95ZM245.11 317.74H227.04L222.84 306.39H199.47L194.99 317.74H177.11L202.14 252.65H220.59L245.11 317.74ZM218.26 293.51L211.25 272.77L204.14 293.51H218.26ZM326.25 317.74H305.22L289.05 292.75V317.74H272.12V252.65H298.44C306.13 252.65 311.82 254.96 315.51 259.56C318.5 263.28 319.99 267.65 319.99 272.67C319.99 278.42 318.27 283.02 314.84 286.45C312.65 288.64 309.63 290.17 305.78 291.03L326.25 317.74ZM302.45 273.6C302.45 271.29 301.6 269.34 299.91 267.75C298.31 266.26 295.75 265.52 292.2 265.52H289.04V281.73H292.2C295.77 281.73 298.34 280.99 299.91 279.5C301.61 277.88 302.45 275.92 302.45 273.6ZM409.97 285.17C409.97 291.94 407.93 298.21 403.84 303.98C399.76 309.75 394.53 313.75 388.18 315.97C384.81 317.15 381.38 317.73 377.88 317.73H352.89V252.64H377.88C383.98 252.64 389.64 254.34 394.86 257.74C399.98 261.05 403.9 265.47 406.64 271C408.85 275.58 409.97 280.3 409.97 285.17ZM392.42 285.17C392.42 280.68 391.16 276.76 388.64 273.41C385.29 268.98 380.31 266.76 373.68 266.76H369.81V303.62H373.68C380.34 303.62 385.32 301.4 388.64 296.97C391.16 293.6 392.42 289.66 392.42 285.17ZM494.31 317.74H476.24L472.04 306.39H448.67L444.19 317.74H426.31L451.34 252.65H469.79L494.31 317.74ZM467.46 293.51L460.45 272.77L453.34 293.51H467.46ZM575.45 317.74H554.42L538.25 292.75V317.74H521.32V252.65H547.64C555.33 252.65 561.02 254.96 564.71 259.56C567.7 263.28 569.19 267.65 569.19 272.67C569.19 278.42 567.47 283.02 564.04 286.45C561.85 288.64 558.83 290.17 554.98 291.03L575.45 317.74ZM551.66 273.6C551.66 271.29 550.81 269.34 549.12 267.75C547.52 266.26 544.96 265.52 541.41 265.52H538.25V281.73H541.41C544.98 281.73 547.55 280.99 549.12 279.5C550.81 277.88 551.66 275.92 551.66 273.6ZM619.02 317.74H602.09V252.65H619.02V317.74ZM714.08 317.74H696.01L691.81 306.39H668.44L663.96 317.74H646.08L671.12 252.65H689.57L714.08 317.74ZM687.24 293.51L680.23 272.77L673.12 293.51H687.24ZM806.1 317.74H789.17L758.03 277.87V317.74H741.1V252.65H758.03L789.17 292.47V252.65H806.1V317.74Z" fill="url(#paint5_linear)"/>
<defs>
<linearGradient id="paint0_linear" x1="504.415" y1="122.783" x2="367.535" y2="85.8932" gradientUnits="userSpaceOnUse">
<stop offset="0.1445" stop-color="#1B0067"/>
<stop offset="0.2094" stop-color="#251277"/>
<stop offset="0.3394" stop-color="#363092"/>
<stop offset="0.4772" stop-color="#4347A7"/>
<stop offset="0.6246" stop-color="#4C57B6"/>
<stop offset="0.7881" stop-color="#5161BF"/>
<stop offset="1" stop-color="#5364C2"/>
</linearGradient>
<linearGradient id="paint1_linear" x1="453.88" y1="239.669" x2="260.395" y2="-30.1925" gradientUnits="userSpaceOnUse">
<stop stop-color="#1B0067"/>
<stop offset="0.0759" stop-color="#251277"/>
<stop offset="0.2278" stop-color="#363092"/>
<stop offset="0.3889" stop-color="#4347A7"/>
<stop offset="0.5612" stop-color="#4C57B6"/>
<stop offset="0.7524" stop-color="#5161BF"/>
<stop offset="1" stop-color="#5364C2"/>
</linearGradient>
<linearGradient id="paint2_linear" x1="405.9" y1="198.824" x2="497.8" y2="82.3306" gradientUnits="userSpaceOnUse">
<stop offset="0.1537" stop-color="#1B0067"/>
<stop offset="0.218" stop-color="#251277"/>
<stop offset="0.3465" stop-color="#363092"/>
<stop offset="0.4829" stop-color="#4347A7"/>
<stop offset="0.6286" stop-color="#4C57B6"/>
<stop offset="0.7904" stop-color="#5161BF"/>
<stop offset="1" stop-color="#5364C2"/>
</linearGradient>
<linearGradient id="paint3_linear" x1="323.257" y1="111.324" x2="400.919" y2="37.5446" gradientUnits="userSpaceOnUse">
<stop offset="0.1445" stop-color="#1B0067"/>
<stop offset="0.5257" stop-color="#352E91"/>
<stop offset="1" stop-color="#5364C2"/>
</linearGradient>
<linearGradient id="paint4_linear" x1="488.794" y1="3.38515" x2="484.264" y2="73.9281" gradientUnits="userSpaceOnUse">
<stop offset="0.1445" stop-color="#1B0067"/>
<stop offset="0.2094" stop-color="#251277"/>
<stop offset="0.3394" stop-color="#363092"/>
<stop offset="0.4772" stop-color="#4347A7"/>
<stop offset="0.6246" stop-color="#4C57B6"/>
<stop offset="0.7881" stop-color="#5161BF"/>
<stop offset="1" stop-color="#5364C2"/>
</linearGradient>
<linearGradient id="paint5_linear" x1="403.401" y1="371.822" x2="403.401" y2="191.863" gradientUnits="userSpaceOnUse">
<stop offset="0.1798" stop-color="#1B0067"/>
<stop offset="0.2421" stop-color="#251277"/>
<stop offset="0.3667" stop-color="#363092"/>
<stop offset="0.4988" stop-color="#4347A7"/>
<stop offset="0.6401" stop-color="#4C57B6"/>
<stop offset="0.7969" stop-color="#5161BF"/>
<stop offset="1" stop-color="#5364C2"/>
</linearGradient>
</defs>
</svg>
