<?xml version="1.0" encoding="utf-8"?>
<!-- Generator: Adobe Illustrator 26.1.0, SVG Export Plug-In . SVG Version: 6.00 Build 0)  -->
<svg version="1.1" id="Layer_1" xmlns="http://www.w3.org/2000/svg" xmlns:xlink="http://www.w3.org/1999/xlink" x="0px" y="0px"
	 viewBox="0 0 300 100" style="enable-background:new 0 0 300 100;" xml:space="preserve">
<style type="text/css">
	.st0{fill-rule:evenodd;clip-rule:evenodd;fill:#3D3939;}
</style>
<path class="st0" d="M221.9,31.6c-1.6,0-3.3-0.5-4.2-1.4c-1.2-1.2-1.4-2.4-1.4-3.8c0-1.4,0.5-2.8,1.4-3.8c1.2-1.2,2.6-1.4,4.2-1.4
	c1.6,0,3.3,0.5,4.2,1.4c1.2,1.2,1.6,2.4,1.6,3.8c0,1.4-0.7,2.8-1.6,3.8C224.8,30.8,223.6,31.6,221.9,31.6z M53.4,67.1
	c-4.7,0-8.5-1.2-11.3-3.1l-0.2-7.8h2.8c0.7,2.6,1.6,4.5,3.3,6.1c1.4,1.4,3.3,2.4,5.7,2.4c1.4,0,2.8-0.5,3.5-1.2
	c0.9-0.7,1.4-1.6,1.4-3.1c0-1.2-0.5-2.4-1.4-3.3c-1.2-0.7-2.6-1.4-4.9-2.1c-3.5-1.2-6.1-2.6-7.8-4c-1.6-1.6-2.6-3.8-2.6-6.8
	c0-3.3,1.2-5.7,3.3-7.8c2.1-2.1,5.2-2.8,8.7-2.8c4,0,7.5,0.9,10.1,2.8v7.1h-2.6c-0.5-2.1-1.2-3.8-2.6-5.4c-1.2-1.4-3.1-2.1-4.9-2.1
	c-1.2,0-2.4,0.5-3.1,1.2c-0.9,0.7-1.2,1.4-1.2,2.6s0.5,2.1,1.2,2.8c0.9,0.7,2.4,1.2,4.5,2.1c3.8,1.2,6.6,2.8,8.2,4.2
	s2.6,3.8,2.6,6.8c0,3.3-1.2,6.1-3.5,7.8C61,66.2,57.7,67.1,53.4,67.1z M85.7,34.1c4.2,0,7.5,1.2,9.7,3.5c2.1,2.4,3.3,5.7,3.3,9.4
	v1.4H79.8c0,3.3,0.9,6.1,2.6,8.2s4,3.3,6.6,3.3c3.5,0,6.6-1.4,8.7-4.2l1.2,0.7c-0.9,3.3-2.4,5.9-4.7,7.8c-2.4,1.9-5.4,3.1-9,3.1
	c-4.5,0-8-1.4-11.1-4.2c-3.1-2.8-4.2-6.6-4.2-11.5c0-5.2,1.4-9.4,4.7-12.5C77.7,35.8,81.5,34.1,85.7,34.1z M80.1,45.7
	c0.2-6.1,2.1-9.2,5.2-9.2c2.8,0,4.2,3.1,4.2,8.7v0.5C89.3,45.7,80.1,45.7,80.1,45.7z M119.2,36.7c-2.1,0-3.5,1.2-4.7,3.3
	s-1.6,4.9-1.6,8.2c0,3.8,0.7,6.8,1.9,9.2s3.1,3.5,5.4,3.5c1.2,0,2.4-0.2,3.3-0.9V42.9c0-1.9-0.5-3.3-1.2-4.5
	C121.6,37.4,120.4,36.7,119.2,36.7z M123.2,61.5V74c0,1.2-0.2,1.6-0.9,1.9c-0.5,0.2-1.4,0.5-3.3,0.7h-0.7v2.4h18.9v-2.4
	c-1.2,0-2.1-0.2-2.6-0.5c-0.5-0.2-0.7-0.9-0.7-1.6V41.2l0.2-7.1h-2.1l-4.5,3.3c-2.6-2.4-5.9-3.5-10.1-3.5c-4.7,0-8.5,1.4-11.5,4.7
	c-3.1,3.3-4.5,7.8-4.5,13.2c0,4.7,1.2,8.5,3.3,11.1s5.2,4,8.7,4C117.8,67.1,120.8,65.5,123.2,61.5z M171.7,41.7v18.1
	c0,1.2,0.2,1.9,0.5,2.4s0.9,0.7,1.6,0.7h1.4v2.4l-12.5,2.1h-2.1l0.2-5.7c-3.1,3.8-6.6,5.7-10.6,5.7c-2.8,0-4.9-0.9-6.6-2.6
	c-1.6-1.6-2.4-4-2.4-7.5V42.9c0-1.9-0.9-3.1-2.4-3.3l-0.9-0.2v-2.1l12.5-2.8h1.9l-0.5,7.5v14.4c0,3.3,1.2,4.7,4,4.7
	c1.2,0,2.8-0.5,4.5-1.2v-17c0-1.9-0.9-3.1-2.4-3.3l-0.9-0.2v-2.1l12.3-2.8h1.9L171.7,41.7z M197.7,61.5c-0.7,2.1-1.9,3.1-3.5,3.1
	c-3.3,0-5.2-5.4-5.2-16V48c0-3.8,0.5-6.6,1.2-8.7s1.9-3.1,3.5-3.1c3.3,0,5.2,5.2,5.2,15.3v0.7C198.6,56.5,198.4,59.6,197.7,61.5z
	 M193.7,67.1c-4.9,0-9-1.4-12-4.2c-3.1-3.1-4.5-6.8-4.5-11.5c0-4.9,1.4-9.2,4.7-12.3c3.3-3.1,7.1-4.9,12-4.9s9,1.4,12,4.2
	c3.1,3.1,4.5,6.8,4.5,11.5c0,4.9-1.4,9.2-4.7,12.3C202.4,65.5,198.6,67.1,193.7,67.1z M227.1,62V34.1h-1.9L213,37.4v1.6l3.3,1.9
	v20.7c0,0.9-0.2,1.4-0.7,1.6c-0.5,0.2-1.2,0.5-2.6,0.5v2.4h17.4v-2.4c-1.2,0-2.1-0.2-2.6-0.5C227.4,63.4,227.1,62.9,227.1,62z
	 M246.9,61V45.5c1.2-0.9,2.6-1.4,4-1.6c1.4-0.2,3.3-0.5,5.7-0.5h1.4v-8.2c-0.7-0.7-1.6-1.2-3.1-1.2c-1.9,0-3.3,0.7-4.7,1.9
	c-1.2,1.2-2.4,3.5-3.5,7.1l0.2-9.2H245L232.8,37v1.9l3.3,1.9v21c0,0.9-0.2,1.4-0.7,1.6c-0.5,0.2-1.2,0.5-2.6,0.5v2.4h18.9v-2.4
	c-1.9-0.2-3.3-0.5-3.8-0.9C247.2,63.1,246.9,62.2,246.9,61z"/>
</svg>
