<svg width="1500" height="1500" viewBox="0 0 1500 1500" fill="none" xmlns="http://www.w3.org/2000/svg">
<path d="M1020.2 375.7H920.2V475.7H1020.2V375.7Z" fill="#CBDBE8"/>
<path d="M1020.2 478.2H920.2C918.8 478.2 917.7 477.1 917.7 475.7V375.7C917.7 374.3 918.8 373.2 920.2 373.2H1020.2C1021.6 373.2 1022.7 374.3 1022.7 375.7V475.7C1022.7 477.1 1021.6 478.2 1020.2 478.2ZM922.7 473.2H1017.7V378.2H922.7V473.2Z" fill="black"/>
<path d="M1179.8 375.7H1079.8V475.7H1179.8V375.7Z" fill="#CBDBE8"/>
<path d="M1179.8 478.2H1079.8C1078.4 478.2 1077.3 477.1 1077.3 475.7V375.7C1077.3 374.3 1078.4 373.2 1079.8 373.2H1179.8C1181.2 373.2 1182.3 374.3 1182.3 375.7V475.7C1182.3 477.1 1181.2 478.2 1179.8 478.2ZM1082.3 473.2H1177.3V378.2H1082.3V473.2Z" fill="black"/>
<path d="M1020.2 535.3H920.2V635.3H1020.2V535.3Z" fill="#CBDBE8"/>
<path d="M1020.2 637.8H920.2C918.8 637.8 917.7 636.7 917.7 635.3V535.3C917.7 533.9 918.8 532.8 920.2 532.8H1020.2C1021.6 532.8 1022.7 533.9 1022.7 535.3V635.3C1022.7 636.7 1021.6 637.8 1020.2 637.8ZM922.7 632.8H1017.7V537.8H922.7V632.8Z" fill="black"/>
<path d="M1179.8 535.3H1079.8V635.3H1179.8V535.3Z" fill="#CBDBE8"/>
<path d="M1179.8 637.8H1079.8C1078.4 637.8 1077.3 636.7 1077.3 635.3V535.3C1077.3 533.9 1078.4 532.8 1079.8 532.8H1179.8C1181.2 532.8 1182.3 533.9 1182.3 535.3V635.3C1182.3 636.7 1181.2 637.8 1179.8 637.8ZM1082.3 632.8H1177.3V537.8H1082.3V632.8Z" fill="black"/>
<path d="M750 205.5H150V805.5H750V205.5Z" fill="#DFEBF2"/>
<path d="M1350 805.5H750V1405.5H1350V805.5Z" fill="#CBDBE8"/>
<path d="M579.8 1075.7V1039.7V975.7H479.8V1039.7V1075.7V1235.3H579.8V1075.7Z" fill="#DFEBF2"/>
<path d="M579.8 1237.8H479.8C478.4 1237.8 477.3 1236.7 477.3 1235.3V975.7C477.3 974.3 478.4 973.2 479.8 973.2H579.8C581.2 973.2 582.3 974.3 582.3 975.7V1235.4C582.3 1236.7 581.2 1237.8 579.8 1237.8ZM482.3 1232.8H577.3V978.2H482.3V1232.8V1232.8Z" fill="black"/>
<path d="M420.2 1179.2V1135.3V975.7H320.2V1135.3V1179.2V1235.3H420.2V1179.2Z" fill="#DFEBF2"/>
<path d="M420.2 1237.8H320.2C318.8 1237.8 317.7 1236.7 317.7 1235.3V975.7C317.7 974.3 318.8 973.2 320.2 973.2H420.2C421.6 973.2 422.7 974.3 422.7 975.7V1235.4C422.7 1236.7 421.6 1237.8 420.2 1237.8ZM322.7 1232.8H417.7V978.2H322.7V1232.8Z" fill="black"/>
<path d="M841.3 918.3C855.107 918.3 866.3 907.107 866.3 893.3C866.3 879.493 855.107 868.3 841.3 868.3C827.493 868.3 816.3 879.493 816.3 893.3C816.3 907.107 827.493 918.3 841.3 918.3Z" fill="#DFEBF2"/>
<path d="M841.3 920.8C826.1 920.8 813.8 908.5 813.8 893.3C813.8 878.1 826.1 865.8 841.3 865.8C856.5 865.8 868.8 878.1 868.8 893.3C868.8 908.5 856.5 920.8 841.3 920.8ZM841.3 870.8C828.9 870.8 818.8 880.9 818.8 893.3C818.8 905.7 828.9 915.8 841.3 915.8C853.7 915.8 863.8 905.7 863.8 893.3C863.8 880.9 853.7 870.8 841.3 870.8Z" fill="black"/>
<path d="M530.2 1208.5C544.007 1208.5 555.2 1197.31 555.2 1183.5C555.2 1169.69 544.007 1158.5 530.2 1158.5C516.393 1158.5 505.2 1169.69 505.2 1183.5C505.2 1197.31 516.393 1208.5 530.2 1208.5Z" fill="#C9D3DC"/>
<path d="M530.2 1211C515 1211 502.7 1198.7 502.7 1183.5C502.7 1168.3 515 1156 530.2 1156C545.4 1156 557.7 1168.3 557.7 1183.5C557.7 1198.7 545.3 1211 530.2 1211ZM530.2 1161C517.8 1161 507.7 1171.1 507.7 1183.5C507.7 1195.9 517.8 1206 530.2 1206C542.6 1206 552.7 1195.9 552.7 1183.5C552.7 1171.1 542.6 1161 530.2 1161Z" fill="black"/>
<path d="M370.2 1208.5C384.007 1208.5 395.2 1197.31 395.2 1183.5C395.2 1169.69 384.007 1158.5 370.2 1158.5C356.393 1158.5 345.2 1169.69 345.2 1183.5C345.2 1197.31 356.393 1208.5 370.2 1208.5Z" fill="#C9D3DC"/>
<path d="M370.2 1211C355 1211 342.7 1198.7 342.7 1183.5C342.7 1168.3 355 1156 370.2 1156C385.4 1156 397.7 1168.3 397.7 1183.5C397.7 1198.7 385.3 1211 370.2 1211ZM370.2 1161C357.8 1161 347.7 1171.1 347.7 1183.5C347.7 1195.9 357.8 1206 370.2 1206C382.6 1206 392.7 1195.9 392.7 1183.5C392.7 1171.1 382.6 1161 370.2 1161Z" fill="black"/>
<path d="M530.2 1052.5C544.007 1052.5 555.2 1041.31 555.2 1027.5C555.2 1013.69 544.007 1002.5 530.2 1002.5C516.393 1002.5 505.2 1013.69 505.2 1027.5C505.2 1041.31 516.393 1052.5 530.2 1052.5Z" fill="#C9D3DC"/>
<path d="M530.2 1055C515 1055 502.7 1042.7 502.7 1027.5C502.7 1012.3 515 1000 530.2 1000C545.4 1000 557.7 1012.3 557.7 1027.5C557.7 1042.7 545.3 1055 530.2 1055ZM530.2 1005C517.8 1005 507.7 1015.1 507.7 1027.5C507.7 1039.9 517.8 1050 530.2 1050C542.6 1050 552.7 1039.9 552.7 1027.5C552.7 1015.1 542.6 1005 530.2 1005Z" fill="black"/>
<path d="M970.2 450.7C984.007 450.7 995.2 439.507 995.2 425.7C995.2 411.893 984.007 400.7 970.2 400.7C956.393 400.7 945.2 411.893 945.2 425.7C945.2 439.507 956.393 450.7 970.2 450.7Z" fill="#DFEBF2"/>
<path d="M970.2 453.2C955 453.2 942.7 440.9 942.7 425.7C942.7 410.5 955 398.2 970.2 398.2C985.4 398.2 997.7 410.5 997.7 425.7C997.7 440.9 985.3 453.2 970.2 453.2ZM970.2 403.2C957.8 403.2 947.7 413.3 947.7 425.7C947.7 438.1 957.8 448.2 970.2 448.2C982.6 448.2 992.7 438.1 992.7 425.7C992.7 413.3 982.6 403.2 970.2 403.2Z" fill="black"/>
<path d="M970.2 610.3C984.007 610.3 995.2 599.107 995.2 585.3C995.2 571.493 984.007 560.3 970.2 560.3C956.393 560.3 945.2 571.493 945.2 585.3C945.2 599.107 956.393 610.3 970.2 610.3Z" fill="#DFEBF2"/>
<path d="M970.2 612.8C955 612.8 942.7 600.5 942.7 585.3C942.7 570.1 955 557.8 970.2 557.8C985.4 557.8 997.7 570.1 997.7 585.3C997.7 600.5 985.3 612.8 970.2 612.8ZM970.2 562.8C957.8 562.8 947.7 572.9 947.7 585.3C947.7 597.7 957.8 607.8 970.2 607.8C982.6 607.8 992.7 597.7 992.7 585.3C992.7 572.9 982.6 562.8 970.2 562.8Z" fill="black"/>
<path d="M1129.8 610.3C1143.61 610.3 1154.8 599.107 1154.8 585.3C1154.8 571.493 1143.61 560.3 1129.8 560.3C1115.99 560.3 1104.8 571.493 1104.8 585.3C1104.8 599.107 1115.99 610.3 1129.8 610.3Z" fill="#DFEBF2"/>
<path d="M1129.8 612.8C1114.6 612.8 1102.3 600.5 1102.3 585.3C1102.3 570.1 1114.6 557.8 1129.8 557.8C1145 557.8 1157.3 570.1 1157.3 585.3C1157.3 600.5 1145 612.8 1129.8 612.8ZM1129.8 562.8C1117.4 562.8 1107.3 572.9 1107.3 585.3C1107.3 597.7 1117.4 607.8 1129.8 607.8C1142.2 607.8 1152.3 597.7 1152.3 585.3C1152.3 572.9 1142.2 562.8 1129.8 562.8Z" fill="black"/>
<path d="M1129.8 450.7C1143.61 450.7 1154.8 439.507 1154.8 425.7C1154.8 411.893 1143.61 400.7 1129.8 400.7C1115.99 400.7 1104.8 411.893 1104.8 425.7C1104.8 439.507 1115.99 450.7 1129.8 450.7Z" fill="#DFEBF2"/>
<path d="M1129.8 453.2C1114.6 453.2 1102.3 440.9 1102.3 425.7C1102.3 410.5 1114.6 398.2 1129.8 398.2C1145 398.2 1157.3 410.5 1157.3 425.7C1157.3 440.9 1145 453.2 1129.8 453.2ZM1129.8 403.2C1117.4 403.2 1107.3 413.3 1107.3 425.7C1107.3 438.1 1117.4 448.2 1129.8 448.2C1142.2 448.2 1152.3 438.1 1152.3 425.7C1152.3 413.3 1142.2 403.2 1129.8 403.2Z" fill="black"/>
<path d="M370.2 1052.5C384.007 1052.5 395.2 1041.31 395.2 1027.5C395.2 1013.69 384.007 1002.5 370.2 1002.5C356.393 1002.5 345.2 1013.69 345.2 1027.5C345.2 1041.31 356.393 1052.5 370.2 1052.5Z" fill="#BB3437"/>
<path d="M370.2 1055C355 1055 342.7 1042.7 342.7 1027.5C342.7 1012.3 355 1000 370.2 1000C385.4 1000 397.7 1012.3 397.7 1027.5C397.7 1042.7 385.3 1055 370.2 1055ZM370.2 1005C357.8 1005 347.7 1015.1 347.7 1027.5C347.7 1039.9 357.8 1050 370.2 1050C382.6 1050 392.7 1039.9 392.7 1027.5C392.7 1015.1 382.6 1005 370.2 1005Z" fill="black"/>
<path d="M1129.8 278.7C1143.61 278.7 1154.8 267.507 1154.8 253.7C1154.8 239.893 1143.61 228.7 1129.8 228.7C1115.99 228.7 1104.8 239.893 1104.8 253.7C1104.8 267.507 1115.99 278.7 1129.8 278.7Z" fill="#BB3437"/>
<path d="M1129.8 281.2C1114.6 281.2 1102.3 268.9 1102.3 253.7C1102.3 238.5 1114.6 226.2 1129.8 226.2C1145 226.2 1157.3 238.5 1157.3 253.7C1157.3 268.9 1145 281.2 1129.8 281.2ZM1129.8 231.2C1117.4 231.2 1107.3 241.3 1107.3 253.7C1107.3 266.1 1117.4 276.2 1129.8 276.2C1142.2 276.2 1152.3 266.1 1152.3 253.7C1152.3 241.3 1142.2 231.2 1129.8 231.2Z" fill="black"/>
<path d="M1132.4 278H1127.4V375.7H1132.4V278Z" fill="black"/>
<path d="M241.3 144.5C255.107 144.5 266.3 133.307 266.3 119.5C266.3 105.693 255.107 94.5 241.3 94.5C227.493 94.5 216.3 105.693 216.3 119.5C216.3 133.307 227.493 144.5 241.3 144.5Z" fill="#BB3437"/>
<path d="M241.3 147C226.1 147 213.8 134.7 213.8 119.5C213.8 104.3 226.2 92 241.3 92C256.4 92 268.8 104.3 268.8 119.5C268.8 134.7 256.5 147 241.3 147ZM241.3 97C228.9 97 218.8 107.1 218.8 119.5C218.8 131.9 228.9 142 241.3 142C253.7 142 263.8 131.9 263.8 119.5C263.8 107.1 253.7 97 241.3 97Z" fill="black"/>
<path d="M243.9 143.8H238.9V268.3H243.9V143.8Z" fill="black"/>
<path d="M657.8 742.2C671.607 742.2 682.8 731.007 682.8 717.2C682.8 703.393 671.607 692.2 657.8 692.2C643.993 692.2 632.8 703.393 632.8 717.2C632.8 731.007 643.993 742.2 657.8 742.2Z" fill="#C9D3DC"/>
<path d="M657.8 744.7C642.6 744.7 630.3 732.4 630.3 717.2C630.3 702 642.6 689.7 657.8 689.7C673 689.7 685.3 702 685.3 717.2C685.3 732.4 673 744.7 657.8 744.7ZM657.8 694.7C645.4 694.7 635.3 704.8 635.3 717.2C635.3 729.6 645.4 739.7 657.8 739.7C670.2 739.7 680.3 729.6 680.3 717.2C680.3 704.8 670.2 694.7 657.8 694.7Z" fill="black"/>
<path d="M241.3 318.3C255.107 318.3 266.3 307.107 266.3 293.3C266.3 279.493 255.107 268.3 241.3 268.3C227.493 268.3 216.3 279.493 216.3 293.3C216.3 307.107 227.493 318.3 241.3 318.3Z" fill="#C9D3DC"/>
<path d="M241.3 320.8C226.1 320.8 213.8 308.5 213.8 293.3C213.8 278.1 226.1 265.8 241.3 265.8C256.5 265.8 268.8 278.1 268.8 293.3C268.8 308.5 256.5 320.8 241.3 320.8ZM241.3 270.8C228.9 270.8 218.8 280.9 218.8 293.3C218.8 305.7 228.9 315.8 241.3 315.8C253.7 315.8 263.8 305.7 263.8 293.3C263.8 280.9 253.7 270.8 241.3 270.8Z" fill="black"/>
<path d="M657.6 318.3C671.407 318.3 682.6 307.107 682.6 293.3C682.6 279.493 671.407 268.3 657.6 268.3C643.793 268.3 632.6 279.493 632.6 293.3C632.6 307.107 643.793 318.3 657.6 318.3Z" fill="#BB3437"/>
<path d="M657.6 320.8C642.4 320.8 630.1 308.5 630.1 293.3C630.1 278.1 642.4 265.8 657.6 265.8C672.8 265.8 685.1 278.1 685.1 293.3C685.1 308.5 672.8 320.8 657.6 320.8ZM657.6 270.8C645.2 270.8 635.1 280.9 635.1 293.3C635.1 305.7 645.2 315.8 657.6 315.8C670 315.8 680.1 305.7 680.1 293.3C680.1 280.9 670 270.8 657.6 270.8Z" fill="black"/>
<path d="M241.5 742.7C255.307 742.7 266.5 731.507 266.5 717.7C266.5 703.893 255.307 692.7 241.5 692.7C227.693 692.7 216.5 703.893 216.5 717.7C216.5 731.507 227.693 742.7 241.5 742.7Z" fill="#C9D3DC"/>
<path d="M241.5 745.2C226.3 745.2 214 732.9 214 717.7C214 702.5 226.3 690.2 241.5 690.2C256.7 690.2 269 702.5 269 717.7C269 732.9 256.7 745.2 241.5 745.2ZM241.5 695.2C229.1 695.2 219 705.3 219 717.7C219 730.1 229.1 740.2 241.5 740.2C253.9 740.2 264 730.1 264 717.7C264 705.3 253.9 695.2 241.5 695.2Z" fill="black"/>
<path d="M841.3 1342C855.107 1342 866.3 1330.81 866.3 1317C866.3 1303.19 855.107 1292 841.3 1292C827.493 1292 816.3 1303.19 816.3 1317C816.3 1330.81 827.493 1342 841.3 1342Z" fill="#BB3437"/>
<path d="M841.3 1344.5C826.1 1344.5 813.8 1332.2 813.8 1317C813.8 1301.8 826.1 1289.5 841.3 1289.5C856.5 1289.5 868.8 1301.8 868.8 1317C868.8 1332.2 856.5 1344.5 841.3 1344.5ZM841.3 1294.5C828.9 1294.5 818.8 1304.6 818.8 1317C818.8 1329.4 828.9 1339.5 841.3 1339.5C853.7 1339.5 863.8 1329.4 863.8 1317C863.8 1304.6 853.7 1294.5 841.3 1294.5Z" fill="black"/>
<path d="M1259 918.3C1272.81 918.3 1284 907.107 1284 893.3C1284 879.493 1272.81 868.3 1259 868.3C1245.19 868.3 1234 879.493 1234 893.3C1234 907.107 1245.19 918.3 1259 918.3Z" fill="#DFEBF2"/>
<path d="M1259 920.8C1243.8 920.8 1231.5 908.5 1231.5 893.3C1231.5 878.1 1243.8 865.8 1259 865.8C1274.2 865.8 1286.5 878.1 1286.5 893.3C1286.5 908.5 1274.2 920.8 1259 920.8ZM1259 870.8C1246.6 870.8 1236.5 880.9 1236.5 893.3C1236.5 905.7 1246.6 915.8 1259 915.8C1271.4 915.8 1281.5 905.7 1281.5 893.3C1281.5 880.9 1271.4 870.8 1259 870.8Z" fill="black"/>
<path d="M1259 1342C1272.81 1342 1284 1330.81 1284 1317C1284 1303.19 1272.81 1292 1259 1292C1245.19 1292 1234 1303.19 1234 1317C1234 1330.81 1245.19 1342 1259 1342Z" fill="#DFEBF2"/>
<path d="M1259 1344.5C1243.8 1344.5 1231.5 1332.2 1231.5 1317C1231.5 1301.8 1243.8 1289.5 1259 1289.5C1274.2 1289.5 1286.5 1301.8 1286.5 1317C1286.5 1332.2 1274.2 1344.5 1259 1344.5ZM1259 1294.5C1246.6 1294.5 1236.5 1304.6 1236.5 1317C1236.5 1329.4 1246.6 1339.5 1259 1339.5C1271.4 1339.5 1281.5 1329.4 1281.5 1317C1281.5 1304.6 1271.4 1294.5 1259 1294.5Z" fill="black"/>
<path d="M320.2 1186.1H269.7C268.3 1186.1 267.2 1185 267.2 1183.6V1027.1C267.2 1025.7 268.3 1024.6 269.7 1024.6H320.2V1029.6H272.2V1181.1H320.2V1186.1Z" fill="black"/>
<path d="M479.9 1181.6H420.2V1186.6H479.9V1181.6Z" fill="black"/>
<path d="M532.7 805.5H527.7V975.7H532.7V805.5Z" fill="black"/>
<path d="M1234 890.9H867.7V895.9H1234V890.9Z" fill="black"/>
<path d="M1234 1314.5H867.7V1319.5H1234V1314.5Z" fill="black"/>
<path d="M632.6 715.2H266.3V720.2H632.6V715.2Z" fill="black"/>
<path d="M243.8 318.3H238.8V692.2H243.8V318.3Z" fill="black"/>
<path d="M660.1 318.3H655.1V692.2H660.1V318.3Z" fill="black"/>
<path d="M1261.5 918.4H1256.5V1292.3H1261.5V918.4Z" fill="black"/>
<path d="M970.2 378.2C968.8 378.2 967.7 377.1 967.7 375.7V295.8H682.8C681.4 295.8 680.3 294.7 680.3 293.3C680.3 291.9 681.4 290.8 682.8 290.8H970.2C971.6 290.8 972.7 291.9 972.7 293.3V375.7C972.7 377.1 971.6 378.2 970.2 378.2Z" fill="black"/>
<path d="M972.7 475.7H967.7V535.4H972.7V475.7Z" fill="black"/>
<path d="M920.2 582.8H750V587.8H920.2V582.8Z" fill="black"/>
<path d="M479.9 1025H420.2V1030H479.9V1025Z" fill="black"/>
<path d="M816.3 1319.5H529.8C528.4 1319.5 527.3 1318.4 527.3 1317V1235.3C527.3 1233.9 528.4 1232.8 529.8 1232.8C531.2 1232.8 532.3 1233.9 532.3 1235.3V1314.5H816.3C817.7 1314.5 818.8 1315.6 818.8 1317C818.8 1318.4 817.7 1319.5 816.3 1319.5Z" fill="black"/>
<path d="M843.8 868.3H838.8V726C838.8 724.6 839.9 723.5 841.3 723.5H1127.3V635.4H1132.3V726C1132.3 727.4 1131.2 728.5 1129.8 728.5H843.8V868.3Z" fill="black"/>
<path d="M1132.3 475.7H1127.3V535.4H1132.3V475.7Z" fill="black"/>
<path d="M1199.1 1035.5H900.9C899.5 1035.5 898.4 1034.4 898.4 1033C898.4 1031.6 899.5 1030.5 900.9 1030.5H1199C1200.4 1030.5 1201.5 1031.6 1201.5 1033C1201.5 1034.4 1200.4 1035.5 1199.1 1035.5Z" fill="black"/>
<path d="M1199.1 1108H900.9C899.5 1108 898.4 1106.9 898.4 1105.5C898.4 1104.1 899.5 1103 900.9 1103H1199C1200.4 1103 1201.5 1104.1 1201.5 1105.5C1201.5 1106.9 1200.4 1108 1199.1 1108Z" fill="black"/>
<path d="M1065.6 1180.5H900.9C899.5 1180.5 898.4 1179.4 898.4 1178C898.4 1176.6 899.5 1175.5 900.9 1175.5H1065.5C1066.9 1175.5 1068 1176.6 1068 1178C1068 1179.4 1067 1180.5 1065.6 1180.5Z" fill="black"/>
<path d="M632.6 290.8H266.3V295.8H632.6V290.8Z" fill="black"/>
<path d="M843.8 918.3H838.8V1292H843.8V918.3Z" fill="black"/>
<path d="M595.542 507.78C595.542 574.723 515.703 629.81 446.471 629.81C377.238 629.81 299.093 578.818 299.093 511.875C299.093 444.933 377.238 386.57 446.471 386.57C515.703 386.57 595.542 440.838 595.542 507.78Z" fill="#ED8D47"/>
<path d="M583.685 364.457C638.259 347.421 608.356 438.661 577.925 481.573L500.679 405.107C511.38 401.88 529.11 381.492 583.685 364.457Z" fill="#ED8D47"/>
<path d="M313.315 364.094C258.741 347.058 288.644 438.298 319.075 481.21L396.321 404.743C385.62 401.517 367.89 381.129 313.315 364.094Z" fill="#ED8D47"/>
<path d="M319.653 378.927C284.165 367.809 303.61 427.358 323.398 455.365L373.629 405.458C366.67 403.352 355.141 390.046 319.653 378.927Z" fill="#EC6E5D"/>
<path d="M580.065 378.927C615.552 367.809 596.108 427.358 576.32 455.365L526.089 405.458C533.047 403.352 544.577 390.046 580.065 378.927Z" fill="#EC6E5D"/>
<path d="M595.354 549.549C582.286 593.774 518.802 638 448.4 638C377.999 638 320.927 607.697 300.599 549.549C281.965 510.237 377.999 508.599 448.4 508.599C518.802 508.599 607.212 509.418 595.354 549.549Z" fill="#FFF6C5"/>
<ellipse cx="448.824" cy="556.101" rx="83.8529" ry="81.0801" fill="#FFF6C5"/>
<path d="M457.81 516.789C468.855 516.789 478.174 506.916 471.286 498.282C470.471 497.26 469.585 496.284 468.631 495.362C462.754 489.679 454.782 486.487 446.471 486.487C438.159 486.487 430.188 489.679 424.311 495.362C423.357 496.284 422.471 497.26 421.656 498.282C414.768 506.916 424.086 516.789 435.132 516.789L446.471 516.789H457.81Z" fill="#454545"/>
<path d="M447.318 506.142V547.092" stroke="#454545" stroke-width="5" stroke-linecap="round"/>
<path d="M389.704 446.25C400.648 444.757 408.459 433.73 400.394 426.109C399.438 425.205 398.417 424.356 397.337 423.57C390.696 418.736 382.342 416.651 374.112 417.774C365.882 418.896 358.45 423.134 353.451 429.555C352.638 430.599 351.9 431.688 351.239 432.813C345.669 442.293 356.329 450.801 367.273 449.309L378.489 447.779L389.704 446.25Z" fill="#FFF6C5"/>
<ellipse cx="373.205" cy="477.887" rx="21.5985" ry="28.2552" fill="#454545"/>
<ellipse rx="11.0018" ry="14.755" transform="matrix(0.987938 -0.154851 0.165338 0.986237 378.441 472.278)" fill="white"/>
<path d="M510.473 446.305C499.528 444.812 491.718 433.785 499.782 426.164C500.739 425.26 501.76 424.411 502.84 423.624C509.48 418.791 517.835 416.706 526.065 417.828C534.295 418.951 541.727 423.189 546.726 429.609C547.539 430.654 548.277 431.743 548.938 432.867C554.508 442.348 543.848 450.856 532.903 449.364L521.688 447.834L510.473 446.305Z" fill="#FFF6C5"/>
<ellipse rx="21.5985" ry="28.2552" transform="matrix(-1 0 0 1 526.971 477.942)" fill="#454545"/>
<ellipse rx="10.9872" ry="14.7758" transform="matrix(-0.968375 0.249499 0.265667 0.964065 528.317 469.005)" fill="white"/>
<path d="M445.624 546.273L419.367 556.101C420.778 567.294 424.872 594.593 443.506 594.593C462.14 594.593 469.904 576.576 471.034 556.101L445.624 546.273Z" fill="#EC6E5D"/>
<path d="M490.83 535.749C482.8 550.315 458.365 565.686 447.34 542.903" stroke="#454545" stroke-width="5" stroke-linecap="round"/>
<path d="M402.337 536.068C410.367 550.634 434.802 566.005 445.828 543.222" stroke="#454545" stroke-width="5" stroke-linecap="round"/>
<ellipse cx="349.066" cy="534.807" rx="24.563" ry="11.4659" fill="#FFA89D"/>
<ellipse rx="24.563" ry="11.4659" transform="matrix(-1 0 0 1 550.652 534.807)" fill="#FFA89D"/>
<path d="M1015.3 1005.74C1015.3 1033.63 982.018 1056.59 953.154 1056.59C924.29 1056.59 891.709 1035.34 891.709 1007.45C891.709 979.555 924.29 955.237 953.154 955.237C982.018 955.237 1015.3 977.849 1015.3 1005.74Z" fill="#ED8D47"/>
<path d="M1010.36 946.024C1033.11 938.926 1020.65 976.942 1007.96 994.822L975.754 962.961C980.216 961.617 987.608 953.122 1010.36 946.024Z" fill="#ED8D47"/>
<path d="M897.639 945.872C874.886 938.774 887.353 976.791 900.04 994.671L932.246 962.81C927.784 961.465 920.392 952.971 897.639 945.872Z" fill="#ED8D47"/>
<path d="M900.281 952.053C885.486 947.42 893.593 972.233 901.843 983.902L922.785 963.108C919.884 962.23 915.077 956.686 900.281 952.053Z" fill="#EC6E5D"/>
<path d="M1008.85 952.053C1023.65 947.42 1015.54 972.233 1007.29 983.902L986.348 963.108C989.249 962.23 994.056 956.686 1008.85 952.053Z" fill="#EC6E5D"/>
<path d="M1015.23 1023.15C1009.78 1041.57 983.31 1060 953.958 1060C924.607 1060 900.812 1047.37 892.337 1023.15C884.568 1006.77 924.607 1006.08 953.958 1006.08C983.31 1006.08 1020.17 1006.42 1015.23 1023.15Z" fill="#FFF6C5"/>
<ellipse cx="954.135" cy="1025.88" rx="34.9598" ry="33.7834" fill="#FFF6C5"/>
<path d="M956.24 1009.5C961.752 1009.5 966.357 1004.4 962.393 1000.57V1000.57C959.943 998.2 956.619 996.869 953.154 996.869C949.689 996.869 946.366 998.2 943.915 1000.57V1000.57C939.952 1004.4 944.556 1009.5 950.068 1009.5L953.154 1009.5H956.24Z" fill="#454545"/>
<path d="M953.507 1005.06V1022.12" stroke="#454545" stroke-width="5" stroke-linecap="round"/>
<path d="M927.856 980.326C933.319 979.582 937.149 973.913 932.669 970.654V970.654C929.9 968.64 926.417 967.771 922.986 968.239C919.555 968.707 916.456 970.472 914.372 973.148V973.148C911 977.477 916.302 981.901 921.766 981.156L924.811 980.741L927.856 980.326Z" fill="#FFF6C5"/>
<ellipse cx="922.608" cy="993.286" rx="9.0048" ry="11.773" fill="#454545"/>
<ellipse rx="4.58679" ry="6.148" transform="matrix(0.987952 -0.154759 0.165435 0.986221 924.791 990.949)" fill="white"/>
<path d="M981.468 980.349C976.005 979.605 972.175 973.936 976.655 970.677V970.677C979.424 968.663 982.907 967.794 986.338 968.262C989.769 968.729 992.868 970.495 994.952 973.171V973.171C998.325 977.5 993.022 981.924 987.558 981.179L984.513 980.764L981.468 980.349Z" fill="#FFF6C5"/>
<ellipse rx="9.0048" ry="11.773" transform="matrix(-1 0 0 1 986.716 993.309)" fill="#454545"/>
<ellipse rx="4.5806" ry="6.15684" transform="matrix(-0.968412 0.249357 0.265816 0.964024 987.277 989.585)" fill="white"/>
<path d="M952.801 1021.78L941.854 1025.88C942.443 1030.54 944.149 1041.91 951.918 1041.91C959.687 1041.91 962.924 1034.41 963.395 1025.88L952.801 1021.78Z" fill="#EC6E5D"/>
<path d="M971.648 1017.4C968.3 1023.46 958.113 1029.87 953.516 1020.38" stroke="#454545" stroke-width="5" stroke-linecap="round"/>
<path d="M934.754 1017.53C938.102 1023.6 948.289 1030 952.886 1020.51" stroke="#454545" stroke-width="5" stroke-linecap="round"/>
<ellipse cx="912.544" cy="1017" rx="10.2408" ry="4.77745" fill="#FFA89D"/>
<ellipse rx="10.2408" ry="4.77745" transform="matrix(-1 0 0 1 996.589 1017)" fill="#FFA89D"/>
<path d="M1213.14 1083.03C1202.72 1108.91 1163.27 1117.76 1136.49 1106.97C1109.72 1096.19 1087.44 1064.3 1097.86 1038.43C1108.28 1012.56 1147.59 1002.18 1174.36 1012.96C1201.14 1023.75 1223.56 1057.16 1213.14 1083.03Z" fill="#ED8D47"/>
<path d="M1230.87 1025.79C1254.63 1027.71 1228.86 1058.32 1210.41 1070.16L1192.44 1028.57C1197.08 1028.99 1207.11 1023.88 1230.87 1025.79Z" fill="#ED8D47"/>
<path d="M1126.37 983.532C1107.92 968.446 1105.28 1008.37 1110.36 1029.69L1152.14 1012.17C1148.5 1009.26 1144.82 998.618 1126.37 983.532Z" fill="#ED8D47"/>
<path d="M1126.51 990.252C1114.52 980.427 1112.77 1006.47 1116.06 1020.38L1143.25 1008.92C1140.89 1007.02 1138.5 1000.08 1126.51 990.252Z" fill="#EC6E5D"/>
<path d="M1227.22 1030.82C1242.67 1032.05 1225.88 1052.04 1213.87 1059.78L1202.21 1032.67C1205.23 1032.94 1211.76 1029.59 1227.22 1030.82Z" fill="#EC6E5D"/>
<path d="M1206.56 1099.15C1194.63 1114.2 1163.19 1121.41 1135.96 1110.44C1108.74 1099.47 1091.39 1078.87 1092.58 1053.23C1091.49 1035.13 1128.89 1049.46 1156.11 1060.43C1183.34 1071.39 1217.4 1085.48 1206.56 1099.15Z" fill="#FFF6C5"/>
<ellipse cx="1148.88" cy="1078.85" rx="34.9598" ry="33.7834" transform="rotate(21.9424 1148.88 1078.85)" fill="#FFF6C5"/>
<path d="M1156.95 1064.44C1162.06 1066.5 1168.24 1063.5 1166 1058.46V1058.46C1164.61 1055.35 1162.02 1052.87 1158.81 1051.58C1155.59 1050.28 1152.01 1050.28 1148.86 1051.56V1051.56C1143.75 1053.63 1146.11 1060.08 1151.23 1062.14L1154.09 1063.29L1156.95 1064.44Z" fill="#454545"/>
<path d="M1156.07 1059.31L1149.7 1075.13" stroke="#454545" stroke-width="5" stroke-linecap="round"/>
<path d="M1141.52 1026.78C1146.87 1028.13 1152.54 1024.31 1149.6 1019.61V1019.61C1147.79 1016.71 1144.88 1014.6 1141.52 1013.75C1138.17 1012.9 1134.63 1013.38 1131.7 1015.08V1015.08C1126.95 1017.84 1130.22 1023.92 1135.56 1025.28L1138.54 1026.03L1141.52 1026.78Z" fill="#FFF6C5"/>
<ellipse cx="1131.81" cy="1036.84" rx="9.0048" ry="11.773" transform="rotate(21.9424 1131.81 1036.84)" fill="#454545"/>
<ellipse rx="4.58679" ry="6.148" transform="matrix(0.974214 0.225624 -0.215074 0.976598 1134.71 1035.49)" fill="white"/>
<path d="M1191.24 1046.84C1186.45 1044.1 1185.02 1037.42 1190.39 1036.07V1036.07C1193.71 1035.23 1197.27 1035.73 1200.28 1037.44C1203.29 1039.16 1205.5 1041.96 1206.43 1045.22V1045.22C1207.94 1050.49 1201.37 1052.61 1196.58 1049.88L1193.91 1048.36L1191.24 1046.84Z" fill="#FFF6C5"/>
<ellipse rx="9.0048" ry="11.773" transform="matrix(-0.92756 -0.373675 -0.373675 0.92756 1191.27 1060.82)" fill="#454545"/>
<ellipse rx="4.5806" ry="6.15684" transform="matrix(-0.991438 -0.130577 -0.113671 0.993518 1193.18 1057.57)" fill="white"/>
<path d="M1149.17 1074.55L1137.49 1074.26C1136.29 1078.81 1133.62 1090 1140.83 1092.9C1148.03 1095.8 1153.84 1090.05 1157.47 1082.31L1149.17 1074.55Z" fill="#EC6E5D"/>
<path d="M1168.29 1077.53C1162.92 1081.91 1151.08 1084.04 1150.36 1073.52" stroke="#454545" stroke-width="5" stroke-linecap="round"/>
<path d="M1134.02 1063.87C1134.86 1070.75 1141.91 1080.49 1149.72 1073.41" stroke="#454545" stroke-width="5" stroke-linecap="round"/>
<ellipse cx="1113.62" cy="1055.08" rx="10.2408" ry="4.77745" transform="rotate(21.9424 1113.62 1055.08)" fill="#FFA89D"/>
<ellipse rx="10.2408" ry="4.77745" transform="matrix(-0.92756 -0.373675 -0.373675 0.92756 1191.57 1086.49)" fill="#FFA89D"/>
<path d="M1100.76 1177.5C1112.27 1202.91 1091.43 1237.55 1065.14 1249.47C1038.85 1261.39 1000.41 1255.49 988.893 1230.08C977.377 1204.68 997.012 1169.08 1023.3 1157.16C1049.59 1145.24 1089.24 1152.1 1100.76 1177.5Z" fill="#ED8D47"/>
<path d="M1071.6 1125.15C1089.39 1109.29 1093.73 1149.06 1089.56 1170.59L1047.07 1154.86C1050.58 1151.8 1053.81 1141.01 1071.6 1125.15Z" fill="#ED8D47"/>
<path d="M968.872 1171.55C945.218 1174.48 972.268 1203.96 991.205 1215L1007.38 1172.69C1002.77 1173.31 992.526 1168.62 968.872 1171.55Z" fill="#ED8D47"/>
<path d="M973.83 1176.09C958.442 1177.98 976.069 1197.23 988.401 1204.45L998.89 1176.87C995.886 1177.26 989.218 1174.2 973.83 1176.09Z" fill="#EC6E5D"/>
<path d="M1072.72 1131.27C1084.28 1120.94 1087.14 1146.88 1084.44 1160.92L1056.78 1150.62C1059.06 1148.63 1061.15 1141.59 1072.72 1131.27Z" fill="#EC6E5D"/>
<path d="M1107.87 1193.38C1110.52 1212.42 1094.02 1240.13 1067.29 1252.25C1040.55 1264.36 1013.67 1262.69 995.945 1244.12C982.107 1232.41 1018.29 1215.26 1045.03 1203.14C1071.76 1191.02 1105.47 1176.11 1107.87 1193.38Z" fill="#FFF6C5"/>
<ellipse cx="1053.36" cy="1221.09" rx="34.9598" ry="33.7834" transform="rotate(-24.3841 1053.36 1221.09)" fill="#FFF6C5"/>
<path d="M1048.51 1205.3C1053.53 1203.03 1055.62 1196.48 1050.43 1194.63V1194.63C1047.22 1193.49 1043.65 1193.65 1040.49 1195.08C1037.33 1196.51 1034.86 1199.09 1033.6 1202.26V1202.26C1031.57 1207.39 1037.87 1210.13 1042.89 1207.85L1045.7 1206.58L1048.51 1205.3Z" fill="#454545"/>
<path d="M1044.19 1202.39L1051.24 1217.93" stroke="#454545" stroke-width="5" stroke-linecap="round"/>
<path d="M1010.62 1190.46C1015.29 1187.52 1016.43 1180.78 1011.01 1179.66V1179.66C1007.66 1178.97 1004.12 1179.61 1001.19 1181.46C998.26 1183.3 996.167 1186.19 995.373 1189.48V1189.48C994.089 1194.82 1000.75 1196.66 1005.41 1193.73L1008.02 1192.09L1010.62 1190.46Z" fill="#FFF6C5"/>
<ellipse cx="1011.19" cy="1204.43" rx="9.0048" ry="11.773" transform="rotate(-24.3841 1011.19 1204.43)" fill="#454545"/>
<ellipse rx="4.58679" ry="6.148" transform="matrix(0.835932 -0.548832 0.557841 0.829948 1012.21 1201.4)" fill="white"/>
<path d="M1059.46 1168.34C1054.17 1169.92 1048.35 1166.34 1051.08 1161.52V1161.52C1052.77 1158.54 1055.58 1156.31 1058.9 1155.32C1062.22 1154.33 1065.77 1154.66 1068.77 1156.24V1156.24C1073.63 1158.79 1070.63 1165.01 1065.35 1166.58L1062.4 1167.46L1059.46 1168.34Z" fill="#FFF6C5"/>
<ellipse rx="9.0048" ry="11.773" transform="matrix(-0.910798 0.412852 0.412852 0.910798 1069.59 1177.98)" fill="#454545"/>
<ellipse rx="4.5806" ry="6.15684" transform="matrix(-0.77908 0.626925 0.640104 0.768288 1068.56 1174.36)" fill="white"/>
<path d="M1050.45 1217.91L1042.17 1226.16C1044.63 1230.17 1050.88 1239.82 1057.96 1236.62C1065.04 1233.41 1064.88 1225.23 1061.79 1217.27L1050.45 1217.91Z" fill="#EC6E5D"/>
<path d="M1065.81 1206.14C1065.26 1213.05 1058.63 1223.09 1050.52 1216.34" stroke="#454545" stroke-width="5" stroke-linecap="round"/>
<path d="M1032.26 1221.49C1037.81 1225.64 1049.74 1227.26 1050 1216.72" stroke="#454545" stroke-width="5" stroke-linecap="round"/>
<ellipse cx="1011.81" cy="1230.18" rx="10.2408" ry="4.77745" transform="rotate(-24.3841 1011.81 1230.18)" fill="#FFA89D"/>
<ellipse rx="10.2408" ry="4.77745" transform="matrix(-0.910798 0.412852 0.412852 0.910798 1088.36 1195.48)" fill="#FFA89D"/>
</svg>
