<?xml version="1.0" encoding="utf-8"?>
<!-- Generator: Adobe Illustrator 24.3.0, SVG Export Plug-In . SVG Version: 6.00 Build 0)  -->
<svg version="1.1" id="Layer_1" xmlns="http://www.w3.org/2000/svg" xmlns:xlink="http://www.w3.org/1999/xlink" x="0px" y="0px"
	 viewBox="0 0 512 512" style="enable-background:new 0 0 512 512;" xml:space="preserve">
<style type="text/css">
	.st0{fill-rule:evenodd;clip-rule:evenodd;fill:#CBDBE8;}
	.st1{fill-rule:evenodd;clip-rule:evenodd;fill:#DFEBF2;}
	.st2{fill:#99A4AA;stroke:#000000;stroke-width:5;stroke-linecap:round;stroke-linejoin:round;stroke-miterlimit:10;}
	.st3{fill:#DFEBF2;stroke:#000000;stroke-width:5;stroke-linecap:round;stroke-linejoin:round;stroke-miterlimit:10;}
	.st4{fill-rule:evenodd;clip-rule:evenodd;fill:#DFEBF2;stroke:#000000;stroke-width:5;stroke-miterlimit:10;}
	
		.st5{fill-rule:evenodd;clip-rule:evenodd;fill:#99A4AA;stroke:#000000;stroke-width:5;stroke-linecap:round;stroke-linejoin:round;stroke-miterlimit:10;}
</style>
<circle class="st1" cx="256" cy="256" r="250"/>
<path id="logo" class="st2" d="M369.5,170.8c0,0-32.5-25.5-71-28.4l-3.4,6.9c34.8,8.5,50.7,20.7,67.4,35.6
	c-28.7-14.6-57.1-28.4-106.5-28.4s-77.8,13.8-106.5,28.4c16.7-14.9,35.6-28.5,67.4-35.6l-3.4-6.9c-40.3,3.8-71,28.4-71,28.4
	S106,223.5,99.8,327c36.6,42.3,92.3,42.6,92.3,42.6l11.6-15.5c-19.7-6.8-42.1-19.1-61.3-41.3c22.9,17.4,57.7,35.5,113.7,35.5
	s90.6-18.1,113.7-35.5c-19.2,22.2-41.6,34.5-61.3,41.3l11.6,15.5c0,0,55.7-0.3,92.3-42.6C405.8,223.5,369.5,170.8,369.5,170.8z
	 M209.6,298.6c-13.8,0-24.9-12.7-24.9-28.4s11.1-28.4,24.9-28.4c13.8,0,24.9,12.7,24.9,28.4S223.4,298.6,209.6,298.6z M302,298.6
	c-13.8,0-24.9-12.7-24.9-28.4s11.1-28.4,24.9-28.4c13.8,0,24.9,12.7,24.9,28.4S315.7,298.6,302,298.6z"/>
</svg>
