<?xml version="1.0" encoding="utf-8"?>
<!-- Generator: Adobe Illustrator 24.3.0, SVG Export Plug-In . SVG Version: 6.00 Build 0)  -->
<svg version="1.1" id="Layer_1" xmlns="http://www.w3.org/2000/svg" xmlns:xlink="http://www.w3.org/1999/xlink" x="0px" y="0px"
	 viewBox="0 0 1500 1500" style="enable-background:new 0 0 1500 1500;" xml:space="preserve">
<style type="text/css">
	.st0{fill:#CBDBE8;}
	.st1{fill:#DFEBF2;}
	.st2{fill:#C9D3DC;}
	.st3{fill:#BB3437;}
	.st4{fill:none;stroke:#000000;stroke-width:5;stroke-linejoin:round;stroke-miterlimit:10;}
	.st5{fill:none;stroke:#000000;stroke-width:5;stroke-miterlimit:10;}
	.st6{fill:#C5D1DA;}
	.st7{fill:#9B1C2E;}
	.st8{clip-path:url(#SVGID_2_);}
	.st9{opacity:0.7;}
	.st10{fill:#ABB8C1;}
	.st11{fill:none;stroke:#000000;stroke-width:5;stroke-linecap:round;stroke-linejoin:round;stroke-miterlimit:10;}
	.st12{fill:#FFFFFF;}
	.st13{fill:#BB3437;stroke:#000000;stroke-width:5;stroke-miterlimit:10;}
	.st14{fill:#DDEDF2;}
	.st15{fill:#C9D3DC;stroke:#000000;stroke-width:5;stroke-miterlimit:10;}
</style>
<g>
	<g>
		<g>
			<g>
				<g>
					<rect x="920.2" y="375.7" class="st0" width="100" height="100"/>
				</g>
			</g>
			<g>
				<g>
					<path d="M1020.2,478.2h-100c-1.4,0-2.5-1.1-2.5-2.5v-100c0-1.4,1.1-2.5,2.5-2.5h100c1.4,0,2.5,1.1,2.5,2.5v100
						C1022.7,477.1,1021.6,478.2,1020.2,478.2z M922.7,473.2h95v-95h-95V473.2z"/>
				</g>
			</g>
		</g>
		<g>
			<g>
				<g>
					<rect x="1079.8" y="375.7" class="st0" width="100" height="100"/>
				</g>
			</g>
			<g>
				<g>
					<path d="M1179.8,478.2h-100c-1.4,0-2.5-1.1-2.5-2.5v-100c0-1.4,1.1-2.5,2.5-2.5h100c1.4,0,2.5,1.1,2.5,2.5v100
						C1182.3,477.1,1181.2,478.2,1179.8,478.2z M1082.3,473.2h95v-95h-95V473.2z"/>
				</g>
			</g>
		</g>
		<g>
			<g>
				<g>
					<rect x="920.2" y="535.3" class="st0" width="100" height="100"/>
				</g>
			</g>
			<g>
				<g>
					<path d="M1020.2,637.8h-100c-1.4,0-2.5-1.1-2.5-2.5v-100c0-1.4,1.1-2.5,2.5-2.5h100c1.4,0,2.5,1.1,2.5,2.5v100
						C1022.7,636.7,1021.6,637.8,1020.2,637.8z M922.7,632.8h95v-95h-95V632.8z"/>
				</g>
			</g>
		</g>
		<g>
			<g>
				<g>
					<rect x="1079.8" y="535.3" class="st0" width="100" height="100"/>
				</g>
			</g>
			<g>
				<g>
					<path d="M1179.8,637.8h-100c-1.4,0-2.5-1.1-2.5-2.5v-100c0-1.4,1.1-2.5,2.5-2.5h100c1.4,0,2.5,1.1,2.5,2.5v100
						C1182.3,636.7,1181.2,637.8,1179.8,637.8z M1082.3,632.8h95v-95h-95V632.8z"/>
				</g>
			</g>
		</g>
	</g>
	<g>
		<g>
			<rect x="150" y="205.5" class="st1" width="600" height="600"/>
		</g>
	</g>
	<g>
		<g>
			<rect x="750" y="805.5" class="st0" width="600" height="600"/>
		</g>
	</g>
	<g>
		<g>
			<g>
				<polygon class="st1" points="579.8,1075.7 579.8,1039.7 579.8,975.7 479.8,975.7 479.8,1039.7 479.8,1075.7 479.8,1235.3 
					579.8,1235.3 				"/>
			</g>
			<g>
				<path d="M579.8,1237.8h-100c-1.4,0-2.5-1.1-2.5-2.5V975.7c0-1.4,1.1-2.5,2.5-2.5h100c1.4,0,2.5,1.1,2.5,2.5v259.7
					C582.3,1236.7,581.2,1237.8,579.8,1237.8z M482.3,1232.8h95V978.2h-95V1232.8z"/>
			</g>
		</g>
		<g>
			<g>
				<polygon class="st1" points="420.2,1179.2 420.2,1135.3 420.2,975.7 320.2,975.7 320.2,1135.3 320.2,1179.2 320.2,1235.3 
					420.2,1235.3 				"/>
			</g>
			<g>
				<path d="M420.2,1237.8h-100c-1.4,0-2.5-1.1-2.5-2.5V975.7c0-1.4,1.1-2.5,2.5-2.5h100c1.4,0,2.5,1.1,2.5,2.5v259.7
					C422.7,1236.7,421.6,1237.8,420.2,1237.8z M322.7,1232.8h95V978.2h-95V1232.8z"/>
			</g>
		</g>
	</g>
	<g>
		<g>
			<g>
				<circle class="st1" cx="841.3" cy="893.3" r="25"/>
			</g>
		</g>
		<g>
			<g>
				<path d="M841.3,920.8c-15.2,0-27.5-12.3-27.5-27.5s12.3-27.5,27.5-27.5s27.5,12.3,27.5,27.5S856.5,920.8,841.3,920.8z
					 M841.3,870.8c-12.4,0-22.5,10.1-22.5,22.5s10.1,22.5,22.5,22.5s22.5-10.1,22.5-22.5S853.7,870.8,841.3,870.8z"/>
			</g>
		</g>
	</g>
	<g>
		<g>
			<g>
				<circle class="st2" cx="530.2" cy="1183.5" r="25"/>
			</g>
		</g>
		<g>
			<g>
				<path d="M530.2,1211c-15.2,0-27.5-12.3-27.5-27.5s12.3-27.5,27.5-27.5s27.5,12.3,27.5,27.5S545.3,1211,530.2,1211z M530.2,1161
					c-12.4,0-22.5,10.1-22.5,22.5s10.1,22.5,22.5,22.5s22.5-10.1,22.5-22.5S542.6,1161,530.2,1161z"/>
			</g>
		</g>
	</g>
	<g>
		<g>
			<g>
				<circle class="st2" cx="370.2" cy="1183.5" r="25"/>
			</g>
		</g>
		<g>
			<g>
				<path d="M370.2,1211c-15.2,0-27.5-12.3-27.5-27.5s12.3-27.5,27.5-27.5s27.5,12.3,27.5,27.5S385.3,1211,370.2,1211z M370.2,1161
					c-12.4,0-22.5,10.1-22.5,22.5s10.1,22.5,22.5,22.5s22.5-10.1,22.5-22.5S382.6,1161,370.2,1161z"/>
			</g>
		</g>
	</g>
	<g>
		<g>
			<g>
				<circle class="st2" cx="530.2" cy="1027.5" r="25"/>
			</g>
		</g>
		<g>
			<g>
				<path d="M530.2,1055c-15.2,0-27.5-12.3-27.5-27.5s12.3-27.5,27.5-27.5s27.5,12.3,27.5,27.5S545.3,1055,530.2,1055z M530.2,1005
					c-12.4,0-22.5,10.1-22.5,22.5s10.1,22.5,22.5,22.5s22.5-10.1,22.5-22.5S542.6,1005,530.2,1005z"/>
			</g>
		</g>
	</g>
	<g>
		<g>
			<g>
				<circle class="st1" cx="970.2" cy="425.7" r="25"/>
			</g>
		</g>
		<g>
			<g>
				<path d="M970.2,453.2c-15.2,0-27.5-12.3-27.5-27.5s12.3-27.5,27.5-27.5s27.5,12.3,27.5,27.5S985.3,453.2,970.2,453.2z
					 M970.2,403.2c-12.4,0-22.5,10.1-22.5,22.5s10.1,22.5,22.5,22.5s22.5-10.1,22.5-22.5S982.6,403.2,970.2,403.2z"/>
			</g>
		</g>
	</g>
	<g>
		<g>
			<g>
				<circle class="st1" cx="970.2" cy="585.3" r="25"/>
			</g>
		</g>
		<g>
			<g>
				<path d="M970.2,612.8c-15.2,0-27.5-12.3-27.5-27.5s12.3-27.5,27.5-27.5s27.5,12.3,27.5,27.5S985.3,612.8,970.2,612.8z
					 M970.2,562.8c-12.4,0-22.5,10.1-22.5,22.5s10.1,22.5,22.5,22.5s22.5-10.1,22.5-22.5S982.6,562.8,970.2,562.8z"/>
			</g>
		</g>
	</g>
	<g>
		<g>
			<g>
				<circle class="st1" cx="1129.8" cy="585.3" r="25"/>
			</g>
		</g>
		<g>
			<g>
				<path d="M1129.8,612.8c-15.2,0-27.5-12.3-27.5-27.5s12.3-27.5,27.5-27.5s27.5,12.3,27.5,27.5S1145,612.8,1129.8,612.8z
					 M1129.8,562.8c-12.4,0-22.5,10.1-22.5,22.5s10.1,22.5,22.5,22.5s22.5-10.1,22.5-22.5S1142.2,562.8,1129.8,562.8z"/>
			</g>
		</g>
	</g>
	<g>
		<g>
			<g>
				<circle class="st1" cx="1129.8" cy="425.7" r="25"/>
			</g>
		</g>
		<g>
			<g>
				<path d="M1129.8,453.2c-15.2,0-27.5-12.3-27.5-27.5s12.3-27.5,27.5-27.5s27.5,12.3,27.5,27.5S1145,453.2,1129.8,453.2z
					 M1129.8,403.2c-12.4,0-22.5,10.1-22.5,22.5s10.1,22.5,22.5,22.5s22.5-10.1,22.5-22.5S1142.2,403.2,1129.8,403.2z"/>
			</g>
		</g>
	</g>
	<g>
		<g>
			<g>
				<circle class="st3" cx="370.2" cy="1027.5" r="25"/>
			</g>
		</g>
		<g>
			<g>
				<path d="M370.2,1055c-15.2,0-27.5-12.3-27.5-27.5s12.3-27.5,27.5-27.5s27.5,12.3,27.5,27.5S385.3,1055,370.2,1055z M370.2,1005
					c-12.4,0-22.5,10.1-22.5,22.5s10.1,22.5,22.5,22.5s22.5-10.1,22.5-22.5S382.6,1005,370.2,1005z"/>
			</g>
		</g>
	</g>
	<g>
		<g>
			<g>
				<g>
					<circle class="st3" cx="1129.8" cy="253.7" r="25"/>
				</g>
			</g>
			<g>
				<g>
					<path d="M1129.8,281.2c-15.2,0-27.5-12.3-27.5-27.5s12.3-27.5,27.5-27.5s27.5,12.3,27.5,27.5S1145,281.2,1129.8,281.2z
						 M1129.8,231.2c-12.4,0-22.5,10.1-22.5,22.5s10.1,22.5,22.5,22.5s22.5-10.1,22.5-22.5S1142.2,231.2,1129.8,231.2z"/>
				</g>
			</g>
		</g>
		<g>
			<g>
				<rect x="1127.4" y="278" width="5" height="97.7"/>
			</g>
		</g>
	</g>
	<g>
		<g>
			<g>
				<g>
					<g>
						<circle class="st3" cx="241.3" cy="119.5" r="25"/>
					</g>
				</g>
				<g>
					<g>
						<path d="M241.3,147c-15.2,0-27.5-12.3-27.5-27.5S226.2,92,241.3,92s27.5,12.3,27.5,27.5S256.5,147,241.3,147z M241.3,97
							c-12.4,0-22.5,10.1-22.5,22.5s10.1,22.5,22.5,22.5s22.5-10.1,22.5-22.5S253.7,97,241.3,97z"/>
					</g>
				</g>
			</g>
			<g>
				<g>
					<rect x="238.9" y="143.8" width="5" height="124.5"/>
				</g>
			</g>
		</g>
	</g>
	<g>
		<g>
			<g>
				<circle class="st2" cx="657.8" cy="717.2" r="25"/>
			</g>
		</g>
		<g>
			<g>
				<path d="M657.8,744.7c-15.2,0-27.5-12.3-27.5-27.5s12.3-27.5,27.5-27.5s27.5,12.3,27.5,27.5S673,744.7,657.8,744.7z
					 M657.8,694.7c-12.4,0-22.5,10.1-22.5,22.5s10.1,22.5,22.5,22.5s22.5-10.1,22.5-22.5S670.2,694.7,657.8,694.7z"/>
			</g>
		</g>
	</g>
	<g>
		<g>
			<g>
				<circle class="st2" cx="241.3" cy="293.3" r="25"/>
			</g>
		</g>
		<g>
			<g>
				<path d="M241.3,320.8c-15.2,0-27.5-12.3-27.5-27.5s12.3-27.5,27.5-27.5s27.5,12.3,27.5,27.5S256.5,320.8,241.3,320.8z
					 M241.3,270.8c-12.4,0-22.5,10.1-22.5,22.5s10.1,22.5,22.5,22.5s22.5-10.1,22.5-22.5S253.7,270.8,241.3,270.8z"/>
			</g>
		</g>
	</g>
	<g>
		<g>
			<g>
				<circle class="st3" cx="657.6" cy="293.3" r="25"/>
			</g>
		</g>
		<g>
			<g>
				<path d="M657.6,320.8c-15.2,0-27.5-12.3-27.5-27.5s12.3-27.5,27.5-27.5s27.5,12.3,27.5,27.5S672.8,320.8,657.6,320.8z
					 M657.6,270.8c-12.4,0-22.5,10.1-22.5,22.5s10.1,22.5,22.5,22.5s22.5-10.1,22.5-22.5S670,270.8,657.6,270.8z"/>
			</g>
		</g>
	</g>
	<g>
		<g>
			<g>
				<circle class="st2" cx="241.5" cy="717.7" r="25"/>
			</g>
		</g>
		<g>
			<g>
				<path d="M241.5,745.2c-15.2,0-27.5-12.3-27.5-27.5s12.3-27.5,27.5-27.5s27.5,12.3,27.5,27.5S256.7,745.2,241.5,745.2z
					 M241.5,695.2c-12.4,0-22.5,10.1-22.5,22.5s10.1,22.5,22.5,22.5s22.5-10.1,22.5-22.5S253.9,695.2,241.5,695.2z"/>
			</g>
		</g>
	</g>
	<g>
		<g>
			<g>
				<circle class="st3" cx="841.3" cy="1317" r="25"/>
			</g>
		</g>
		<g>
			<g>
				<path d="M841.3,1344.5c-15.2,0-27.5-12.3-27.5-27.5s12.3-27.5,27.5-27.5s27.5,12.3,27.5,27.5S856.5,1344.5,841.3,1344.5z
					 M841.3,1294.5c-12.4,0-22.5,10.1-22.5,22.5s10.1,22.5,22.5,22.5s22.5-10.1,22.5-22.5S853.7,1294.5,841.3,1294.5z"/>
			</g>
		</g>
	</g>
	<g>
		<g>
			<g>
				<circle class="st1" cx="1259" cy="893.3" r="25"/>
			</g>
		</g>
		<g>
			<g>
				<path d="M1259,920.8c-15.2,0-27.5-12.3-27.5-27.5s12.3-27.5,27.5-27.5s27.5,12.3,27.5,27.5S1274.2,920.8,1259,920.8z
					 M1259,870.8c-12.4,0-22.5,10.1-22.5,22.5s10.1,22.5,22.5,22.5s22.5-10.1,22.5-22.5S1271.4,870.8,1259,870.8z"/>
			</g>
		</g>
	</g>
	<g>
		<g>
			<g>
				<circle class="st1" cx="1259" cy="1317" r="25"/>
			</g>
		</g>
		<g>
			<g>
				<path d="M1259,1344.5c-15.2,0-27.5-12.3-27.5-27.5s12.3-27.5,27.5-27.5s27.5,12.3,27.5,27.5S1274.2,1344.5,1259,1344.5z
					 M1259,1294.5c-12.4,0-22.5,10.1-22.5,22.5s10.1,22.5,22.5,22.5s22.5-10.1,22.5-22.5S1271.4,1294.5,1259,1294.5z"/>
			</g>
		</g>
	</g>
	<g>
		<g>
			<path d="M320.2,1186.1h-50.5c-1.4,0-2.5-1.1-2.5-2.5v-156.5c0-1.4,1.1-2.5,2.5-2.5h50.5v5h-48v151.5h48V1186.1z"/>
		</g>
	</g>
	<g>
		<g>
			<rect x="420.2" y="1181.6" width="59.7" height="5"/>
		</g>
	</g>
	<g>
		<g>
			<rect x="527.7" y="805.5" width="5" height="170.2"/>
		</g>
	</g>
	<g>
		<g>
			<rect x="867.7" y="890.9" width="366.3" height="5"/>
		</g>
	</g>
	<g>
		<g>
			<rect x="867.7" y="1314.5" width="366.3" height="5"/>
		</g>
	</g>
	<g>
		<g>
			<rect x="266.3" y="715.2" width="366.3" height="5"/>
		</g>
	</g>
	<g>
		<g>
			<rect x="238.8" y="318.3" width="5" height="373.9"/>
		</g>
	</g>
	<g>
		<g>
			<rect x="655.1" y="318.3" width="5" height="373.9"/>
		</g>
	</g>
	<g>
		<g>
			<rect x="1256.5" y="918.4" width="5" height="373.9"/>
		</g>
	</g>
	<g>
		<g>
			<path d="M970.2,378.2c-1.4,0-2.5-1.1-2.5-2.5v-79.9H682.8c-1.4,0-2.5-1.1-2.5-2.5s1.1-2.5,2.5-2.5h287.4c1.4,0,2.5,1.1,2.5,2.5
				v82.4C972.7,377.1,971.6,378.2,970.2,378.2z"/>
		</g>
	</g>
	<g>
		<g>
			<rect x="967.7" y="475.7" width="5" height="59.7"/>
		</g>
	</g>
	<g>
		<g>
			<rect x="750" y="582.8" width="170.2" height="5"/>
		</g>
	</g>
	<g>
		<g>
			<rect x="420.2" y="1025" width="59.7" height="5"/>
		</g>
	</g>
	<g>
		<g>
			<path d="M816.3,1319.5H529.8c-1.4,0-2.5-1.1-2.5-2.5v-81.7c0-1.4,1.1-2.5,2.5-2.5s2.5,1.1,2.5,2.5v79.2h284
				c1.4,0,2.5,1.1,2.5,2.5S817.7,1319.5,816.3,1319.5z"/>
		</g>
	</g>
	<g>
		<g>
			<path d="M843.8,868.3h-5V726c0-1.4,1.1-2.5,2.5-2.5h286v-88.1h5V726c0,1.4-1.1,2.5-2.5,2.5h-286V868.3z"/>
		</g>
	</g>
	<g>
		<g>
			<rect x="1127.3" y="475.7" width="5" height="59.7"/>
		</g>
	</g>
	<g>
		<g>
			<g>
				<path d="M330.8,491c-13.5,0-25.9-7.8-32-20.3c-0.2-0.3-0.4-0.7-0.4-1.2l0,0c-0.1-1.2,0.7-2.3,1.9-2.6c1.2-0.3,2.4,0.3,2.9,1.3
					c5.4,11.4,16.9,18.3,29.2,17.7c11-0.6,20.9-7.3,25.8-17.6c0-0.1,0.1-0.2,0.1-0.3c5.7-12,17.2-19.8,30.1-20.5
					c14.2-0.8,27.5,7.1,33.8,20.2c0.1,0.1,0.1,0.2,0.1,0.3c5.4,11.4,16.9,18.3,29.2,17.7c11.1-0.6,21-7.4,25.9-17.7
					c0-0.1,0.1-0.2,0.1-0.3c5.7-11.8,17.2-19.5,30-20.2c14.2-0.8,27.5,7.1,33.8,20.2c0.1,0.1,0.1,0.2,0.1,0.3
					c5.4,11.4,16.9,18.3,29.2,17.7c11.1-0.6,21-7.4,25.9-17.7c0.6-1.2,2.1-1.8,3.3-1.2c1.2,0.6,1.8,2.1,1.2,3.3
					c-5.7,12-17.2,19.8-30.1,20.5c-14.2,0.8-27.5-7.1-33.8-20.2c-0.1-0.1-0.1-0.2-0.1-0.3c-5.4-11.4-16.9-18.3-29.2-17.7
					c-11.1,0.6-21,7.4-25.9,17.7c0,0.1-0.1,0.2-0.1,0.3c-5.7,11.8-17.2,19.5-30,20.2c-14.2,0.8-27.5-7.1-33.8-20.2
					c-0.1-0.1-0.1-0.2-0.1-0.3c-5.4-11.4-16.9-18.3-29.2-17.7c-11,0.6-20.9,7.3-25.8,17.4c0,0.1-0.1,0.2-0.1,0.3
					c-5.7,12-17.3,19.9-30.1,20.6C332,490.9,331.4,491,330.8,491z"/>
			</g>
		</g>
		<g>
			<g>
				<path d="M330.8,563.5c-13.5,0-25.9-7.8-32-20.3c-0.2-0.3-0.4-0.7-0.4-1.2l0,0c-0.1-1.2,0.7-2.3,1.9-2.6c1.2-0.3,2.4,0.3,2.9,1.3
					c5.4,11.4,16.9,18.3,29.2,17.7c11-0.6,20.9-7.3,25.8-17.6c0-0.1,0.1-0.2,0.1-0.3c5.7-12,17.2-19.8,30.1-20.5
					c14.2-0.8,27.5,7.1,33.8,20.2c0.1,0.1,0.1,0.2,0.1,0.3c5.4,11.4,16.9,18.3,29.2,17.7c11.1-0.6,21-7.4,25.9-17.7
					c0-0.1,0.1-0.2,0.1-0.3c5.7-11.8,17.2-19.5,30-20.2c14.2-0.8,27.5,7.1,33.8,20.2c0.1,0.1,0.1,0.2,0.1,0.3
					c5.4,11.4,16.9,18.3,29.2,17.7c11.1-0.6,21-7.4,25.9-17.7c0.6-1.2,2.1-1.8,3.3-1.2c1.2,0.6,1.8,2.1,1.2,3.3
					c-5.7,12-17.2,19.8-30.1,20.5c-14.2,0.8-27.5-7.1-33.8-20.2c-0.1-0.1-0.1-0.2-0.1-0.3c-5.4-11.4-16.9-18.3-29.2-17.7
					c-11.1,0.6-21,7.4-25.9,17.7c0,0.1-0.1,0.2-0.1,0.3c-5.7,11.8-17.2,19.5-30,20.2c-14.2,0.8-27.5-7.1-33.8-20.2
					c-0.1-0.1-0.1-0.2-0.1-0.3c-5.4-11.4-16.9-18.3-29.2-17.7c-11,0.6-20.9,7.3-25.8,17.4c0,0.1-0.1,0.2-0.1,0.3
					c-5.7,12-17.3,19.9-30.1,20.6C332,563.4,331.4,563.5,330.8,563.5z"/>
			</g>
		</g>
	</g>
	<g>
		<g>
			<g>
				<path d="M1199.1,1035.5H900.9c-1.4,0-2.5-1.1-2.5-2.5s1.1-2.5,2.5-2.5h298.1c1.4,0,2.5,1.1,2.5,2.5S1200.4,1035.5,1199.1,1035.5
					z"/>
			</g>
		</g>
		<g>
			<g>
				<path d="M1199.1,1108H900.9c-1.4,0-2.5-1.1-2.5-2.5s1.1-2.5,2.5-2.5h298.1c1.4,0,2.5,1.1,2.5,2.5S1200.4,1108,1199.1,1108z"/>
			</g>
		</g>
		<g>
			<g>
				<path d="M1065.6,1180.5H900.9c-1.4,0-2.5-1.1-2.5-2.5s1.1-2.5,2.5-2.5h164.6c1.4,0,2.5,1.1,2.5,2.5S1067,1180.5,1065.6,1180.5z"
					/>
			</g>
		</g>
	</g>
	<g>
		<g>
			<rect x="266.3" y="290.8" width="366.3" height="5"/>
		</g>
	</g>
	<g>
		<g>
			<rect x="838.8" y="918.3" width="5" height="373.7"/>
		</g>
	</g>
</g>
</svg>
