<?xml version="1.0" encoding="utf-8"?>
<!-- Generator: Adobe Illustrator 24.3.0, SVG Export Plug-In . SVG Version: 6.00 Build 0)  -->
<svg version="1.1" id="Layer_1" xmlns="http://www.w3.org/2000/svg" xmlns:xlink="http://www.w3.org/1999/xlink" x="0px" y="0px"
	 viewBox="0 0 1024 1024" style="enable-background:new 0 0 1024 1024;" xml:space="preserve">
<style type="text/css">
	.st0{fill:#FF5B7E;}
	.st1{fill:#FFFFFF;}
	.st2{fill:#CBDBE8;}
	.st3{fill:#DFEBF2;}
	.st4{fill:#ABB8C1;}
	.st5{fill:#961518;}
	.st6{fill:#99A5AA;}
	.st7{fill:#E96848;}
	.st8{fill:#FFBAB9;}
	.st9{fill:#FFA0A0;}
	.st10{fill:#F5887E;}
	.st11{fill:#070200;}
	.st12{fill:#F9B9B9;}
	.st13{fill:#C9D3DC;}
	.st14{fill:#99A4AA;}
	.st15{opacity:0.7;}
	.st16{fill:#BB3437;}
	.st17{fill:none;stroke:#000000;stroke-width:3;stroke-linecap:round;stroke-linejoin:round;stroke-miterlimit:10;}
	.st18{fill:#3D3939;}
	.st19{clip-path:url(#SVGID_2_);}
	.st20{fill:#A4AEB2;}
	.st21{fill:#D8AD9C;}
	.st22{fill:#4F8BC6;}
	.st23{fill:#873C3A;}
	.st24{fill:#7F2F2F;}
	.st25{fill:#E9C5B5;}
	.st26{fill:#8B9950;}
	.st27{fill:#4C100D;}
	.st28{opacity:0.45;}
	.st29{fill:#EA4456;}
</style>
<g>
	<g>
		<g>
			<path class="st0" d="M481.4,575.2c-0.3-0.1-29.6-8.6-46.9-33.1l-0.2-0.3l0-0.3c0-0.3,0-7,5.3-12.5c4.4-4.4,10.9-6.6,19.4-6.6
				c2.9,0,6,0.3,9.3,0.8c14.1,2.2,23.8,9.7,26.5,20.6c2.8,11.1-2.3,23.7-12.6,31.3l-0.4,0.3L481.4,575.2z"/>
		</g>
		<g>
			<path d="M459.2,523.4c2.7,0,5.7,0.2,9.1,0.7c32.2,4.9,32.7,35.7,13.4,50c0,0-29-8.2-46.3-32.7
				C435.4,541.4,435.2,523.4,459.2,523.4 M459.2,521.3L459.2,521.3c-8.9,0-15.6,2.3-20.2,7c-5.7,5.8-5.7,12.9-5.7,13.2l0,0.7
				l0.4,0.5c9.1,13,21.5,21.4,30.3,26.2c9.5,5.2,16.8,7.3,17.1,7.3l1,0.3l0.8-0.6c10.6-7.9,15.9-20.9,13-32.4
				c-2.8-11.4-12.8-19.2-27.4-21.4C465.3,521.5,462.1,521.3,459.2,521.3L459.2,521.3z"/>
		</g>
	</g>
	<g>
		<rect x="256" y="512.4" class="st1" width="256" height="255.8"/>
	</g>
	<g>
		<rect x="768" y="0.9" class="st1" width="256" height="255.8"/>
	</g>
	<g>
		<rect x="0" y="0.9" class="st2" width="256" height="255.8"/>
	</g>
	<g>
		<rect x="256" y="0.9" class="st3" width="256" height="255.8"/>
	</g>
	<g>
		<rect x="512" y="0.9" class="st1" width="256" height="255.8"/>
	</g>
	<g>
		<rect x="0" y="256.6" class="st1" width="256" height="255.8"/>
	</g>
	<g>
		<rect x="256" y="256.6" class="st4" width="256" height="255.8"/>
	</g>
	<g>
		<rect x="512" y="256.6" class="st3" width="256" height="255.8"/>
	</g>
	<g>
		<rect x="768" y="256.6" class="st1" width="256" height="255.8"/>
	</g>
	<g>
		<rect x="0" y="512.4" class="st1" width="256" height="255.8"/>
	</g>
	<g>
		<rect x="768" y="512.4" class="st1" width="256" height="255.8"/>
	</g>
	<g>
		<rect x="0" y="768.2" class="st1" width="256" height="255.8"/>
	</g>
	<g>
		<rect x="256" y="768.2" class="st1" width="256" height="255.8"/>
	</g>
	<g>
		<rect x="512" y="768.2" class="st1" width="256" height="255.8"/>
	</g>
	<g>
		<rect x="768" y="768.2" class="st3" width="256" height="255.8"/>
	</g>
	<g>
		<path class="st3" d="M552.1,512.4l0,255.8l-127.8,0c-70.8,0-128.2-57.3-128.2-127.9c0-70.6,57.4-127.9,128.2-127.9H552.1z"/>
	</g>
	<g>
		<path class="st4" d="M768,768.2V512.4h127.8c70.8,0,128.2,57.3,128.2,127.9c0,70.6-57.4,127.9-128.2,127.9L768,768.2z"/>
	</g>
	<g>
		<g>
			<g>
				<path d="M843.7,863.5h-20.6c-0.6,0-1.1-0.5-1.1-1.1v-37.3c0-0.6,0.5-1.1,1.1-1.1h20.6c0.6,0,1.1,0.5,1.1,1.1v37.3
					C844.7,863,844.2,863.5,843.7,863.5z M824.1,861.4h18.5v-35.1h-18.5V861.4z"/>
			</g>
			<g>
				<path d="M860.9,863.5c-0.6,0-1.1-0.5-1.1-1.1v-37.3c0-0.6,0.5-1.1,1.1-1.1s1.1,0.5,1.1,1.1v37.3
					C862,863,861.5,863.5,860.9,863.5z"/>
			</g>
		</g>
		<g>
			<g>
				<path d="M897.7,863.5h-20.6c-0.6,0-1.1-0.5-1.1-1.1v-37.3c0-0.6,0.5-1.1,1.1-1.1h20.6c0.6,0,1.1,0.5,1.1,1.1v37.3
					C898.7,863,898.3,863.5,897.7,863.5z M878.1,861.4h18.5v-35.1h-18.5V861.4z"/>
			</g>
			<g>
				<path d="M914.9,863.5c-0.6,0-1.1-0.5-1.1-1.1v-37.3c0-0.6,0.5-1.1,1.1-1.1s1.1,0.5,1.1,1.1v37.3
					C916,863,915.5,863.5,914.9,863.5z"/>
			</g>
		</g>
		<g>
			<g>
				<path d="M951.7,863.5h-20.6c-0.6,0-1.1-0.5-1.1-1.1v-37.3c0-0.6,0.5-1.1,1.1-1.1h20.6c0.6,0,1.1,0.5,1.1,1.1v37.3
					C952.8,863,952.3,863.5,951.7,863.5z M932.1,861.4h18.5v-35.1h-18.5V861.4z"/>
			</g>
			<g>
				<path d="M968.9,863.5c-0.6,0-1.1-0.5-1.1-1.1v-37.3c0-0.6,0.5-1.1,1.1-1.1s1.1,0.5,1.1,1.1v37.3
					C970,863,969.5,863.5,968.9,863.5z"/>
			</g>
		</g>
		<g>
			<g>
				<path d="M968.9,915.8h-20.6c-0.6,0-1.1-0.5-1.1-1.1v-37.3c0-0.6,0.5-1.1,1.1-1.1h20.6c0.6,0,1.1,0.5,1.1,1.1v37.3
					C970,915.3,969.5,915.8,968.9,915.8z M949.4,913.7h18.5v-35.1h-18.5V913.7z"/>
			</g>
			<g>
				<path d="M931.1,915.8c-0.6,0-1.1-0.5-1.1-1.1v-37.3c0-0.6,0.5-1.1,1.1-1.1c0.6,0,1.1,0.5,1.1,1.1v37.3
					C932.1,915.3,931.7,915.8,931.1,915.8z"/>
			</g>
		</g>
		<g>
			<g>
				<path d="M914.9,915.8h-20.6c-0.6,0-1.1-0.5-1.1-1.1v-37.3c0-0.6,0.5-1.1,1.1-1.1h20.6c0.6,0,1.1,0.5,1.1,1.1v37.3
					C916,915.3,915.5,915.8,914.9,915.8z M895.4,913.7h18.5v-35.1h-18.5V913.7z"/>
			</g>
			<g>
				<path d="M877.1,915.8c-0.6,0-1.1-0.5-1.1-1.1v-37.3c0-0.6,0.5-1.1,1.1-1.1s1.1,0.5,1.1,1.1v37.3
					C878.1,915.3,877.7,915.8,877.1,915.8z"/>
			</g>
		</g>
		<g>
			<g>
				<path d="M860.9,915.8h-20.6c-0.6,0-1.1-0.5-1.1-1.1v-37.3c0-0.6,0.5-1.1,1.1-1.1h20.6c0.6,0,1.1,0.5,1.1,1.1v37.3
					C862,915.3,861.5,915.8,860.9,915.8z M841.4,913.7h18.5v-35.1h-18.5V913.7z"/>
			</g>
			<g>
				<path d="M823.1,915.8c-0.6,0-1.1-0.5-1.1-1.1v-37.3c0-0.6,0.5-1.1,1.1-1.1s1.1,0.5,1.1,1.1v37.3
					C824.1,915.3,823.6,915.8,823.1,915.8z"/>
			</g>
		</g>
		<g>
			<g>
				<path d="M843.7,968.1h-20.6c-0.6,0-1.1-0.5-1.1-1.1v-37.3c0-0.6,0.5-1.1,1.1-1.1h20.6c0.6,0,1.1,0.5,1.1,1.1V967
					C844.7,967.6,844.2,968.1,843.7,968.1z M824.1,966h18.5v-35.1h-18.5V966z"/>
			</g>
			<g>
				<path d="M860.9,968.1c-0.6,0-1.1-0.5-1.1-1.1v-37.3c0-0.6,0.5-1.1,1.1-1.1s1.1,0.5,1.1,1.1V967
					C862,967.6,861.5,968.1,860.9,968.1z"/>
			</g>
		</g>
		<g>
			<g>
				<path d="M897.7,968.1h-20.6c-0.6,0-1.1-0.5-1.1-1.1v-37.3c0-0.6,0.5-1.1,1.1-1.1h20.6c0.6,0,1.1,0.5,1.1,1.1V967
					C898.7,967.6,898.3,968.1,897.7,968.1z M878.1,966h18.5v-35.1h-18.5V966z"/>
			</g>
			<g>
				<path d="M914.9,968.1c-0.6,0-1.1-0.5-1.1-1.1v-37.3c0-0.6,0.5-1.1,1.1-1.1s1.1,0.5,1.1,1.1V967
					C916,967.6,915.5,968.1,914.9,968.1z"/>
			</g>
		</g>
		<g>
			<g>
				<path d="M951.7,968.1h-20.6c-0.6,0-1.1-0.5-1.1-1.1v-37.3c0-0.6,0.5-1.1,1.1-1.1h20.6c0.6,0,1.1,0.5,1.1,1.1V967
					C952.8,967.6,952.3,968.1,951.7,968.1z M932.1,966h18.5v-35.1h-18.5V966z"/>
			</g>
			<g>
				<path d="M968.9,968.1c-0.6,0-1.1-0.5-1.1-1.1v-37.3c0-0.6,0.5-1.1,1.1-1.1s1.1,0.5,1.1,1.1V967
					C970,967.6,969.5,968.1,968.9,968.1z"/>
			</g>
		</g>
	</g>
	<g>
		<path class="st5" d="M512,625.2L512,625.2c-1.9,4.9-5.2,9.4-9.8,12.8c-0.5-0.6-1.1-1.3-1.6-1.9c0.2,1.1,0.2,2.2-0.2,3.2
			c-0.3,0.6-0.7,1.1-1.2,1.6c-2,0.1-3.9,0.6-5.7,1.9c-0.4,0.3-0.7,0.6-1.1,0.9c0,0,0,0,0,0c-8,2.2-16.6,2.6-24.8,1.1
			c-1.8-0.3-3.7-0.8-4.6-2.4c-0.1-0.2-0.2-0.4-0.3-0.7l-5.1,8.5c-5.1-7.2-7.8-20.8-9.1-32.8c-0.7-6-1-11.6-1.2-16
			c0-0.7-0.1-1.4-0.1-2.1c-0.1-2.2-0.1-3.9-0.1-4.9c0-0.8,0-1.2,0-1.2s0.1-0.3,0.4-0.8c2.3-4.9,14.9-31.4,15.4-31.6
			c0.4-0.2,18.7-8.8,28.8-13.6c3.8-1.8,1.8-7.4,1.8-7.4s12.2,15.6,17.2,22c0.5,0.6,0.9,1.2,1.3,1.7l0,42.6v0L512,625.2z"/>
	</g>
	<g>
		<path class="st5" d="M465.3,591.5c0,0-16.2-22.4-20.5-27.7c0.4-9.1,1.5-35.8,1.5-35.8s-32.3-5.4-43.1,30.6c0,0-1.1,11.1-4.8,17.5
			c-9.3,16.1-14.2,10.8-19.4,24.1c-5.5,14.4,4,20.9,9.3,23.8c5.3,2.8,0.2,18,10.2,24.1c13.1,8,21.6-3.5,30.4,0.7
			c8.7,4.2,12,12.2,29.9,7.2C476.7,651,465.3,591.5,465.3,591.5z"/>
	</g>
	<path class="st6" d="M512,641.4l0-16.2v0l0-19.1v0l0-42.6l0-2.1c-0.9,0.3-1.6,0.8-2.1,1.6l-16.4,27.3l-3.4,5.7l-0.1,0.2l-5.7,9.5
		l-8.7,14.4l-1.7,2.9l-0.3,0.5l-10.8,18l-5.1,8.5l-2.8,4.6l57.2,62.9L512,641.4z"/>
	<g>
		<g>
			<path class="st7" d="M495,622c0.6,0,1.2,0,1.9,0C496.2,622.1,495.6,622.1,495,622z"/>
		</g>
	</g>
	<g>
		<path class="st8" d="M473.3,623.4c0,0,0.1,0,0.1,0.1c0.2,0.2,0.6,0.8,1,1.4c2.9,4.1,7.6,6.6,12.5,6.3c3.8-0.2,7-1.8,9.4-4.9
			c4.3-5.3,4.3-13.1,0.6-18.8l-3-4.6l-15.1-25.2l-23.4,15.4l2.8,4.7l9.2,15.5L473.3,623.4z"/>
	</g>
	<g>
		<rect x="512" y="512.4" class="st2" width="256" height="255.8"/>
	</g>
	<g>
		<path class="st9" d="M473.3,623.4c0,0,0.1,0,0.1,0.1c23.1-16.6,2.4-43.2,2.4-43.2l-17.6,17.5l9.2,15.5L473.3,623.4z"/>
	</g>
	<g>
		<g>
			<path class="st8" d="M426.1,576.6c0.6-4.6,1.2-9.1,1.6-13.7c0.4-6.6,4.4-13.2,8.3-18.7c2.5-3.5,7.2-0.7,10.7-3.1
				c9.4-6.4,21.6-13.5,32-9c14.6,6.2,15.9,21,11.8,34.2c9.4-4.6,9.7,7.4,9.7,7.4c0.3,12-13.1,16.3-13.1,16.3c-2,2.9-3.6,5.2-4.9,7
				c-4.5,6.4-10.2,11.9-17,15.7c-2.5,1.4-4.8,2.4-7,3.2c-10.7,3.8-22.3-0.5-28.1-9.9c-4.8-7.7-5.9-16.5-4.7-25.4
				C425.7,579.4,425.9,578,426.1,576.6z"/>
		</g>
		<g>
			<path class="st10" d="M439.5,588.4c0.4-0.9,1.2-1.6,1.8-2.4c0.7-0.9,1.3-1.8,1.9-2.8c1.1-2,1.8-4.1,2.1-6.3
				c0.1-0.6,0.8-1,1.4-0.9c0.6,0.1,0.9,0.7,0.8,1.3c-0.6,3.7-2.2,7.2-4.6,10.2c-0.9,1.1-2.3,2.3-1.1,3.7c1.2,1.4,3.3,1.2,5,1.1
				c1.4-0.1,1.4,2.1,0,2.2c-2.2,0.1-4.5,0.2-6.2-1.3C439.2,592,438.7,590.1,439.5,588.4z"/>
		</g>
		<g>
			<path class="st11" d="M462.2,579c-0.4,2-1.9,3.6-3.3,3.4c-1.4-0.2-2.2-2-1.8-4c0.4-2,1.9-3.6,3.3-3.4
				C461.8,575.2,462.6,577,462.2,579z"/>
		</g>
		<g>
			<path class="st11" d="M440.1,577.5c-0.4,2-1.9,3.5-3.3,3.4c-1.4-0.2-2.2-2-1.8-4c0.4-2,1.9-3.6,3.3-3.4
				C439.7,573.7,440.5,575.5,440.1,577.5z"/>
		</g>
		<g>
			<path class="st10" d="M456.8,596.4c-3.6,2.9-8.7,3.7-13,2.2c-1.3-0.4-1.9,1.5-0.6,2c5.1,1.7,10.8,0.6,15-2.7
				C459.2,597.1,457.8,595.6,456.8,596.4z"/>
		</g>
	</g>
	<g>
		<g>
			<path class="st12" d="M545,649.6c0,0,18.4-23.1,18-32.9c0,0,1.9-10.2-11.9,11.6c0,0,9-16,9.1-24.9c0-1.7-2.3-2.3-3.1-0.7
				l-9.5,18.8c0,0,7.8-16.8,8.1-23.9c0.1-1.6-1.8-2.3-2.9-1.2c-2,2.2-5.2,8.1-9.5,23.5c0,0,5.8-18.6,4.6-22.1
				c-2.4-6.6-17.1,28-16.6,30.2c0,0-4.2,2.8,0.1-11.6c0,0,1.4-3.2,0.7-5.9c-0.3-1.3-2-1.6-2.8-0.5c-2.3,3.1-6.6,9.7-7.9,18.5
				c-1,6.8,1.2,13.7,5.7,18.9l0,0l-4.8,16.5l15.5,7.8L545,649.6z"/>
		</g>
		<path class="st4" d="M523.3,649.3l-26.6,59.2l-4.1-13.5c-5.7-18.8-12.8-33.3-31.7-38.5l-6.1-1.7c0,0-15.3,79.1,35.6,106.1
			c10.4,5.5,23.2,0.1,26.7-11.1l28.4-91L523.3,649.3z"/>
	</g>
	<g>
		<path class="st5" d="M482.7,574.2c0,0-29-8.2-46.3-32.7c0,0-0.3-22.3,32.9-17.3C501.5,529.1,501.9,559.9,482.7,574.2z"/>
	</g>
	<g>
		<ellipse class="st3" cx="896" cy="128.7" rx="128" ry="127.9"/>
	</g>
	<g>
		<g>
			<path d="M845.1,122.6c-5.8,0-11-3.3-13.6-8.6c-0.1-0.1-0.2-0.3-0.2-0.5l0,0c0-0.5,0.3-1,0.8-1.1c0.5-0.1,1,0.1,1.2,0.6
				c2.3,4.9,7.2,7.8,12.5,7.5c4.7-0.3,8.9-3.1,11-7.5c0,0,0-0.1,0-0.1c2.4-5.1,7.3-8.4,12.9-8.7c6.1-0.3,11.7,3,14.4,8.6
				c0,0,0,0.1,0.1,0.1c2.3,4.9,7.2,7.8,12.5,7.5c4.7-0.3,9-3.1,11-7.5c0,0,0-0.1,0.1-0.1c2.4-5,7.3-8.3,12.8-8.6
				c6.1-0.3,11.7,3,14.4,8.6c0,0,0,0.1,0.1,0.1c2.3,4.9,7.2,7.8,12.5,7.5c4.7-0.3,9-3.1,11-7.5c0.3-0.5,0.9-0.8,1.4-0.5
				c0.5,0.3,0.8,0.9,0.5,1.4c-2.4,5.1-7.3,8.4-12.9,8.7c-6.1,0.3-11.7-3-14.4-8.6c0,0,0-0.1-0.1-0.1c-2.3-4.9-7.2-7.8-12.5-7.5
				c-4.7,0.3-9,3.1-11.1,7.5c0,0,0,0.1-0.1,0.1c-2.4,5-7.3,8.3-12.8,8.6c-6.1,0.3-11.7-3-14.4-8.6c0,0,0-0.1-0.1-0.1
				c-2.3-4.9-7.2-7.8-12.5-7.5c-4.7,0.3-8.9,3.1-11,7.4c0,0,0,0.1,0,0.1c-2.4,5.1-7.4,8.5-12.9,8.8
				C845.7,122.5,845.4,122.6,845.1,122.6z"/>
		</g>
		<g>
			<path d="M845.1,153.5c-5.8,0-11-3.3-13.6-8.6c-0.1-0.1-0.2-0.3-0.2-0.5l0,0c0-0.5,0.3-1,0.8-1.1c0.5-0.1,1,0.1,1.2,0.6
				c2.3,4.9,7.2,7.8,12.5,7.5c4.7-0.3,8.9-3.1,11-7.5c0,0,0-0.1,0-0.1c2.4-5.1,7.3-8.4,12.9-8.7c6.1-0.3,11.7,3,14.4,8.6
				c0,0,0,0.1,0.1,0.1c2.3,4.9,7.2,7.8,12.5,7.5c4.7-0.3,9-3.1,11-7.5c0,0,0-0.1,0.1-0.1c2.4-5,7.3-8.3,12.8-8.6
				c6.1-0.3,11.7,3,14.4,8.6c0,0,0,0.1,0.1,0.1c2.3,4.9,7.2,7.8,12.5,7.5c4.7-0.3,9-3.1,11-7.5c0.3-0.5,0.9-0.8,1.4-0.5
				c0.5,0.3,0.8,0.9,0.5,1.4c-2.4,5.1-7.3,8.4-12.9,8.7c-6.1,0.3-11.7-3-14.4-8.6c0,0,0-0.1-0.1-0.1c-2.3-4.9-7.2-7.8-12.5-7.5
				c-4.7,0.3-9,3.1-11.1,7.5c0,0,0,0.1-0.1,0.1c-2.4,5-7.3,8.3-12.8,8.6c-6.1,0.3-11.7-3-14.4-8.6c0,0,0-0.1-0.1-0.1
				c-2.3-4.9-7.2-7.8-12.5-7.5c-4.7,0.3-8.9,3.1-11,7.4c0,0,0,0.1,0,0.1c-2.4,5.1-7.4,8.5-12.9,8.8
				C845.7,153.5,845.4,153.5,845.1,153.5z"/>
		</g>
	</g>
	<g>
		<g>
			<rect x="328.6" y="329.2" class="st3" width="42.7" height="42.6"/>
			<path d="M371.3,372.9h-42.7c-0.6,0-1.1-0.5-1.1-1.1v-42.6c0-0.6,0.5-1.1,1.1-1.1h42.7c0.6,0,1.1,0.5,1.1,1.1v42.6
				C372.3,372.4,371.9,372.9,371.3,372.9z M329.7,370.8h40.5v-40.5h-40.5V370.8z"/>
		</g>
		<g>
			<rect x="396.7" y="329.2" class="st3" width="42.7" height="42.6"/>
			<path d="M439.4,372.9h-42.7c-0.6,0-1.1-0.5-1.1-1.1v-42.6c0-0.6,0.5-1.1,1.1-1.1h42.7c0.6,0,1.1,0.5,1.1,1.1v42.6
				C440.5,372.4,440,372.9,439.4,372.9z M397.8,370.8h40.5v-40.5h-40.5V370.8z"/>
		</g>
		<g>
			<rect x="328.6" y="397.2" class="st3" width="42.7" height="42.6"/>
			<path d="M371.3,440.9h-42.7c-0.6,0-1.1-0.5-1.1-1.1v-42.6c0-0.6,0.5-1.1,1.1-1.1h42.7c0.6,0,1.1,0.5,1.1,1.1v42.6
				C372.3,440.5,371.9,440.9,371.3,440.9z M329.7,438.8h40.5v-40.5h-40.5V438.8z"/>
		</g>
		<g>
			<rect x="396.7" y="397.2" class="st3" width="42.7" height="42.6"/>
			<path d="M439.4,440.9h-42.7c-0.6,0-1.1-0.5-1.1-1.1v-42.6c0-0.6,0.5-1.1,1.1-1.1h42.7c0.6,0,1.1,0.5,1.1,1.1v42.6
				C440.5,440.5,440,440.9,439.4,440.9z M397.8,438.8h40.5v-40.5h-40.5V438.8z"/>
		</g>
	</g>
	<g>
		<g>
			<polygon class="st3" points="695.4,627.6 695.4,612.3 695.4,585 652.7,585 652.7,612.3 652.7,627.6 652.7,695.7 695.4,695.7 			
				"/>
			<path d="M695.4,696.7h-42.7c-0.6,0-1.1-0.5-1.1-1.1V585c0-0.6,0.5-1.1,1.1-1.1h42.7c0.6,0,1.1,0.5,1.1,1.1v110.7
				C696.5,696.3,696,696.7,695.4,696.7z M653.8,694.6h40.5V586h-40.5V694.6z"/>
		</g>
		<g>
			<polygon class="st3" points="627.3,671.8 627.3,653 627.3,585 584.6,585 584.6,653 584.6,671.8 584.6,695.7 627.3,695.7 			"/>
			<path d="M627.3,696.7h-42.7c-0.6,0-1.1-0.5-1.1-1.1V585c0-0.6,0.5-1.1,1.1-1.1h42.7c0.6,0,1.1,0.5,1.1,1.1v110.7
				C628.3,696.3,627.9,696.7,627.3,696.7z M585.7,694.6h40.5V586h-40.5V694.6z"/>
		</g>
	</g>
	<g>
		<ellipse class="st13" cx="896" cy="640.3" rx="64" ry="63.9"/>
	</g>
	<g>
		<g>
			<path d="M896,675.3c0,0-0.1,0-0.1,0l0,0c0,0,0,0,0,0c-0.2,0-0.4-0.1-0.5-0.2c0,0,0,0-0.1-0.1l-25.9-25.8c-0.4-0.4-0.4-1.1,0-1.5
				s1.1-0.4,1.5,0l24,24v-65.2c0-0.6,0.5-1.1,1.1-1.1s1.1,0.5,1.1,1.1v65.2l24-24c0.4-0.4,1.1-0.4,1.5,0c0.2,0.2,0.3,0.5,0.3,0.8
				s-0.1,0.5-0.3,0.8L896.8,675c0,0,0,0,0,0C896.6,675.1,896.3,675.2,896,675.3L896,675.3C896.1,675.3,896.1,675.3,896,675.3
				C896.1,675.3,896,675.3,896,675.3z"/>
		</g>
	</g>
	<g>
		<g>
			<path d="M371.2,171c-0.3,0-0.5-0.1-0.8-0.3l-41.2-41.1c0,0,0,0,0,0c0,0,0,0,0,0c0,0,0,0,0,0c0,0,0,0,0,0c0,0,0,0,0,0
				c-0.2-0.2-0.3-0.4-0.3-0.7c0,0,0,0,0,0l0,0c0-0.1,0-0.1,0-0.2c0-0.2,0.1-0.4,0.3-0.6c0,0,0,0,0.1-0.1l41.2-41.1
				c0.4-0.4,1.1-0.4,1.5,0c0.4,0.4,0.4,1.1,0,1.5l-39.4,39.3H438c0.6,0,1.1,0.5,1.1,1.1c0,0.6-0.5,1.1-1.1,1.1H332.6l39.4,39.3
				c0.2,0.2,0.3,0.5,0.3,0.8s-0.1,0.5-0.3,0.8C371.7,170.8,371.5,171,371.2,171z"/>
		</g>
	</g>
	<g>
		<ellipse class="st2" cx="128" cy="384.5" rx="128" ry="127.9"/>
	</g>
	<g>
		<ellipse class="st3" cx="640" cy="896.1" rx="128" ry="127.9"/>
	</g>
	<g>
		<path class="st2" d="M512,1024H256V768.2h0.1C397.4,768.2,512,882.7,512,1024z"/>
	</g>
	<g>
		<path class="st3" d="M256,768.2V1024H0l0-0.1C0,882.7,114.6,768.2,256,768.2z"/>
	</g>
	<g>
		<path class="st4" d="M768,0.9v255.8H512v-0.1C512,115.3,626.6,0.9,768,0.9z"/>
	</g>
	<g>
		<path class="st3" d="M0,768.2l0-255.8l256,0v0.1C256,653.7,141.4,768.2,0,768.2z"/>
	</g>
	<g>
		<g>
			<g>
				<path class="st14" d="M658.5,935.7h-11.6v-7.1h11.6v-6.9h-15v-34c12-1.7,21.2-11.9,21.2-24.4c0-13.6-11-24.6-24.6-24.6
					s-24.6,11-24.6,24.6c0,12.4,9.2,22.7,21.2,24.4l0,65.6h6.9v-10.8h15V935.7z M634.8,850.9c0-2.9,2.3-5.2,5.2-5.2
					c2.9,0,5.2,2.3,5.2,5.2s-2.3,5.2-5.2,5.2C637.1,856.1,634.8,853.8,634.8,850.9z"/>
			</g>
		</g>
		<g>
			<g>
				<path d="M643.5,954.4h-6.9c-0.6,0-1.1-0.5-1.1-1.1l0-64.7c-12.1-2.2-21.2-12.9-21.2-25.3c0-14.1,11.5-25.7,25.7-25.7
					c14.2,0,25.7,11.5,25.7,25.7c0,12.4-9,23.1-21.2,25.3v32h13.9c0.6,0,1.1,0.5,1.1,1.1v6.9c0,0.6-0.5,1.1-1.1,1.1H648v5h10.5
					c0.6,0,1.1,0.5,1.1,1.1v6.9c0,0.6-0.5,1.1-1.1,1.1h-13.9v9.7C644.5,954,644,954.4,643.5,954.4z M637.6,952.3h4.8v-9.7
					c0-0.6,0.5-1.1,1.1-1.1h13.9v-4.8h-10.5c-0.6,0-1.1-0.5-1.1-1.1v-7.1c0-0.6,0.5-1.1,1.1-1.1h10.5v-4.8h-13.9
					c-0.6,0-1.1-0.5-1.1-1.1v-34c0-0.5,0.4-1,0.9-1.1c11.5-1.6,20.2-11.6,20.2-23.3c0-13-10.6-23.5-23.5-23.5
					c-13,0-23.5,10.6-23.5,23.5c0,11.7,8.7,21.7,20.2,23.3c0.5,0.1,0.9,0.5,0.9,1.1L637.6,952.3z M640,857.1c-3.4,0-6.2-2.8-6.2-6.2
					s2.8-6.2,6.2-6.2s6.2,2.8,6.2,6.2S643.4,857.1,640,857.1z M640,846.8c-2.3,0-4.1,1.8-4.1,4.1s1.8,4.1,4.1,4.1s4.1-1.8,4.1-4.1
					S642.3,846.8,640,846.8z"/>
			</g>
		</g>
	</g>
	<g>
		<g>
			<g>
				<ellipse class="st14" cx="127.8" cy="424.5" rx="7.4" ry="7.4"/>
				<path d="M127.8,433c-4.7,0-8.5-3.8-8.5-8.5s3.8-8.5,8.5-8.5c4.7,0,8.5,3.8,8.5,8.5S132.5,433,127.8,433z M127.8,418.2
					c-3.5,0-6.4,2.9-6.4,6.4s2.9,6.4,6.4,6.4s6.4-2.9,6.4-6.4S131.3,418.2,127.8,418.2z"/>
			</g>
		</g>
		<g>
			<g>
				<path class="st14" d="M184.5,361.7c-14.8-15.9-34.9-24.7-56.5-24.7c-21.6,0-41.7,8.8-56.5,24.7c-1.7,1.8-1.6,4.7,0.2,6.4
					c1.8,1.7,4.7,1.6,6.4-0.2c13.1-14,30.8-21.8,49.9-21.8c19.1,0,36.8,7.7,49.9,21.8c0.9,1,2.1,1.4,3.3,1.4c1.1,0,2.2-0.4,3.1-1.2
					C186.1,366.4,186.2,363.6,184.5,361.7z"/>
				<path d="M181.2,370.4c-1.5,0-3-0.6-4.1-1.8c-12.9-13.8-30.4-21.4-49.2-21.4c-18.8,0-36.3,7.6-49.2,21.4
					c-2.1,2.2-5.6,2.4-7.9,0.3c-2.3-2.1-2.4-5.6-0.3-7.9c15-16.1,35.4-25,57.3-25c21.9,0,42.3,8.9,57.3,25l0,0
					c2.1,2.2,2,5.8-0.3,7.9C184,369.9,182.7,370.4,181.2,370.4z M128,345c19.4,0,37.4,7.9,50.7,22.1c0.7,0.7,1.6,1.1,2.5,1.1
					c0.9,0,1.7-0.3,2.3-0.9c1.4-1.3,1.5-3.5,0.2-4.9l0,0c-14.6-15.7-34.4-24.3-55.8-24.3c-21.3,0-41.1,8.6-55.8,24.3
					c-1.3,1.4-1.2,3.6,0.2,4.9c1.4,1.3,3.6,1.2,4.9-0.2C90.6,352.9,108.6,345,128,345z"/>
			</g>
		</g>
		<g>
			<g>
				<path class="st14" d="M168,380.4c-11-11-25.2-17.1-40-17.1c-14.8,0-29,6.1-40,17.1c-1.8,1.8-1.7,4.6,0,6.4
					c1.8,1.8,4.6,1.7,6.4,0c9.3-9.3,21.2-14.4,33.6-14.4c12.4,0,24.3,5.1,33.6,14.4c0.9,0.9,2,1.3,3.2,1.3c1.1,0,2.3-0.4,3.2-1.3
					C169.7,385,169.7,382.1,168,380.4z"/>
				<path d="M91.2,389.1c-1.5,0-2.9-0.6-3.9-1.6c-2.2-2.2-2.2-5.7,0-7.9c11.2-11.2,25.6-17.4,40.7-17.4c15.1,0,29.6,6.2,40.7,17.4
					l0,0c2.2,2.2,2.2,5.7,0,7.9c-1.1,1-2.4,1.6-3.9,1.6c-1.5,0-2.9-0.6-4-1.6c-9.1-9.1-20.7-14.1-32.8-14.1
					c-12.1,0-23.8,5-32.8,14.1C94.1,388.5,92.7,389.1,91.2,389.1C91.2,389.1,91.2,389.1,91.2,389.1z M128,364.3
					c-14.5,0-28.5,6-39.2,16.8c-1.3,1.3-1.3,3.5,0,4.9c0.7,0.6,1.5,1,2.4,1c0.9,0,1.8-0.4,2.4-1c9.5-9.5,21.6-14.8,34.3-14.8
					c12.7,0,24.9,5.2,34.3,14.8c0.7,0.7,1.5,1,2.4,1c0.9,0,1.8-0.4,2.4-1c1.3-1.3,1.4-3.5,0-4.9C156.5,370.3,142.5,364.3,128,364.3z
					"/>
			</g>
		</g>
		<g>
			<g>
				<path class="st14" d="M149.9,399c-5.9-5.8-14.3-9.4-22-9.4c0,0,0,0,0,0h-0.3c0,0,0,0,0,0c-7.7,0-16.1,3.6-22,9.4
					c-1.8,1.8-1.8,4.6,0,6.4c0.9,0.9,2,1.3,3.2,1.3c1.1,0,2.3-0.4,3.2-1.3c4.2-4.1,10.3-6.8,15.6-6.8c0,0,0,0,0,0h0.3c0,0,0,0,0,0
					c5.3,0,11.4,2.7,15.6,6.8c1.8,1.8,4.6,1.7,6.4,0C151.7,403.6,151.7,400.8,149.9,399z"/>
				<path d="M146.7,407.8c-1.5,0-2.9-0.6-3.9-1.6c-4-3.9-9.8-6.5-14.9-6.5h-0.3c-5,0-10.9,2.6-14.9,6.5c-1.1,1-2.4,1.6-3.9,1.6
					c-1.5,0-2.9-0.6-4-1.7c-2.2-2.2-2.1-5.7,0-7.9c6.1-6,14.8-9.7,22.7-9.7h0.3c7.9,0,16.7,3.7,22.7,9.7h0c1.1,1,1.6,2.4,1.7,3.9
					c0,1.5-0.6,2.9-1.6,3.9C149.7,407.2,148.3,407.8,146.7,407.8C146.8,407.8,146.8,407.8,146.7,407.8z M127.6,397.6h0.3
					c5.6,0,12,2.8,16.4,7.1c0.6,0.6,1.5,1,2.4,1c0,0,0,0,0,0c0.9,0,1.8-0.4,2.4-1c0.6-0.7,1-1.5,1-2.4c0-0.9-0.4-1.8-1-2.4
					c0,0,0,0,0,0c-5.7-5.6-13.8-9.1-21.2-9.1h-0.3c-7.4,0-15.5,3.5-21.2,9.1c-1.3,1.3-1.4,3.5,0,4.9c0.7,0.7,1.5,1,2.4,1
					c0.9,0,1.8-0.4,2.4-1C115.6,400.4,122.1,397.6,127.6,397.6z"/>
			</g>
		</g>
	</g>
	<g class="st15">
		<g>
			<path class="st3" d="M878.8,310.3c-2.1,0.4-4.2,0.9-6.2,1.5c-0.3,0.1-0.7,0.2-1,0.3c-0.3,0.1-0.6,0.2-0.9,0.3
				c-0.2,0.1-0.4,0.1-0.6,0.2c-0.2,0.1-0.5,0.2-0.7,0.2c-2.1,0.7-4.1,1.5-6.1,2.3c-0.2,0.1-0.4,0.2-0.6,0.3c-0.4,0.2-0.7,0.3-1,0.5
				c-0.3,0.1-0.6,0.3-0.9,0.4c-0.3,0.1-0.5,0.3-0.8,0.4c-0.6,0.3-1.1,0.6-1.6,0.8c-0.3,0.1-0.5,0.3-0.8,0.4
				c-0.3,0.1-0.5,0.3-0.8,0.4c-0.3,0.1-0.5,0.3-0.8,0.5c-0.1,0-0.1,0.1-0.1,0.1c-1,0.6-2,1.2-2.9,1.8c-0.3,0.2-0.6,0.4-0.9,0.6
				c-0.2,0.1-0.5,0.3-0.7,0.5c-0.3,0.2-0.5,0.3-0.8,0.5c-0.3,0.2-0.5,0.3-0.8,0.5c-0.2,0.1-0.4,0.3-0.6,0.5
				c-0.3,0.2-0.6,0.4-0.8,0.6c-0.2,0.2-0.5,0.4-0.7,0.6c-0.2,0.2-0.5,0.4-0.7,0.6c-0.2,0.2-0.5,0.4-0.7,0.6
				c-0.1,0.1-0.1,0.1-0.2,0.2c-0.9,0.7-1.7,1.4-2.6,2.2c-0.4,0.4-0.9,0.8-1.3,1.2c0,0,0,0,0,0c-0.2,0.2-0.4,0.4-0.7,0.6
				c-0.2,0.2-0.4,0.4-0.7,0.6c-0.2,0.2-0.4,0.4-0.6,0.6c-0.2,0.2-0.4,0.4-0.6,0.6c-0.6,0.6-1.2,1.2-1.8,1.9c-0.5,0.6-1,1.1-1.5,1.7
				c-0.2,0.2-0.4,0.4-0.6,0.7c-0.2,0.2-0.3,0.4-0.4,0.5c-0.2,0.2-0.3,0.4-0.5,0.6c-1.5,1.9-2.9,3.8-4.2,5.8
				c-0.2,0.2-0.3,0.5-0.5,0.7c0,0,0,0,0,0c-0.2,0.2-0.3,0.5-0.5,0.7c-0.2,0.2-0.3,0.5-0.5,0.7c-0.2,0.2-0.3,0.5-0.4,0.7
				c-0.2,0.2-0.3,0.5-0.4,0.7c-0.1,0.2-0.3,0.5-0.4,0.7c-0.1,0.2-0.3,0.5-0.4,0.8c-0.1,0.3-0.3,0.5-0.4,0.8
				c-0.1,0.3-0.3,0.5-0.4,0.8c-0.3,0.5-0.5,1-0.8,1.5c0,0,0,0,0,0.1c-0.2,0.5-0.5,1-0.7,1.5c-0.1,0.3-0.2,0.5-0.4,0.8h0
				c0,0.1-0.1,0.1-0.1,0.2c-0.3,0.6-0.5,1.1-0.7,1.7c-0.1,0.3-0.2,0.5-0.3,0.8c-0.5,1.3-1,2.6-1.5,3.9c-0.1,0.3-0.2,0.7-0.4,1
				c-0.1,0.3-0.2,0.6-0.3,0.8c-0.1,0.4-0.3,0.9-0.4,1.3c-0.1,0.3-0.2,0.6-0.3,0.9c-0.1,0.5-0.3,1-0.4,1.5c-0.1,0.2-0.1,0.5-0.2,0.7
				c0,0.2-0.1,0.3-0.1,0.5c0,0.1,0,0.2-0.1,0.2c-0.1,0.3-0.1,0.5-0.2,0.8c-0.1,0.3-0.1,0.6-0.2,0.9c0,0.2-0.1,0.4-0.1,0.6
				c-0.1,0.7-0.3,1.4-0.4,2L768,352.4l-256-95.3v-0.4C512,115.5,626.6,1.1,768,1.1h0.8l91,255.8L878.8,310.3z"/>
		</g>
	</g>
	<g>
		<path d="M819.7,372.8L510.9,257.9v-1.2c0-34.7,6.8-68.3,20.2-99.9c12.9-30.6,31.5-58,55.1-81.6s51.1-42.1,81.7-55
			C699.6,6.8,733.3,0,768,0h1.5l0.3,0.7l91,255.8l19.4,54.6l-1.2,0.2c-2.1,0.4-4.1,0.9-6.1,1.5c-0.3,0.1-0.7,0.2-1,0.3
			c-0.3,0.1-0.6,0.2-0.9,0.3c-0.2,0.1-0.4,0.1-0.6,0.2l-0.1,0c-0.2,0.1-0.4,0.1-0.6,0.2c-2,0.7-4,1.5-6,2.3l-0.6,0.3
			c-0.3,0.2-0.7,0.3-1,0.5c-0.3,0.1-0.6,0.3-0.9,0.4c-0.3,0.1-0.5,0.3-0.8,0.4c-0.6,0.3-1.1,0.5-1.6,0.8c-0.3,0.1-0.5,0.3-0.8,0.4
			c-0.3,0.1-0.5,0.3-0.8,0.4c-0.3,0.2-0.5,0.3-0.8,0.4l-0.2,0.1c-1,0.6-2,1.2-2.9,1.8c-0.3,0.2-0.6,0.4-0.9,0.6
			c-0.2,0.2-0.5,0.3-0.7,0.4c-0.3,0.2-0.5,0.3-0.7,0.5c-0.3,0.2-0.5,0.3-0.7,0.5c-0.2,0.2-0.4,0.3-0.6,0.5c-0.3,0.2-0.5,0.4-0.8,0.6
			l0,0c-0.2,0.2-0.5,0.4-0.7,0.5c-0.3,0.2-0.5,0.4-0.7,0.6c-0.2,0.2-0.5,0.4-0.7,0.6c-0.1,0.1-0.2,0.1-0.2,0.2
			c-0.9,0.7-1.8,1.5-2.5,2.2c-0.4,0.4-0.8,0.8-1.3,1.1l-0.1,0.1c-0.2,0.2-0.4,0.4-0.6,0.6c-0.2,0.2-0.5,0.4-0.7,0.6
			c-0.2,0.2-0.4,0.4-0.6,0.6c-0.2,0.2-0.4,0.4-0.6,0.6c-0.6,0.6-1.2,1.2-1.8,1.9c-0.5,0.6-1,1.1-1.5,1.7c-0.2,0.2-0.4,0.4-0.5,0.6
			c-0.2,0.2-0.3,0.3-0.4,0.5c-0.1,0.2-0.3,0.3-0.4,0.5l-0.1,0.1c-1.5,1.8-2.9,3.7-4.2,5.7l-0.2,0.2l0.1,0.1l-0.4,0.4
			c-0.1,0.2-0.3,0.4-0.4,0.6c-0.2,0.3-0.3,0.5-0.4,0.7c-0.2,0.3-0.3,0.5-0.4,0.7c-0.2,0.3-0.3,0.5-0.4,0.7c-0.1,0.2-0.3,0.5-0.4,0.7
			c-0.1,0.3-0.3,0.5-0.4,0.7c-0.1,0.3-0.3,0.5-0.4,0.7c-0.2,0.3-0.3,0.5-0.4,0.8c-0.3,0.5-0.5,1-0.8,1.5c0,0,0,0.1,0,0.1
			c-0.2,0.5-0.5,1-0.7,1.5l-0.1,0.2c-0.1,0.2-0.2,0.4-0.3,0.6l-0.1,0.2c0,0,0,0,0,0l-0.2,0.4c-0.2,0.4-0.4,0.8-0.5,1.3l0,0
			c-0.1,0.2-0.2,0.5-0.3,0.7c-0.5,1.3-1,2.6-1.5,3.9c-0.1,0.4-0.2,0.7-0.4,1c-0.1,0.3-0.2,0.6-0.3,0.8c-0.1,0.4-0.3,0.9-0.4,1.3
			c-0.1,0.3-0.2,0.6-0.3,0.9c-0.1,0.5-0.3,1-0.4,1.5c-0.1,0.2-0.1,0.5-0.2,0.7l0,0.1c0,0.1-0.1,0.3-0.1,0.4l0,0c0,0.1,0,0.1,0,0.2
			c-0.1,0.3-0.1,0.5-0.2,0.8c-0.1,0.3-0.1,0.6-0.2,0.9c0,0.2-0.1,0.4-0.1,0.6c-0.1,0.7-0.3,1.3-0.4,2L819.7,372.8z M513.1,256.4
			l305,113.5c0.1-0.3,0.1-0.5,0.2-0.8c0-0.2,0.1-0.4,0.1-0.6c0.1-0.3,0.1-0.6,0.2-0.9c0.1-0.3,0.1-0.5,0.2-0.8c0-0.1,0-0.2,0.1-0.2
			c0-0.2,0.1-0.3,0.1-0.5l0,0c0.1-0.2,0.1-0.5,0.2-0.7c0.1-0.5,0.3-1,0.4-1.5c0.1-0.3,0.2-0.6,0.3-0.9c0.1-0.5,0.3-0.9,0.4-1.4
			c0.1-0.3,0.2-0.6,0.3-0.9c0.1-0.4,0.2-0.7,0.4-1.1c0.5-1.3,1-2.7,1.5-3.9c0.1-0.2,0.2-0.5,0.3-0.8c0.2-0.6,0.5-1.2,0.7-1.7
			c0-0.1,0.1-0.1,0.1-0.2l0.4-0.9c0.2-0.5,0.5-1,0.7-1.5l0-0.1c0.3-0.5,0.5-1,0.8-1.6c0.1-0.3,0.3-0.5,0.4-0.8
			c0.1-0.2,0.3-0.5,0.4-0.8c0.1-0.2,0.3-0.5,0.4-0.8c0.1-0.2,0.3-0.5,0.4-0.7c0.1-0.3,0.3-0.5,0.5-0.8c0.1-0.2,0.2-0.4,0.3-0.6h-0.1
			l1.6-2.4c1.3-2,2.8-4,4.3-5.9l0.1-0.1c0.1-0.2,0.3-0.3,0.4-0.5c0.1-0.2,0.3-0.4,0.5-0.5c0.2-0.2,0.4-0.4,0.6-0.7
			c0.5-0.5,1-1.1,1.5-1.7c0.6-0.6,1.2-1.3,1.8-1.9c0.2-0.2,0.4-0.4,0.7-0.7c0.2-0.2,0.4-0.4,0.6-0.6c0.2-0.2,0.4-0.4,0.7-0.6
			c0.2-0.2,0.4-0.4,0.7-0.6c0,0,0,0,0.1-0.1c0.5-0.4,0.9-0.8,1.3-1.2c0.8-0.7,1.7-1.5,2.6-2.2c0.1-0.1,0.2-0.1,0.2-0.2
			c0.2-0.2,0.5-0.4,0.7-0.6c0.2-0.2,0.5-0.4,0.7-0.6c0.3-0.2,0.5-0.4,0.7-0.6l0,0c0.3-0.2,0.5-0.4,0.8-0.6c0.2-0.2,0.4-0.3,0.7-0.5
			c0.2-0.2,0.5-0.4,0.8-0.5c0.3-0.2,0.5-0.4,0.8-0.5c0.2-0.1,0.5-0.3,0.7-0.5c0.3-0.2,0.6-0.4,0.9-0.6c1-0.6,2-1.2,3-1.8
			c0,0,0.1,0,0.1-0.1l0,0c0.3-0.2,0.6-0.3,0.8-0.5c0.3-0.1,0.5-0.3,0.8-0.4c0.3-0.1,0.5-0.3,0.8-0.4c0.6-0.3,1.1-0.6,1.7-0.9
			c0.3-0.1,0.5-0.3,0.8-0.4c0.3-0.1,0.6-0.3,0.9-0.4c0.3-0.2,0.7-0.3,1.1-0.5l0.6-0.3c2-0.9,4.1-1.7,6.2-2.4
			c0.2-0.1,0.4-0.1,0.6-0.2l0.1,0c0.2-0.1,0.4-0.1,0.6-0.2c0.3-0.1,0.6-0.2,0.9-0.3c0.3-0.1,0.7-0.2,1-0.3c1.7-0.5,3.4-0.9,5.1-1.3
			l-18.6-52.3L768,2.1h0C627.5,2.1,513.2,116.2,513.1,256.4z M824.6,350.6C824.6,350.6,824.6,350.6,824.6,350.6L824.6,350.6z
			 M842.7,329.9C842.7,329.9,842.7,329.9,842.7,329.9C842.7,329.9,842.7,329.9,842.7,329.9z"/>
	</g>
	<g>
		<path class="st7" d="M395,911.2"/>
	</g>
	<g>
		<g>
			<g>
				<g>
					<path d="M210.2,95.7H45.8c-0.6,0-1.1-0.5-1.1-1.1s0.5-1.1,1.1-1.1h164.5c0.6,0,1.1,0.5,1.1,1.1S210.8,95.7,210.2,95.7z"/>
				</g>
				<g>
					<path d="M210.2,118.4H45.8c-0.6,0-1.1-0.5-1.1-1.1c0-0.6,0.5-1.1,1.1-1.1h164.5c0.6,0,1.1,0.5,1.1,1.1
						C211.3,118,210.8,118.4,210.2,118.4z"/>
				</g>
				<g>
					<path d="M210.2,141.2H45.8c-0.6,0-1.1-0.5-1.1-1.1c0-0.6,0.5-1.1,1.1-1.1h164.5c0.6,0,1.1,0.5,1.1,1.1
						C211.3,140.7,210.8,141.2,210.2,141.2z"/>
				</g>
				<g>
					<path d="M210.2,163.9H45.8c-0.6,0-1.1-0.5-1.1-1.1c0-0.6,0.5-1.1,1.1-1.1h164.5c0.6,0,1.1,0.5,1.1,1.1
						C211.3,163.5,210.8,163.9,210.2,163.9z"/>
				</g>
			</g>
			<g>
				<g>
					<path d="M162.2,212c-0.6,0-1.1-0.5-1.1-1.1V46.6c0-0.6,0.5-1.1,1.1-1.1s1.1,0.5,1.1,1.1v164.3C163.2,211.5,162.7,212,162.2,212
						z"/>
				</g>
				<g>
					<path d="M139.4,212c-0.6,0-1.1-0.5-1.1-1.1V46.6c0-0.6,0.5-1.1,1.1-1.1c0.6,0,1.1,0.5,1.1,1.1v164.3
						C140.5,211.5,140,212,139.4,212z"/>
				</g>
				<g>
					<path d="M116.6,212c-0.6,0-1.1-0.5-1.1-1.1V46.6c0-0.6,0.5-1.1,1.1-1.1s1.1,0.5,1.1,1.1v164.3C117.7,211.5,117.2,212,116.6,212
						z"/>
				</g>
				<g>
					<path d="M93.8,212c-0.6,0-1.1-0.5-1.1-1.1V46.6c0-0.6,0.5-1.1,1.1-1.1s1.1,0.5,1.1,1.1v164.3C94.9,211.5,94.4,212,93.8,212z"/>
				</g>
			</g>
		</g>
		<g>
			<rect x="72.5" y="73.3" class="st3" width="110.9" height="110.8"/>
		</g>
		<g>
			<g>
				<rect x="93.3" y="94.1" class="st3" width="69.4" height="69.3"/>
			</g>
			<g>
				<path d="M163.8,164.5H92.2V93h71.5V164.5z M94.4,162.3h67.2V95.2H94.4V162.3z"/>
			</g>
		</g>
	</g>
	<g>
		<g>
			<g>
				<g>
					<rect x="884" y="479.7" class="st4" width="19.6" height="32.7"/>
				</g>
				<g>
					<path d="M904.8,513.5H883v-34.8h21.8V513.5z M885.1,511.4h17.5v-30.6h-17.5V511.4z"/>
				</g>
			</g>
			<g>
				<g>
					<rect x="867.2" y="455.4" class="st4" width="53.3" height="24.3"/>
				</g>
				<g>
					<path d="M921.6,480.8h-55.4v-26.4h55.4V480.8z M868.3,478.6h51.2v-22.2h-51.2V478.6z"/>
				</g>
			</g>
			<g>
				<ellipse class="st13" cx="893.9" cy="384.7" rx="76.2" ry="76.2"/>
			</g>
		</g>
		<g>
			<g>
				<line class="st3" x1="913.1" y1="406.2" x2="512" y2="257"/>
			</g>
			<g>
				<rect x="711.5" y="117.6" transform="matrix(0.3488 -0.9372 0.9372 0.3488 153.2262 883.7129)" width="2.1" height="427.9"/>
			</g>
		</g>
		<g>
			<g>
				<line class="st3" x1="768.9" y1="1.1" x2="913.1" y2="406.2"/>
			</g>
			<g>
				<rect x="839.9" y="-11.4" transform="matrix(0.9421 -0.3353 0.3353 0.9421 -19.5984 293.7895)" width="2.1" height="430.1"/>
			</g>
		</g>
		<g>
			<g>
				<g>
					<path class="st3" d="M913.1,406.2l-93.9-35c32.8-4.8,58.1-30.2,59.7-61.2L913.1,406.2z"/>
				</g>
				<g>
					<path d="M913.1,407.3c-0.1,0-0.3,0-0.4-0.1l-93.9-35c-0.5-0.2-0.7-0.6-0.7-1.1c0.1-0.5,0.4-0.9,0.9-0.9
						c32.5-4.8,57.2-30.1,58.8-60.2c0-0.5,0.4-0.9,0.9-1c0.5-0.1,1,0.2,1.2,0.7l34.2,96.1c0.1,0.4,0,0.8-0.3,1.1
						C913.6,407.2,913.3,407.3,913.1,407.3z M823.2,371.6l88.1,32.8L879.5,315c-1.8,13.4-8.1,26.2-18,36.3
						C851.3,361.5,837.8,368.7,823.2,371.6z"/>
				</g>
			</g>
			<g>
				<g>
					<path class="st13" d="M878.8,310.1c-1.6,31-26.9,56.3-59.7,61.2l-0.3-0.1c1.1-6.3,3-12.3,5.6-18c0,0,0,0,0,0
						c21.2-0.5,38.2-17.1,38.2-37.5c0-0.2,0-0.3,0-0.5C867.8,312.9,873.2,311.2,878.8,310.1L878.8,310.1z"/>
				</g>
				<g>
					<path d="M819,372.4l-1.4-0.5l0.2-0.9c1.1-6.3,3-12.4,5.7-18.3l0.3-0.6h0.7c20.8-0.5,37.2-16.5,37.2-36.4c0-0.1,0-0.3,0-0.4
						l0-0.7l0.7-0.3c5.2-2.3,10.7-4.1,16.3-5.2l0.7-0.1l0.6,0.9l0,0.4c-0.8,15.2-7.4,29.8-18.5,41.1c-11,11.2-26,18.7-42.1,21.1
						L819,372.4z M825.2,354.2c-2.3,5.1-3.9,10.4-5,15.8c31.4-5.2,55.3-29.5,57.5-58.6c-4.8,1-9.4,2.6-13.9,4.5
						c-0.1,10.1-4.1,19.5-11.5,26.7C845.1,349.7,835.5,353.8,825.2,354.2z"/>
				</g>
			</g>
			<g>
				<g>
					<path class="st3" d="M862.7,315.7c0,20.4-17,37-38.2,37.5c7.7-16.8,21.3-30.4,38.2-38C862.7,315.4,862.7,315.5,862.7,315.7z"/>
				</g>
				<g>
					<path d="M822.8,354.3l0.7-1.5c7.8-17.1,21.6-30.8,38.8-38.5l1.4-0.6l0.1,1.5c0,0.2,0,0.3,0,0.5c0,10.1-4.1,19.7-11.5,27
						c-7.4,7.2-17.2,11.3-27.8,11.6L822.8,354.3z M861.6,316.9c-15.5,7.3-28,19.7-35.4,35.1C845.8,350.7,861,335.7,861.6,316.9z"/>
				</g>
			</g>
		</g>
	</g>
	<g>
		<g>
			<g>
				<g>
					<ellipse class="st16" cx="292.7" cy="220" rx="10.7" ry="10.7"/>
				</g>
				<g>
					<path d="M292.7,231.7c-6.5,0-11.7-5.3-11.7-11.7s5.3-11.7,11.7-11.7s11.7,5.3,11.7,11.7S299.2,231.7,292.7,231.7z M292.7,210.4
						c-5.3,0-9.6,4.3-9.6,9.6c0,5.3,4.3,9.6,9.6,9.6s9.6-4.3,9.6-9.6C302.3,214.7,298,210.4,292.7,210.4z"/>
				</g>
			</g>
			<g>
				<g>
					<ellipse class="st16" cx="219.3" cy="220" rx="10.7" ry="10.7"/>
				</g>
				<g>
					<path d="M219.3,231.7c-6.5,0-11.7-5.3-11.7-11.7s5.3-11.7,11.7-11.7S231,213.5,231,220S225.8,231.7,219.3,231.7z M219.3,210.4
						c-5.3,0-9.6,4.3-9.6,9.6c0,5.3,4.3,9.6,9.6,9.6c5.3,0,9.6-4.3,9.6-9.6C228.9,214.7,224.6,210.4,219.3,210.4z"/>
				</g>
			</g>
			<g>
				<rect x="230" y="218.9" width="52.3" height="2.1"/>
			</g>
		</g>
		<g>
			<g>
				<ellipse class="st1" cx="804.7" cy="731.6" rx="10.7" ry="10.7"/>
				<path d="M804.7,743.3c-6.5,0-11.7-5.3-11.7-11.7c0-6.5,5.3-11.7,11.7-11.7c6.5,0,11.7,5.3,11.7,11.7
					C816.4,738,811.2,743.3,804.7,743.3z M804.7,722c-5.3,0-9.6,4.3-9.6,9.6c0,5.3,4.3,9.6,9.6,9.6s9.6-4.3,9.6-9.6
					C814.3,726.3,810,722,804.7,722z"/>
			</g>
			<g>
				<g>
					<ellipse class="st16" cx="731.3" cy="731.6" rx="10.7" ry="10.7"/>
				</g>
				<g>
					<path d="M731.3,743.3c-6.5,0-11.7-5.3-11.7-11.7c0-6.5,5.3-11.7,11.7-11.7c6.5,0,11.7,5.3,11.7,11.7
						C743,738,737.8,743.3,731.3,743.3z M731.3,722c-5.3,0-9.6,4.3-9.6,9.6c0,5.3,4.3,9.6,9.6,9.6c5.3,0,9.6-4.3,9.6-9.6
						C740.9,726.3,736.6,722,731.3,722z"/>
				</g>
			</g>
			<g>
				<rect x="742" y="730.5" width="52.3" height="2.1"/>
			</g>
		</g>
		<g>
			<g>
				<g>
					<ellipse class="st16" cx="804.7" cy="731.6" rx="10.7" ry="10.7"/>
				</g>
				<g>
					<path d="M804.7,743.3c-6.5,0-11.7-5.3-11.7-11.7c0-6.5,5.3-11.7,11.7-11.7c6.5,0,11.7,5.3,11.7,11.7
						C816.4,738,811.2,743.3,804.7,743.3z M804.7,722c-5.3,0-9.6,4.3-9.6,9.6c0,5.3,4.3,9.6,9.6,9.6s9.6-4.3,9.6-9.6
						C814.3,726.3,810,722,804.7,722z"/>
				</g>
			</g>
			<g>
				<g>
					<ellipse class="st16" cx="804.7" cy="804.9" rx="10.7" ry="10.7"/>
				</g>
				<g>
					<path d="M804.7,816.6c-6.5,0-11.7-5.3-11.7-11.7s5.3-11.7,11.7-11.7c6.5,0,11.7,5.3,11.7,11.7S811.2,816.6,804.7,816.6z
						 M804.7,795.3c-5.3,0-9.6,4.3-9.6,9.6s4.3,9.6,9.6,9.6s9.6-4.3,9.6-9.6S810,795.3,804.7,795.3z"/>
				</g>
			</g>
			<g>
				<rect x="803.6" y="741.9" width="2.1" height="52.3"/>
			</g>
		</g>
		<g>
			<g>
				<ellipse class="st1" cx="475.3" cy="293.3" rx="10.7" ry="10.7"/>
				<path d="M475.3,305c-6.5,0-11.7-5.3-11.7-11.7c0-6.5,5.3-11.7,11.7-11.7s11.7,5.3,11.7,11.7C487,299.8,481.8,305,475.3,305z
					 M475.3,283.7c-5.3,0-9.6,4.3-9.6,9.6c0,5.3,4.3,9.6,9.6,9.6s9.6-4.3,9.6-9.6C484.9,288,480.6,283.7,475.3,283.7z"/>
			</g>
			<g>
				<g>
					<ellipse class="st16" cx="548.7" cy="293.3" rx="10.7" ry="10.7"/>
				</g>
				<g>
					<path d="M548.7,305c-6.5,0-11.7-5.3-11.7-11.7c0-6.5,5.3-11.7,11.7-11.7c6.5,0,11.7,5.3,11.7,11.7
						C560.4,299.8,555.2,305,548.7,305z M548.7,283.7c-5.3,0-9.6,4.3-9.6,9.6c0,5.3,4.3,9.6,9.6,9.6s9.6-4.3,9.6-9.6
						C558.3,288,554,283.7,548.7,283.7z"/>
				</g>
			</g>
			<g>
				<rect x="485.7" y="292.3" width="52.3" height="2.1"/>
			</g>
		</g>
		<g>
			<g>
				<g>
					<ellipse class="st16" cx="601.6" cy="422.9" rx="10.7" ry="10.7"/>
				</g>
				<g>
					<path d="M601.6,434.7c-6.5,0-11.7-5.3-11.7-11.7c0-6.5,5.3-11.7,11.7-11.7c6.5,0,11.7,5.3,11.7,11.7
						C613.3,429.4,608,434.7,601.6,434.7z M601.6,413.3c-5.3,0-9.6,4.3-9.6,9.6s4.3,9.6,9.6,9.6c5.3,0,9.6-4.3,9.6-9.6
						S606.9,413.3,601.6,413.3z"/>
				</g>
			</g>
			<g>
				<rect x="611.9" y="421.9" width="52.3" height="2.1"/>
			</g>
		</g>
		<g>
			<g>
				<ellipse class="st13" cx="674.6" cy="422.9" rx="10.7" ry="10.7"/>
			</g>
			<g>
				<path d="M674.6,434.7c-3.8,0-7.5-1.8-9.8-5.2h0c-3.6-5.4-2.2-12.7,3.2-16.3c5.4-3.6,12.7-2.2,16.3,3.2
					c3.6,5.4,2.2,12.7-3.2,16.3C679.1,434,676.8,434.7,674.6,434.7z M666.6,428.3c3,4.4,8.9,5.6,13.3,2.6c4.4-2.9,5.6-8.9,2.6-13.3
					c-3-4.4-8.9-5.6-13.3-2.6C664.8,417.9,663.7,423.9,666.6,428.3L666.6,428.3z"/>
			</g>
		</g>
		<g>
			<g>
				<g>
					<ellipse class="st13" cx="705.2" cy="466.4" rx="10.7" ry="10.7"/>
				</g>
				<g>
					<path d="M705.2,478.1c-3.8,0-7.5-1.8-9.8-5.2h0c-3.6-5.4-2.2-12.7,3.2-16.3c5.4-3.6,12.7-2.2,16.3,3.2
						c3.6,5.4,2.2,12.7-3.2,16.3C709.7,477.5,707.5,478.1,705.2,478.1z M697.2,471.8c3,4.4,8.9,5.6,13.3,2.6
						c4.4-2.9,5.6-8.9,2.6-13.3c-3-4.4-8.9-5.6-13.3-2.6C695.4,461.4,694.3,467.4,697.2,471.8L697.2,471.8z"/>
				</g>
			</g>
			<g>
				<rect x="688.2" y="429" transform="matrix(0.83 -0.5577 0.5577 0.83 -131.1306 460.0302)" width="2.1" height="32.4"/>
			</g>
		</g>
		<g>
			<g>
				<g>
					<ellipse class="st13" cx="632.4" cy="466.8" rx="10.7" ry="10.7"/>
				</g>
				<g>
					<path d="M632.4,478.5c-3.8,0-7.5-1.8-9.8-5.2h0c-3.6-5.4-2.2-12.7,3.2-16.3c2.6-1.7,5.7-2.4,8.8-1.8c3.1,0.6,5.7,2.4,7.5,5
						c3.6,5.4,2.2,12.7-3.2,16.3C636.9,477.9,634.7,478.5,632.4,478.5z M624.4,472.1c3,4.4,8.9,5.6,13.3,2.6
						c4.4-2.9,5.6-8.9,2.6-13.3c-1.4-2.1-3.6-3.6-6.1-4.1c-2.5-0.5-5.1,0-7.2,1.4C622.6,461.8,621.5,467.7,624.4,472.1L624.4,472.1z
						"/>
				</g>
			</g>
			<g>
				<rect x="615.4" y="429.3" transform="matrix(0.83 -0.5577 0.5577 0.83 -143.7162 419.496)" width="2.1" height="32.4"/>
			</g>
		</g>
		<g>
			<g>
				<g>
					<ellipse class="st13" cx="553" cy="400.2" rx="10.7" ry="10.7"/>
				</g>
				<g>
					<path d="M553,411.9c-1.9,0-3.7-0.5-5.4-1.3c-5.7-3-8-10.1-5-15.8c1.5-2.8,3.9-4.8,6.9-5.8c3-0.9,6.2-0.7,8.9,0.8
						c2.8,1.5,4.8,3.9,5.8,6.9c0.9,3,0.7,6.2-0.8,8.9c-1.5,2.8-3.9,4.8-6.9,5.8C555.3,411.7,554.2,411.9,553,411.9z M553,390.6
						c-1,0-1.9,0.1-2.9,0.4c-2.4,0.8-4.4,2.4-5.6,4.7c-2.5,4.7-0.6,10.5,4.1,12.9c2.3,1.2,4.9,1.4,7.3,0.7c2.4-0.8,4.4-2.4,5.6-4.7
						c1.2-2.3,1.4-4.9,0.7-7.3s-2.4-4.4-4.7-5.6l0,0C556,390.9,554.5,390.6,553,390.6z"/>
				</g>
			</g>
			<g>
				<rect x="576.1" y="395" transform="matrix(0.4632 -0.8862 0.8862 0.4632 -54.617 732.2414)" width="2.1" height="32.4"/>
			</g>
		</g>
		<g>
			<g>
				<g>
					<ellipse class="st13" cx="651.1" cy="364.4" rx="10.7" ry="10.7"/>
				</g>
				<g>
					<path d="M651.1,376.1c-1.7,0-3.4-0.4-5-1.1c-2.8-1.4-5-3.7-6-6.7c-1-3-0.9-6.1,0.5-9c1.4-2.8,3.7-5,6.7-6c3-1,6.1-0.9,9,0.5
						c5.8,2.8,8.3,9.8,5.5,15.6C659.7,373.7,655.5,376.1,651.1,376.1z M651.1,354.8c-1.1,0-2.2,0.2-3.2,0.6
						c-2.4,0.9-4.4,2.6-5.5,4.9c-1.1,2.3-1.2,4.9-0.4,7.3c0.9,2.4,2.6,4.4,4.9,5.5c4.8,2.3,10.5,0.3,12.8-4.5
						c2.3-4.8,0.3-10.5-4.5-12.8C654,355.1,652.5,354.8,651.1,354.8z"/>
				</g>
			</g>
			<g>
				<rect x="625.5" y="338" transform="matrix(0.4314 -0.9022 0.9022 0.4314 36.7067 766.7048)" width="2.1" height="32.4"/>
			</g>
		</g>
		<g>
			<g>
				<g>
					<ellipse class="st13" cx="717.2" cy="391.4" rx="10.7" ry="10.7"/>
				</g>
				<g>
					<path d="M717.2,403.1c-0.8,0-1.5-0.1-2.3-0.2c-3.1-0.6-5.7-2.4-7.5-5c-3.6-5.4-2.2-12.7,3.2-16.3c5.4-3.6,12.7-2.2,16.3,3.2
						c3.6,5.4,2.2,12.7-3.2,16.3l0,0C721.8,402.4,719.6,403.1,717.2,403.1z M717.2,381.8c-1.8,0-3.7,0.5-5.3,1.6
						c-4.4,2.9-5.6,8.9-2.6,13.3c1.4,2.1,3.6,3.6,6.1,4.1c2.5,0.5,5.1,0,7.2-1.4l0,0c4.4-2.9,5.6-8.9,2.6-13.3
						C723.3,383.3,720.3,381.8,717.2,381.8z"/>
				</g>
			</g>
			<g>
				<rect x="679.8" y="406.3" transform="matrix(0.83 -0.5577 0.5577 0.83 -108.8822 457.3864)" width="32.4" height="2.1"/>
			</g>
		</g>
		<g>
			<g>
				<g>
					<ellipse class="st16" cx="601.6" cy="344.1" rx="10.7" ry="10.7"/>
				</g>
				<g>
					<path d="M601.6,355.8c-3.1,0-6.1-1.2-8.3-3.4c-4.6-4.6-4.6-12,0-16.6c2.2-2.2,5.2-3.4,8.3-3.4c3.1,0,6.1,1.2,8.3,3.4l0,0l0,0
						c2.2,2.2,3.4,5.2,3.4,8.3s-1.2,6.1-3.4,8.3C607.6,354.6,604.7,355.8,601.6,355.8z M601.6,334.5c-2.6,0-5,1-6.8,2.8
						c-3.7,3.7-3.7,9.8,0,13.6c1.8,1.8,4.2,2.8,6.8,2.8c2.6,0,5-1,6.8-2.8c1.8-1.8,2.8-4.2,2.8-6.8s-1-5-2.8-6.8l0,0
						C606.5,335.5,604.1,334.5,601.6,334.5z"/>
				</g>
			</g>
			<g>
				<rect x="574.4" y="291.9" transform="matrix(0.7068 -0.7074 0.7074 0.7068 -56.3003 500.3708)" width="2.1" height="52.3"/>
			</g>
		</g>
		<g>
			<g>
				<rect x="548.8" y="448.1" transform="matrix(0.7068 -0.7074 0.7074 0.7068 -149.1006 538.6718)" width="53" height="2.1"/>
			</g>
		</g>
		<g>
			<g>
				<g>
					<ellipse class="st16" cx="475.3" cy="220" rx="10.7" ry="10.7"/>
				</g>
				<g>
					<path d="M475.3,231.7c-6.5,0-11.7-5.3-11.7-11.7s5.3-11.7,11.7-11.7S487,213.5,487,220S481.8,231.7,475.3,231.7z M475.3,210.4
						c-5.3,0-9.6,4.3-9.6,9.6c0,5.3,4.3,9.6,9.6,9.6s9.6-4.3,9.6-9.6C484.9,214.7,480.6,210.4,475.3,210.4z"/>
				</g>
			</g>
			<g>
				<g>
					<ellipse class="st16" cx="475.3" cy="293.3" rx="10.7" ry="10.7"/>
				</g>
				<g>
					<path d="M475.3,305c-6.5,0-11.7-5.3-11.7-11.7c0-6.5,5.3-11.7,11.7-11.7s11.7,5.3,11.7,11.7C487,299.8,481.8,305,475.3,305z
						 M475.3,283.7c-5.3,0-9.6,4.3-9.6,9.6c0,5.3,4.3,9.6,9.6,9.6s9.6-4.3,9.6-9.6C484.9,288,480.6,283.7,475.3,283.7z"/>
				</g>
			</g>
			<g>
				<rect x="474.2" y="230.3" width="2.1" height="52.3"/>
			</g>
		</g>
		<g>
			<g>
				<g>
					<ellipse class="st16" cx="548.7" cy="475.6" rx="10.7" ry="10.7"/>
				</g>
				<g>
					<path d="M548.7,487.3c-6.5,0-11.7-5.3-11.7-11.7c0-6.5,5.3-11.7,11.7-11.7c6.5,0,11.7,5.3,11.7,11.7
						C560.4,482.1,555.2,487.3,548.7,487.3z M548.7,466c-5.3,0-9.6,4.3-9.6,9.6c0,5.3,4.3,9.6,9.6,9.6s9.6-4.3,9.6-9.6
						C558.3,470.3,554,466,548.7,466z"/>
				</g>
			</g>
			<g>
				<g>
					<ellipse class="st16" cx="548.7" cy="548.9" rx="10.7" ry="10.7"/>
				</g>
				<g>
					<path d="M548.7,560.7c-6.5,0-11.7-5.3-11.7-11.7s5.3-11.7,11.7-11.7c6.5,0,11.7,5.3,11.7,11.7S555.2,560.7,548.7,560.7z
						 M548.7,539.4c-5.3,0-9.6,4.3-9.6,9.6s4.3,9.6,9.6,9.6s9.6-4.3,9.6-9.6S554,539.4,548.7,539.4z"/>
				</g>
			</g>
			<g>
				<rect x="547.6" y="486" width="2.1" height="52.3"/>
			</g>
		</g>
		<g>
			<rect x="600.5" y="354.8" width="2.1" height="57.5"/>
		</g>
	</g>
	<g>
		<g>
			<path d="M173,586.4H45.8c-0.6,0-1.1-0.5-1.1-1.1s0.5-1.1,1.1-1.1H173c0.6,0,1.1,0.5,1.1,1.1S173.6,586.4,173,586.4z"/>
		</g>
		<g>
			<path d="M173,617.3H45.8c-0.6,0-1.1-0.5-1.1-1.1c0-0.6,0.5-1.1,1.1-1.1H173c0.6,0,1.1,0.5,1.1,1.1
				C174,616.8,173.6,617.3,173,617.3z"/>
		</g>
		<g>
			<path d="M116,648.2H45.8c-0.6,0-1.1-0.5-1.1-1.1c0-0.6,0.5-1.1,1.1-1.1H116c0.6,0,1.1,0.5,1.1,1.1
				C117.1,647.7,116.6,648.2,116,648.2z"/>
		</g>
	</g>
	<g>
		<path class="st17" d="M495.8,706.6"/>
	</g>
	<g>
		<g>
			<g>
				<path d="M683.2,170.4h-49.6V99.3c0-7.7,6.3-14,14-14h21.5c7.7,0,14,6.3,14,14V170.4z M635.7,168.2H681v-69
					c0-6.6-5.3-11.9-11.9-11.9h-21.5c-6.6,0-11.9,5.3-11.9,11.9V168.2z"/>
			</g>
			<g>
				<rect x="607.1" y="133.4" class="st5" width="102.6" height="76.5"/>
			</g>
		</g>
		<g>
			<g>
				<path class="st4" d="M666.1,167.5c0-4.3-3.5-7.7-7.7-7.7s-7.7,3.5-7.7,7.7c0,3,1.8,5.7,4.3,6.9v7.4c0,0.9,0.8,1.7,1.7,1.7h3.4
					c0.9,0,1.7-0.8,1.7-1.7v-7.4C664.3,173.2,666.1,170.5,666.1,167.5z"/>
			</g>
			<g>
				<path class="st18" d="M660.1,184.6h-3.4c-1.5,0-2.8-1.2-2.8-2.8V175c-2.7-1.6-4.3-4.4-4.3-7.6c0-4.8,3.9-8.8,8.8-8.8
					c4.8,0,8.8,3.9,8.8,8.8c0,3.1-1.6,6-4.3,7.6v6.8C662.8,183.3,661.6,184.6,660.1,184.6z M658.4,160.9c-3.7,0-6.6,3-6.6,6.6
					c0,2.5,1.4,4.8,3.7,6l0.6,0.3v8.1c0,0.3,0.3,0.6,0.6,0.6h3.4c0.3,0,0.6-0.3,0.6-0.6v-8.1l0.6-0.3c2.3-1.1,3.7-3.4,3.7-6
					C665,163.8,662,160.9,658.4,160.9z"/>
			</g>
		</g>
	</g>
	<g>
		<defs>
			<rect id="SVGID_1_" x="125.6" y="935.6" width="246.9" height="88.4"/>
		</defs>
		<clipPath id="SVGID_2_">
			<use xlink:href="#SVGID_1_"  style="overflow:visible;"/>
		</clipPath>
		<g class="st19">
			<g>
				<path class="st14" d="M289.8,1109.4l-118.2,84.3l9.1,36.8l161.6-87.8c6.7-3.6,10.3-11.2,8.8-18.7L321.1,971l-10.5-29.1l-0.1-0.8
					l-0.9-5.4l-19.4,8.4l-7.9,3.4l-37.7,12.4l46.6,145.5C291.7,1106.9,291.1,1108.5,289.8,1109.4z"/>
			</g>
			<g>
				<polygon class="st20" points="216.4,1287.1 253.7,1282 270.2,987.4 265.3,936.5 199.7,947.7 200.4,957.9 200.4,959.7 
					199.3,997.9 				"/>
			</g>
		</g>
	</g>
	<g>
		<path class="st21" d="M347.1,820.4c-0.3-8.5-19,6.3-25,9.8c-2.8,1.6-12.8,18.7-8.1,23.7C317.6,857.8,345,842.4,347.1,820.4z"/>
	</g>
	<g>
		<path class="st22" d="M305.6,931.4c1.1,8.2,15.6,22.6,28.9,29.5c1.9,1,4.1,1.7,6.2,2.6l-12.3-34.2l-0.2-1L305.6,931.4z"/>
	</g>
	<g>
		<path class="st13" d="M330.7,934c0.4,2.8-18.6,6.8-42.3,10.3c-16.1,2.4-34.4,4.5-50.2,6c-22,2-39.3,2.6-39.6,0.5l0,0
			c-0.6-7.1-1.6-42.6-2.4-75.3c-0.2-6.5-0.3-12.8-0.5-18.8c0-0.1,0-0.1,0-0.2c0,0,0-0.1,0-0.1c-0.1-2.4-0.1-4.8-0.2-7
			c0-0.6,0-1.1,0-1.7c-0.4-17.8-0.7-30.7-0.7-30.7c-1.7-12.7,5.8-24.1,16.7-25.6l68.5-9.3c11-1.5,21.2,7.6,23,20.2
			C303,802.4,328.6,920.5,330.7,934z"/>
	</g>
	<g>
		<path class="st7" d="M436.4,839.2c-1.8,7-8.8,9.2-13.4,11.4c-2.4,1.2-6.5,2.6-11.6,4.5c-4.8,1.8-36.8,17.3-38.3,16.5
			c-4.8-2.4-8.5-26.8,0.3-29.1c21.3-5.6,30.5-7.3,41-18.3c0.3-0.4,0.7-0.7,1-1c8-8.3,9.7-9.9,12-9.2c2.5,0.8,3.5,2.1,5.7,7.8
			C435.7,828.9,437.6,834.4,436.4,839.2z"/>
	</g>
	<g>
		<path class="st8" d="M439.7,840.1c-1.8,7-12.1,8.2-16.7,10.5c-2.4,1.2-6.5,2.6-11.6,4.5c0-1.3,0.1-2.3,0.2-2.7
			c0.7-6.1,4.5-7.5,5.6-13.8c0.2-1,0.5-3.1-1-10.9c-0.3-1.4-0.6-2.9-0.9-4.5c8-8.3,9.7-9.9,12-9.2c2.5,0.8,3.5,2.1,5.7,7.8
			C435.7,828.9,440.9,835.4,439.7,840.1z"/>
	</g>
	<g>
		<path class="st23" d="M401.7,834.8c-0.7-0.6,6.7-18.3,8.8-20.2c2.2-2,8.2-6.1,9.2-2.2c0.2,0.9-2.8,4.9-3.7,6
			c-1.8,2.3-0.7,5.8-3.2,9.9C410.8,831.7,402.4,835.5,401.7,834.8z"/>
	</g>
	<g>
		<path class="st23" d="M432.8,837.9c0,0-46.7,5.6-65.2,7.8c-4.5,0.5-7.3,0.9-7.4,0.9c-8.2,2.4-7.7,9.9-9.8,19.8l-0.1,0.5
			c-0.1,0.5-0.2,0.9-0.3,1.4c-1.3,7.9,0.8,15.6,6.4,18.3c1.8,0.8,3.9,1.2,6.3,0.8c7-1,14-2.7,20.7-4.9c29.9-9.7,54.8-28.2,54.8-28.2
			L432.8,837.9z"/>
	</g>
	<g>
		<path class="st23" d="M302.8,810.4c-1.6,0.3-3.1,0.6-4.6,1c-10.7,2.5-19.1,6-16.2,8.7l53.7,47.6L354,884c2.7,2.5,6.2,3.9,9.8,4.2
			c4.9,0.4,10.2-1.3,14-4.9l1.8-1.7l2.6-2.4c6.7-6.3,7-16.2,0.5-22.1l-11.5-10.6L331.4,810C328.3,807.1,314.9,808,302.8,810.4z"/>
	</g>
	<g>
		<path class="st24" d="M302.8,810.4c-1.6,0.3-3.1,0.6-4.6,1c-10.7,2.5-19.1,6-16.2,8.7l53.7,47.6c-6.1-6.9-15-17.4-23.3-34.4
			C307.4,823.5,304.9,815.9,302.8,810.4z"/>
	</g>
	<g>
		<path class="st25" d="M347.1,820.4c-10.4,3.7-35,27.8-34.6,38.5c0.1,4.3-55.4-47.3-55.4-47.3c6.4-24.8,18.7-33.4,40.8-28.1
			C315.2,787.6,350.5,819.2,347.1,820.4z"/>
	</g>
	<g>
		<path class="st26" d="M198.6,950.8L198.6,950.8c0.3,2.1,17.6,1.5,39.6-0.5c-42.5-18.4-38.2-90.3-42.4-93.9c0,0,0,0.1,0,0.1
			c0,0,0,0.1,0,0.2c0.1,6,0.3,12.4,0.5,18.8C197,908.2,198,943.7,198.6,950.8z"/>
	</g>
	<g>
		<path class="st4" d="M288.4,944.3c-16.1,2.4-34.4,4.5-50.2,6c-22,2-39.3,2.6-39.6,0.5l0,0c-0.6-7.1-1.6-42.6-2.4-75.3
			c-0.2-6.5-0.3-12.8-0.5-18.8c0-0.1,0-0.1,0-0.2c0,0,0-0.1,0-0.1c-0.1-2.4-0.1-4.8-0.2-7c0-0.6,0-1.1,0-1.7
			c6.6-6.7,13.7-13.3,21.3-19.9c8.4,23,14,38.8,17.2,47.7c7.1,19.8,9.9,27.8,17.5,37.9c8.7,11.6,19.1,19.7,20.6,20.9
			C279.7,940.1,285.1,942.7,288.4,944.3z"/>
	</g>
	<g>
		<ellipse class="st5" cx="343.6" cy="865.9" rx="104.9" ry="104.8"/>
	</g>
	<g>
		<path class="st27" d="M256.6,770.8c-5.5,0.4-13-1-18.8-4.5c-2.6-1.6-4.7-3.5-6.3-5.3c-0.1-0.7-0.1-1.2-0.1-1.6
			c0,0,18.8-2.3,22.2-2.3c0.4,2.4,0.9,5.3,1.6,8.2C255.8,767.4,256.2,769.2,256.6,770.8z"/>
	</g>
	<g>
		<path class="st8" d="M212.7,951.6l-10.5-25.1l-26.6-63.8c-1.6-4,9.7-3,21.9,0.1c12.3,3.1,25.5,8.2,27.1,12.3l25.8,64.8
			c3.2,8.1-1.3,16.9-10.1,19.7l-5.8,1.8C225.8,964,216,959.7,212.7,951.6z"/>
	</g>
	<g>
		<g>
			<g>
				<g>
					<path class="st8" d="M313,976.6c-0.5,1.7,6.4,7.8,17,11.4c12.9,4.3,4.5,3.1,29,3c2.1,0,4.6-0.9,5.1-1.9
						c0.6-1.3-2.3-2.6-2.6-2.7c-1.4-0.6-16.9-1.2-18.8-1.4C336.6,984.2,313.7,974.3,313,976.6z"/>
				</g>
				<g>
					<path class="st8" d="M317.3,963.9c4.3,4.7,21,8.9,29.8,11.6c7.6,2.3,4.1,0.7,16.8,0.7c2,0,4.6,0.2,5.1-0.9
						c0.7-1.4-1.6-2.8-1.9-2.9c-4.5-1.4-17.2-2.5-18.7-3.2C334.2,962.6,315.5,961.9,317.3,963.9z"/>
				</g>
				<g>
					<path class="st8" d="M326.1,975.9c2-1.3,2.4-2.1,6.6-0.7c4,1.4,16.4,7.7,24.8,7.3c4.9-0.2,10,0.8,11.3,1.5
						c0.3,0.2,2.9,1.7,2.3,2.9c-0.5,0.9-2.8,1.1-4.8,1.3c-9.2,1-11.3,1.3-14.7,1c-2.5-0.2-15.7-1.7-23-4.4c-10.2-3.7-4.5-5.7-4-7.2
						C324.8,977,325.3,976.4,326.1,975.9z"/>
				</g>
				<g>
					<path class="st8" d="M327.5,970.8c2-1.3,4-3,8.2-1.5c4,1.4,11.3,8.9,23.2,8.2c5-0.3,10,0.8,11.3,1.5c0.3,0.2,2.9,1.7,2.3,2.9
						c-0.5,0.9-2.8,1.1-4.8,1.3c-9.2,1-11.3,1.3-14.7,1c-2.5-0.2-15.7-1.7-23-4.4c-10.2-3.7-4.5-5.7-4-7.2
						C326.2,972,326.7,971.3,327.5,970.8z"/>
				</g>
				<g>
					<path class="st8" d="M287.1,952.3c1-0.7,5.3,0.8,10.4,2.9c2.1,0.8,4.4,1.8,6.7,2.7c4.3,1.7,8.6,3.3,11.7,4
						c1.5,0.3,2.7,0.5,3.5,0.3c3.7-0.6,6.5-0.4,12.5,0.8c5.2,1,18,6.6,17.5,7.7c-0.9,2.2-2.5,3.3-4.3,3.9c-0.2,0.1-0.3,0.1-0.5,0.1
						l0,0c-4.2,1.1-9-0.6-8.4,1.9c0,0,0,0,0,0c0.1,0.5,0.4,1.1,1,1.9c0.9,1.4,2.9,2.8,5.3,4.2c0,0,0,0,0,0c0,0,0,0,0,0
						c1.4,0.8,2.9,1.6,4.4,2.4l0,0c3.3,1.7,6.5,3.1,7.9,4.2c0,0,0,0,0,0c1.3,0.9,1.1,1.9-1.4,1.6c-8.4-1-13.3-1.3-21.2-2.5l0,0
						c-0.1,0-0.3,0-0.4-0.1c0,0,0,0,0,0c-5.8-1.5-50.4-11-53.9-13.5c-1.5-1.1,0.9-3.5,1.3-7.1C280.1,961.3,281.5,956.2,287.1,952.3z
						"/>
				</g>
			</g>
		</g>
	</g>
	<g>
		<g>
			<path class="st11" d="M294.9,729.5c-2.6,2.4-5.8,4.3-8.1,7c-2.3,2.7-3.6,6.9-1.7,9.9c1.9,3,6.3,4,7.7,7.3
				c1.2,2.9-0.4,6.2-2.6,8.4c-3.6,3.8-8.8,6-14.1,6c-0.1,0-0.3,0-0.4,0c-4.2-0.1-9.2-1.3-12.2,1.6c-2.1,2.1-2.3,5.3-3.2,8.1
				c-0.5,1.5-1.1,2.8-2,4.1l-0.3-1.7c-0.6,0.1-1.8,0.6-2.4,0.6l-0.4,3.8c-2,2.1-3.1,3.2-5.8,4.1c-0.8,0.3-1.7,0.5-2.6,0.7
				c-5.4,1-11.2-0.5-15.6-3.7c-0.6-0.4-1.1-0.9-1.7-1.3c-2.5-2.2-4.9-5.2-8.2-5.6c-4.6-0.6-8.2,3.9-12.5,5.5
				c-3.5,1.3-7.6,0.6-10.4-1.7c-2.9-2.3-4.4-6.2-3.9-9.8c0.4-3.1,2.2-5.8,3-8.7c0.8-3,0.5-6.7-2.2-8.3c-2.3-1.3-5.3-0.5-7.5-1.9
				c-2.9-1.8-2.7-6.2-1.1-9.1c1.7-2.9,4.4-5.2,6.1-8.1c1.7-2.9,1.8-7.3-1.1-9.1c-0.8-0.5-1.7-0.7-2.4-1.2c-2.9-1.8-2.5-6.4-0.3-9
				c2.2-2.6,5.5-3.9,8.5-5.6c3-1.7,5.9-4.4,6-7.8c0.1-1.9-0.7-3.7-0.6-5.6c0.3-3,3.1-5.3,6.1-6c3-0.7,6-0.3,9.1-0.1
				c1.7,0.1,3.4,0.1,5.1-0.1c8.4-8.6,20.5-13.5,32.6-13c4.3,0.2,8.7,1.1,12.2,3.5c3.5,2.4,6.1,6.6,5.7,10.9c-0.4,3.8-3,7.4-2.2,11.2
				c0.7,3.7,4.4,6.1,8.1,7c3.7,0.9,7.5,0.7,11.2,1.5c3.7,0.8,7.4,3.2,8.2,6.8C299.7,723.5,297.6,727,294.9,729.5z"/>
		</g>
		<g>
			<path class="st7" d="M256.8,790.5L256.8,790.5c-10.9-1.4-20.3-7.8-25.4-17l0-1.3c0.1-1,0.6-2,1.6-2.5l5.3,3.3l3.4,2.1l2.2-1.5
				l3.5-2.3l6-4l3.1,9l0.2,9.8L256.8,790.5z"/>
		</g>
		<g>
			<polygon class="st7" points="256.5,776.3 253.4,767.3 256,765.6 256.4,765.4 256.3,767.8 256.4,771.2 			"/>
		</g>
		<g>
			<path class="st8" d="M256.9,795.4c0,0.5,0,0.9-0.1,1.4l0,0.1c0,0.3-0.1,0.6-0.1,0.9c-0.7,4.4-3.4,8.4-7.3,10.6
				c-1.2,0.7-2.5,1.1-3.8,1.4c-7.6,1.4-15-4.5-14.7-13.1v-0.2l0-0.3l0-0.6l0.3-3.9l0.3-18.4c5.1,9.2,14.5,15.6,25.4,17l0,0.3
				L256.9,795.4z"/>
		</g>
		<g>
			<path class="st9" d="M256.8,790.5L256.8,790.5c-2.5-0.3-5-0.9-7.4-1.7c-7.2-2.6-13.3-7.5-17.2-13.8c-0.3-0.5-0.6-0.9-0.8-1.4
				l0-1.3c0.1-1,0.6-2,1.6-2.5l5.3,3.3l3.4,2.1l2.2-1.5l3.5-2.3l6-4l3.1,9l0.1,5.9l0,1.9l0,2L256.8,790.5z"/>
		</g>
		<g class="st28">
			<path class="st7" d="M250.5,758.9l2.9,8.5l-6,4l-3.5,2.3l-2.2,1.5l-3.4-2.1l-5.3-3.3c-0.9,0.5-1.5,1.5-1.6,2.5l0,1.3
				c-0.8-1.5-1.5-3-2.1-4.6c-0.5-1.2-0.8-2.4-1.1-3.6l4.3,0.8l3.8,1.1l4.5,1.3l8.9-9.8C249.9,758.7,250.2,758.8,250.5,758.9z"/>
		</g>
		<g>
			<path class="st29" d="M232,762.3c1.6,2.7,4.3,7.4,8,10.1c4.4,3.1,11.7,4.7,15.8,4.4c-0.6-5.8-1.3-12.2-1.5-14.4
				c-0.1-0.6-0.1-0.9-0.1-0.9h-20.1C233.3,761.5,232.5,761.8,232,762.3z"/>
		</g>
		<g>
			<path class="st8" d="M276.7,766.5c-0.2,0.5-0.4,1-0.7,1.6c-3.5,7.3-10.1,12.4-17.7,13.8h0c-0.6,0.1-1.2,0.2-1.7,0.2
				c-1.9,0.2-3.9,0.2-5.9-0.2c-5-0.8-11-2.8-18.1-6.9c-0.1-0.1-0.3-0.1-0.4-0.2c-0.3-0.2-0.6-0.3-0.8-0.5c-0.5-0.3-1-0.6-1.4-0.9
				c0,0-8.8-5.4-14-16.2c0,0-11.5,2.4-13-9.7c0,0-1.6-12.1,8.4-9.3c0,0-10.9-22.4,1.2-31.8c0,0,15.7-18.8,38.6-8.4
				c3.9,1.7,7.3,4.3,10.3,7.4c4.2,4.3,10.1,11.4,11.3,18.4c0,0,0.4,5.8,3.4,12.3c1.9,4.3,3.1,8.8,3.4,13.4c0,0.5,0,1.1,0,1.6
				C279.5,755.5,278.9,761,276.7,766.5z"/>
		</g>
		<g>
			<path class="st10" d="M246.4,759.4c4.3,2.5,9.7,2.5,14,0.2c1.2-0.7,2.2,1.3,1,2c-5,2.7-11.2,2.5-16.2-0.4
				C244,760.6,245.2,758.7,246.4,759.4z"/>
		</g>
		<g>
			<path class="st10" d="M260.2,751.8c1.2-0.1,2.4-0.5,3.4-1.2c0.5-0.3,1-0.8,1.3-1.2c0.1-0.1,0.2-0.3,0.2-0.4c0,0.1,0,0,0,0
				c-0.1-0.3-0.5-0.6-0.7-0.8c-1.8-2.2-3.8-4.2-6-6.1c-0.5-0.4-0.6-1-0.3-1.5c0.3-0.5,1.1-0.7,1.5-0.3c1.4,1.2,2.7,2.4,3.9,3.7
				c0.6,0.6,1.2,1.2,1.7,1.9c0.6,0.7,1.3,1.4,1.7,2.1c1,1.7-0.5,3.3-1.8,4.3c-1.3,1-2.9,1.7-4.6,1.8c-0.6,0.1-1.2-0.3-1.3-0.9
				C259.2,752.5,259.6,751.9,260.2,751.8z"/>
		</g>
		<g>
			<path class="st11" d="M240.4,737.8c0.7,1.9,2.3,3.1,3.6,2.7c1.3-0.4,1.8-2.4,1.1-4.3c-0.7-1.9-2.3-3.1-3.6-2.7
				C240.2,733.9,239.7,735.8,240.4,737.8z"/>
		</g>
		<g>
			<path class="st11" d="M261.9,731.3c0.7,1.9,2.3,3.1,3.6,2.7c1.3-0.4,1.8-2.4,1.1-4.3c-0.7-1.9-2.3-3.1-3.6-2.7
				C261.7,727.5,261.2,729.4,261.9,731.3z"/>
		</g>
		<g>
			<path class="st11" d="M273.4,713c0-3.9-1.6-7.8-4-10.9c-2.5-3.1-5.7-5.5-9.2-7.3c-10-5.4-22.3-6.6-32.9-2.7
				c-10.6,4-19.3,13.3-21.7,24.3c-2,9.3,0.7,19.6,7.1,26.6c7.6,9.5,9.4-10.9,12.4-16.8c3-5.9,10.1-9.6,16.6-8.3
				c2.8,0.5,6,1.8,8.4,0.3c2.1-1.3,2.8-4.1,4.7-5.7C257.3,710.5,273.4,716,273.4,713z"/>
		</g>
	</g>
	<g>
		<g>
			<path class="st8" d="M441.5,816.2c-1.2-2-2.4-2.5-8.4-6.5c-3.8-2.5-4.6-2.6-5-2.9c-1.9-1.2-1.4,1.8,1.1,4.9
				c3.7,4.6,12.1,11.3,13.5,10.1C443.6,820.9,442.5,817.9,441.5,816.2z"/>
		</g>
		<g>
			<path class="st8" d="M443.1,820.5c-1.2-2-2.7,0-8.7-4c-3.8-2.5-4.7-3.2-5-2.9c-0.8,0.7,0.8,4.6,3.7,7.3c4.6,4.2,9.8,6.4,11.2,5.2
				C445.2,825.2,444.1,822.2,443.1,820.5z"/>
		</g>
		<g>
			<path class="st8" d="M444.9,826c-1.5-1.8-2.3-0.7-8.9-3.6c-4.1-1.8-5.1-2.3-5.4-1.9c-0.6,0.8,2.1,4.5,5.1,7.2
				c4.4,3.9,9.4,7.3,10.6,5.7C447,832.4,446.1,827.6,444.9,826z"/>
		</g>
		<g>
			<path class="st8" d="M446,831c-0.3-0.4-0.8-0.7-1-0.8c-0.9-0.4-2-0.3-7-1.8c-4.3-1.4-5.3-1.8-5.5-1.4c-0.5,0.9,4.4,5.7,8.1,7.6
				c0.3,0.2,1.1,0.7,2,1.7c0.4,0.5,1.1,1.1,1.6,2.1c1,1.7,1.2,2.5,1.5,2.5c0.5,0,0.8-1.9,0.9-2.5c0.1-1.1,0-1.4,0-3.6
				C446.5,832.4,446.6,831.7,446,831z"/>
		</g>
	</g>
	<g>
		<path class="st8" d="M222.2,960.4c34,17.9,80.7,17,80.7,17l5-16.6c0,0-63.6-34.9-64.1-35.1c-8.1-2.8-12,3.6-19.5,10.4l-0.4,0.3
			C215.6,944,212.6,955.4,222.2,960.4z"/>
	</g>
	<g>
		<g>
			<path class="st3" d="M343.6,784.8c-44.8,0-81.2,36.4-81.2,81.2c0,44.7,36.4,81.2,81.2,81.2s81.2-36.4,81.2-81.2
				C424.8,821.2,388.4,784.8,343.6,784.8z M343.6,787.5c28.5,0,53.6,15.3,67.3,38.1H364c0,0-0.1,0-0.1,0c-0.1,0-0.1,0-0.2,0
				c-0.1,0-0.1,0-0.2,0c-0.1,0-0.1,0-0.2,0c-0.1,0-0.1,0-0.2,0.1c0,0-0.1,0-0.1,0.1c0,0-0.1,0.1-0.1,0.1c0,0-0.1,0.1-0.1,0.1
				c0,0-0.1,0.1-0.1,0.1c0,0-0.1,0.1-0.1,0.1c0,0-0.1,0.1-0.1,0.2c0,0,0,0,0,0.1l-20,37.8h-33.3c-0.9,0-1.7,0.8-1.7,1.7
				s0.8,1.7,1.7,1.7h31.5l-18.5,35h-47.8c0,0-0.1,0-0.1,0c-5.9-11-9.2-23.5-9.2-36.9C265.1,822.7,300.3,787.5,343.6,787.5z
				 M343.6,944.3c-28.5,0-53.6-15.3-67.3-38.1h47c0.6,0,1.2-0.4,1.5-0.9l19.8-37.5h32.9c0.9,0,1.7-0.8,1.7-1.7s-0.8-1.7-1.7-1.7
				h-31.1l18.6-35.3h47.8c5.9,11,9.2,23.5,9.2,36.8C422.1,909.2,386.9,944.3,343.6,944.3z"/>
		</g>
	</g>
	<g>
		<path class="st13" d="M229,877.6c-1.3-20.5-10.3-84.4-21.3-85.1c0,0-31.8,7.5-37.3,34.1c-1.7,8,2.7,46.5,5.1,61.7L229,877.6z"/>
	</g>
</g>
</svg>
