<?xml version="1.0" encoding="utf-8"?>
<!-- Generator: Adobe Illustrator 27.2.0, SVG Export Plug-In . SVG Version: 6.00 Build 0)  -->
<svg version="1.1" id="Ebene_1" xmlns="http://www.w3.org/2000/svg" xmlns:xlink="http://www.w3.org/1999/xlink" x="0px" y="0px"
	 viewBox="0 0 300 100" style="enable-background:new 0 0 300 100;" xml:space="preserve">
<style type="text/css">
	.st0{fill:#3D3939;}
</style>
<g id="_x39_tpYhn.tif">
	<g>
		<path class="st0" d="M181.2,54.4c-0.9,0-1.7,0-2.6,0c-11.4,0-22.8,0-34.3,0c-8,0-16-0.1-24-0.2c-1.6,0-3.3-0.4-4.6-1.4
			c-1.8-1.4-3.1-3.2-3.5-5.5c-0.4-2.2,0.2-4.2,1.3-6.1c1.3-2.1,2.5-4.3,3.7-6.4c1.3-2.3,2.7-4.6,4-6.9c1.4-2.4,2.6-4.7,4-7.1
			c1.9-3.4,3.9-6.7,5.9-10.1c1.1-1.9,2.7-3.3,4.9-4c1.5-0.5,3-0.4,4.4-0.2c1.1,0.2,2.1,0.8,3.1,1.5c1.8,1.3,2.6,3.2,3.6,4.9
			c0.5,0.9,1,1.7,1.5,2.6c1.8,3.1,3.5,6.2,5.3,9.2c3.6,6.1,7.2,12.3,10.8,18.4c1.4,2.3,2.8,4.7,4.8,6.6c1,1,2.2,1.9,3.5,2.5
			c2.4,1.3,4.9,2.1,7.7,1.9c0.1,0,0.3,0,0.4,0C181.2,54.3,181.2,54.3,181.2,54.4z"/>
		<path class="st0" d="M181.5,53.7c-3.6,0-6.4-1-9-2.7c-2.1-1.3-3.8-3.1-5-5.2c-3.4-5.6-6.8-11.2-10.1-16.8
			c-1.9-3.2-3.7-6.4-5.6-9.5c-0.3-0.6-0.3-1,0-1.5c1.1-1.9,2.1-3.8,3.1-5.7c0.7-1.4,1.5-2.7,2.5-3.9c0.8-0.9,1.7-1.4,2.7-1.9
			c1.7-0.8,3.5-0.9,5.3-0.5c2.1,0.4,3.8,1.6,5,3.4c1,1.6,1.9,3.2,2.8,4.8c0.4,0.6,0.7,1.2,1.1,1.8c0.9,1.6,1.7,3.1,2.7,4.7
			c0.7,1.3,1.6,2.5,2.3,3.8c1.1,2,2.2,4,3.4,5.9c0.7,1.2,1.4,2.3,2.1,3.4c1.2,2.2,2.4,4.4,3.7,6.5c0.7,1.2,1.3,2.4,1.5,3.7
			c0.1,0.8,0,1.6-0.1,2.4c-0.1,0.8-0.3,1.5-0.7,2.2c-0.9,1.9-2.2,3.4-4.3,4.3C183.6,53.6,182.4,53.8,181.5,53.7z"/>
	</g>
	<g>
		<path class="st0" d="M189.4,77.9c1.2-1.1,3.2-1.6,6.1-1.6h6.9v-3.9h-8.1c-1.9,0-3.6,0.2-4.9,0.6c-1.3,0.4-2.4,1-3.3,1.9
			c-1,1-1.8,2.2-2.4,3.6c-0.6,1.5-0.8,3-0.8,4.7c0,1.6,0.3,3.1,0.8,4.5c0.6,1.4,1.4,2.6,2.4,3.6c0.9,0.9,2,1.5,3.2,1.9
			c1.3,0.4,2.9,0.6,4.9,0.6h8.1v-3.9h-6.9c-1.6,0-2.6-0.1-3.2-0.2c-0.6-0.1-1.2-0.3-1.7-0.6c-1-0.6-1.7-1.4-2.2-2.4
			c-0.5-1-0.7-2.2-0.7-3.6C187.6,80.8,188.2,79,189.4,77.9z"/>
		<path class="st0" d="M129.5,94h19.2v-3.8h-14.5v-5.4h12.7v-3.6h-12.7v-5h14.5v-3.8h-19.2V94z"/>
		<path class="st0" d="M153.5,72.4l9,10.8l-9,10.8h5.8l7.1-8.5V81l-7.1-8.6H153.5z"/>
		<path class="st0" d="M175.2,72.4l-7.1,8.6v4.5l7.1,8.5h5.8l-9-10.8l9-10.8H175.2z"/>
		<path class="st0" d="M110.7,83.1l-8.6-10.6h-4.4V94h4.7V79.6l7.5,8.9h1.8l7.5-9V94h4.7V72.4h-4.4L110.7,83.1z"/>
	</g>
</g>
</svg>
