<?xml version="1.0" encoding="utf-8"?>
<!-- Generator: Adobe Illustrator 24.3.0, SVG Export Plug-In . SVG Version: 6.00 Build 0)  -->
<svg version="1.1" id="Ebene_1" xmlns="http://www.w3.org/2000/svg" xmlns:xlink="http://www.w3.org/1999/xlink" x="0px" y="0px"
	 viewBox="0 0 900 900" style="enable-background:new 0 0 900 900;" xml:space="preserve">
<style type="text/css">
	.st0{fill:#141516;}
	.st1{enable-background:new    ;}
	.st2{fill:#FFFFFF;}
	.st3{fill:#FEFEFE;}
	.st4{fill:#9B1C2E;}
</style>
<g>
	<polygon class="st0" points="900,446.6 453.5,0 1.6,0 900,898.5 	"/>
	<g>
		<g class="st1">
			<path class="st2" d="M317.1,246.9c-1.8,1.8-3.8,3.2-5.8,4.1s-4.2,1.4-6.4,1.4c-2.1,0-4.3-0.5-6.4-1.4c-2.1-1-4.1-2.3-6-4.2
				l-9.4-9.4l24.5-24.5l9.4,9.4c1.9,1.9,3.3,3.9,4.2,6c1,2.1,1.4,4.2,1.4,6.4c0,2.1-0.5,4.3-1.4,6.4
				C320.3,243.2,318.9,245.1,317.1,246.9z M312.4,242.2c1.4-1.4,2.4-2.7,3.1-4.2c0.7-1.4,1.1-2.9,1.1-4.2s-0.2-2.8-0.7-4.2
				c-0.5-1.4-1.4-2.6-2.6-3.8l-4.8-4.8l-17.3,17.3l4.8,4.8c1.2,1.2,2.4,2.1,3.8,2.6c1.4,0.5,2.7,0.8,4.2,0.7
				c1.4-0.1,2.9-0.5,4.2-1.1C309.7,244.6,311,243.6,312.4,242.2z"/>
			<path class="st2" d="M344.5,274.3c-1.8,1.8-3.8,3.2-5.9,4.1c-2.1,1-4.3,1.4-6.5,1.5c-2.2,0.1-4.4-0.4-6.6-1.3
				c-2.2-0.9-4.2-2.3-6-4.1c-1.9-1.9-3.2-3.8-4.1-6c-0.9-2.2-1.4-4.4-1.3-6.6c0.1-2.2,0.5-4.4,1.5-6.5c1-2.1,2.3-4.1,4.1-5.9
				s3.8-3.2,5.9-4.1s4.3-1.4,6.5-1.5c2.2-0.1,4.4,0.4,6.6,1.3s4.2,2.3,6,4.1c1.3,1.3,2.3,2.5,3.1,3.9c0.8,1.4,1.4,2.8,1.9,4.2
				c0.4,1.4,0.5,2.9,0.5,4.4c-0.1,1.5-0.2,3-0.7,4.4c-0.4,1.5-1,2.8-1.9,4.2C346.7,271.9,345.7,273.1,344.5,274.3z M339.9,269.7
				c1.4-1.4,2.4-2.7,3.1-4.2c0.7-1.4,1.1-2.9,1.2-4.3s-0.2-2.8-0.7-4.2c-0.5-1.4-1.4-2.6-2.6-3.8c-1.2-1.2-2.4-2.1-3.8-2.6
				c-1.4-0.5-2.7-0.8-4.2-0.7c-1.4,0.1-2.9,0.5-4.3,1.2c-1.4,0.7-2.8,1.7-4.2,3.1c-1.4,1.4-2.4,2.7-3.1,4.2
				c-0.7,1.4-1.1,2.9-1.1,4.2c-0.1,1.4,0.2,2.8,0.7,4.2c0.5,1.4,1.4,2.6,2.6,3.8c1.2,1.2,2.4,2.1,3.8,2.6c1.4,0.5,2.7,0.8,4.2,0.7
				c1.4-0.1,2.9-0.5,4.2-1.1C337.1,272.1,338.5,271,339.9,269.7z"/>
			<path class="st2" d="M381.5,286.8l-24.5,24.5l-2.3-2.3c-0.4-0.4-0.6-0.7-0.7-1.1c-0.1-0.4-0.2-0.8-0.1-1.3l3.5-29.2
				c-0.7,0.8-1.3,1.6-2,2.2l-15,15l-4-4l24.5-24.5l2.4,2.4c0.2,0.2,0.4,0.4,0.5,0.5c0.1,0.1,0.2,0.3,0.2,0.5
				c0.1,0.2,0.1,0.4,0.1,0.5c0,0.2,0,0.5,0,0.7l-3.6,29.2c0.4-0.5,0.7-0.8,1.1-1.3c0.4-0.4,0.7-0.8,1-1.1l14.9-14.9L381.5,286.8
				L381.5,286.8z"/>
			<path class="st2" d="M383.4,337.8l-3.5-3.5c-0.4-0.4-0.6-0.8-0.7-1.3c-0.1-0.4,0-0.8,0.2-1.3l3.2-6.9l-10.1-10.1l-6.9,3.2
				c-0.4,0.1-0.7,0.2-1.3,0.2c-0.5,0-0.9-0.3-1.3-0.7l-3.6-3.6l34.2-14.9l4.7,4.7L383.4,337.8z M384.6,320.4l5.2-11.2
				c0.2-0.5,0.5-1.1,0.8-1.8c0.3-0.7,0.7-1.3,1.1-2.1c-0.7,0.5-1.4,0.8-2.1,1.1c-0.7,0.3-1.3,0.7-1.8,0.8l-11.1,5.1L384.6,320.4
				L384.6,320.4z"/>
			<path class="st2" d="M421.5,334.3l-7.4-7.4l-20.8,20.8l-4.5-4.5l20.8-20.8l-7.4-7.4l3.8-3.8l19.3,19.3L421.5,334.3z"/>
			<path class="st2" d="M408.5,362.9l-4.6-4.6l24.5-24.5l4.6,4.6L408.5,362.9z"/>
			<path class="st2" d="M449.6,379.4c-1.8,1.8-3.8,3.2-5.9,4.1s-4.3,1.4-6.5,1.5c-2.2,0.1-4.4-0.4-6.6-1.3c-2.2-0.9-4.2-2.3-6-4.1
				s-3.2-3.8-4.1-6c-0.9-2.2-1.4-4.4-1.3-6.6c0.1-2.2,0.5-4.4,1.5-6.5c1-2.1,2.3-4.1,4.1-5.9s3.8-3.2,5.9-4.1c2.1-1,4.3-1.4,6.5-1.5
				c2.2-0.1,4.4,0.4,6.6,1.3c2.2,0.9,4.2,2.3,6,4.1c1.3,1.3,2.3,2.5,3.1,3.9c0.8,1.4,1.4,2.8,1.9,4.2c0.4,1.4,0.5,2.9,0.5,4.4
				c-0.1,1.5-0.2,3-0.7,4.4c-0.4,1.5-1,2.8-1.9,4.2C451.8,376.9,450.8,378.2,449.6,379.4z M445,374.8c1.4-1.4,2.4-2.7,3.1-4.2
				c0.7-1.4,1.1-2.9,1.2-4.3c0.1-1.4-0.2-2.8-0.7-4.2c-0.5-1.4-1.4-2.6-2.6-3.8c-1.2-1.2-2.4-2.1-3.8-2.6c-1.4-0.5-2.7-0.8-4.2-0.7
				c-1.4,0.1-2.9,0.5-4.3,1.2c-1.4,0.7-2.8,1.7-4.2,3.1c-1.4,1.4-2.4,2.7-3.1,4.2c-0.7,1.4-1.1,2.9-1.1,4.2s0.2,2.8,0.7,4.2
				s1.4,2.6,2.6,3.8c1.2,1.2,2.4,2.1,3.8,2.6c1.4,0.5,2.7,0.8,4.2,0.7c1.4-0.1,2.9-0.5,4.2-1.1C442.2,377.2,443.6,376.2,445,374.8z"
				/>
			<path class="st2" d="M486.6,391.9l-24.5,24.5l-2.3-2.3c-0.4-0.4-0.6-0.7-0.7-1.1c-0.1-0.4-0.2-0.8-0.1-1.3l3.5-29.2
				c-0.7,0.8-1.3,1.6-2,2.2l-15,15l-4-4l24.5-24.5l2.4,2.4c0.2,0.2,0.4,0.4,0.5,0.5c0.1,0.1,0.2,0.3,0.2,0.5
				c0.1,0.2,0.1,0.4,0.1,0.5c0,0.2,0,0.5,0,0.7l-3.6,29.2c0.4-0.5,0.7-0.8,1.1-1.3c0.4-0.4,0.7-0.8,1-1.1l14.9-14.9L486.6,391.9
				L486.6,391.9z"/>
			<path class="st2" d="M500.7,414.9c-0.4,0.1-0.7,0.1-1,0.1c-0.3-0.1-0.5-0.2-0.8-0.4c-0.2-0.2-0.4-0.5-0.5-1
				c-0.1-0.5-0.2-1-0.4-1.6c-0.1-0.6-0.4-1.3-0.8-2c-0.4-0.7-0.9-1.4-1.6-2.1c-0.7-0.7-1.3-1.1-1.9-1.4c-0.7-0.3-1.3-0.5-1.9-0.5
				s-1.1,0.1-1.7,0.2c-0.5,0.2-1,0.5-1.5,1c-0.6,0.6-0.9,1.3-1,1.9c-0.1,0.7,0.1,1.5,0.3,2.2c0.2,0.8,0.6,1.7,1.1,2.5
				c0.4,0.9,1,1.8,1.4,2.8c0.5,1,0.9,2,1.3,2.9s0.6,2,0.6,3c0.1,1-0.1,2-0.5,3s-1.1,2-2.1,3c-1.1,1.1-2.3,2-3.7,2.5
				c-1.3,0.6-2.7,0.8-4.2,0.8c-1.4,0-2.9-0.3-4.4-1c-1.5-0.7-2.9-1.7-4.2-3c-0.8-0.8-1.5-1.6-2.1-2.6s-1.1-1.9-1.6-2.9
				c-0.4-1-0.8-2-1-3c-0.2-1-0.3-2-0.3-2.9l3.5-0.9c0.3-0.1,0.5-0.1,0.8,0c0.3,0.1,0.5,0.2,0.8,0.4c0.3,0.3,0.5,0.7,0.5,1.3
				c0.1,0.5,0.2,1.2,0.4,2c0.2,0.8,0.4,1.5,0.8,2.4c0.4,0.8,1,1.7,1.9,2.6c1.3,1.3,2.6,2,3.9,2.1c1.3,0.1,2.6-0.4,3.7-1.6
				c0.7-0.7,1-1.4,1.1-2c0.1-0.7,0-1.6-0.2-2.3c-0.2-0.8-0.6-1.7-1.1-2.5c-0.5-0.8-1-1.8-1.4-2.7c-0.5-1-0.9-1.9-1.3-2.9
				c-0.4-1-0.5-2-0.5-3s0.2-2.1,0.7-3.2c0.5-1.1,1.3-2.2,2.3-3.3c0.9-0.9,2-1.6,3.2-2.1c1.2-0.5,2.5-0.7,3.8-0.7
				c1.3,0,2.7,0.3,4.1,1c1.4,0.6,2.7,1.6,4,2.8c1.4,1.4,2.6,3,3.3,4.7c0.7,1.7,1.2,3.3,1.2,5L500.7,414.9z"/>
			<path class="st2" d="M514.3,468.7l-3.5-3.5c-0.4-0.4-0.6-0.8-0.7-1.3c-0.1-0.4,0-0.8,0.2-1.3l3.2-6.9l-10.1-10.1l-6.9,3.2
				c-0.4,0.1-0.7,0.2-1.3,0.2c-0.5,0-0.9-0.3-1.3-0.7l-3.6-3.6l34.2-14.9l4.7,4.7L514.3,468.7z M515.5,451.3l5.2-11.2
				c0.2-0.5,0.5-1.1,0.8-1.8c0.3-0.7,0.7-1.3,1.1-2.1c-0.7,0.5-1.4,0.8-2.1,1.1s-1.3,0.7-1.8,0.8l-11.1,5.1L515.5,451.3L515.5,451.3
				z"/>
			<path class="st2" d="M538.7,481.5c0.2,0.2,0.4,0.6,0.4,1l-0.2,3.8c-2.3,0.2-4.4-0.1-6.5-0.9c-2.1-0.8-4.2-2.3-6.2-4.3
				c-1.8-1.8-3.2-3.8-3.9-5.8c-0.8-2-1.2-4.2-1.1-6.3c0.1-2.1,0.7-4.2,1.6-6.4c1-2.1,2.4-4.1,4.2-5.8c1.9-1.9,3.8-3.2,6-4.2
				c2.1-1,4.3-1.4,6.4-1.4c2.2-0.1,4.3,0.4,6.4,1.3c2.1,0.9,4,2.2,5.8,4c1.8,1.8,3.1,3.7,3.9,5.7c0.8,2,1.2,3.9,1.2,5.8l-3.7,0.6
				c-0.2,0-0.4,0.1-0.7,0c-0.2,0-0.5-0.2-0.8-0.4c-0.2-0.2-0.3-0.4-0.4-0.7c-0.1-0.3-0.1-0.6-0.2-1c-0.1-0.4-0.2-0.8-0.3-1.3
				c-0.1-0.5-0.3-0.9-0.5-1.4c-0.2-0.5-0.6-1.1-1-1.7c-0.4-0.6-1-1.2-1.6-1.9c-1.1-1.1-2.3-1.9-3.6-2.4c-1.3-0.5-2.6-0.7-4-0.7
				c-1.4,0.1-2.9,0.5-4.2,1.1c-1.4,0.7-2.8,1.7-4.2,3.1c-1.4,1.4-2.4,2.8-3.1,4.3c-0.7,1.5-1.1,2.9-1.1,4.3c-0.1,1.4,0.1,2.7,0.7,4
				c0.5,1.3,1.3,2.4,2.3,3.5c0.6,0.6,1.3,1.1,1.8,1.6c0.5,0.4,1.1,0.8,1.7,1.1c0.5,0.3,1.2,0.5,1.8,0.6c0.6,0.1,1.3,0.2,2,0.3
				c0.2,0,0.4,0.1,0.6,0.1C538.5,481.3,538.6,481.4,538.7,481.5z"/>
			<path class="st2" d="M560.6,503.4c0.2,0.2,0.4,0.6,0.4,1l-0.2,3.8c-2.3,0.2-4.4-0.1-6.5-0.9c-2.1-0.8-4.2-2.3-6.2-4.3
				c-1.9-1.9-3.2-3.8-3.9-5.8c-0.8-2-1.2-4.2-1.1-6.3c0.1-2.1,0.7-4.2,1.6-6.4c1-2.1,2.4-4.1,4.2-5.8c1.9-1.9,3.8-3.2,6-4.2
				c2.1-1,4.3-1.4,6.4-1.4c2.2-0.1,4.3,0.4,6.4,1.3c2.1,0.9,4,2.2,5.8,4c1.8,1.8,3.1,3.7,3.9,5.7c0.8,2,1.2,3.9,1.2,5.8l-3.7,0.6
				c-0.2,0-0.4,0.1-0.7,0c-0.2,0-0.5-0.2-0.8-0.4c-0.2-0.2-0.3-0.4-0.4-0.7c-0.1-0.3-0.1-0.6-0.2-1c-0.1-0.4-0.2-0.8-0.3-1.3
				c-0.1-0.5-0.3-0.9-0.5-1.4c-0.2-0.5-0.6-1.1-1-1.7c-0.4-0.6-1-1.2-1.6-1.9c-1.1-1.1-2.3-1.9-3.6-2.4c-1.3-0.5-2.6-0.7-4-0.7
				c-1.4,0.1-2.9,0.5-4.2,1.1c-1.4,0.7-2.8,1.7-4.2,3.1c-1.4,1.4-2.4,2.8-3.1,4.3c-0.7,1.5-1.1,2.9-1.1,4.3
				c-0.1,1.4,0.1,2.7,0.7,4.1c0.5,1.3,1.3,2.4,2.3,3.5c0.6,0.6,1.3,1.1,1.8,1.6c0.5,0.4,1.1,0.8,1.7,1.1c0.5,0.3,1.2,0.5,1.8,0.6
				c0.6,0.1,1.3,0.2,2,0.3c0.2,0,0.4,0.1,0.6,0.1C560.4,503.2,560.5,503.3,560.6,503.4z"/>
			<path class="st2" d="M585.9,498.5l-6.8,6.8l8.6,8.6l-3.5,3.5l-8.6-8.6l-6.9,6.9l10.9,10.9l-3.6,3.6l-15.5-15.5l24.5-24.5
				l15.5,15.5l-3.6,3.6L585.9,498.5z"/>
			<path class="st2" d="M612.5,517.8c1.6,1.6,2.9,3.2,3.6,4.8c0.8,1.6,1.3,3.1,1.4,4.6c0.1,1.5-0.1,2.9-0.7,4.2s-1.4,2.6-2.6,3.8
				c-1.2,1.2-2.4,2.1-3.9,2.7c-1.4,0.6-2.9,0.8-4.4,0.8c-1.5-0.1-3-0.5-4.7-1.3c-1.6-0.8-3.2-2-4.8-3.6l-3.5-3.5l-8.7,8.7l-4.5-4.5
				l24.5-24.5L612.5,517.8L612.5,517.8z M600.2,530.1c0.8,0.8,1.7,1.4,2.5,1.9c0.8,0.4,1.7,0.6,2.4,0.7c0.8,0,1.6-0.1,2.3-0.5
				c0.7-0.4,1.5-0.9,2.1-1.6s1.1-1.4,1.5-2.1s0.4-1.5,0.5-2.3c-0.1-0.8-0.2-1.6-0.7-2.4c-0.4-0.8-1.1-1.7-1.9-2.5l-3.5-3.5l-8.8,8.8
				L600.2,530.1L600.2,530.1z"/>
			<path class="st2" d="M638.9,551.7l-7.4-7.4l-20.8,20.8l-4.5-4.5l20.8-20.8l-7.4-7.4l3.8-3.8l19.3,19.3L638.9,551.7z"/>
			<path class="st2" d="M646.8,559.4l-6.8,6.8l8.6,8.6l-3.5,3.5l-8.6-8.6l-6.9,6.9l10.9,10.9l-3.6,3.6l-15.5-15.5l24.5-24.5
				l15.5,15.5l-3.6,3.6L646.8,559.4z"/>
			<path class="st2" d="M674.9,604.7c-1.8,1.8-3.8,3.2-5.8,4.1c-2.1,0.9-4.2,1.4-6.4,1.4c-2.1,0-4.3-0.5-6.4-1.4
				c-2.1-1-4.1-2.3-6-4.2l-9.4-9.4l24.5-24.5l9.3,9.3c1.9,1.9,3.3,3.9,4.2,6c1,2.1,1.4,4.2,1.4,6.4c0,2.1-0.5,4.3-1.4,6.4
				C678,600.9,676.7,602.9,674.9,604.7z M670.2,600c1.4-1.4,2.4-2.7,3.1-4.2c0.7-1.4,1.1-2.9,1.1-4.2c0.1-1.4-0.2-2.8-0.7-4.2
				c-0.5-1.4-1.4-2.6-2.6-3.8l-4.8-4.8l-17.3,17.3l4.8,4.8c1.2,1.2,2.4,2.1,3.8,2.6s2.7,0.8,4.2,0.7c1.4-0.1,2.9-0.5,4.2-1.1
				C667.5,602.4,668.8,601.4,670.2,600z"/>
		</g>
		<g>
			<g>
				<path class="st2" d="M585.5,299.5l-13.2-13.2l14.3-14.3l13.2,13.2l6.2-6.2c24-24,31.9-18,59.7,9.8l-13,13
					c-15-15-17.7-16.1-25.9-7.9l-9.1,9.1l16.9,16.9l-14.3,14.3l-16.9-16.9l-54.1,54.1l-17.8-17.8L585.5,299.5L585.5,299.5z
					 M678.5,301.2l18.4,18.4l-15.8,15.8L662.7,317L678.5,301.2z M647.4,332.7l18,18l-68.4,68.4l-18-18L647.4,332.7z"/>
				<path class="st2" d="M684.1,369.4l16.8,16.8l-11.3,12.4l1.1,1.1c13.8-6.5,23.8-2,34.8,9l-17.1,17.1c-17.6-17.6-28.9-16-47.5,2.7
					l-27.4,27.4l-17.8-17.8L684.1,369.4L684.1,369.4z"/>
				<path class="st2" d="M699.8,453.3c27.7-27.7,36.9-33.4,66.6-3.8s23.9,38.9-3.8,66.6c-27.7,27.7-37.2,33.7-66.8,4
					C666.1,490.6,672.2,480.9,699.8,453.3z M744.7,498.1c18.8-18.8,20.8-20.8,7.4-34.2c-13.4-13.4-15.4-11.4-34.2,7.4
					s-21.1,21.1-7.6,34.5S725.9,516.9,744.7,498.1z"/>
			</g>
			<g>
				<circle class="st3" cx="466.2" cy="189.7" r="94.2"/>
			</g>
			<g>
				<path class="st4" d="M409.4,191.4c1.5,1.5,3.9,2.1,5.9,1.5l28.5-8.8l-15.2-15.2c-2.3-2.3-2.3-6,0-8.3l8.4-8.4
					c2.3-2.3,6-2.3,8.3,0l24,24l54-16.7c2.1-0.6,4.4-0.1,5.9,1.5l31.4,31.4c0.7-25-8.5-50.3-27.6-69.4c-36.9-36.9-96.7-36.9-133.6,0
					c-10.5,10.5-18,22.8-22.5,36L409.4,191.4L409.4,191.4L409.4,191.4z"/>
				<path class="st4" d="M523,188.1c-1.5-1.5-3.9-2.1-5.9-1.5l-28.5,8.8l15.2,15.2c2.3,2.3,2.3,6,0,8.3l-8.4,8.4
					c-2.3,2.3-6,2.3-8.3,0l-24-24l-54,16.7c-2.1,0.6-4.4,0.1-5.9-1.5l-31.4-31.4c-0.7,25,8.5,50.3,27.6,69.4
					c36.9,36.9,96.7,36.9,133.6,0c10.5-10.5,18-22.8,22.5-36L523,188.1L523,188.1L523,188.1z"/>
			</g>
		</g>
	</g>
</g>
</svg>
