<?xml version="1.0" encoding="utf-8"?>
<!-- Generator: Adobe Illustrator 24.3.0, SVG Export Plug-In . SVG Version: 6.00 Build 0)  -->
<svg version="1.1" id="Layer_1" xmlns="http://www.w3.org/2000/svg" xmlns:xlink="http://www.w3.org/1999/xlink" x="0px" y="0px"
	 viewBox="0 0 1500 1500" style="enable-background:new 0 0 1500 1500;" xml:space="preserve">
<style type="text/css">
	.st0{fill:#CBDBE8;}
	.st1{fill:#DFEBF2;}
	.st2{fill:#C9D3DC;}
	.st3{fill:#BB3437;}
	.st4{fill:none;stroke:#000000;stroke-width:5;stroke-linejoin:round;stroke-miterlimit:10;}
	.st5{fill:none;stroke:#000000;stroke-width:5;stroke-miterlimit:10;}
	.st6{fill:#C5D1DA;}
	.st7{fill:#9B1C2E;}
	.st8{clip-path:url(#SVGID_2_);}
	.st9{opacity:0.7;}
	.st10{fill:#ABB8C1;}
	.st11{fill:none;stroke:#000000;stroke-width:5;stroke-linecap:round;stroke-linejoin:round;stroke-miterlimit:10;}
	.st12{fill:#FFFFFF;}
	.st13{fill:#BB3437;stroke:#000000;stroke-width:5;stroke-miterlimit:10;}
	.st14{fill:#DDEDF2;}
	.st15{fill:#C9D3DC;stroke:#000000;stroke-width:5;stroke-miterlimit:10;}
</style>
<g>
	<g>
		<g>
			<g>
				<path d="M1128.5,1186.2h-157l-78.5-136l78.5-136h157l78.5,136L1128.5,1186.2z M974.4,1181.2h151.3l75.6-131l-75.6-131H974.4
					l-75.6,131L974.4,1181.2z"/>
			</g>
		</g>
		<g>
			<g>
				<rect x="900" y="1047.7" width="150" height="5"/>
			</g>
		</g>
		<g>
			<g>
				<polyline class="st3" points="1050,1050.2 975,920.3 1050,1050.2 				"/>
			</g>
			<g>
				<rect x="1010" y="910.3" transform="matrix(0.866 -0.5 0.5 0.866 -356.9833 638.2527)" width="5" height="150"/>
			</g>
		</g>
		<g>
			<g>
				<path class="st3" d="M1050,1050.2l75-129.9L1050,1050.2L1050,1050.2h150"/>
			</g>
			<g>
				<polygon points="1200,1052.7 1045.7,1052.7 1122.8,919.1 1127.2,921.6 1054.3,1047.7 1200,1047.7 				"/>
			</g>
		</g>
		<g>
			<g>
				<rect x="900" y="1047.7" width="150" height="5"/>
			</g>
		</g>
		<g>
			<g>
				<polyline class="st3" points="1050,1050.2 975,1180.1 1050,1050.2 				"/>
			</g>
			<g>
				<rect x="937.5" y="1112.7" transform="matrix(0.5 -0.866 0.866 0.5 -459.5152 1434.4276)" width="150" height="5"/>
			</g>
		</g>
		<g>
			<g>
				<rect x="1050" y="1047.7" width="150" height="5"/>
			</g>
		</g>
		<g>
			<g>
				<polyline class="st3" points="1050,1050.2 1125,1180.1 1050,1050.2 				"/>
			</g>
			<g>
				<rect x="1085" y="1040.2" transform="matrix(0.866 -0.5 0.5 0.866 -411.8859 693.1518)" width="5" height="150"/>
			</g>
		</g>
		<g>
			<g>
				<g>
					<circle class="st3" cx="1050" cy="1050.2" r="25"/>
				</g>
			</g>
			<g>
				<g>
					<path d="M1050,1077.7c-15.2,0-27.5-12.3-27.5-27.5s12.3-27.5,27.5-27.5s27.5,12.3,27.5,27.5S1065.2,1077.7,1050,1077.7z
						 M1050,1027.7c-12.4,0-22.5,10.1-22.5,22.5s10.1,22.5,22.5,22.5s22.5-10.1,22.5-22.5S1062.4,1027.7,1050,1027.7z"/>
				</g>
			</g>
		</g>
		<g>
			<g>
				<g>
					<circle class="st3" cx="1125" cy="920.3" r="25"/>
				</g>
			</g>
			<g>
				<g>
					<path d="M1125,947.8c-15.2,0-27.5-12.3-27.5-27.5s12.3-27.5,27.5-27.5s27.5,12.3,27.5,27.5S1140.2,947.8,1125,947.8z
						 M1125,897.8c-12.4,0-22.5,10.1-22.5,22.5s10.1,22.5,22.5,22.5s22.5-10.1,22.5-22.5S1137.4,897.8,1125,897.8z"/>
				</g>
			</g>
		</g>
		<g>
			<g>
				<g>
					<circle class="st3" cx="975" cy="920.3" r="25"/>
				</g>
			</g>
			<g>
				<g>
					<path d="M975,947.8c-15.2,0-27.5-12.3-27.5-27.5s12.3-27.5,27.5-27.5s27.5,12.3,27.5,27.5S990.2,947.8,975,947.8z M975,897.8
						c-12.4,0-22.5,10.1-22.5,22.5s10.1,22.5,22.5,22.5s22.5-10.1,22.5-22.5S987.4,897.8,975,897.8z"/>
				</g>
			</g>
		</g>
		<g>
			<g>
				<g>
					<circle class="st3" cx="1125" cy="1179.7" r="25"/>
				</g>
			</g>
			<g>
				<g>
					<path d="M1125,1207.2c-15.2,0-27.5-12.3-27.5-27.5s12.3-27.5,27.5-27.5s27.5,12.3,27.5,27.5S1140.2,1207.2,1125,1207.2z
						 M1125,1157.2c-12.4,0-22.5,10.1-22.5,22.5s10.1,22.5,22.5,22.5s22.5-10.1,22.5-22.5S1137.4,1157.2,1125,1157.2z"/>
				</g>
			</g>
		</g>
		<g>
			<g>
				<g>
					<circle class="st3" cx="975" cy="1179.7" r="25"/>
				</g>
			</g>
			<g>
				<g>
					<path d="M975,1207.2c-15.2,0-27.5-12.3-27.5-27.5s12.3-27.5,27.5-27.5s27.5,12.3,27.5,27.5S990.2,1207.2,975,1207.2z
						 M975,1157.2c-12.4,0-22.5,10.1-22.5,22.5s10.1,22.5,22.5,22.5s22.5-10.1,22.5-22.5S987.4,1157.2,975,1157.2z"/>
				</g>
			</g>
		</g>
		<g>
			<g>
				<g>
					<circle class="st3" cx="1200" cy="1050.2" r="25"/>
				</g>
			</g>
			<g>
				<g>
					<path d="M1200,1077.7c-15.2,0-27.5-12.3-27.5-27.5s12.3-27.5,27.5-27.5s27.5,12.3,27.5,27.5S1215.2,1077.7,1200,1077.7z
						 M1200,1027.7c-12.4,0-22.5,10.1-22.5,22.5s10.1,22.5,22.5,22.5s22.5-10.1,22.5-22.5S1212.4,1027.7,1200,1027.7z"/>
				</g>
			</g>
		</g>
		<g>
			<g>
				<g>
					<circle class="st3" cx="900" cy="1050.2" r="25"/>
				</g>
			</g>
			<g>
				<g>
					<path d="M900,1077.7c-15.2,0-27.5-12.3-27.5-27.5s12.3-27.5,27.5-27.5s27.5,12.3,27.5,27.5S915.2,1077.7,900,1077.7z
						 M900,1027.7c-12.4,0-22.5,10.1-22.5,22.5s10.1,22.5,22.5,22.5s22.5-10.1,22.5-22.5S912.4,1027.7,900,1027.7z"/>
				</g>
			</g>
		</g>
	</g>
	<g>
		<g>
			<rect x="750" y="150" class="st6" width="600" height="600"/>
		</g>
	</g>
	<g>
		<g>
			<rect x="150" y="150" class="st14" width="600" height="600"/>
		</g>
	</g>
	<g>
		<g>
			<rect x="150" y="750" class="st10" width="600" height="600"/>
		</g>
	</g>
	<g>
		<g>
			<g>
				<g>
					<g>
						<g>
							<circle class="st2" cx="1136" cy="324.6" r="25"/>
						</g>
					</g>
					<g>
						<g>
							<path d="M1136,352.1c-15.2,0-27.5-12.3-27.5-27.5s12.3-27.5,27.5-27.5s27.5,12.3,27.5,27.5S1151.2,352.1,1136,352.1z
								 M1136,302.1c-12.4,0-22.5,10.1-22.5,22.5s10.1,22.5,22.5,22.5s22.5-10.1,22.5-22.5S1148.4,302.1,1136,302.1z"/>
						</g>
					</g>
				</g>
				<g>
					<g>
						<g>
							<circle class="st2" cx="964" cy="324.6" r="25"/>
						</g>
					</g>
					<g>
						<g>
							<path d="M964,352.1c-15.2,0-27.5-12.3-27.5-27.5s12.3-27.5,27.5-27.5s27.5,12.3,27.5,27.5S979.2,352.1,964,352.1z M964,302.1
								c-12.4,0-22.5,10.1-22.5,22.5s10.1,22.5,22.5,22.5s22.5-10.1,22.5-22.5S976.4,302.1,964,302.1z"/>
						</g>
					</g>
				</g>
				<g>
					<g>
						<rect x="989" y="322" width="122.7" height="5"/>
					</g>
				</g>
			</g>
			<g>
				<g>
					<g>
						<g>
							<circle class="st2" cx="1136" cy="575.4" r="25"/>
						</g>
					</g>
					<g>
						<g>
							<path d="M1136,602.9c-15.2,0-27.5-12.3-27.5-27.5s12.3-27.5,27.5-27.5s27.5,12.3,27.5,27.5S1151.2,602.9,1136,602.9z
								 M1136,552.9c-12.4,0-22.5,10.1-22.5,22.5s10.1,22.5,22.5,22.5s22.5-10.1,22.5-22.5S1148.4,552.9,1136,552.9z"/>
						</g>
					</g>
				</g>
				<g>
					<g>
						<g>
							<circle class="st2" cx="964" cy="575.4" r="25"/>
						</g>
					</g>
					<g>
						<g>
							<path d="M964,602.9c-15.2,0-27.5-12.3-27.5-27.5s12.3-27.5,27.5-27.5s27.5,12.3,27.5,27.5S979.2,602.9,964,602.9z M964,552.9
								c-12.4,0-22.5,10.1-22.5,22.5s10.1,22.5,22.5,22.5s22.5-10.1,22.5-22.5S976.4,552.9,964,552.9z"/>
						</g>
					</g>
				</g>
				<g>
					<g>
						<rect x="989" y="572.9" width="122.7" height="5"/>
					</g>
				</g>
			</g>
		</g>
		<g>
			<g>
				<g>
					<circle class="st2" cx="1050" cy="450" r="25"/>
				</g>
			</g>
			<g>
				<g>
					<path d="M1050,477.5c-15.2,0-27.5-12.3-27.5-27.5s12.3-27.5,27.5-27.5s27.5,12.3,27.5,27.5S1065.2,477.5,1050,477.5z
						 M1050,427.5c-12.4,0-22.5,10.1-22.5,22.5s10.1,22.5,22.5,22.5s22.5-10.1,22.5-22.5S1062.4,427.5,1050,427.5z"/>
				</g>
			</g>
		</g>
		<g>
			<g>
				<line class="st2" x1="977.5" y1="345.6" x2="1035.7" y2="429.5"/>
			</g>
			<g>
				<rect x="1004.1" y="336.5" transform="matrix(0.8213 -0.5705 0.5705 0.8213 -41.2254 643.5091)" width="5" height="102.1"/>
			</g>
		</g>
		<g>
			<g>
				<line class="st2" x1="1035.7" y1="470.4" x2="978.1" y2="553.3"/>
			</g>
			<g>
				<rect x="956.5" y="509.3" transform="matrix(0.5703 -0.8214 0.8214 0.5703 12.2572 1047.0734)" width="100.9" height="5"/>
			</g>
		</g>
	</g>
	<g>
		<g>
			<g>
				<g>
					<g>
						<g>
							<circle class="st2" cx="364" cy="324.6" r="25"/>
						</g>
					</g>
					<g>
						<g>
							<path d="M364,352.1c-15.2,0-27.5-12.3-27.5-27.5s12.3-27.5,27.5-27.5s27.5,12.3,27.5,27.5S379.2,352.1,364,352.1z M364,302.1
								c-12.4,0-22.5,10.1-22.5,22.5s10.1,22.5,22.5,22.5s22.5-10.1,22.5-22.5S376.4,302.1,364,302.1z"/>
						</g>
					</g>
				</g>
			</g>
			<g>
				<g>
					<g>
						<g>
							<circle class="st2" cx="536" cy="575.4" r="25"/>
						</g>
					</g>
					<g>
						<g>
							<path d="M536,602.9c-15.2,0-27.5-12.3-27.5-27.5s12.3-27.5,27.5-27.5s27.5,12.3,27.5,27.5S551.2,602.9,536,602.9z M536,552.9
								c-12.4,0-22.5,10.1-22.5,22.5s10.1,22.5,22.5,22.5s22.5-10.1,22.5-22.5S548.4,552.9,536,552.9z"/>
						</g>
					</g>
				</g>
				<g>
					<g>
						<g>
							<circle class="st2" cx="364" cy="575.4" r="25"/>
						</g>
					</g>
					<g>
						<g>
							<path d="M364,602.9c-15.2,0-27.5-12.3-27.5-27.5s12.3-27.5,27.5-27.5s27.5,12.3,27.5,27.5S379.2,602.9,364,602.9z M364,552.9
								c-12.4,0-22.5,10.1-22.5,22.5s10.1,22.5,22.5,22.5s22.5-10.1,22.5-22.5S376.4,552.9,364,552.9z"/>
						</g>
					</g>
				</g>
				<g>
					<g>
						<rect x="389" y="572.9" width="122.7" height="5"/>
					</g>
				</g>
			</g>
		</g>
		<g>
			<g>
				<rect x="361.5" y="349.6" width="5" height="200.9"/>
			</g>
		</g>
	</g>
	<g>
		<g>
			<g>
				<g>
					<rect x="447.5" y="1051.8" width="5" height="150"/>
				</g>
			</g>
			<g>
				<g>
					<line class="st2" x1="450" y1="1051.8" x2="538.2" y2="1173.2"/>
				</g>
				<g>
					<rect x="491.6" y="1037.5" transform="matrix(0.809 -0.5878 0.5878 0.809 -559.5503 502.8851)" width="5" height="150"/>
				</g>
			</g>
			<g>
				<g>
					<line class="st2" x1="450" y1="1051.8" x2="592.7" y2="1098.2"/>
				</g>
				<g>
					<rect x="518.8" y="1000" transform="matrix(0.309 -0.9511 0.9511 0.309 -662.1566 1238.62)" width="5" height="150"/>
				</g>
			</g>
			<g>
				<g>
					<line class="st2" x1="450" y1="1051.8" x2="592.7" y2="1005.5"/>
				</g>
				<g>
					<rect x="446.3" y="1026.1" transform="matrix(0.9511 -0.309 0.309 0.9511 -292.2995 211.391)" width="150" height="5"/>
				</g>
			</g>
			<g>
				<g>
					<line class="st2" x1="450" y1="1051.8" x2="538.2" y2="930.5"/>
				</g>
				<g>
					<rect x="419.1" y="988.6" transform="matrix(0.5879 -0.809 0.809 0.5879 -598.1676 808.1742)" width="150" height="5"/>
				</g>
			</g>
			<g>
				<g>
					<rect x="447.5" y="901.8" width="5" height="150"/>
				</g>
			</g>
			<g>
				<g>
					<line class="st2" x1="450" y1="1051.8" x2="361.8" y2="930.5"/>
				</g>
				<g>
					<rect x="403.4" y="916.1" transform="matrix(0.809 -0.5878 0.5878 0.809 -505.0596 427.8849)" width="5" height="150"/>
				</g>
			</g>
			<g>
				<g>
					<line class="st2" x1="450" y1="1051.8" x2="307.3" y2="1005.5"/>
				</g>
				<g>
					<rect x="376.2" y="953.6" transform="matrix(0.309 -0.9511 0.9511 0.309 -716.647 1070.9152)" width="5" height="150"/>
				</g>
			</g>
			<g>
				<g>
					<line class="st2" x1="450" y1="1051.8" x2="307.3" y2="1098.2"/>
				</g>
				<g>
					<rect x="303.7" y="1072.5" transform="matrix(0.9511 -0.309 0.309 0.9511 -313.5995 169.5839)" width="150" height="5"/>
				</g>
			</g>
			<g>
				<g>
					<line class="st2" x1="450" y1="1051.8" x2="361.8" y2="1173.2"/>
				</g>
				<g>
					<rect x="330.9" y="1110" transform="matrix(0.5879 -0.809 0.809 0.5879 -732.6731 786.8633)" width="150" height="5"/>
				</g>
			</g>
		</g>
		<g>
			<g>
				<g>
					<circle class="st2" cx="450" cy="1051.8" r="44.2"/>
				</g>
			</g>
			<g>
				<g>
					<path d="M450,1098.5c-25.8,0-46.7-21-46.7-46.7s21-46.7,46.7-46.7s46.7,21,46.7,46.7S475.8,1098.5,450,1098.5z M450,1010.1
						c-23,0-41.7,18.7-41.7,41.7s18.7,41.7,41.7,41.7s41.7-18.7,41.7-41.7S473,1010.1,450,1010.1z"/>
				</g>
			</g>
		</g>
		<g>
			<g>
				<g>
					<circle class="st2" cx="538.2" cy="930.5" r="25"/>
				</g>
			</g>
			<g>
				<g>
					<path d="M538.2,958c-15.2,0-27.5-12.3-27.5-27.5S523,903,538.2,903s27.5,12.3,27.5,27.5S553.3,958,538.2,958z M538.2,908
						c-12.4,0-22.5,10.1-22.5,22.5s10.1,22.5,22.5,22.5s22.5-10.1,22.5-22.5S550.6,908,538.2,908z"/>
				</g>
			</g>
		</g>
		<g>
			<g>
				<g>
					<circle class="st2" cx="361.8" cy="930.5" r="25"/>
				</g>
			</g>
			<g>
				<g>
					<path d="M361.8,958c-15.2,0-27.5-12.3-27.5-27.5s12.3-27.5,27.5-27.5s27.5,12.3,27.5,27.5S377,958,361.8,958z M361.8,908
						c-12.4,0-22.5,10.1-22.5,22.5s10.1,22.5,22.5,22.5s22.5-10.1,22.5-22.5S374.2,908,361.8,908z"/>
				</g>
			</g>
		</g>
		<g>
			<g>
				<g>
					<circle class="st2" cx="307.3" cy="1005.5" r="25"/>
				</g>
			</g>
			<g>
				<g>
					<path d="M307.3,1033c-15.2,0-27.5-12.3-27.5-27.5s12.3-27.5,27.5-27.5s27.5,12.3,27.5,27.5S322.5,1033,307.3,1033z M307.3,983
						c-12.4,0-22.5,10.1-22.5,22.5s10.1,22.5,22.5,22.5s22.5-10.1,22.5-22.5S319.7,983,307.3,983z"/>
				</g>
			</g>
		</g>
		<g>
			<g>
				<g>
					<circle class="st2" cx="307.3" cy="1098.2" r="25"/>
				</g>
			</g>
			<g>
				<g>
					<path d="M307.3,1125.7c-15.2,0-27.5-12.3-27.5-27.5s12.3-27.5,27.5-27.5s27.5,12.3,27.5,27.5S322.5,1125.7,307.3,1125.7z
						 M307.3,1075.7c-12.4,0-22.5,10.1-22.5,22.5s10.1,22.5,22.5,22.5s22.5-10.1,22.5-22.5S319.7,1075.7,307.3,1075.7z"/>
				</g>
			</g>
		</g>
		<g>
			<g>
				<g>
					<circle class="st2" cx="592.7" cy="1005.5" r="25"/>
				</g>
			</g>
			<g>
				<g>
					<path d="M592.7,1033c-15.2,0-27.5-12.3-27.5-27.5s12.3-27.5,27.5-27.5s27.5,12.3,27.5,27.5S607.8,1033,592.7,1033z M592.7,983
						c-12.4,0-22.5,10.1-22.5,22.5s10.1,22.5,22.5,22.5s22.5-10.1,22.5-22.5S605.1,983,592.7,983z"/>
				</g>
			</g>
		</g>
		<g>
			<g>
				<g>
					<circle class="st2" cx="592.7" cy="1098.2" r="25"/>
				</g>
			</g>
			<g>
				<g>
					<path d="M592.7,1125.7c-15.2,0-27.5-12.3-27.5-27.5s12.3-27.5,27.5-27.5s27.5,12.3,27.5,27.5S607.8,1125.7,592.7,1125.7z
						 M592.7,1075.7c-12.4,0-22.5,10.1-22.5,22.5s10.1,22.5,22.5,22.5s22.5-10.1,22.5-22.5S605.1,1075.7,592.7,1075.7z"/>
				</g>
			</g>
		</g>
		<g>
			<g>
				<g>
					<circle class="st2" cx="538.2" cy="1173.2" r="25"/>
				</g>
			</g>
			<g>
				<g>
					<path d="M538.2,1200.7c-15.2,0-27.5-12.3-27.5-27.5s12.3-27.5,27.5-27.5s27.5,12.3,27.5,27.5S553.3,1200.7,538.2,1200.7z
						 M538.2,1150.7c-12.4,0-22.5,10.1-22.5,22.5s10.1,22.5,22.5,22.5s22.5-10.1,22.5-22.5S550.6,1150.7,538.2,1150.7z"/>
				</g>
			</g>
		</g>
		<g>
			<g>
				<g>
					<circle class="st2" cx="361.8" cy="1173.2" r="25"/>
				</g>
			</g>
			<g>
				<g>
					<path d="M361.8,1200.7c-15.2,0-27.5-12.3-27.5-27.5s12.3-27.5,27.5-27.5s27.5,12.3,27.5,27.5S377,1200.7,361.8,1200.7z
						 M361.8,1150.7c-12.4,0-22.5,10.1-22.5,22.5s10.1,22.5,22.5,22.5s22.5-10.1,22.5-22.5S374.2,1150.7,361.8,1150.7z"/>
				</g>
			</g>
		</g>
		<g>
			<g>
				<g>
					<circle class="st2" cx="450" cy="901.8" r="25"/>
				</g>
			</g>
			<g>
				<g>
					<path d="M450,929.3c-15.2,0-27.5-12.3-27.5-27.5s12.3-27.5,27.5-27.5s27.5,12.3,27.5,27.5S465.2,929.3,450,929.3z M450,879.3
						c-12.4,0-22.5,10.1-22.5,22.5s10.1,22.5,22.5,22.5s22.5-10.1,22.5-22.5S462.4,879.3,450,879.3z"/>
				</g>
			</g>
		</g>
		<g>
			<g>
				<g>
					<circle class="st2" cx="450" cy="1198.2" r="25"/>
				</g>
			</g>
			<g>
				<g>
					<path d="M450,1225.7c-15.2,0-27.5-12.3-27.5-27.5s12.3-27.5,27.5-27.5s27.5,12.3,27.5,27.5S465.2,1225.7,450,1225.7z
						 M450,1175.7c-12.4,0-22.5,10.1-22.5,22.5s10.1,22.5,22.5,22.5s22.5-10.1,22.5-22.5S462.4,1175.7,450,1175.7z"/>
				</g>
			</g>
		</g>
	</g>
</g>
</svg>
