<svg width="878" height="710" viewBox="0 0 878 710" fill="none" xmlns="http://www.w3.org/2000/svg">
<g clip-path="url(#clip0_191_285)">
<g filter="url(#filter0_f_191_285)">
<ellipse cx="439" cy="355" rx="339" ry="255" fill="#F4CACB"/>
</g>
<path d="M585.78 471.61C574.39 475.16 546.369 474.74 581.129 438.4C615.889 402.05 610.54 342.39 603.86 325.01C597.17 307.63 612.3 265.57 612.3 265.57C612.3 265.57 582.47 290.25 585.79 334.72C589.1 379.19 551.72 407.9 541.03 379.15C530.33 350.4 543.7 315.65 558.41 294.26C573.11 272.87 558.41 227.86 558.41 227.86C558.41 239 543.919 300.8 514.879 276.28C477.039 244.35 534.99 140.23 535.68 139C534.69 140.01 466.25 210.36 478.19 256.82C490.23 303.61 452.79 333.03 415.36 385.36C381.6 432.56 386.9 472.38 408.43 498.29C423.36 516.26 446.11 527.54 469.04 529.93C480.71 532.99 492.81 534.59 505.21 534.59C519.14 534.59 532.69 532.56 545.67 528.74C545.64 528.78 545.6 528.82 545.579 528.86C558.139 526.73 568.76 521.74 577.73 515.07C606.53 493.69 618.26 455.01 622.21 437.87C616.12 455.99 595.69 468.5 585.8 471.59L585.78 471.61Z" fill="url(#paint0_linear_191_285)"/>
<path d="M311.716 560.72C311.716 560.72 265.586 551.17 265.586 514.4C265.586 477.63 289.276 457.78 273.066 443.07C273.066 443.07 289.896 438.65 292.386 474.69C292.386 474.69 312.966 440.86 284.276 399.68C255.596 358.5 266.816 332.77 279.916 315.11C293.006 297.46 306.726 284.23 301.736 259.96C301.736 259.96 314.826 273.93 311.706 287.9C308.586 301.87 278.046 337.17 304.226 354.08C304.226 354.08 332.866 363.73 321.056 329.08C321.056 329.08 345.986 339.38 352.846 360.7C359.706 382.03 366.566 416.59 320.436 471C274.306 525.42 311.706 560.72 311.706 560.72H311.716Z" fill="url(#paint1_linear_191_285)"/>
<path d="M327.859 496.03C327.859 496.03 329.409 478.39 352.229 453.19C375.049 427.99 366.759 398.03 366.759 398.03C366.759 398.03 385.249 435.48 370.299 456.62C355.349 477.77 342.039 469.96 327.859 496.03Z" fill="url(#paint2_linear_191_285)"/>
<path d="M380.432 541.46C381.432 543.67 383.702 545.24 386.112 545.4C388.532 545.56 390.982 544.29 392.262 542.24L392.162 542.59C393.142 534.82 394.132 527.06 395.112 519.29C389.892 514.21 382.992 511.63 375.742 512.26C377.322 521.83 378.862 531.89 380.442 541.46" fill="#F4A373"/>
<path d="M394.868 565.28C388.448 567.37 381.528 564.87 375.238 562.4C374.068 561.94 372.808 561.39 372.248 560.27C372.168 560.11 372.108 559.94 372.058 559.76C370.818 560.98 369.778 562.49 370.318 564.05C370.668 565.07 371.618 565.76 372.538 566.32C378.618 570.01 386.178 571.17 393.088 569.48C394.708 569.08 396.348 568.5 397.508 567.3C398.638 566.13 399.158 564.24 398.358 562.83C397.638 564.04 396.238 564.82 394.858 565.27L394.868 565.28Z" fill="#798184"/>
<path d="M398.162 558C396.562 553.64 394.962 549.29 393.362 544.93C392.792 543.37 392.752 542.92 391.432 541.91C389.552 540.48 384.902 540.51 383.922 540.49C381.492 540.44 379.512 541.22 378.412 543.39C375.862 548.04 374.252 551.44 372.502 556.44C372.132 557.51 371.782 558.7 372.062 559.77C372.112 559.94 372.162 560.11 372.252 560.28C372.812 561.4 374.072 561.95 375.242 562.41C381.532 564.88 388.452 567.38 394.872 565.29C396.252 564.84 397.652 564.06 398.372 562.85C398.522 562.6 398.652 562.33 398.732 562.04C399.112 560.71 398.632 559.31 398.152 558.01L398.162 558Z" fill="#ABB8C1"/>
<path d="M374.565 561.7C376.835 559.27 379.965 557.69 383.275 557.33C386.545 556.98 389.825 557.86 392.535 559.71C394.055 560.75 395.355 562.1 396.355 563.65C396.705 564.19 397.565 563.69 397.215 563.15C395.345 560.23 392.485 558.03 389.195 556.96C385.785 555.85 382.075 556.1 378.795 557.52C376.935 558.33 375.245 559.52 373.865 561C373.425 561.47 374.135 562.18 374.575 561.71L374.565 561.7Z" fill="#7C8589"/>
<path d="M380.636 552.86C383.856 551.24 387.816 551.48 390.846 553.43C391.386 553.78 391.886 552.91 391.346 552.57C388.016 550.42 383.666 550.22 380.126 552C379.556 552.29 380.056 553.15 380.626 552.86H380.636Z" fill="#7C8589"/>
<path d="M382.265 549.4C384.495 548.79 386.915 548.95 389.035 549.91C389.615 550.17 390.125 549.31 389.535 549.05C387.165 547.98 384.505 547.75 381.995 548.44C381.375 548.61 381.635 549.58 382.265 549.4Z" fill="#7C8589"/>
<path d="M383.079 546.33C384.869 545.71 386.859 545.84 388.539 546.74C389.109 547.04 389.609 546.18 389.039 545.88C387.139 544.87 384.849 544.67 382.809 545.37C382.209 545.58 382.469 546.55 383.079 546.33Z" fill="#7C8589"/>
<path d="M467.407 519.55C470.197 530.13 472.977 540.72 475.767 551.3C478.987 550.61 482.297 550.29 485.587 550.33C484.697 539.02 485.147 527.61 486.927 516.41C480.137 517.16 473.387 518.28 466.727 519.77" fill="#F4A373"/>
<path d="M517.956 560.62C517.956 560.62 517.976 560.68 517.986 560.72C518.096 561.17 517.796 561.63 517.346 561.74C502.246 565.39 486.296 565.5 471.146 562.05C471.036 562.37 470.946 562.7 470.896 563.03C470.746 564.11 471.056 565.33 471.936 565.98C472.596 566.46 473.436 566.55 474.246 566.62C489.156 568.01 504.586 569.34 518.756 564.51C519.486 563.27 518.986 561.68 517.966 560.62H517.956Z" fill="#798184"/>
<path d="M473.33 544.12C472 543.77 471.83 546.14 471.76 547.51C471.54 552.29 471.07 557.26 471.16 562.04C486.41 565.56 502.48 565.48 517.69 561.8C518.14 561.69 518.44 561.23 518.33 560.78C517.37 556.74 514.66 553.13 511.03 551.11C505.68 548.14 498.5 548.38 494.39 543.85C492.83 542.13 491.51 539.64 489.18 539.56C487.28 539.49 485.83 541.13 484.34 542.31C481.23 544.79 477.25 545.39 473.47 544.15" fill="#ABB8C1"/>
<path d="M471.912 553.81C475.712 555.71 478.382 559.2 479.552 563.25C479.732 563.87 480.692 563.6 480.512 562.98C479.282 558.7 476.432 554.96 472.412 552.94C471.842 552.65 471.332 553.52 471.912 553.8V553.81Z" fill="#7C8589"/>
<path d="M510.67 551.34C506.93 554.19 505.35 559.05 506.62 563.58L507.58 563.31C507.51 563.08 507.45 562.85 507.38 562.63C507.2 562.01 506.24 562.27 506.42 562.9C506.49 563.13 506.55 563.36 506.62 563.58C506.8 564.2 507.76 563.94 507.58 563.31C506.45 559.25 507.79 554.78 511.17 552.2C511.67 551.81 511.17 550.95 510.67 551.34Z" fill="#7C8589"/>
<path d="M498.992 555.72C499.282 553.05 500.932 550.56 503.362 549.37C503.942 549.09 503.432 548.22 502.862 548.51C500.102 549.86 498.332 552.72 498.002 555.72C497.972 555.99 498.252 556.22 498.502 556.22C498.792 556.22 498.972 555.99 499.002 555.72H498.992Z" fill="#7C8589"/>
<path d="M494.498 551.08C495.038 549.54 496.128 548.21 497.588 547.46C497.828 547.34 497.898 547 497.768 546.78C497.628 546.54 497.328 546.48 497.088 546.6C495.398 547.47 494.158 549.04 493.538 550.82C493.448 551.07 493.638 551.37 493.888 551.44C494.168 551.52 494.418 551.35 494.508 551.09L494.498 551.08Z" fill="#7C8589"/>
<path d="M491.563 546.74C491.753 546.5 491.953 546.28 492.173 546.07C492.283 545.96 492.393 545.86 492.513 545.76C492.573 545.71 492.622 545.67 492.682 545.62C492.722 545.59 492.642 545.65 492.712 545.6C492.742 545.58 492.773 545.55 492.813 545.53C493.053 545.36 493.303 545.2 493.563 545.06C493.693 544.99 493.813 544.93 493.943 544.87C493.943 544.87 494.063 544.82 494.013 544.84C493.963 544.86 494.082 544.81 494.082 544.81C494.152 544.78 494.232 544.75 494.302 544.73C494.552 544.64 494.743 544.39 494.653 544.11C494.573 543.87 494.303 543.67 494.033 543.76C492.783 544.21 491.673 545 490.843 546.03C490.683 546.23 490.633 546.54 490.843 546.74C491.023 546.91 491.372 546.96 491.552 546.74H491.563Z" fill="#7C8589"/>
<path d="M496.086 516.49C482.766 517.81 469.246 517.18 456.106 514.65C445.586 466.72 435.006 386.43 428.216 397.88C423.586 404.21 411.806 466.71 405.866 515.35C392.696 516.44 379.386 515.91 366.336 513.78C370.046 458.93 376.806 398.35 392.256 345.59L471.696 340.42C484.796 392.52 489.896 450.95 496.086 516.48V516.49Z" fill="#CBDBE8"/>
<mask id="mask0_191_285" style="mask-type:luminance" maskUnits="userSpaceOnUse" x="366" y="340" width="131" height="178">
<path d="M496.086 516.49C482.766 517.81 469.246 517.18 456.106 514.65C445.586 466.72 435.006 386.43 428.216 397.88C423.586 404.21 411.806 466.71 405.866 515.35C392.696 516.44 379.386 515.91 366.336 513.78C370.046 458.93 376.806 398.35 392.256 345.59L471.696 340.42C484.796 392.52 489.896 450.95 496.086 516.48V516.49Z" fill="white"/>
</mask>
<g mask="url(#mask0_191_285)">
<path d="M372.453 518.86C372.843 506.8 373.543 494.75 374.573 482.73C375.603 470.64 376.963 458.57 378.643 446.55C380.323 434.54 382.323 422.58 384.643 410.68C386.953 398.84 389.573 387.06 392.503 375.35C395.433 363.65 398.683 352.02 402.233 340.49C402.683 339.04 403.133 337.6 403.583 336.15C403.773 335.53 402.813 335.27 402.623 335.88C398.983 347.44 395.643 359.1 392.623 370.84C389.603 382.58 386.893 394.4 384.503 406.29C382.113 418.18 380.043 430.12 378.283 442.12C376.543 454.04 375.113 466.01 373.993 478.01C372.873 490.08 372.083 502.18 371.613 514.3C371.553 515.81 371.503 517.33 371.453 518.84C371.433 519.48 372.433 519.48 372.453 518.84V518.86Z" fill="white"/>
<path d="M464.752 337.96C469.192 362.71 473.202 387.54 476.772 412.43C480.352 437.4 483.482 462.44 486.172 487.52C487.682 501.59 489.052 515.68 490.272 529.78C490.332 530.42 491.332 530.42 491.272 529.78C489.072 504.6 486.442 479.47 483.352 454.38C480.272 429.38 476.762 404.43 472.802 379.55C470.582 365.57 468.212 351.62 465.712 337.69C465.602 337.06 464.632 337.33 464.752 337.96Z" fill="white"/>
<path d="M377.586 520.21C377.576 508.47 378.146 496.74 379.316 485.06C379.646 481.77 380.026 478.49 380.446 475.21C380.526 474.57 379.526 474.58 379.446 475.21C377.946 486.85 377.036 498.56 376.716 510.3C376.626 513.6 376.586 516.91 376.586 520.22C376.586 520.86 377.586 520.86 377.586 520.22V520.21Z" fill="white"/>
<path d="M383.08 521.75C382.22 515.39 382.14 508.93 382.8 502.54C382.87 501.9 381.87 501.91 381.8 502.54C381.13 509.02 381.24 515.55 382.11 522.01C382.2 522.64 383.16 522.37 383.07 521.74L383.08 521.75Z" fill="white"/>
<path d="M458.972 517.57C457.642 507.49 456.202 497.42 454.642 487.37C453.072 477.21 451.392 467.08 449.592 456.96C447.802 446.89 445.912 436.84 443.902 426.82C441.892 416.79 439.772 406.79 437.542 396.81C435.302 386.78 432.942 376.78 430.482 366.8C430.182 365.58 429.872 364.36 429.572 363.13C429.412 362.51 428.452 362.77 428.612 363.4C431.092 373.32 433.462 383.27 435.722 393.24C437.972 403.16 440.112 413.11 442.142 423.08C444.182 433.1 446.112 443.14 447.922 453.21C449.732 463.28 451.422 473.26 453.012 483.31C454.602 493.41 456.092 503.53 457.462 513.66C457.642 514.96 457.812 516.27 457.982 517.57C458.062 518.2 459.062 518.21 458.982 517.57H458.972Z" fill="white"/>
<path d="M483.29 520.9C482.15 512.11 481.01 503.32 479.88 494.53C479.8 493.9 478.8 493.89 478.88 494.53C480.02 503.32 481.16 512.11 482.29 520.9C482.37 521.53 483.37 521.54 483.29 520.9Z" fill="white"/>
</g>
<path d="M366.306 512.74C379.806 514.96 392.966 515.32 406.566 513.85C407.216 513.78 407.796 514.29 407.786 514.95C407.716 518.67 407.306 522.4 406.596 526.49C406.516 526.92 406.196 527.28 405.766 527.39C392.786 530.57 378.416 530.3 365.606 526.48C365.176 526.35 364.856 525.97 364.816 525.52C364.466 521.61 364.426 517.52 365.036 513.64C365.126 513.04 365.706 512.65 366.306 512.75V512.74Z" fill="#ABB8C1"/>
<path d="M499.32 524.01C499.12 520.22 498.72 517.13 498.05 513.66C497.93 513.06 497.34 512.67 496.74 512.79L493.51 513.46C479.75 516.05 469.27 515.75 455.63 513.77C454.95 513.67 454.34 514.21 454.36 514.9L454.42 516.59C454.76 520.65 454.97 521.6 455.98 525.87C456.08 526.29 456.41 526.62 456.83 526.7C460.93 527.51 482.41 531.28 498.62 525.12C499.07 524.95 499.35 524.5 499.33 524.02L499.32 524.01Z" fill="#ABB8C1"/>
<path d="M462.125 176.66C461.425 182.45 461.615 188.51 464.015 193.82C466.425 199.13 471.405 203.52 477.205 204C482.625 204.45 487.695 201.58 492.525 199.08C504.755 192.75 518.395 188.14 532.105 189.43C535.745 189.77 539.765 190.81 541.645 193.95C542.935 196.11 542.895 198.8 542.585 201.3C542.245 204.05 541.575 206.86 539.865 209.04C538.155 211.22 535.185 212.6 532.555 211.75C529.805 210.86 528.255 207.99 525.895 206.35C522.135 203.73 517.055 204.58 512.565 205.54C505.205 207.11 497.835 208.69 490.475 210.26C486.275 211.16 482.035 212.06 477.735 212.11C473.435 212.16 469.025 211.3 465.435 208.92C460.925 205.93 458.155 200.78 457.175 195.47C456.185 190.15 456.825 184.66 458.005 179.38C458.295 178.1 458.635 176.77 459.535 175.82C460.435 174.87 461.105 175.82 462.105 176.67" fill="#92684B"/>
<path d="M435.771 182.51C435.771 182.51 464.561 241.55 435.771 263.32C406.981 285.1 365.531 290.43 365.531 290.43C365.531 290.43 382.341 186.8 435.771 182.5V182.51Z" fill="#92684B"/>
<path d="M438.332 235.87C438.392 241.15 438.472 246.76 438.532 252.04C443.122 252.12 447.452 252.79 450.912 255.82C454.362 258.85 456.302 263.8 455.002 268.21C453.902 271.92 450.732 274.74 447.182 276.28C443.632 277.81 439.702 278.23 435.842 278.47C428.202 278.95 420.392 278.8 413.092 276.5C410.362 275.64 407.682 274.45 405.562 272.54C403.442 270.63 401.912 267.92 401.922 265.06C401.932 261.58 404.212 258.42 407.072 256.43C409.932 254.44 413.752 253.03 417.092 252.04C417.962 241.85 418.232 230.5 417.902 220.28C414.892 219.57 412.242 217.08 411.632 214.05C411.012 211.02 412.512 207.62 415.242 206.19C417.982 204.75 421.742 205.54 423.542 208.06C422.322 199.97 424.122 191.38 428.612 184.54C431.132 180.7 434.492 177.35 438.612 175.31C442.722 173.27 449.742 173.73 452.232 174.76C460.322 182.56 462.882 195.81 459.882 206.79C459.612 207.76 459.762 208.79 460.232 209.68L462.632 214.53C462.822 214.91 462.662 215.37 462.282 215.57L459.442 217.01C459.142 217.19 458.952 217.51 458.932 217.86C458.542 223.58 457.172 229.09 455.072 234.44C454.362 236.25 453.422 238.16 451.672 239C449.922 239.84 447.872 239.68 446.032 239.1C439.292 236.98 432.962 233.18 427.592 228.59" fill="#F4A373"/>
<path d="M438.525 252.04C440.275 252.21 442.385 252.6 443.775 253.68C445.165 254.76 445.975 256.76 445.215 258.34C444.595 259.61 443.195 260.28 441.855 260.74C436.375 262.63 430.445 262.69 424.655 262.35C421.035 262.14 417.335 261.75 414.085 260.14C413.285 259.74 412.485 259.25 412.045 258.47C411.295 257.15 411.835 255.41 412.895 254.32C413.955 253.24 415.665 252.58 417.075 252.04C406.415 252.04 399.725 253.76 392.485 257.42C385.255 261.08 378.955 266.35 373.115 271.98C366.955 277.93 361.165 284.43 357.195 292.02L431.355 323.37L505.515 292.02C501.545 284.43 495.765 277.93 489.595 271.98C483.765 266.35 477.465 261.09 470.225 257.42C462.995 253.76 456.295 252.04 445.635 252.04H438.505" fill="#E8EEF9"/>
<path d="M407.879 260.4C417.299 267.24 429.729 269.09 440.729 265.25C443.809 264.17 446.739 262.68 449.429 260.82C449.949 260.46 449.459 259.59 448.929 259.96C439.569 266.46 427.449 268.02 416.759 264.04C413.779 262.93 410.969 261.4 408.399 259.54C407.879 259.16 407.379 260.03 407.899 260.4H407.879Z" fill="#ABB8C1"/>
<path d="M431.076 259.33C416.246 278.93 392.796 291.77 368.306 293.74C366.756 293.86 365.566 295.19 365.566 296.74C365.556 307.63 365.476 317.77 365.566 328.51C365.676 340.24 367.256 352.48 370.686 363.7C374.116 374.92 380.536 385.54 390.216 392.17C398.276 397.7 409.666 402.09 418.446 406.39C425.416 409.8 429.586 415.35 431.556 422.36C431.866 423.46 433.436 423.46 433.746 422.36C435.716 415.36 439.886 409.8 446.856 406.39C455.636 402.1 467.026 397.7 475.086 392.17C484.766 385.54 491.186 374.91 494.616 363.7C498.046 352.48 499.626 340.24 499.736 328.51C499.836 317.77 499.756 307.63 499.736 296.74C499.736 295.18 498.546 293.86 496.996 293.74C472.506 291.77 449.056 278.93 434.226 259.33C433.436 258.29 431.856 258.29 431.066 259.33H431.076Z" fill="#B61936"/>
<mask id="mask1_191_285" style="mask-type:luminance" maskUnits="userSpaceOnUse" x="365" y="258" width="135" height="166">
<path d="M431.076 259.33C416.246 278.93 392.796 291.77 368.306 293.74C366.756 293.86 365.566 295.19 365.566 296.74C365.556 307.63 365.476 317.77 365.566 328.51C365.676 340.24 367.256 352.48 370.686 363.7C374.116 374.92 380.536 385.54 390.216 392.17C398.276 397.7 409.666 402.09 418.446 406.39C425.416 409.8 429.586 415.35 431.556 422.36C431.866 423.46 433.436 423.46 433.746 422.36C435.716 415.36 439.886 409.8 446.856 406.39C455.636 402.1 467.026 397.7 475.086 392.17C484.766 385.54 491.186 374.91 494.616 363.7C498.046 352.48 499.626 340.24 499.736 328.51C499.836 317.77 499.756 307.63 499.736 296.74C499.736 295.18 498.546 293.86 496.996 293.74C472.506 291.77 449.056 278.93 434.226 259.33C433.436 258.29 431.856 258.29 431.066 259.33H431.076Z" fill="white"/>
</mask>
<g mask="url(#mask1_191_285)">
<path d="M432.866 431.54C433.406 424.6 433.806 417.41 431.626 410.69C430.726 407.92 429.406 405.28 427.596 403C425.726 400.64 423.316 398.81 420.686 397.38C415.426 394.53 409.546 393.08 404.296 390.2C399.286 387.45 394.816 383.8 390.986 379.57C387.116 375.3 383.896 370.45 381.326 365.29C379.086 360.8 377.256 356.04 376.196 351.13C375.216 346.57 374.716 341.91 374.376 337.27C373.986 331.94 373.836 326.59 373.806 321.24C373.756 311.4 374.106 301.56 374.736 291.74C374.796 290.83 374.856 289.92 374.916 289.01C374.956 288.37 373.956 288.37 373.916 289.01C373.256 298.44 372.866 307.89 372.806 317.34C372.746 327.55 372.926 337.91 374.586 348.01C376.256 358.16 380.636 367.92 386.836 376.12C390.236 380.61 394.236 384.64 398.816 387.93C401.106 389.58 403.536 391.03 406.086 392.25C408.806 393.55 411.656 394.57 414.466 395.67C417.276 396.78 420.086 397.99 422.586 399.71C425.136 401.46 427.196 403.76 428.706 406.45C432.056 412.43 432.516 419.44 432.216 426.15C432.136 427.95 432.006 429.75 431.866 431.55C431.816 432.19 432.816 432.19 432.866 431.55V431.54Z" fill="#DB546A"/>
<path d="M431.93 253.78C432.11 264.09 436.85 273.77 443.75 281.27C451.28 289.45 461.32 294.78 471.82 298.11C478.03 300.08 484.43 301.4 490.87 302.35C491.5 302.44 491.77 301.48 491.14 301.39C480.01 299.75 468.85 297.01 458.9 291.63C449.76 286.69 441.86 279.4 437.12 270.07C434.56 265.02 433.04 259.46 432.94 253.78C432.93 253.14 431.93 253.14 431.94 253.78H431.93Z" fill="#DB546A"/>
<path d="M491.114 308.28C491.784 323.75 492.484 339.59 488.344 354.68C486.554 361.19 483.894 367.5 480.114 373.11C476.324 378.74 471.404 383.46 465.684 387.1C459.274 391.18 452.104 393.92 444.734 395.67C444.104 395.82 444.374 396.78 445.004 396.63C451.654 395.05 458.154 392.66 464.094 389.23C469.984 385.82 475.204 381.37 479.324 375.94C483.474 370.46 486.464 364.16 488.524 357.62C490.754 350.55 491.864 343.18 492.334 335.8C492.854 327.65 492.594 319.48 492.254 311.33C492.214 310.31 492.164 309.29 492.124 308.27C492.094 307.63 491.094 307.63 491.124 308.27L491.114 308.28Z" fill="#DB546A"/>
</g>
<path d="M445.269 329.49H444.979V323.1C444.979 320.05 443.689 317.12 441.409 314.96C439.119 312.8 436.019 311.59 432.779 311.59C429.539 311.59 426.439 312.8 424.149 314.96C421.859 317.12 420.579 320.05 420.579 323.1V329.49H420.049C416.419 329.49 413.469 332.44 413.469 336.07V355.45C413.469 359.08 416.419 362.03 420.049 362.03H445.279C448.909 362.03 451.859 359.08 451.859 355.45V336.07C451.859 332.44 448.909 329.49 445.279 329.49H445.269ZM436.529 351.48C436.649 351.74 436.759 352.05 436.619 352.3C436.459 352.57 436.089 352.61 435.769 352.61C434.769 352.61 433.779 352.63 432.779 352.64C431.779 352.64 430.789 352.62 429.789 352.61C429.469 352.61 429.099 352.57 428.939 352.3C428.799 352.05 428.909 351.74 429.029 351.48C429.709 349.97 430.309 348.07 430.959 346.57C431.119 346.2 430.989 345.77 430.649 345.56C429.409 344.76 428.659 343.28 428.919 341.64C429.179 340 430.599 338.61 432.289 338.4C434.659 338.12 436.669 339.96 436.669 342.28C436.669 343.65 435.959 344.86 434.889 345.55C434.559 345.77 434.429 346.19 434.589 346.56C435.239 348.05 435.839 349.96 436.509 351.47L436.529 351.48ZM439.349 329.49H426.219V325.09C426.219 323.01 426.909 321.02 428.139 319.54C429.369 318.06 431.039 317.24 432.779 317.24C434.519 317.24 436.189 318.07 437.419 319.54C438.649 321.01 439.339 323.01 439.339 325.09V329.49H439.349Z" fill="white"/>
<path d="M367.641 292.02C364.301 295.41 365.721 309.1 366.561 315.38C366.811 317.25 370.721 330.83 376.161 336.09C376.691 336.6 376.681 337.46 376.141 337.96C370.721 343.02 362.131 347.52 354.841 348.98C354.261 349.1 353.681 348.73 353.541 348.15C349.071 329.55 351.191 303.34 357.201 292.02H367.641Z" fill="#E8EEF9"/>
<mask id="mask2_191_285" style="mask-type:luminance" maskUnits="userSpaceOnUse" x="351" y="292" width="26" height="58">
<path d="M367.641 292.02C364.301 295.41 365.721 309.1 366.561 315.38C366.811 317.25 370.721 330.83 376.161 336.09C376.691 336.6 376.681 337.46 376.141 337.96C370.721 343.02 362.131 347.52 354.841 348.98C354.261 349.1 353.681 348.73 353.541 348.15C349.071 329.55 351.191 303.34 357.201 292.02H367.641Z" fill="white"/>
</mask>
<g mask="url(#mask2_191_285)">
<path d="M352.332 346.45C359.292 345.45 365.982 342.68 371.612 338.46C373.202 337.27 374.702 335.97 376.112 334.57C376.572 334.12 375.862 333.41 375.402 333.86C370.502 338.74 364.392 342.34 357.752 344.26C355.882 344.8 353.982 345.21 352.062 345.48C351.432 345.57 351.702 346.53 352.332 346.44V346.45Z" fill="#9CA8AF"/>
</g>
<path d="M496.438 292C501.118 296.01 499.528 296.88 499.428 305.57C499.378 309.47 499.248 317.14 497.098 323.65C495.058 329.81 491.078 334.84 488.438 337.4C487.908 337.91 487.918 338.77 488.458 339.27C493.878 344.33 500.608 347.51 507.898 348.97C508.478 349.09 509.058 348.72 509.198 348.14C513.668 329.54 511.548 303.33 505.538 292.01H496.448L496.438 292Z" fill="#E8EEF9"/>
<mask id="mask3_191_285" style="mask-type:luminance" maskUnits="userSpaceOnUse" x="488" y="292" width="24" height="57">
<path d="M496.438 292C501.118 296.01 499.528 296.88 499.428 305.57C499.378 309.47 499.248 317.14 497.098 323.65C495.058 329.81 491.078 334.84 488.438 337.4C487.908 337.91 487.918 338.77 488.458 339.27C493.878 344.33 500.608 347.51 507.898 348.97C508.478 349.09 509.058 348.72 509.198 348.14C513.668 329.54 511.548 303.33 505.538 292.01H496.448L496.438 292Z" fill="white"/>
</mask>
<g mask="url(#mask3_191_285)">
<path d="M488.149 336.15C493.229 341.14 499.639 344.71 506.549 346.43C508.509 346.92 510.509 347.24 512.529 347.43C513.169 347.49 513.169 346.49 512.529 346.43C505.649 345.8 498.979 343.28 493.369 339.25C491.769 338.1 490.269 336.83 488.859 335.45C488.399 335 487.689 335.71 488.149 336.16V336.15Z" fill="#9CA8AF"/>
</g>
<path d="M454.42 198.37C454.73 198.77 454.45 199.58 454.19 200.13C453.87 200.82 452.89 200.78 452.14 200.68C449.52 200.33 446.81 200.63 444.33 201.53C444.12 201.61 443.96 201.35 444.12 201.19C446.66 198.67 450.46 197.47 453.98 198.12L454.42 198.37Z" fill="#724B3B"/>
<path d="M421.938 208.5C420.398 206.78 417.538 206.77 415.688 207.95C413.728 209.2 412.858 211.68 413.528 213.89C413.718 214.5 414.678 214.24 414.488 213.62C413.948 211.84 414.598 209.82 416.188 208.81C417.678 207.86 419.978 207.8 421.228 209.2C421.658 209.68 422.358 208.97 421.938 208.49V208.5Z" fill="#1D1E1C"/>
<path d="M455.585 208.64C453.595 209.82 451.195 210.29 448.915 209.94C446.635 209.59 444.485 208.42 442.945 206.7C444.815 205.12 447.655 204.27 450.065 204.71C452.475 205.14 454.395 206.52 455.595 208.65L455.585 208.64Z" fill="white"/>
<path d="M455.467 208.43C451.407 210.78 446.277 209.98 443.127 206.52V206.87C444.987 205.34 447.607 204.52 449.997 204.94C452.307 205.34 454.207 206.74 455.377 208.76C455.537 209.04 455.967 208.79 455.807 208.51C454.547 206.33 452.457 204.82 449.947 204.43C447.437 204.04 444.727 204.9 442.767 206.52C442.657 206.61 442.687 206.78 442.767 206.87C446.067 210.49 451.477 211.31 455.717 208.85C455.997 208.69 455.747 208.26 455.467 208.42V208.43Z" fill="#2E3234"/>
<path d="M455.589 208.64C454.599 206.89 453.129 205.66 451.299 205.04L451.159 205.11C450.269 205.51 449.609 206.39 449.489 207.36C449.369 208.33 449.789 209.35 450.549 209.95L450.599 210.04C452.349 210.01 454.079 209.53 455.579 208.63L455.589 208.64Z" fill="#2E3234"/>
<path d="M455.81 208.51C454.96 207.02 453.69 205.79 452.11 205.08C451.92 205 451.74 204.92 451.54 204.85C451.34 204.78 451.26 204.77 451.08 204.86C450.72 205.03 450.4 205.24 450.12 205.53C449.55 206.12 449.2 206.93 449.22 207.76C449.23 208.23 449.36 208.7 449.57 209.12C449.68 209.33 449.81 209.52 449.96 209.71C450.09 209.86 450.3 210 450.4 210.17C450.44 210.24 450.53 210.3 450.62 210.29C452.42 210.25 454.18 209.76 455.73 208.85C456.01 208.69 455.76 208.25 455.48 208.42C454 209.29 452.33 209.75 450.62 209.79L450.84 209.91C450.75 209.75 450.6 209.65 450.48 209.52C450.29 209.33 450.14 209.1 450.02 208.86C449.78 208.39 449.69 207.84 449.76 207.32C449.83 206.84 450.05 206.37 450.37 206C450.69 205.63 451.04 205.43 451.45 205.23L451.26 205.26C453.04 205.88 454.47 207.12 455.4 208.75C455.56 209.03 455.99 208.78 455.83 208.5L455.81 208.51Z" fill="#2E3234"/>
<path d="M446.74 223.49C448.53 226.2 452.06 227.12 454.95 225.63C455.52 225.33 455.02 224.47 454.45 224.77C452.06 226 449.09 225.23 447.61 222.99C447.26 222.46 446.39 222.96 446.75 223.49H446.74Z" fill="#1D1E1C"/>
<path opacity="0.46" d="M438.387 241.33L438.327 235.87C438.327 235.87 433.727 233.78 427.617 228.61L438.387 241.33Z" fill="#7F4924"/>
<path d="M420.797 184.44C426.917 177.23 433.007 173.98 442.037 171.15C445.727 169.99 450.397 169.48 452.577 173.18C453.247 174.31 453.487 175.65 453.387 176.96C453.107 180.55 457.157 187.1 453.767 187.55C443.757 188.87 443.557 199.23 444.427 206.12C445.297 213.01 449.277 219.63 455.417 222.87C462.107 226.41 470.297 225.61 477.547 223.43C484.797 221.25 491.657 217.8 499.047 216.16C507.437 214.3 517.157 215.16 522.797 222.14C524.737 224.54 525.447 227.81 524.187 230.63C521.387 236.9 512.397 233.32 509.457 238.75C508.697 240.15 508.627 241.82 508.997 243.37C509.737 246.46 511.887 248.76 513.707 251.23C520.697 260.71 522.587 275.44 513.027 283.25C511.427 284.55 509.137 284.79 507.447 283.61C505.137 282 505.787 279.23 505.947 276.8C506.537 267.78 499.017 260.1 490.847 256.24C482.667 252.38 473.497 251.05 465.287 247.26C446.947 238.79 431.147 214.27 434.667 194.32C434.847 193.27 435.547 192.9 436.497 193.38C437.267 193.76 436.657 194.85 434.837 196.19C433.627 197.08 432.057 204.42 432.747 208.78C433.427 213.1 433.937 215.65 434.437 220.04C435.197 226.61 432.267 233.48 427.707 238.28C423.147 243.08 416.647 245.88 410.047 246.29C403.417 246.7 396.487 244.87 390.267 247.21C384.197 249.5 380.257 255.23 375.497 259.64C371.127 263.69 364.477 266.74 359.287 264.33C358.697 264.06 358.687 263.23 359.247 262.89C368.617 257.29 368.367 241.09 378.297 235.8C384.517 232.48 392.367 234.85 399.037 232.6C407.737 229.66 407.597 219.71 409.327 210.69C411.057 201.67 415.827 192.15 420.817 184.44" fill="#92684B"/>
<path d="M417.088 252.04C417.688 244.96 417.998 237.5 418.018 229.98C417.788 226.77 417.598 223.45 417.478 220.15C414.638 219.32 412.208 216.94 411.618 214.04C410.998 211.01 412.498 207.61 415.228 206.18C415.968 205.79 416.788 205.58 417.618 205.5C417.938 200.96 418.588 197.05 419.698 194.32C420.218 193.04 420.848 192.01 421.588 191.32C423.028 189.97 424.678 189.03 426.428 188.39C435.448 185.11 447.178 190.66 447.178 190.66C449.078 188.67 450.488 188.35 452.658 189.09C454.828 189.83 458.148 191.87 460.428 192.1C466.208 192.69 472.228 188.51 472.318 182.7C472.408 176.89 467.448 170.19 462.138 167.83C456.828 165.46 448.548 163.06 442.928 164.54C437.308 166.01 430.688 167.63 425.438 170.1C420.188 172.58 416.108 176.65 410.358 177.43C402.848 178.45 396.828 178.77 390.218 182.48C381.558 187.34 379.678 198.7 374.928 207.42C368.558 219.12 356.148 227.65 342.818 227.53C338.068 227.49 332.628 225.73 327.908 226.24C323.188 226.76 318.228 229.21 316.648 233.69C313.898 241.47 322.548 248.95 322.498 257.21C322.468 262.5 318.918 267 316.648 271.78C314.378 276.55 316.098 282.28 320.538 285.15C325.428 288.31 334.518 285.29 339.648 288.04C342.868 289.77 343.118 296.44 343.978 299.98C345.078 304.53 349.338 306.92 352.498 308.09C353.538 301.58 355.138 295.91 357.208 292.01C362.098 282.67 369.718 274.99 377.428 267.95C382.048 263.73 387.178 260.08 392.768 257.28C399.898 253.71 406.558 252.04 417.078 252.04" fill="#92684B"/>
<path d="M461.729 189.28C461.629 194.21 465.039 198.88 468.689 201.87C470.569 203.41 472.719 204.71 475.079 205.33C477.739 206.03 480.639 205.67 483.269 205C496.099 201.71 503.789 189.33 516.129 185.07C523.159 182.64 530.979 182.92 537.829 185.8C538.419 186.05 538.679 185.08 538.099 184.84C532.229 182.37 525.619 181.8 519.399 183.13C513.149 184.47 507.859 187.92 502.879 191.79C497.889 195.68 493.069 199.93 487.239 202.54C484.359 203.83 481.239 204.68 478.059 204.69C475.639 204.7 473.399 203.85 471.369 202.58C468.959 201.07 466.849 199 465.259 196.64C463.799 194.47 462.669 191.92 462.719 189.26C462.729 188.62 461.729 188.62 461.719 189.26L461.729 189.28Z" fill="#724B3B"/>
<path d="M444.212 224.8C449.202 233.73 456.932 241.09 466.102 245.64C471.072 248.11 476.462 249.39 481.622 251.38C484.232 252.39 486.782 253.64 489.012 255.35C490.972 256.86 492.692 258.69 494.092 260.73C497.282 265.36 498.872 271.02 498.392 276.64C498.342 277.28 499.342 277.28 499.392 276.64C499.812 271.68 498.652 266.65 496.232 262.3C493.812 257.95 489.942 254.22 485.342 251.93C480.252 249.4 474.632 248.25 469.402 246.06C464.592 244.05 460.112 241.26 456.162 237.86C451.702 234.02 447.932 229.43 445.062 224.3C444.752 223.74 443.882 224.24 444.202 224.8H444.212Z" fill="#724B3B"/>
<path d="M409.987 181.22C397.497 180.72 384.927 185.82 376.327 194.88C372.127 199.3 369.058 204.62 365.358 209.44C363.508 211.84 361.478 214.14 359.108 216.03C356.618 218.02 353.747 219.46 350.697 220.36C343.497 222.49 335.787 221.85 328.417 221.19C327.778 221.13 327.778 222.13 328.417 222.19C334.977 222.77 341.677 223.3 348.187 222.01C351.367 221.38 354.477 220.27 357.247 218.56C359.747 217.02 361.927 215.03 363.867 212.83C367.897 208.27 370.917 202.94 374.747 198.22C378.717 193.33 383.698 189.37 389.358 186.61C395.748 183.48 402.887 181.94 410.007 182.22C410.647 182.25 410.647 181.25 410.007 181.22H409.987Z" fill="#724B3B"/>
<path d="M409.673 181.41C402.403 182.95 396.843 188.58 392.493 194.27C390.013 197.52 387.853 200.98 385.983 204.62C384.003 208.45 382.283 212.41 380.503 216.33C377.193 223.66 373.573 231.09 367.893 236.9C362.913 242 356.393 245.31 349.403 246.61C342.543 247.88 335.243 247.2 328.843 244.38C328.053 244.03 327.293 243.65 326.533 243.25C325.963 242.95 325.463 243.81 326.033 244.11C332.193 247.42 339.323 248.71 346.263 248.05C353.193 247.39 359.933 244.84 365.403 240.51C371.693 235.53 375.873 228.43 379.303 221.3C383.023 213.57 386.043 205.45 390.843 198.28C392.983 195.09 395.373 192.02 398.113 189.32C400.773 186.7 403.853 184.37 407.393 183.09C408.223 182.79 409.083 182.55 409.953 182.36C410.583 182.23 410.313 181.26 409.683 181.4L409.673 181.41Z" fill="#724B3B"/>
<path d="M409.549 181.46C402.319 185.51 398.469 193.42 395.719 200.88C392.499 209.63 390.329 218.7 387.469 227.56C385.909 232.39 384.049 237.15 381.439 241.51C379.189 245.25 376.359 248.58 373.319 251.69C367.379 257.77 360.599 263.08 355.359 269.83C352.869 273.04 350.719 276.61 349.459 280.49C348.289 284.08 347.939 288.61 350.129 291.9C350.649 292.68 351.299 293.33 352.049 293.89C352.569 294.28 353.059 293.41 352.549 293.03C349.269 290.57 349.139 285.9 349.999 282.25C350.929 278.32 353.029 274.65 355.399 271.42C360.299 264.73 366.869 259.49 372.739 253.69C375.689 250.78 378.499 247.7 380.849 244.28C383.609 240.26 385.639 235.78 387.289 231.2C388.939 226.62 390.259 221.76 391.639 217.01C392.849 212.81 394.139 208.63 395.529 204.48C398.029 197.02 401.209 188.8 407.689 183.88C408.449 183.3 409.239 182.79 410.069 182.32C410.629 182.01 410.129 181.14 409.569 181.46H409.549Z" fill="#724B3B"/>
<path d="M406.438 203.36C408.768 209.26 411.138 216.23 408.608 222.46C406.638 227.31 402.058 230.3 397.808 232.98C393.298 235.83 388.798 238.66 385.778 243.19C384.138 245.64 382.948 248.41 382.288 251.29C381.968 252.69 381.758 254.11 381.688 255.54C381.648 256.26 381.628 257 381.678 257.72C381.708 258.23 381.878 258.7 382.408 258.86C382.888 259 383.348 258.77 383.598 258.36C383.948 257.78 384.228 257.17 384.618 256.61C385.448 255.39 386.458 254.3 387.548 253.31C389.688 251.37 392.198 249.78 394.868 248.68C401.058 246.12 407.868 245.79 414.228 243.82C419.718 242.12 424.978 239.11 427.648 233.82C430.238 228.7 430.288 222.57 428.788 217.13C427.028 210.76 423.388 205.14 419.778 199.68C416.808 195.2 412.598 191.23 410.958 185.99C410.538 184.66 410.328 183.29 410.318 181.89C410.318 181.25 409.318 181.25 409.318 181.89C409.358 187.43 412.658 191.84 415.898 196.04C417.648 198.32 419.258 200.67 420.818 203.09C422.578 205.82 424.258 208.62 425.638 211.56C428.158 216.94 429.568 223.01 428.308 228.92C427.718 231.65 426.568 234.27 424.748 236.4C422.868 238.61 420.408 240.23 417.778 241.42C411.968 244.06 405.508 244.56 399.388 246.15C393.778 247.61 388.318 250.34 384.618 254.93C384.238 255.4 383.868 255.9 383.538 256.41C383.368 256.67 383.208 256.93 383.068 257.2C382.988 257.35 382.918 257.54 382.818 257.68C382.658 257.9 382.768 257.95 382.688 257.71C382.598 257.44 382.668 257.01 382.668 256.72C382.668 256.32 382.678 255.93 382.698 255.53C382.738 254.78 382.808 254.04 382.928 253.3C383.368 250.46 384.308 247.71 385.718 245.21C387.098 242.77 388.908 240.62 391.058 238.83C393.048 237.17 395.248 235.79 397.428 234.41C401.488 231.85 405.828 229.22 408.418 225.04C411.738 219.68 410.868 213.2 409.018 207.49C408.538 206 407.988 204.54 407.418 203.09C407.188 202.5 406.218 202.76 406.458 203.36H406.438Z" fill="#724B3B"/>
<path d="M410.118 182.2C418.988 179.1 428.828 181.51 437.468 184.25C442.168 185.74 446.798 187.44 451.578 188.66C455.248 189.6 459.048 190.31 462.838 189.68C466.218 189.12 469.358 187.24 470.498 183.85C471.838 179.87 470.048 175.47 467.818 172.18C463.418 165.69 456.128 161.31 448.328 160.48C440.428 159.64 432.218 163.1 426.508 168.47C425.808 169.13 425.138 169.83 424.508 170.57C424.088 171.06 424.798 171.77 425.218 171.28C430.178 165.49 437.858 161.53 445.538 161.37C453.138 161.2 460.658 164.98 465.498 170.76C468.018 173.77 470.258 177.74 469.908 181.79C469.588 185.51 466.688 187.85 463.218 188.59C459.748 189.33 455.918 188.71 452.408 187.84C447.848 186.71 443.418 185.13 438.958 183.68C430.688 181 421.648 178.58 412.928 180.38C411.878 180.6 410.858 180.88 409.848 181.23C409.248 181.44 409.508 182.41 410.118 182.19V182.2Z" fill="#724B3B"/>
<path d="M410.237 182.15C414.417 180.09 419.377 180.22 423.737 181.6C428.127 182.99 432.407 185.78 434.717 189.85C437.117 194.07 437.257 199.14 437.417 203.87C437.587 208.71 437.667 213.74 439.567 218.27C443.297 227.12 453.337 231.32 462.437 231.5C468.537 231.62 474.557 230.16 480.347 228.4C486.357 226.57 492.257 224.42 498.277 222.63C504.297 220.84 510.757 219.49 516.897 221.15C518.997 221.72 521.457 223.43 522.147 225.57C522.837 227.71 522.347 229.6 520.687 231C519.807 231.74 518.727 232.24 517.647 232.6C517.037 232.81 517.297 233.77 517.917 233.56C519.927 232.88 521.987 231.74 522.937 229.74C523.837 227.85 523.557 225.4 522.327 223.73C520.857 221.73 518.567 220.44 516.167 219.94C513.077 219.3 509.897 219.29 506.777 219.69C500.307 220.52 494.077 222.86 487.907 224.89C481.847 226.88 475.767 229 469.437 229.98C464.057 230.81 458.567 230.67 453.377 228.92C448.827 227.39 444.547 224.62 441.897 220.54C436.227 211.77 440.307 200.65 436.527 191.32C434.737 186.9 431.027 183.64 426.747 181.68C422.467 179.72 417.437 178.93 412.807 180.12C411.737 180.39 410.707 180.78 409.717 181.27C409.137 181.55 409.647 182.42 410.217 182.13L410.237 182.15Z" fill="#724B3B"/>
<path d="M488.119 338.85C480.969 343.41 478.109 341.47 474.749 343.3C474.259 343.57 474.039 344.11 473.789 344.61C473.529 345.1 473.849 345.78 474.279 346.14C474.629 346.45 475.009 346.47 475.479 346.49C478.599 346.64 480.759 346.44 482.639 347.1C482.989 347.22 483.179 347.62 483.069 347.97C482.009 351.4 479.569 354.28 477.139 357.29C476.639 357.9 476.129 358.56 476.009 359.34C475.889 360.12 476.329 361.04 477.109 361.16C477.709 361.25 478.269 360.86 478.739 360.48C479.849 359.57 481.129 358.64 482.109 357.59C483.099 356.3 484.099 355.02 485.089 353.73L482.139 357.57C482.139 357.57 482.119 357.59 482.109 357.59C481.149 358.83 480.189 360.07 479.239 361.31C478.829 361.84 478.409 362.39 478.239 363.05C478.069 363.7 478.219 364.48 478.779 364.87C479.569 365.41 480.639 364.91 481.419 364.36C483.509 362.9 485.479 361.14 486.979 359.08C487.709 358.04 488.449 357.01 489.229 356L487.009 359.04C487.009 359.04 486.989 359.06 486.979 359.08C485.859 360.68 484.799 362.32 483.799 364C483.389 364.69 483.049 365.68 483.669 366.17C484.159 366.56 484.879 366.29 485.429 365.99C487.769 364.7 489.909 362.84 491.499 360.68C491.939 360.06 492.399 359.45 492.879 358.86L491.869 360.17C491.749 360.34 491.619 360.51 491.499 360.68C490.509 362.07 489.609 363.52 488.829 365.04C488.439 365.79 488.199 366.93 488.969 367.29C489.499 367.54 490.099 367.16 490.549 366.79C493.489 364.36 495.889 361.27 497.499 357.81C498.979 354.63 499.369 350.92 501.159 347.9C501.299 347.67 501.429 347.44 501.569 347.19C496.719 345.44 492.249 342.83 488.439 339.27C488.309 339.15 488.209 339 488.139 338.85H488.119Z" fill="#F4A373"/>
<path d="M491.399 360.97C492.399 359.65 493.289 358.25 494.049 356.78C494.199 356.49 493.769 356.24 493.619 356.53C492.859 358 491.979 359.4 490.969 360.72C490.779 360.98 491.209 361.23 491.399 360.97Z" fill="#8E5C49"/>
<path d="M487.191 359.13C488.111 357.95 488.891 356.67 489.511 355.31C489.641 355.02 489.211 354.76 489.081 355.06C488.481 356.38 487.731 357.64 486.841 358.78C486.761 358.89 486.741 359.03 486.841 359.13C486.931 359.22 487.111 359.24 487.191 359.13Z" fill="#8E5C49"/>
<path d="M485.013 353.09C484.073 354.63 483.003 356.08 481.823 357.45C481.613 357.69 481.963 358.05 482.173 357.8C483.373 356.4 484.473 354.91 485.433 353.34C485.603 353.07 485.173 352.81 485.003 353.09H485.013Z" fill="#8E5C49"/>
<path d="M495.159 355.39C492.319 352.87 488.839 351.14 485.109 350.41C484.799 350.35 484.659 350.83 484.979 350.89C488.629 351.6 492.029 353.27 494.809 355.74C495.049 355.95 495.399 355.6 495.159 355.39Z" fill="#8E5C49"/>
<path d="M375.711 362.8C377.641 364.67 380.061 366.14 382.581 367.03C383.171 367.24 383.921 367.38 384.341 366.91C384.881 366.32 384.371 365.4 383.851 364.79C382.591 363.3 381.271 361.86 379.901 360.47C379.891 360.46 379.881 360.45 379.861 360.44L379.091 359.69C380.021 360.55 379.001 359.57 379.901 360.47C381.731 362.25 383.961 363.66 386.261 364.75C387.121 365.16 388.261 365.48 388.951 364.81C389.431 364.34 389.451 363.54 389.181 362.93C388.911 362.32 388.401 361.84 387.911 361.38C386.761 360.32 385.611 359.25 384.461 358.19C384.461 358.19 384.441 358.18 384.431 358.17L383.091 356.93C384.281 358.03 383.271 357.09 384.461 358.19C385.601 359.07 387.011 359.77 388.261 360.48C388.791 360.78 389.411 361.07 389.981 360.88C390.731 360.63 391.011 359.65 390.761 358.9C390.511 358.15 389.901 357.59 389.311 357.07C386.411 354.5 383.531 352.08 381.911 348.87C381.741 348.54 381.861 348.12 382.191 347.94C383.931 346.97 386.101 346.81 389.141 346.15C389.601 346.05 389.961 345.96 390.261 345.61C390.611 345.18 390.821 344.47 390.481 344.02C390.141 343.58 389.841 343.07 389.311 342.89C385.451 341.56 382.861 344.36 373.751 339.98C369.961 342.95 365.221 345.59 360.531 347.33C361.901 349.04 363.001 350.59 364.041 351.81C366.311 354.49 367.311 358.08 369.301 360.97C371.471 364.11 374.341 366.76 377.651 368.67C378.161 368.96 378.811 369.23 379.291 368.9C379.991 368.42 379.561 367.33 379.051 366.66C378.031 365.3 376.901 364.01 375.701 362.81C375.551 362.66 375.391 362.52 375.251 362.37" fill="#F4A373"/>
<path d="M375.52 362.29C374.29 361.18 373.16 359.97 372.14 358.66C372.06 358.55 371.87 358.57 371.79 358.66C371.68 358.76 371.71 358.91 371.79 359.01C372.81 360.31 373.94 361.53 375.17 362.64C375.41 362.85 375.76 362.5 375.52 362.29Z" fill="#8E5C49"/>
<path d="M379.259 359.65C378.169 358.69 377.189 357.61 376.359 356.42C376.179 356.16 375.739 356.41 375.929 356.67C376.789 357.89 377.789 359.01 378.909 360C379.149 360.21 379.509 359.86 379.259 359.65Z" fill="#8E5C49"/>
<path d="M379.601 354.04C380.831 355.39 382.161 356.64 383.591 357.78C383.841 357.98 384.201 357.63 383.941 357.43C382.511 356.29 381.181 355.04 379.951 353.69C379.731 353.45 379.381 353.81 379.601 354.04Z" fill="#8E5C49"/>
<path d="M370.722 358.46C373.022 355.55 376.082 353.29 379.552 351.97C379.852 351.86 379.722 351.37 379.422 351.49C375.872 352.85 372.732 355.13 370.372 358.11C370.172 358.36 370.522 358.72 370.722 358.46Z" fill="#8E5C49"/>
<path opacity="0.5" d="M236.74 428.95L246.69 426.1L236.74 423.26L239.93 417.52L234.19 420.71L231.34 410.76L228.5 420.71L222.76 417.52L225.95 423.26L216 426.1L225.95 428.95L222.76 434.69L228.5 431.5L231.34 441.45L234.19 431.5L239.93 434.69L236.74 428.95Z" fill="white"/>
<path opacity="0.5" d="M652.201 348.36L662.151 345.51L652.201 342.67L655.391 336.93L649.651 340.12L646.801 330.17L643.961 340.12L638.221 336.93L641.411 342.67L631.461 345.51L641.411 348.36L638.221 354.1L643.961 350.91L646.801 360.86L649.651 350.91L655.391 354.1L652.201 348.36Z" fill="white"/>
<path d="M338.115 167.56L339.715 170.79L341.095 173.57L344.185 174.02L347.775 174.54L345.175 177.05L342.935 179.22L343.455 182.28L344.075 185.83L340.865 184.16L338.095 182.71L335.325 184.16L332.115 185.83L332.735 182.28L333.255 179.22L331.015 177.05L328.415 174.54L332.005 174.02L335.095 173.57L336.475 170.79L338.075 167.56M338.075 154.22L331.135 168.17L315.625 170.41L326.855 181.27L324.205 196.61L338.075 189.37L351.945 196.61L349.295 181.27L360.525 170.41L345.015 168.17L338.075 154.22Z" fill="#FFEBEE"/>
<path d="M243.532 281.41L240.562 269.81L237.592 281.41L225.992 284.38L237.592 287.35L240.562 298.95L243.532 287.35L255.132 284.38L243.532 281.41Z" fill="#FEFEFE"/>
<path d="M314.02 514.08L311.69 504.97L309.36 514.08L300.25 516.41L309.36 518.75L311.69 527.86L314.02 518.75L323.13 516.41L314.02 514.08Z" fill="#FEFEFE"/>
<path d="M606.438 493.06L603.468 481.46L600.498 493.06L588.898 496.03L600.498 499L603.468 510.6L606.438 499L618.038 496.03L606.438 493.06Z" fill="#FEFEFE"/>
<path d="M586.392 201.63L583.422 190.03L580.452 201.63L568.852 204.6L580.452 207.57L583.422 219.17L586.392 207.57L597.992 204.6L586.392 201.63Z" fill="#F8BEBF"/>
<path d="M330.829 386.65L327.859 375.05L324.889 386.65L313.289 389.62L324.889 392.59L327.859 404.19L330.829 392.59L342.429 389.62L330.829 386.65Z" fill="#F8BEBF"/>
<path d="M531.302 426.1C529.322 433.17 523.912 438.7 516.992 440.72C523.912 442.74 529.322 448.27 531.302 455.34C533.282 448.27 538.692 442.74 545.612 440.72C538.692 438.7 533.282 433.17 531.302 426.1Z" fill="#F8BEBF"/>
<path d="M545.296 416.15C544.216 420.06 541.276 423.12 537.516 424.24C541.276 425.36 544.226 428.42 545.296 432.33C546.376 428.42 549.316 425.36 553.076 424.24C549.316 423.12 546.366 420.06 545.296 416.15Z" fill="#F8BEBF"/>
<path d="M545.296 449.12C544.216 452.88 541.276 455.82 537.516 456.9C541.276 457.98 544.226 460.92 545.296 464.68C546.376 460.92 549.316 457.98 553.076 456.9C549.316 455.82 546.366 452.88 545.296 449.12Z" fill="#F8BEBF"/>
</g>
<defs>
<filter id="filter0_f_191_285" x="0" y="0" width="878" height="710" filterUnits="userSpaceOnUse" color-interpolation-filters="sRGB">
<feFlood flood-opacity="0" result="BackgroundImageFix"/>
<feBlend mode="normal" in="SourceGraphic" in2="BackgroundImageFix" result="shape"/>
<feGaussianBlur stdDeviation="50" result="effect1_foregroundBlur_191_285"/>
</filter>
<linearGradient id="paint0_linear_191_285" x1="506.67" y1="139.01" x2="506.67" y2="534.61" gradientUnits="userSpaceOnUse">
<stop stop-color="white"/>
<stop offset="0.1" stop-color="#FEFDFD" stop-opacity="0.98"/>
<stop offset="0.22" stop-color="#FEF9F9" stop-opacity="0.91"/>
<stop offset="0.36" stop-color="#FEF3F3" stop-opacity="0.81"/>
<stop offset="0.51" stop-color="#FDEAEA" stop-opacity="0.66"/>
<stop offset="0.67" stop-color="#FCDFDF" stop-opacity="0.48"/>
<stop offset="0.84" stop-color="#FCD1D1" stop-opacity="0.25"/>
<stop offset="1" stop-color="#FBC2C2" stop-opacity="0"/>
</linearGradient>
<linearGradient id="paint1_linear_191_285" x1="311.686" y1="259.96" x2="311.686" y2="560.72" gradientUnits="userSpaceOnUse">
<stop stop-color="white"/>
<stop offset="0.1" stop-color="#FEFDFD" stop-opacity="0.98"/>
<stop offset="0.22" stop-color="#FEF9F9" stop-opacity="0.91"/>
<stop offset="0.36" stop-color="#FEF3F3" stop-opacity="0.81"/>
<stop offset="0.51" stop-color="#FDEAEA" stop-opacity="0.66"/>
<stop offset="0.67" stop-color="#FCDFDF" stop-opacity="0.48"/>
<stop offset="0.84" stop-color="#FCD1D1" stop-opacity="0.25"/>
<stop offset="1" stop-color="#FBC2C2" stop-opacity="0"/>
</linearGradient>
<linearGradient id="paint2_linear_191_285" x1="351.999" y1="398.03" x2="351.999" y2="496.03" gradientUnits="userSpaceOnUse">
<stop stop-color="white"/>
<stop offset="0.1" stop-color="#FEFDFD" stop-opacity="0.98"/>
<stop offset="0.22" stop-color="#FEF9F9" stop-opacity="0.91"/>
<stop offset="0.36" stop-color="#FEF3F3" stop-opacity="0.81"/>
<stop offset="0.51" stop-color="#FDEAEA" stop-opacity="0.66"/>
<stop offset="0.67" stop-color="#FCDFDF" stop-opacity="0.48"/>
<stop offset="0.84" stop-color="#FCD1D1" stop-opacity="0.25"/>
<stop offset="1" stop-color="#FBC2C2" stop-opacity="0"/>
</linearGradient>
<clipPath id="clip0_191_285">
<rect width="878" height="710" fill="white"/>
</clipPath>
</defs>
</svg>
