<?xml version="1.0" encoding="utf-8"?>
<!-- Generator: Adobe Illustrator 24.3.0, SVG Export Plug-In . SVG Version: 6.00 Build 0)  -->
<svg version="1.1" id="Layer_1" xmlns="http://www.w3.org/2000/svg" xmlns:xlink="http://www.w3.org/1999/xlink" x="0px" y="0px"
	 viewBox="0 0 1500 1500" style="enable-background:new 0 0 1500 1500;" xml:space="preserve">
<style type="text/css">
	.st0{fill:#CBDBE8;}
	.st1{fill:#DFEBF2;}
	.st2{fill:#C9D3DC;}
	.st3{fill:#BB3437;}
	.st4{fill:none;stroke:#000000;stroke-width:5;stroke-linejoin:round;stroke-miterlimit:10;}
	.st5{fill:none;stroke:#000000;stroke-width:5;stroke-miterlimit:10;}
	.st6{fill:#C5D1DA;}
	.st7{fill:#9B1C2E;}
	.st8{clip-path:url(#SVGID_2_);}
	.st9{opacity:0.7;}
	.st10{fill:#ABB8C1;}
	.st11{fill:none;stroke:#000000;stroke-width:5;stroke-linecap:round;stroke-linejoin:round;stroke-miterlimit:10;}
	.st12{fill:#FFFFFF;}
	.st13{fill:#BB3437;stroke:#000000;stroke-width:5;stroke-miterlimit:10;}
	.st14{fill:#DDEDF2;}
	.st15{fill:#C9D3DC;stroke:#000000;stroke-width:5;stroke-miterlimit:10;}
</style>
<g>
	<g>
		<g>
			<rect x="750" y="749.5" class="st6" width="600" height="600"/>
		</g>
	</g>
	<g>
		<g>
			<circle class="st1" cx="1050" cy="1049.5" r="300"/>
		</g>
	</g>
	<g>
		<g>
			<rect x="150" y="150.5" class="st1" width="600" height="600"/>
		</g>
	</g>
	<g>
		<g>
			<g>
				<path d="M450,670.7c-28.4,0-54.9-23.2-74.6-65.2c-19.5-41.4-30.2-96.5-30.2-155c0-58.5,10.7-113.5,30.2-155
					c19.8-42,46.3-65.2,74.6-65.2c28.4,0,54.9,23.2,74.6,65.2c19.5,41.4,30.2,96.5,30.2,155s-10.7,113.5-30.2,155
					C504.9,647.5,478.4,670.7,450,670.7z M450,235.3c-55,0-99.8,96.5-99.8,215.2c0,118.6,44.8,215.2,99.8,215.2
					s99.8-96.5,99.8-215.2C549.8,331.9,505,235.3,450,235.3z"/>
			</g>
		</g>
		<g>
			<g>
				<path d="M564.2,593.4c-5.5,0-11.3-0.2-17.2-0.8c-45.6-3.9-98.7-22.1-149.3-51.3s-93-66.1-119.1-103.7
					c-26.5-38.1-33.3-72.7-19.2-97.2c14.2-24.6,47.5-35.9,93.8-32c45.6,3.9,98.7,22.1,149.3,51.3c50.7,29.3,93,66.1,119.1,103.7
					c26.5,38.1,33.3,72.7,19.2,97.2C628.3,582,601.5,593.4,564.2,593.4z M335.9,312.5c-34.2,0-60.4,9.9-72.2,30.4
					c-27.5,47.7,33.7,134.7,136.4,194c102.8,59.3,208.7,68.8,236.3,21.1c13.2-22.8,6.4-55.4-18.9-91.9
					c-25.7-37-67.5-73.3-117.5-102.2l0,0C441.2,330.2,381.5,312.5,335.9,312.5z"/>
			</g>
		</g>
		<g>
			<g>
				<path d="M335.8,593.4c-37.3,0-64.2-11.4-76.5-32.8c-14.2-24.6-7.4-59.1,19.2-97.2c26.1-37.6,68.5-74.4,119.1-103.7l1.3,2.2
					l-1.3-2.2c50.7-29.3,103.7-47.5,149.3-51.3c46.3-3.9,79.6,7.5,93.8,32c14.2,24.6,7.4,59.1-19.2,97.2
					c-26.1,37.6-68.5,74.4-119.1,103.7c-50.7,29.3-103.7,47.5-149.3,51.3C347.1,593.1,341.4,593.4,335.8,593.4z M564.1,312.5
					c-45.6,0-105.3,17.6-164,51.5l0,0c-102.8,59.3-164,146.4-136.4,194c27.5,47.7,133.5,38.2,236.3-21.1
					c50-28.9,91.8-65.2,117.5-102.2c25.4-36.5,32.1-69.1,18.9-91.9C624.5,322.5,598.3,312.5,564.1,312.5z"/>
			</g>
		</g>
		<g>
			<g>
				<g>
					<rect x="400" y="400.5" class="st7" width="100" height="100"/>
				</g>
			</g>
			<g>
				<g>
					<path d="M500,503H400c-1.4,0-2.5-1.1-2.5-2.5v-100c0-1.4,1.1-2.5,2.5-2.5h100c1.4,0,2.5,1.1,2.5,2.5v100
						C502.5,501.9,501.4,503,500,503z M402.5,498h95v-95h-95V498z"/>
				</g>
			</g>
		</g>
	</g>
	<g>
		<g>
			<g>
				<g>
					<g>
						<path d="M1211.4,386H888.6c-1.4,0-2.5-1.1-2.5-2.5s1.1-2.5,2.5-2.5h322.7c1.4,0,2.5,1.1,2.5,2.5S1212.8,386,1211.4,386z"/>
					</g>
				</g>
				<g>
					<g>
						<path d="M1211.4,430.7H888.6c-1.4,0-2.5-1.1-2.5-2.5s1.1-2.5,2.5-2.5h322.7c1.4,0,2.5,1.1,2.5,2.5S1212.8,430.7,1211.4,430.7z
							"/>
					</g>
				</g>
				<g>
					<g>
						<path d="M1211.4,475.3H888.6c-1.4,0-2.5-1.1-2.5-2.5s1.1-2.5,2.5-2.5h322.7c1.4,0,2.5,1.1,2.5,2.5S1212.8,475.3,1211.4,475.3z
							"/>
					</g>
				</g>
				<g>
					<g>
						<path d="M1211.4,520H888.6c-1.4,0-2.5-1.1-2.5-2.5s1.1-2.5,2.5-2.5h322.7c1.4,0,2.5,1.1,2.5,2.5S1212.8,520,1211.4,520z"/>
					</g>
				</g>
			</g>
			<g>
				<g>
					<g>
						<path d="M1117,614.4c-1.4,0-2.5-1.1-2.5-2.5V289.1c0-1.4,1.1-2.5,2.5-2.5s2.5,1.1,2.5,2.5v322.7
							C1119.5,613.3,1118.4,614.4,1117,614.4z"/>
					</g>
				</g>
				<g>
					<g>
						<path d="M1072.3,614.4c-1.4,0-2.5-1.1-2.5-2.5V289.1c0-1.4,1.1-2.5,2.5-2.5s2.5,1.1,2.5,2.5v322.7
							C1074.8,613.3,1073.7,614.4,1072.3,614.4z"/>
					</g>
				</g>
				<g>
					<g>
						<path d="M1027.7,614.4c-1.4,0-2.5-1.1-2.5-2.5V289.1c0-1.4,1.1-2.5,2.5-2.5s2.5,1.1,2.5,2.5v322.7
							C1030.2,613.3,1029,614.4,1027.7,614.4z"/>
					</g>
				</g>
				<g>
					<g>
						<path d="M983,614.4c-1.4,0-2.5-1.1-2.5-2.5V289.1c0-1.4,1.1-2.5,2.5-2.5s2.5,1.1,2.5,2.5v322.7
							C985.5,613.3,984.4,614.4,983,614.4z"/>
					</g>
				</g>
			</g>
		</g>
		<g>
			<g>
				<rect x="941.2" y="341.7" class="st6" width="217.7" height="217.7"/>
			</g>
		</g>
		<g>
			<g>
				<g>
					<rect x="981.9" y="382.4" class="st6" width="136.1" height="136.1"/>
				</g>
			</g>
			<g>
				<g>
					<path d="M1118.1,521.1H981.9c-1.4,0-2.5-1.1-2.5-2.5V382.4c0-1.4,1.1-2.5,2.5-2.5h136.1c1.4,0,2.5,1.1,2.5,2.5v136.1
						C1120.6,520,1119.5,521.1,1118.1,521.1z M984.4,516.1h131.1V384.9H984.4V516.1z"/>
				</g>
			</g>
		</g>
	</g>
	<g>
		<g>
			<circle class="st10" cx="450" cy="1052.5" r="150"/>
		</g>
	</g>
	<g>
		<g>
			<g>
				<g>
					<path d="M417.8,1121.5c-0.6,0-1.3-0.2-1.8-0.7l-66.6-66.6c-0.7-0.7-0.9-1.6-0.6-2.5c0.1-0.4,0.3-0.7,0.6-1l66.6-66.6
						c1-1,2.6-1,3.5,0s1,2.6,0,3.5l-64.8,64.8l64.8,64.8c0.5,0.5,0.7,1.1,0.7,1.8s-0.2,1.3-0.7,1.8S418.4,1121.5,417.8,1121.5z"/>
				</g>
			</g>
		</g>
		<g>
			<g>
				<g>
					<path d="M482.2,1121.5c-0.6,0-1.3-0.2-1.8-0.7c-1-1-1-2.6,0-3.5l64.8-64.8l-64.8-64.8c-0.5-0.5-0.7-1.1-0.7-1.8
						s0.2-1.3,0.7-1.8c1-1,2.6-1,3.5,0l66.6,66.6c0,0,0,0,0,0l0,0c0,0,0,0,0,0c0,0,0,0,0,0s0,0,0,0c0.5,0.5,0.7,1.1,0.7,1.7
						c0,0,0,0,0,0s0,0,0,0c0,0,0,0,0,0c0,0,0,0,0,0.1s0,0,0,0.1c0,0,0,0,0,0c0,0,0,0,0,0c0,0.6-0.3,1.2-0.7,1.7c0,0,0,0,0,0
						l-66.6,66.6C483.5,1121.3,482.8,1121.5,482.2,1121.5z"/>
				</g>
			</g>
		</g>
	</g>
	<g>
		<g>
			<g>
				<g>
					<g>
						<g>
							<circle class="st2" cx="1136" cy="924.1" r="25"/>
						</g>
					</g>
					<g>
						<g>
							<path d="M1136,951.6c-15.2,0-27.5-12.3-27.5-27.5s12.3-27.5,27.5-27.5s27.5,12.3,27.5,27.5S1151.2,951.6,1136,951.6z
								 M1136,901.6c-12.4,0-22.5,10.1-22.5,22.5s10.1,22.5,22.5,22.5s22.5-10.1,22.5-22.5S1148.4,901.6,1136,901.6z"/>
						</g>
					</g>
				</g>
				<g>
					<g>
						<g>
							<circle class="st2" cx="964" cy="924.1" r="25"/>
						</g>
					</g>
					<g>
						<g>
							<path d="M964,951.6c-15.2,0-27.5-12.3-27.5-27.5s12.3-27.5,27.5-27.5s27.5,12.3,27.5,27.5S979.2,951.6,964,951.6z M964,901.6
								c-12.4,0-22.5,10.1-22.5,22.5s10.1,22.5,22.5,22.5s22.5-10.1,22.5-22.5S976.4,901.6,964,901.6z"/>
						</g>
					</g>
				</g>
				<g>
					<g>
						<rect x="989" y="921.5" width="122.7" height="5"/>
					</g>
				</g>
			</g>
			<g>
				<g>
					<g>
						<g>
							<circle class="st2" cx="1136" cy="1174.9" r="25"/>
						</g>
					</g>
					<g>
						<g>
							<path d="M1136,1202.4c-15.2,0-27.5-12.3-27.5-27.5s12.3-27.5,27.5-27.5s27.5,12.3,27.5,27.5S1151.2,1202.4,1136,1202.4z
								 M1136,1152.4c-12.4,0-22.5,10.1-22.5,22.5s10.1,22.5,22.5,22.5s22.5-10.1,22.5-22.5S1148.4,1152.4,1136,1152.4z"/>
						</g>
					</g>
				</g>
				<g>
					<g>
						<g>
							<circle class="st2" cx="964" cy="1174.9" r="25"/>
						</g>
					</g>
					<g>
						<g>
							<path d="M964,1202.4c-15.2,0-27.5-12.3-27.5-27.5s12.3-27.5,27.5-27.5s27.5,12.3,27.5,27.5S979.2,1202.4,964,1202.4z
								 M964,1152.4c-12.4,0-22.5,10.1-22.5,22.5s10.1,22.5,22.5,22.5s22.5-10.1,22.5-22.5S976.4,1152.4,964,1152.4z"/>
						</g>
					</g>
				</g>
				<g>
					<g>
						<rect x="989" y="1172.4" width="122.7" height="5"/>
					</g>
				</g>
			</g>
		</g>
		<g>
			<g>
				<g>
					<circle class="st2" cx="1050" cy="1049.5" r="25"/>
				</g>
			</g>
			<g>
				<g>
					<path d="M1050,1077c-15.2,0-27.5-12.3-27.5-27.5s12.3-27.5,27.5-27.5s27.5,12.3,27.5,27.5S1065.2,1077,1050,1077z M1050,1027
						c-12.4,0-22.5,10.1-22.5,22.5s10.1,22.5,22.5,22.5s22.5-10.1,22.5-22.5S1062.4,1027,1050,1027z"/>
				</g>
			</g>
		</g>
		<g>
			<g>
				<line class="st2" x1="977.5" y1="945.1" x2="1035.7" y2="1029"/>
			</g>
			<g>
				<rect x="1004.1" y="936" transform="matrix(0.8213 -0.5705 0.5705 0.8213 -383.2412 750.6514)" width="5" height="102.1"/>
			</g>
		</g>
		<g>
			<g>
				<line class="st2" x1="1035.7" y1="1069.9" x2="978.1" y2="1152.8"/>
			</g>
			<g>
				<rect x="956.5" y="1108.8" transform="matrix(0.5703 -0.8214 0.8214 0.5703 -480.2008 1304.6881)" width="100.9" height="5"/>
			</g>
		</g>
	</g>
</g>
</svg>
