<?xml version="1.0" encoding="utf-8"?>
<!-- Generator: Adobe Illustrator 24.1.0, SVG Export Plug-In . SVG Version: 6.00 Build 0)  -->
<svg version="1.1" id="Ebene_1" xmlns="http://www.w3.org/2000/svg" xmlns:xlink="http://www.w3.org/1999/xlink" x="0px" y="0px"
	 width="300px" height="100px" viewBox="0 0 300 100" style="enable-background:new 0 0 300 100;" xml:space="preserve">
<style type="text/css">
	.st0{fill:#3d3939;}
</style>
<g id="DgBjx6.tif">
	<g>
		<path class="st0" d="M38.5,23.6c0.1-0.1,0.2-0.2,0.2-0.3c0.4-1.6,1.4-2.6,3-3c0.6-0.1,1.2-0.2,1.9-0.3c10.2,0,20.4,0,30.6,0
			c1.5,0,3,0.4,4.5,0.7c2.6,0.6,4.8,2,6.8,3.8c1.5,1.4,2.6,2.9,3.4,4.8c1,2.2,1.5,4.4,1.4,6.8c-0.1,3.7-1.3,6.9-3.6,9.8
			c-1.8,2.1-4,3.6-6.6,4.6c-0.4,0.2-0.8,0.2-1.2,0.3c-0.3,0.1-0.8,0.2-0.8,0.7c0,0.5,0.4,0.6,0.7,0.7c0.8,0.3,1.6,0.6,2.3,0.9
			c2.6,1.1,4.6,2.9,6.2,5.1c0.9,1.3,1.6,2.7,2.1,4.2c0.3,1.1,0.5,2.2,0.6,3.3c0.1,1,0.1,2,0,3c-0.1,1.5-0.5,2.9-1,4.4
			c-0.8,2.2-2.1,4-3.8,5.6c-1.5,1.4-3.2,2.6-5.2,3.2c-1.4,0.4-2.7,0.7-4.1,1c-0.1,0-0.1,0.1-0.2,0.1c-11.3,0-22.6,0-33.8,0
			c-0.1-0.1-0.2-0.2-0.3-0.2c-1.6-0.4-2.6-1.4-3-3c0-0.1-0.2-0.2-0.2-0.3C38.5,60.9,38.5,42.2,38.5,23.6z M52.6,51.2
			c0,3.7,0,7.4,0,11.2c0,1.9,1.1,3,3,3c5.8-0.1,11.7,0,17.5,0c0.6,0,1.1-0.2,1.3-0.7c0.2-0.5,0.2-1.1-0.3-1.6c-0.7-0.6-1.3-1.3-2-2
			c-1.5-1.5-3-3-4.5-4.5c-1.2-1.1-2.3-2.3-3.5-3.4c-0.9-0.9-1-2.2-0.3-3c1.4-1.5,2.9-2.9,4.4-4.3c1.9-1.8,3.7-3.7,5.6-5.5
			c0.2-0.2,0.4-0.6,0.5-0.9c0.2-0.7-0.9-1.7-1.7-1.7c-6,0-12.1,0-18.1,0c-0.6,0-1.1,0.2-1.4,0.8c-0.2,0.4-0.4,1-0.4,1.5
			C52.6,43.7,52.6,47.5,52.6,51.2z"/>
		<path class="st0" d="M147,50.5c0.6,0.2,1.2,0.4,1.8,0.7c2.7,1,5.1,2.5,6.8,4.8c1.3,1.7,2,3.7,2.3,5.9c0.4,2.7,0.1,5.4-0.7,7.9
			c-0.7,2.2-2.1,3.9-3.9,5.3c-2.3,1.7-4.9,2.6-7.7,3.1c-4.4,0.8-8.8,0.5-13.3,0.5c-6.3,0-12.6,0-18.9,0c-1.9,0-2.9-1.3-2.7-2.8
			c0-0.5,0-1.1,0-1.6c0-1.5,1-2.5,2.5-2.5c3.3,0,6.6,0,10,0c3.8,0,7.5,0.1,11.3,0c1.6,0,3.3,0,4.9-0.2c2.6-0.4,4.8-1.4,5.9-4
			c0.8-1.8,0.8-3.7,0.5-5.7c-0.3-1.7-0.8-3.2-2.1-4.4c-1.2-1.1-2.6-1.8-4.2-2c-1.7-0.2-3.5-0.2-5.2-0.3c-3,0-5.9,0-8.9,0
			c-1.5,0-2.7,1.1-2.7,2.6c0,2.9,0,5.7,0,8.6c0,1-0.4,1.8-1.3,2.3c-0.2,0.1-0.5,0.2-0.8,0.2c-2.5,0-5,0-7.5,0c-1.4,0-2.3-1-2.3-2.4
			c0-3.4,0-6.8,0-10.2c0-6.4,0-12.9,0-19.3c0-1.7,0.9-2.6,2.6-2.6c2.2,0,4.4,0,6.7,0c1.8,0,2.6,0.8,2.6,2.7c0,2.1,0.1,4.1,0,6.2
			c-0.1,2.1,1.1,3.2,3.1,3.2c3.1,0,6.1,0,9.2,0c1.6,0,3.2-0.1,4.7-0.7c2-0.8,3.2-2.2,3.7-4.2c0.4-1.5,0.4-3.1,0-4.6
			c-0.5-2.1-1.8-3.6-3.8-4.4c-2.3-0.9-4.7-0.8-7.2-0.8c-6.4,0-12.7,0-19.1,0c-0.7,0-1.3,0-1.9-0.6c-0.5-0.5-0.8-1-0.8-1.7
			c0-0.8,0-1.6,0-2.4c0-1.7,0.9-2.6,2.6-2.6c3.4,0,6.9,0,10.3,0c5.5,0,10.9-0.1,16.4,0.1c3.6,0.1,7.1,0.8,10.3,2.7
			c2.6,1.6,4.3,3.9,4.9,6.9c0.3,1.4,0.5,2.8,0.5,4.3c-0.1,5.3-2.5,9.1-7.4,11.2c-0.5,0.2-0.9,0.4-1.3,0.6
			C147,50.4,147,50.4,147,50.5z"/>
		<path class="st0" d="M189,51.5c0-8.1,0-16.2,0-24.3c0-0.5,0-1,0.2-1.4c0.4-0.9,1.1-1.3,2.1-1.3c2.4,0,4.9,0,7.3,0
			c1.3,0,2.2,0.9,2.3,2.2c0,0.2,0,0.5,0,0.7c0,6.6,0,13.2,0,19.8c0,0.4,0,0.8,0,1.2c0.1,0.7,0.6,1,1.2,0.6c0.2-0.1,0.4-0.3,0.5-0.4
			c3.8-4.3,7.7-8.7,11.5-13c2.7-3.1,5.4-6.2,8.2-9.2c1.1-1.2,2.5-1.8,4.1-1.8c3.5,0,7.1,0,10.6,0c0.1,0,0.2,0,0.3,0
			c0.3,0.1,0.8,0.2,0.9,0.4c0.1,0.2-0.1,0.7-0.3,0.9c-2,2.1-4,4.3-6.1,6.4c-4.2,4.3-8.3,8.7-12.5,13c-1.4,1.5-1.5,2.9-0.2,4.6
			c5.1,6.8,10.2,13.6,15.3,20.4c1.6,2.1,3.2,4.3,4.8,6.4c0.4,0.5,0.9,1,0.6,1.7c-0.3,0.7-1.1,0.5-1.6,0.5c-2.9,0-5.7,0-8.6,0
			c-1.7,0-3.2-0.7-4.2-2.1c-4.2-5.6-8.4-11.2-12.6-16.8c-0.6-0.7-1.1-1.5-1.7-2.2c-0.9-1.1-2.2-1.2-3.2-0.2
			c-1.9,1.9-3.7,3.8-5.5,5.8c-1.1,1.2-1.6,2.8-1.6,4.5c0,2.8,0,5.5,0,8.3c0,1.6-0.9,2.8-2.8,2.8c-2.2-0.1-4.3,0-6.5,0
			c-1.9,0-2.7-0.8-2.7-2.7C189,67.8,189,59.6,189,51.5z"/>
		<path class="st0" d="M246.3,59.4c0-5.6,0-11.3,0-16.9c0-1.5,1.1-2.5,2.5-2.5c2.3,0,4.6,0.1,6.9,0c1.5,0,2.7,1.2,2.7,2.7
			c0,11.1,0,22.2,0,33.4c0,1.5-1.1,2.6-2.6,2.6c-2.4,0-4.8,0-7.1,0c-1.3,0-2.4-1.1-2.4-2.3C246.3,70.7,246.3,65.1,246.3,59.4z"/>
		<path class="st0" d="M177.1,59.4c0,5.3,0,10.6,0,15.9c0,0.2,0,0.4,0,0.7c0.1,1.8-1,2.7-2.7,2.6c-2.3-0.1-4.5-0.1-6.8,0
			c-1.4,0-2.5-1.1-2.5-2.5c0-4.7,0-9.4,0-14c0-6.4,0-12.8,0-19.3c0-1.8,1-2.8,2.8-2.8c2.1,0,4.3,0,6.4,0c1.4,0,2.8,0.7,2.7,2.7
			c0,1.7,0,3.5,0,5.2C177.1,51.8,177.1,55.6,177.1,59.4z"/>
		<path class="st0" d="M252.3,25c1.2,0,2.4,0.1,3.5,0c1.2-0.1,2.6,1.3,2.5,2.5c-0.1,1.5-0.1,2.9,0,4.4c0.1,1.5-1.3,2.8-2.8,2.8
			c-2.3-0.1-4.6,0-6.9,0c-1.5,0-2.4-0.9-2.4-2.4c0-1.6,0-3.3,0-4.9c0-1.4,0.9-2.3,2.3-2.3C249.8,25,251,25,252.3,25z"/>
		<path class="st0" d="M171.2,34.5c-1.2,0-2.4,0-3.7,0c-1.4,0-2.4-1-2.4-2.4c0-1.6,0-3.2,0-4.8c0-1.5,1-2.4,2.5-2.4
			c2.4,0,4.7,0,7.1,0c1.3,0,2.3,0.8,2.3,2.1c0.1,1.8,0.1,3.7,0,5.5c0,1.1-0.9,1.9-2,1.9c-0.6,0-1.3,0-1.9,0
			C172.4,34.5,171.8,34.5,171.2,34.5C171.2,34.5,171.2,34.5,171.2,34.5z"/>
	</g>
</g>
</svg>
