<?xml version="1.0" encoding="utf-8"?>
<!-- Generator: Adobe Illustrator 24.1.0, SVG Export Plug-In . SVG Version: 6.00 Build 0)  -->
<svg version="1.1" id="Ebene_1" xmlns="http://www.w3.org/2000/svg" xmlns:xlink="http://www.w3.org/1999/xlink" x="0px" y="0px"
	 width="300px" height="100px" viewBox="0 0 300 100" style="enable-background:new 0 0 300 100;" xml:space="preserve">
<style type="text/css">
	.st0{fill:#3d3939;}
</style>
<g id="CAzoQY.tif">
	<g>
		<path class="st0" d="M147.8,39.7c-0.3-0.1-0.5-0.1-0.6-0.1c-2.4,0-4.9,0-7.3,0c-0.6,0-0.7,0.3-0.8,0.8c-0.8,3.4-1.6,6.8-2.4,10.1
			c-0.4,1.8-0.8,3.6-1.3,5.5c-0.6-1.6-1-3.2-1.4-4.7c-1-3.7-1.9-7.3-2.9-11c-0.1-0.3-0.5-0.6-0.8-0.6c-1.9-0.1-3.8,0-5.6,0
			c-0.5,0-0.8,0.2-0.9,0.7c-0.8,3.2-1.7,6.5-2.5,9.7c-0.5,2-1,4-1.6,6c-0.4-0.9-0.6-1.8-0.8-2.7c-1-4.3-2-8.6-3-12.9
			c-0.1-0.6-0.4-0.8-1-0.8c-2.3,0-4.6,0-6.9,0c-0.2,0-0.5,0-0.8,0.1c0.1,0.4,0.1,0.7,0.2,1c0.6,2.1,1.2,4.2,1.9,6.4
			c1.9,6.5,3.9,13,5.8,19.4c0.2,0.6,0.4,0.8,1,0.8c2.1,0,4.2,0,6.2,0c0.6,0,0.8-0.3,1-0.8c1.3-5.2,2.5-10.4,3.8-15.5
			c0.1-0.3,0.2-0.7,0.3-1c0.5,1,0.7,2,1,3c1.2,4.5,2.4,9.1,3.5,13.6c0.1,0.6,0.4,0.7,0.9,0.7c2.1,0,4.1,0,6.2,0
			c0.5,0,0.8-0.2,0.9-0.7c0.8-2.7,1.6-5.4,2.4-8c1.5-5,3-9.9,4.5-14.9C147,42.4,147.4,41.1,147.8,39.7z M38.2,65.5
			c0.3,0.1,0.3,0.1,0.4,0.1c2.5,0,5,0,7.6,0c0.3,0,0.6-0.2,0.9-0.3c3.6-2.8,7.2-5.6,10.8-8.4c5.9-4.6,11.8-9.2,17.7-13.8
			c1-0.7,1-0.7,0.3-1.7c-4.1-6.2-8.2-12.5-12.4-18.7c-0.4-0.5-0.5-0.5-0.8,0.1c-2.3,4-4.6,8-6.8,11.9c-5.1,8.9-10.2,17.8-15.2,26.7
			C39.8,62.6,39.1,64,38.2,65.5z M93.6,33.9c-0.1-0.1-0.2-0.1-0.3-0.2C79.9,44.2,66.5,54.8,53,65.3c0,0.1,0.1,0.2,0.1,0.2
			c0.2,0,0.5,0.1,0.7,0.1c12.1,0,24.2,0,36.3,0c0.7,0,0.8-0.2,0.9-0.9c0.1-1.7,0.3-3.5,0.5-5.2c0.4-5.4,0.9-10.8,1.3-16.1
			c0.1-1.6,0.3-3.1,0.4-4.7C93.4,37.1,93.5,35.5,93.6,33.9z M192.9,46c-0.2,0.4-0.3,0.6-0.5,0.8c-3.4,4.7-6.9,9.4-10.3,14.1
			c-0.3,0.4-0.5,0.8-0.5,1.3c-0.1,1.5,0,2.9,0,4.4c0,0.6,0.2,0.9,0.9,0.9c6.2,0,12.4,0,18.6,0c0.7,0,0.9-0.3,0.9-0.9
			c0-1.5,0-3.1,0-4.6c0-0.7-0.2-0.9-0.9-0.9c-2.9,0-5.7,0-8.6,0c-0.2,0-0.5,0-0.8-0.1c0.2-0.3,0.3-0.5,0.4-0.7
			c3.2-4.5,6.4-9.1,9.6-13.6c0.2-0.3,0.3-0.6,0.3-1c0-1.8,0-3.5,0-5.3c0-0.6-0.2-0.8-0.8-0.8c-6.2,0-12.4,0-18.6,0
			c-0.6,0-0.8,0.2-0.8,0.8c0,1.5,0.1,3.1,0,4.6c0,0.8,0.3,0.9,1,0.9c3,0,6.1,0,9.1,0C192,45.9,192.3,45.9,192.9,46z M227.2,41.9
			c-0.1,0-0.2-0.1-0.3-0.1c0-0.4,0-0.9,0-1.3c0.1-0.7-0.2-1-0.9-1c-2,0-3.9,0-5.9,0c-0.6,0-0.9,0.2-0.9,0.9c0,8.7,0,17.3,0,26
			c0,0.7,0.2,0.9,0.9,0.9c2.1,0,4.1,0,6.2,0c1.1,0,1.1,0,1.1-1.1c0-4.7,0-9.5,0-14.2c0-0.9,0.2-1.9,0.7-2.7c1-1.7,2.7-2.1,4.5-2.2
			c0.8,0,1.1-0.2,1.1-1.1c-0.1-1.9,0-3.8,0-5.7c0-1.7-0.4-2-2.1-1.5c-0.1,0-0.1,0-0.2,0.1C229.7,39.4,228.2,40.4,227.2,41.9z
			 M213.5,53.5c0-4.3,0-8.7,0-13c0-0.7-0.2-1-0.9-1c-2.1,0-4.2,0-6.3,0c-0.7,0-0.9,0.2-0.9,0.9c0,8.6,0,17.2,0,25.9c0,0.7,0.2,1,1,1
			c2.1,0,4.2,0,6.2,0c0.8,0,1-0.2,1-1C213.5,62,213.5,57.8,213.5,53.5z M35.7,62.1c0.1,0,0.2,0,0.3,0c0.1-0.2,0.3-0.4,0.4-0.6
			c3.4-5.9,6.7-11.8,10.1-17.6c0.5-0.8,0.3-1.1-0.4-1.6c-3-2.1-5.9-4.2-8.8-6.3c-1.3-0.9-2.6-1.9-3.9-2.8c-0.1,0-0.1,0.1-0.2,0.1
			C34,42.8,34.9,52.4,35.7,62.1z M213,33.5c0-2.1-1.5-3.6-3.6-3.6c-2,0-3.6,1.7-3.6,3.7c0,2,1.6,3.6,3.6,3.6
			C211.3,37.2,213.2,35.5,213,33.5z"/>
		<path class="st0" d="M264.1,67.1c-0.3,0.1-0.7,0.2-1,0.2c-2.7,0-5.5,0-8.2,0c-0.6,0-0.9-0.2-1.3-0.7c-1.4-2.3-2.9-4.6-4.4-6.9
			c-0.1-0.2-0.3-0.4-0.5-0.8c-0.9,1.3-1.6,2.6-2.4,3.8c-0.8,1.3-1.6,2.6-2.5,3.9c-0.2,0.3-0.7,0.6-1,0.6c-2.8,0-5.5,0-8.3,0
			c-0.3,0-0.7-0.1-0.7-0.2c-0.1-0.3,0-0.6,0.2-0.9c2-2.9,4.1-5.8,6.2-8.6c1.1-1.5,2.2-3.1,3.3-4.6c0.3-0.4,0.2-0.7,0-1
			c-2.7-3.8-5.5-7.7-8.2-11.5c-0.2-0.2-0.3-0.5-0.6-0.9c0.5,0,0.7-0.1,1-0.1c2.7,0,5.3,0,8,0c0.6,0,1,0.2,1.3,0.8
			c1.1,1.9,2.3,3.9,3.4,5.8c0.1,0.1,0.2,0.3,0.4,0.5c0.2-0.3,0.4-0.5,0.5-0.8c1.1-1.9,2.3-3.8,3.4-5.7c0.2-0.3,0.6-0.6,0.9-0.6
			c3,0,5.9,0,8.9,0c0.1,0,0.2,0.1,0.4,0.2c-0.2,0.3-0.3,0.5-0.5,0.8c-2.8,3.8-5.6,7.7-8.3,11.5c-0.2,0.2-0.2,0.8-0.1,1
			c3.2,4.5,6.5,9.1,9.8,13.6c0.1,0.1,0.2,0.2,0.3,0.2C264.1,66.9,264.1,67,264.1,67.1z"/>
		<path class="st0" d="M35.8,75c0-1.9,0-3.7,0-5.7c18.4,0,36.7,0,55.1,0c0,1.9,0,3.8,0,5.7C72.5,75,54.1,75,35.8,75z"/>
		<path class="st0" d="M147.8,39.7c-0.4,1.4-0.8,2.7-1.2,4c-1.5,5-3,9.9-4.5,14.9c-0.8,2.7-1.6,5.3-2.4,8c-0.2,0.5-0.4,0.7-0.9,0.7
			c-2.1,0-4.1,0-6.2,0c-0.5,0-0.8-0.1-0.9-0.7c-1.2-4.6-2.4-9.1-3.5-13.6c-0.3-1-0.5-2-1-3c-0.1,0.3-0.2,0.7-0.3,1
			c-1.3,5.2-2.5,10.4-3.8,15.5c-0.1,0.5-0.4,0.8-1,0.8c-2.1,0-4.2,0-6.2,0c-0.6,0-0.8-0.2-1-0.8c-1.9-6.5-3.9-13-5.8-19.4
			c-0.6-2.1-1.3-4.2-1.9-6.4c-0.1-0.3-0.1-0.6-0.2-1c0.3,0,0.6-0.1,0.8-0.1c2.3,0,4.6,0,6.9,0c0.6,0,0.9,0.2,1,0.8
			c1,4.3,2,8.6,3,12.9c0.2,0.9,0.5,1.8,0.8,2.7c0.5-2,1-4,1.6-6c0.8-3.2,1.7-6.5,2.5-9.7c0.1-0.5,0.4-0.7,0.9-0.7c1.9,0,3.8,0,5.6,0
			c0.3,0,0.8,0.4,0.8,0.6c1,3.7,1.9,7.3,2.9,11c0.4,1.6,0.8,3.1,1.4,4.7c0.4-1.8,0.8-3.6,1.3-5.5c0.8-3.4,1.6-6.8,2.4-10.1
			c0.1-0.5,0.3-0.8,0.8-0.8c2.4,0,4.9,0,7.3,0C147.3,39.6,147.4,39.7,147.8,39.7z"/>
		<path class="st0" d="M38.2,65.5c0.8-1.5,1.6-2.8,2.4-4.2c5.1-8.9,10.2-17.8,15.2-26.7c2.3-4,4.6-7.9,6.8-11.9
			c0.3-0.5,0.5-0.6,0.8-0.1c4.1,6.3,8.2,12.5,12.4,18.7c0.7,1,0.6,1-0.3,1.7c-5.9,4.6-11.8,9.2-17.7,13.8c-3.6,2.8-7.2,5.6-10.8,8.4
			c-0.2,0.2-0.6,0.3-0.9,0.3c-2.5,0-5,0-7.6,0C38.6,65.6,38.5,65.5,38.2,65.5z"/>
		<path class="st0" d="M93.6,33.9c-0.1,1.6-0.2,3.2-0.4,4.8c-0.1,1.6-0.3,3.1-0.4,4.7c-0.4,5.4-0.9,10.8-1.3,16.1
			c-0.1,1.7-0.3,3.5-0.5,5.2c0,0.6-0.2,0.9-0.9,0.9c-12.1,0-24.2,0-36.3,0c-0.2,0-0.5,0-0.7-0.1c0-0.1-0.1-0.2-0.1-0.2
			c13.5-10.5,26.9-21.1,40.4-31.6C93.5,33.8,93.6,33.8,93.6,33.9z"/>
		<path class="st0" d="M192.9,46c-0.5,0-0.9-0.1-1.2-0.1c-3,0-6.1,0-9.1,0c-0.7,0-1-0.1-1-0.9c0.1-1.5,0-3.1,0-4.6
			c0-0.6,0.2-0.8,0.8-0.8c6.2,0,12.4,0,18.6,0c0.6,0,0.8,0.2,0.8,0.8c0,1.8,0,3.5,0,5.3c0,0.3-0.1,0.7-0.3,1
			c-3.2,4.5-6.4,9.1-9.6,13.6c-0.1,0.2-0.2,0.4-0.4,0.7c0.3,0,0.6,0.1,0.8,0.1c2.9,0,5.7,0,8.6,0c0.7,0,0.9,0.2,0.9,0.9
			c0,1.5,0,3.1,0,4.6c0,0.6-0.2,0.9-0.9,0.9c-6.2,0-12.4,0-18.6,0c-0.7,0-0.9-0.2-0.9-0.9c0-1.5,0-2.9,0-4.4c0-0.4,0.2-0.9,0.5-1.3
			c3.4-4.7,6.9-9.4,10.3-14.1C192.5,46.6,192.6,46.4,192.9,46z"/>
		<path class="st0" d="M227.2,41.9c1.1-1.5,2.5-2.5,4.3-3c0.1,0,0.1-0.1,0.2-0.1c1.7-0.5,2.1-0.2,2.1,1.5c0,1.9,0,3.8,0,5.7
			c0,0.8-0.3,1-1.1,1.1c-1.8,0.1-3.5,0.5-4.5,2.2c-0.4,0.8-0.7,1.8-0.7,2.7c-0.1,4.7,0,9.5,0,14.2c0,1.1,0,1.1-1.1,1.1
			c-2.1,0-4.1,0-6.2,0c-0.7,0-0.9-0.2-0.9-0.9c0-8.7,0-17.3,0-26c0-0.7,0.3-0.9,0.9-0.9c2,0,3.9,0,5.9,0c0.8,0,1,0.3,0.9,1
			c0,0.4,0,0.9,0,1.3C227,41.9,227.1,41.9,227.2,41.9z"/>
		<path class="st0" d="M213.5,53.5c0,4.3,0,8.5,0,12.8c0,0.8-0.2,1-1,1c-2.1,0-4.2,0-6.2,0c-0.8,0-1-0.3-1-1c0-8.6,0-17.2,0-25.9
			c0-0.7,0.2-0.9,0.9-0.9c2.1,0,4.2,0,6.3,0c0.7,0,0.9,0.3,0.9,1C213.5,44.9,213.5,49.2,213.5,53.5z"/>
		<path class="st0" d="M35.7,62.1c-0.8-9.6-1.7-19.2-2.5-28.9c0.1,0,0.1-0.1,0.2-0.1c1.3,0.9,2.6,1.9,3.9,2.8
			c2.9,2.1,5.9,4.3,8.8,6.3c0.7,0.5,0.8,0.8,0.4,1.6c-3.4,5.9-6.7,11.7-10.1,17.6c-0.1,0.2-0.3,0.4-0.4,0.6
			C35.9,62.1,35.8,62.1,35.7,62.1z"/>
		<path class="st0" d="M213,33.5c0.2,2-1.7,3.7-3.6,3.7c-2,0-3.6-1.6-3.6-3.6c0-2.1,1.6-3.7,3.6-3.7C211.5,29.9,213,31.4,213,33.5z"
			/>
	</g>
</g>
<path class="st0" d="M169.8,65c-0.3,0.2-0.4,0.3-0.4,0.4c-1.6,2.2-3.9,2.9-6.5,3c-4.2,0.2-7.8-1.2-10.7-4.3c-2.6-2.7-3.8-6-4-9.7
	c-0.2-3.8,0.7-7.2,3-10.2c3.2-4.2,7.6-5.9,12.8-5.5c2.5,0.2,4.5,1.2,6,3.3c0-0.6,0-1.2,0-1.8c0-0.5,0.2-0.7,0.7-0.7
	c2.2,0,4.4,0,6.6,0c0.6,0,0.8,0.2,0.8,0.8c0,8.7,0,17.3,0,26c0,0.7-0.2,0.9-0.9,0.9c-2.1,0-4.3,0-6.4,0c-0.7,0-0.9-0.3-0.9-0.9
	C169.8,65.9,169.8,65.5,169.8,65z M163,60.3c3.6,0.1,6.8-3.1,6.9-6.9c0-3.6-3-6.8-6.6-6.9c-3.6-0.1-6.8,2.9-6.9,6.5
	C156.2,57,159.1,60.2,163,60.3z"/>
</svg>
