<?xml version="1.0" encoding="utf-8"?>
<!-- Generator: Adobe Illustrator 24.1.0, SVG Export Plug-In . SVG Version: 6.00 Build 0)  -->
<svg version="1.1" id="Ebene_1" xmlns="http://www.w3.org/2000/svg" xmlns:xlink="http://www.w3.org/1999/xlink" x="0px" y="0px"
	 width="300px" height="100px" viewBox="0 0 300 100" style="enable-background:new 0 0 300 100;" xml:space="preserve">
<style type="text/css">
	.st0{fill:#3d3939;}
</style>
<g id="V122OK.tif">
	<g>
		<path class="st0" d="M30.5,33.4c0.7-0.4,1.5-0.8,2.2-1.2c11.7-6.7,23.4-13.5,35-20.2c0.6-0.4,1.1-0.4,1.7,0
			c12.1,7,24.2,14,36.4,20.9c0.6,0.4,0.9,0.7,0.8,1.5c0,10.2,0,20.4,0,30.6c0,0.8-0.3,1.2-0.9,1.5c-12,6.9-24,13.8-36,20.7
			c-0.3,0.2-0.6,0.4-0.9,0.6c-0.1,0-0.3,0-0.4,0c-0.3-0.2-0.5-0.4-0.8-0.6c-10.1-5.8-20.2-11.7-30.3-17.5c-2.2-1.3-4.5-2.5-6.7-3.8
			C30.5,55.2,30.5,44.3,30.5,33.4z M99.1,61c-8-4.6-15.8-9.1-23.7-13.6c-2.3,2.8-4.6,5.5-7,8.3c4.2,2.4,8.3,4.8,12.5,7.2
			c-2.5,1.6-4.9,3.2-7.3,4.7c-0.6,0.4-1.1,0.4-1.8,0C61,61.4,50,55.1,39.1,48.8c-0.3-0.2-0.6-0.3-1-0.5c0,4.1,0,8,0,11.9
			c0,0.7,0.3,1.1,0.9,1.5c9.6,5.5,19.2,11,28.8,16.6c0.6,0.3,1,0.4,1.6,0c9.6-5.6,19.2-11.1,28.8-16.6C98.5,61.5,98.7,61.3,99.1,61z
			 M67.9,43.1c-4.4-2.5-8.7-5-13.2-7.6c2.6-1.6,5-3,7.4-4.5c0.7-0.4,1.2-0.4,1.9,0c11.4,6.5,22.7,13,34.1,19.5
			c0.3,0.2,0.6,0.3,1,0.5c0-4.2,0-8.3,0-12.4c0-0.3-0.4-0.6-0.6-0.8C88.7,32.2,79,26.6,69.3,21c-0.5-0.3-0.9-0.3-1.4,0
			c-9.7,5.6-19.5,11.2-29.2,16.8c-0.2,0.1-0.4,0.3-0.6,0.5c7.7,4.4,15.2,8.8,22.9,13.1C63.3,48.6,65.5,45.9,67.9,43.1z"/>
		<path class="st0" d="M209.1,34.9c4.7,0,9.4-0.2,14,0.1c4.6,0.3,7.4,3.9,7,8.3c-0.2,2.2-1.3,3.8-3.9,5.5c0.3,0.1,0.5,0.3,0.7,0.4
			c2.9,1.2,4.5,3.3,4.7,6.4c0.1,3.4-1,6.3-4.2,7.8c-1.5,0.7-3.3,1.2-5,1.3c-4.4,0.2-8.9,0.1-13.4,0.1
			C209.1,54.8,209.1,44.8,209.1,34.9z M213,61.2c1.4,0,2.7,0,4,0c2.1,0,4.1,0,6.2-0.2c2-0.2,3.4-1.3,4-3.2c1-3.3-0.9-6.3-4.4-6.6
			c-3.2-0.2-6.5-0.1-9.7-0.2c0,0-0.1,0.1-0.2,0.1C213,54.4,213,57.7,213,61.2z M213,38.6c0,2.8,0,5.8,0,8.5c3.2,0,6.3,0.1,9.4,0
			c2.4-0.1,3.8-1.9,3.8-4.2c0-2.4-1.4-4.2-3.9-4.3C219.3,38.4,216.2,38.6,213,38.6z"/>
		<path class="st0" d="M149.8,48.2c0-2.3,0.7-5.9,3.2-8.9c3.7-4.5,8.6-5.8,14.2-4.8c5.6,1.1,9.1,4.7,10.6,10.2c1,3.7,0.9,7.4-0.3,11
			c-2.5,7.6-9.4,10-15.1,9.4C154.6,64.1,149.7,58.1,149.8,48.2z M153.7,49.8c0.2,1.4,0.3,2.6,0.5,3.8c0.9,4.4,4.5,7.6,8.9,7.9
			c4.6,0.4,8.6-2,10.2-6.2c1.4-3.8,1.4-7.8-0.1-11.6c-1.6-4-5.4-6.2-9.9-5.9c-4.3,0.3-7.8,3.1-8.9,7.2
			C154,46.6,153.9,48.2,153.7,49.8z"/>
		<path class="st0" d="M121.1,34.8c1.3,0,2.5,0,3.9,0c0,4.1,0,8.2,0,12.3c5.2,0,10.3,0,15.5,0c0-4.1,0-8.1,0-12.2c1.4,0,2.6,0,3.9,0
			c0,9.9,0,19.9,0,29.9c-1.3,0-2.5,0-3.9,0c0-4.6,0-9.3,0-13.9c-5.2,0-10.3,0-15.5,0c0,4.6,0,9.2,0,13.9c-1.3,0-2.6,0-3.9,0
			C121.1,54.8,121.1,44.8,121.1,34.8z"/>
		<path class="st0" d="M195.3,64.7c-1.4,0-2.6,0-4,0c0-8.8,0-17.5,0-26.3c-3.3,0-6.5,0-9.8,0c0-1.2,0-2.4,0-3.6c7.8,0,15.7,0,23.6,0
			c0,1.1,0,2.3,0,3.5c-3.2,0-6.5,0-9.8,0C195.3,47.2,195.3,55.9,195.3,64.7z"/>
		<path class="st0" d="M260.3,38.3c0,8.9,0,17.6,0,26.4c-1.3,0-2.6,0-3.9,0c0-8.7,0-17.5,0-26.3c-3.3,0-6.5,0-9.8,0
			c0-1.2,0-2.4,0-3.6c7.8,0,15.7,0,23.6,0c0,1.1,0,2.3,0,3.5C267,38.3,263.7,38.3,260.3,38.3z"/>
		<path class="st0" d="M237.9,34.8c1.3,0,2.5,0,3.8,0c0,10,0,19.9,0,29.9c-1.2,0-2.5,0-3.8,0C237.9,54.8,237.9,44.8,237.9,34.8z"/>
	</g>
</g>
</svg>
