<?xml version="1.0" encoding="utf-8"?>
<!-- Generator: Adobe Illustrator 24.1.0, SVG Export Plug-In . SVG Version: 6.00 Build 0)  -->
<svg version="1.1" id="Ebene_1" xmlns="http://www.w3.org/2000/svg" xmlns:xlink="http://www.w3.org/1999/xlink" x="0px" y="0px"
	 width="300px" height="100px" viewBox="0 0 300 100" style="enable-background:new 0 0 300 100;" xml:space="preserve">
<style type="text/css">
	.st0{fill:#3d3939;}
</style>
<path class="st0" d="M139.4,71.9h-4.3c-2.6,0-4.7-2.1-4.7-4.7V49.9h4c3.4,0,6.1-2.7,6.1-6.1l0,0h-10.2V24.9c0-3.4-2.7-6.1-6.1-6.1
	l0,0v48.4c0,6,4.8,10.8,10.8,10.8h10.4C145.5,74.6,142.7,71.9,139.4,71.9z"/>
<path class="st0" d="M178.7,43.8l-12.4,12.4l-8.6-12.4c-2.2,0-3.9,1.8-3.9,3.9c0,0.8,0.2,1.6,0.7,2.2l7.4,10.6l-11.3,11.3
	c-1.4,1.4-1.4,3.7,0,5.1c0.7,0.7,1.6,1.1,2.5,1.1l12.3-12.3l8.6,12.4c2.1,0,3.9-1.7,3.9-3.9c0-0.8-0.2-1.6-0.7-2.2l-7.4-10.6
	l11.3-11.3c1.4-1.4,1.4-3.7,0-5.1C180.6,44.2,179.6,43.8,178.7,43.8z"/>
<path class="st0" d="M257.6,71.9h-4.3c-2.6,0-4.7-2.1-4.7-4.7V49.9h4c3.4,0,6.1-2.7,6.1-6.1l0,0h-10.2V24.9c0-3.4-2.7-6.1-6.1-6.1
	c0,0,0,0,0,0v48.4c0,6,4.8,10.8,10.8,10.8c0,0,0,0,0,0h10.4C263.7,74.6,261,71.9,257.6,71.9z"/>
<path class="st0" d="M229.5,43.8v28.1c0,3.4,2.7,6.1,6.1,6.1c0,0,0,0,0,0V49.9C235.6,46.5,232.9,43.8,229.5,43.8
	C229.5,43.8,229.5,43.8,229.5,43.8z"/>
<path class="st0" d="M232.6,32.5c-1.7,0-3.1,1.4-3.1,3.1c0,1.7,1.4,3.1,3.1,3.1c1.7,0,3.1-1.4,3.1-3.1c0,0,0,0,0,0
	C235.6,33.9,234.2,32.5,232.6,32.5z"/>
<path class="st0" d="M205.9,43.8h-8.4v6.1h8.3c6.1-0.3,11.2,4.4,11.5,10.4c0.3,6.1-4.4,11.2-10.4,11.5c-0.3,0-0.6,0-0.9,0l0,0
	c-6.4,0-11.5-5.2-11.5-11.5V24.9c0-3.4-2.7-6.1-6.1-6.1l0,0v41.8c0,9.6,7.8,17.4,17.4,17.4l0,0l0,0c9.4,0,17.3-7.6,17.3-17
	C223,51.5,215.3,43.8,205.9,43.8C205.9,43.8,205.9,43.8,205.9,43.8z"/>
<path class="st0" d="M67.8,47.6L65.3,49l3.7,6.3c-3.5,2-7.9,0.8-9.9-2.6c0,0,0,0,0,0l-1.9-3.3l-5-8.6l-7.6,4.4
	c-2-3.5-0.8-7.9,2.6-9.9c0,0,0,0,0,0l1.4-0.8l-4.8-8.3c-0.6-0.2-1.2-0.4-1.8-0.5c-6,6.4-9.6,15-9.6,24.4C32.5,64,40.3,76,51.7,82
	c1.1,0.1,2.2,0,3.1-0.3l8.8-5.1l15.8-9.1c5.5-3.2,7.4-10.2,4.2-15.7C80.4,46.3,73.3,44.4,67.8,47.6z"/>
<path class="st0" d="M104.2,50.2c0-19.8-16.1-35.9-35.9-35.9c-7.2,0-13.8,2.1-19.4,5.7c0.1,0.5,0.4,1.1,0.6,1.5l5.4,9.3l15.6-9
	c2,3.5,0.8,7.9-2.6,9.9l-9.4,5.4l3.2,5.5v0l2.5-1.5c8.9-5.3,20.4-2.3,25.7,6.6c5.3,8.9,2.3,20.4-6.6,25.7c-0.1,0.1-0.2,0.1-0.3,0.2
	L64.7,84.3c0.4,0.7,1,1.3,1.9,1.8c0.6,0,1.2,0,1.7,0C88.1,86.1,104.2,70,104.2,50.2z"/>
</svg>
