<?xml version="1.0" encoding="utf-8"?>
<!-- Generator: Adobe Illustrator 21.1.0, SVG Export Plug-In . SVG Version: 6.00 Build 0)  -->
<svg version="1.1" id="Ebene_1" xmlns="http://www.w3.org/2000/svg" xmlns:xlink="http://www.w3.org/1999/xlink" x="0px" y="0px"
	 width="300px" height="100px" viewBox="0 0 300 100" style="enable-background:new 0 0 300 100;" xml:space="preserve">
<style type="text/css">
	.st0{fill:#3d3939;}
</style>
<g id="DohgXr.tif_1_">
	<g>
		<path class="st0" d="M242.8,30.1c0.6,0.6,1.2,1.3,1.9,1.9c1.6,1.6,3.2,3.2,4.8,4.8c0.2,0.2,0.5,0.3,0.7,0.3
			c0.9,0.1,1.5,0.6,1.5,1.5c0,0.9-0.6,1.5-1.5,1.5c-0.9,0-1.5-0.6-1.6-1.5c0-0.3-0.1-0.6-0.3-0.8c-1.8-1.9-3.7-3.7-5.5-5.5
			c-1,1-2.1,2-3.1,3.1c3,3,6.1,6.1,9.2,9.2c-3.1,3.1-6.2,6.2-9.2,9.2c1.1,1.1,2.1,2.1,3.2,3.2c0.1-0.1,0.2-0.2,0.4-0.4
			c3.1-3.1,6.3-6.3,9.4-9.4c0.3-0.3,0.5-0.4,1-0.4c1.4,0,2.7,0,4.1,0c0.4,0,0.7,0.1,1,0.4c3.2,3.2,6.4,6.3,9.5,9.5
			c0.1,0.1,0.2,0.2,0.3,0.3c1-1,2.1-2.1,3.1-3.1c-0.7-0.7-1.5-1.5-2.3-2.3c-1-1-2-2-3-2.9c-0.2-0.2-0.5-0.3-0.7-0.3
			c-0.9-0.1-1.6-0.6-1.6-1.5c0-0.9,0.6-1.5,1.4-1.5c0.9,0,1.6,0.6,1.7,1.5c0,0.2,0.1,0.5,0.2,0.6c2.1,2.1,4.1,4.1,6.2,6.2
			c0,0,0.1,0.1,0.2,0.1c0,0.1,0,0.2,0,0.3c-0.2,0.1-0.3,0.2-0.5,0.4c-1.6,1.6-3.2,3.2-4.8,4.9c-0.2-0.2-0.3-0.3-0.5-0.5
			c-3.3-3.3-6.7-6.7-10-10c-0.3-0.3-0.5-0.4-0.9-0.4c-1,0-2,0-3,0c-0.4,0-0.7,0.1-1,0.4c-3.3,3.3-6.6,6.7-10,10
			c-0.1,0.1-0.3,0.3-0.4,0.4c-1.8-1.8-3.6-3.6-5.4-5.4c3-3,6.1-6.1,9.1-9.1c-3.1-3.1-6.2-6.2-9.3-9.3c1.7-1.7,3.3-3.3,4.9-4.9
			c0.1-0.1,0.3-0.3,0.4-0.4C242.6,30.1,242.7,30.1,242.8,30.1z"/>
		<path class="st0" d="M273.7,35.5c-0.1,0.1-0.2,0.1-0.3,0.2c-3.6,3.6-7.2,7.2-10.8,10.8c-0.1,0.1-0.1,0.1-0.2,0.2
			c0.1,0.1,0.2,0.2,0.3,0.3c1.7,1.7,3.3,3.3,5,5c0.1,0.1,0.4,0.3,0.5,0.2c0.9-0.1,1.6,0.5,1.7,1.4c0.1,0.8-0.6,1.6-1.4,1.6
			c-0.9,0.1-1.6-0.6-1.7-1.5c0-0.3-0.1-0.6-0.3-0.7c-2-2-4-4-5.9-6c-0.1-0.1-0.2-0.3-0.4-0.4c3.8-3.8,7.6-7.6,11.4-11.4
			c-1.1-1.1-2.1-2.1-3.2-3.2c-0.7,0.7-1.4,1.5-2.1,2.2c-2.6,2.6-5.1,5.1-7.7,7.7c-0.2,0.2-0.5,0.3-0.8,0.3c-2.9,0-5.7,0-8.6,0
			c-0.3,0-0.6-0.1-0.8-0.3c-1.6-1.6-3.2-3.2-4.8-4.8c-0.3-0.3-0.5-0.4-0.9-0.4c-0.8,0-1.4-0.6-1.5-1.3c-0.1-0.7,0.2-1.3,0.8-1.6
			c0.6-0.3,1.5-0.2,1.9,0.4c0.2,0.2,0.3,0.6,0.3,0.9c0,0.4,0.1,0.7,0.4,0.9c1.5,1.4,2.9,2.9,4.4,4.3c0.2,0.1,0.4,0.3,0.6,0.3
			c2.5,0,5,0,7.6,0c0.2,0,0.4-0.1,0.6-0.2c3.5-3.5,7-7,10.5-10.6c0.1,0,0.1,0,0.2,0c0,0,0,0,0,0.1c1.7,1.7,3.4,3.4,5.1,5.1
			c0,0,0,0,0.1,0C273.7,35.3,273.7,35.4,273.7,35.5z"/>
		<path class="st0" d="M83.2,32.2c0,8.1,0,16.1,0,24.1c0.5,0,0.9,0,1.4,0c0-7.5,0-15,0-22.6c0.2,0,0.4,0,0.6,0c8.1,0,16.2,0,24.3,0
			c0.5,0,1.1,0,1.6,0.1c1.3,0.2,2.1,1,2.2,2.4c0.1,0.7,0.1,1.3,0.1,2c0,4.3,0,8.6,0,12.9c0,0.5,0,0.9-0.1,1.4
			c-0.3,1.5-1.1,2.2-2.9,2.3c-0.5,0-1,0.1-1.5,0.1c-6.9,0-13.8,0-20.6,0c-0.2,0-0.4,0-0.6,0c0-6.1,0-12.1,0-18.2c0.2,0,0.4,0,0.6,0
			c6.8,0,13.5,0,20.3,0c0.4,0,0.8,0.1,1.1,0.2c0.4,0.2,0.7,0.6,0.7,1c0,4.2,0,8.4,0,12.6c0,0.9-0.5,1.3-1.4,1.3c-1,0-2.1,0-3.1,0
			c-4.2,0-8.3,0-12.5,0c-0.3,0-0.6,0-0.9,0.3c-0.6,0.6-1.6,0.6-2.2,0c-0.6-0.6-0.5-1.6,0-2.2c0.6-0.6,1.6-0.6,2.1,0
			c0.2,0.3,0.5,0.3,0.8,0.3c4.8,0,9.5,0,14.3,0c1.1,0,1.3-0.1,1.3-1.3c0-3.1,0-6.2,0-9.3c0-0.2,0-0.4,0-0.6
			c-0.1-0.7-0.2-0.8-0.9-0.8c-1.8,0-3.7,0-5.5,0c-4.1,0-8.2,0-12.3,0c-0.2,0-0.4,0-0.7,0c0,5,0,10,0,15c0.2,0,0.3,0,0.5,0
			c6.5,0,13.1,0,19.6,0c0.4,0,0.8,0,1.3-0.1c0.8-0.1,1.2-0.7,1.2-1.7c0-2.6,0.1-5.1,0.1-7.7c0-2.2,0-4.4,0-6.6c0-1.4-0.5-1.9-1.8-2
			c-0.4,0-0.8-0.1-1.2-0.1c-7.3,0-14.6,0-21.8,0c-0.2,0-0.4,0-0.7,0c0,7.6,0,15.1,0,22.7c-1.6,0-3.1,0-4.6,0c0-9.1,0-18.1,0-27.3
			c0.2,0,0.4,0,0.6,0c9.1,0,18.2,0,27.3,0c1.1,0,2.2,0.2,3.2,0.4c2,0.4,3.1,1.8,3.4,3.7c0.2,1,0.3,2.1,0.3,3.1c0,4.3,0,8.6,0,12.9
			c0,1.1-0.1,2.3-0.3,3.4c-0.5,2.2-1.8,3.4-4,3.6c-1.1,0.1-2.3,0.2-3.4,0.2c-6.1,0-12.3,0-18.4,0c-0.3,0-0.6,0.1-0.8,0.3
			c-0.6,0.6-1.5,0.6-2.1,0c-0.6-0.6-0.6-1.6,0-2.2c0.6-0.5,1.6-0.6,2.1,0c0.2,0.3,0.5,0.3,0.8,0.3c6.3,0,12.5,0,18.8,0
			c0.9,0,1.8-0.1,2.6-0.2c2-0.4,3-1.5,3.1-3.7c0.1-2.9,0.1-5.7,0.1-8.6c0-2.2,0-4.4,0-6.6c0-0.7-0.1-1.5-0.3-2.2
			c-0.4-1.6-1.4-2.5-3.2-2.7c-0.7-0.1-1.5-0.1-2.2-0.1c-8.4,0-16.9,0-25.3,0C83.8,32.2,83.5,32.2,83.2,32.2z"/>
		<path class="st0" d="M161.6,56.3c0.5,0,0.9,0,1.4,0c0-7.5,0-15,0-22.6c0.2,0,0.4,0,0.6,0c8.1,0,16.1,0,24.2,0c0.5,0,1.1,0,1.6,0.1
			c1.3,0.2,2.1,1,2.2,2.3c0.1,0.6,0.1,1.2,0.1,1.9c0,4.2,0,8.5,0,12.7c0,0.6,0,1.2-0.1,1.7c-0.2,1.5-1.2,2.3-2.9,2.4
			c-0.5,0-1.1,0.1-1.6,0.1c-6.8,0-13.6,0-20.4,0c-0.2,0-0.4,0-0.7,0c0-6.1,0-12.1,0-18.2c0.2,0,0.4,0,0.6,0c6.8,0,13.6,0,20.4,0
			c1.3,0,1.7,0.5,1.7,1.8c0,3.9,0,7.8,0,11.7c0,1.3-0.5,1.7-1.7,1.7c-5.1,0-10.2,0-15.3,0c-0.4,0-0.6,0-0.9,0.3
			c-0.6,0.6-1.5,0.6-2.1-0.1c-0.6-0.6-0.5-1.6,0.1-2.2c0.6-0.6,1.5-0.5,2.1,0c0.2,0.2,0.5,0.3,0.7,0.3c4.8,0,9.6,0,14.4,0
			c1,0,1.2-0.2,1.2-1.2c0-3.2,0-6.4,0-9.6c0-1-0.2-1.2-1.2-1.2c-6,0-12,0-18,0c-0.1,0-0.2,0-0.3,0c0,5,0,10,0,15c0.2,0,0.3,0,0.5,0
			c6.5,0,13.1,0,19.6,0c0.4,0,0.8,0,1.3-0.1c0.7-0.1,1.1-0.6,1.2-1.4c0-0.4,0.1-0.9,0.1-1.3c0-4.1,0-8.2,0-12.3
			c0-0.6-0.1-1.1-0.2-1.7c-0.1-0.6-0.6-1-1.2-1.1c-0.4-0.1-0.9-0.1-1.4-0.1c-7.5,0-15,0-22.5,0c-0.1,0-0.3,0-0.4,0
			c0,7.6,0,15.1,0,22.7c-1.6,0-3,0-4.6,0c0-9.1,0-18.1,0-27.3c0.2,0,0.4,0,0.6,0c9.1,0,18.2,0,27.3,0c1.1,0,2.2,0.2,3.2,0.4
			c2,0.4,3.1,1.8,3.4,3.7c0.2,1.3,0.3,2.6,0.3,3.9c0,3.8,0,7.6,0,11.4c0,1.4-0.1,2.7-0.4,4.1c-0.4,2.2-1.8,3.3-4,3.6
			c-1.1,0.1-2.3,0.2-3.4,0.2c-6.1,0-12.3,0-18.4,0c-0.3,0-0.6,0-0.9,0.3c-0.6,0.6-1.6,0.6-2.2,0c-0.6-0.6-0.6-1.6,0-2.2
			c0.6-0.6,1.6-0.6,2.2,0c0.2,0.3,0.5,0.3,0.8,0.3c6.3,0,12.5,0,18.8,0c0.9,0,1.7-0.1,2.6-0.2c2-0.3,3-1.5,3.1-3.6
			c0.1-2.1,0.1-4.2,0.1-6.4c0-2.9,0-5.8,0-8.7c0-0.8-0.1-1.6-0.2-2.3c-0.3-1.6-1.5-2.6-3.3-2.8c-0.8-0.1-1.7-0.1-2.5-0.1
			c-8.3,0-16.6,0-24.9,0c-0.2,0-0.5,0-0.7,0C161.6,40.3,161.6,48.3,161.6,56.3z"/>
		<path class="st0" d="M45,56.9c0-6.5,0-13.1,0-19.6c0.7,0,1.5,0,2.2,0c0.1,0,0.2,0.1,0.3,0.2c0.2,0.1,0.3,0.3,0.5,0.5
			c6.2,6.2,12.4,12.4,18.6,18.6c0.3,0.3,0.6,0.4,1,0.4c2.5,0,4.9,0,7.4,0c0.2,0,0.4,0,0.7,0c0-0.2,0-0.4,0-0.6c0-7.4,0-14.7,0-22.1
			c0-0.2-0.1-0.5-0.3-0.7c-0.6-0.6-0.6-1.6,0-2.2c0.6-0.6,1.6-0.6,2.2,0.1c0.6,0.6,0.6,1.6-0.1,2.2c-0.2,0.2-0.3,0.5-0.3,0.7
			c0,7.8,0,15.7,0,23.5c0,0.2,0,0.4,0,0.7c-0.2,0-0.4,0-0.6,0c-3.3,0-6.5,0-9.8,0c-0.3,0-0.6-0.1-0.8-0.3
			C59.8,52,53.6,45.8,47.5,39.6c-0.3-0.3-0.5-0.6-0.7-0.8c-0.1,0-0.1,0.1-0.2,0.1c0,6.5,0,13,0,19.6c-2.6,0-5.1,0-7.7,0
			c0-0.2,0-0.4,0-0.6c0-8.7,0-17.3,0-26c0-0.6,0.2-0.7,0.7-0.7c3.2,0,6.4,0,9.6,0c0.4,0,0.7,0.1,1,0.4c6.3,6.4,12.7,12.7,19,19.1
			c0.1,0.1,0.2,0.1,0.3,0.3c0-6.6,0-13.1,0-19.7c1.6,0,3,0,4.6,0c0,8.1,0,16.1,0,24.2c-0.2,0-0.4,0-0.6,0c-1.8,0-3.6,0-5.4,0
			c-0.4,0-0.7-0.1-1-0.4c-6.3-6.3-12.5-12.5-18.8-18.8c-0.3-0.3-0.6-0.4-1-0.4c-1.1,0-2.2,0-3.3,0c-0.4,0-0.5,0.1-0.5,0.5
			c0,5.6,0,11.2,0,16.7c0,0.2,0.1,0.4,0.3,0.6c0.6,0.7,0.7,1.6,0,2.2c-0.6,0.6-1.7,0.5-2.2-0.1c-0.6-0.6-0.5-1.6,0.1-2.2
			c0.2-0.2,0.2-0.4,0.2-0.7c0-6,0-12,0-17.9c0-0.2,0-0.4,0-0.7c0.2,0,0.4,0,0.6,0c1.8,0,3.7,0,5.5,0c0.4,0,0.6,0.1,0.9,0.4
			c6.3,6.3,12.6,12.6,18.9,18.9c0.3,0.3,0.6,0.4,1,0.4c1.2,0,2.5,0,3.8,0c0-7,0-14,0-21.1c-0.5,0-0.9,0-1.4,0c0,6.5,0,13,0,19.6
			c-0.8,0-1.5,0-2.2,0c-0.1,0-0.2-0.1-0.3-0.2c-0.1-0.1-0.2-0.2-0.3-0.3c-6.2-6.2-12.5-12.5-18.7-18.7c-0.4-0.4-0.7-0.5-1.2-0.5
			c-2.6,0-5.2,0-7.9,0c0,8,0,16.1,0,24.1C42,56.9,43.5,56.9,45,56.9z"/>
		<path class="st0" d="M138.1,30.7c2.9,0,5.8,0,8.7,0c0.3,0,0.6,0.1,0.8,0.3c2.6,2.6,5.2,5.2,7.8,7.8c0.1,0.1,0.3,0.4,0.3,0.6
			c-0.1,3.7-0.1,7.5-0.2,11.2c0,0.2-0.1,0.4-0.2,0.6c-1,1.5-2,3-2.9,4.5c-0.1,0.2-0.2,0.5-0.2,0.7c0.1,0.9-0.4,1.7-1.3,1.8
			c-0.9,0.1-1.7-0.4-1.8-1.3c-0.2-0.8,0.4-1.6,1.3-1.8c0.2,0,0.4-0.2,0.5-0.3c1-1.5,1.9-2.9,2.9-4.4c0.1-0.2,0.2-0.4,0.2-0.7
			c0.1-3.1,0.1-6.1,0.2-9.2c0-0.5-0.1-0.8-0.5-1.2c-2.2-2.2-4.4-4.4-6.7-6.6c-0.2-0.2-0.6-0.4-0.8-0.4c-5.3,0-10.6,0-16,0
			c-0.3,0-0.6,0.1-0.8,0.3c-2.2,2.2-4.3,4.4-6.5,6.6c-0.1,0.2-0.2,0.4-0.2,0.6c0,3.3,0,6.5,0,9.8c0,0.2,0.1,0.5,0.3,0.7
			c2.1,2,4.2,4,6.3,5.9c0.2,0.2,0.5,0.3,0.8,0.3c3,0,6-0.1,9-0.1c2.2,0,4.4-0.1,6.6-0.1c0.2,0,0.4-0.1,0.5-0.3
			c1.5-2.3,3-4.7,4.4-7.1c0.1-0.1,0.1-0.3,0.1-0.5c0-2.3,0.1-4.6,0.1-7c0-0.2-0.1-0.5-0.3-0.7c-1.7-1.7-3.3-3.4-5-5
			c-0.2-0.2-0.4-0.3-0.7-0.3c-4.5,0-9,0-13.4,0c-0.3,0-0.6,0.1-0.7,0.3c-1.5,1.6-3,3.3-4.5,4.9c-0.2,0.2-0.3,0.6-0.3,0.9
			c0.1,2.2,0.2,4.5,0.2,6.7c0,0.4,0.1,0.7,0.4,0.9c1.4,1.3,2.8,2.6,4.3,3.8c0.2,0.2,0.5,0.3,0.7,0.3c4,0,8-0.1,12.1-0.1
			c0.4,0,0.6-0.1,0.8-0.4c1-1.5,2-3,3-4.6c0.1-0.2,0.2-0.5,0.2-0.8c0-1.6,0-3.1,0-4.7c0-0.2-0.1-0.5-0.3-0.7c-1-1.1-2.1-2.1-3.1-3.1
			c-0.2-0.2-0.5-0.3-0.7-0.3c-3.6,0-7.2,0-10.8,0c-0.2,0-0.6,0.1-0.7,0.3c-0.9,1-1.8,2.1-2.7,3.1c-0.1,0.2-0.2,0.4-0.2,0.6
			c0,1.4,0.1,2.8,0.1,4.2c0,0.4,0.1,0.8,0.5,1c0.8,0.7,1.5,1.5,2.3,2.2c0.2,0.2,0.6,0.3,0.9,0.3c2.7,0,5.3,0,8-0.1
			c0.2,0,0.4-0.2,0.5-0.3c0.6-0.7,1.6-0.9,2.3-0.3c0.7,0.6,0.8,1.6,0.2,2.3c-0.6,0.7-1.6,0.7-2.3,0.1c-0.2-0.2-0.5-0.3-0.7-0.3
			c-2.9,0-5.8,0-8.7,0c-0.3,0-0.6-0.1-0.8-0.3c-1.1-1-2.2-2-3.3-3c-0.2-0.2-0.3-0.4-0.3-0.6c-0.1-1.9-0.2-3.8-0.2-5.6
			c0-0.3,0.1-0.6,0.3-0.9c1.1-1.3,2.3-2.7,3.5-4c0.2-0.2,0.5-0.3,0.7-0.3c4.1,0,8.1,0,12.2,0c0.2,0,0.5,0.1,0.7,0.3
			c1.4,1.4,2.8,2.7,4.1,4.1c0.2,0.2,0.3,0.4,0.3,0.7c0,1.9,0,3.9,0,5.8c0,0.2-0.1,0.5-0.2,0.7c-1.2,2-2.5,4-3.7,5.9
			c-0.2,0.3-0.3,0.4-0.7,0.4c-4.7,0-9.4,0-14,0c-0.2,0-0.5-0.1-0.7-0.3c-1.8-1.6-3.5-3.2-5.3-4.8c-0.2-0.2-0.3-0.5-0.3-0.7
			c-0.1-2.8-0.2-5.6-0.2-8.4c0-0.2,0.1-0.4,0.2-0.6c1.9-2,3.8-4,5.7-6c0.1-0.1,0.4-0.3,0.6-0.3c5,0,9.9,0,14.9,0
			c0.2,0,0.5,0.1,0.7,0.3c2,2,4,4,6,6c0.2,0.2,0.3,0.4,0.3,0.7c0,2.8,0,5.6,0,8.4c0,0.3-0.1,0.5-0.2,0.8c-1.7,2.6-3.5,5.1-5.2,7.7
			c-0.2,0.3-0.4,0.3-0.7,0.3c-3.9,0-7.7,0.1-11.6,0.1c-1.8,0-3.7,0.1-5.5,0.1c-0.2,0-0.5-0.1-0.7-0.3c-2.4-2.3-4.9-4.6-7.3-6.8
			c-0.3-0.3-0.4-0.5-0.4-0.9c0-3.6,0-7.2,0-10.9c0-0.4,0.1-0.6,0.3-0.9c2.5-2.5,4.9-5,7.4-7.5c0.2-0.2,0.5-0.3,0.8-0.3
			C132.3,30.7,135.2,30.7,138.1,30.7C138.1,30.7,138.1,30.7,138.1,30.7z"/>
		<path class="st0" d="M200.9,56.7c1.5,0,2.9,0,4.4,0c0-2.5,0-5,0-7.5c8.6,0,17.2,0,25.8,0c0,0.3,0,0.6,0,0.9c0,0.7,0,1.5,0,2.2
			c0,0.5,0,0.8,0.4,1.2c0.6,0.5,0.4,1.6-0.2,2.1c-0.6,0.5-1.6,0.5-2.2-0.1c-0.6-0.6-0.5-1.5,0.1-2.1c0.2-0.2,0.3-0.4,0.3-0.7
			c0-0.6,0-1.2,0-1.8c0,0,0-0.1,0-0.1c-7.5,0-15,0-22.6,0c0,2.5,0,5,0,7.5c-2.6,0-5.1,0-7.7,0c0-0.2,0-0.4,0-0.6c0-6.5,0-13,0-19.5
			c0-1.1,0.1-2.2,0.3-3.3c0.4-2.1,1.7-3.3,3.9-3.6c1.2-0.2,2.3-0.3,3.5-0.3c6.5,0,13,0,19.5,0c1.1,0,2.3,0.1,3.4,0.3
			c2.4,0.3,3.8,1.8,4.1,4.2c0.1,1.1,0.2,2.2,0.2,3.3c0,6.3,0,12.5,0,18.8c0,0.2,0,0.4,0,0.7c-2.6,0-5.1,0-7.7,0c0-1.5,0-3,0-4.5
			c-0.3,0-0.4,0-0.6,0c-4.9,0-9.9,0-14.8,0c-0.3,0-0.6,0.1-0.9,0.3c-0.6,0.6-1.6,0.6-2.2,0c-0.6-0.6-0.6-1.6,0-2.2
			c0.6-0.6,1.6-0.6,2.2,0c0.2,0.2,0.5,0.3,0.8,0.3c5.4,0,10.9,0,16.3,0c0.2,0,0.5,0,0.8,0c0,1.5,0,3,0,4.5c1.5,0,3,0,4.5,0
			c0-0.2,0-0.4,0-0.6c0-5.9,0-11.8,0-17.8c0-0.9-0.1-1.9-0.3-2.8c-0.3-1.6-1.3-2.5-2.9-2.7c-1-0.1-2-0.2-2.9-0.2
			c-6.7,0-13.5,0-20.2,0c-0.8,0-1.6,0.1-2.3,0.2c-1.7,0.4-2.7,1.5-2.9,3.3c-0.1,0.9-0.1,1.8-0.1,2.7c0,5.7,0,11.4,0,17.1
			C200.9,56.2,200.9,56.5,200.9,56.7z"/>
		<path class="st0" d="M231.1,47.7c-8.6,0-17.1,0-25.7,0c0-0.2,0-0.4,0-0.6c0-2.7,0-5.4,0-8.1c0-0.3,0-0.6,0.1-0.9
			c0.1-0.7,0.6-1,1.2-1.1c0.4,0,0.8,0,1.2,0c6.2,0,12.4,0,18.7,0c1.1,0,1.6,0.5,1.6,1.6c0,1.2,0,2.3,0,3.5c0,0.2,0.1,0.5,0.3,0.7
			c0.6,0.6,0.6,1.6,0,2.2c-0.6,0.6-1.6,0.6-2.2,0c-0.6-0.6-0.6-1.6,0-2.2c0.1-0.1,0.3-0.3,0.3-0.5c0-1,0-1.9,0-2.9
			c0-0.5-0.2-0.8-0.7-0.8c-0.3,0-0.6-0.1-0.9-0.1c-5.5,0-11,0-16.5,0c-1.4,0-1.5,0.1-1.5,1.5c0,2,0,3.9,0,6c7.5,0,15,0,22.6,0
			c0-0.2,0-0.3,0-0.5c0-2.5,0-4.9,0-7.4c0-0.3,0-0.7-0.1-1c-0.2-1.1-0.6-1.5-1.7-1.6c-0.2,0-0.3,0-0.5,0c-7.1,0-14.2,0-21.3,0
			c-1.4,0-1.8,0.5-1.9,1.8c-0.1,0.6-0.1,1.2-0.1,1.8c0,4.4,0,8.9,0,13.3c0,0.3,0.1,0.6,0.3,0.8c0.6,0.5,0.6,1.6,0,2.2
			c-0.6,0.6-1.6,0.6-2.2,0c-0.6-0.6-0.7-1.6,0-2.1c0.3-0.3,0.3-0.5,0.3-0.8c0-4.9,0-9.9,0-14.8c0-0.5,0-1,0.1-1.5
			c0.3-1.4,1.1-2.1,2.5-2.2c0.8-0.1,1.6-0.1,2.4-0.1c6.4,0,12.9,0,19.3,0c0.6,0,1.2,0,1.7,0.1c1.6,0.2,2.5,1,2.5,2.8
			C231.2,40.5,231.1,44.1,231.1,47.7z"/>
		<path class="st0" d="M26.5,31c2.5,0,5,0,7.5,0c0,9.1,0,18.1,0,27.2c-2.5,0-5,0-7.5,0C26.5,49.2,26.5,40.1,26.5,31z M32.5,56.7
			c0-8.1,0-16.1,0-24.1c-1.5,0-2.9,0-4.4,0c0,8,0,16.1,0,24.1C29.5,56.7,31,56.7,32.5,56.7z"/>
		<path class="st0" d="M255.8,71c-1.4-1.5-2.8-2.9-4.3-4.5c0,1.4,0,2.7,0,4.1c-0.4,0-0.6,0-0.9,0c0-2.1,0-4.1,0-6.3
			c1.4,1.5,2.8,2.9,4.3,4.4c0-1.4,0-2.7,0-4c0.4,0,0.6,0,0.9,0C255.8,66.8,255.8,68.9,255.8,71z"/>
		<path class="st0" d="M62,66.6c0,1.4,0,2.7,0,4c-0.3,0-0.6,0-0.9,0c0-2.1,0-4.1,0-6.3c1.4,1.5,2.8,2.9,4.3,4.5c0-1.4,0-2.7,0-4.1
			c0.3,0,0.6,0,0.9,0c0,2,0,4.1,0,6.3C64.9,69.5,63.5,68.1,62,66.6z"/>
		<path class="st0" d="M33.2,70.6c-0.3,0-0.6,0-0.9,0c0-2.1,0-4.1,0-6.3c1.4,1.5,2.8,2.9,4.3,4.4c0-1.4,0-2.7,0-4c0.3,0,0.6,0,0.9,0
			c0,2,0,4.1,0,6.2c-1.4-1.5-2.8-2.9-4.3-4.4C33.2,68,33.2,69.3,33.2,70.6z"/>
		<path class="st0" d="M50.6,67.6c0-1.7,1.4-3.1,3.1-3c1.7,0,3.1,1.4,3.1,3.1c0,1.7-1.4,3.1-3.2,3.1C51.9,70.8,50.6,69.4,50.6,67.6z
			 M55.9,67.7c0-1.3-0.9-2.2-2.2-2.2c-1.2,0-2.2,0.9-2.2,2.2c0,1.2,1,2.2,2.2,2.2C55,69.9,55.9,68.9,55.9,67.7z"/>
		<path class="st0" d="M265.1,66.4c-1.2-1-2.1-1.2-3-0.6c-0.8,0.6-1.2,1.6-0.8,2.6c0.3,0.9,1.2,1.5,2.1,1.4c0.8,0,1.4-0.6,1.6-1.5
			c-0.5,0-0.9,0-1.4,0c0-0.3,0-0.6,0-0.8c0.8,0,1.6,0,2.4,0c0.1,1.1-0.2,2-1,2.6c-0.9,0.7-2,0.7-3,0.3c-1.1-0.5-1.8-1.7-1.7-2.9
			c0.1-1.3,0.9-2.4,2.1-2.8c1.3-0.4,2.5,0,3.4,1.1C265.5,66,265.3,66.2,265.1,66.4z"/>
		<path class="st0" d="M125.1,68.4c-0.5,0-0.9,0-1.4,0c0-0.3,0-0.6,0-0.8c0.8,0,1.6,0,2.4,0c0.4,2-1.4,3.6-3.5,3.1
			c-1.3-0.3-2.2-1.5-2.2-2.9c-0.1-1.3,0.8-2.6,2-3c1.3-0.5,2.7-0.1,3.5,1.1c-0.2,0.2-0.4,0.4-0.6,0.6c-0.5-0.5-1.1-1-1.8-0.9
			c-0.4,0.1-0.9,0.2-1.3,0.4c-0.8,0.6-1.1,1.7-0.7,2.6c0.4,0.8,1.3,1.4,2.2,1.3C124.4,69.8,125,69.2,125.1,68.4z"/>
		<path class="st0" d="M106.3,64.8c0.7,0,1.4-0.1,2.1,0c1.6,0.2,2.5,1.4,2.5,3.1c-0.1,1.5-1.1,2.6-2.7,2.8c-0.6,0-1.2,0-1.8,0
			C106.3,68.7,106.3,66.7,106.3,64.8z M107.3,69.8c1,0.1,1.9-0.1,2.4-1c0.4-0.8,0.4-1.6-0.1-2.3c-0.6-0.8-1.4-0.9-2.3-0.8
			C107.3,67,107.3,68.4,107.3,69.8z"/>
		<path class="st0" d="M42.1,70.7c0-2,0-4,0-6.1c0.9,0.1,1.9,0.1,2.8,0.3c1.2,0.3,1.9,1.6,1.8,2.9c-0.1,1.4-1,2.5-2.3,2.7
			C43.7,70.7,42.9,70.7,42.1,70.7z M43,65.6c0,1.4,0,2.8,0,4.1c1,0.1,1.9-0.1,2.4-1c0.4-0.7,0.4-1.5,0-2.2
			C44.9,65.7,44,65.5,43,65.6z"/>
		<path class="st0" d="M233.6,67.9c0,0.9,0,1.8,0,2.7c-0.3,0-0.6,0-0.9,0c0-1.9,0-3.9,0-5.9c0.3,0,0.6,0,0.9,0c0,0.7,0,1.5,0,2.3
			c0.9,0,1.7,0,2.5,0c0-0.8,0-1.5,0-2.3c0.3,0,0.6,0,0.9,0c0,2,0,3.9,0,5.9c-0.3,0-0.6,0-0.9,0c0-0.9,0-1.8,0-2.7
			C235.3,67.9,234.5,67.9,233.6,67.9z"/>
		<path class="st0" d="M96.8,70.6c-1,0.1-1,0.1-1.3-0.8c-0.2-0.5-0.4-0.7-1-0.6l-0.9,0c-0.9,0-1.2,0-1.4,1.1
			c-0.1,0.5-0.7,0.2-1.1,0.3c1-2.1,1.9-4.2,3-6.3C95,66.5,95.9,68.5,96.8,70.6z M94.8,68.3c-0.3-0.6-0.5-1.2-0.8-1.9
			c-0.3,0.7-0.6,1.3-0.9,1.9C93.7,68.3,94.2,68.3,94.8,68.3z"/>
		<path class="st0" d="M71.8,67.8c0,0.7,0,1.3,0,2c0.8,0,1.5,0,2.3,0c0,0.3,0,0.6,0,0.9c-1.1,0-2.1,0-3.2,0c0-1.9,0-3.9,0-5.9
			c1.1,0,2.1,0,3.2,0c0,0.2,0,0.5,0,0.8c-0.7,0-1.5,0-2.3,0c0,0.5,0,0.9,0,1.4c0.7,0,1.5,0,2.2,0c0,0.3,0,0.5,0,0.8
			C73.4,67.8,72.6,67.8,71.8,67.8z"/>
		<path class="st0" d="M208.4,64.7c1.1,0,2.1,0,3.2,0c0,0.3,0,0.5,0,0.8c-0.8,0-1.5,0-2.3,0c0,0.5,0,0.9,0,1.4c0.7,0,1.5,0,2.2,0
			c0,0.3,0,0.6,0,0.8c-0.7,0-1.5,0-2.2,0c0,0.7,0,1.3,0,1.9c0.7,0,1.5,0,2.3,0c0,0.3,0,0.6,0,0.9c-1.1,0-2.1,0-3.2,0
			C208.4,68.7,208.4,66.7,208.4,64.7z"/>
		<path class="st0" d="M271.2,67c0.7,0,1.5,0,2.2,0c0,0.3,0,0.6,0,0.9c-0.7,0-1.5,0-2.2,0c0,0.7,0,1.3,0,2c0.8,0,1.5,0,2.3,0
			c0,0.3,0,0.6,0,0.8c-1.1,0-2.1,0-3.2,0c0-1.9,0-3.9,0-5.9c1.1,0,2.1,0,3.2,0c0,0.2,0,0.5,0,0.8c-0.7,0-1.5,0-2.3,0
			C271.2,66.1,271.2,66.5,271.2,67z"/>
		<path class="st0" d="M215.6,64.8c1-0.1,1-0.1,1.4,0.6c0.2,0.4,0.5,0.8,0.7,1.3c0.3-0.5,0.5-0.9,0.8-1.3c0.4-0.7,0.4-0.7,1.4-0.6
			c-0.5,0.8-0.9,1.6-1.4,2.3c-0.2,0.3-0.2,0.6,0,0.9c0.5,0.8,1,1.7,1.5,2.6c-0.9,0.2-0.9,0.2-1.4-0.5c-0.3-0.5-0.5-0.9-0.8-1.4
			c0,0-0.1,0-0.1-0.1c-0.3,0.5-0.6,1-0.9,1.5c-0.3,0.6-0.7,0.9-1.4,0.6c0.5-0.8,0.9-1.6,1.4-2.3c0.4-0.5,0.4-0.9,0-1.5
			C216.4,66.2,216,65.5,215.6,64.8z"/>
		<path class="st0" d="M188.2,64.7c1.1,0,2.2,0,3.3,0c0,0.3,0,0.5,0,0.8c-0.8,0-1.5,0-2.3,0c0,0.5,0,0.9,0,1.4c0.8,0,1.5,0,2.3,0
			c0,0.3,0,0.5,0,0.8c-0.7,0-1.5,0-2.2,0c0,0.7,0,1.3,0,2c0.8,0,1.5,0,2.3,0c0,0.3,0,0.6,0,0.9c-1.1,0-2.1,0-3.3,0c0-1,0-2,0-2.9
			C188.2,66.7,188.2,65.8,188.2,64.7z"/>
		<path class="st0" d="M183.9,65.6c-0.3,0.2-0.5,0.3-0.6,0.3c-0.5-0.2-0.8-0.4-1.2-0.4c-0.2,0-0.6,0.3-0.6,0.5
			c0,0.2,0.2,0.6,0.4,0.7c0.3,0.2,0.8,0.3,1.1,0.5c0.9,0.5,1.2,1.3,0.9,2.2c-0.3,0.8-1.1,1.4-2.1,1.3c-0.9-0.1-1.5-0.7-1.6-1.7
			c0.3-0.1,0.5-0.1,0.8-0.2c0.1,0.2,0.1,0.3,0.1,0.4c0.2,0.5,0.5,0.7,0.9,0.7c0.5,0,0.8-0.3,0.9-0.7c0.1-0.4,0-0.8-0.4-1
			c-0.4-0.2-0.8-0.4-1.1-0.5c-0.6-0.3-1.1-0.7-1.1-1.5c0-0.6,0.4-1.2,1-1.4c0.7-0.3,1.6-0.1,2.1,0.4
			C183.6,65.3,183.7,65.4,183.9,65.6z"/>
		<path class="st0" d="M176.1,65.6c-0.3,0.2-0.5,0.3-0.7,0.4c0,0,0-0.1,0-0.1c-0.3-0.1-0.7-0.4-1-0.4c-0.2,0-0.6,0.3-0.7,0.5
			c-0.1,0.2,0.2,0.5,0.4,0.7c0.2,0.2,0.6,0.3,0.9,0.4c1,0.4,1.4,1.2,1.2,2.1c-0.2,0.9-1,1.5-2,1.5c-1,0-1.6-0.6-1.8-1.7
			c0.3-0.1,0.5-0.1,0.9-0.2c0.1,0.2,0.1,0.4,0.2,0.5c0.2,0.4,0.5,0.7,0.9,0.6c0.3-0.1,0.7-0.3,0.8-0.6c0.2-0.3,0.2-0.8-0.2-1
			c-0.4-0.3-0.9-0.5-1.4-0.7c-0.9-0.5-1.2-1.5-0.7-2.2c0.6-0.9,2-1,2.7-0.3C175.8,65.2,176,65.4,176.1,65.6z"/>
		<path class="st0" d="M78.2,69c0.3-0.1,0.6-0.1,0.9-0.2c0.1,0.2,0.1,0.3,0.1,0.5c0.2,0.4,0.5,0.6,0.9,0.6c0.4,0,0.7-0.2,0.9-0.6
			c0.1-0.4,0.1-0.8-0.3-1.1c-0.3-0.2-0.7-0.4-1.1-0.5c-0.6-0.3-1.1-0.6-1.1-1.3c-0.1-0.7,0.2-1.2,0.8-1.5c0.7-0.4,1.4-0.4,2,0.1
			c0.2,0.2,0.4,0.4,0.7,0.7c-0.3,0.2-0.5,0.3-0.6,0.4c-0.4-0.2-0.8-0.4-1.1-0.4c-0.3,0-0.6,0.3-0.7,0.6c-0.1,0.1,0.2,0.5,0.4,0.7
			c0.3,0.2,0.7,0.3,1,0.5c0.9,0.5,1.3,1.2,1.1,2.1c-0.2,0.8-0.9,1.4-1.8,1.4c-1,0-1.6-0.5-1.9-1.5C78.2,69.2,78.2,69.2,78.2,69z"/>
		<path class="st0" d="M228.2,66c-1.8-0.7-2.6-0.6-3.3,0.4c-0.6,0.8-0.6,2,0,2.7c0.8,0.9,1.6,1,3.3,0.3c0.2,1,0.1,1.1-0.9,1.3
			c-1.3,0.3-2.6-0.2-3.3-1.3c-0.7-1-0.7-2.5,0.1-3.5c0.8-1.1,2.1-1.5,3.3-1.2C228.3,64.9,228.4,65,228.2,66z"/>
		<path class="st0" d="M196.6,65.6c-0.5,0-0.9,0-1.4,0c0-0.3,0-0.5,0-0.8c1.2,0,2.4,0,3.6,0c0,0.3,0,0.5,0,0.8c-0.4,0-0.8,0-1.3,0
			c0,1.7,0,3.4,0,5c-0.3,0-0.6,0-0.9,0C196.6,69,196.6,67.3,196.6,65.6z"/>
		<path class="st0" d="M136.7,65.6c-0.5,0-0.9,0-1.3,0c0-0.3,0-0.6,0-0.9c1.2,0,2.3,0,3.5,0c0,0.3,0,0.5,0,0.8c-0.4,0-0.8,0-1.3,0
			c0,1.7,0,3.3,0,5c-0.3,0-0.6,0-0.9,0C136.7,69,136.7,67.3,136.7,65.6z"/>
		<path class="st0" d="M151.6,64.7c0.3,0,0.5,0,0.9,0c0,1.7,0,3.3,0,5c0.6,0,1.2,0,1.7,0c0,0.3,0,0.6,0,0.8c-0.9,0-1.7,0-2.6,0
			C151.6,68.7,151.6,66.7,151.6,64.7z"/>
		<path class="st0" d="M131.3,64.7c0,2,0,3.9,0,5.9c-0.3,0-0.6,0-0.9,0c0-2,0-3.9,0-5.9C130.7,64.7,131,64.7,131.3,64.7z"/>
		<path class="st0" d="M116,70.6c-0.3,0-0.6,0-0.9,0c0-2,0-3.9,0-5.9c0.3,0,0.5,0,0.9,0C116,66.7,116,68.7,116,70.6z"/>
		<path class="st0" d="M86.3,64.7c0.3,0,0.6,0,0.9,0c0,2,0,3.9,0,5.9c-0.3,0-0.6,0-0.9,0C86.3,68.7,86.3,66.7,86.3,64.7z"/>
		<path class="st0" d="M27.7,70.6c-0.3,0-0.6,0-0.9,0c0-2,0-3.9,0-5.9c0.3,0,0.6,0,0.9,0C27.7,66.7,27.7,68.6,27.7,70.6z"/>
		<path class="st0" d="M255.9,45.4c-1,0-2.1,0-3.1,0c-0.3,0-0.6,0.1-0.8,0.3c-2.5,2.5-4.9,4.9-7.4,7.4c-0.2,0.2-0.4,0.5-0.4,0.9
			c0,0.7-0.6,1.4-1.3,1.5c-0.7,0.1-1.4-0.3-1.7-0.9c-0.3-0.7,0-1.5,0.6-1.9c0.2-0.1,0.4-0.2,0.7-0.2c0.5,0.1,0.8-0.2,1.1-0.5
			c2.6-2.6,5.2-5.2,7.8-7.7c0.2-0.2,0.5-0.3,0.8-0.3c2.1,0,4.2,0,6.3,0c0.2,0,0.5-0.1,0.7-0.3c2.5-2.5,5-5,7.5-7.5
			c0.2-0.2,0.3-0.5,0.3-0.7c0.1-0.9,0.7-1.6,1.6-1.6c0.9,0,1.5,0.6,1.6,1.5c0,0.8-0.6,1.6-1.5,1.6c-0.4,0-0.6,0.1-0.8,0.4
			c-2.6,2.6-5.2,5.2-7.8,7.8c-0.2,0.2-0.5,0.3-0.8,0.3C258,45.4,256.9,45.4,255.9,45.4z"/>
	</g>
	<path class="st0" d="M147.6,70.6c-1,0.1-1,0.1-1.3-0.8c-0.2-0.5-0.4-0.7-1-0.6l-0.9,0c-0.9,0-1.2,0-1.4,1.1
		c-0.1,0.5-0.7,0.2-1.1,0.3c1-2.1,1.9-4.2,3-6.3C145.7,66.5,146.6,68.5,147.6,70.6z M145.5,68.3c-0.3-0.6-0.5-1.2-0.8-1.9
		c-0.3,0.7-0.6,1.3-0.9,1.9C144.4,68.3,144.9,68.3,145.5,68.3z"/>
	<path class="st0" d="M169,70.6c-1,0.1-1,0.1-1.3-0.8c-0.2-0.5-0.4-0.7-1-0.6l-0.9,0c-0.9,0-1.2,0-1.4,1.1c-0.1,0.5-0.7,0.2-1.1,0.3
		c1-2.1,1.9-4.2,3-6.3C167.1,66.5,168,68.5,169,70.6z M166.9,68.3c-0.3-0.6-0.5-1.2-0.8-1.9c-0.3,0.7-0.6,1.3-0.9,1.9
		C165.8,68.3,166.3,68.3,166.9,68.3z"/>
	<path class="st0" d="M246.7,70.6c-1,0.1-1,0.1-1.3-0.8c-0.2-0.5-0.4-0.7-1-0.6l-0.9,0c-0.9,0-1.2,0-1.4,1.1
		c-0.1,0.5-0.7,0.2-1.1,0.3c1-2.1,1.9-4.2,3-6.3C244.8,66.5,245.8,68.5,246.7,70.6z M244.7,68.3c-0.3-0.6-0.5-1.2-0.8-1.9
		c-0.3,0.7-0.6,1.3-0.9,1.9C243.6,68.3,244.1,68.3,244.7,68.3z"/>
	<path class="st0" d="M31.9,34.9c-0.2,0.3-0.3,0.7-0.5,1c-0.2,0.3-0.3,0.5-0.3,0.8c0,5.3,0,10.6,0,16c0,0.3,0.1,0.6,0.3,0.8
		c0.5,0.6,0.5,1.6,0,2.1c-0.6,0.6-1.6,0.6-2.2,0c-0.6-0.6-0.6-1.6,0-2.1c0.3-0.3,0.3-0.5,0.3-0.9c0-5.3,0-10.6,0-16
		c0-0.2-0.1-0.5-0.3-0.7c-0.5-0.5-0.6-1.3-0.3-1.9c0.3-0.6,1.1-0.9,1.7-0.7C31.4,33.5,31.8,34.1,31.9,34.9z"/>
</g>
</svg>
