<?xml version="1.0" encoding="utf-8"?>
<!-- Generator: Adobe Illustrator 24.1.0, SVG Export Plug-In . SVG Version: 6.00 Build 0)  -->
<svg version="1.1" id="Ebene_1" xmlns="http://www.w3.org/2000/svg" xmlns:xlink="http://www.w3.org/1999/xlink" x="0px" y="0px"
	 width="300px" height="100px" viewBox="0 0 300 100" style="enable-background:new 0 0 300 100;" xml:space="preserve">
<style type="text/css">
	.st0{fill:#3d3939;}
</style>
<g id="filsb8.tif">
	<g>
		<path class="st0" d="M10.5,41.2c0.4-0.4,0.9-0.8,1.3-1.2c5.1-5.1,10.2-10.2,15.3-15.3c0.4-0.4,1.2-0.7,1.8-0.7
			c5.3-0.1,10.5,0,15.8,0c0.5,0,1.2,0.2,1.6,0.6c5.4,5.4,10.8,10.8,16.2,16.3c0.3,0.3,0.6,0.9,0.6,1.3c0,5.4,0,10.9,0,16.3
			c0,0.5-0.4,1.2-0.8,1.6c-5.5,5.6-11,11.1-16.5,16.6c-5.9,0-11.9,0-17.8,0c-5.6-5.6-11.1-11.2-16.7-16.8c-0.2-0.2-0.4-0.3-0.6-0.4
			C10.5,53.3,10.5,47.3,10.5,41.2z M48.4,31.9c0.1-0.1,0.1-0.2,0.2-0.4c-1.2-1.1-2.3-2.3-3.6-3.3c-0.5-0.4-1.3-0.8-2-0.8
			c-4.2-0.1-8.4-0.1-12.5,0c-0.6,0-1.4,0.3-1.9,0.8c-4.7,4.6-9.3,9.2-13.8,13.9C14.3,42.5,14,43.3,14,44c-0.1,3,0.2,6-0.1,9
			c-0.4,3.5,0.9,5.9,3.4,8.4c6.3,6,16,6.3,22.2,0.2c2.7-2.6,5.3-5.3,7.9-7.9c2-2,2-4.5,0.2-6.3c-1.8-1.7-4.2-1.5-6.2,0.5
			c-2.5,2.6-5.1,5.1-7.6,7.7c-1.7,1.7-3.7,2.4-6.1,2.1c-2.9-0.4-4.9-2-5.9-4.8c-1-2.8-0.4-5.4,1.6-7.5c2.2-2.4,4.7-4.6,6.9-7
			C35.3,33,41.2,30.7,48.4,31.9z M25.1,69.2c1.1,1,2.2,2.2,3.5,3.3c0.5,0.4,1.2,0.7,1.8,0.7c4.3,0.1,8.5,0.1,12.8,0
			c0.6,0,1.4-0.3,1.8-0.7c4.7-4.6,9.3-9.3,13.9-14c0.4-0.4,0.7-1.2,0.7-1.8c0.1-3.1-0.2-6.3,0.1-9.4c0.3-3.4-0.9-5.6-3.3-7.9
			C49.4,33,40,33,33.3,39.7c-2.5,2.5-4.9,4.9-7.4,7.4c-1.9,1.9-2,4.5-0.2,6.2c1.8,1.7,4.2,1.6,6.1-0.3c2.5-2.5,5-5.1,7.6-7.6
			c3.1-3.1,7.4-3.2,10.4-0.4c3,2.9,3,7.4,0,10.5c-2.8,2.8-5.5,5.6-8.4,8.4c-2.3,2.3-5.1,4-8.3,4.5C30.6,68.9,27.8,68.9,25.1,69.2z"
			/>
		<path class="st0" d="M171.4,47.1c4.9-4.6,8.7-4.4,12.7,0.7c1.7-2.7,4.1-4.1,7.3-3.9c3.6,0.2,6.2,2.3,6.4,6
			c0.3,4.1,0.2,8.3,0.1,12.5c0,1.8-1,2.4-3,2.4c-1.9,0-2.8-0.8-2.8-2.6c0-3.1,0-6.2,0-9.3c0-2.1-0.7-3.4-2.1-3.9
			c-1.6-0.6-3.6,0-4.7,1.5c-0.4,0.5-0.6,1.2-0.6,1.7c-0.1,3.2,0,6.3,0,9.5c0,2.6-2.3,4-4.7,2.7c-1-0.6-1.2-1.5-1.2-2.6
			c0-2.7,0-5.3,0-8c0-0.6,0-1.3-0.1-1.9c-0.2-2.2-1.4-3.3-3.6-3.1c-2.1,0.1-3.7,1.6-3.7,3.6c0,3.1,0,6.2,0,9.3
			c0,2.7-2.2,4.1-4.6,2.7c-0.6-0.3-1.2-1.4-1.2-2.1c-0.1-5.7-0.1-11.3,0-17c0-0.3,0.5-0.9,0.9-1c2-0.7,3.8,0.1,4.6,2.1
			C171.2,46.7,171.3,46.9,171.4,47.1z"/>
		<path class="st0" d="M74.3,56.7c2.1,2.1,4.5,3.6,7.6,3.6c1.2,0,2.5-0.2,3.6-0.6c1.2-0.4,1.7-1.4,1.7-2.7c0-1.2-0.7-2-1.8-2.3
			c-1.4-0.5-2.9-0.8-4.3-1.2c-1.5-0.5-3-0.9-4.4-1.5c-5.4-2.5-5-9.8-1.2-12.4c1.4-1,3.1-1.7,4.8-2c2.8-0.6,5.6-0.4,8.3,0.5
			c0.8,0.3,1.6,0.7,2.3,1.1c2.6,1.9,2.4,4.5-0.6,6.1c-1.7-1.8-3.7-3-6.2-3.2c-1.2-0.1-2.4,0.1-3.5,0.4c-1.3,0.4-2,1.4-1.9,2.7
			c0,1.3,0.9,2,2.1,2.3c1.6,0.4,3.3,0.7,4.9,1.2c1.2,0.4,2.5,0.8,3.6,1.4c2.7,1.4,4.2,3.5,4.1,6.7c-0.1,3.3-1.5,5.8-4.5,7
			c-4.5,1.9-9.1,1.7-13.5-0.2c-0.6-0.2-1.1-0.6-1.6-1.1C71.3,60.7,71.6,58.2,74.3,56.7z"/>
		<path class="st0" d="M208.3,52.8c1.3-1.7,2.7-3.4,4-5.1c0.7-0.9,1.4-1.8,2.2-2.6c1.5-1.4,3.4-1.3,4.9,0c0.6,0.5,0.7,1,0.1,1.6
			c-1.9,2.4-3.8,4.8-5.8,7.3c2.4,3,4.8,5.9,7.1,8.8c-1.6,2.4-4.2,2.7-6.1,0.5c-1.8-2.1-3.5-4.2-5.3-6.4c-0.4-0.5-0.8-0.9-1.3-1.6
			c0,0.6-0.1,1-0.1,1.3c0,1.6,0,3.3,0,4.9c0,2.7-1.9,4-4.4,2.8c-0.5-0.2-0.9-0.9-1.2-1.5c-0.2-0.4-0.1-0.9-0.1-1.4c0-8,0-16,0-24.1
			c0-1.2,0.5-1.6,1.5-1.7c2.5-0.4,4.2,1.2,4.3,3.9c0.1,3.9,0,7.8,0,11.7c0,0.4,0,0.8,0,1.2C208.1,52.7,208.2,52.8,208.3,52.8z"/>
		<path class="st0" d="M147.3,56.1c0.2,1.5,0.8,2.7,1.9,3.5c2.4,1.9,6.7,1.6,8.8-0.7c0.5-0.5,0.7-1.4,1.7-0.9
			c1.1,0.5,1.9,1.1,1.9,2.4c0,0.7-0.3,1.6-0.8,2.1c-0.8,0.8-1.8,1.5-2.9,1.9c-2.7,1-5.6,1.1-8.4,0.4c-5-1.3-7.9-5.7-7.4-10.9
			c0.5-5.6,4.3-9.5,9.6-9.8c6.4-0.4,10.8,3.6,11,9.9c0,1.9-0.3,2.2-2.1,2.2c-3.9,0-7.8,0-11.6,0C148.3,56.1,147.8,56.1,147.3,56.1z
			 M157,52.6c-0.3-3-2.1-4.7-4.8-4.6c-2.7,0.1-4.7,2.1-4.8,4.6C150.6,52.6,153.7,52.6,157,52.6z"/>
		<path class="st0" d="M263,47.3c2.3-3.1,5.2-3.9,8.7-3.2c3,0.7,4.8,2.8,5,5.7c0.4,4.2,0.3,8.5,0.2,12.7c0,1.7-1.1,2.3-3.1,2.2
			c-1.8-0.1-2.6-0.8-2.6-2.6c-0.1-2.6,0-5.2,0-7.8c0-0.5,0-0.9,0-1.4c-0.1-2.1-1-3.5-2.5-3.9c-1.9-0.5-4.2,0.3-5.2,1.9
			c-0.2,0.4-0.3,1-0.3,1.5c0,3.1,0,6.3,0,9.4c0,2.3-0.9,3.1-3.2,3c-1.9-0.1-2.7-0.8-2.7-2.7c0-5.5,0-11,0-16.5
			c0-0.8,0.4-1.1,1.1-1.3C260.5,43.7,262.1,44.6,263,47.3z"/>
		<path class="st0" d="M232.7,43.9c6.4,0,10.7,4.4,10.7,10.7c0,6.3-4.4,10.5-10.7,10.5c-6.4,0-10.8-4.2-10.8-10.6
			C221.9,48.2,226.2,43.9,232.7,43.9z M238.2,54.5c0-3.5-2.5-6.1-5.7-6c-3.2,0.1-5.6,2.6-5.6,6c0,3.5,2.4,6,5.7,6
			C235.9,60.5,238.3,57.9,238.2,54.5z"/>
		<path class="st0" d="M107.6,58.3c2.3,2.1,5,3,8.2,2.5c1-0.2,1.9-0.5,2-1.7c0.1-1.2-0.8-1.6-1.8-1.9c-1.6-0.4-3.2-0.7-4.8-1.2
			c-3.3-0.9-4.8-2.7-4.9-5.5c0-3,1.7-5.2,4.9-6.1c2.8-0.8,5.7-0.7,8.5,0.3c0.6,0.2,1.2,0.5,1.7,0.9c2,1.5,1.9,3.6-0.4,5.1
			c-0.4-0.3-0.8-0.7-1.2-1c-1.9-1.4-4-1.9-6.3-1.5c-0.9,0.2-1.7,0.6-1.8,1.7c-0.1,1.1,0.8,1.5,1.6,1.7c1.4,0.4,2.9,0.7,4.4,1.1
			c0.8,0.2,1.7,0.5,2.4,0.8c4.1,2,4.5,7.4,0.6,9.8c-1.3,0.8-2.9,1.4-4.3,1.4c-2.3,0.1-4.7-0.2-7-0.6c-1-0.2-2-0.9-2.7-1.6
			C105.2,61.2,105.6,59.3,107.6,58.3z"/>
		<path class="st0" d="M128.6,44.2c0-0.9,0-1.8,0-2.8c0.1-1.7,1-2.4,2.8-2.4c1.9,0,2.7,0.7,2.8,2.4c0.1,0.9,0,1.9,0,3
			c1.3,0,2.4,0,3.6,0c1.7,0.1,2.3,0.7,2.3,2.3c0,1.6-0.7,2.3-2.4,2.3c-1.1,0-2.2,0-3.6,0c0,1.1,0,2,0,3c0,2,0,3.9,0,5.9
			c0,1.1,0.1,2.1,1.3,2.6c1.2,0.4,2.2,0,3.1-0.8c0.1-0.1,0.3-0.2,0.4-0.3c1.9,1,1.9,3.4,0.1,4.7c-2.3,1.6-4.8,1.5-7.3,0.5
			c-2.3-0.9-3.1-2.9-3.2-5.2c-0.1-3,0-5.9-0.1-8.9c0-0.5,0-0.9,0-1.2c-1.1-0.4-2.1-0.6-3-1.1c-0.3-0.2-0.4-1-0.4-1.5
			C125.2,45,125.6,44.7,128.6,44.2z"/>
		<path class="st0" d="M252.7,54.5c0,2.4,0,4.8,0,7.2c0,2.6-2.3,4-4.6,2.7c-0.6-0.4-1.2-1.5-1.2-2.2c-0.1-5.1-0.1-10.3,0-15.4
			c0-1.8,0.9-2.5,2.8-2.6c2,0,2.9,0.6,3,2.5C252.7,49.3,252.7,51.9,252.7,54.5C252.7,54.5,252.7,54.5,252.7,54.5z"/>
		<path class="st0" d="M102.6,54.4c0,2.5,0,5.1,0,7.6c0,2-0.9,2.8-2.9,2.8c-2,0-2.9-0.8-2.9-2.8c0-5,0-10,0-15.1
			c0-2,0.8-2.8,2.8-2.8c2.1,0,2.9,0.7,2.9,2.8C102.6,49.4,102.6,51.9,102.6,54.4z"/>
		<path class="st0" d="M249.8,41c-2.1,0-3.3-1.1-3.3-2.9c0-1.8,1.2-3,3.3-3c2,0,3.2,1.1,3.2,2.9C253,39.8,251.9,41,249.8,41z"/>
		<path class="st0" d="M99.7,41c-2.1,0-3.3-1.1-3.2-3c0-1.8,1.3-3,3.3-3c2,0,3.2,1.1,3.2,2.9C103,39.8,101.8,41,99.7,41z"/>
		<path class="st0" d="M282.9,51c-1.9,0-3.1-1.3-3-3.3c0-1.9,1.4-3.2,3.2-3.1c1.8,0.1,3.1,1.4,3,3.3C286.1,49.8,284.7,51,282.9,51z
			 M283,45.2c-1.5,0-2.6,1-2.6,2.6c0,1.5,1.1,2.6,2.5,2.6c1.4,0,2.5-1.1,2.5-2.5C285.5,46.4,284.5,45.2,283,45.2z"/>
		<path class="st0" d="M284.1,49.6c0.1-0.1,0.1-0.2,0.2-0.3c-0.1-0.4-0.2-0.8-0.2-1.2c0-0.5,0.3-1.4,0.1-1.4
			c-0.6-0.3-1.4-0.4-2.1-0.4c-0.2,0-0.4,0.8-0.5,1.2c-0.1,0.2-0.1,0.5,0,0.8c0.1,0.4,0.3,0.8,0.4,1.2c0.2-0.3,0.5-0.6,0.7-0.9
			C283.2,48.8,283.6,49.2,284.1,49.6z"/>
		<path class="st0" d="M284.1,49.6c-0.4-0.4-0.9-0.7-1.3-1.1c-0.2,0.3-0.5,0.6-0.7,0.9c-0.1-0.4-0.3-0.8-0.4-1.2
			c-0.1-0.2-0.1-0.5,0-0.8c0.1-0.4,0.3-1.2,0.5-1.2c0.7,0,1.4,0.1,2.1,0.4c0.1,0.1-0.1,0.9-0.1,1.4c0,0.4,0.1,0.8,0.2,1.2
			C284.2,49.4,284.1,49.5,284.1,49.6z"/>
	</g>
</g>
</svg>
