<?xml version="1.0" encoding="utf-8"?>
<!-- Generator: Adobe Illustrator 24.1.0, SVG Export Plug-In . SVG Version: 6.00 Build 0)  -->
<svg version="1.1" id="Ebene_1" xmlns="http://www.w3.org/2000/svg" xmlns:xlink="http://www.w3.org/1999/xlink" x="0px" y="0px"
	 width="300px" height="100px" viewBox="0 0 300 100" style="enable-background:new 0 0 300 100;" xml:space="preserve">
<style type="text/css">
	.st0{fill:#3d3939;}
</style>
<path class="st0" d="M86.9,79.2h1l2.3,6.1l0,0l2.4-6.1h0.9l-2.9,7.5h-0.9L86.9,79.2z"/>
<path class="st0" d="M103.9,80.7c-0.2-0.3-0.5-0.5-0.8-0.7c-0.3-0.2-0.7-0.2-1-0.2c-0.4,0-0.8,0.1-1.1,0.3c-0.3,0.2-0.6,0.4-0.9,0.7
	c-0.3,0.3-0.5,0.6-0.6,1c-0.1,0.4-0.2,0.8-0.2,1.2c0,0.4,0.1,0.8,0.2,1.2c0.1,0.4,0.3,0.7,0.6,1c0.3,0.3,0.6,0.5,0.9,0.7
	c1.2,0.5,2.5,0.2,3.3-0.8l0.7,0.6c-0.3,0.4-0.7,0.8-1.2,1c-0.5,0.2-1.1,0.3-1.6,0.3c-0.5,0-1-0.1-1.5-0.3c-0.5-0.2-0.9-0.5-1.2-0.8
	c-0.3-0.3-0.6-0.8-0.8-1.2c-0.2-0.5-0.3-1-0.3-1.6c0-0.5,0.1-1.1,0.3-1.5c0.4-0.9,1.1-1.7,2-2.1c0.5-0.2,1-0.3,1.5-0.3
	c0.5,0,1,0.1,1.5,0.3c0.5,0.2,0.9,0.5,1.2,0.9L103.9,80.7z"/>
<path class="st0" d="M115.5,80.7c-0.2-0.3-0.5-0.5-0.8-0.7c-0.3-0.2-0.7-0.2-1-0.2c-0.4,0-0.8,0.1-1.1,0.3c-0.3,0.2-0.7,0.4-0.9,0.7
	c-0.3,0.3-0.5,0.6-0.6,1c-0.1,0.4-0.2,0.8-0.2,1.2c0,0.4,0.1,0.8,0.2,1.2c0.1,0.4,0.3,0.7,0.6,1c0.2,0.3,0.6,0.5,0.9,0.7
	c0.8,0.3,1.6,0.3,2.4,0c0.4-0.2,0.7-0.4,0.9-0.8l0.7,0.6c-0.3,0.4-0.7,0.8-1.2,1c-0.5,0.2-1.1,0.3-1.6,0.3c-0.5,0-1-0.1-1.5-0.3
	c-0.5-0.2-0.9-0.5-1.2-0.8c-0.3-0.3-0.6-0.8-0.8-1.2c-0.2-0.5-0.3-1-0.3-1.6c0-0.5,0.1-1.1,0.3-1.5c0.3-0.9,1.1-1.7,2-2.1
	c0.5-0.2,1-0.3,1.5-0.3c0.5,0,1,0.1,1.5,0.3c0.4,0.2,0.8,0.4,1.2,0.8L115.5,80.7z"/>
<path class="st0" d="M129.1,79.2h4.7V80H130v2.3h3.6v0.8H130v2.7h4v0.8h-4.9V79.2z"/>
<path class="st0" d="M141.3,82.7l-2.5-3.5h1.1l2,2.9l2-2.9h1.1l-2.5,3.5l2.7,3.9h-1.2l-2.2-3.3l-2.2,3.3h-1.1L141.3,82.7z"/>
<path class="st0" d="M155.7,80.7c-0.2-0.3-0.5-0.5-0.8-0.7c-0.3-0.2-0.7-0.2-1-0.2c-0.4,0-0.8,0.1-1.1,0.3c-0.3,0.2-0.7,0.4-0.9,0.7
	c-0.3,0.3-0.5,0.6-0.6,1c-0.1,0.4-0.2,0.8-0.2,1.2c0,0.4,0.1,0.8,0.2,1.2c0.1,0.4,0.3,0.7,0.6,1c0.2,0.3,0.6,0.5,0.9,0.7
	c0.8,0.3,1.6,0.3,2.4,0c0.4-0.2,0.7-0.4,0.9-0.8l0.7,0.6c-0.3,0.4-0.7,0.8-1.2,1c-0.5,0.2-1.1,0.3-1.6,0.3c-0.5,0-1-0.1-1.5-0.3
	c-0.5-0.2-0.9-0.5-1.2-0.8c-0.3-0.3-0.6-0.8-0.8-1.2c-0.2-0.5-0.3-1-0.3-1.6c0-0.5,0.1-1.1,0.3-1.5c0.2-0.5,0.4-0.9,0.8-1.2
	c0.7-0.7,1.7-1.1,2.7-1.1c0.5,0,1,0.1,1.5,0.3c0.5,0.2,0.9,0.5,1.2,0.9L155.7,80.7z"/>
<path class="st0" d="M162.1,79.2h0.9v3.2h4v-3.2h0.9v7.5H167v-3.5h-4v3.5h-0.9V79.2z"/>
<path class="st0" d="M176.3,79.2h0.8l3.2,7.5h-1l-0.8-1.8h-3.7l-0.8,1.8h-1L176.3,79.2z M176.7,80.3L176.7,80.3l-1.6,3.7h3
	L176.7,80.3z"/>
<path class="st0" d="M185.6,79.2h1.1l4.3,6.2l0,0v-6.2h0.9v7.5h-1.2l-4.3-6.2l0,0v6.2h-0.9L185.6,79.2z"/>
<path class="st0" d="M204.3,86.2c-0.4,0.2-0.9,0.4-1.4,0.5c-0.5,0.1-1,0.2-1.4,0.2c-0.5,0-1.1-0.1-1.6-0.3c-0.5-0.2-0.9-0.5-1.3-0.8
	c-0.4-0.3-0.6-0.8-0.8-1.2c-0.2-0.5-0.3-1.1-0.3-1.6c0-0.6,0.1-1.1,0.3-1.6c0.2-0.5,0.5-0.9,0.9-1.2c0.4-0.3,0.8-0.6,1.3-0.8
	c0.5-0.2,1-0.3,1.6-0.3c0.5,0,1,0.1,1.4,0.2c0.5,0.2,0.9,0.4,1.2,0.8l-0.7,0.7c-0.3-0.3-0.6-0.5-0.9-0.6c-0.4-0.1-0.7-0.2-1.1-0.2
	c-0.4,0-0.8,0.1-1.2,0.2c-0.4,0.1-0.7,0.4-1,0.6c-0.3,0.3-0.5,0.6-0.6,1c-0.2,0.4-0.2,0.8-0.2,1.2c0,0.4,0.1,0.8,0.2,1.2
	c0.1,0.4,0.3,0.7,0.6,1c0.3,0.3,0.6,0.5,1,0.7c0.4,0.2,0.8,0.2,1.3,0.2c0.3,0,0.6,0,0.9-0.1c0.3-0.1,0.6-0.2,0.9-0.3v-2.3h-1.7v-0.9
	h2.6L204.3,86.2z"/>
<path class="st0" d="M210.4,79.2h4.7V80h-3.8v2.3h3.6v0.8h-3.6v2.7h4v0.8h-4.9L210.4,79.2z"/>
<path class="st0" d="M141.2,32.3L141.2,32.3L141.2,32.3L141.2,32.3z"/>
<path class="st0" d="M203.8,46.5c-4.8,4.8-12.6,4.8-17.4,0c-1.6-1.6-2.7-3.5-3.2-5.7l-7.3,13.7c9.3,10.6,25.4,11.7,36,2.5
	c0.4-0.4,0.9-0.8,1.3-1.2L203.8,46.5z"/>
<path class="st0" d="M171.3,21.4L171.3,21.4c0.1-0.1,0.1-0.2,0.2-0.4c-9.3-10.6-25.4-11.7-36-2.4c-2.4,2.1-4.4,4.6-5.9,7.5l0,0
	l-19.9,37.3h15l6.2-11.6l10.3-19.4l0-0.1c3-6.1,10.4-8.5,16.5-5.5c3.2,1.6,5.5,4.5,6.4,8L171.3,21.4z"/>
<path class="st0" d="M195.1,12.2c-9.6,0-18.3,5.3-22.7,13.8l0,0l-8.7,16.3c-0.3,0.8-0.8,1.6-1.3,2.4c-3.8,5.6-11.5,7-17.1,3.2
	c-2.5-1.7-4.3-4.2-5-7.2l-7.4,13.7c4.8,5.6,11.9,8.8,19.3,8.8h0.3c9.9-0.1,18.8-5.9,23-14.9l8.6-16.1v-0.1c3-6.1,10.4-8.5,16.5-5.5
	c1.2,0.6,2.3,1.4,3.2,2.3l9.3-9.3C208.4,14.9,201.9,12.2,195.1,12.2z"/>
<polygon class="st0" points="115.4,45.9 98,13.3 83,13.3 107.9,60 "/>
</svg>
