<?xml version="1.0" encoding="utf-8"?>
<!-- Generator: Adobe Illustrator 24.3.0, SVG Export Plug-In . SVG Version: 6.00 Build 0)  -->
<svg version="1.1" id="Layer_1" xmlns="http://www.w3.org/2000/svg" xmlns:xlink="http://www.w3.org/1999/xlink" x="0px" y="0px"
	 viewBox="0 0 512 512" style="enable-background:new 0 0 512 512;" xml:space="preserve">
<style type="text/css">
	.st0{fill-rule:evenodd;clip-rule:evenodd;fill:#CBDBE8;}
	.st1{fill-rule:evenodd;clip-rule:evenodd;fill:#DFEBF2;}
	.st2{fill:#99A4AA;stroke:#000000;stroke-width:5;stroke-linecap:round;stroke-linejoin:round;stroke-miterlimit:10;}
	.st3{fill:#DFEBF2;stroke:#000000;stroke-width:5;stroke-linecap:round;stroke-linejoin:round;stroke-miterlimit:10;}
	.st4{fill-rule:evenodd;clip-rule:evenodd;fill:#DFEBF2;stroke:#000000;stroke-width:5;stroke-miterlimit:10;}
	
		.st5{fill-rule:evenodd;clip-rule:evenodd;fill:#99A4AA;stroke:#000000;stroke-width:5;stroke-linecap:round;stroke-linejoin:round;stroke-miterlimit:10;}
</style>
<circle class="st0" cx="256" cy="256" r="250"/>
<path id="Fill-3" class="st3" d="M305.7,303.5c-12.5,0-22.6-10.2-22.6-22.6c0-12.5,10.2-22.6,22.6-22.6s22.6,10.2,22.6,22.6
	C328.3,293.3,318.1,303.5,305.7,303.5 M309.6,340.6c-15.4,15.4-45,16.6-53.7,16.6s-38.3-1.2-53.7-16.6c-2.3-2.3-2.3-6,0-8.3
	c2.3-2.3,6-2.3,8.3,0c9.7,9.7,30.5,13.2,45.4,13.2c14.8,0,35.7-3.5,45.4-13.2c2.3-2.3,6-2.3,8.3,0
	C311.9,334.6,311.9,338.3,309.6,340.6 M183.6,280.9c0-12.5,10.2-22.6,22.6-22.6c12.5,0,22.6,10.2,22.6,22.6s-10.2,22.6-22.6,22.6
	C193.8,303.5,183.6,293.3,183.6,280.9 M400.5,258.3c0-17.5-14.1-31.6-31.6-31.6c-8.5,0-16.3,3.4-22,8.9
	c-21.6-15.6-51.4-25.7-84.6-26.9l14.4-67.8l47.1,10c0.6,12,10.4,21.5,22.5,21.5c12.5,0,22.6-10.1,22.6-22.6s-10.1-22.6-22.6-22.6
	c-8.9,0-16.5,5.2-20.2,12.6l-52.6-11.2c-1.5-0.3-3,0-4.3,0.8c-1.3,0.8-2.1,2.1-2.4,3.6l-15.8,74.4c-0.1,0.4,0,0.8,0,1.3
	c-33.8,0.9-64.2,11-86.1,26.8c-5.7-5.5-13.4-8.8-21.9-8.8c-17.5,0-31.6,14.2-31.6,31.6c0,12.8,7.7,23.9,18.7,28.9
	c-0.5,3.1-0.7,6.3-0.7,9.6c0,48.7,56.7,88.1,126.6,88.1s126.6-39.4,126.6-88.1c0-3.2-0.3-6.4-0.7-9.5
	C392.8,282.2,400.5,271.2,400.5,258.3"/>
</svg>
