<?xml version="1.0" encoding="utf-8"?>
<!-- Generator: Adobe Illustrator 21.1.0, SVG Export Plug-In . SVG Version: 6.00 Build 0)  -->
<svg version="1.1" id="Ebene_1" xmlns="http://www.w3.org/2000/svg" xmlns:xlink="http://www.w3.org/1999/xlink" x="0px" y="0px"
	 width="300px" height="100px" viewBox="0 0 300 100" style="enable-background:new 0 0 300 100;" xml:space="preserve">
<style type="text/css">
	.st0{fill:#3d3939;}
</style>
<g id="_x37_gqjbO.tif">
	<g>
		<path class="st0" d="M106.9,70.7c-5.4-0.1-9.9-1.1-14-3.6c-1.5-0.9-1.7-1.5-1-3.1c0.4-1,0.8-2.1,1.2-3.1c0.6-1.5,1.6-1.8,3-1
			c3.9,2.3,8.1,3.4,12.7,2.7c0.8-0.1,1.7-0.4,2.5-0.7c1.4-0.6,2.3-1.7,2.3-3.3c0.1-1.6-0.7-2.8-2-3.3c-2-0.9-4.1-1.5-6.2-2.2
			c-2.1-0.7-4.3-1.2-6.3-2c-4.2-1.7-6.8-4.7-7.1-9.4c-0.3-5.1,1.5-9.1,6-11.8c2.7-1.6,5.8-2.2,8.9-2.3c4.2-0.1,8.2,0.6,12,2.6
			c1.5,0.8,1.7,1.4,1.2,3c-0.4,1.1-0.8,2.2-1.2,3.2c-0.6,1.5-1.4,1.9-2.9,1.2c-2.8-1.4-5.8-2.3-9-2.1c-1.3,0.1-2.7,0.4-3.9,0.8
			c-1.6,0.6-2.5,1.9-2.5,3.7c0,1.7,0.9,2.8,2.4,3.4c2.4,0.9,4.8,1.5,7.2,2.3c1.8,0.6,3.6,1,5.3,1.8c6.3,2.7,8.6,9.4,5.6,15.6
			c-2.1,4.3-5.8,6.3-10.4,7.2C109.3,70.6,107.8,70.6,106.9,70.7z"/>
		<path class="st0" d="M215.8,41.6c1.8-1.9,3.7-3.1,6-3.7c8.2-2,14.9,2.8,15.3,11.4c0.3,6.3,0.1,12.6,0.1,18.9
			c0,1.1-0.6,1.7-1.8,1.7c-1.5,0-3,0-4.5,0c-1.4,0-2-0.6-2-2.1c0-4.8,0-9.7,0-14.5c0-1.2-0.1-2.5-0.4-3.6c-0.6-2.5-2.2-3.9-4.7-4.1
			c-2.6-0.3-4.8,0.6-6.2,2.9c-1,1.6-1.3,3.4-1.3,5.3c0,4.5,0,9.1,0,13.6c0,2-0.5,2.5-2.5,2.5c-1.3,0-2.5,0-3.8,0
			c-1.5,0-2.1-0.6-2.1-2.1c0-9.3,0-18.6,0-27.9c0-1.4,0.6-2,2-2c1.2,0,2.4,0,3.6,0c1.9,0,2.4,0.5,2.4,2.4
			C215.8,40.6,215.8,40.9,215.8,41.6z"/>
		<path class="st0" d="M157.9,45.9c-0.9,0-1.7,0-2.5,0c-1.2-0.1-1.8-0.6-1.8-1.9c0-1.1,0-2.3,0-3.4c0-1.3,0.6-1.9,1.9-1.9
			c0.8,0,1.5,0,2.5,0c0-0.8,0-1.4,0-2.1c0-1,0.4-1.6,1.2-2.1c1.4-0.7,2.8-1.4,4.3-2.2c1.7-0.8,2.9-0.1,2.9,1.8c0,0.7,0,1.5,0,2.2
			c0,0.7,0,1.4,0,2.3c1.6,0,3.1,0,4.6,0c2,0,2.5,0.5,2.5,2.5c0,0.9,0,1.8,0,2.7c0,1.4-0.6,2-2,2c-1.6,0-3.3,0-5.1,0
			c0,0.5,0,0.9,0,1.2c0,3.9,0,7.9,0,11.8c0,3.3,1.9,4.7,5.1,3.9c1.5-0.4,2.1,0,2.6,1.4c0.3,0.8,0.6,1.7,0.9,2.5
			c0.5,1.5,0.1,2.2-1.3,2.8c-8.2,3.5-15.6-1.3-15.7-10.2c0-4.1,0-8.2,0-12.3C158,46.8,157.9,46.4,157.9,45.9z"/>
		<path class="st0" d="M270.3,38c-1.4-0.1-2.9-0.1-4.3,0c-1.2,0-1.8,0.7-1.8,2c0,0.5,0,1.1,0,1.8c-0.9-0.8-1.6-1.6-2.5-2.1
			c-0.9-0.6-1.8-1.1-2.8-1.4c-6.2-2.1-13.2,0.6-16.4,6.3c-2.2,3.9-2.6,8-1.8,12.3c1.3,7,7,11.6,14.1,11.6c3.4,0,6.4-1.1,9-3.8
			c0,1,0,1.7,0,2.4c-0.3,4.7-2.8,7.2-7.5,7.4c-3.2,0.2-6.2-0.6-9.1-2.2c-1.6-0.9-2.4-0.7-3.2,1c-0.3,0.7-0.7,1.3-1,2
			c-1.1,2.2-1,2.8,1.2,4c4.9,2.7,10.3,3.2,15.7,2.4c5.8-0.8,9.7-4.1,11.3-9.8c0.4-1.6,0.8-3.2,0.8-4.8c0.1-9,0.1-18.1,0.1-27.1
			C272.1,38.7,271.5,38,270.3,38z M256.2,60.8c-4.4,0-7.5-3.3-7.5-7.8c0-4.5,3.2-7.8,7.5-7.8c4.4,0,7.5,3.2,7.5,7.8
			C263.8,57.6,260.7,60.8,256.2,60.8z"/>
		<path class="st0" d="M151.2,50.4c0-3-0.7-5.8-2.5-8.2c-2.2-3-5.4-4.2-9-4.6c-4.6-0.4-9,0.3-13,2.6c-1.3,0.7-1.5,1.5-0.9,2.8
			c0.4,0.9,0.8,1.7,1.2,2.6c0.7,1.4,1.5,1.7,3,1c1.9-1,3.9-1.5,6.1-1.7c4.3-0.2,7,2.2,6.8,6.2c-1.8,0-3.6-0.1-5.4,0
			c-2,0.1-4.1,0.1-6.1,0.5c-4.8,1-7.4,4.2-7.4,8.9c0,4.8,2.7,8.5,7.4,9.5c4.5,0.9,8.7,0.6,12-3.6c0,0.5,0.1,0.8,0.1,1.1
			c0,1.9,0.5,2.4,2.4,2.4c1.2,0,2.4,0,3.6,0c1.3,0,1.9-0.6,1.9-1.9C151.2,62.2,151.3,56.3,151.2,50.4z M135.1,63.9
			c-1.8-0.5-3-1.9-3-3.7c0-1.9,1.1-3.2,3.2-3.4c2.5-0.2,4.9,0,7.5,0C143.5,61.8,139.8,65.2,135.1,63.9z"/>
		<path class="st0" d="M203.8,51c0-2.7-0.5-5.4-1.9-7.8c-2.1-3.7-5.6-5.2-9.7-5.6c-4.6-0.4-9,0.3-13,2.6c-1.3,0.8-1.5,1.5-0.9,2.8
			c0.4,0.8,0.8,1.6,1.1,2.4c0.7,1.6,1.6,1.8,3.1,1c2.4-1.3,5-1.8,7.7-1.5c3.3,0.3,5.3,2.7,5.1,6.1c-0.8,0-1.7,0-2.5,0
			c-3,0.2-6,0.1-8.9,0.6c-3.4,0.6-6.1,2.5-7,6.1c-0.9,3.6-0.4,6.9,2.3,9.8c3.6,3.8,13.4,4.1,16.4-0.8c0-0.1,0.2-0.1,0.4-0.1
			c0,0.4,0,0.6,0,0.9c0,1.9,0.5,2.4,2.4,2.4c1.1,0,2.2,0,3.3,0c1.6,0,2.1-0.5,2.2-2.1C203.8,62.2,203.8,56.6,203.8,51z M187.6,63.9
			c-1.9-0.5-3-1.9-3-3.7c0-1.8,1.1-3.2,3.1-3.4c2.5-0.2,5-0.1,7.6-0.1C196.1,61.7,192.4,65.2,187.6,63.9z"/>
	</g>
</g>
<g>
	<path class="st0" d="M48.6,67.9l-0.1-0.1c-0.1-0.1-8-7.9-8-7.9l-7.8,7.7L32.3,68c-2,2.1-3,4.8-3,7.7c0,6.2,5,11.2,11.2,11.2
		s11.2-5,11.2-11.2C51.7,72.8,50.6,70.1,48.6,67.9z"/>
	<path class="st0" d="M67.7,48.9c-1.2-1.2-2.4-2.4-3.6-3.6c-4.8-4.8-9.6-9.5-14.3-14.3c-2.2-2.3-5-8-2.2-13.5
		c0.4-0.9,0.8-1.8,1.3-2.6c0,0-0.6,0.6-0.6,0.6c-2.9,2.9-5.8,5.8-8.8,8.7c-2.6,2.6-5.2,5.2-7.6,7.7c-4.7,4.9-4.3,12.5,0.5,17.3
		c1.2,1.2,2.4,2.4,3.6,3.6c4.8,4.8,9.6,9.5,14.3,14.3c2.2,2.3,4.6,7.6,2.2,13.5c-0.4,0.9-0.8,1.8-1.3,2.6c0,0,0.6-0.6,0.6-0.6
		c2.9-2.9,5.8-5.8,8.8-8.7c2.6-2.6,5.2-5.2,7.6-7.7C72.8,61.3,72.4,53.7,67.7,48.9z"/>
</g>
<path class="st0" d="M51.3,30.3l0.1,0.1c0.1,0.1,8,7.9,8,7.9l7.8-7.7l0.4-0.4c2-2.1,3-4.8,3-7.7c0-6.2-5-11.2-11.2-11.2
	s-11.2,5-11.2,11.2C48.2,25.4,49.3,28.2,51.3,30.3z"/>
</svg>
