<?xml version="1.0" encoding="utf-8"?>
<!-- Generator: Adobe Illustrator 24.1.0, SVG Export Plug-In . SVG Version: 6.00 Build 0)  -->
<svg version="1.1" id="Ebene_1" xmlns="http://www.w3.org/2000/svg" xmlns:xlink="http://www.w3.org/1999/xlink" x="0px" y="0px"
	 width="300px" height="100px" viewBox="0 0 300 100" style="enable-background:new 0 0 300 100;" xml:space="preserve">
<style type="text/css">
	.st0{fill:#3d3939;}
</style>
<g id="Bmubyb.tif">
	<g>
		<path class="st0" d="M210.2,15.8c8,0,16.1,0,24.1,0c4.3,0,9.5,0,13.7,0c0.9,0,1.5,0.1,2.3,0.5c1,0.6,1.4,1.6,1.3,3
			c-0.1,2.2-0.1,4.4-0.1,6.6c0,1.7-0.9,3.4-2.6,3.4c-1.8,0-3.5,0-5.3,0c-11.8,0-23.6,0.1-35.4,0c-1.8,0-2.6,0-4.5,0
			c-1.8,0-2.6-1.2-2.8-2.2c-0.2-1.3-0.2-2.6-0.2-3.9c0-1.5,0.1-3,0-4.4c-0.1-1.5,1.2-3.1,2.7-3.1c1.4,0,2.4,0,3.6,0
			C207.9,15.8,209.8,15.8,210.2,15.8z"/>
		<path class="st0" d="M143.2,51.1c0,10.2,0,20.4,0,30.7c0,1.2-0.5,2.1-1.4,2.8c-0.2,0.2-0.5,0.3-0.8,0.3c-2.9,0-5.7,0.1-8.6,0
			c-1.5-0.1-2.6-1.2-3.4-2.4c-2.2-3.3-4.3-6.7-6.4-10.1c-1.6-2.6-3.3-5.2-4.9-7.7c-1.5-2.4-3-4.8-4.5-7.3c-1.9-3-3.8-6-5.7-9
			c-1.3-2-2.6-4.1-4-6.1c-0.1-0.2-0.4-0.3-0.7-0.5c-0.1,0.3-0.4,0.6-0.4,0.8c-0.1,0.8,0,1.6,0,2.4c-0.2,8.4-0.3,16.7-0.5,25.1
			c0,0.6,0.2,1.4-0.7,1.6c-0.8,0.2-1.3-0.2-1.7-0.9c-2.7-4.3-5.4-8.6-8.1-13c-1.1-1.7-2.1-3.4-3.1-5.2c-0.3-0.5-0.5-1.2-0.5-1.8
			c0.1-6.9,0.3-13.8,0.5-20.7c0.1-3.1,0.1-6.2,0.2-9.4c0-0.9,0.1-1.7,0.1-2.6c0.1-1.1,0.6-1.8,1.7-1.8c3.1-0.1,6.3-0.2,9.4-0.1
			c2,0,3,1.4,3.9,3c1.7,2.8,3.4,5.6,5.1,8.4c3.2,5.2,6.4,10.4,9.7,15.6c2.2,3.4,4.4,6.8,6.6,10.3c0.9,1.5,1.9,3,2.8,4.4
			c0.2,0.3,0.6,0.4,0.9,0.7c0.1-0.3,0.3-0.7,0.3-1c0-3.4,0-6.7-0.1-10.1c0-9.3-0.1-18.6-0.1-27.8c0-2.5,1.1-3.7,3.6-3.6
			c2.3,0,4.7-0.2,7,0c2.5,0.2,3.6,1.8,3.6,4.3C143.2,30.4,143.3,51.1,143.2,51.1z"/>
		<path class="st0" d="M164.2,84.1c-4,0-7.9,0-11.9,0c-0.8,0-1.7-0.1-2.5-0.2c-1.3-0.1-2.4-1.2-2.5-2.8c-0.1-2.5-0.1-5,0-7.5
			c0.1-1.7,1.3-2.7,3.1-2.7c6.8,0,13.6,0,20.4,0c1.8,0,3.7,0,5.5-0.2c1.8-0.2,3.6-0.7,5.1-1.8c2.1-1.5,3-5.3,1.7-7.7
			c-1.3-2.4-3.4-3.9-6.1-4.2c-3-0.4-6-0.5-8.9-0.6c-5.7-0.1-11.4,0-17.1,0c-2.7,0-3.8-1.1-3.8-3.7c0-2.2,0.1-4.5,0.2-6.7
			c0-1,0.6-1.8,1.6-2.2c0.6-0.2,1.3-0.3,2-0.4c5.5,0,10.9,0,16.4-0.1c1.9,0,3.8,0,5.8-0.1c2.8-0.1,5.1-1.3,6.8-3.7
			c0.9-1.3,0.8-2.8,0.6-4.2c-0.3-2.5-1.7-4.4-4.1-5.4c-0.4-0.1-0.8-0.3-1.2-0.3c-3.9-0.5-7.9-0.2-11.8-0.2c-3-0.1-9.6,0.1-12.5,0
			c-1.7,0-3.5-1.7-3.6-2.9c-0.1-2.7-0.1-4.4,0-7.1c0-2.5,2.6-3.5,3.8-3.5c6.4,0,14.7,0,21.2,0c3.4,0,6.8,0.5,10,1.8
			c5.4,2.2,9.3,6.1,11.3,11.6c0.5,1.4,0.6,2.9,0.7,4.3c0.2,2.8,0.2,5.7-0.6,8.4c-0.3,1.1-0.9,2.1-1.5,3.1c-0.6,1-1.3,2-2,2.9
			c-0.5,0.6-0.5,1.2,0.2,1.6c2.5,1.6,4.1,4,5.3,6.6c2.3,4.9,2.4,9.9,0.6,15c-1.4,3.9-3.9,6.9-7.4,8.9c-4.4,2.6-9.1,3.9-14.2,3.9
			C171.1,84.1,167.7,84,164.2,84.1C164.2,84,164.2,84,164.2,84.1z"/>
		<path class="st0" d="M94.9,84.8c-0.5,0-0.9-0.1-1.4,0c-3.5,0.5-5.6-1.4-7.2-4.2c-2.7-4.6-5.6-9.2-8.4-13.7
			c-2.8-4.5-5.5-8.9-8.3-13.4c-2.1-3.3-4.2-6.6-6.3-9.9c-2.5-4-4.9-7.9-7.3-11.9c-1-1.7-2.1-3.3-3.1-4.9c-1.3-2.1-2.6-4.2-3.9-6.4
			c-0.3-0.6-0.5-1.3-0.5-2c0-1.5,0.5-2,2-2.1c2.3-0.1,4.6-0.2,6.8-0.3c2.7-0.1,4.6,0.9,6,3.4c1.7,3.2,3.8,6.3,5.8,9.4
			c1.7,2.8,3.4,5.7,5.2,8.5c2.8,4.6,5.7,9.1,8.5,13.7c2.7,4.4,5.3,8.9,8.1,13.3c1.4,2.3,3.1,4.6,4.5,6.9c1.7,2.8,3.3,5.7,5,8.5
			c0.4,0.7,0.7,1.4,1,2.1c0.5,1.3-1.2,3.1-2.4,3c-0.1,0-0.2,0-0.3,0C97.2,84.8,96,84.8,94.9,84.8C94.9,84.8,94.9,84.8,94.9,84.8z"/>
		<path class="st0" d="M214.5,68.4c0,3.7,0,7.4,0,11.1c0,1.1-0.1,2.2-0.6,3.1c-0.4,0.7-1.4,1.2-2.2,1.3c-2.4,0.2-4.8,0.1-7.3,0
			c-1.6,0-2.7-0.8-2.8-2.4c-0.2-2-0.3-4.1-0.3-6.1c0-4.8,0-9.5,0-14.3c0-5.1,0.1-10.1-0.1-15.2c-0.1-2.9,1.9-4.3,4.3-4.3
			c2.9,0,5.7,0,8.6,0c8.7,0,17.4,0,26.2,0c0.6,0,1.2,0,1.7,0.1c1.8,0.5,2.8,1.5,2.8,3.4c0,2.6,0.1,5.6-0.1,8.1
			c-0.1,1-1.2,1.9-2.5,1.9c-1.8,0.1-20.7-0.1-26-0.1c-1.3,0-1.5,0.3-1.5,1.6C214.4,60.6,214.4,64.5,214.5,68.4
			C214.5,68.4,214.5,68.4,214.5,68.4z"/>
	</g>
</g>
</svg>
