<svg width="1500" height="1500" viewBox="0 0 1500 1500" fill="none" xmlns="http://www.w3.org/2000/svg">
<path d="M1350 150H750V750H1350V150Z" fill="#C5D1DA"/>
<path d="M750 750H150V1350H750V750Z" fill="#DFEBF2"/>
<path d="M1050 750C1215.69 750 1350 615.685 1350 450C1350 284.315 1215.69 150 1050 150C884.315 150 750 284.315 750 450C750 615.685 884.315 750 1050 750Z" fill="#DFEBF2"/>
<path d="M450 1350C615.685 1350 750 1215.69 750 1050C750 884.315 615.685 750 450 750C284.315 750 150 884.315 150 1050C150 1215.69 284.315 1350 450 1350Z" fill="#CBDBE8"/>
<path d="M1050 1200C1132.84 1200 1200 1132.84 1200 1050C1200 967.157 1132.84 900 1050 900C967.157 900 900 967.157 900 1050C900 1132.84 967.157 1200 1050 1200Z" fill="#DFEBF2" stroke="black" stroke-width="5" stroke-linecap="round" stroke-linejoin="round"/>
<path d="M450 600C532.843 600 600 532.843 600 450C600 367.157 532.843 300 450 300C367.157 300 300 367.157 300 450C300 532.843 367.157 600 450 600Z" fill="#C9D3DC" stroke="black" stroke-width="5" stroke-linecap="round" stroke-linejoin="round"/>
<path d="M900.94 413.88C903.554 419.599 907.759 424.445 913.054 427.838C918.348 431.231 924.507 433.027 930.796 433.012C937.084 432.998 943.235 431.172 948.513 427.755C953.791 424.337 957.974 419.472 960.56 413.74V413.74C963.178 408.032 967.378 403.195 972.664 399.805C977.949 396.414 984.096 394.611 990.375 394.611C996.655 394.611 1002.8 396.414 1008.09 399.805C1013.37 403.195 1017.57 408.032 1020.19 413.74V413.74C1022.81 419.448 1027.01 424.285 1032.29 427.675C1037.58 431.066 1043.73 432.869 1050.01 432.869C1056.28 432.869 1062.43 431.066 1067.72 427.675C1073 424.285 1077.2 419.448 1079.82 413.74V413.74C1082.44 408.032 1086.64 403.195 1091.92 399.805C1097.21 396.414 1103.36 394.611 1109.64 394.611C1115.91 394.611 1122.06 396.414 1127.35 399.805C1132.63 403.195 1136.83 408.032 1139.45 413.74C1142.07 419.448 1146.27 424.286 1151.55 427.677C1156.83 431.069 1162.98 432.872 1169.26 432.872C1175.54 432.872 1181.69 431.069 1186.97 427.677C1192.26 424.286 1196.45 419.448 1199.07 413.74" stroke="black" stroke-width="5" stroke-linecap="round" stroke-linejoin="round"/>
<path d="M900.94 486.38C903.554 492.099 907.759 496.945 913.054 500.338C918.348 503.731 924.507 505.527 930.796 505.512C937.084 505.498 943.235 503.672 948.513 500.255C953.791 496.837 957.974 491.972 960.56 486.24V486.24C963.178 480.532 967.378 475.695 972.664 472.305C977.949 468.914 984.096 467.111 990.375 467.111C996.655 467.111 1002.8 468.914 1008.09 472.305C1013.37 475.695 1017.57 480.532 1020.19 486.24V486.24C1022.81 491.948 1027.01 496.785 1032.29 500.175C1037.58 503.566 1043.73 505.369 1050.01 505.369C1056.28 505.369 1062.43 503.566 1067.72 500.175C1073 496.785 1077.2 491.948 1079.82 486.24V486.24C1082.44 480.532 1086.64 475.695 1091.92 472.305C1097.21 468.914 1103.36 467.111 1109.64 467.111C1115.91 467.111 1122.06 468.914 1127.35 472.305C1132.63 475.695 1136.83 480.532 1139.45 486.24C1142.07 491.948 1146.27 496.786 1151.55 500.177C1156.83 503.569 1162.98 505.372 1169.26 505.372C1175.54 505.372 1181.69 503.569 1186.97 500.177C1192.26 496.786 1196.45 491.948 1199.07 486.24" stroke="black" stroke-width="5" stroke-linecap="round" stroke-linejoin="round"/>
<path d="M300.94 1013.86V1013.81C300.94 1013.86 332.54 1032.89 332.54 1032.89L360.54 1013.68L388.54 994.6L420.14 1013.68L451.74 1032.76C451.74 1032.76 479.74 1013.76 479.74 1013.68L507.74 994.6L539.34 1013.68L570.94 1032.76L598.94 1013.68" stroke="black" stroke-width="5" stroke-linecap="round" stroke-linejoin="round"/>
<path d="M300.94 1086.41V1086.36C300.94 1086.41 332.54 1105.44 332.54 1105.44L360.54 1086.23L388.54 1067.15L420.14 1086.23L451.74 1105.31C451.74 1105.31 479.74 1086.31 479.74 1086.23L507.74 1067.15L539.34 1086.23L570.94 1105.31L598.94 1086.23" stroke="black" stroke-width="5" stroke-linecap="round" stroke-linejoin="round"/>
<path d="M620.69 904.83C634.498 904.83 645.69 893.637 645.69 879.83C645.69 866.023 634.498 854.83 620.69 854.83C606.883 854.83 595.69 866.023 595.69 879.83C595.69 893.637 606.883 904.83 620.69 904.83Z" fill="#BB3437"/>
<path d="M620.69 904.83C634.498 904.83 645.69 893.637 645.69 879.83C645.69 866.023 634.498 854.83 620.69 854.83C606.883 854.83 595.69 866.023 595.69 879.83C595.69 893.637 606.883 904.83 620.69 904.83Z" stroke="black" stroke-width="5" stroke-miterlimit="10"/>
<path d="M620.69 645.17C634.498 645.17 645.69 633.977 645.69 620.17C645.69 606.363 634.498 595.17 620.69 595.17C606.883 595.17 595.69 606.363 595.69 620.17C595.69 633.977 606.883 645.17 620.69 645.17Z" fill="#BB3437"/>
<path d="M620.69 645.17C634.498 645.17 645.69 633.977 645.69 620.17C645.69 606.363 634.498 595.17 620.69 595.17C606.883 595.17 595.69 606.363 595.69 620.17C595.69 633.977 606.883 645.17 620.69 645.17Z" stroke="black" stroke-width="5" stroke-miterlimit="10"/>
<path d="M879.31 904.83C893.117 904.83 904.31 893.637 904.31 879.83C904.31 866.023 893.117 854.83 879.31 854.83C865.502 854.83 854.31 866.023 854.31 879.83C854.31 893.637 865.502 904.83 879.31 904.83Z" fill="#BB3437"/>
<path d="M879.31 904.83C893.117 904.83 904.31 893.637 904.31 879.83C904.31 866.023 893.117 854.83 879.31 854.83C865.502 854.83 854.31 866.023 854.31 879.83C854.31 893.637 865.502 904.83 879.31 904.83Z" stroke="black" stroke-width="5" stroke-miterlimit="10"/>
<path d="M879.31 645.17C893.117 645.17 904.31 633.977 904.31 620.17C904.31 606.363 893.117 595.17 879.31 595.17C865.502 595.17 854.31 606.363 854.31 620.17C854.31 633.977 865.502 645.17 879.31 645.17Z" fill="#BB3437"/>
<path d="M879.31 645.17C893.117 645.17 904.31 633.977 904.31 620.17C904.31 606.363 893.117 595.17 879.31 595.17C865.502 595.17 854.31 606.363 854.31 620.17C854.31 633.977 865.502 645.17 879.31 645.17Z" stroke="black" stroke-width="5" stroke-miterlimit="10"/>
<path d="M645.69 620.17H855" stroke="black" stroke-width="5" stroke-miterlimit="10"/>
<path d="M620.69 645.17V854.83" stroke="black" stroke-width="5" stroke-miterlimit="10"/>
<path d="M645.69 879.83H854.31" stroke="black" stroke-width="5" stroke-miterlimit="10"/>
<path d="M879.31 645.17V854.83" stroke="black" stroke-width="5" stroke-miterlimit="10"/>
<path d="M529.963 454.229C529.963 490.61 486.546 520.549 448.897 520.549C411.248 520.549 368.752 492.836 368.752 456.454C368.752 420.072 411.248 388.353 448.897 388.353C486.546 388.353 529.963 417.847 529.963 454.229Z" fill="#ED8D47"/>
<path d="M523.514 376.335C553.192 367.077 536.931 416.664 520.382 439.985L478.375 398.427C484.194 396.674 493.836 385.594 523.514 376.335Z" fill="#ED8D47"/>
<path d="M376.486 376.138C346.808 366.88 363.069 416.466 379.618 439.788L421.625 398.23C415.806 396.477 406.164 385.396 376.486 376.138Z" fill="#ED8D47"/>
<path d="M379.932 384.2C360.634 378.157 371.208 410.521 381.969 425.742L409.284 398.619C405.5 397.474 399.23 390.242 379.932 384.2Z" fill="#EC6E5D"/>
<path d="M521.546 384.2C540.844 378.157 530.27 410.521 519.509 425.742L492.193 398.619C495.977 397.474 502.247 390.242 521.546 384.2Z" fill="#EC6E5D"/>
<path d="M529.86 476.929C522.754 500.964 488.231 525 449.946 525C411.661 525 380.625 508.531 369.57 476.929C359.437 455.564 411.661 454.674 449.946 454.674C488.231 454.674 536.309 455.119 529.86 476.929Z" fill="#FFF6C5"/>
<ellipse cx="450.176" cy="480.49" rx="45.5998" ry="44.0653" fill="#FFF6C5"/>
<path d="M452.922 459.125C460.111 459.125 466.117 452.475 460.948 447.479V447.479C457.752 444.391 453.417 442.656 448.897 442.656C444.377 442.656 440.042 444.391 436.846 447.479V447.479C431.676 452.475 437.682 459.125 444.872 459.125L448.897 459.125H452.922Z" fill="#454545"/>
<path d="M449.357 453.338V475.593" stroke="#454545" stroke-width="5" stroke-linecap="round"/>
<path d="M415.899 421.078C423.026 420.107 428.021 412.713 422.177 408.462V408.462C418.566 405.835 414.023 404.702 409.547 405.312C405.072 405.922 401.03 408.225 398.312 411.714V411.714C393.913 417.361 400.829 423.132 407.955 422.161L411.927 421.619L415.899 421.078Z" fill="#FFF6C5"/>
<ellipse cx="409.054" cy="437.982" rx="11.7454" ry="15.3561" fill="#454545"/>
<ellipse rx="5.98277" ry="8.01913" transform="matrix(0.987952 -0.15476 0.165435 0.986221 411.901 434.934)" fill="white"/>
<path d="M485.828 421.108C478.702 420.136 473.707 412.742 479.551 408.492V408.492C483.162 405.865 487.705 404.732 492.18 405.342C496.656 405.952 500.697 408.255 503.416 411.744V411.744C507.815 417.391 500.899 423.162 493.772 422.19L489.8 421.649L485.828 421.108Z" fill="#FFF6C5"/>
<ellipse rx="11.7454" ry="15.3561" transform="matrix(-1 0 0 1 492.674 438.012)" fill="#454545"/>
<ellipse rx="5.97469" ry="8.03066" transform="matrix(-0.968412 0.249357 0.265816 0.964024 493.405 433.155)" fill="white"/>
<path d="M448.436 475.148L434.157 480.49C434.925 486.573 437.151 501.409 447.284 501.409C457.418 501.409 461.64 491.617 462.254 480.49L448.436 475.148Z" fill="#EC6E5D"/>
<path d="M473.019 469.429C468.652 477.345 455.365 485.699 449.369 473.317" stroke="#454545" stroke-width="5" stroke-linecap="round"/>
<path d="M424.896 469.602C429.263 477.519 442.551 485.872 448.546 473.49" stroke="#454545" stroke-width="5" stroke-linecap="round"/>
<ellipse cx="395.927" cy="468.917" rx="13.3575" ry="6.23146" fill="#FFA89D"/>
<ellipse rx="13.3575" ry="6.23146" transform="matrix(-1 0 0 1 505.551 468.917)" fill="#FFA89D"/>
<path d="M1129.96 1045.77C1129.96 1009.39 1086.55 979.451 1048.9 979.451C1011.25 979.451 968.752 1007.16 968.752 1043.55C968.752 1079.93 1011.25 1111.65 1048.9 1111.65C1086.55 1111.65 1129.96 1082.15 1129.96 1045.77Z" fill="#ED8D47"/>
<path d="M1123.51 1123.66C1153.19 1132.92 1136.93 1083.34 1120.38 1060.01L1078.38 1101.57C1084.19 1103.33 1093.84 1114.41 1123.51 1123.66Z" fill="#ED8D47"/>
<path d="M976.486 1123.86C946.808 1133.12 963.069 1083.53 979.618 1060.21L1021.62 1101.77C1015.81 1103.52 1006.16 1114.6 976.486 1123.86Z" fill="#ED8D47"/>
<path d="M979.932 1115.8C960.634 1121.84 971.208 1089.48 981.969 1074.26L1009.28 1101.38C1005.5 1102.53 999.23 1109.76 979.932 1115.8Z" fill="#EC6E5D"/>
<path d="M1121.55 1115.8C1140.84 1121.84 1130.27 1089.48 1119.51 1074.26L1092.19 1101.38C1095.98 1102.53 1102.25 1109.76 1121.55 1115.8Z" fill="#EC6E5D"/>
<path d="M1129.86 1023.07C1122.75 999.036 1088.23 975 1049.95 975C1011.66 975 980.625 991.469 969.57 1023.07C959.437 1044.44 1011.66 1045.33 1049.95 1045.33C1088.23 1045.33 1136.31 1044.88 1129.86 1023.07Z" fill="#FFF6C5"/>
<ellipse rx="45.5998" ry="44.0653" transform="matrix(1 0 0 -1 1050.18 1019.51)" fill="#FFF6C5"/>
<path d="M1052.92 1040.88C1060.11 1040.88 1066.12 1047.52 1060.95 1052.52V1052.52C1057.75 1055.61 1053.42 1057.34 1048.9 1057.34C1044.38 1057.34 1040.04 1055.61 1036.85 1052.52V1052.52C1031.68 1047.52 1037.68 1040.88 1044.87 1040.88L1048.9 1040.88H1052.92Z" fill="#454545"/>
<path d="M1049.36 1046.66V1024.41" stroke="#454545" stroke-width="5" stroke-linecap="round"/>
<path d="M1015.9 1078.92C1023.03 1079.89 1028.02 1087.29 1022.18 1091.54V1091.54C1018.57 1094.17 1014.02 1095.3 1009.55 1094.69C1005.07 1094.08 1001.03 1091.78 998.312 1088.29V1088.29C993.913 1082.64 1000.83 1076.87 1007.96 1077.84L1011.93 1078.38L1015.9 1078.92Z" fill="#FFF6C5"/>
<ellipse rx="11.7454" ry="15.3561" transform="matrix(1 0 0 -1 1009.05 1062.02)" fill="#454545"/>
<ellipse rx="5.98277" ry="8.01913" transform="matrix(0.987952 0.15476 0.165435 -0.986221 1011.9 1065.07)" fill="white"/>
<path d="M1085.83 1078.89C1078.7 1079.86 1073.71 1087.26 1079.55 1091.51V1091.51C1083.16 1094.14 1087.7 1095.27 1092.18 1094.66C1096.66 1094.05 1100.7 1091.75 1103.42 1088.26V1088.26C1107.81 1082.61 1100.9 1076.84 1093.77 1077.81L1089.8 1078.35L1085.83 1078.89Z" fill="#FFF6C5"/>
<ellipse cx="1092.67" cy="1061.99" rx="11.7454" ry="15.3561" transform="rotate(180 1092.67 1061.99)" fill="#454545"/>
<ellipse rx="5.97469" ry="8.03066" transform="matrix(-0.968412 -0.249357 0.265816 -0.964024 1093.41 1066.85)" fill="white"/>
<path d="M1048.44 1024.85L1034.16 1019.51C1034.92 1013.43 1037.15 998.591 1047.28 998.591C1057.42 998.591 1061.64 1008.38 1062.25 1019.51L1048.44 1024.85Z" fill="#EC6E5D"/>
<path d="M1073.02 1030.57C1068.65 1022.65 1055.36 1014.3 1049.37 1026.68" stroke="#454545" stroke-width="5" stroke-linecap="round"/>
<path d="M1024.9 1030.4C1029.26 1022.48 1042.55 1014.13 1048.55 1026.51" stroke="#454545" stroke-width="5" stroke-linecap="round"/>
<ellipse rx="13.3575" ry="6.23146" transform="matrix(1 0 0 -1 995.927 1031.08)" fill="#FFA89D"/>
<ellipse cx="1105.55" cy="1031.08" rx="13.3575" ry="6.23146" transform="rotate(180 1105.55 1031.08)" fill="#FFA89D"/>
</svg>
