<?xml version="1.0" encoding="utf-8"?>
<!-- Generator: Adobe Illustrator 24.1.0, SVG Export Plug-In . SVG Version: 6.00 Build 0)  -->
<svg version="1.1" id="Ebene_1" xmlns="http://www.w3.org/2000/svg" xmlns:xlink="http://www.w3.org/1999/xlink" x="0px" y="0px"
	 width="300px" height="100px" viewBox="0 0 300 100" style="enable-background:new 0 0 300 100;" xml:space="preserve">
<style type="text/css">
	.st0{fill:#3d3939;}
</style>
<g id="NAV-白new" transform="translate(-30.000000, -13.000000)">
	<g id="Group-2">
		<g transform="translate(30.000000, 13.000000)">
			<g id="CoinEx-LOGO-svg">
				<path id="Shape-Copy-14" class="st0" d="M75.8,42.1c-4.8-4.7-12.5-4.7-17.2,0c-4.8,4.7-4.7,12.4,0.1,17.2s12.5,4.8,17.3,0.1
					c0.1-0.1,0.4-0.4,1-1.1l-5.7-5.7c-0.6,0.7-0.9,1-0.9,1.1c-1.6,1.6-4.3,1.6-5.9,0c-1.6-1.6-1.6-4.2-0.1-5.8
					c1.6-1.6,4.2-1.6,5.8,0.1c0,0,5.1,5.1,15.4,15.2c-4.2,6-11.3,9.9-18.9,9.9c-12.6,0-22.8-10.2-22.8-22.8s10.2-22.8,22.8-22.8
					c7.4,0,14.1,3.5,18.3,9.2c-0.7,0.8-2.4,2.7-5.2,5.9l5.7,5.6l9.4-10.5C90,26.6,79,19.3,66.6,19.3c-17.1,0-30.9,13.8-30.9,30.9
					s13.8,30.9,30.9,30.9c7.8,0,14.2-2.4,20.5-7.8c5.7-4.8,8.4-11.5,8.4-11.5L75.8,42.1z"/>
				<g id="CoinEx" transform="translate(36.546441, 6.348748)">
					<path id="Combined-Shape" class="st0" d="M166.2,48v14.8h-6.1V47.7c-0.6-3.5-3.7-6.1-7.4-6.1c-3.8,0-6.9,2.7-7.5,6.3v15h-6.1
						V36l4.7,2.9c2.4-2,5.5-3.2,8.9-3.2C159.9,35.7,165.7,41.1,166.2,48L166.2,48z M102.2,32.6c-2,1-3.8,2.4-5.3,4.1
						c-2.3-3.1-5.9-5.1-10.1-5.1c-6.9,0-12.4,5.5-12.4,12.3S80,56.1,86.8,56.1c2.2,0,4.3-0.6,6.1-1.6c0.7,2.2,1.7,4.2,3.1,5.9
						c-2.7,1.5-5.9,2.3-9.2,2.3c-10.6,0-19.2-8.5-19.2-19s8.6-19,19.2-19C93.1,24.9,98.7,27.9,102.2,32.6z M111.3,62.8
						c-7.5,0-13.5-6-13.5-13.4S103.8,36,111.3,36s13.5,6,13.5,13.4S118.8,62.8,111.3,62.8z M111.3,56.9c4.2,0,7.5-3.3,7.5-7.4
						s-3.4-7.4-7.5-7.4s-7.5,3.3-7.5,7.4S107.1,56.9,111.3,56.9z M128.6,36h6v26.8h-6V36z M194.1,31.3h-17.2V41h16.7v6h-16.7v9.7
						h17.2v6h-23.7V25.3h23.7V31.3z M206.8,49.4L197.5,36h7.7c0.2,0.4,0.6,0.9,1,1.5c0.5,0.8,1,1.6,1.6,2.4c0.5,0.8,1.1,1.6,1.6,2.4
						c0.5,0.8,0.9,1.3,1.1,1.7l0.3,0.5l5.5-8.5h7.3l-9.1,13.1l9.4,13.7h-7.6l-5.8-8.7l-0.3,0.5c-0.3,0.4-0.6,1-1.1,1.7
						c-0.5,0.8-1.1,1.6-1.6,2.5c-0.6,0.9-1.1,1.7-1.6,2.5c-0.4,0.7-0.8,1.2-1,1.6h-7.2L206.8,49.4z"/>
					<path id="CoinEx-Copy-13" class="st0" d="M127.5,28.9c0-1.1,0.4-2,1.2-2.8c0.8-0.8,1.8-1.2,2.9-1.2c1.1,0,2.1,0.4,2.9,1.2
						c0.8,0.8,1.2,1.7,1.2,2.9c0,1.1-0.4,2.1-1.2,2.9c-0.8,0.8-1.8,1.2-2.9,1.2c-1.1,0-2.1-0.4-2.9-1.2
						C127.9,31.1,127.5,30.1,127.5,28.9z"/>
				</g>
			</g>
		</g>
	</g>
</g>
</svg>
