<svg width="1500" height="881" viewBox="0 0 1500 881" fill="none" xmlns="http://www.w3.org/2000/svg">
<path d="M1350 740H750V140H750.2C1081.5 140 1350 408.7 1350 740Z" fill="#CBDBE8"/>
<path d="M750 140V740H150V739.8C150 408.6 418.6 140 750 140Z" fill="#DFEBF2"/>
<path d="M870.2 554.8C870.2 571.3 857.1 587.9 841 591.8L543.5 663.1C527.5 666.9 514.3 656.6 514.3 640.1V424.7C514.3 408.2 527.4 391.6 543.5 387.7L841 316.5C857 312.7 870.2 323 870.2 339.5V554.8Z" fill="#C5D1DA"/>
<path d="M536.8 666.4C531 666.4 525.7 664.6 521.3 661.2C515.2 656.4 511.8 648.9 511.8 640.1V424.7C511.8 407.1 525.7 389.4 542.9 385.3L840.4 314C848.9 312 857 313.5 863.1 318.3C869.2 323.1 872.6 330.6 872.6 339.4V554.8C872.6 572.4 858.7 590.1 841.5 594.2L544 665.5C541.6 666.1 539.1 666.4 536.8 666.4ZM847.6 318.2C845.6 318.2 843.6 318.4 841.6 318.9L544 390.1C529 393.7 516.7 409.2 516.7 424.7V640.1C516.7 647.3 519.4 653.4 524.3 657.3C529.2 661.2 535.8 662.4 542.8 660.7L840.3 589.4C855.3 585.8 867.6 570.3 867.6 554.8V339.5C867.6 332.3 864.9 326.2 860 322.3C856.6 319.6 852.3 318.2 847.6 318.2Z" fill="black"/>
<path d="M851.1 455.5H802.8C801.4 455.5 800.3 454.4 800.3 453V365.6C800.3 364.2 801.4 363.1 802.8 363.1H851.1C852.5 363.1 853.6 364.2 853.6 365.6V453C853.6 454.4 852.4 455.5 851.1 455.5ZM805.3 450.5H848.6V368.1H805.3V450.5Z" fill="black"/>
<path d="M762.3 455.5C760.9 455.5 759.8 454.4 759.8 453V365.6C759.8 364.2 760.9 363.1 762.3 363.1C763.7 363.1 764.8 364.2 764.8 365.6V453C764.8 454.4 763.7 455.5 762.3 455.5Z" fill="black"/>
<path d="M724.5 455.5H676.2C674.8 455.5 673.7 454.4 673.7 453V365.6C673.7 364.2 674.8 363.1 676.2 363.1H724.5C725.9 363.1 727 364.2 727 365.6V453C727 454.4 725.8 455.5 724.5 455.5ZM678.7 450.5H722V368.1H678.7V450.5Z" fill="black"/>
<path d="M635.7 455.5C634.3 455.5 633.2 454.4 633.2 453V365.6C633.2 364.2 634.3 363.1 635.7 363.1C637.1 363.1 638.2 364.2 638.2 365.6V453C638.2 454.4 637.1 455.5 635.7 455.5Z" fill="black"/>
<path d="M684 332.8H635.7C634.3 332.8 633.2 331.7 633.2 330.3V242.9C633.2 241.5 634.3 240.4 635.7 240.4H684C685.4 240.4 686.5 241.5 686.5 242.9V330.3C686.5 331.7 685.4 332.8 684 332.8ZM638.2 327.8H681.5V245.4H638.2V327.8Z" fill="black"/>
<path d="M724.5 332.8C723.1 332.8 722 331.7 722 330.3V242.9C722 241.5 723.1 240.4 724.5 240.4C725.9 240.4 727 241.5 727 242.9V330.3C727 331.7 725.8 332.8 724.5 332.8Z" fill="black"/>
<path d="M810.6 332.8H762.3C760.9 332.8 759.8 331.7 759.8 330.3V242.9C759.8 241.5 760.9 240.4 762.3 240.4H810.6C812 240.4 813.1 241.5 813.1 242.9V330.3C813.1 331.7 812 332.8 810.6 332.8ZM764.8 327.8H808.1V245.4H764.8V327.8Z" fill="black"/>
<path d="M851.1 332.8C849.7 332.8 848.6 331.7 848.6 330.3V242.9C848.6 241.5 849.7 240.4 851.1 240.4C852.5 240.4 853.6 241.5 853.6 242.9V330.3C853.6 331.7 852.4 332.8 851.1 332.8Z" fill="black"/>
<path d="M886.602 395.386C886.602 458.933 811.345 511.226 746.087 511.226C680.829 511.226 607.169 462.82 607.169 399.273C607.169 335.726 680.829 280.323 746.087 280.323C811.345 280.323 886.602 331.839 886.602 395.386Z" fill="#ED8D47"/>
<path d="M875.425 259.332C926.866 243.161 898.68 329.773 869.996 370.508L797.184 297.92C807.27 294.857 823.983 275.504 875.425 259.332Z" fill="#ED8D47"/>
<path d="M620.575 258.988C569.134 242.816 597.32 329.428 626.004 370.163L698.816 297.575C688.73 294.513 672.017 275.159 620.575 258.988Z" fill="#ED8D47"/>
<path d="M626.549 273.069C593.099 262.514 611.427 319.043 630.079 345.629L677.427 298.254C670.868 296.255 660 283.623 626.549 273.069Z" fill="#EC6E5D"/>
<path d="M872.012 273.069C905.463 262.514 887.134 319.043 868.482 345.629L821.135 298.254C827.694 296.255 838.562 283.623 872.012 273.069Z" fill="#EC6E5D"/>
<path d="M886.425 435.036C874.107 477.018 814.266 519 747.906 519C681.546 519 627.75 490.234 608.589 435.036C591.024 397.718 681.546 396.163 747.906 396.163C814.266 396.163 897.602 396.941 886.425 435.036Z" fill="#FFF6C5"/>
<ellipse cx="748.305" cy="441.255" rx="79.0396" ry="76.9674" fill="#FFF6C5"/>
<path d="M755.627 403.938C766.673 403.938 775.985 393.978 768.822 385.571C768.24 384.888 767.624 384.23 766.975 383.597C761.435 378.203 753.921 375.172 746.087 375.172C738.252 375.172 730.739 378.203 725.199 383.597C724.55 384.23 723.934 384.888 723.352 385.571C716.189 393.978 725.501 403.938 736.547 403.938L746.087 403.938H755.627Z" fill="#454545"/>
<path d="M746.886 393.831V432.703" stroke="#454545" stroke-width="5" stroke-linecap="round"/>
<path d="M691.444 337.132C702.387 335.629 710.188 324.507 701.891 317.154C701.216 316.556 700.51 315.986 699.774 315.447C693.515 310.858 685.64 308.879 677.882 309.945C670.125 311.01 663.119 315.033 658.407 321.128C657.854 321.844 657.337 322.582 656.858 323.339C650.973 332.64 661.628 341.227 672.571 339.724L682.008 338.428L691.444 337.132Z" fill="#FFF6C5"/>
<ellipse cx="677.028" cy="367.009" rx="20.3587" ry="26.822" fill="#454545"/>
<ellipse rx="10.3721" ry="14.0038" transform="matrix(0.987769 -0.155921 0.164207 0.986426 681.963 361.684)" fill="white"/>
<path d="M807.551 337.184C796.608 335.681 788.807 324.559 797.104 317.206C797.779 316.608 798.485 316.038 799.221 315.499C805.48 310.91 813.355 308.931 821.113 309.997C828.87 311.062 835.876 315.085 840.588 321.18C841.141 321.896 841.658 322.634 842.137 323.391C848.022 332.692 837.367 341.279 826.424 339.776L816.987 338.48L807.551 337.184Z" fill="#FFF6C5"/>
<ellipse rx="20.3587" ry="26.822" transform="matrix(-1 0 0 1 821.968 367.061)" fill="#454545"/>
<ellipse rx="10.3611" ry="14.0194" transform="matrix(-0.967947 0.251155 0.263929 0.964542 823.236 358.577)" fill="white"/>
<path d="M745.289 431.926L720.539 441.255C721.87 451.88 725.729 477.795 743.293 477.795C760.857 477.795 768.176 460.691 769.24 441.255L745.289 431.926Z" fill="#EC6E5D"/>
<path d="M787.901 421.936C780.332 435.763 757.3 450.354 746.907 428.727" stroke="#454545" stroke-width="5" stroke-linecap="round"/>
<path d="M704.487 422.239C712.056 436.066 735.088 450.657 745.481 429.03" stroke="#454545" stroke-width="5" stroke-linecap="round"/>
<ellipse cx="654.274" cy="421.042" rx="23.153" ry="10.8843" fill="#FFA89D"/>
<ellipse rx="23.153" ry="10.8843" transform="matrix(-1 0 0 1 844.288 421.042)" fill="#FFA89D"/>
<path d="M973.7 640.1C973.7 656.6 960.2 670.1 943.7 670.1H532.3C515.8 670.1 502.3 656.6 502.3 640.1V424.7C502.3 408.2 515.8 394.7 532.3 394.7H943.8C960.3 394.7 973.8 408.2 973.8 424.7V640.1H973.7Z" fill="#9B1C2E"/>
<path d="M943.7 672.6H532.3C514.4 672.6 499.8 658 499.8 640.1V424.7C499.8 406.8 514.4 392.2 532.3 392.2H943.8C961.7 392.2 976.3 406.8 976.3 424.7V640.1C976.2 658 961.7 672.6 943.7 672.6ZM532.3 397.2C517.1 397.2 504.8 409.5 504.8 424.7V640.1C504.8 655.3 517.1 667.6 532.3 667.6H943.8C959 667.6 971.3 655.3 971.3 640.1V424.7C971.3 409.5 959 397.2 943.8 397.2H532.3Z" fill="black"/>
<path d="M941.4 546.1C948.967 546.1 955.1 539.966 955.1 532.4C955.1 524.834 948.967 518.7 941.4 518.7C933.834 518.7 927.7 524.834 927.7 532.4C927.7 539.966 933.834 546.1 941.4 546.1Z" fill="#9B1C2E"/>
<path d="M941.4 548.6C932.5 548.6 925.2 541.3 925.2 532.4C925.2 523.5 932.5 516.2 941.4 516.2C950.3 516.2 957.6 523.5 957.6 532.4C957.6 541.3 950.4 548.6 941.4 548.6ZM941.4 521.2C935.2 521.2 930.2 526.2 930.2 532.4C930.2 538.6 935.2 543.6 941.4 543.6C947.6 543.6 952.6 538.6 952.6 532.4C952.6 526.2 947.6 521.2 941.4 521.2Z" fill="black"/>
<path d="M831.399 544.1H666.899C664.699 544.1 662.899 542.3 662.899 540.1C662.899 537.9 664.699 536.1 666.899 536.1H831.399C833.599 536.1 835.399 537.9 835.399 540.1C835.399 542.3 833.699 544.1 831.399 544.1Z" fill="#C9D3DC"/>
<path d="M916.899 450.7H798.899C796.699 450.7 794.899 448.9 794.899 446.7C794.899 444.5 796.699 442.7 798.899 442.7H916.899C919.099 442.7 920.899 444.5 920.899 446.7C920.899 448.9 919.099 450.7 916.899 450.7Z" fill="#C9D3DC"/>
<path d="M700.8 636.7H583.1C580.9 636.7 579.1 634.9 579.1 632.7C579.1 630.5 580.9 628.7 583.1 628.7H698.5L795.4 444.8C796.4 442.8 798.9 442.1 800.8 443.1C802.8 444.1 803.5 446.5 802.5 448.5L704.4 634.5C703.7 635.9 702.3 636.7 700.8 636.7Z" fill="#C9D3DC"/>
</svg>
