<?xml version="1.0" encoding="utf-8"?>
<!-- Generator: Adobe Illustrator 24.1.0, SVG Export Plug-In . SVG Version: 6.00 Build 0)  -->
<svg version="1.1" id="Ebene_1" xmlns="http://www.w3.org/2000/svg" xmlns:xlink="http://www.w3.org/1999/xlink" x="0px" y="0px"
	 width="300px" height="100px" viewBox="0 0 300 100" style="enable-background:new 0 0 300 100;" xml:space="preserve">
<style type="text/css">
	.st0{fill:#3d3939;}
</style>
<g id="UuQg0l.tif">
	<g>
		<path class="st0" d="M62.8,66c-2.4,0-4.8,0-7.2,0c0-9,0-18,0-27c2.2,0,4.4,0,6.7,0c0.1,0.9,0.2,1.8,0.2,2.9c2-2.5,4.7-3.4,7.7-3.5
			c3.1,0,5.6,1,7.2,4c0.5-0.5,0.9-1,1.4-1.5c3-3.1,8.8-3,11.4-1.5c2.4,1.4,3.4,3.7,3.8,6.3c0.2,1.1,0.2,2.1,0.2,3.2
			c0,5.4,0,10.9,0,16.3c0,0.2,0,0.4,0,0.7c-2.4,0-4.8,0-7.2,0c0-0.3,0-0.6,0-0.9c0-5.3,0-10.5,0-15.8c0-0.7,0-1.5-0.2-2.2
			c-0.3-1.7-1.1-2.3-2.8-2.6c-2.2-0.4-4,0.3-5,2.1c-0.3,0.5-0.5,1.1-0.5,1.7c0,5.6,0,11.2,0,16.8c0,0.3,0,0.6,0,1
			c-2.4,0-4.8,0-7.2,0c0-0.3,0-0.6,0-0.9c0-5.2,0-10.4,0-15.6c0-0.7,0-1.3-0.1-2c-0.2-1.9-1.1-2.7-2.9-3c-1.2-0.2-2.4-0.1-3.5,0.5
			c-1.2,0.7-1.9,1.5-1.9,3.1c0.1,5.7,0,11.3,0,17C62.8,65.3,62.8,65.6,62.8,66z"/>
		<path class="st0" d="M196.4,40.4c-2.5,0-5,0-7.4,0c0-0.2-0.1-0.4-0.1-0.5c-0.2-2.4-1.5-3.9-3.8-4.4c-1.8-0.4-3.7-0.4-5.5,0.4
			c-1.4,0.6-2.2,1.6-2.4,3.1c-0.1,1.5,0.5,2.7,1.8,3.4c1.5,0.8,3.2,1.5,4.8,2.1c3,1,6.1,2,8.6,4c3.9,3,5.1,8.6,2.7,12.7
			c-1.3,2.3-3.3,3.7-5.8,4.4c-5.3,1.6-10.4,1.4-15.3-1.4c-3.5-2-5.4-5-5.6-9.1c0-0.2,0-0.4,0-0.6c2.5,0,4.9,0,7.5,0
			c0,0.3,0.1,0.7,0.1,1c0.3,2.2,1.3,3.7,3.5,4.4c2.1,0.7,4.3,0.8,6.5,0.1c1.5-0.5,2.5-1.5,2.7-3.1c0.2-1.7-0.3-3.2-1.9-4
			c-1.5-0.8-3.1-1.4-4.7-2c-2.4-1-4.8-1.9-7.1-3c-2.4-1.2-4.2-3.1-5-5.7c-1.4-4.3,0.3-8.8,4.3-10.9c5.2-2.8,10.6-3,16-0.5
			c3.6,1.7,5.6,4.8,5.9,8.8C196.4,39.9,196.4,40.1,196.4,40.4z"/>
		<path class="st0" d="M9.7,54.6c2.5,0,4.9,0,7.4,0c0,0.3,0.1,0.5,0.1,0.8c0.2,2.3,1.3,4,3.6,4.7c2.4,0.7,4.8,0.9,7-0.3
			c2.6-1.3,2.8-5,0.4-6.6c-1.4-0.9-3-1.4-4.5-2.1c-2.4-1-4.9-1.9-7.2-3c-1.7-0.8-3.1-2.1-4.2-3.7c-3-4.5-1.5-10.6,3.4-13.2
			c5.2-2.7,10.5-2.9,15.8-0.4c3.8,1.8,5.8,5,6,9.2c0,0.1,0,0.2,0,0.3c-2.5,0-4.9,0-7.4,0c0-0.1,0-0.2-0.1-0.4
			c-0.3-2.7-1.5-4.2-4.2-4.7c-1.9-0.4-3.7-0.3-5.4,0.6c-2.5,1.4-2.9,4.6-0.5,6.1c1.6,1,3.4,1.7,5.1,2.3c2.9,1,5.9,2,8.4,3.9
			c4,3.1,5.3,8.7,2.8,12.9c-1.4,2.4-3.5,3.8-6.1,4.5c-5.4,1.5-10.7,1.2-15.6-1.9c-2.8-1.8-4.4-4.3-4.8-7.6c-0.1-0.4-0.1-0.8-0.1-1.2
			C9.7,54.9,9.7,54.8,9.7,54.6z"/>
		<path class="st0" d="M216.8,49.4c-0.9,3-1.8,6-2.7,9.1c-0.7,2.3-1.4,4.6-2.1,6.9c-0.1,0.5-0.4,0.7-0.9,0.7c-1.6,0-3.1,0-4.7,0
			c-0.4,0-0.7-0.1-0.8-0.5c-2.2-8.7-4.4-17.5-6.7-26.2c0-0.1,0-0.2,0-0.3c2.3,0,4.6,0,6.9,0c1.1,5.6,2.3,11.1,3.4,16.7
			c0,0,0.1,0,0.1,0c0.2-0.7,0.4-1.4,0.6-2.2c1.3-4.6,2.7-9.3,4-13.9c0.1-0.5,0.3-0.7,0.9-0.7c1.3,0,2.6,0,3.9,0
			c0.5,0,0.8,0.2,0.9,0.7c1.4,5.1,2.9,10.2,4.3,15.2c0.1,0.3,0.2,0.6,0.4,0.9c0.3-1.4,0.6-2.7,0.9-4.1c0.8-3.9,1.6-7.8,2.4-11.7
			c0.1-0.8,0.5-1,1.2-1c2,0.1,3.9,0,6,0c-0.3,1-0.5,2-0.7,2.9c-2,7.8-4,15.6-5.9,23.4c-0.1,0.5-0.3,0.8-0.9,0.7c-1.5,0-3,0-4.6,0
			c-0.6,0-0.9-0.2-1-0.8c-1.5-5-3-10-4.5-15c-0.1-0.3-0.2-0.6-0.3-0.9C216.9,49.4,216.9,49.4,216.8,49.4z"/>
		<path class="st0" d="M99.8,39c2.2,0,4.4,0,6.6,0c0.1,0.8,0.2,1.6,0.3,2.5c1.2-1.3,2.5-2.3,4.1-2.7c4.9-1.2,9.9,0.5,12,6.4
			c1.8,5,1.8,10.2-0.3,15.2c-1.6,3.7-4.4,6-8.6,6.2c-2.3,0.1-4.4-0.6-6.9-2.6c0,4.1,0,8.2,0,12.3c-2.5,0-4.8,0-7.2,0
			C99.8,63.8,99.8,51.4,99.8,39z M107,52.5c0,1.6,0,3.2,0,4.9c0,0.5,0.2,1,0.5,1.4c1.4,2.3,6.8,3.1,8.3-0.9
			c1.3-3.3,1.4-6.7,0.3-10.1c-1.1-3.2-3.5-4-6.5-3.1c-1.8,0.5-2.6,1.7-2.6,3.5C107,49.6,107,51.1,107,52.5z"/>
		<path class="st0" d="M265.8,39c2.2,0,4.4,0,6.7,0c0.1,0.8,0.2,1.6,0.3,2.4c0.1,0,0.1,0.1,0.2,0.1c0.2-0.3,0.4-0.5,0.6-0.8
			c3.9-3.6,10.8-2.8,13.9,1.7c1.8,2.6,2.4,5.5,2.6,8.5c0.2,3.3,0,6.5-1.4,9.5c-1.7,3.7-4.4,6-8.6,6.1c-2.5,0.1-4.7-0.6-6.5-2.4
			c-0.1-0.1-0.2-0.2-0.4-0.3c0,4.2,0,8.2,0,12.3c-2.5,0-4.8,0-7.2,0C265.8,63.8,265.8,51.4,265.8,39z M273,52.5c0,1.6,0,3.2,0,4.8
			c0,0.5,0.2,1,0.5,1.4c1.5,2.4,6.8,3,8.3-0.8c1.4-3.4,1.5-6.9,0.3-10.3c-1.1-3.1-3.6-3.8-6.5-2.9c-1.8,0.5-2.6,1.7-2.6,3.6
			C273,49.7,273,51.1,273,52.5z"/>
		<path class="st0" d="M261.4,66c-2.4,0-4.7,0-7,0c-0.2,0-0.4-0.3-0.5-0.5c-0.2-0.6-0.4-1.1-0.6-1.8c-0.3,0.3-0.7,0.6-1,0.9
			c-3.6,3.1-11.5,2.7-14.2-2.8c-2-4-0.2-9,3.8-10.8c2.5-1.2,5.1-1.4,7.8-1.5c1,0,2.1,0,3.1,0c0.6-2.6-0.4-4.9-2.4-5.4
			c-2.8-0.7-4.7,0.4-5.3,3c-2.3,0-4.7,0-7.1,0c-0.1-1.2,0.3-2.3,0.8-3.4c1.2-2.3,3.2-3.6,5.5-4.4c3.3-1.2,6.7-1.2,9.9-0.1
			c3.7,1.3,5.8,4.1,6,8c0.1,4,0.1,8.1,0.1,12.2c0,2.1,0.1,4.1,1,6.1C261.4,65.6,261.3,65.8,261.4,66z M253,53.8
			c-1.3,0-2.5-0.1-3.7,0c-1.2,0.1-2.3,0.3-3.3,1.1c-1.2,1-1.6,2.3-1.3,3.7c0.3,1.3,1.1,2,2.3,2.2c2,0.4,3.7-0.1,5.2-1.5
			c0.3-0.3,0.7-0.8,0.7-1.2C253.1,56.7,253,55.3,253,53.8z"/>
		<path class="st0" d="M165.5,54.8c-5.7,0-11.3,0-17,0c-0.1,2.4,2.1,5.1,4.5,5.6c3.1,0.6,5.9,0,8.1-2.5c0.1-0.1,0.1-0.2,0.3-0.4
			c1.3,1.4,2.4,2.7,3.6,4c-1.2,1.7-2.7,2.9-4.5,3.7c-4.2,1.8-8.5,1.8-12.6-0.2c-3.4-1.7-5.5-4.5-6.3-8.2c-0.8-3.5-0.7-7.1,0.6-10.5
			c2-5.2,6.1-8,11.7-7.9c6.3,0.1,10.5,3.8,11.4,10.1c0.3,1.8,0.2,3.7,0.3,5.6C165.5,54.4,165.5,54.6,165.5,54.8z M158.4,49.9
			c0-0.6,0-1.1-0.1-1.6c-0.3-2.2-1.8-3.6-4-3.9c-3.7-0.5-5.6,2.4-5.8,5.5C151.8,49.9,155.1,49.9,158.4,49.9z"/>
		<path class="st0" d="M136.1,66c-2.4,0-4.7,0-7.1,0c0-12.8,0-25.5,0-38.3c2.4,0,4.7,0,7.1,0C136.1,40.5,136.1,53.2,136.1,66z"/>
		<path class="st0" d="M49.6,66c-2.4,0-4.7,0-7.1,0c0-9,0-17.9,0-26.9c2.4,0,4.7,0,7.1,0C49.6,48,49.6,56.9,49.6,66z"/>
		<path class="st0" d="M46.2,35.8c-1.9,0-3.2-0.6-3.9-2.2c-0.7-1.4-0.3-3.2,0.8-4.3c1.3-1.3,4.4-1.4,5.8-0.1
			c1.4,1.3,1.7,3.6,0.4,5.2C48.5,35.4,47.4,35.8,46.2,35.8z"/>
	</g>
</g>
</svg>
