<?xml version="1.0" encoding="utf-8"?>
<!-- Generator: Adobe Illustrator 24.3.0, SVG Export Plug-In . SVG Version: 6.00 Build 0)  -->
<svg version="1.1" id="Layer_1" xmlns="http://www.w3.org/2000/svg" xmlns:xlink="http://www.w3.org/1999/xlink" x="0px" y="0px"
	 viewBox="0 0 512 512" style="enable-background:new 0 0 512 512;" xml:space="preserve">
<style type="text/css">
	.st0{fill-rule:evenodd;clip-rule:evenodd;fill:#CBDBE8;}
	.st1{fill-rule:evenodd;clip-rule:evenodd;fill:#DFEBF2;}
	.st2{fill:#99A4AA;stroke:#000000;stroke-width:5;stroke-linecap:round;stroke-linejoin:round;stroke-miterlimit:10;}
	.st3{fill:#DFEBF2;stroke:#000000;stroke-width:5;stroke-linecap:round;stroke-linejoin:round;stroke-miterlimit:10;}
	.st4{fill-rule:evenodd;clip-rule:evenodd;fill:#DFEBF2;stroke:#000000;stroke-width:5;stroke-miterlimit:10;}
	
		.st5{fill-rule:evenodd;clip-rule:evenodd;fill:#99A4AA;stroke:#000000;stroke-width:5;stroke-linecap:round;stroke-linejoin:round;stroke-miterlimit:10;}
</style>
<circle class="st0" cx="256" cy="256" r="250"/>
<g>
	<path class="st3" d="M379.4,312.5v-44.5h-249v113.4h249V337h0c13.5,0,24.5-11,24.5-24.5H379.4z"/>
	<g>
		<rect x="214.8" y="316.7" class="st3" width="16.2" height="16.2"/>
		<rect x="246.8" y="316.7" class="st3" width="16.2" height="16.2"/>
		<rect x="278.8" y="316.7" class="st3" width="16.2" height="16.2"/>
	</g>
</g>
<g>
	<path class="st3" d="M130.4,134.5V179h-24.5c0,13.5,11,24.5,24.5,24.5v44.5h249V134.5H130.4z"/>
	<g>
		
			<rect x="278.8" y="183.1" transform="matrix(-1 -4.491619e-11 4.491619e-11 -1 573.7267 382.4302)" class="st3" width="16.2" height="16.2"/>
		
			<rect x="246.8" y="183.1" transform="matrix(-1 -4.486024e-11 4.486024e-11 -1 509.7764 382.4302)" class="st3" width="16.2" height="16.2"/>
		
			<rect x="214.8" y="183.1" transform="matrix(-1 -4.480384e-11 4.480384e-11 -1 445.826 382.4302)" class="st3" width="16.2" height="16.2"/>
	</g>
</g>
</svg>
