<?xml version="1.0" encoding="UTF-8" standalone="no"?>
<svg
   width="168.49849"
   height="100"
   viewBox="0 0 168.49849 100"
   fill="none"
   version="1.1"
   id="svg6"
   sodipodi:docname="7b_logo.svg"
   xmlns:inkscape="http://www.inkscape.org/namespaces/inkscape"
   xmlns:sodipodi="http://sodipodi.sourceforge.net/DTD/sodipodi-0.dtd"
   xmlns="http://www.w3.org/2000/svg"
   xmlns:svg="http://www.w3.org/2000/svg">
  <defs
     id="defs10" />
  <sodipodi:namedview
     id="namedview8"
     pagecolor="#ffffff"
     bordercolor="#666666"
     borderopacity="1.0"
     inkscape:showpageshadow="2"
     inkscape:pageopacity="0.0"
     inkscape:pagecheckerboard="0"
     inkscape:deskcolor="#d1d1d1"
     showgrid="false" />
  <path
     d="M 33.976183,98.0613 H 6.711343 l 40.1283,-78.116519 H 0 V 1.82e-4 h 71.867493 v 18.559541 z"
     fill="#3c3939"
     id="path2"
     style="stroke-width:0.481424" />
  <path
     d="m 168.49848,63.2967 c 0,4.80124 -0.74572,9.4181 -2.23718,13.85009 -1.49145,4.43247 -3.68193,8.35656 -6.57144,11.77323 -2.79659,3.32375 -6.24551,6.00192 -10.34677,8.03305 -4.10125,2.03161 -8.76192,3.04693 -13.982,3.04693 -4.66067,0 -9.08833,-0.92337 -13.28298,-2.77012 -4.10125,-1.93869 -7.27047,-4.66259 -9.50764,-8.17169 h -0.27971 V 98.0613 H 91.178383 V 13.15044 L 114.10862,0 v 36.426773 h 0.2797 c 1.95747,-2.308381 4.70737,-4.432136 8.24921,-6.371168 3.54232,-1.939081 7.87658,-2.908621 13.00327,-2.908621 5.03377,0 9.55434,0.96954 13.56268,2.908621 4.10125,1.939032 7.55018,4.570641 10.34677,7.894731 2.88951,3.32409 5.07999,7.202203 6.57144,11.634434 1.58437,4.33956 2.37679,8.9102 2.37679,13.71193 z m -22.09159,0 c 0,-2.216 -0.37263,-4.38626 -1.11835,-6.50982 -0.65281,-2.12356 -1.67776,-3.97031 -3.0763,-5.54023 -1.39806,-1.66188 -3.12252,-3.00072 -5.17339,-4.01652 -2.05038,-1.01571 -4.42766,-1.523568 -7.13085,-1.523568 -2.6098,0 -4.9399,0.507858 -6.99076,1.523568 -2.05087,1.0158 -3.82155,2.35464 -5.313,4.01652 -1.39854,1.66236 -2.51689,3.55483 -3.35601,5.67888 -0.74573,2.12356 -1.11835,4.29334 -1.11835,6.50934 0,2.21647 0.37262,4.38625 1.11835,6.50981 0.83912,2.12405 1.95747,4.01653 3.35601,5.67888 1.49145,1.66188 3.26213,3.00072 5.313,4.01653 2.05086,1.0158 4.38096,1.5237 6.99076,1.5237 2.70319,0 5.08047,-0.5079 7.13085,-1.5237 2.05087,-1.01581 3.77533,-2.35465 5.17339,-4.01653 1.39854,-1.66235 2.42349,-3.55483 3.0763,-5.67888 0.74572,-2.21599 1.11835,-4.43199 1.11835,-6.64798 z"
     fill="#3c3939"
     id="path4"
     style="stroke-width:0.481424" />
</svg>
