<?xml version="1.0" encoding="utf-8"?>
<!-- Generator: Adobe Illustrator 24.3.0, SVG Export Plug-In . SVG Version: 6.00 Build 0)  -->
<svg version="1.1" id="Layer_1" xmlns="http://www.w3.org/2000/svg" xmlns:xlink="http://www.w3.org/1999/xlink" x="0px" y="0px"
	 viewBox="0 0 996 424" style="enable-background:new 0 0 996 424;" xml:space="preserve">
<style type="text/css">
	.st0{fill:#0F0E0E;}
	.st1{fill:#FEFEFE;}
	.st2{fill:#9B1C2E;}
</style>
<g>
	<g>
		<path class="st0" d="M479.8,200.9h-30.7v-33.4h30.7V153c0-56,16.3-58.2,81-58.2v30.3c-35,0-39.4,1.9-39.4,21v21.3h39.4v33.4h-39.4
			V327h-41.6L479.8,200.9L479.8,200.9z M590.3,94.4h42.9v36.9h-42.9V94.4z M590.6,167.4h41.9V327h-41.9V167.4z"/>
		<path class="st0" d="M676.4,167.4h39.1l1.2,27.6h2.5c8.5-23.7,25.4-30.1,51.1-30.1v39.8c-41,0-52.3,15-52.3,58.5V327h-41.6
			L676.4,167.4L676.4,167.4z"/>
		<path class="st0" d="M792.5,246.9c0-64.5,4.1-82,73.2-82s73.2,17.5,73.2,82s-4.1,82.6-73.2,82.6
			C796.6,329.6,792.5,311.3,792.5,246.9z M897,246.9c0-43.9,0-48.5-31.3-48.5s-31.3,4.7-31.3,48.5s0,49.1,31.3,49.1
			S897,290.7,897,246.9z"/>
	</g>
	<g>
		<circle class="st1" cx="212.7" cy="212" r="155.4"/>
	</g>
	<g>
		<path class="st2" d="M148.5,280.2c3.6,0,7-2,8.6-5.2l22.9-43.5h-35.4c-5.4,0-9.7-4.4-9.7-9.7v-19.5c0-5.4,4.4-9.7,9.7-9.7h56
			l43.5-82.4c1.7-3.2,5-5.2,8.6-5.2H326c-28.4-30-68.5-48.7-113.1-48.7c-86,0-155.8,69.7-155.8,155.8c0,24.4,5.6,47.6,15.7,68.2
			h75.7V280.2z"/>
		<path class="st2" d="M277.1,143.8c-3.6,0-7,2-8.6,5.2l-22.9,43.5h35.4c5.4,0,9.7,4.4,9.7,9.7v19.5c0,5.4-4.4,9.7-9.7,9.7h-56
			l-43.5,82.4c-1.7,3.2-5,5.2-8.6,5.2H99.6c28.4,30,68.5,48.7,113.1,48.7c86,0,155.8-69.7,155.8-155.8c0-24.4-5.6-47.6-15.7-68.2
			h-75.7V143.8z"/>
	</g>
</g>
</svg>
