<?xml version="1.0" encoding="utf-8"?>
<!-- Generator: Adobe Illustrator 24.1.0, SVG Export Plug-In . SVG Version: 6.00 Build 0)  -->
<svg version="1.1" id="Ebene_1" xmlns="http://www.w3.org/2000/svg" xmlns:xlink="http://www.w3.org/1999/xlink" x="0px" y="0px"
	 width="300px" height="100px" viewBox="0 0 300 100" style="enable-background:new 0 0 300 100;" xml:space="preserve">
<style type="text/css">
	.st0{fill:#3d3939;}
</style>
<g id="uheBi6.tif">
	<g>
		<path class="st0" d="M54.4,27.5c2.8,0,5.6,0,8.4,0c0,2.5,0,4.9,0,7.4c3.5,0.7,8.7-1.5,9-7.4c2.8,0,5.6,0,8.5,0
			c-0.1,4.7-1.6,8.6-5.1,11.8c-3.5,3.1-7.7,4.1-12.4,4c0,0.3,0,0.5,0,0.8c0,3.1,0,6.2,0,9.3c-0.1,4.3-1.7,8.1-4.6,11.3
			c-2.5,2.8-5.6,4.6-9.3,5.4c-0.9,0.2-1.7,0.3-2.6,0.4c-0.4,0.1-0.5-0.1-0.5-0.5c0-1.1,0-2.2,0-3.3c0-1.2-0.1-2.3-0.1-3.5
			c0-0.3,0.1-0.6,0.1-0.9c-0.2-0.1-0.4-0.1-0.7-0.2c0.8-0.1,1.5-0.2,2.2-0.4c3.5-1,5.8-3.3,6.7-6.9c0.2-0.7,0.2-1.5,0.2-2.2
			c0-3,0-6,0-8.9c0-0.1,0-0.2,0-0.4c-6.1,0-12.2,0-18.4,0c0,0.2,0,0.4,0,0.6c0,2.8,0,5.6,0,8.4c0,4.7,2.4,8,7,9.4
			c0.5,0.1,0.3,0.5,0.3,0.6c0,0.6-0.1,1.1-0.1,1.7c0,0.4,0.1,0.8,0.1,1.2c0,0.5,0,1.1-0.1,1.6c0,0.4,0,0.7,0,1.1c0,0.4,0,0.9,0,1.3
			c0,0.2-0.1,0.4-0.1,0.6c0,0.5,0,0.5-0.4,0.5c-3.3-0.5-6.3-1.7-8.8-3.9c-2.5-2.1-4.4-4.7-5.5-7.8c-0.7-2-1-4-1-6c0-3.1,0-6.1,0-9.3
			c-1,0-2-0.1-2.9-0.1C17.2,42.7,11,37.6,9.9,30c-0.1-0.8-0.2-1.6-0.3-2.4c2.9,0,5.7,0,8.5,0c0.3,5,4.4,8,9.2,7.4c0-1.2,0-2.4,0-3.7
			c0-1.2,0-2.5,0-3.7c2.9,0,5.7,0,8.5,0c0,1.1,0,2.2,0,3.3c0,1.2,0,2.4,0,3.5c0,0.5,0.1,0.7,0.7,0.7c5.2,0,10.3,0,15.5,0
			c0.6,0,1.2,0,1.7,0c0.5,0,0.6-0.2,0.6-0.6c0-2.1,0-4.3,0-6.4C54.4,27.9,54.4,27.7,54.4,27.5z"/>
		<path class="st0" d="M88,70.3c0.5-2.9,1.1-5.7,1.6-8.5c1.5-8.3,3.1-16.5,4.6-24.8c0.4-2.4,0.9-4.7,1.3-7.1
			c0.1-0.4,0.2-0.5,0.6-0.5c4.6,0,9.2,0,13.7,0c2.6,0,5.1,0.7,7,2.7c1.4,1.4,2.1,3.1,2.4,5c0.5,3.5-0.2,6.8-2.5,9.6
			c-0.9,1.2-2.1,2.1-3.5,2.8c0.1,0.1,0.1,0.2,0.2,0.2c2,1.4,3.1,3.3,3.3,5.7c0.3,3.7-0.4,7.1-2.7,10.1c-2.4,3.1-5.6,4.7-9.4,4.7
			c-5.4,0.1-10.8,0-16.3,0C88.3,70.3,88.2,70.3,88,70.3z M98.4,52.9c-0.7,3.6-1.3,7.1-2,10.6c2.7,0,5.3,0.1,7.9,0
			c0.9,0,1.9-0.4,2.6-0.9c2.2-1.3,3.3-4.4,2.6-6.9c-0.4-1.6-1.4-2.5-3.1-2.7c-1-0.1-1.9-0.1-2.9-0.1
			C101.9,52.9,100.2,52.9,98.4,52.9z M99.7,46.2c2.4,0,4.6,0.1,6.9,0c3.4-0.1,5.6-2.5,5.7-5.8c0.1-2.5-1.1-4-3.4-4.1
			c-2.4-0.1-4.8,0-7.3,0C101,39.5,100.3,42.8,99.7,46.2z"/>
		<path class="st0" d="M179.6,46.7c-0.3,1.4-0.5,2.8-0.8,4.1c-0.1,0.7-0.3,1.4-0.4,2.1c-0.1,0.4-0.2,0.5-0.7,0.5c-2,0-4,0-5.9,0
			c-2.4,0-4.8,0-7.1,0c-0.2,0-0.4,0-0.7,0c-1.1,5.6-2.1,11.2-3.2,16.8c-2.4,0-4.7,0-7.1,0c0.2-1.3,0.5-2.5,0.7-3.7
			c1.6-8.4,3.2-16.9,4.7-25.3c0.7-3.8,1.4-7.6,2.1-11.4c0.1-0.4,0.2-0.5,0.5-0.5c7.7,0,15.4,0,23.1,0c0.1,0,0.2,0,0.3,0
			c-0.2,1.1-0.4,2.1-0.6,3.2c-0.2,1-0.4,2-0.5,2.9c-0.1,0.5-0.3,0.6-0.7,0.6c-5.1,0-10.2,0-15.4,0c-0.2,0-0.5,0-0.8,0
			c-0.7,3.5-1.3,7-2,10.6C170,46.7,174.8,46.7,179.6,46.7z"/>
		<path class="st0" d="M256,66.3c-1.3,1.4-2.8,2.4-4.6,3.1c-3,1.2-6.1,1.7-9.3,0.9c-4.1-0.9-6.8-3.7-7.2-7.8
			c-0.7-5.9,0.3-11.6,3.6-16.7c2.3-3.5,5.6-5.5,9.8-5.8c5.4-0.3,9.5,3.1,10.3,8.4c0.4,3-0.1,5.8-0.6,8.7c0,0.1-0.2,0.3-0.4,0.3
			c-0.1,0.1-0.3,0-0.5,0c-5,0-10.1,0-15.1,0c-0.2,0-0.5,0-0.7,0c-0.3,1.5-0.4,2.9,0.1,4.3c0.6,1.9,2.4,2.9,4.6,2.8
			c2.3-0.1,4.2-1,5.9-2.6c0.2-0.1,0.3-0.3,0.5-0.5C253.7,63.1,254.9,64.7,256,66.3z M242.2,52.7c3.4,0,6.6,0,9.8,0
			c0.1,0,0.4-0.3,0.4-0.4c0-0.9,0.1-1.9,0-2.8c-0.1-1.1-0.6-2-1.4-2.7c-1.3-1-3.6-1.1-5.1,0C243.7,48.1,242.9,50.3,242.2,52.7z"/>
		<path class="st0" d="M184.2,60c0.3-3.9,0.9-8.4,2.8-12.5c1.7-3.6,4.3-6.2,8.2-7.1c2.8-0.7,5.5-0.5,8,0.8c2.7,1.5,4.2,3.9,4.4,7
			c0.4,5.6-0.6,11.1-3.2,16.1c-2.2,4.2-5.9,6.3-10.6,6.4c-3,0-5.6-1-7.5-3.3C184.7,65.4,184.2,63,184.2,60z M190.8,59.9
			c0,0.4,0,0.7,0.1,1.1c0.2,1.5,0.8,2.7,2.4,3.2c0.9,0.3,1.9,0.2,2.8-0.2c1.7-0.7,2.6-2,3.2-3.6c0.8-2.1,1.2-4.2,1.6-6.4
			c0.2-1.4,0.5-2.8,0.3-4.3c-0.4-2.4-2.3-3.6-4.6-3c-1.6,0.5-2.7,1.6-3.4,3.1C191.5,52.9,191.2,56.4,190.8,59.9z"/>
		<path class="st0" d="M289.4,40.4c-0.2,0.3-0.3,0.4-0.4,0.6c-3.5,4.6-6.9,9.2-10.4,13.8c-0.3,0.4-0.3,0.7-0.1,1.2
			c2,4.6,4,9.1,6,13.7c0.1,0.2,0.2,0.4,0.3,0.7c-0.2,0-0.4,0-0.6,0c-2.2,0-4.4,0-6.6,0c-0.4,0-0.5-0.1-0.7-0.5
			c-1-2.8-2.1-5.5-3.1-8.3c-0.1-0.1-0.1-0.3-0.2-0.5c-0.2,0.2-0.3,0.3-0.4,0.5c-1.9,2.8-3.8,5.5-5.7,8.3c-0.2,0.3-0.5,0.5-0.9,0.5
			c-2.3,0-4.7,0-7,0c-0.2,0-0.3,0-0.6,0c0.2-0.2,0.3-0.4,0.4-0.6c3.7-4.8,7.3-9.6,11-14.3c0.3-0.3,0.3-0.6,0.1-1
			c-1.9-4.4-3.9-8.8-5.8-13.3c-0.1-0.2-0.2-0.4-0.3-0.7c0.2,0,0.4-0.1,0.5-0.1c2.2,0,4.4,0,6.7,0c0.4,0,0.6,0.1,0.7,0.5
			c0.9,2.6,1.9,5.2,2.8,7.7c0.1,0.2,0.1,0.4,0.3,0.6c0.2-0.3,0.4-0.5,0.5-0.8c1.7-2.5,3.4-5,5.1-7.6c0.2-0.4,0.5-0.5,0.9-0.5
			c2.3,0,4.6,0,6.8,0C288.9,40.4,289,40.4,289.4,40.4z"/>
		<path class="st0" d="M140.1,46.7c-0.9,0-1.8,0-2.8,0c0.3-1.4,0.5-2.7,0.7-4.1c0.3-1.5,0.3-1.5,1.8-1.5c0.4,0,0.8,0,1.3,0
			c0.6-2.9,1.1-5.9,1.7-8.8c2.2,0,4.4,0,6.7,0c-0.5,2.9-1.1,5.8-1.6,8.8c1.5,0,3,0,4.6,0c-0.3,1.9-0.7,3.7-1,5.6c-1.5,0-3.1,0-4.6,0
			c-0.4,2-0.7,4-1.1,5.9c-0.5,2.9-1.1,5.8-1.6,8.8c0,0.1,0,0.2,0,0.2c-0.3,1.9,0.3,2.7,2.3,2.7c0.7,0,1.4,0,2.2,0
			c-0.4,2-0.8,4-1.1,6.1c-1.8-0.1-3.6,0-5.3-0.3c-3-0.6-4.9-2.8-4.9-5.9c0-1.9,0.4-3.8,0.7-5.7c0.6-3.7,1.4-7.5,2.1-11.2
			C140.1,47.1,140.1,46.9,140.1,46.7z"/>
		<path class="st0" d="M222.8,40.4c-0.2,0.9-0.3,1.8-0.5,2.8c1.8-2,4-3,6.5-3.1c2.6-0.1,4.8,0.6,6.4,2.8c-0.1,0.1-0.1,0.2-0.2,0.2
			c-1.8,1.7-3.6,3.5-5.5,5.2c-0.1-0.1-0.2-0.1-0.2-0.2c-1.6-1.9-3.8-2.1-5.8-0.6c-1.7,1.3-2.4,3.1-2.8,5.2c-1,5.7-2.1,11.4-3.2,17.1
			c0,0.2-0.1,0.3-0.1,0.5c-2.2,0-4.4,0-6.7,0c0.2-1.3,0.5-2.6,0.7-3.8c1.6-8.5,3.2-17,4.7-25.5c0.1-0.5,0.3-0.6,0.8-0.6
			C218.8,40.4,220.7,40.4,222.8,40.4z"/>
		<path class="st0" d="M126.6,40.4c2.2,0,4.4,0,6.7,0c-0.2,1.3-0.5,2.5-0.7,3.7c-1.6,8.6-3.2,17.1-4.8,25.7
			c-0.1,0.4-0.2,0.5-0.6,0.5c-1.9,0-3.8,0-5.8,0c-0.1,0-0.3,0-0.4,0C122.9,60.3,124.8,50.4,126.6,40.4z"/>
		<path class="st0" d="M127.2,31.9c0-3.2,3.1-5.3,5.8-4.1c1.6,0.7,2.7,2.6,2.5,4.4c-0.1,2-1.3,3.6-3.1,4.1c-2.5,0.8-5.1-1.2-5.3-4
			C127.2,32.2,127.2,32.1,127.2,31.9z"/>
	</g>
</g>
</svg>
