<?xml version="1.0" encoding="utf-8"?>
<!-- Generator: Adobe Illustrator 24.1.0, SVG Export Plug-In . SVG Version: 6.00 Build 0)  -->
<svg version="1.1" id="Ebene_1" xmlns="http://www.w3.org/2000/svg" xmlns:xlink="http://www.w3.org/1999/xlink" x="0px" y="0px"
	 width="300px" height="100px" viewBox="0 0 300 100" style="enable-background:new 0 0 300 100;" xml:space="preserve">
<style type="text/css">
	.st0{fill:#3d3939;}
</style>
<g id="Nn8BHT.tif">
	<g>
		<path class="st0" d="M84,91.4c0-5.6,0-11.2,0-16.9c0.2-0.3,0.3-0.6,0.5-0.9c1-1.1,2.1-2.1,3.1-3.2C93,65,98.4,59.6,103.8,54.1
			c4.6-4.7,9.3-9.3,13.9-14c3.6-3.7,7.2-7.3,10.8-11c0.2-0.2,0.3-0.5,0.5-0.7c-0.3-0.1-0.6-0.3-0.9-0.3c-8,0-16,0-23.9,0
			c-6,0-11.9,0-17.9,0c-0.6,0-1.1-0.1-1-0.9c0-5.3,0-10.6,0-15.9c0-2.2-0.2-1.9,1.9-1.9c22.2,0,44.5,0,66.7,0c0.6,0,1.1,0,1.7,0
			c0.2,0,0.5,0.2,0.6,0.4c0.4,1.1,0,2.3-1,3c-0.8,0.6-1.7,1.2-2.4,1.9c-2.8,2.4-5.3,5-7.4,8c-1.2,1.7-2.3,3.4-3.3,5.3
			c-0.8,1.4-1.4,2.9-1.9,4.5c-0.7,2.1-1.4,4.1-1.9,6.3c-0.4,2-0.5,4.1-0.8,6.2c-0.1,0.4-0.2,0.8-0.4,1.1c-1.9,1.9-3.8,3.8-5.7,5.8
			c-3.2,3.2-6.3,6.3-9.5,9.5c-3.6,3.6-7.2,7.1-10.8,10.7c-0.3,0.3-0.5,0.8-0.8,1.2c12.8,0,25.5,0,38.3,0c-0.2-0.5-0.3-0.9-0.5-1.2
			c-0.9-1.5-2-2.9-2.7-4.5c-1-2.2-1.8-4.5-2.6-6.8c-1.1-3.3-1.6-6.7-1.6-10.1c0-2.1,0.1-4.3,0.3-6.4c0.2-2,0.5-4,1-5.9
			c0.8-2.9,2-5.8,3.4-8.5c1.6-3,3.5-5.7,5.7-8.2c4.3-4.9,9.6-8.6,15.5-11.3c2.1-0.9,4.3-1.8,6.6-2.3c3.3-0.7,6.7-1.3,10.1-1.5
			c4.5-0.3,8.9,0.5,13.3,1.5c0.9,0.2,1.8,0.4,2.7,0.8c1.6,0.6,3.1,1.3,4.6,2c1.3,0.6,2.6,1.1,3.7,1.8c3.1,1.8,6,4,8.6,6.5
			c0.5,0.5,0.5,0.9,0,1.3c-4.2,4.2-8.4,8.4-12.5,12.5c-0.4,0.5-0.8,0.4-1.2,0c-2-2.1-4.5-3.6-7.1-4.8c-2.9-1.3-5.9-2-9.1-2.2
			c-3.9-0.3-7.6,0.4-11.2,1.9c-2.2,0.9-4.3,2-6.1,3.4c-3.2,2.5-5.8,5.6-7.3,9.5c-1,2.4-1.6,4.8-1.7,7.4c-0.2,3.9,0.5,7.7,2.6,11.1
			c1.1,1.8,2.3,3.6,3.7,5.2c2.2,2.4,4.9,4.4,8,5.6c2,0.7,3.9,1.5,6,1.9c2.1,0.4,4.4,0.3,6.6,0.3c2.2,0,4.2-0.5,6.3-1.2
			c1.6-0.5,3.1-1.2,4.5-2c1.3-0.7,2.7-1.4,3.7-2.8c-0.3-0.1-0.6-0.2-0.8-0.2c-1.4,0-2.9,0-4.3,0c-3.5,0-7,0-10.6,0
			c-0.7,0-1.2-0.1-1.1-0.9c0-1.5,0.1-3.1,0.1-4.6c0-2.8,0-5.6,0-8.4c0-1.2,0.1-1.4,1.3-1.4c2,0,4,0,6.1,0c7.9,0,15.7,0.1,23.6,0.1
			c1.5,0,1.5,0,1.5,1.5c0,8.5,0,17.1,0.1,25.6c0,0.2-0.1,0.5-0.3,0.7c-1.7,1.5-3.4,3.2-5.3,4.5c-1.7,1.3-3.6,2.4-5.5,3.5
			c-1.2,0.7-2.4,1.3-3.7,1.8c-1.9,0.7-3.8,1.3-5.7,1.8c-2.1,0.5-4.3,1.1-6.4,1.2c-3.1,0.2-6.2,0.2-9.3,0.2
			c-31.9,0-63.8,0.1-95.7,0.1C84.9,91.7,84.4,91.5,84,91.4z"/>
	</g>
</g>
</svg>
