<?xml version="1.0" encoding="UTF-8" standalone="no"?>
<svg
   viewBox="0 0 1000 1000"
   version="1.1"
   id="svg4"
   sodipodi:docname="facebook2.svg"
   inkscape:version="1.2.2 (b0a8486541, 2022-12-01)"
   xmlns:inkscape="http://www.inkscape.org/namespaces/inkscape"
   xmlns:sodipodi="http://sodipodi.sourceforge.net/DTD/sodipodi-0.dtd"
   xmlns="http://www.w3.org/2000/svg"
   xmlns:svg="http://www.w3.org/2000/svg">
  <defs
     id="defs8" />
  <sodipodi:namedview
     id="namedview6"
     pagecolor="#ffffff"
     bordercolor="#666666"
     borderopacity="1.0"
     inkscape:showpageshadow="2"
     inkscape:pageopacity="0.0"
     inkscape:pagecheckerboard="0"
     inkscape:deskcolor="#d1d1d1"
     showgrid="false"
     inkscape:zoom="0.779"
     inkscape:cx="500"
     inkscape:cy="499.35815"
     inkscape:window-width="1920"
     inkscape:window-height="959"
     inkscape:window-x="0"
     inkscape:window-y="48"
     inkscape:window-maximized="1"
     inkscape:current-layer="svg4" />
  <path
     d="M500 12q-133 0-247 67-110 64-174 174-67 114-67 247 0 133 67 247 64 110 174 174 114 67 247 67 133 0 247-67 110-64 174-174 67-114 67-247 0-133-67-247-64-110-174-174-114-67-247-67z m157 291l-65 0q-31 0-43 15-10 12-10 38l0 75 114 0-16 98-98 0 0 276-98 0 0-276-98 0 0-98 98 0 0-91q0-68 37-106.5 37-38.5 99-38.5 34 0 77 5l4 0 0 103-1 0z"
     id="path2"
     style="fill:#8c939a;fill-opacity:1" />
</svg>
