<?xml version="1.0" encoding="utf-8"?>
<!-- Generator: Adobe Illustrator 25.0.1, SVG Export Plug-In . SVG Version: 6.00 Build 0)  -->
<svg version="1.1" id="Ebene_1" xmlns="http://www.w3.org/2000/svg" xmlns:xlink="http://www.w3.org/1999/xlink" x="0px" y="0px"
	 viewBox="0 0 327.2 79" style="enable-background:new 0 0 327.2 79;" xml:space="preserve">
<style type="text/css">
	.st0{fill:#3D3939;}
	.st1{fill-rule:evenodd;clip-rule:evenodd;fill:#FFFFFF;}
	.st2{fill-rule:evenodd;clip-rule:evenodd;fill:#3D3939;}
</style>
<g>
	<path class="st0" d="M309.6,37.8l-18.9-24.4c-0.5-0.7-1.5-1.1-2.3-1.1h-87.1v54.5h88.1c0.8,0,1.5-0.3,2-1l18.4-23.6
		C310.6,40.9,310.6,39.1,309.6,37.8z M242.6,57.1H213V21.6h28.9v9h-17.1v4.1H240v8.7h-15.1v4.6h17.7V57.1z M271.2,57.1l-6.1-9.5
		l-6.1,9.5h-13.6l12.8-17.9l-12.5-17.5h13.5l6.1,9l5.9-9h13l-12.3,17.2L285,57.3h-13.8V57.1z"/>
	<path class="st1" d="M213,57.1h29.6v-9.2h-17.7v-4.6h15.1v-8.7h-15.1v-4.1h17.1v-9H213V57.1z M265.1,47.6l6.1,9.5v0.2h13.8
		l-13.1-18.3l12.3-17.2h-13l-5.9,9l-6.1-9h-13.5l12.5,17.5l-12.8,17.9H259L265.1,47.6z"/>
	<path class="st2" d="M24.6,45.8c0.2,1.8,0.7,3.1,1.5,4c1.3,1.6,3.6,2.4,6.8,2.4c1.9,0,3.5-0.2,4.7-0.6c2.3-0.8,3.4-2.3,3.4-4.5
		c0-1.3-0.6-2.3-1.7-3c-1.1-0.7-2.9-1.3-5.3-1.8l-4.1-0.9c-4.1-0.9-6.9-1.9-8.4-3c-2.6-1.8-4-4.6-4-8.5c0-3.5,1.3-6.4,3.8-8.7
		c2.5-2.3,6.3-3.5,11.2-3.5c4.1,0,7.6,1.1,10.5,3.3c2.9,2.2,4.4,5.4,4.6,9.5h-7.9c-0.1-2.4-1.2-4-3.1-5c-1.3-0.7-2.9-1-4.7-1
		c-2.1,0-3.8,0.4-5,1.3c-1.3,0.8-1.9,2-1.9,3.6c0,1.4,0.6,2.4,1.9,3.1c0.8,0.5,2.5,1,5.1,1.6l6.7,1.6c3,0.7,5.2,1.7,6.7,2.8
		c2.3,1.8,3.5,4.5,3.5,8c0,3.6-1.4,6.5-4.1,8.9c-2.7,2.4-6.6,3.5-11.6,3.5c-5.1,0-9.1-1.2-12-3.5c-2.9-2.3-4.4-5.5-4.4-9.6H24.6z
		 M51.3,34.7v-5.4h4v-8.1h7.5v8.1h4.7v5.4h-4.7v15.3c0,1.2,0.1,1.9,0.4,2.2c0.3,0.3,1.2,0.4,2.8,0.4c0.2,0,0.5,0,0.7,0
		c0.3,0,0.5,0,0.8,0v5.7L64,58.3c-3.6,0.1-6-0.5-7.3-1.9c-0.8-0.9-1.3-2.2-1.3-4V34.7H51.3z M83.8,34.5c-1.8,0-3.1,0.5-4.1,1.6
		c-1,1.1-1.6,2.6-1.8,4.5h11.8c-0.1-2-0.7-3.5-1.8-4.5C86.8,35,85.4,34.5,83.8,34.5z M83.8,28.2c2.4,0,4.6,0.5,6.5,1.4
		c1.9,0.9,3.5,2.3,4.8,4.3c1.1,1.7,1.9,3.7,2.2,6c0.2,1.3,0.3,3.2,0.2,5.7H77.7c0.1,2.9,1,4.9,2.7,6.1c1,0.7,2.3,1.1,3.8,1.1
		c1.6,0,2.8-0.4,3.8-1.3c0.5-0.5,1-1.1,1.4-2h7.7c-0.2,1.7-1.1,3.5-2.7,5.2c-2.5,2.8-5.9,4.2-10.4,4.2c-3.7,0-6.9-1.2-9.7-3.6
		c-2.8-2.4-4.2-6.2-4.2-11.6c0-5,1.3-8.8,3.8-11.5C76.5,29.6,79.8,28.2,83.8,28.2z M118.6,43.9c-0.5,0.3-1,0.5-1.4,0.7
		c-0.5,0.2-1.2,0.4-2,0.5l-1.7,0.3c-1.6,0.3-2.7,0.6-3.4,1c-1.2,0.7-1.8,1.8-1.8,3.2c0,1.3,0.4,2.2,1.1,2.8c0.7,0.6,1.6,0.9,2.6,0.9
		c1.6,0,3.1-0.5,4.5-1.4c1.4-1,2.1-2.7,2.1-5.2V43.9z M114,40.3c1.4-0.2,2.4-0.4,3-0.7c1.1-0.5,1.6-1.2,1.6-2.1c0-1.2-0.4-2-1.2-2.5
		c-0.8-0.5-2-0.7-3.6-0.7c-1.8,0-3.1,0.4-3.8,1.3c-0.5,0.7-0.9,1.5-1.1,2.7h-7.3c0.2-2.5,0.9-4.6,2.1-6.2c2-2.5,5.4-3.8,10.3-3.8
		c3.2,0,6,0.6,8.4,1.9c2.5,1.3,3.7,3.6,3.7,7.1v13.3c0,0.9,0,2,0.1,3.3c0.1,1,0.2,1.7,0.5,2c0.2,0.4,0.6,0.6,1.1,0.9v1.1h-8.2
		c-0.2-0.6-0.4-1.1-0.5-1.6c-0.1-0.5-0.2-1.1-0.2-1.8c-1,1.1-2.2,2.1-3.6,2.9c-1.6,0.9-3.5,1.4-5.5,1.4c-2.6,0-4.8-0.7-6.5-2.2
		c-1.7-1.5-2.6-3.6-2.6-6.4c0-3.6,1.4-6.1,4.1-7.7c1.5-0.9,3.7-1.5,6.6-1.9L114,40.3z M140.6,57.9H133V18.8h7.6V57.9z M145,34.7
		v-5.4h4v-8.1h7.5v8.1h4.7v5.4h-4.7v15.3c0,1.2,0.2,1.9,0.5,2.2c0.3,0.3,1.2,0.4,2.8,0.4c0.2,0,0.5,0,0.7,0c0.3,0,0.5,0,0.8,0v5.7
		l-3.6,0.1c-3.6,0.1-6-0.5-7.3-1.9c-0.8-0.9-1.3-2.2-1.3-4V34.7H145z M182,28.3c1.8,0,3.4,0.3,4.9,0.9c1.5,0.6,2.7,1.6,3.6,2.8
		c0.8,1.1,1.3,2.2,1.5,3.3c0.2,1.1,0.3,3,0.3,5.6v17h-7.7V40.3c0-1.6-0.3-2.8-0.8-3.8c-0.7-1.3-2-2-3.9-2c-2,0-3.5,0.7-4.5,2
		c-1,1.3-1.6,3.2-1.6,5.7v15.7h-7.5v-39h7.5v13.8c1.1-1.7,2.4-2.9,3.8-3.5C178.9,28.6,180.4,28.3,182,28.3z"/>
</g>
</svg>
