<?xml version="1.0" encoding="UTF-8" standalone="no"?>
<svg
   version="1.1"
   width="256"
   height="256"
   viewBox="0 0 256 256"
   xml:space="preserve"
   id="svg1"
   sodipodi:docname="twitter-x-logo-black-round-20851.svg"
   xmlns:inkscape="http://www.inkscape.org/namespaces/inkscape"
   xmlns:sodipodi="http://sodipodi.sourceforge.net/DTD/sodipodi-0.dtd"
   xmlns="http://www.w3.org/2000/svg"
   xmlns:svg="http://www.w3.org/2000/svg"><sodipodi:namedview
   id="namedview1"
   pagecolor="#ffffff"
   bordercolor="#666666"
   borderopacity="1.0"
   inkscape:showpageshadow="2"
   inkscape:pageopacity="0.0"
   inkscape:pagecheckerboard="0"
   inkscape:deskcolor="#d1d1d1" />

<defs
   id="defs1" />
<g
   style="opacity:1;fill:none;fill-rule:nonzero;stroke:none;stroke-width:0;stroke-linecap:butt;stroke-linejoin:miter;stroke-miterlimit:10;stroke-dasharray:none"
   transform="matrix(2.81,0,0,2.81,1.4065934,1.4065934)"
   id="g1">
	<polygon
   points="65.24,66.99 32.34,23.01 24.89,23.01 57.79,66.99 "
   style="opacity:1;fill:#000000;fill-rule:nonzero;stroke:none;stroke-width:1;stroke-linecap:butt;stroke-linejoin:miter;stroke-miterlimit:10;stroke-dasharray:none"
   id="polygon1" />
	<path
   d="M 45,0 V 0 C 20.147,0 0,20.147 0,45 v 0 c 0,24.853 20.147,45 45,45 v 0 C 69.853,90 90,69.853 90,45 v 0 C 90,20.147 69.853,0 45,0 Z M 56.032,70.504 41.054,50.477 22.516,70.504 H 17.751 L 38.925,47.63 17.884,19.496 H 34.101 L 47.895,37.94 64.967,19.496 h 4.765 L 50.024,40.788 72.249,70.504 Z"
   style="opacity:1;fill:#000000;fill-rule:nonzero;stroke:none;stroke-width:1;stroke-linecap:butt;stroke-linejoin:miter;stroke-miterlimit:10;stroke-dasharray:none"
   stroke-linecap="round"
   id="path1" />
</g>
<path
   style="fill:#e9999b;fill-opacity:1;stroke:none;stroke-width:0.339523"
   d="m 119.6817,253.92228 c -5.93353,-0.53804 -11.77324,-1.32934 -16.20323,-2.1956 C 69.25878,245.03527 39.456105,224.4122 20.530007,194.32741 17.676462,189.79144 12.444285,179.40547 10.463309,174.34483 6.2019069,163.45856 3.5457549,152.55775 2.1489502,140.22281 1.604728,135.41688 1.6028151,120.2686 2.1458203,115.43767 4.9906864,90.127842 14.021803,68.167493 29.652426,48.551724 33.819301,43.322473 43.322473,33.819301 48.551724,29.652426 68.167493,14.021803 90.127842,4.9906864 115.43767,2.1458203 c 4.88459,-0.5490364 19.97737,-0.5372323 24.9549,0.019517 29.22334,3.2687066 54.70207,15.1378517 75.15882,35.0123817 21.34111,20.733718 34.17597,46.68363 37.78387,76.392571 0.73718,6.07018 0.84639,21.35786 0.19283,26.99204 -2.96912,25.59614 -11.84855,47.03287 -27.71686,66.9141 -3.79708,4.75733 -14.18074,15.03327 -19.27567,19.07572 -18.70996,14.84497 -40.09484,23.76583 -64.10585,26.74222 -4.05032,0.50207 -19.44844,0.92711 -22.74801,0.62791 z M 90.65252,171.79172 c 14.19204,-15.38223 25.90561,-27.97585 26.03016,-27.98581 0.12454,-0.01 9.65134,12.58666 21.17066,27.9925 l 20.94422,28.01061 h 22.91068 c 14.98629,0 22.87154,-0.11639 22.79751,-0.3365 -0.0623,-0.18507 -14.01663,-18.93283 -31.00973,-41.66167 -16.9931,-22.72885 -30.89655,-41.50893 -30.89655,-41.73352 0,-0.22459 11.91724,-13.27676 26.48276,-29.004811 14.56552,-15.728052 26.91404,-29.110602 27.44116,-29.738997 l 0.95841,-1.142541 h -6.90673 -6.90673 l -23.72818,25.644525 c -13.0505,14.104487 -23.84157,25.601574 -23.98014,25.549074 -0.13857,-0.0525 -8.8503,-11.592538 -19.35939,-25.644527 L 97.49319,56.190981 H 74.423855 c -18.410328,0 -23.000717,0.08571 -22.729568,0.424404 0.186873,0.233421 13.364399,17.841909 29.283392,39.129973 15.918993,21.288062 29.080851,38.878522 29.248581,39.089902 0.20518,0.25858 -9.39025,10.85343 -29.326698,32.38126 -16.297412,17.59832 -29.682586,32.13094 -29.744831,32.29472 -0.06276,0.16513 2.962012,0.28673 6.790451,0.27298 l 6.903624,-0.0248 z"
   id="path8" /><path
   style="fill:#e9999b;fill-opacity:1;stroke:none;stroke-width:0.339523"
   d="m 149.34601,170.00239 c -8.05386,-10.77665 -28.79034,-38.50106 -46.08108,-61.60982 l -31.4377,-42.015912 10.261451,0.0158 10.261452,0.0158 45.835547,61.314152 c 25.20955,33.72278 45.88647,61.44618 45.94871,61.60754 0.0623,0.16137 -4.44491,0.2873 -10.01591,0.27987 l -10.12909,-0.0135 z"
   id="path9" /></svg>
