<?xml version="1.0" encoding="utf-8"?>
<!-- Generator: Adobe Illustrator 24.3.0, SVG Export Plug-In . SVG Version: 6.00 Build 0)  -->
<svg version="1.1" id="Layer_1" xmlns="http://www.w3.org/2000/svg" xmlns:xlink="http://www.w3.org/1999/xlink" x="0px" y="0px"
	 viewBox="0 0 512 512" style="enable-background:new 0 0 512 512;" xml:space="preserve">
<style type="text/css">
	.st0{fill-rule:evenodd;clip-rule:evenodd;fill:#CBDBE8;}
	.st1{fill-rule:evenodd;clip-rule:evenodd;fill:#DFEBF2;}
	.st2{fill:#99A4AA;stroke:#000000;stroke-width:5;stroke-linecap:round;stroke-linejoin:round;stroke-miterlimit:10;}
	.st3{fill:#DFEBF2;stroke:#000000;stroke-width:5;stroke-linecap:round;stroke-linejoin:round;stroke-miterlimit:10;}
	.st4{fill-rule:evenodd;clip-rule:evenodd;fill:#DFEBF2;stroke:#000000;stroke-width:5;stroke-miterlimit:10;}
	
		.st5{fill-rule:evenodd;clip-rule:evenodd;fill:#99A4AA;stroke:#000000;stroke-width:5;stroke-linecap:round;stroke-linejoin:round;stroke-miterlimit:10;}
</style>
<circle class="st1" cx="256" cy="256" r="250"/>
<path class="st2" d="M410.9,207c-0.9-11.2-2.5-22.1-6.7-32.6c-4.3-11-12.3-17.7-23.1-21.7c-8-2.9-16.4-3.1-24.7-3.5
	c-27-1.4-54.1-2.1-81.1-2.4c-35.1-0.4-70.2,0.4-105.2,1.8c-10.3,0.4-20.7,0.4-30.9,2.4c-12.1,2.4-22.1,8.1-27.9,19.6
	c-2.4,4.9-4.3,10-5.5,15.3c-3.3,13.5-3.7,27.3-4.3,41c-1.1,25.8-1,51.7,1.1,77.6c1,12.5,2.7,24.8,8.1,36.5c3.2,7,8.3,12,14.9,15.5
	c9.8,5.3,20.7,6.3,31.5,6.9c33.3,1.8,66.7,2.3,100.1,2.1c13.3,0,26.8,0.1,40.1,0c22.7-0.3,45.5-1.1,68.2-2.6
	c21.2-1.4,35.7-10.5,41.8-33.7c2.7-10.1,3.4-20.4,4.1-30.6C413.4,267.9,413.3,237.4,410.9,207z M315.1,251.6
	c-30.5,16.7-60.4,33-90.7,49.6v0v0c0-33.2,0-66,0-99.4C254.6,218.5,284.5,234.8,315.1,251.6C315,251.6,315,251.6,315.1,251.6
	C315,251.6,315,251.6,315.1,251.6z"/>
</svg>
