<?xml version="1.0" encoding="utf-8"?>
<!-- Generator: Adobe Illustrator 24.3.0, SVG Export Plug-In . SVG Version: 6.00 Build 0)  -->
<svg version="1.1" id="Layer_1" xmlns="http://www.w3.org/2000/svg" xmlns:xlink="http://www.w3.org/1999/xlink" x="0px" y="0px"
	 viewBox="0 0 512 512" style="enable-background:new 0 0 512 512;" xml:space="preserve">
<style type="text/css">
	.st0{fill-rule:evenodd;clip-rule:evenodd;fill:#CBDBE8;}
	.st1{fill-rule:evenodd;clip-rule:evenodd;fill:#DFEBF2;}
	.st2{fill:#99A4AA;stroke:#000000;stroke-width:5;stroke-linecap:round;stroke-linejoin:round;stroke-miterlimit:10;}
	.st3{fill:#DFEBF2;stroke:#000000;stroke-width:5;stroke-linecap:round;stroke-linejoin:round;stroke-miterlimit:10;}
	.st4{fill-rule:evenodd;clip-rule:evenodd;fill:#DFEBF2;stroke:#000000;stroke-width:5;stroke-miterlimit:10;}
	
		.st5{fill-rule:evenodd;clip-rule:evenodd;fill:#99A4AA;stroke:#000000;stroke-width:5;stroke-linecap:round;stroke-linejoin:round;stroke-miterlimit:10;}
</style>
<circle class="st0" cx="256" cy="256" r="250"/>
<g id="_10-qq">
	<path class="st3" d="M192.2,395.9c0,0-52,13.3-40.8,26.1c8.5,9.8,101.6,4.3,101.6-2.1S235.2,390.8,192.2,395.9z"/>
	<path class="st3" d="M319.8,395.9c0,0,52,13.3,40.8,26.1c-8.5,9.8-101.6,4.3-101.6-2.1S276.9,390.8,319.8,395.9z"/>
	<path class="st3" d="M256,423.9c108.9,0,110.7-94.1,110.7-94.1c6.9,12.4,16.3,23.3,27.6,31.9c1.1,0.9,2.6,0.7,3.5-0.4
		c0.2-0.3,0.4-0.6,0.5-0.9c10.9-34.2-35.2-131.8-35.2-131.8C363,75.9,256,84.8,256,84.8s-107-8.9-107,143.9
		c0,0-46.4,97.7-35.2,131.7c0.4,1.3,1.7,2.1,3.1,1.7c0.3-0.1,0.6-0.2,0.9-0.5c11.3-8.6,20.6-19.5,27.6-31.9
		C145.4,329.8,160.8,423.9,256,423.9z"/>
	
		<ellipse transform="matrix(0.9983 -5.826098e-02 5.826098e-02 0.9983 -8.5687 13.5063)" class="st3" cx="227.3" cy="153.7" rx="17.9" ry="28.1"/>
	
		<ellipse transform="matrix(5.826092e-02 -0.9983 0.9983 5.826092e-02 114.7013 428.9958)" class="st3" cx="284.7" cy="153.7" rx="28.1" ry="17.9"/>
	<path class="st3" d="M256,224.2c25.5,0,53.3-14,62.2-18.8c1.2-0.7,1.7-2.2,1-3.5c-0.2-0.3-0.4-0.5-0.6-0.7
		c-5.2-4.2-20.6-12.1-62.6-12.1s-57.4,7.8-62.6,12.1c-1.1,0.9-1.3,2.5-0.4,3.6c0.2,0.3,0.5,0.5,0.7,0.6
		C202.7,210.5,230.5,224.2,256,224.2z"/>
	<ellipse cx="235" cy="156.2" rx="6.6" ry="10.8"/>
	<path d="M274.5,163.6c-0.7,0-1.4-0.2-2-0.6c-1.8-1.1-2.4-3.4-1.3-5.2c2.8-4.7,7.4-8,12.8-9.2c4.8-0.5,9.6,1.3,12.8,4.9
		c1.5,1.5,1.5,3.9,0,5.4c-1.5,1.5-3.9,1.5-5.4,0c0,0,0,0,0,0c-1.6-1.9-3.9-2.9-6.4-2.8c-3.1,0.9-5.7,2.9-7.3,5.6
		C276.9,162.8,275.7,163.5,274.5,163.6z"/>
	<path class="st3" d="M256,412c107.6,0,79.3-148.6,79.3-148.6H176.7C176.7,263.4,148.4,412,256,412z"/>
	<path class="st3" d="M189.8,327.8v-49.5c-22.8-4.1-43.4-9.1-56.6-12.8c8.3-21.2,15.8-37.1,15.8-37.1s0-0.8,0-1.3
		c17.7,6.4,51,14.3,106.9,14.3s89.3-8,106.9-14.3c0,0.4,0,0.8,0,1.3c0,0.4,7.5,15.9,15.8,37.1c-25.5,6.8-79,19.1-122.8,19.1
		c-6.4,0-12.8,0-19.1-0.7v46.2C236.8,330.2,201.2,332.7,189.8,327.8z"/>
</g>
</svg>
