<?xml version="1.0" encoding="UTF-8"?><svg id="Layer_1" xmlns="http://www.w3.org/2000/svg" xmlns:xlink="http://www.w3.org/1999/xlink" viewBox="-100 -100 967 967"><defs><style>.cls-1{filter:url(#AI_GaussianBlur_10);}.cls-2{filter:url(#AI_GaussianBlur_20);}.cls-3,.cls-4{fill:none;}.cls-5{fill:url(#radial-gradient);}.cls-6{fill:url(#radial-gradient-3);}.cls-7{fill:url(#radial-gradient-2);}.cls-8{fill:#b61a36;}.cls-9{fill:#fff3f3;}.cls-4{stroke:url(#radial-gradient-4);stroke-miterlimit:10;stroke-width:13px;}</style><filter id="AI_GaussianBlur_20"><feGaussianBlur stdDeviation="20"/></filter><radialGradient id="radial-gradient" cx="388.13" cy="380.97" fx="388.13" fy="380.97" r="318.15" gradientUnits="userSpaceOnUse"><stop offset=".49" stop-color="#fff3f3"/><stop offset="1" stop-color="#ff335f"/></radialGradient><radialGradient id="radial-gradient-2" cx="388.13" cy="380.97" fx="388.13" fy="380.97" r="298.15" xlink:href="#radial-gradient"/><filter id="AI_GaussianBlur_10"><feGaussianBlur stdDeviation="10"/></filter><radialGradient id="radial-gradient-3" cx="619.7" cy="145.06" fx="619.7" fy="145.06" r="79.26" gradientUnits="userSpaceOnUse"><stop offset="0" stop-color="#fff3f3"/><stop offset="1" stop-color="#ff335f"/></radialGradient><radialGradient id="radial-gradient-4" cx="388.13" cy="380.97" fx="388.13" fy="380.97" r="304.65" xlink:href="#radial-gradient"/></defs><g class="cls-2"><path class="cls-5" d="M388.13,699.13c-14.51,0-27.32-8.72-32.64-22.21l-40.86-103.61c-21.36-54.16-64.67-97.46-118.82-118.82l-103.61-40.86c-13.5-5.32-22.22-18.14-22.22-32.64s8.72-27.32,22.22-32.64l103.61-40.86c54.15-21.36,97.46-64.67,118.82-118.82l40.86-103.61c5.32-13.5,18.14-22.22,32.64-22.22s27.32,8.72,32.64,22.22l40.86,103.61c21.36,54.15,64.67,97.46,118.82,118.82l103.61,40.86c13.5,5.32,22.22,18.14,22.22,32.64s-8.72,27.32-22.22,32.64l-103.61,40.86c-54.15,21.36-97.46,64.67-118.82,118.82l-40.86,103.61c-5.32,13.5-18.14,22.22-32.64,22.22Z"/></g><path class="cls-7" d="M573.12,326.07l103.61,40.86c12.74,5.02,12.74,23.05,0,28.08l-103.61,40.86c-59.51,23.47-106.62,70.58-130.09,130.09l-40.86,103.61c-5.02,12.74-23.05,12.74-28.08,0l-40.86-103.61c-23.47-59.51-70.58-106.62-130.09-130.09l-103.61-40.86c-12.74-5.02-12.74-23.05,0-28.08l103.61-40.86c59.51-23.47,106.62-70.58,130.09-130.09l40.86-103.61c5.02-12.74,23.05-12.74,28.08,0l40.86,103.61c23.47,59.51,70.58,106.62,130.09,130.09Z"/><circle class="cls-9" cx="388.13" cy="380.97" r="149.57"/><path class="cls-8" d="M334.9,437.39c2.99,0,5.73-1.66,7.13-4.3l18.99-36h-29.31c-4.43,0-8.06-3.63-8.06-8.06v-16.12c0-4.43,3.63-8.06,8.06-8.06h46.32l36-68.24c1.39-2.64,4.14-4.3,7.13-4.3h60.58c-23.5-24.8-56.73-40.3-93.6-40.3-71.22,0-128.96,57.74-128.96,128.96,0,20.24,4.67,39.38,12.98,56.42h62.76Z"/><path class="cls-8" d="M441.35,324.55c-2.99,0-5.73,1.66-7.13,4.3l-18.99,36h29.31c4.43,0,8.06,3.63,8.06,8.06v16.12c0,4.43-3.63,8.06-8.06,8.06h-46.32l-35.99,68.24c-1.4,2.64-4.14,4.3-7.13,4.3h-60.58c23.5,24.8,56.73,40.3,93.6,40.3,71.22,0,128.96-57.74,128.96-128.96,0-20.24-4.67-39.38-12.98-56.42h-62.76Z"/><g class="cls-1"><path class="cls-6" d="M669.4,147.85l28.96,66.68c2.53,5.82-3.38,11.73-9.2,9.2l-66.68-28.96c-1.78-.77-3.79-.77-5.57,0l-66.68,28.96c-5.82,2.53-11.73-3.38-9.2-9.2l28.96-66.68c.77-1.78.77-3.79,0-5.57l-28.96-66.68c-2.53-5.82,3.38-11.73,9.2-9.2l66.68,28.96c1.78.77,3.79.77,5.57,0l66.68-28.96c5.82-2.53,11.73,3.38,9.2,9.2l-28.96,66.68c-.77,1.78-.77,3.79,0,5.57Z"/></g><path class="cls-4" d="M573.12,326.07l103.61,40.86c12.74,5.02,12.74,23.05,0,28.08l-103.61,40.86c-59.51,23.47-106.62,70.58-130.09,130.09l-40.86,103.61c-5.02,12.74-23.05,12.74-28.08,0l-40.86-103.61c-23.47-59.51-70.58-106.62-130.09-130.09l-103.61-40.86c-12.74-5.02-12.74-23.05,0-28.08l103.61-40.86c59.51-23.47,106.62-70.58,130.09-130.09l40.86-103.61c5.02-12.74,23.05-12.74,28.08,0l40.86,103.61c23.47,59.51,70.58,106.62,130.09,130.09Z"/><rect class="cls-3" width="767" height="767"/></svg>