<svg width="60" height="60" viewBox="0 0 60 60" fill="none" xmlns="http://www.w3.org/2000/svg">
<path d="M20.7885 31.4016C20.7885 33.4355 22.25 35.1004 24.0269 35.1004C25.8268 35.1004 27.2576 33.4434 27.2653 31.3937C27.2883 29.3676 25.8422 27.6949 24.0269 27.6949C22.2192 27.6949 20.7885 29.3676 20.7885 31.4016Z" fill="#8C939A"/>
<path d="M32.7497 31.4016C32.7497 33.4355 34.2112 35.1004 35.9881 35.1004C37.8035 35.1004 39.2265 33.4434 39.2265 31.3937C39.2496 29.3676 37.8035 27.6949 35.9881 27.6949C34.1805 27.6949 32.7497 29.3676 32.7497 31.4016Z" fill="#8C939A"/>
<path fill-rule="evenodd" clip-rule="evenodd" d="M30 60C46.5685 60 60 46.5685 60 30C60 13.4315 46.5685 0 30 0C13.4315 0 0 13.4315 0 30C0 46.5685 13.4315 60 30 60ZM42.4803 18.3234C42.4991 18.3359 42.5119 18.3445 42.5187 18.3653C46.5801 24.4672 48.5878 31.3544 47.8493 39.2783C47.8493 39.3175 47.8263 39.3411 47.8032 39.3647C45.0802 41.4222 42.0341 42.985 38.7957 43.998C38.7496 44.0059 38.7034 43.9902 38.6727 43.9509C37.9881 42.9771 37.3727 41.9562 36.8342 40.896C36.8298 40.8915 36.828 40.8896 36.8272 40.8873C36.8272 40.8873 36.8266 40.8837 36.8266 40.8803C36.8035 40.8254 36.8343 40.7547 36.8958 40.7311C37.865 40.3542 38.8034 39.8987 39.7034 39.3647C39.7111 39.3568 39.7265 39.349 39.7342 39.3333C39.7726 39.2783 39.7649 39.2076 39.7111 39.1683C39.5188 39.027 39.3265 38.8699 39.1496 38.7207C39.1188 38.6893 39.0727 38.6893 39.0342 38.705C33.2113 41.4536 26.8345 41.4536 20.9424 38.705C20.9039 38.6893 20.8577 38.6971 20.827 38.7207C20.6424 38.8778 20.4578 39.027 20.2655 39.1683C20.2501 39.1762 20.2424 39.184 20.2347 39.1997C20.1962 39.2626 20.2193 39.3333 20.2731 39.3647C21.1731 39.8987 22.1116 40.3542 23.0808 40.7311C23.0885 40.739 23.0885 40.739 23.0961 40.739C23.1577 40.7704 23.1808 40.8411 23.15 40.896C22.6192 41.9641 22.0039 42.985 21.3116 43.9509C21.2885 43.9902 21.2347 44.0059 21.1885 43.9902C17.9501 42.9771 14.9117 41.4143 12.1964 39.3568C12.1734 39.3333 12.1503 39.3018 12.1503 39.2704C11.5195 32.4146 12.7964 25.4724 17.4655 18.3575C17.4732 18.3417 17.4886 18.326 17.5117 18.3182C19.8501 17.2266 22.3116 16.4491 24.8423 16.0015C24.8884 15.9937 24.9346 16.0172 24.9576 16.0565C25.2961 16.6769 25.6038 17.3208 25.8807 17.9726C28.6114 17.5486 31.3805 17.5486 34.1112 17.9726C34.3882 17.313 34.6882 16.6769 35.0266 16.0565C35.0497 16.0172 35.0958 15.9937 35.142 16.0015C37.6727 16.4491 40.1419 17.2266 42.4726 18.3182C42.4752 18.32 42.4778 18.3217 42.4803 18.3234Z" fill="#8C939A"/>
</svg>
