<?xml version="1.0" encoding="utf-8"?>
<!-- Generator: Adobe Illustrator 24.3.0, SVG Export Plug-In . SVG Version: 6.00 Build 0)  -->
<svg version="1.1" id="Layer_1" xmlns="http://www.w3.org/2000/svg" xmlns:xlink="http://www.w3.org/1999/xlink" x="0px" y="0px"
	 viewBox="0 0 512 512" style="enable-background:new 0 0 512 512;" xml:space="preserve">
<style type="text/css">
	.st0{fill:#3D3939;}
</style>
<g>
	<path class="st0" d="M258.5,55.4C190,55.4,127,89.7,90,147.2l-4.4,6.8l-12.3-53.3c-0.6-2.7-2.3-5-4.7-6.5c-2.3-1.5-5.1-1.9-7.7-1.3
		c-2.7,0.6-5,2.3-6.5,4.6s-1.9,5.1-1.3,7.8l18.3,79.1c1.8,7.2,9.4,11.9,17.1,8.9l0.8-0.3l80.7-28.2c5.4-1.9,8.2-7.8,6.4-13.2
		c-0.9-2.6-2.8-4.7-5.3-5.9c-2.5-1.2-5.3-1.3-7.9-0.4l-61,21.3l5.4-8.3c33.2-51.5,89.6-82.3,151-82.3c99.2,0,179.9,80.7,179.9,179.9
		s-80.7,179.9-179.9,179.9c-73.6,0-139.1-44.1-166.7-112.5c-1-2.6-3-4.6-5.6-5.7c-1.3-0.5-2.6-0.8-4-0.8c-1.3,0-2.6,0.3-3.9,0.8
		c-2.6,1-4.6,3-5.7,5.6s-1.1,5.4-0.1,7.9c30.9,76.2,103.8,125.4,185.9,125.4c110.6,0,200.6-90,200.6-200.6S369.1,55.4,258.5,55.4z"
		/>
	<path class="st0" d="M311.1,256c0-30.4-24.7-55.1-55.1-55.1s-55.1,24.7-55.1,55.1s24.7,55.1,55.1,55.1S311.1,286.4,311.1,256z
		 M219.8,256c0-19.9,16.2-36.2,36.2-36.2s36.2,16.2,36.2,36.2s-16.2,36.2-36.2,36.2S219.8,275.9,219.8,256z"/>
</g>
</svg>
