<svg width="1500" height="1500" viewBox="0 0 1500 1500" fill="none" xmlns="http://www.w3.org/2000/svg">
<path d="M1350 749.5H750V1349.5H1350V749.5Z" fill="#C5D1DA"/>
<path d="M1050 1349.5C1215.69 1349.5 1350 1215.19 1350 1049.5C1350 883.815 1215.69 749.5 1050 749.5C884.315 749.5 750 883.815 750 1049.5C750 1215.19 884.315 1349.5 1050 1349.5Z" fill="#DFEBF2"/>
<path d="M750 150.5H150V750.5H750V150.5Z" fill="#DFEBF2"/>
<path d="M450 670.7C421.6 670.7 395.1 647.5 375.4 605.5C355.9 564.1 345.2 509 345.2 450.5C345.2 392 355.9 337 375.4 295.5C395.2 253.5 421.7 230.3 450 230.3C478.4 230.3 504.9 253.5 524.6 295.5C544.1 336.9 554.8 392 554.8 450.5C554.8 509 544.1 564 524.6 605.5C504.9 647.5 478.4 670.7 450 670.7ZM450 235.3C395 235.3 350.2 331.8 350.2 450.5C350.2 569.1 395 665.7 450 665.7C505 665.7 549.8 569.2 549.8 450.5C549.8 331.9 505 235.3 450 235.3Z" fill="black"/>
<path d="M564.2 593.4C558.7 593.4 552.9 593.2 547 592.6C501.4 588.7 448.3 570.5 397.7 541.3C347.1 512.1 304.7 475.2 278.6 437.6C252.1 399.5 245.3 364.9 259.4 340.4C273.6 315.8 306.9 304.5 353.2 308.4C398.8 312.3 451.9 330.5 502.5 359.7C553.2 389 595.5 425.8 621.6 463.4C648.1 501.5 654.9 536.1 640.8 560.6C628.3 582 601.5 593.4 564.2 593.4ZM335.9 312.5C301.7 312.5 275.5 322.4 263.7 342.9C236.2 390.6 297.4 477.6 400.1 536.9C502.9 596.2 608.8 605.7 636.4 558C649.6 535.2 642.8 502.6 617.5 466.1C591.8 429.1 550 392.8 500 363.9C441.2 330.2 381.5 312.5 335.9 312.5Z" fill="black"/>
<path d="M335.8 593.4C298.5 593.4 271.6 582 259.3 560.6C245.1 536 251.9 501.5 278.5 463.4C304.6 425.8 347 389 397.6 359.7L398.9 361.9L397.6 359.7C448.3 330.4 501.3 312.2 546.9 308.4C593.2 304.5 626.5 315.9 640.7 340.4C654.9 365 648.1 399.5 621.5 437.6C595.4 475.2 553 512 502.4 541.3C451.7 570.6 398.7 588.8 353.1 592.6C347.1 593.1 341.4 593.4 335.8 593.4ZM564.1 312.5C518.5 312.5 458.8 330.1 400.1 364C297.3 423.3 236.1 510.4 263.7 558C291.2 605.7 397.2 596.2 500 536.9C550 508 591.8 471.7 617.5 434.7C642.9 398.2 649.6 365.6 636.4 342.8C624.5 322.5 598.3 312.5 564.1 312.5Z" fill="black"/>
<path d="M1211.4 386H888.6C887.2 386 886.1 384.9 886.1 383.5C886.1 382.1 887.2 381 888.6 381H1211.3C1212.7 381 1213.8 382.1 1213.8 383.5C1213.8 384.9 1212.8 386 1211.4 386Z" fill="black"/>
<path d="M1211.4 430.7H888.6C887.2 430.7 886.1 429.6 886.1 428.2C886.1 426.8 887.2 425.7 888.6 425.7H1211.3C1212.7 425.7 1213.8 426.8 1213.8 428.2C1213.8 429.6 1212.8 430.7 1211.4 430.7Z" fill="black"/>
<path d="M1211.4 475.3H888.6C887.2 475.3 886.1 474.2 886.1 472.8C886.1 471.4 887.2 470.3 888.6 470.3H1211.3C1212.7 470.3 1213.8 471.4 1213.8 472.8C1213.8 474.2 1212.8 475.3 1211.4 475.3Z" fill="black"/>
<path d="M1211.4 520H888.6C887.2 520 886.1 518.9 886.1 517.5C886.1 516.1 887.2 515 888.6 515H1211.3C1212.7 515 1213.8 516.1 1213.8 517.5C1213.8 518.9 1212.8 520 1211.4 520Z" fill="black"/>
<path d="M1117 614.4C1115.6 614.4 1114.5 613.3 1114.5 611.9V289.1C1114.5 287.7 1115.6 286.6 1117 286.6C1118.4 286.6 1119.5 287.7 1119.5 289.1V611.8C1119.5 613.3 1118.4 614.4 1117 614.4Z" fill="black"/>
<path d="M1072.3 614.4C1070.9 614.4 1069.8 613.3 1069.8 611.9V289.1C1069.8 287.7 1070.9 286.6 1072.3 286.6C1073.7 286.6 1074.8 287.7 1074.8 289.1V611.8C1074.8 613.3 1073.7 614.4 1072.3 614.4Z" fill="black"/>
<path d="M1027.7 614.4C1026.3 614.4 1025.2 613.3 1025.2 611.9V289.1C1025.2 287.7 1026.3 286.6 1027.7 286.6C1029.1 286.6 1030.2 287.7 1030.2 289.1V611.8C1030.2 613.3 1029 614.4 1027.7 614.4Z" fill="black"/>
<path d="M983 614.4C981.6 614.4 980.5 613.3 980.5 611.9V289.1C980.5 287.7 981.6 286.6 983 286.6C984.4 286.6 985.5 287.7 985.5 289.1V611.8C985.5 613.3 984.4 614.4 983 614.4Z" fill="black"/>
<path d="M1158.9 341.7H941.199V559.4H1158.9V341.7Z" fill="#C5D1DA"/>
<path d="M1118 382.4H981.899V518.5H1118V382.4Z" fill="#C5D1DA"/>
<path d="M1118.1 521.1H981.899C980.499 521.1 979.399 520 979.399 518.6V382.4C979.399 381 980.499 379.9 981.899 379.9H1118C1119.4 379.9 1120.5 381 1120.5 382.4V518.5C1120.6 520 1119.5 521.1 1118.1 521.1ZM984.399 516.1H1115.5V384.9H984.399V516.1Z" fill="black"/>
<path d="M450 1202.5C532.843 1202.5 600 1135.34 600 1052.5C600 969.657 532.843 902.5 450 902.5C367.157 902.5 300 969.657 300 1052.5C300 1135.34 367.157 1202.5 450 1202.5Z" fill="#ABB8C1"/>
<path d="M417.8 1121.5C417.2 1121.5 416.5 1121.3 416 1120.8L349.4 1054.2C348.7 1053.5 348.5 1052.6 348.8 1051.7C348.9 1051.3 349.1 1051 349.4 1050.7L416 984.1C417 983.1 418.6 983.1 419.5 984.1C420.4 985.1 420.5 986.7 419.5 987.6L354.7 1052.4L419.5 1117.2C420 1117.7 420.2 1118.3 420.2 1119C420.2 1119.7 420 1120.3 419.5 1120.8C419 1121.3 418.4 1121.5 417.8 1121.5Z" fill="black"/>
<path d="M482.2 1121.5C481.6 1121.5 480.9 1121.3 480.4 1120.8C479.4 1119.8 479.4 1118.2 480.4 1117.3L545.2 1052.5L480.4 987.7C479.9 987.2 479.7 986.6 479.7 985.9C479.7 985.2 479.9 984.6 480.4 984.1C481.4 983.1 483 983.1 483.9 984.1L550.5 1050.7C551 1051.2 551.2 1051.8 551.2 1052.4C551.2 1052.4 551.2 1052.4 551.2 1052.5C551.2 1052.6 551.2 1052.5 551.2 1052.6C551.2 1053.2 550.9 1053.8 550.5 1054.3L483.9 1120.9C483.5 1121.3 482.8 1121.5 482.2 1121.5Z" fill="black"/>
<path d="M1111.7 921.5H989V926.5H1111.7V921.5Z" fill="black"/>
<path d="M1111.7 1172.4H989V1177.4H1111.7V1172.4Z" fill="black"/>
<path d="M979.521 943.697L975.414 946.549L1033.66 1030.4L1037.77 1027.55L979.521 943.697Z" fill="black"/>
<path d="M1033.6 1068.49L976.06 1151.37L980.167 1154.22L1037.71 1071.34L1033.6 1068.49Z" fill="black"/>
<path d="M1013.26 928.501C1013.26 945.722 992.758 959.893 974.979 959.893C957.2 959.893 937.133 946.776 937.133 929.555C937.133 912.334 957.2 897.32 974.979 897.32C992.758 897.32 1013.26 911.281 1013.26 928.501Z" fill="#ED8D47"/>
<path d="M1010.22 891.632C1024.23 887.25 1016.55 910.721 1008.74 921.76L988.899 902.089C991.647 901.259 996.201 896.014 1010.22 891.632Z" fill="#ED8D47"/>
<path d="M940.785 891.539C926.77 887.156 934.449 910.627 942.264 921.666L962.101 901.996C959.353 901.166 954.799 895.921 940.785 891.539Z" fill="#ED8D47"/>
<path d="M942.413 895.355C933.3 892.494 938.293 907.813 943.375 915.018L956.274 902.179C954.487 901.638 951.526 898.215 942.413 895.355Z" fill="#EC6E5D"/>
<path d="M1009.29 895.355C1018.4 892.494 1013.41 907.813 1008.32 915.018L995.425 902.179C997.211 901.638 1000.17 898.215 1009.29 895.355Z" fill="#EC6E5D"/>
<path d="M1013.21 939.246C1009.86 950.623 993.553 962 975.474 962C957.395 962 942.739 954.205 937.519 939.246C932.734 929.134 957.395 928.712 975.474 928.712C993.553 928.712 1016.26 928.923 1013.21 939.246Z" fill="#FFF6C5"/>
<ellipse cx="975.583" cy="940.932" rx="21.5332" ry="20.8576" fill="#FFF6C5"/>
<path d="M976.868 930.819C980.269 930.819 983.112 927.673 980.669 925.307V925.307C979.16 923.845 977.113 923.024 974.978 923.024C972.844 923.024 970.797 923.845 969.288 925.307V925.307C966.845 927.673 969.688 930.819 973.089 930.819L974.978 930.819H976.868Z" fill="#454545"/>
<path d="M975.196 928.08V938.614" stroke="#454545" stroke-width="2" stroke-linecap="round"/>
<path d="M959.386 912.812C962.757 912.351 965.123 908.852 962.362 906.839V906.839C960.656 905.595 958.511 905.059 956.398 905.348C954.284 905.636 952.376 906.726 951.092 908.378V908.378C949.013 911.053 952.286 913.782 955.657 913.321L957.522 913.066L959.386 912.812Z" fill="#FFF6C5"/>
<ellipse cx="956.165" cy="920.812" rx="5.54644" ry="7.26854" fill="#454545"/>
<ellipse rx="2.82536" ry="3.79548" transform="matrix(0.987896 -0.155115 0.165057 0.986284 957.509 919.369)" fill="white"/>
<path d="M992.43 912.826C989.059 912.365 986.693 908.866 989.455 906.853V906.853C991.16 905.609 993.305 905.073 995.419 905.362C997.532 905.65 999.441 906.741 1000.72 908.392V908.392C1002.8 911.067 999.531 913.796 996.159 913.335L994.295 913.081L992.43 912.826Z" fill="#FFF6C5"/>
<ellipse rx="5.54643" ry="7.26855" transform="matrix(-1 0 0 1 995.652 920.826)" fill="#454545"/>
<ellipse rx="2.82179" ry="3.80055" transform="matrix(-0.96827 0.249908 0.265236 0.964184 995.997 918.527)" fill="white"/>
<path d="M974.761 938.404L968.019 940.932C968.381 943.811 969.432 950.834 974.218 950.834C979.003 950.834 980.996 946.199 981.287 940.932L974.761 938.404Z" fill="#EC6E5D"/>
<path d="M986.37 935.696C984.308 939.443 978.033 943.397 975.202 937.537" stroke="#454545" stroke-width="2" stroke-linecap="round"/>
<path d="M963.645 935.778C965.708 939.526 971.982 943.48 974.814 937.619" stroke="#454545" stroke-width="2" stroke-linecap="round"/>
<ellipse cx="949.966" cy="935.454" rx="6.30771" ry="2.94955" fill="#FFA89D"/>
<ellipse rx="6.3077" ry="2.94955" transform="matrix(-1 0 0 1 1001.73 935.454)" fill="#FFA89D"/>
<path d="M1073.26 1051.5C1073.26 1068.72 1052.76 1082.89 1034.98 1082.89C1017.2 1082.89 997.133 1069.78 997.133 1052.55C997.133 1035.33 1017.2 1020.32 1034.98 1020.32C1052.76 1020.32 1073.26 1034.28 1073.26 1051.5Z" fill="#ED8D47"/>
<path d="M1070.22 1014.63C1084.23 1010.25 1076.55 1033.72 1068.74 1044.76L1048.9 1025.09C1051.65 1024.26 1056.2 1019.01 1070.22 1014.63Z" fill="#ED8D47"/>
<path d="M1000.78 1014.54C986.77 1010.16 994.449 1033.63 1002.26 1044.67L1022.1 1025C1019.35 1024.17 1014.8 1018.92 1000.78 1014.54Z" fill="#ED8D47"/>
<path d="M1002.41 1018.35C993.3 1015.49 998.293 1030.81 1003.37 1038.02L1016.27 1025.18C1014.49 1024.64 1011.53 1021.21 1002.41 1018.35Z" fill="#EC6E5D"/>
<path d="M1069.29 1018.35C1078.4 1015.49 1073.41 1030.81 1068.32 1038.02L1055.42 1025.18C1057.21 1024.64 1060.17 1021.21 1069.29 1018.35Z" fill="#EC6E5D"/>
<path d="M1073.21 1062.25C1069.86 1073.62 1053.55 1085 1035.47 1085C1017.4 1085 1002.74 1077.2 997.519 1062.25C992.734 1052.13 1017.4 1051.71 1035.47 1051.71C1053.55 1051.71 1076.26 1051.92 1073.21 1062.25Z" fill="#FFF6C5"/>
<ellipse cx="1035.58" cy="1063.93" rx="21.5332" ry="20.8576" fill="#FFF6C5"/>
<path d="M1036.87 1053.82C1040.27 1053.82 1043.11 1050.67 1040.67 1048.31V1048.31C1039.16 1046.85 1037.11 1046.02 1034.98 1046.02C1032.84 1046.02 1030.8 1046.85 1029.29 1048.31V1048.31C1026.84 1050.67 1029.69 1053.82 1033.09 1053.82L1034.98 1053.82H1036.87Z" fill="#454545"/>
<path d="M1035.2 1051.08V1061.61" stroke="#454545" stroke-width="2" stroke-linecap="round"/>
<path d="M1019.39 1035.81C1022.76 1035.35 1025.12 1031.85 1022.36 1029.84V1029.84C1020.66 1028.6 1018.51 1028.06 1016.4 1028.35C1014.28 1028.64 1012.38 1029.73 1011.09 1031.38V1031.38C1009.01 1034.05 1012.29 1036.78 1015.66 1036.32L1017.52 1036.07L1019.39 1035.81Z" fill="#FFF6C5"/>
<ellipse cx="1016.16" cy="1043.81" rx="5.54644" ry="7.26854" fill="#454545"/>
<ellipse rx="2.82536" ry="3.79548" transform="matrix(0.987896 -0.155115 0.165057 0.986284 1017.51 1042.37)" fill="white"/>
<path d="M1052.43 1035.83C1049.06 1035.37 1046.69 1031.87 1049.45 1029.85V1029.85C1051.16 1028.61 1053.31 1028.07 1055.42 1028.36C1057.53 1028.65 1059.44 1029.74 1060.72 1031.39V1031.39C1062.8 1034.07 1059.53 1036.8 1056.16 1036.34L1054.29 1036.08L1052.43 1035.83Z" fill="#FFF6C5"/>
<ellipse rx="5.54643" ry="7.26855" transform="matrix(-1 0 0 1 1055.65 1043.83)" fill="#454545"/>
<ellipse rx="2.82179" ry="3.80055" transform="matrix(-0.96827 0.249908 0.265236 0.964184 1056 1041.53)" fill="white"/>
<path d="M1034.76 1061.4L1028.02 1063.93C1028.38 1066.81 1029.43 1073.83 1034.22 1073.83C1039 1073.83 1041 1069.2 1041.29 1063.93L1034.76 1061.4Z" fill="#EC6E5D"/>
<path d="M1046.37 1058.7C1044.31 1062.44 1038.03 1066.4 1035.2 1060.54" stroke="#454545" stroke-width="2" stroke-linecap="round"/>
<path d="M1023.65 1058.78C1025.71 1062.53 1031.98 1066.48 1034.81 1060.62" stroke="#454545" stroke-width="2" stroke-linecap="round"/>
<ellipse cx="1009.97" cy="1058.45" rx="6.30771" ry="2.94955" fill="#FFA89D"/>
<ellipse rx="6.3077" ry="2.94955" transform="matrix(-1 0 0 1 1061.73 1058.45)" fill="#FFA89D"/>
<path d="M1173.26 1163.5C1173.26 1180.72 1152.76 1194.89 1134.98 1194.89C1117.2 1194.89 1097.13 1181.78 1097.13 1164.55C1097.13 1147.33 1117.2 1132.32 1134.98 1132.32C1152.76 1132.32 1173.26 1146.28 1173.26 1163.5Z" fill="#ED8D47"/>
<path d="M1170.22 1126.63C1184.23 1122.25 1176.55 1145.72 1168.74 1156.76L1148.9 1137.09C1151.65 1136.26 1156.2 1131.01 1170.22 1126.63Z" fill="#ED8D47"/>
<path d="M1100.78 1126.54C1086.77 1122.16 1094.45 1145.63 1102.26 1156.67L1122.1 1137C1119.35 1136.17 1114.8 1130.92 1100.78 1126.54Z" fill="#ED8D47"/>
<path d="M1102.41 1130.35C1093.3 1127.49 1098.29 1142.81 1103.37 1150.02L1116.27 1137.18C1114.49 1136.64 1111.53 1133.21 1102.41 1130.35Z" fill="#EC6E5D"/>
<path d="M1169.29 1130.35C1178.4 1127.49 1173.41 1142.81 1168.32 1150.02L1155.42 1137.18C1157.21 1136.64 1160.17 1133.21 1169.29 1130.35Z" fill="#EC6E5D"/>
<path d="M1173.21 1174.25C1169.86 1185.62 1153.55 1197 1135.47 1197C1117.4 1197 1102.74 1189.2 1097.52 1174.25C1092.73 1164.13 1117.4 1163.71 1135.47 1163.71C1153.55 1163.71 1176.26 1163.92 1173.21 1174.25Z" fill="#FFF6C5"/>
<ellipse cx="1135.58" cy="1175.93" rx="21.5332" ry="20.8576" fill="#FFF6C5"/>
<path d="M1136.87 1165.82C1140.27 1165.82 1143.11 1162.67 1140.67 1160.31V1160.31C1139.16 1158.85 1137.11 1158.02 1134.98 1158.02C1132.84 1158.02 1130.8 1158.85 1129.29 1160.31V1160.31C1126.84 1162.67 1129.69 1165.82 1133.09 1165.82L1134.98 1165.82H1136.87Z" fill="#454545"/>
<path d="M1135.2 1163.08V1173.61" stroke="#454545" stroke-width="2" stroke-linecap="round"/>
<path d="M1119.39 1147.81C1122.76 1147.35 1125.12 1143.85 1122.36 1141.84V1141.84C1120.66 1140.6 1118.51 1140.06 1116.4 1140.35C1114.28 1140.64 1112.38 1141.73 1111.09 1143.38V1143.38C1109.01 1146.05 1112.29 1148.78 1115.66 1148.32L1117.52 1148.07L1119.39 1147.81Z" fill="#FFF6C5"/>
<ellipse cx="1116.16" cy="1155.81" rx="5.54644" ry="7.26854" fill="#454545"/>
<ellipse rx="2.82536" ry="3.79548" transform="matrix(0.987896 -0.155115 0.165057 0.986284 1117.51 1154.37)" fill="white"/>
<path d="M1152.43 1147.83C1149.06 1147.37 1146.69 1143.87 1149.45 1141.85V1141.85C1151.16 1140.61 1153.31 1140.07 1155.42 1140.36C1157.53 1140.65 1159.44 1141.74 1160.72 1143.39V1143.39C1162.8 1146.07 1159.53 1148.8 1156.16 1148.34L1154.29 1148.08L1152.43 1147.83Z" fill="#FFF6C5"/>
<ellipse rx="5.54643" ry="7.26855" transform="matrix(-1 0 0 1 1155.65 1155.83)" fill="#454545"/>
<ellipse rx="2.82179" ry="3.80055" transform="matrix(-0.96827 0.249908 0.265236 0.964184 1156 1153.53)" fill="white"/>
<path d="M1134.76 1173.4L1128.02 1175.93C1128.38 1178.81 1129.43 1185.83 1134.22 1185.83C1139 1185.83 1141 1181.2 1141.29 1175.93L1134.76 1173.4Z" fill="#EC6E5D"/>
<path d="M1146.37 1170.7C1144.31 1174.44 1138.03 1178.4 1135.2 1172.54" stroke="#454545" stroke-width="2" stroke-linecap="round"/>
<path d="M1123.65 1170.78C1125.71 1174.53 1131.98 1178.48 1134.81 1172.62" stroke="#454545" stroke-width="2" stroke-linecap="round"/>
<ellipse cx="1109.97" cy="1170.45" rx="6.30771" ry="2.94955" fill="#FFA89D"/>
<ellipse rx="6.3077" ry="2.94955" transform="matrix(-1 0 0 1 1161.73 1170.45)" fill="#FFA89D"/>
<path d="M1013.26 1159.5C1013.26 1176.72 992.758 1190.89 974.979 1190.89C957.2 1190.89 937.133 1177.78 937.133 1160.55C937.133 1143.33 957.2 1128.32 974.979 1128.32C992.758 1128.32 1013.26 1142.28 1013.26 1159.5Z" fill="#ED8D47"/>
<path d="M1010.22 1122.63C1024.23 1118.25 1016.55 1141.72 1008.74 1152.76L988.899 1133.09C991.647 1132.26 996.201 1127.01 1010.22 1122.63Z" fill="#ED8D47"/>
<path d="M940.785 1122.54C926.77 1118.16 934.449 1141.63 942.264 1152.67L962.101 1133C959.353 1132.17 954.799 1126.92 940.785 1122.54Z" fill="#ED8D47"/>
<path d="M942.413 1126.35C933.3 1123.49 938.293 1138.81 943.375 1146.02L956.274 1133.18C954.487 1132.64 951.526 1129.21 942.413 1126.35Z" fill="#EC6E5D"/>
<path d="M1009.29 1126.35C1018.4 1123.49 1013.41 1138.81 1008.32 1146.02L995.425 1133.18C997.211 1132.64 1000.17 1129.21 1009.29 1126.35Z" fill="#EC6E5D"/>
<path d="M1013.21 1170.25C1009.86 1181.62 993.553 1193 975.474 1193C957.395 1193 942.739 1185.2 937.519 1170.25C932.734 1160.13 957.395 1159.71 975.474 1159.71C993.553 1159.71 1016.26 1159.92 1013.21 1170.25Z" fill="#FFF6C5"/>
<ellipse cx="975.583" cy="1171.93" rx="21.5332" ry="20.8576" fill="#FFF6C5"/>
<path d="M976.868 1161.82C980.269 1161.82 983.112 1158.67 980.669 1156.31V1156.31C979.16 1154.85 977.113 1154.02 974.978 1154.02C972.844 1154.02 970.797 1154.85 969.288 1156.31V1156.31C966.845 1158.67 969.688 1161.82 973.089 1161.82L974.978 1161.82H976.868Z" fill="#454545"/>
<path d="M975.196 1159.08V1169.61" stroke="#454545" stroke-width="2" stroke-linecap="round"/>
<path d="M959.386 1143.81C962.757 1143.35 965.123 1139.85 962.362 1137.84V1137.84C960.656 1136.6 958.511 1136.06 956.398 1136.35C954.284 1136.64 952.376 1137.73 951.092 1139.38V1139.38C949.013 1142.05 952.286 1144.78 955.657 1144.32L957.522 1144.07L959.386 1143.81Z" fill="#FFF6C5"/>
<ellipse cx="956.165" cy="1151.81" rx="5.54644" ry="7.26854" fill="#454545"/>
<ellipse rx="2.82536" ry="3.79548" transform="matrix(0.987896 -0.155115 0.165057 0.986284 957.509 1150.37)" fill="white"/>
<path d="M992.43 1143.83C989.059 1143.37 986.693 1139.87 989.455 1137.85V1137.85C991.16 1136.61 993.305 1136.07 995.419 1136.36C997.532 1136.65 999.441 1137.74 1000.72 1139.39V1139.39C1002.8 1142.07 999.531 1144.8 996.159 1144.34L994.295 1144.08L992.43 1143.83Z" fill="#FFF6C5"/>
<ellipse rx="5.54643" ry="7.26855" transform="matrix(-1 0 0 1 995.652 1151.83)" fill="#454545"/>
<ellipse rx="2.82179" ry="3.80055" transform="matrix(-0.96827 0.249908 0.265236 0.964184 995.997 1149.53)" fill="white"/>
<path d="M974.761 1169.4L968.019 1171.93C968.381 1174.81 969.432 1181.83 974.218 1181.83C979.003 1181.83 980.996 1177.2 981.287 1171.93L974.761 1169.4Z" fill="#EC6E5D"/>
<path d="M986.37 1166.7C984.308 1170.44 978.033 1174.4 975.202 1168.54" stroke="#454545" stroke-width="2" stroke-linecap="round"/>
<path d="M963.645 1166.78C965.708 1170.53 971.982 1174.48 974.814 1168.62" stroke="#454545" stroke-width="2" stroke-linecap="round"/>
<ellipse cx="949.966" cy="1166.45" rx="6.30771" ry="2.94955" fill="#FFA89D"/>
<ellipse rx="6.3077" ry="2.94955" transform="matrix(-1 0 0 1 1001.73 1166.45)" fill="#FFA89D"/>
<path d="M1173.26 932.501C1173.26 949.722 1152.76 963.893 1134.98 963.893C1117.2 963.893 1097.13 950.776 1097.13 933.555C1097.13 916.334 1117.2 901.32 1134.98 901.32C1152.76 901.32 1173.26 915.281 1173.26 932.501Z" fill="#ED8D47"/>
<path d="M1170.22 895.632C1184.23 891.25 1176.55 914.721 1168.74 925.76L1148.9 906.089C1151.65 905.259 1156.2 900.014 1170.22 895.632Z" fill="#ED8D47"/>
<path d="M1100.78 895.539C1086.77 891.156 1094.45 914.627 1102.26 925.666L1122.1 905.996C1119.35 905.166 1114.8 899.921 1100.78 895.539Z" fill="#ED8D47"/>
<path d="M1102.41 899.355C1093.3 896.494 1098.29 911.813 1103.37 919.018L1116.27 906.179C1114.49 905.638 1111.53 902.215 1102.41 899.355Z" fill="#EC6E5D"/>
<path d="M1169.29 899.355C1178.4 896.494 1173.41 911.813 1168.32 919.018L1155.42 906.179C1157.21 905.638 1160.17 902.215 1169.29 899.355Z" fill="#EC6E5D"/>
<path d="M1173.21 943.246C1169.86 954.623 1153.55 966 1135.47 966C1117.4 966 1102.74 958.205 1097.52 943.246C1092.73 933.134 1117.4 932.712 1135.47 932.712C1153.55 932.712 1176.26 932.923 1173.21 943.246Z" fill="#FFF6C5"/>
<ellipse cx="1135.58" cy="944.932" rx="21.5332" ry="20.8576" fill="#FFF6C5"/>
<path d="M1136.87 934.819C1140.27 934.819 1143.11 931.673 1140.67 929.307V929.307C1139.16 927.845 1137.11 927.024 1134.98 927.024C1132.84 927.024 1130.8 927.845 1129.29 929.307V929.307C1126.84 931.673 1129.69 934.819 1133.09 934.819L1134.98 934.819H1136.87Z" fill="#454545"/>
<path d="M1135.2 932.08V942.614" stroke="#454545" stroke-width="2" stroke-linecap="round"/>
<path d="M1119.39 916.812C1122.76 916.351 1125.12 912.852 1122.36 910.839V910.839C1120.66 909.595 1118.51 909.059 1116.4 909.348C1114.28 909.636 1112.38 910.726 1111.09 912.378V912.378C1109.01 915.053 1112.29 917.782 1115.66 917.321L1117.52 917.066L1119.39 916.812Z" fill="#FFF6C5"/>
<ellipse cx="1116.16" cy="924.812" rx="5.54644" ry="7.26854" fill="#454545"/>
<ellipse rx="2.82536" ry="3.79548" transform="matrix(0.987896 -0.155115 0.165057 0.986284 1117.51 923.369)" fill="white"/>
<path d="M1152.43 916.826C1149.06 916.365 1146.69 912.866 1149.45 910.853V910.853C1151.16 909.609 1153.31 909.073 1155.42 909.362C1157.53 909.65 1159.44 910.741 1160.72 912.392V912.392C1162.8 915.067 1159.53 917.796 1156.16 917.335L1154.29 917.081L1152.43 916.826Z" fill="#FFF6C5"/>
<ellipse rx="5.54643" ry="7.26855" transform="matrix(-1 0 0 1 1155.65 924.826)" fill="#454545"/>
<ellipse rx="2.82179" ry="3.80055" transform="matrix(-0.96827 0.249908 0.265236 0.964184 1156 922.527)" fill="white"/>
<path d="M1134.76 942.404L1128.02 944.932C1128.38 947.811 1129.43 954.834 1134.22 954.834C1139 954.834 1141 950.199 1141.29 944.932L1134.76 942.404Z" fill="#EC6E5D"/>
<path d="M1146.37 939.696C1144.31 943.443 1138.03 947.397 1135.2 941.537" stroke="#454545" stroke-width="2" stroke-linecap="round"/>
<path d="M1123.65 939.778C1125.71 943.526 1131.98 947.48 1134.81 941.619" stroke="#454545" stroke-width="2" stroke-linecap="round"/>
<ellipse cx="1109.97" cy="939.454" rx="6.30771" ry="2.94955" fill="#FFA89D"/>
<ellipse rx="6.3077" ry="2.94955" transform="matrix(-1 0 0 1 1161.73 939.454)" fill="#FFA89D"/>
<path d="M507.695 454.101C507.695 480.781 476.097 502.736 448.697 502.736C421.297 502.736 390.369 482.413 390.369 455.733C390.369 429.053 421.297 405.792 448.697 405.792C476.097 405.792 507.695 427.421 507.695 454.101Z" fill="#ED8D47"/>
<path d="M503.002 396.979C524.601 390.19 512.766 426.553 500.723 443.656L470.151 413.18C474.386 411.894 481.403 403.769 503.002 396.979Z" fill="#ED8D47"/>
<path d="M395.998 396.834C374.399 390.045 386.234 426.409 398.277 443.511L428.849 413.035C424.614 411.75 417.597 403.624 395.998 396.834Z" fill="#ED8D47"/>
<path d="M398.506 402.746C384.461 398.315 392.157 422.049 399.988 433.211L419.868 413.32C417.114 412.481 412.551 407.178 398.506 402.746Z" fill="#EC6E5D"/>
<path d="M501.569 402.746C515.614 398.315 507.919 422.049 500.087 433.211L480.207 413.32C482.961 412.481 487.524 407.178 501.569 402.746Z" fill="#EC6E5D"/>
<path d="M507.621 470.748C502.449 488.374 477.324 506 449.461 506C421.598 506 399.01 493.923 390.965 470.748C383.59 455.08 421.598 454.427 449.461 454.427C477.324 454.427 512.314 454.754 507.621 470.748Z" fill="#FFF6C5"/>
<ellipse cx="449.628" cy="473.359" rx="33.1865" ry="32.3145" fill="#FFF6C5"/>
<path d="M451.568 457.691C456.832 457.691 461.239 452.824 457.467 449.152V449.152C455.141 446.887 451.986 445.614 448.697 445.614C445.407 445.614 442.253 446.887 439.927 449.152V449.152C436.155 452.824 440.562 457.691 445.826 457.691L448.697 457.691H451.568Z" fill="#454545"/>
<path d="M449.032 453.448V469.769" stroke="#454545" stroke-width="5" stroke-linecap="round"/>
<path d="M424.627 429.798C429.844 429.082 433.514 423.663 429.251 420.539V420.539C426.623 418.612 423.317 417.781 420.06 418.229C416.803 418.676 413.861 420.365 411.883 422.924V422.924C408.674 427.075 413.74 431.293 418.957 430.577L421.792 430.187L424.627 429.798Z" fill="#FFF6C5"/>
<ellipse cx="419.701" cy="442.187" rx="8.54804" ry="11.2611" fill="#454545"/>
<ellipse rx="4.35493" ry="5.87948" transform="matrix(0.987771 -0.155912 0.164216 0.986424 421.773 439.951)" fill="white"/>
<path d="M475.631 429.82C470.414 429.103 466.743 423.685 471.006 420.56V420.56C473.634 418.634 476.941 417.803 480.198 418.25C483.455 418.698 486.397 420.387 488.375 422.946V422.946C491.584 427.097 486.518 431.315 481.301 430.599L478.466 430.209L475.631 429.82Z" fill="#FFF6C5"/>
<ellipse rx="8.54803" ry="11.2611" transform="matrix(-1 0 0 1 480.556 442.209)" fill="#454545"/>
<ellipse rx="4.35032" ry="5.88601" transform="matrix(-0.96795 0.251141 0.263943 0.964538 481.09 438.647)" fill="white"/>
<path d="M448.361 469.442L437.97 473.359C438.528 477.82 440.149 488.7 447.523 488.7C454.898 488.7 457.971 481.519 458.418 473.359L448.361 469.442Z" fill="#EC6E5D"/>
<path d="M466.253 465.248C463.075 471.053 453.404 477.179 449.041 468.099" stroke="#454545" stroke-width="5" stroke-linecap="round"/>
<path d="M431.23 465.375C434.408 471.18 444.078 477.306 448.442 468.226" stroke="#454545" stroke-width="5" stroke-linecap="round"/>
<ellipse cx="410.147" cy="464.872" rx="9.7213" ry="4.56973" fill="#FFA89D"/>
<ellipse rx="9.72129" ry="4.56973" transform="matrix(-1 0 0 1 489.928 464.872)" fill="#FFA89D"/>
<path d="M507.695 454.101C507.695 480.781 476.097 502.736 448.697 502.736C421.297 502.736 390.369 482.413 390.369 455.733C390.369 429.053 421.297 405.792 448.697 405.792C476.097 405.792 507.695 427.421 507.695 454.101Z" fill="#ED8D47"/>
<path d="M503.002 396.979C524.601 390.19 512.766 426.553 500.723 443.656L470.151 413.18C474.386 411.894 481.403 403.769 503.002 396.979Z" fill="#ED8D47"/>
<path d="M395.998 396.834C374.399 390.045 386.234 426.409 398.277 443.511L428.849 413.035C424.614 411.75 417.597 403.624 395.998 396.834Z" fill="#ED8D47"/>
<path d="M398.506 402.746C384.461 398.315 392.157 422.049 399.988 433.211L419.868 413.32C417.114 412.481 412.551 407.178 398.506 402.746Z" fill="#EC6E5D"/>
<path d="M501.569 402.746C515.614 398.315 507.919 422.049 500.087 433.211L480.207 413.32C482.961 412.481 487.524 407.178 501.569 402.746Z" fill="#EC6E5D"/>
<path d="M507.621 470.748C502.449 488.374 477.324 506 449.461 506C421.598 506 399.01 493.923 390.965 470.748C383.59 455.08 421.598 454.427 449.461 454.427C477.324 454.427 512.314 454.754 507.621 470.748Z" fill="#FFF6C5"/>
<ellipse cx="449.628" cy="473.359" rx="33.1865" ry="32.3145" fill="#FFF6C5"/>
<path d="M451.568 457.691C456.832 457.691 461.239 452.824 457.467 449.152V449.152C455.141 446.887 451.986 445.614 448.697 445.614C445.407 445.614 442.253 446.887 439.927 449.152V449.152C436.155 452.824 440.562 457.691 445.826 457.691L448.697 457.691H451.568Z" fill="#454545"/>
<path d="M449.032 453.448V469.769" stroke="#454545" stroke-width="5" stroke-linecap="round"/>
<path d="M424.627 429.798C429.844 429.082 433.514 423.663 429.251 420.539V420.539C426.623 418.612 423.317 417.781 420.06 418.229C416.803 418.676 413.861 420.365 411.883 422.924V422.924C408.674 427.075 413.74 431.293 418.957 430.577L421.792 430.187L424.627 429.798Z" fill="#FFF6C5"/>
<ellipse cx="419.701" cy="442.187" rx="8.54804" ry="11.2611" fill="#454545"/>
<ellipse rx="4.35493" ry="5.87948" transform="matrix(0.987771 -0.155912 0.164216 0.986424 421.773 439.951)" fill="white"/>
<path d="M475.631 429.82C470.414 429.103 466.743 423.685 471.006 420.56V420.56C473.634 418.634 476.941 417.803 480.198 418.25C483.455 418.698 486.397 420.387 488.375 422.946V422.946C491.584 427.097 486.518 431.315 481.301 430.599L478.466 430.209L475.631 429.82Z" fill="#FFF6C5"/>
<ellipse rx="8.54803" ry="11.2611" transform="matrix(-1 0 0 1 480.556 442.209)" fill="#454545"/>
<ellipse rx="4.35032" ry="5.88601" transform="matrix(-0.96795 0.251141 0.263943 0.964538 481.09 438.647)" fill="white"/>
<path d="M448.361 469.442L437.97 473.359C438.528 477.82 440.149 488.7 447.523 488.7C454.898 488.7 457.971 481.519 458.418 473.359L448.361 469.442Z" fill="#EC6E5D"/>
<path d="M466.253 465.248C463.075 471.053 453.404 477.179 449.041 468.099" stroke="#454545" stroke-width="5" stroke-linecap="round"/>
<path d="M431.23 465.375C434.408 471.18 444.078 477.306 448.442 468.226" stroke="#454545" stroke-width="5" stroke-linecap="round"/>
<ellipse cx="410.147" cy="464.872" rx="9.7213" ry="4.56973" fill="#FFA89D"/>
<ellipse rx="9.72129" ry="4.56973" transform="matrix(-1 0 0 1 489.928 464.872)" fill="#FFA89D"/>
<path d="M464.156 230.712C464.156 241.142 451.854 249.724 441.187 249.724C430.52 249.724 418.479 241.78 418.479 231.35C418.479 220.921 430.52 211.828 441.187 211.828C451.854 211.828 464.156 220.283 464.156 230.712Z" fill="#ED8D47"/>
<path d="M462.329 208.383C470.738 205.729 466.13 219.944 461.442 226.629L449.54 214.716C451.188 214.213 453.92 211.037 462.329 208.383Z" fill="#ED8D47"/>
<path d="M420.671 208.326C412.262 205.672 416.87 219.887 421.558 226.573L433.46 214.659C431.812 214.157 429.08 210.98 420.671 208.326Z" fill="#ED8D47"/>
<path d="M421.648 210.637C416.18 208.905 419.176 218.183 422.225 222.546L429.964 214.771C428.892 214.443 427.116 212.369 421.648 210.637Z" fill="#EC6E5D"/>
<path d="M461.771 210.637C467.239 208.905 464.243 218.183 461.194 222.546L453.455 214.771C454.527 214.443 456.303 212.369 461.771 210.637Z" fill="#EC6E5D"/>
<path d="M464.127 237.22C462.113 244.11 452.332 251 441.484 251C430.637 251 421.843 246.279 418.711 237.22C415.84 231.095 430.637 230.84 441.484 230.84C452.332 230.84 465.954 230.967 464.127 237.22Z" fill="#FFF6C5"/>
<ellipse cx="441.55" cy="238.24" rx="12.9199" ry="12.6321" fill="#FFF6C5"/>
<path d="M442.292 232.116C444.349 232.116 446.072 230.215 444.601 228.777V228.777C443.696 227.892 442.468 227.395 441.187 227.395C439.906 227.395 438.678 227.892 437.773 228.777V228.777C436.302 230.215 438.025 232.116 440.082 232.116L441.187 232.116H442.292Z" fill="#454545"/>
<path d="M441.317 230.457V236.837" stroke="#454545" stroke-width="2" stroke-linecap="round"/>
<path d="M431.804 221.214C433.842 220.933 435.278 218.815 433.617 217.592V217.592C432.593 216.839 431.306 216.514 430.038 216.689C428.77 216.864 427.625 217.524 426.855 218.525V218.525C425.604 220.15 427.583 221.796 429.621 221.515L430.713 221.364L431.804 221.214Z" fill="#FFF6C5"/>
<ellipse cx="429.898" cy="226.055" rx="3.32786" ry="4.40208" fill="#454545"/>
<ellipse rx="1.6956" ry="2.29809" transform="matrix(0.987672 -0.156536 0.163563 0.986533 430.705 225.181)" fill="white"/>
<path d="M451.685 221.222C449.647 220.941 448.211 218.824 449.873 217.601V217.601C450.896 216.848 452.183 216.523 453.451 216.698C454.719 216.873 455.864 217.533 456.634 218.533V218.533C457.885 220.158 455.906 221.804 453.869 221.523L452.777 221.373L451.685 221.222Z" fill="#FFF6C5"/>
<ellipse rx="3.32786" ry="4.40208" transform="matrix(-1 0 0 1 453.591 226.063)" fill="#454545"/>
<ellipse rx="1.69408" ry="2.30024" transform="matrix(-0.9677 0.252106 0.26294 0.964812 453.798 224.671)" fill="white"/>
<path d="M441.056 236.709L437.011 238.24C437.228 239.984 437.859 244.237 440.73 244.237C443.601 244.237 444.798 241.43 444.972 238.24L441.056 236.709Z" fill="#EC6E5D"/>
<path d="M448.022 235.07C446.785 237.339 443.02 239.734 441.321 236.184" stroke="#454545" stroke-width="2" stroke-linecap="round"/>
<path d="M434.387 235.119C435.624 237.389 439.389 239.783 441.088 236.234" stroke="#454545" stroke-width="2" stroke-linecap="round"/>
<ellipse cx="426.179" cy="234.923" rx="3.78463" ry="1.78635" fill="#FFA89D"/>
<ellipse rx="3.78462" ry="1.78635" transform="matrix(-1 0 0 1 457.24 234.923)" fill="#FFA89D"/>
<path d="M526.675 643.647C523.455 653.567 509.105 657.933 498.959 654.64C488.813 651.347 479.813 640.074 483.032 630.154C486.252 620.233 500.511 615.302 510.657 618.594C520.804 621.887 529.894 633.727 526.675 643.647Z" fill="#ED8D47"/>
<path d="M531.83 621.844C540.648 621.915 531.877 634.014 525.354 638.925L517.711 623.92C519.434 623.951 523.013 621.773 531.83 621.844Z" fill="#ED8D47"/>
<path d="M492.224 608.931C485.045 603.81 485.04 618.753 487.436 626.56L502.434 618.902C501.021 617.915 499.403 614.051 492.224 608.931Z" fill="#ED8D47"/>
<path d="M492.44 611.43C487.773 608.095 487.759 617.844 489.312 622.935L499.074 617.929C498.155 617.286 497.106 614.766 492.44 611.43Z" fill="#EC6E5D"/>
<path d="M530.604 623.816C536.339 623.856 530.626 631.756 526.379 634.965L521.418 625.18C522.539 625.199 524.868 623.776 530.604 623.816Z" fill="#EC6E5D"/>
<path d="M524.638 649.827C520.596 655.76 509.165 659.294 498.848 655.945C488.53 652.597 481.623 645.392 481.441 635.808C480.601 629.096 494.753 633.421 505.071 636.77C515.389 640.118 528.306 644.445 524.638 649.827Z" fill="#FFF6C5"/>
<ellipse cx="502.849" cy="643.829" rx="12.9199" ry="12.6321" transform="rotate(17.9804 502.849 643.829)" fill="#FFF6C5"/>
<path d="M505.447 638.233C507.403 638.867 509.628 637.591 508.673 635.77V635.77C508.085 634.649 507.071 633.796 505.853 633.401C504.635 633.006 503.313 633.1 502.178 633.662V633.662C500.336 634.576 501.388 636.916 503.344 637.55L504.395 637.891L505.447 638.233Z" fill="#454545"/>
<path d="M505.031 636.354L503.062 642.422" stroke="#454545" stroke-width="2" stroke-linecap="round"/>
<path d="M498.836 624.625C500.86 624.987 502.88 623.417 501.677 621.74V621.74C500.936 620.708 499.812 620.002 498.552 619.777C497.292 619.552 495.999 619.826 494.958 620.54V620.54C493.266 621.699 494.641 623.876 496.665 624.238L497.75 624.432L498.836 624.625Z" fill="#FFF6C5"/>
<ellipse cx="495.528" cy="628.642" rx="3.32786" ry="4.40208" transform="rotate(17.9804 495.528 628.642)" fill="#454545"/>
<ellipse rx="1.6956" ry="2.29809" transform="matrix(0.987758 0.155995 -0.148959 0.988843 496.566 628.06)" fill="white"/>
<path d="M517.742 630.77C515.891 629.874 515.178 627.417 517.136 626.767V626.767C518.342 626.366 519.667 626.455 520.819 627.012C521.971 627.57 522.856 628.552 523.28 629.741V629.741C523.968 631.672 521.578 632.627 519.726 631.731L518.734 631.251L517.742 630.77Z" fill="#FFF6C5"/>
<ellipse rx="3.32786" ry="4.40208" transform="matrix(-0.951162 -0.308691 -0.308691 0.951162 518.061 635.964)" fill="#454545"/>
<ellipse rx="1.69408" ry="2.30024" transform="matrix(-0.998262 -0.058927 -0.0477303 0.99886 518.687 634.703)" fill="white"/>
<path d="M502.853 642.22L498.532 642.428C498.201 644.154 497.488 648.394 500.219 649.28C502.95 650.166 504.954 647.866 506.104 644.885L502.853 642.22Z" fill="#EC6E5D"/>
<path d="M509.984 642.811C508.107 644.588 503.787 645.703 503.267 641.803" stroke="#454545" stroke-width="2" stroke-linecap="round"/>
<path d="M497 638.649C497.476 641.19 500.318 644.63 503.029 641.778" stroke="#454545" stroke-width="2" stroke-linecap="round"/>
<ellipse cx="489.253" cy="635.929" rx="3.78463" ry="1.78635" transform="rotate(17.9804 489.253 635.929)" fill="#FFA89D"/>
<ellipse rx="3.78462" ry="1.78635" transform="matrix(-0.951162 -0.308691 -0.308691 0.951162 518.796 645.517)" fill="#FFA89D"/>
<path d="M321.765 443.133C324.316 453.246 314.487 464.577 304.144 467.186C293.801 469.795 280.183 465.038 277.632 454.925C275.081 444.812 284.531 433.051 294.874 430.441C305.217 427.832 319.214 433.021 321.765 443.133Z" fill="#ED8D47"/>
<path d="M314.531 421.929C322.035 417.299 321.045 432.209 318.134 439.838L303.679 431.198C305.155 430.308 307.027 426.56 314.531 421.929Z" fill="#ED8D47"/>
<path d="M274.124 432.065C265.322 431.548 273.267 444.204 279.448 449.539L288.075 435.077C286.353 434.993 282.927 432.581 274.124 432.065Z" fill="#ED8D47"/>
<path d="M275.637 434.066C269.911 433.724 275.086 441.987 279.109 445.472L284.712 436.04C283.592 435.984 281.362 434.409 275.637 434.066Z" fill="#EC6E5D"/>
<path d="M314.542 424.252C319.42 421.235 318.784 430.963 316.895 435.94L307.489 430.294C308.448 429.713 309.664 427.269 314.542 424.252Z" fill="#EC6E5D"/>
<path d="M323.328 449.45C323.061 456.624 315.262 465.697 304.744 468.351C294.226 471.004 284.545 468.577 279.292 460.559C275.01 455.323 289.295 451.456 299.813 448.803C310.33 446.149 323.57 442.941 323.328 449.45Z" fill="#FFF6C5"/>
<ellipse cx="301.687" cy="455.963" rx="12.9199" ry="12.6321" transform="rotate(-14.159 301.687 455.963)" fill="#FFF6C5"/>
<path d="M300.909 449.842C302.902 449.339 304.108 447.075 302.331 446.041V446.041C301.236 445.404 299.924 445.222 298.682 445.535C297.44 445.848 296.371 446.631 295.71 447.711V447.711C294.636 449.465 296.771 450.886 298.765 450.383L299.837 450.113L300.909 449.842Z" fill="#454545"/>
<path d="M299.558 448.472L301.118 454.658" stroke="#454545" stroke-width="2" stroke-linecap="round"/>
<path d="M288.072 441.837C289.979 441.066 290.854 438.662 288.944 437.882V437.882C287.767 437.403 286.44 437.402 285.253 437.882C284.066 438.362 283.118 439.282 282.615 440.441V440.441C281.8 442.322 284.122 443.434 286.029 442.663L287.051 442.25L288.072 441.837Z" fill="#FFF6C5"/>
<ellipse cx="287.409" cy="446.997" rx="3.32786" ry="4.40208" transform="rotate(-14.159 287.409 446.997)" fill="#454545"/>
<ellipse rx="1.6956" ry="2.29809" transform="matrix(0.919377 -0.393378 0.399913 0.916553 287.977 445.953)" fill="white"/>
<path d="M307.351 436.982C305.306 437.208 303.396 435.507 304.708 433.914V433.914C305.516 432.934 306.684 432.304 307.957 432.163C309.229 432.023 310.501 432.383 311.492 433.164V433.164C313.103 434.434 311.586 436.514 309.542 436.74L308.446 436.861L307.351 436.982Z" fill="#FFF6C5"/>
<ellipse rx="3.32786" ry="4.40208" transform="matrix(-0.969621 0.244613 0.244613 0.969621 310.383 441.21)" fill="#454545"/>
<ellipse rx="1.69408" ry="2.30024" transform="matrix(-0.876634 0.481159 0.490958 0.871183 310.244 439.809)" fill="white"/>
<path d="M300.834 454.599L297.286 457.073C297.923 458.71 299.575 462.68 302.359 461.978C305.143 461.276 305.616 458.261 305.005 455.126L300.834 454.599Z" fill="#EC6E5D"/>
<path d="M307.186 451.305C306.542 453.808 303.477 457.051 300.962 454.025" stroke="#454545" stroke-width="2" stroke-linecap="round"/>
<path d="M293.978 454.688C295.733 456.586 299.969 457.987 300.748 454.13" stroke="#454545" stroke-width="2" stroke-linecap="round"/>
<ellipse cx="285.972" cy="456.506" rx="3.78463" ry="1.78635" transform="rotate(-14.159 285.972 456.506)" fill="#FFA89D"/>
<ellipse rx="3.78462" ry="1.78635" transform="matrix(-0.969621 0.244613 0.244613 0.969621 316.088 448.908)" fill="#FFA89D"/>
<path d="M574.515 412.186C570.101 421.636 555.323 424.206 545.658 419.692C535.993 415.177 528.446 402.884 532.86 393.434C537.273 383.985 552.03 380.842 561.695 385.356C571.36 389.87 578.928 402.736 574.515 412.186Z" fill="#ED8D47"/>
<path d="M582.309 391.181C591.05 392.335 580.86 403.265 573.783 407.338L568.041 391.507C569.747 391.749 573.567 390.028 582.309 391.181Z" fill="#ED8D47"/>
<path d="M544.588 373.501C538.093 367.538 536.252 382.367 537.671 390.409L553.496 384.651C552.215 383.498 551.084 379.464 544.588 373.501Z" fill="#ED8D47"/>
<path d="M544.495 376.008C540.274 372.125 539.062 381.799 539.978 387.042L550.281 383.273C549.448 382.522 548.716 379.892 544.495 376.008Z" fill="#EC6E5D"/>
<path d="M580.849 392.988C586.537 393.732 579.896 400.87 575.287 403.534L571.565 393.214C572.675 393.37 575.162 392.243 580.849 392.988Z" fill="#EC6E5D"/>
<path d="M571.734 418.07C566.994 423.46 555.216 425.564 545.387 420.973C535.559 416.383 529.59 408.384 530.586 398.851C530.576 392.086 544.091 398.117 553.919 402.707C563.747 407.298 576.035 413.178 571.734 418.07Z" fill="#FFF6C5"/>
<ellipse cx="550.847" cy="409.44" rx="12.9199" ry="12.6321" transform="rotate(25.0357 550.847 409.44)" fill="#FFF6C5"/>
<path d="M554.111 404.205C555.974 405.076 558.34 404.083 557.616 402.158V402.158C557.17 400.973 556.268 400.002 555.107 399.46C553.947 398.918 552.624 398.849 551.429 399.268V399.268C549.488 399.948 550.245 402.4 552.108 403.27L553.11 403.738L554.111 404.205Z" fill="#454545"/>
<path d="M553.93 402.29L551.23 408.07" stroke="#454545" stroke-width="2" stroke-linecap="round"/>
<path d="M549.223 389.889C551.188 390.497 553.385 389.186 552.397 387.375V387.375C551.789 386.26 550.76 385.421 549.537 385.043C548.314 384.664 546.997 384.778 545.876 385.358V385.358C544.055 386.301 545.152 388.63 547.117 389.238L548.17 389.564L549.223 389.889Z" fill="#FFF6C5"/>
<ellipse cx="545.446" cy="393.469" rx="3.32786" ry="4.40208" transform="rotate(25.0357 545.446 393.469)" fill="#454545"/>
<ellipse rx="1.6956" ry="2.29809" transform="matrix(0.961118 0.276137 -0.269288 0.96306 546.547 393.019)" fill="white"/>
<path d="M567.231 398.31C565.504 397.193 565.098 394.667 567.121 394.262V394.262C568.367 394.013 569.671 394.263 570.746 394.958C571.821 395.653 572.579 396.736 572.853 397.968V397.968C573.299 399.97 570.809 400.624 569.082 399.507L568.156 398.908L567.231 398.31Z" fill="#FFF6C5"/>
<ellipse rx="3.32786" ry="4.40208" transform="matrix(-0.906044 -0.423182 -0.423182 0.906044 566.909 403.503)" fill="#454545"/>
<ellipse rx="1.69408" ry="2.30024" transform="matrix(-0.983466 -0.181095 -0.170056 0.985434 567.686 402.329)" fill="white"/>
<path d="M551.047 407.844L546.734 407.52C546.193 409.192 544.965 413.312 547.566 414.527C550.167 415.742 552.439 413.705 553.947 410.888L551.047 407.844Z" fill="#EC6E5D"/>
<path d="M558.052 409.306C555.971 410.839 551.547 411.415 551.509 407.481" stroke="#454545" stroke-width="2" stroke-linecap="round"/>
<path d="M545.677 403.581C545.838 406.161 548.236 409.924 551.277 407.427" stroke="#454545" stroke-width="2" stroke-linecap="round"/>
<ellipse cx="538.323" cy="399.93" rx="3.78463" ry="1.78635" transform="rotate(25.0357 538.323 399.93)" fill="#FFA89D"/>
<ellipse rx="3.78462" ry="1.78635" transform="matrix(-0.906044 -0.423182 -0.423182 0.906044 566.465 413.074)" fill="#FFA89D"/>
</svg>
