<?xml version="1.0" encoding="utf-8"?>
<!-- Generator: Adobe Illustrator 24.3.0, SVG Export Plug-In . SVG Version: 6.00 Build 0)  -->
<svg version="1.1" id="Layer_1" xmlns="http://www.w3.org/2000/svg" xmlns:xlink="http://www.w3.org/1999/xlink" x="0px" y="0px"
	 viewBox="0 0 512 512" style="enable-background:new 0 0 512 512;" xml:space="preserve">
<style type="text/css">
	.st0{fill-rule:evenodd;clip-rule:evenodd;fill:#CBDBE8;}
	.st1{fill-rule:evenodd;clip-rule:evenodd;fill:#DFEBF2;}
	.st2{fill:#99A4AA;stroke:#000000;stroke-width:5;stroke-linecap:round;stroke-linejoin:round;stroke-miterlimit:10;}
	.st3{fill:#DFEBF2;stroke:#000000;stroke-width:5;stroke-linecap:round;stroke-linejoin:round;stroke-miterlimit:10;}
	.st4{fill-rule:evenodd;clip-rule:evenodd;fill:#DFEBF2;stroke:#000000;stroke-width:5;stroke-miterlimit:10;}
	
		.st5{fill-rule:evenodd;clip-rule:evenodd;fill:#99A4AA;stroke:#000000;stroke-width:5;stroke-linecap:round;stroke-linejoin:round;stroke-miterlimit:10;}
</style>
<circle class="st1" cx="256" cy="256" r="250"/>
<path class="st5" d="M256,103.7c-84.1,0-152.3,68.2-152.3,152.3S171.9,408.3,256,408.3c84.1,0,152.3-68.2,152.3-152.3
	S340.1,103.7,256,103.7z M239.3,163.5c41.7,0,75.6,33.8,75.6,75.4c0,6.1-5,11.1-11.2,11.1c-6.2,0-11.2-5-11.2-11.1
	c0-29.4-23.9-53.2-53.3-53.2c-6.2,0-11.2-5-11.2-11.1C228.2,168.5,233.2,163.5,239.3,163.5z M174.7,284.2c-6.2,0-11.2-5-11.2-11.1
	c0-41.7,33.8-75.4,75.6-75.4c6.2,0,11.2,5,11.2,11.1c0,6.1-5,11.1-11.2,11.1c-29.4,0-53.3,23.8-53.3,53.2
	C185.8,279.2,180.9,284.2,174.7,284.2z M272.9,348.5c-41.7,0-75.6-33.8-75.6-75.4c0-6.1,5-11.1,11.2-11.1s11.2,5,11.2,11.1
	c0,29.4,23.9,53.2,53.3,53.2c6.2,0,11.2,5,11.2,11.1C284,343.5,279,348.5,272.9,348.5z M272.9,314.4c-6.2,0-11.2-5-11.2-11.1
	c0-6.1,5-11.1,11.2-11.1c29.4,0,53.3-23.8,53.3-53.2c0-6.1,5-11.1,11.2-11.1c6.2,0,11.2,5,11.2,11.1
	C348.5,280.6,314.6,314.4,272.9,314.4z"/>
</svg>
