<?xml version="1.0" encoding="utf-8"?>
<!-- Generator: Adobe Illustrator 24.1.0, SVG Export Plug-In . SVG Version: 6.00 Build 0)  -->
<svg version="1.1" id="Ebene_1" xmlns="http://www.w3.org/2000/svg" xmlns:xlink="http://www.w3.org/1999/xlink" x="0px" y="0px"
	 width="300px" height="100px" viewBox="0 0 300 100" style="enable-background:new 0 0 300 100;" xml:space="preserve">
<style type="text/css">
	.st0{fill:#3d3939;}
</style>
<g id="OmpFJ6.tif">
	<g>
		<path class="st0" d="M36.1,78.5c-1.5-0.9-3.1-1.8-4.6-2.7c-6.7-3.8-13.4-7.7-20.1-11.5c-0.4-0.2-0.5-0.4-0.5-0.9
			c0-9.3,0-18.6,0-27.9c0-0.4,0.1-0.6,0.5-0.8c8.1-4.6,16.2-9.2,24.2-13.9c0.5-0.3,0.8-0.2,1.2,0c8.1,4.6,16.1,9.3,24.2,13.9
			c0.4,0.2,0.5,0.5,0.5,0.9c0,9.2,0,18.5,0,27.7c0,0.5-0.2,0.8-0.6,1c-8.1,4.6-16.1,9.2-24.2,13.8c-0.2,0.1-0.3,0.2-0.5,0.3
			C36.2,78.5,36.1,78.5,36.1,78.5z M24.5,42.2c0.2,0.1,0.4,0.2,0.5,0.3c3.6,2.1,7.1,4.2,10.7,6.3c0.3,0.2,0.6,0.2,0.9,0
			C41,46.2,45.5,43.6,50,41c0.8-0.5,1.7-1,2.6-1.5c-0.1-0.1-0.2-0.1-0.3-0.2c-5.3-3-10.5-6.1-15.8-9.1c-0.3-0.2-0.5-0.1-0.8,0
			c-5.2,3-10.4,6.1-15.7,9.1c-0.3,0.2-0.4,0.3-0.4,0.6c0,6.1,0,12.3,0,18.4c0,0.3,0.1,0.5,0.4,0.7c1.3,0.7,2.6,1.4,3.9,2
			c0.1,0.1,0.3,0.1,0.4,0.2C24.5,54.9,24.5,48.6,24.5,42.2z"/>
		<path class="st0" d="M286.8,34.4c-0.2,0.6-0.7,0.7-1.2,0.7c-3.2,0-6.4,0-9.6,0c-0.2,0-0.4,0-0.7,0c0,0.3,0,0.5,0,0.7
			c0,9.7,0,19.4,0,29.1c0,0.2,0,0.5,0,0.7c-0.2,0.8-0.9,0.6-1.5,0.6c-0.5,0-1,0-1.1-0.6c0-0.2,0-0.4,0-0.7c0-9.7,0-19.3,0-29
			c0-0.2,0-0.4,0-0.7c-0.2,0-0.4,0-0.6,0c-3.2,0-6.4,0-9.6,0c-1,0-1.2-0.2-1.2-1.2c0-0.1,0-0.2,0-0.3c0-0.9,0.2-1.1,1.1-1.1
			c7,0,13.9,0,20.9,0c0.8,0,1.6,0,2.4,0c0.5,0,0.9,0.2,1.1,0.7C286.8,33.5,286.8,33.9,286.8,34.4z"/>
		<path class="st0" d="M179.8,66.5c-9.2,0.3-17.3-7.4-17.3-17.2c0-9.6,7.8-17.5,17.4-17.4c9.6,0,17.4,7.9,17.4,17.4
			C197.2,59.1,188.9,66.8,179.8,66.5z M171.3,49.5c0,4.1,2.7,7.9,7.4,8.6c3.1,0.4,5.7-0.6,7.7-2.9c1.7-2,2.2-4.3,2.1-6.8
			c-0.3-4.2-3.3-7.5-7.5-8c-2.8-0.4-5.3,0.5-7.2,2.6C172,44.7,171.3,46.8,171.3,49.5z"/>
		<path class="st0" d="M146.7,53.1c0.8,1.5,1.6,3.1,2.5,4.7c1.3,2.4,2.6,4.7,3.8,7.1c0.4,0.8,0.2,1.2-0.7,1.2c-2.6,0-5.2,0-7.8,0
			c-0.7,0-1.1-0.3-1.4-0.9c-1.7-3.3-3.5-6.6-5.2-9.9c-0.2-0.3-0.4-0.5-0.7-0.5c-1,0-2,0-3.1,0c0,0.3,0,0.5,0,0.7c0,3,0,6,0,9.1
			c0,0.2,0,0.5,0,0.7c0,0.4-0.3,0.6-0.6,0.7c-0.2,0-0.3,0.1-0.5,0.1c-2.2,0-4.3,0-6.5,0c-0.9,0-1.2-0.3-1.2-1.4c0-6.3,0-12.6,0-18.8
			c0-4,0-7.9,0-11.9c0-0.2,0-0.3,0-0.5c0-0.9,0.3-1.2,1.2-1.2c2.4,0,4.9,0,7.3,0c2.7,0,5.4,0,8.1,0c2.5,0,4.5,1.1,6.3,2.7
			c2.5,2.2,3.8,5.1,3.9,8.5c0,2.5-0.9,4.8-2.5,6.7C148.8,51.3,147.8,52.1,146.7,53.1z M134.1,47.5c1.9,0,3.7,0.1,5.5,0
			c2-0.1,3.5-2,3.5-4c0-2-1.6-3.9-3.6-4c-1.8-0.1-3.6,0-5.4,0c0,0-0.1,0-0.1,0.1C134.1,42.2,134.1,44.8,134.1,47.5z"/>
		<path class="st0" d="M96.4,54.3c0,0.3,0,0.5,0,0.7c0,3.2,0,6.5,0,9.7c0,1.1-0.2,1.4-1.4,1.4c-2.1,0-4.1,0-6.2,0
			c-1.1,0-1.2-0.2-1.2-1.2c0-10.4,0-20.8,0-31.2c0-1,0.3-1.3,1.3-1.3c4.7,0,9.4,0,14.1,0c4.5,0,7.6,2.3,9.5,6.2
			c1.6,3.3,1.6,6.7-0.1,10c-1.8,3.5-4.7,5.6-8.8,5.8c-2.2,0.1-4.5,0-6.7,0C96.8,54.3,96.6,54.3,96.4,54.3z M96.4,47.1
			c1.6,0,3.1,0,4.6,0c1.9,0,3.1-0.9,3.6-2.8c0.5-1.9-0.8-4.8-3.6-4.7c-1.3,0-2.6,0-3.8,0c-0.3,0-0.5,0-0.8,0
			C96.4,42.1,96.4,44.6,96.4,47.1z"/>
		<path class="st0" d="M228.8,48.2c2,0.9,3.5,2.3,4.5,4.3c1.6,3.1,1.5,6.1-0.2,9.1c-1.8,3-4.5,4.5-8,4.5c-4.8,0-9.6,0-14.3,0
			c-1,0-1.1-0.1-1.1-1.1c0-10.4,0-20.9,0-31.3c0-0.2,0-0.5,0-0.7c0.1-0.4,0.3-0.6,0.7-0.6c0.1,0,0.2,0,0.3,0c4.3,0,8.6,0,12.9,0
			c2.7,0,5.1,1,6.9,3c2.8,3.1,2.8,8,0,11.1C230,47.1,229.4,47.6,228.8,48.2z M212.2,63.4c0.1,0,0.2,0,0.3,0c4.3,0,8.7,0,13,0
			c1.6,0,3-0.6,4.1-1.7c2.2-2.1,2.7-5,1.4-7.8c-1.2-2.5-3.2-4-6.1-4c-4,0-8,0-12,0c-0.2,0-0.4,0-0.6,0
			C212.2,54.4,212.2,58.9,212.2,63.4z M212.3,47.3c0.1,0,0.2,0,0.2,0c3.8,0,7.6,0,11.3,0c2,0,3.6-0.8,4.9-2.4
			c1.9-2.4,1.7-6.1-0.4-8.1c-1.3-1.3-3-1.8-4.8-1.8c-3.6,0-7.1,0-10.7,0c-0.2,0-0.3,0-0.5,0C212.3,39.1,212.3,43.2,212.3,47.3z"/>
		<path class="st0" d="M247.2,49.2c0-5.2,0-10.5,0-15.7c0-0.9,0.2-1.1,1.1-1.1c1.5,0,1.5,0.1,1.5,1.5c0,10.3,0,20.6,0,30.9
			c0,0.2,0,0.5,0,0.7c-0.1,0.5-0.3,0.7-1,0.6c-0.6,0-1.3,0.3-1.6-0.6c-0.1-0.2,0-0.4,0-0.6C247.2,59.7,247.2,54.4,247.2,49.2z"/>
		<path class="st0" d="M28.1,39.5c1.2-0.7,2.4-1.4,3.6-2.1c1.4-0.8,2.7-1.6,4.1-2.4c0.2-0.1,0.4-0.2,0.7,0c2.5,1.5,5,2.9,7.5,4.4
			c0.1,0,0.1,0.1,0.3,0.2c-0.7,0.4-1.4,0.8-2.1,1.2c-1.9,1.1-3.8,2.2-5.7,3.3c-0.2,0.1-0.4,0.1-0.6,0c-2.6-1.5-5.1-3-7.6-4.5
			C28.2,39.6,28.1,39.5,28.1,39.5z"/>
	</g>
</g>
</svg>
