<?xml version="1.0" encoding="utf-8"?>
<!-- Generator: Adobe Illustrator 24.3.0, SVG Export Plug-In . SVG Version: 6.00 Build 0)  -->
<svg version="1.1" id="Layer_1" xmlns="http://www.w3.org/2000/svg" xmlns:xlink="http://www.w3.org/1999/xlink" x="0px" y="0px"
	 viewBox="0 0 512 512" style="enable-background:new 0 0 512 512;" xml:space="preserve">
<style type="text/css">
	.st0{fill-rule:evenodd;clip-rule:evenodd;fill:#CBDBE8;}
	.st1{fill-rule:evenodd;clip-rule:evenodd;fill:#DFEBF2;}
	.st2{fill:#99A4AA;stroke:#000000;stroke-width:5;stroke-linecap:round;stroke-linejoin:round;stroke-miterlimit:10;}
	.st3{fill:#DFEBF2;stroke:#000000;stroke-width:5;stroke-linecap:round;stroke-linejoin:round;stroke-miterlimit:10;}
	.st4{fill-rule:evenodd;clip-rule:evenodd;fill:#DFEBF2;stroke:#000000;stroke-width:5;stroke-miterlimit:10;}
	
		.st5{fill-rule:evenodd;clip-rule:evenodd;fill:#99A4AA;stroke:#000000;stroke-width:5;stroke-linecap:round;stroke-linejoin:round;stroke-miterlimit:10;}
</style>
<circle class="st1" cx="256" cy="256" r="250"/>
<g>
	<g>
		<path class="st2" d="M256.2,108.3c81.7,0,147.7,66.4,147.7,147.7s-66.4,147.7-147.7,147.7c-81.7,0-148.1-66.4-148.1-147.7
			C108.6,174.8,175,108.3,256.2,108.3z M358.2,256c0-56.3-46.1-102.4-102.9-102.4c-56.3,0-102.4,46.1-102.4,102.9
			c0,56.3,46.1,102.4,102.9,102.4C312.5,358.4,358.7,312.8,358.2,256z"/>
	</g>
	<path class="st2" d="M325.9,255.5L325.9,255.5L325.9,255.5c0-1.8-0.9-3.2-2.3-4.2c0,0-30-20.8-54-34.1s-49.4-24-49.4-24
		c-3.2-1.4-6.5,0.5-6.9,4.2c0,0-2.3,21.2-2.3,58.1l0,0l0,0l0,0l0,0c0,36.9,2.3,58.1,2.3,58.1c0.5,3.7,3.7,5.5,6.9,4.2
		c0,0,25.4-10.2,49.4-24c24-13.4,54-34.1,54-34.1C325.4,258.8,325.9,257.4,325.9,255.5L325.9,255.5L325.9,255.5z"/>
</g>
</svg>
