<?xml version="1.0" encoding="UTF-8" standalone="no"?>
<svg
   viewBox="0 0 1000 1000"
   version="1.1"
   id="svg635"
   sodipodi:docname="sourceforge.svg"
   inkscape:version="1.2.2 (b0a8486541, 2022-12-01)"
   xmlns:inkscape="http://www.inkscape.org/namespaces/inkscape"
   xmlns:sodipodi="http://sodipodi.sourceforge.net/DTD/sodipodi-0.dtd"
   xmlns="http://www.w3.org/2000/svg"
   xmlns:svg="http://www.w3.org/2000/svg">
  <defs
     id="defs639" />
  <sodipodi:namedview
     id="namedview637"
     pagecolor="#ffffff"
     bordercolor="#666666"
     borderopacity="1.0"
     inkscape:showpageshadow="2"
     inkscape:pageopacity="0.0"
     inkscape:pagecheckerboard="0"
     inkscape:deskcolor="#d1d1d1"
     showgrid="false"
     inkscape:zoom="0.779"
     inkscape:cx="500"
     inkscape:cy="499.35815"
     inkscape:window-width="1920"
     inkscape:window-height="959"
     inkscape:window-x="0"
     inkscape:window-y="48"
     inkscape:window-maximized="1"
     inkscape:current-layer="svg635" />
  <path
     d="M569 526q0-105-32-179-22-50-55-80-5-4-10-1.5-5 2.5-4 8.5 2 27-12 53-8 16-32 45-31 38-43 63-21 42-21 93l0 0q0 42 19.5 78 19.5 36 53 57 33.5 21 73.5 21 40 0 73-21 33-21 52.5-57 19.5-36 19.5-78l0 0 0 0q0-51-30-107-3-4-7.5-3-4.5 1-3.5 5 8 34 6 66-1 28-8.5 48.5-7.5 20.5-16.5 27.5-9 7-15.5-3-6.5-10-6.5-36z m-172 336q-6 0-10-4l-372-371q-4-4-4-10 0-6 4-10l392-392q5-3 9-3l113 0q10 0 13 8 3 8-4 15l-367 369q-6 5-6 13 0 8 6 13l291 292q4 4 4 9.5 0 5.5-4 10.5l-56 57q-4 3-9 3z m74 65q-9 0-13-8-4-8 4-15l368-369q6-6 6-14 0-8-6-12l-292-292q-4-4-4-10 0-6 4-10l57-57q4-4 10-4 3 0 7 3l2 2 370 371q4 4 4 10 0 6-4 10l-392 392q-4 4-10 4l-111 0 0-1z"
     id="path633"
     style="fill:#8c939a;fill-opacity:1" />
</svg>
