<?xml version="1.0" encoding="utf-8"?>
<!-- Generator: Adobe Illustrator 24.3.0, SVG Export Plug-In . SVG Version: 6.00 Build 0)  -->
<svg version="1.1" id="Ebene_1" xmlns="http://www.w3.org/2000/svg" xmlns:xlink="http://www.w3.org/1999/xlink" x="0px" y="0px"
	 viewBox="0 0 900 900" style="enable-background:new 0 0 900 900;" xml:space="preserve">
<style type="text/css">
	.st0{fill:#FFFFFF;}
	.st1{fill:#9B1C2E;}
</style>
<circle class="st0" cx="449.9" cy="449.6" r="294.8"/>
<g>
	<path class="st1" d="M449.9,48.3C228.3,48.3,48.6,228,48.6,449.6s179.7,401.3,401.3,401.3s401.3-179.7,401.3-401.3
		S671.6,48.3,449.9,48.3z M206.4,449.8c0-134.6,109.2-243.6,243.6-243.6c69.7,0,132.5,29.2,176.9,76.2H512.3
		c-5.6,0-10.8,3.1-13.4,8.1l-68,128.9h-87.6c-8.3,0-15.2,6.7-15.2,15.2v30.5c0,8.3,6.7,15.2,15.2,15.2h55.4l-35.8,68
		c-2.5,5-7.8,8.1-13.4,8.1v0.2H231C215.2,524.2,206.4,487.9,206.4,449.8z M449.7,693.1c-69.7,0-132.5-29.2-176.9-76.2h114.6
		c5.6,0,10.8-3.1,13.4-8.1l68-128.9h87.6c8.3,0,15.2-6.7,15.2-15.2v-30.5c0-8.3-6.7-15.2-15.2-15.2h-55.4l35.8-68
		c2.5-5,7.8-8.1,13.4-8.1v-0.2h118.4c15.8,32.2,24.6,68.5,24.6,106.6C693.4,584.1,584.2,693.1,449.7,693.1z"/>
	<g>
		<path class="st0" d="M371.4,732.6l7.8,1.4c0.9,0.2,1.5,0.5,2,1c0.5,0.6,0.8,1.1,1,1.8l2,11.7l22.4,4.1l6-10.3
			c0.3-0.6,0.8-1,1.4-1.3c0.7-0.4,1.4-0.5,2.3-0.3l7.8,1.4l-31.1,50.2l-10.3-1.9L371.4,732.6z M385.5,756.2l3.3,19.1
			c0.2,0.9,0.4,1.9,0.5,3c0.2,1.1,0.3,2.4,0.4,3.7c0.6-1.2,1.1-2.4,1.6-3.4c0.6-1,1-1.9,1.5-2.7l9.8-16.7L385.5,756.2z"/>
		<path class="st0" d="M329.8,731c-0.6-0.2-1-0.6-1.1-1.1l-2.3-5.4c3-1.8,6.3-3,9.9-3.2c3.5-0.3,7.5,0.3,11.8,1.8
			c3.8,1.3,7,3.2,9.6,5.6c2.6,2.4,4.6,5.1,5.9,8.3s2,6.5,2,10.2c0,3.6-0.7,7.4-2.1,11.2c-1.4,3.9-3.2,7.2-5.6,10s-5.1,5-8.2,6.5
			c-3,1.5-6.4,2.4-10,2.6c-3.6,0.2-7.2-0.4-11-1.7c-3.8-1.3-6.9-3.1-9.3-5.4c-2.5-2.3-4.4-4.8-5.7-7.5l4.9-3.3
			c0.3-0.2,0.7-0.4,1-0.5c0.4-0.1,0.9-0.1,1.3,0.1c0.4,0.1,0.7,0.4,1,0.7c0.3,0.4,0.7,0.8,1,1.2c0.4,0.5,0.8,1,1.2,1.5
			c0.5,0.6,1,1.1,1.7,1.7s1.5,1.1,2.5,1.7s2.1,1.1,3.5,1.6c2.3,0.9,4.6,1.1,6.8,1c2.2-0.1,4.3-0.8,6.2-1.8c1.9-1,3.7-2.6,5.2-4.6
			s2.9-4.4,3.9-7.3c1-3,1.5-5.6,1.5-8.2c0-2.6-0.5-4.9-1.3-7c-0.9-2.1-2.1-3.8-3.7-5.3c-1.6-1.5-3.5-2.7-5.7-3.4
			c-1.3-0.5-2.6-0.9-3.6-1c-1.1-0.2-2.2-0.4-3.1-0.4c-1,0-2,0.1-3,0.3c-1,0.2-2,0.5-3,1c-0.3,0.1-0.7,0.2-1,0.3
			C330.4,731.1,330.1,731.1,329.8,731z"/>
		<path class="st0" d="M286.3,708.2c-0.5-0.3-0.9-0.7-1-1.2l-1.4-5.8c3.2-1.3,6.7-1.9,10.3-1.6c3.5,0.3,7.3,1.5,11.3,3.7
			c3.6,2,6.5,4.4,8.7,7.1c2.2,2.8,3.7,5.8,4.5,9.1c0.9,3.2,1,6.8,0.4,10.4c-0.6,3.6-1.8,7.2-3.8,10.8c-2,3.6-4.4,6.6-7.2,9
			c-2.8,2.4-5.9,4.1-9.1,5c-3.3,1-6.8,1.3-10.3,1c-3.6-0.4-7.1-1.5-10.7-3.5c-3.5-1.9-6.3-4.2-8.4-6.9c-2.1-2.7-3.5-5.4-4.5-8.4
			l5.2-2.5c0.3-0.2,0.7-0.3,1-0.3s0.9,0.1,1.3,0.3c0.3,0.2,0.7,0.5,0.9,0.9c0.3,0.4,0.5,0.9,0.8,1.3s0.6,1,1,1.7s0.9,1.3,1.4,2
			s1.3,1.3,2.2,2.1c0.9,0.8,1.9,1.4,3.2,2.1c2.2,1.1,4.3,1.9,6.6,2.1c2.2,0.2,4.4-0.1,6.5-0.8c2.1-0.8,4.1-2,5.9-3.7
			c1.9-1.7,3.5-3.9,5-6.6c1.5-2.7,2.5-5.3,2.9-7.8c0.4-2.6,0.3-4.9-0.2-7c-0.5-2.2-1.4-4.1-2.8-5.8c-1.3-1.7-3-3.1-5-4.3
			c-1.2-0.7-2.4-1.2-3.4-1.6c-1-0.4-2.1-0.7-3-0.9s-2-0.2-3-0.2s-2,0.2-3.1,0.5c-0.3,0.1-0.7,0.1-1,0.1
			C286.9,708.4,286.6,708.3,286.3,708.2z"/>
		<path class="st0" d="M247.2,721.6l9.3-12.1l-15.2-11.7l4.8-6.2l15.2,11.7l9.5-12.3l-19.3-14.9l5-6.5l27.4,21.1l-33.5,43.5
			l-27.4-21.1l5-6.5L247.2,721.6z"/>
		<path class="st0" d="M199.2,689.9c-2.6-2.7-4.4-5.2-5.6-7.8s-1.9-5-2-7.3c-0.1-2.3,0.4-4.6,1.3-6.7c1-2.1,2.4-4,4.2-5.8
			c1.9-1.8,4-3.2,6.2-4.1c2.2-0.9,4.5-1.2,6.9-1s4.9,1,7.3,2.3s5,3.2,7.4,5.8l5.2,5.5l14-13.3l7,7.3l-39.6,38L199.2,689.9z
			 M219.2,670.8c-1.3-1.3-2.6-2.4-3.9-3c-1.3-0.7-2.6-1-3.9-1.1c-1.2-0.1-2.5,0.2-3.7,0.7c-1.2,0.6-2.4,1.3-3.5,2.4
			c-1,1-1.9,2.1-2.4,3.2c-0.6,1.1-0.8,2.4-0.8,3.6s0.4,2.5,1,3.8c0.7,1.3,1.6,2.7,3,4l5.2,5.5l14.2-13.6L219.2,670.8z"/>
		<path class="st0" d="M160.5,627.1l9.5,13.5l38.1-26.8l5.9,8.4L175.9,649l9.5,13.5l-6.9,4.9l-24.9-35.4L160.5,627.1z"/>
		<path class="st0" d="M149.8,607.4l13.6-6.9l-8.7-17.1l7-3.5l8.7,17.1l13.9-7l-11-21.8l7.3-3.7l15.6,30.9l-49,24.8l-15.6-30.9
			l7.2-3.6L149.8,607.4z"/>
		<path class="st0" d="M137,519.9c3.8-1.2,7.6-1.6,11.1-1.3c3.6,0.3,7,1.2,10,2.9c3,1.6,5.7,3.8,8,6.7c2.3,2.9,4.1,6.3,5.3,10.3
			l6.2,20l-52.5,16.3l-6.2-20c-1.2-4-1.7-7.8-1.4-11.5c0.3-3.7,1.2-7,2.8-10.1c1.6-3,3.8-5.7,6.6-8C129.9,522.8,133.2,521,137,519.9
			z M140.1,529.9c-2.9,0.9-5.3,2.1-7.4,3.5c-2.1,1.4-3.6,3.1-4.8,5.1c-1.1,1.9-1.8,4.1-2,6.4c-0.2,2.3,0.1,4.8,0.9,7.3l3.1,10.2
			l36.9-11.5l-3.1-10.2c-0.8-2.6-1.9-4.8-3.4-6.5c-1.5-1.8-3.2-3.1-5.2-4.1c-2-1-4.3-1.4-6.9-1.5C145.8,528.5,143,529,140.1,529.9z"
			/>
		<path class="st0" d="M102.1,444.2l54.8-2.8l0.5,10.3l-24,1.2l1.2,25.7l24-1.2l0.5,10.3l-54.8,2.8l-0.5-10.3l23.6-1.1l-1.2-25.7
			l-23.5,1L102.1,444.2z"/>
		<path class="st0" d="M112.7,415.6l15.1,1.8l2.3-19l7.8,1l-2.3,19l15.4,1.8l2.9-24.2l8.1,1l-4.1,34.4l-54.6-6.5l4.1-34.4l8.1,1
			L112.7,415.6z"/>
		<path class="st0" d="M175,348.7l-2.5,8.9c-0.5,1.7-1.4,2.8-3,3.1l-20,6.5c-0.8,0.3-1.3,0.6-1.7,1s-0.8,1.1-1,2.1l-1.1,4.2
			l20.7,5.7l-2.8,9.8l-52.9-14.7l4.5-16.2c1-3.6,2.2-6.6,3.7-9c1.4-2.4,3-4.2,4.9-5.4c1.8-1.2,3.7-2,5.8-2.3
			c2.1-0.3,4.3-0.1,6.5,0.6c1.8,0.5,3.4,1.2,4.9,2.2c1.4,1,2.7,2.1,3.7,3.4c1,1.3,1.8,2.9,2.4,4.6c0.6,1.7,0.9,3.6,1,5.6
			c0.6-0.6,1.1-1,1.8-1.4c0.7-0.4,1.3-0.8,2.2-1L175,348.7z M140.2,366.3c0.5-1.8,0.8-3.5,0.7-5c-0.1-1.5-0.4-2.9-1-3.9
			c-0.6-1.1-1.3-2.1-2.4-2.8c-1-0.8-2.2-1.3-3.5-1.7c-2.7-0.8-5-0.4-7,1c-1.9,1.3-3.4,3.9-4.4,7.5l-1.7,6.3l17.6,4.9L140.2,366.3z"
			/>
		<path class="st0" d="M138.4,316.6l13.9,6.2l7.8-17.5l7.1,3.2l-7.8,17.5l14.2,6.3l9.9-22.3l7.4,3.3L176.9,345l-50.2-22.4l14.1-31.6
			l7.4,3.3L138.4,316.6z"/>
		<path class="st0" d="M241.9,243.2l-5,6.1c-0.6,0.7-1.2,1.1-1.9,1.2c-0.7,0.2-1.4,0.1-2.1-0.1l-11.2-4l-14.5,17.5l6,10.3
			c0.3,0.6,0.5,1.1,0.5,1.9c0,0.8-0.3,1.4-0.9,2.1l-5,6.2l-28.5-51.7l6.7-8L241.9,243.2z M214.5,243.8l-18.4-6.5
			c-0.9-0.3-1.8-0.6-2.9-1s-2.2-1-3.4-1.5c0.8,1,1.5,2.1,2.1,3.1c0.7,1,1.1,1.9,1.6,2.7l9.8,16.8L214.5,243.8z"/>
		<path class="st0" d="M263.8,207.6c0.4-0.4,1-0.6,1.5-0.5l5.9,0.7c0.1,3.5-0.6,7-2.1,10.2s-4,6.4-7.4,9.3c-3,2.7-6.3,4.6-9.7,5.6
			c-3.3,1-6.8,1.4-10.1,1c-3.3-0.4-6.7-1.4-9.8-3.2c-3.1-1.8-6.1-4.2-8.8-7.3c-2.7-3.1-4.7-6.4-5.9-9.8c-1.2-3.4-1.8-6.9-1.6-10.4
			c0.2-3.4,1-6.8,2.7-10c1.6-3.2,3.9-6.2,7-8.8c3-2.7,6.1-4.5,9.3-5.5c3.2-1,6.3-1.4,9.3-1.3l0.6,5.8c0,0.4,0,0.8-0.1,1.1
			c-0.1,0.4-0.4,0.8-0.8,1.1c-0.3,0.3-0.7,0.4-1.1,0.6c-0.5,0.1-1,0.2-1.5,0.3c-0.6,0.1-1.2,0.2-1.9,0.3c-0.7,0.1-1.5,0.4-2.4,0.7
			c-0.9,0.3-1.7,0.8-2.8,1.3c-1,0.6-2,1.3-3,2.3c-1.8,1.6-3.2,3.4-4.2,5.4c-1,2-1.4,4.1-1.5,6.3c0,2.2,0.5,4.5,1.4,6.9
			c1,2.4,2.5,4.7,4.5,7c2,2.3,4.2,4.1,6.4,5.3c2.2,1.2,4.5,2,6.7,2.3c2.2,0.3,4.4,0.1,6.5-0.6c2.1-0.7,4-1.8,5.8-3.3
			c1-1,2-1.8,2.7-2.7c0.8-0.9,1.3-1.7,1.9-2.6c0.5-0.9,0.9-1.8,1.2-2.8c0.3-1,0.5-2,0.7-3.1c0-0.4,0.1-0.7,0.3-1
			C263.4,208.1,263.5,207.8,263.8,207.6z"/>
		<path class="st0" d="M305.1,181c0.5-0.3,1-0.4,1.6-0.2l5.7,1.6c-0.5,3.5-1.6,6.8-3.6,9.7c-2,3-5,5.6-8.8,8c-3.4,2.2-7,3.5-10.5,4
			c-3.5,0.6-6.9,0.4-10.2-0.6c-3.2-0.9-6.3-2.5-9.1-4.8c-2.9-2.3-5.3-5.1-7.5-8.7c-2.2-3.5-3.6-7-4.3-10.7
			c-0.7-3.6-0.7-7.1,0.1-10.5c0.8-3.3,2.1-6.5,4.2-9.4c2.1-3,4.9-5.4,8.3-7.5c3.4-2.1,6.8-3.4,10.1-3.9c3.3-0.5,6.5-0.5,9.4,0.2
			l-0.4,5.8c0,0.4-0.1,0.8-0.3,1c-0.2,0.4-0.5,0.7-1,1c-0.3,0.2-0.8,0.3-1.1,0.4c-0.5,0-1,0-1.5,0s-1.2,0-2,0
			c-0.8,0-1.5,0.1-2.4,0.3c-0.9,0.2-1.8,0.5-2.9,0.9c-1,0.4-2.2,1-3.4,1.7c-2.1,1.3-3.8,2.9-5,4.7s-2.1,3.8-2.5,6
			c-0.4,2.2-0.3,4.5,0.3,7c0.6,2.5,1.6,5,3.2,7.6s3.4,4.8,5.4,6.3c2,1.6,4.1,2.7,6.2,3.3c2.1,0.6,4.3,0.8,6.5,0.5
			c2.2-0.3,4.3-1.1,6.3-2.3c1.1-0.8,2.2-1.4,3-2.2c0.9-0.8,1.6-1.4,2.3-2.3c0.7-0.8,1.1-1.6,1.6-2.5c0.5-0.9,0.9-1.9,1.1-3
			c0.1-0.3,0.2-0.7,0.4-0.9C304.6,181.4,304.8,181.2,305.1,181z"/>
		<path class="st0" d="M312.5,140.2l6,14l17.7-7.5l3,7.2l-17.7,7.5l6.1,14.3l22.5-9.5l3.2,7.5l-31.9,13.5l-21.5-50.5l31.9-13.5
			l3.1,7.5L312.5,140.2z"/>
		<path class="st0" d="M363.5,114c3.5-1,6.8-1.3,9.5-1.1c2.9,0.2,5.2,0.8,7.3,1.8s3.8,2.5,5.1,4.4c1.3,1.9,2.4,4,3,6.5
			c0.7,2.6,0.9,5,0.6,7.4s-1.1,4.6-2.4,6.6c-1.3,2-3.1,3.7-5.5,5.2s-5.2,2.8-8.8,3.6l-7.4,1.9l4.9,18.8l-9.9,2.6l-13.8-53.1
			L363.5,114z M370.5,140.7c1.8-0.5,3.3-1.1,4.6-1.9s2.2-1.7,2.9-2.9c0.7-1,1-2.3,1.2-3.6c0.2-1.3,0-2.8-0.4-4.2
			c-0.4-1.4-1-2.7-1.6-3.7c-0.8-1-1.6-1.8-2.8-2.4c-1-0.6-2.4-1-3.8-1c-1.4-0.1-3.1,0.1-5,0.6l-7.4,1.9l5,19L370.5,140.7z"/>
		<path class="st0" d="M437.3,110.9l-16.5,1.7l4.8,46.3l-10.2,1l-4.8-46.3l-16.5,1.7l-0.9-8.4l43.1-4.4L437.3,110.9z"/>
		<path class="st0" d="M459.8,111.2l-0.7,15.2l19.2,0.9l-0.4,7.8l-19.2-0.9l-0.7,15.5l24.4,1.1l-0.4,8.2l-34.6-1.6l2.5-54.8
			l34.6,1.6l-0.4,8.1L459.8,111.2z"/>
		<path class="st0" d="M542.3,143.1c-0.9,3.9-2.3,7.4-4.3,10.4c-2,3-4.5,5.4-7.3,7.3s-6.2,3-9.8,3.7c-3.6,0.6-7.5,0.5-11.5-0.5
			l-20.5-4.4l11.6-53.7l20.5,4.4c4.1,0.9,7.6,2.4,10.7,4.4c3,2,5.5,4.5,7.4,7.4c1.9,2.9,3.1,6.1,3.7,9.7
			C543.4,135.5,543.2,139.2,542.3,143.1z M532.1,140.9c0.7-3,0.9-5.7,0.6-8.2c-0.3-2.5-1-4.8-2.1-6.7c-1.1-1.9-2.7-3.5-4.6-4.9
			s-4.2-2.3-6.8-2.9l-10.5-2.3l-8.2,37.8l10.5,2.3c2.7,0.6,5,0.7,7.3,0.2c2.3-0.4,4.3-1.2,6.2-2.6c1.8-1.3,3.3-3,4.7-5.2
			C530.5,146.4,531.5,143.9,532.1,140.9z"/>
		<path class="st0" d="M625.4,149.8L600.9,199l-9.1-4.6l10.7-21.5l-23.1-11.4L568.6,183l-9.1-4.6l24.5-49.2l9.1,4.6l-10.5,21.1
			l23.1,11.4l10.5-21.1L625.4,149.8z"/>
		<path class="st0" d="M645.1,172.9l-9,12.3l15.5,11.3l-4.7,6.4l-15.5-11.3l-9.1,12.6l19.7,14.4l-4.8,6.6l-28-20.4l32.4-44.4
			l28,20.4l-4.8,6.6L645.1,172.9z"/>
		<path class="st0" d="M673,259.9l-6.6-6.5c-1.2-1.2-1.6-2.6-1.2-4.1l4.2-20.6c0.2-0.8,0.2-1.4,0-2c-0.2-0.6-0.6-1.2-1.3-1.9l-3.1-3
			l-15.1,15.2l-7.2-7.2l38.7-38.9l11.9,11.8c2.7,2.7,4.7,5.1,6,7.6c1.3,2.5,2.1,4.8,2.4,7c0.2,2.2,0,4.3-0.9,6.2
			c-0.8,1.9-2,3.7-3.6,5.4c-1.3,1.3-2.8,2.4-4.3,3.1s-3.1,1.3-4.9,1.5c-1.7,0.2-3.4,0.2-5.1-0.2c-1.8-0.4-3.5-1-5.3-1.9
			c0.2,0.8,0.3,1.5,0.4,2.3c0,0.8,0,1.5-0.2,2.4L673,259.9z M674.7,221c1.3,1.3,2.8,2.4,4.1,3c1.3,0.7,2.7,1,3.9,1
			c1.2,0.1,2.5-0.2,3.6-0.7s2.2-1.2,3.1-2.3c2-2,2.9-4.1,2.6-6.5s-1.7-4.9-4.4-7.5l-4.7-4.6l-12.9,12.9L674.7,221z"/>
		<path class="st0" d="M718.9,243.8l-12.3,9l11.4,15.4l-6.3,4.7l-11.4-15.4l-12.5,9.2l14.5,19.6l-6.6,4.9l-20.6-27.8l44.2-32.7
			l20.6,27.8l-6.6,4.9L718.9,243.8z"/>
		<path class="st0" d="M732.1,370.2l-2.9-7.3c-0.3-0.9-0.4-1.6-0.2-2.3c0.2-0.7,0.6-1.2,1-1.8l9-7.9l-8.2-21.2l-11.9,0.2
			c-0.6,0-1.2-0.2-1.9-0.6c-0.7-0.4-1.1-1-1.4-1.7l-2.9-7.4l59,0.4l3.7,9.7L732.1,370.2z M745,345.8l14.7-12.9
			c0.7-0.6,1.4-1.2,2.3-2c1-0.8,1.9-1.5,3-2.3c-1.3,0.2-2.6,0.3-3.7,0.4s-2.2,0.1-3.1,0.1l-19.3,0.4L745,345.8z"/>
		<path class="st0" d="M752.4,406.6c0.1,0.6,0,1-0.3,1.6l-3.4,4.9c-3.1-1.6-5.8-3.9-7.9-6.8c-2.1-2.9-3.6-6.6-4.6-11
			c-0.9-4-0.9-7.7-0.2-11.2c0.7-3.4,2-6.6,4-9.3c2-2.8,4.5-5,7.6-7c3.1-1.9,6.7-3.2,10.7-4.1c4-0.9,7.9-1,11.5-0.4s6.9,1.8,9.8,3.6
			c3,1.8,5.4,4.3,7.4,7.2s3.4,6.4,4.3,10.4c0.9,3.9,0.9,7.5,0.2,10.9c-0.7,3.3-1.8,6.3-3.4,8.8l-5.3-2.4c-0.4-0.1-0.7-0.4-1-0.6
			c-0.3-0.3-0.5-0.7-0.6-1.2c-0.1-0.4-0.1-0.8,0.1-1.2c0.1-0.5,0.3-1,0.5-1.4c0.2-0.6,0.5-1.1,0.7-1.8c0.3-0.7,0.5-1.5,0.6-2.4
			s0.2-1.9,0.2-3s-0.2-2.4-0.5-3.8c-0.5-2.4-1.4-4.5-2.7-6.4c-1.2-1.8-2.9-3.2-4.8-4.4c-1.9-1.1-4.1-1.8-6.7-2.1
			c-2.5-0.3-5.2-0.2-8.3,0.5s-5.6,1.6-7.8,3c-2.2,1.3-3.9,3-5.2,4.7c-1.3,1.8-2.2,3.8-2.7,5.9c-0.5,2.2-0.4,4.4,0,6.7
			c0.3,1.3,0.6,2.6,1,3.6c0.4,1,0.9,2,1.3,2.9s1.1,1.6,1.8,2.4c0.7,0.8,1.5,1.4,2.4,2.1c0.3,0.2,0.5,0.4,0.7,0.7
			C752.2,406,752.4,406.3,752.4,406.6z"/>
		<path class="st0" d="M755.4,455.5c0,0.6-0.2,1-0.6,1.5l-4.2,4.2c-2.9-2.1-5-4.8-6.7-7.9c-1.6-3.1-2.5-7-2.7-11.6
			c-0.2-4.1,0.4-7.8,1.6-11c1.2-3.3,3-6.2,5.4-8.6c2.4-2.4,5.2-4.3,8.7-5.7c3.4-1.3,7.1-2.2,11.2-2.3c4.1-0.2,7.9,0.3,11.4,1.5
			c3.5,1.1,6.5,2.9,9.1,5.1c2.6,2.3,4.7,5,6.2,8.3c1.5,3.2,2.4,6.9,2.6,11c0.2,4-0.3,7.6-1.5,10.8c-1.1,3.1-2.8,5.9-4.9,8.1
			l-4.9-3.2c-0.3-0.2-0.6-0.5-0.9-0.8c-0.3-0.3-0.4-0.8-0.4-1.3c0-0.4,0.1-0.8,0.3-1.1c0.2-0.4,0.5-0.9,0.8-1.3c0.3-0.5,0.7-1,1-1.7
			c0.4-0.7,0.7-1.4,1-2.3c0.3-0.9,0.5-1.8,0.7-3c0.2-1.1,0.2-2.4,0.2-3.8c-0.1-2.5-0.7-4.7-1.6-6.7c-1-2-2.3-3.7-4-5
			c-1.7-1.4-3.8-2.5-6.2-3.1c-2.4-0.7-5.1-1-8.2-0.9c-3,0.1-5.8,0.7-8.2,1.7c-2.4,1-4.4,2.3-5.9,3.8c-1.6,1.5-2.8,3.3-3.5,5.4
			c-0.8,2.1-1.1,4.3-1,6.6c0.1,1.4,0.2,2.7,0.4,3.8c0.2,1.1,0.5,2.2,0.9,3c0.4,1,0.9,1.8,1.4,2.7s1.2,1.6,2,2.5
			c0.2,0.3,0.5,0.5,0.6,0.8C755.3,454.9,755.4,455.2,755.4,455.5z"/>
		<path class="st0" d="M787.3,482.1l-15.1-1.7l-2.1,19.1l-7.8-0.9l2.1-19.1l-15.4-1.7l-2.8,24.2l-8.1-1l3.9-34.4l54.6,6.1l-3.9,34.4
			l-8.1-1L787.3,482.1z"/>
		<path class="st0" d="M785.1,539.4c-1,3.5-2.2,6.5-3.7,8.9c-1.5,2.4-3.2,4.2-5.2,5.5c-1.9,1.3-4.1,2.1-6.4,2.4s-4.7,0.1-7.1-0.6
			c-2.6-0.7-4.9-1.7-6.8-3.1c-1.9-1.4-3.4-3.2-4.5-5.3c-1-2.1-1.7-4.6-1.9-7.4c-0.2-2.9,0.2-5.9,1.1-9.4l2-7.3l-18.7-5l2.7-9.9
			l53,14.1L785.1,539.4z M758.5,532.3c-0.5,1.8-0.7,3.4-0.6,5c0.1,1.4,0.5,2.8,1,3.9c0.6,1.1,1.4,2.1,2.6,2.9c1,0.8,2.4,1.3,3.9,1.7
			c1.4,0.4,2.8,0.5,4,0.4c1.2-0.1,2.4-0.6,3.4-1.2c1-0.7,2-1.6,2.8-2.9c0.8-1.2,1.4-2.8,1.9-4.6l2-7.3l-19-5L758.5,532.3z"/>
		<path class="st0" d="M751.7,605.1l6.6-15.2l-42.7-18.6l4.1-9.3l42.7,18.6l6.6-15.2l7.7,3.3l-17.2,39.7L751.7,605.1z"/>
		<path class="st0" d="M740.5,624.5l-12.9-8l-10.2,16.3l-6.7-4.2l10.2-16.3l-13.2-8.2l-12.9,20.7l-7-4.3l18.3-29.4l46.7,29
			l-18.3,29.4l-6.9-4.3L740.5,624.5z"/>
		<path class="st0" d="M672.2,681c-3-2.7-5.3-5.6-7-8.9c-1.6-3.2-2.6-6.6-2.8-10c-0.2-3.4,0.3-6.9,1.5-10.3c1.2-3.4,3.2-6.8,6-9.9
			l13.9-15.7l41.1,36.4l-13.9,15.7c-2.8,3.1-5.8,5.5-9,7.2c-3.2,1.6-6.7,2.6-10.1,2.9c-3.4,0.2-6.9-0.3-10.3-1.5
			C678.5,685.6,675.3,683.6,672.2,681z M679.2,673.2c2.3,2,4.6,3.5,6.9,4.5s4.6,1.4,6.9,1.4s4.4-0.6,6.5-1.5c2.1-1,4-2.6,5.8-4.6
			l7-8l-28.9-25.6l-7,8c-1.8,2-3,4.1-3.8,6.3c-0.8,2.2-1,4.4-0.8,6.7c0.3,2.2,1,4.5,2.3,6.6C675.2,669.1,676.9,671.2,679.2,673.2z"
			/>
		<path class="st0" d="M625.7,750l-30.9-45.4l8.5-5.7l13.4,19.9l21.3-14.5l-13.4-19.9l8.5-5.7l30.9,45.4l-8.5,5.7l-13.2-19.5
			l-21.3,14.5l13.2,19.5L625.7,750z"/>
		<path class="st0" d="M595.8,755.8l-6.4-13.8l-17.4,8l-3.2-7.1l17.4-8l-6.5-14.1L557.6,731l-3.4-7.4l31.5-14.4l22.9,49.9L577,773.4
			l-3.4-7.4L595.8,755.8z"/>
		<path class="st0" d="M506.2,737.6l8.9-2.6c1.7-0.5,3-0.2,4.2,1l15.9,13.7c0.6,0.5,1.1,0.9,1.7,1s1.3,0.1,2.3-0.2l4.2-1.2
			l-5.9-20.7l9.8-2.8l15.1,52.8l-16.1,4.6c-3.6,1-6.8,1.5-9.5,1.5s-5.1-0.5-7.2-1.3c-2-0.9-3.7-2.1-5-3.8c-1.3-1.6-2.3-3.6-3-5.8
			c-0.5-1.8-0.8-3.5-0.7-5.2s0.4-3.4,1-5c0.6-1.6,1.5-3,2.7-4.5s2.6-2.7,4.3-3.7c-0.8-0.2-1.4-0.5-2.1-0.8c-0.7-0.4-1.3-0.8-2-1.3
			L506.2,737.6z M539.5,758.1c-1.8,0.6-3.4,1.2-4.7,2.1c-1.2,0.9-2.2,1.8-2.9,2.9c-0.7,1-1,2.2-1.1,3.4c-0.1,1.2,0,2.6,0.4,3.9
			c0.8,2.7,2.2,4.5,4.4,5.4c2.2,1,5,0.9,8.7-0.2l6.3-1.8l-5-17.5L539.5,758.1z"/>
		<path class="st0" d="M498,785.5l-1.9-15.1l-19,2.4l-1-7.8l19-2.4l-2-15.4l-24.2,3l-1-8.1l34.4-4.4l7,54.5l-34.4,4.4l-1-8.1
			L498,785.5z"/>
	</g>
</g>
</svg>
