<svg width="512" height="410" viewBox="0 0 512 410" fill="none" xmlns="http://www.w3.org/2000/svg">
<path d="M108.68 1C107.824 4.12035 105.477 6.55956 102.477 7.44319C105.477 8.33604 107.824 10.7752 108.68 13.8864C109.536 10.766 111.884 8.32683 114.884 7.44319C111.884 6.55035 109.536 4.11114 108.68 1Z" fill="#F8BEBF"/>
<path d="M15.5787 303.159C14.3913 307.31 11.1421 310.559 7 311.737C11.1513 312.925 14.4005 316.174 15.5787 320.316C16.766 316.165 20.0153 312.916 24.1573 311.737C20.006 310.55 16.7568 307.301 15.5787 303.159Z" fill="#F8BEBF"/>
<path opacity="0.5" d="M329.297 255.571L245.453 279.558L329.297 303.517L302.402 351.915L350.799 325.029L374.786 408.882L398.746 325.029L447.143 351.915L420.285 303.517L504.111 279.558L420.285 255.571L447.143 207.173L398.746 234.06L374.786 150.234L350.799 234.06L302.402 207.173L329.297 255.571Z" fill="url(#paint0_linear_424_1510)"/>
<path opacity="0.5" d="M89.5121 353.664L98.6707 351.041L89.5121 348.427L92.4484 343.143L87.165 346.079L84.5417 336.921L81.9276 346.079L76.6442 343.143L79.5804 348.427L70.4219 351.041L79.5804 353.664L76.6442 358.947L81.9276 356.011L84.5417 365.17L87.165 356.011L92.4484 358.947L89.5121 353.664Z" fill="white"/>
<path d="M51.574 98.3757L48.739 87.2842L45.904 98.3757L34.8125 101.211L45.904 104.055L48.739 115.146L51.574 104.055L62.6655 101.211L51.574 98.3757Z" fill="white"/>
<path d="M333.88 375.801C333.079 378.728 330.879 381.02 328.062 381.848C330.879 382.686 333.079 384.978 333.88 387.896C334.681 384.969 336.88 382.677 339.697 381.848C336.88 381.011 334.681 378.719 333.88 375.801Z" fill="#F8BEBF"/>
<path d="M382.989 7.44385C381.636 12.1842 377.926 15.8936 373.195 17.2375C377.936 18.5906 381.645 22.3 382.989 27.0312C384.342 22.2908 388.051 18.5814 392.783 17.2375C388.042 15.8844 384.333 12.175 382.989 7.44385Z" fill="#F8BEBF"/>
<path opacity="0.5" d="M370.578 149.921C403.162 149.921 429.57 123.513 429.57 90.9286C429.57 58.3444 403.162 31.9365 370.578 31.9365C337.994 31.9365 311.586 58.3444 311.586 90.9286C311.586 123.513 337.994 149.921 370.578 149.921Z" stroke="white" stroke-miterlimit="10" stroke-linecap="round" stroke-dasharray="2.49 2.49"/>
<path opacity="0.5" d="M31.2595 228.528C31.2595 228.528 30.5231 182.615 59.8305 166.213C89.147 149.819 107.068 178.574 99.5574 189.141C92.0464 199.708 81.8754 194.544 81.8754 194.544C81.8754 194.544 62.4446 183.066 79.0956 153.032C95.7467 122.997 137.839 141.176 137.839 141.176" stroke="white" stroke-miterlimit="10" stroke-linecap="round" stroke-dasharray="2.52 2.52"/>
<path d="M39.8495 233.02L41.3222 235.993L42.5925 238.552L45.4367 238.966L48.7411 239.444L46.3479 241.755L44.2861 243.752L44.7647 246.569L45.3354 249.836L42.3808 248.299L39.8311 246.965L37.2814 248.299L34.3268 249.836L34.8974 246.569L35.3761 243.752L33.3143 241.755L30.9211 239.444L34.2255 238.966L37.0697 238.552L38.34 235.993L39.8127 233.02M39.8127 220.741L33.4247 233.581L19.1484 235.643L29.4852 245.639L27.046 259.759L39.8127 253.095L52.5794 259.759L50.1402 245.639L60.4769 235.643L46.2006 233.581L39.8127 220.741Z" fill="#FFEBEE"/>
<path d="M260.823 27.2145L258.678 18.8291L256.534 27.2145L248.148 29.3591L256.534 31.513L258.678 39.8983L260.823 31.513L269.208 29.3591L260.823 27.2145Z" fill="#FEFEFE"/>
<path d="M291.854 320.122L289.71 311.737L287.565 320.122L279.18 322.267L287.565 324.421L289.71 332.806L291.854 324.421L300.24 322.267L291.854 320.122Z" fill="#FEFEFE"/>
<path d="M446.984 127.13C448.807 133.638 453.786 138.728 460.156 140.587C453.786 142.447 448.807 147.537 446.984 154.045C445.162 147.537 440.182 142.447 433.812 140.587C440.182 138.728 445.162 133.638 446.984 127.13Z" fill="#FEFEFE"/>
<path d="M434.106 117.972C435.101 121.571 437.807 124.388 441.268 125.419C437.807 126.45 435.091 129.266 434.106 132.865C433.112 129.266 430.406 126.45 426.945 125.419C430.406 124.388 433.122 121.571 434.106 117.972Z" fill="#FEFEFE"/>
<path d="M434.106 148.319C435.101 151.78 437.807 154.486 441.268 155.48C437.807 156.475 435.091 159.181 434.106 162.642C433.112 159.181 430.406 156.475 426.945 155.48C430.406 154.486 433.122 151.78 434.106 148.319Z" fill="#FEFEFE"/>
<path d="M178.529 97.0315C180.913 91.1682 181.825 85.1024 182.561 78.8157C183.012 74.9682 183.058 70.7709 180.886 67.5585C178.161 63.5361 172.003 62.3856 168.009 65.1469L166.692 68.4974C166.692 68.4974 162.246 82.8473 173.255 90.2386L178.548 99.8021L178.529 97.0223V97.0315Z" fill="#92684B"/>
<path d="M174.088 89.8981C172.606 91.5181 166.421 91.0763 164.893 89.6956C161.984 87.0539 160.097 84.0256 162.113 79.0827C162.398 79.2024 162.656 79.3036 162.895 79.3865C163.586 79.635 164.34 79.2668 164.589 78.5765L166.697 72.7684C166.973 72.0136 167.396 71.3233 167.948 70.7342C167.948 70.7342 167.967 70.7158 167.976 70.7066C168.878 69.7585 170.029 69.0774 171.299 68.746L171.989 68.5619C172.698 68.3778 173.434 68.295 174.18 68.3226L174.935 68.3502C175.671 68.3778 176.371 68.7 176.858 69.2522C176.978 69.3903 177.098 69.5284 177.227 69.6849C177.733 70.2924 177.328 71.2128 176.536 71.2588C159.075 72.345 172.855 79.5153 172.855 79.5153C172.855 79.5153 180.154 83.2524 174.079 89.8889L174.088 89.8981Z" fill="#92684B"/>
<path d="M182.091 75.5112C182.072 75.5757 182.054 75.6401 182.035 75.6953C181.943 75.9715 181.75 75.8058 181.75 75.8058C181.86 75.7045 181.98 75.6125 182.091 75.5112Z" fill="#91684B"/>
<path d="M140.301 381.039C141.074 383.128 143.053 384.721 145.262 385.024C147.471 385.328 149.809 384.325 151.116 382.521L150.997 382.834C152.405 375.765 154.2 363.375 155.608 356.306C146.137 353.839 144.599 353.812 137.898 353.913C138.718 362.805 139.482 372.147 140.301 381.03" fill="#F3A273"/>
<path d="M219.586 362.822C223.351 372.165 227.124 381.508 230.889 390.85C233.752 389.847 236.734 389.175 239.744 388.825C237.627 378.608 236.716 368.133 237.047 357.695C230.935 359.159 225.495 360.678 219.586 362.813" fill="#F3A273"/>
<path d="M267.108 394.026C267.108 394.026 267.126 394.082 267.135 394.118C267.237 394.533 266.961 394.956 266.546 395.057C252.647 398.417 237.966 398.518 224.021 395.343C223.92 395.637 223.837 395.941 223.791 396.245C223.653 397.239 223.938 398.362 224.748 398.96C225.356 399.402 226.129 399.485 226.875 399.549C240.599 400.829 254.801 402.053 267.844 397.607C268.516 396.466 268.056 395.002 267.117 394.026H267.108Z" fill="#798184"/>
<path d="M226.16 378.867C229.639 380.008 233.303 379.446 236.165 377.173C237.537 376.078 238.872 374.577 240.62 374.642C242.756 374.715 243.98 377.007 245.416 378.59C249.199 382.76 255.808 382.539 260.732 385.273C264.083 387.132 266.568 390.455 267.452 394.174C267.553 394.588 267.277 395.011 266.863 395.113C252.863 398.5 238.071 398.583 224.034 395.333C223.951 390.934 224.384 386.359 224.586 381.959C224.641 380.698 224.807 378.517 226.031 378.839L226.16 378.867Z" fill="#ABB8C1"/>
<path d="M224.72 387.767C228.218 389.516 230.675 392.728 231.752 396.456C231.918 397.027 232.801 396.778 232.636 396.208C231.504 392.268 228.88 388.826 225.18 386.966C224.655 386.699 224.186 387.5 224.72 387.758V387.767Z" fill="#798184"/>
<path d="M260.391 385.485C256.949 388.108 255.495 392.582 256.664 396.751L257.547 396.503C257.483 396.291 257.428 396.079 257.363 395.877C257.198 395.306 256.314 395.545 256.48 396.125C256.544 396.337 256.599 396.549 256.664 396.751C256.829 397.322 257.713 397.083 257.547 396.503C256.507 392.766 257.741 388.651 260.852 386.276C261.312 385.917 260.852 385.126 260.391 385.485Z" fill="#798184"/>
<path d="M249.655 389.525C249.922 387.068 251.441 384.776 253.678 383.68C254.212 383.423 253.742 382.622 253.218 382.889C250.677 384.131 249.048 386.764 248.744 389.525C248.717 389.774 248.974 389.985 249.204 389.985C249.471 389.985 249.637 389.774 249.665 389.525H249.655Z" fill="#798184"/>
<path d="M245.522 385.255C246.019 383.837 247.022 382.613 248.366 381.922C248.587 381.812 248.651 381.499 248.532 381.297C248.403 381.076 248.127 381.02 247.906 381.131C246.35 381.932 245.209 383.377 244.638 385.015C244.555 385.245 244.73 385.521 244.96 385.586C245.218 385.66 245.448 385.503 245.531 385.264L245.522 385.255Z" fill="#798184"/>
<path d="M242.807 381.251C242.982 381.03 243.166 380.827 243.368 380.634C243.469 380.533 243.571 380.441 243.681 380.348C243.736 380.302 243.782 380.266 243.838 380.22C243.874 380.192 243.801 380.247 243.865 380.201C243.893 380.183 243.92 380.155 243.957 380.137C244.178 379.98 244.408 379.833 244.648 379.704C244.767 379.64 244.878 379.585 244.997 379.529C244.997 379.529 245.108 379.483 245.062 379.502C245.016 379.52 245.126 379.474 245.126 379.474C245.191 379.446 245.264 379.419 245.329 379.4C245.559 379.318 245.734 379.087 245.651 378.83C245.577 378.609 245.329 378.425 245.08 378.508C243.93 378.922 242.908 379.649 242.144 380.597C241.997 380.781 241.951 381.066 242.144 381.251C242.31 381.407 242.632 381.453 242.797 381.251H242.807Z" fill="#798184"/>
<path d="M179.204 396.051C179.204 396.051 179.213 396.106 179.223 396.143C179.287 396.566 178.974 396.962 178.541 397.027C164.394 399.098 149.768 397.837 136.173 393.4C136.044 393.685 135.933 393.971 135.86 394.274C135.63 395.259 135.805 396.401 136.569 397.063C137.13 397.551 137.903 397.708 138.63 397.846C152.17 400.386 166.207 402.917 179.6 399.677C180.373 398.6 180.051 397.1 179.204 396.051Z" fill="#798184"/>
<path d="M139.818 377.181C143.178 378.636 146.878 378.424 149.934 376.408C151.398 375.451 152.87 374.07 154.601 374.291C156.727 374.567 157.721 376.96 159.01 378.673C162.397 383.174 168.997 383.56 173.645 386.736C176.802 388.899 178.984 392.433 179.518 396.226C179.582 396.649 179.269 397.045 178.836 397.109C164.579 399.189 149.842 397.91 136.164 393.391C136.495 389 137.342 384.481 137.95 380.127C138.125 378.875 138.484 376.721 139.671 377.154L139.8 377.191L139.818 377.181Z" fill="#ABB8C1"/>
<path d="M137.61 385.935C140.933 387.997 143.059 391.439 143.786 395.25C143.897 395.83 144.781 395.582 144.67 395.002C143.897 390.961 141.587 387.325 138.07 385.134C137.564 384.821 137.104 385.613 137.61 385.926V385.935Z" fill="#798184"/>
<path d="M173.259 386.947C169.577 389.248 167.773 393.602 168.555 397.845L169.439 397.597C169.402 397.385 169.356 397.164 169.319 396.952C169.209 396.373 168.325 396.621 168.435 397.201C168.472 397.413 168.518 397.634 168.555 397.845C168.665 398.425 169.549 398.177 169.439 397.597C168.739 393.768 170.414 389.81 173.719 387.739C174.216 387.426 173.756 386.625 173.259 386.947Z" fill="#798184"/>
<path d="M162.224 390.031C162.712 387.629 164.378 385.41 166.707 384.527C166.937 384.435 167.103 384.214 167.029 383.956C166.964 383.735 166.698 383.542 166.458 383.634C163.826 384.628 161.893 387.04 161.331 389.782C161.212 390.362 162.104 390.611 162.215 390.031H162.224Z" fill="#798184"/>
<path d="M158.471 385.391C158.803 384.664 159.226 384.038 159.778 383.495C160.054 383.219 160.312 383.007 160.616 382.805C160.772 382.704 160.929 382.602 161.095 382.52C161.187 382.473 161.269 382.427 161.361 382.381C161.407 382.363 161.453 382.335 161.499 382.317C161.573 382.28 161.49 382.317 161.573 382.289C161.803 382.197 161.969 381.986 161.895 381.719C161.831 381.498 161.564 381.304 161.325 381.397C159.705 382.05 158.398 383.33 157.67 384.922C157.569 385.152 157.606 385.419 157.836 385.548C158.029 385.667 158.361 385.612 158.462 385.382L158.471 385.391Z" fill="#798184"/>
<path d="M156.214 381.066C156.969 380.293 157.871 379.74 158.911 379.473C159.142 379.409 159.307 379.142 159.234 378.903C159.16 378.663 158.921 378.516 158.663 378.581C157.485 378.884 156.408 379.538 155.561 380.412C155.395 380.587 155.377 380.891 155.561 381.066C155.745 381.241 156.03 381.25 156.214 381.066Z" fill="#798184"/>
<path d="M247.81 364.608C247.764 365.179 247.617 365.713 247.258 365.906C234.105 372.846 216.377 367.839 212.989 366.781C212.64 366.67 212.363 366.274 212.271 365.768C211.765 363.034 210.2 356.711 210.2 356.711C200.517 312.593 188.294 234.336 182.044 244.885C177.892 250.555 171.053 309.427 165.448 353.637C165.448 353.637 164.988 357.696 163.975 366.992C163.92 367.471 163.625 367.876 163.266 367.996C152.202 371.558 139.951 371.254 129.035 366.974C128.666 366.827 128.418 366.403 128.363 365.897C127.884 361.589 133.996 298.584 133.996 298.584C137.411 248.097 138.524 225.408 146.422 199.479H217.297C226.502 222.692 243.604 324.826 247.571 358.405C247.571 358.405 248.004 361.985 247.801 364.608H247.81Z" fill="#CBDBE8"/>
<mask id="mask0_424_1510" style="mask-type:luminance" maskUnits="userSpaceOnUse" x="128" y="199" width="120" height="172">
<path d="M247.818 364.608C247.772 365.179 247.625 365.713 247.266 365.906C234.112 372.846 216.384 367.839 212.997 366.781C212.647 366.67 212.371 366.274 212.279 365.768C211.773 363.034 210.208 356.711 210.208 356.711C200.525 312.593 188.301 234.336 182.051 244.885C177.9 250.555 171.061 309.427 165.456 353.637C165.456 353.637 164.995 357.696 163.983 366.992C163.928 367.471 163.633 367.876 163.274 367.996C152.21 371.558 139.959 371.254 129.042 366.974C128.674 366.827 128.426 366.403 128.37 365.897C127.892 361.589 134.004 298.584 134.004 298.584C137.419 248.097 138.532 225.408 146.43 199.479H217.305C226.51 222.692 243.612 324.826 247.579 358.405C247.579 358.405 248.011 361.985 247.809 364.608H247.818Z" fill="white"/>
</mask>
<g mask="url(#mask0_424_1510)">
<path d="M142.858 228.141C142.039 236.95 141.248 245.768 140.493 254.577C139.738 263.386 138.983 272.673 138.293 281.721C137.593 290.889 136.94 300.066 136.351 309.243C135.762 318.42 135.246 327.367 134.804 336.442C134.362 345.518 134.022 353.885 133.764 362.602C133.737 363.669 133.7 364.737 133.672 365.805C133.654 366.394 134.574 366.394 134.593 365.805C134.823 357.088 135.154 348.381 135.559 339.673C135.964 330.966 136.48 321.678 137.05 312.685C137.621 303.692 138.265 294.341 138.946 285.173C139.628 276.06 140.364 266.948 141.128 257.835C141.873 249.017 142.656 240.199 143.466 231.391C143.567 230.305 143.668 229.218 143.77 228.132C143.825 227.543 142.904 227.543 142.849 228.132L142.858 228.141Z" fill="white"/>
<path d="M221.817 225.794C223.677 234.437 225.407 243.108 227.046 251.788C228.749 260.818 230.341 269.866 231.85 278.932C233.36 287.999 234.814 297.323 236.158 306.537C237.502 315.751 238.754 324.872 239.923 334.058C241.092 343.245 242.104 351.796 243.062 360.687C243.172 361.737 243.292 362.795 243.402 363.844C243.467 364.424 244.387 364.434 244.323 363.844C243.393 355.008 242.371 346.19 241.267 337.372C240.162 328.554 238.901 319.147 237.594 310.053C236.287 300.959 234.842 291.543 233.332 282.31C231.823 273.078 230.258 264.049 228.574 254.945C226.889 245.842 225.232 237.466 223.391 228.767C223.161 227.691 222.931 226.623 222.701 225.546C222.572 224.966 221.689 225.215 221.817 225.794Z" fill="white"/>
</g>
<path d="M216.767 80.4546L214.558 75.9904C214.125 75.1711 213.987 74.2231 214.236 73.3302C217.006 63.2236 214.641 51.0184 207.194 43.8388C204.902 42.9 198.441 42.4765 194.658 44.3543C190.865 46.2228 187.773 49.3155 185.453 52.8409C181.329 59.146 179.709 67.0435 180.832 74.49C179.185 72.1705 175.669 71.4525 173.147 72.778C170.625 74.1034 169.253 77.2238 169.824 80.0127C170.385 82.8109 172.824 85.1029 175.595 85.7564C175.899 95.1634 175.65 105.611 174.849 114.99C173.552 115.487 171.978 116.095 171.002 117.098C170.026 118.092 169.529 119.694 170.219 120.909C170.652 121.682 171.471 122.151 172.254 122.529C174.352 123.523 176.617 124.103 178.927 124.277C179.755 124.342 180.584 124.397 181.421 124.443C182.609 124.526 183.815 124.59 185.02 124.609C189.31 124.701 193.617 124.388 197.658 122.998C198.883 122.575 200.18 121.958 200.751 120.789C201.451 119.335 200.705 117.494 199.426 116.5C198.146 115.506 196.213 115.147 194.593 114.99C194.538 110.139 194.474 104.976 194.409 100.116C196.683 101.303 199.057 102.306 201.487 103.07C203.19 103.604 205.077 103.742 206.688 102.969C208.299 102.196 209.164 100.438 209.818 98.7716C211.751 93.8472 213.012 88.7847 213.361 83.5197C213.389 83.1975 213.564 82.903 213.84 82.7281L216.454 81.4118C216.804 81.2369 216.942 80.8043 216.767 80.4546ZM184.514 93.3962L194.409 100.106C190.856 98.2654 187.524 95.9643 184.514 93.3962Z" fill="#F3A273"/>
<path d="M194.411 100.106C190.858 98.2647 187.526 95.9636 184.516 93.3955L194.411 100.106Z" fill="#F3A273"/>
<path d="M138.979 199.967C130.299 196.055 124.869 189.464 124.869 189.464C124.869 189.464 122.144 186.243 121.316 177.084C120.496 167.999 122.954 159.697 122.954 159.697C123.884 155.463 125.255 151.45 126.719 147.887C131.192 137.054 138.915 127.775 148.966 121.746C150.025 121.111 151.111 120.513 152.225 119.952C158.879 116.574 165.046 114.99 174.849 114.99C173.551 115.487 171.978 116.095 171.002 117.098C170.026 118.092 169.529 119.694 170.219 120.909C170.652 121.682 171.471 122.151 172.254 122.529C174.352 123.523 176.617 124.103 178.927 124.278C179.755 124.342 180.584 124.397 181.421 124.443C182.609 124.526 183.815 124.591 185.02 124.609C189.31 124.701 193.617 124.388 197.658 122.998C198.882 122.575 200.18 121.958 200.751 120.789C201.451 119.335 200.705 117.494 199.426 116.5C198.146 115.506 196.213 115.147 194.593 114.99H201.156L250.667 117.172C250.667 117.172 258.187 118.019 262.247 113.877C266.315 109.735 297.537 81.7158 297.537 81.7158L312.108 93.424C312.108 93.424 291.259 119.648 267.484 143.423C267.484 143.423 262.56 148.55 256.521 149.213C250.492 149.876 235.406 152.434 220.78 152.738C220.78 152.738 224.37 180.444 227.131 217.768C227.26 219.517 226.008 221.054 224.278 221.294C213.821 222.739 177.896 226.853 135.187 222.352C133.447 222.168 132.149 220.659 132.232 218.91C132.545 212.016 133.502 194.886 135.896 180.646" fill="#B61936"/>
<mask id="mask1_424_1510" style="mask-type:luminance" maskUnits="userSpaceOnUse" x="121" y="81" width="192" height="144">
<path d="M138.987 199.967C130.307 196.055 124.876 189.465 124.876 189.465C124.876 189.465 122.152 186.243 121.323 177.085C120.504 168 122.962 159.697 122.962 159.697C123.892 155.463 125.263 151.45 126.727 147.888C131.2 137.054 138.923 127.776 148.974 121.747C150.032 121.112 151.119 120.514 152.232 119.952C158.887 116.574 165.054 114.991 174.857 114.991C173.559 115.488 171.985 116.095 171.01 117.099C170.034 118.093 169.537 119.694 170.227 120.909C170.66 121.683 171.479 122.152 172.261 122.529C174.36 123.523 176.624 124.103 178.935 124.278C179.763 124.343 180.592 124.398 181.429 124.444C182.617 124.527 183.822 124.591 185.028 124.61C189.318 124.702 193.625 124.389 197.666 122.999C198.89 122.575 200.188 121.959 200.759 120.79C201.458 119.335 200.713 117.494 199.433 116.5C198.154 115.506 196.221 115.147 194.601 114.991H201.164L250.675 117.172C250.675 117.172 258.195 118.019 262.254 113.877C266.323 109.735 297.545 81.7163 297.545 81.7163L312.116 93.4245C312.116 93.4245 291.267 119.648 267.492 143.424C267.492 143.424 262.567 148.551 256.529 149.213C250.5 149.876 235.414 152.435 220.788 152.739C220.788 152.739 224.378 180.444 227.139 217.769C227.268 219.518 226.016 221.055 224.286 221.294C213.829 222.739 177.904 226.854 135.195 222.353C133.455 222.169 132.157 220.659 132.24 218.91C132.553 212.016 133.51 194.886 135.903 180.647" fill="white"/>
</mask>
<g mask="url(#mask1_424_1510)">
<path d="M258.723 113.757C256.183 116.997 252.694 119.381 248.745 120.531C248.175 120.697 248.423 121.59 248.994 121.415C253.081 120.218 256.753 117.751 259.386 114.401C259.745 113.941 259.1 113.287 258.732 113.747L258.723 113.757Z" fill="#DB546A"/>
<path d="M260.134 112.533C259.223 115.69 257.612 118.608 255.412 121.047C255.016 121.489 255.67 122.142 256.065 121.701C258.376 119.142 260.069 116.086 261.027 112.772C261.192 112.201 260.299 111.962 260.143 112.524L260.134 112.533Z" fill="#DB546A"/>
</g>
<path d="M209.22 65.5888C209.506 65.9569 209.248 66.7025 209.009 67.2088C208.714 67.8439 207.812 67.8071 207.122 67.715C204.71 67.3929 202.216 67.669 199.933 68.4974C199.74 68.571 199.592 68.3317 199.74 68.1845C202.078 65.8649 205.575 64.7604 208.815 65.3587L209.22 65.5888Z" fill="#724B3B"/>
<path d="M179.163 75.0785C177.81 73.569 175.315 73.5782 173.686 74.6091C171.965 75.7045 171.219 77.886 171.808 79.8189C171.891 80.1042 172.342 79.9846 172.25 79.6992C171.726 77.9688 172.37 75.999 173.916 75.0049C175.371 74.0753 177.617 74.0384 178.832 75.4007C179.025 75.6216 179.356 75.2995 179.154 75.0785H179.163Z" fill="#2E3234"/>
<path d="M210.314 75.0518C208.483 76.138 206.273 76.5706 204.175 76.2484C202.076 75.9263 200.097 74.8493 198.68 73.2661C200.401 71.8118 203.015 71.0294 205.233 71.4344C207.452 71.8394 209.219 73.1005 210.323 75.061L210.314 75.0518Z" fill="white"/>
<path d="M210.193 74.8492C206.456 77.0122 201.734 76.2759 198.835 73.0911V73.4133C200.547 72.005 202.959 71.2502 205.158 71.6368C207.358 72.0234 209.034 73.2936 210.11 75.1529C210.258 75.4106 210.654 75.1805 210.506 74.9228C209.346 72.9162 207.423 71.5263 205.112 71.1673C202.802 70.8084 200.308 71.6 198.503 73.0911C198.402 73.1739 198.43 73.3304 198.503 73.4133C201.541 76.7453 206.521 77.5001 210.423 75.2358C210.681 75.0885 210.451 74.6927 210.193 74.84V74.8492Z" fill="#2E3234"/>
<path d="M210.313 75.0422C209.402 73.4314 208.049 72.2992 206.364 71.7285L206.236 71.793C205.416 72.1611 204.809 72.9711 204.698 73.864C204.588 74.7568 204.974 75.6957 205.674 76.248L205.72 76.3308C207.331 76.3032 208.923 75.8614 210.304 75.033L210.313 75.0422Z" fill="#2E3234"/>
<path d="M210.504 74.9224C209.722 73.5509 208.553 72.4188 207.098 71.7653C206.923 71.6916 206.758 71.618 206.574 71.5536C206.39 71.4891 206.316 71.4799 206.15 71.5628C205.819 71.7192 205.524 71.9125 205.267 72.1795C204.742 72.7225 204.42 73.4681 204.438 74.2321C204.447 74.6647 204.567 75.0973 204.76 75.4839C204.862 75.6772 204.981 75.8521 205.119 76.027C205.239 76.165 205.432 76.2939 205.524 76.4504C205.561 76.5148 205.644 76.57 205.727 76.5608C207.384 76.524 209.004 76.073 210.43 75.2354C210.688 75.0881 210.458 74.6831 210.2 74.8396C208.838 75.6404 207.301 76.0638 205.727 76.1006L205.929 76.2111C205.847 76.0638 205.708 75.9718 205.598 75.8521C205.423 75.6772 205.285 75.4655 205.175 75.2446C204.954 74.812 204.871 74.3057 204.935 73.8271C205 73.3853 205.202 72.9527 205.497 72.6121C205.791 72.2715 206.113 72.0874 206.491 71.9033L206.316 71.9309C207.954 72.5016 209.271 73.643 210.127 75.1433C210.274 75.4011 210.67 75.171 210.522 74.9132L210.504 74.9224Z" fill="#2E3234"/>
<path d="M202.352 88.5909C203.926 90.9841 207.047 91.7941 209.596 90.4778C209.863 90.3398 209.624 89.944 209.366 90.082C207.047 91.2786 204.184 90.5331 202.748 88.3608C202.582 88.1123 202.187 88.3424 202.352 88.5909Z" fill="#2E3234"/>
<path opacity="0.46" d="M194.476 105.132L194.421 100.106C194.421 100.106 190.186 98.1821 184.562 93.4233L194.476 105.132Z" fill="#7F4924"/>
<path d="M214.541 60.6555C213.501 60.7751 208.282 60.453 204.278 57.2682C203.8 56.8908 203.1 57.0565 202.861 57.618C202.198 59.2011 200.946 60.7383 198.663 61.5759C196.777 62.2663 194.844 62.2939 192.984 61.9165C192.542 61.8245 192.091 62.0822 191.953 62.5148C190.775 66.169 187.968 70.5964 182.095 75.5024C181.985 75.6129 181.865 75.7049 181.755 75.797C181.027 73.4498 178.607 71.1671 178.607 71.1671C178.542 71.1671 178.478 71.1671 178.423 71.1763C177.447 69.8969 176.508 68.7647 175.993 68.3965L176.094 68.2861L169.78 69.1881C169.586 69.2157 169.411 69.2986 169.273 69.4366C168.518 70.1454 167.837 70.8541 167.239 71.5169C167.156 71.6089 167.092 71.7102 167.055 71.8206L164.468 78.9542C164.303 79.4144 163.797 79.6721 163.327 79.5156C162.996 79.4144 162.591 79.2671 162.121 79.0646C159.286 77.8864 154.399 74.8673 153.294 67.8442C152.401 62.165 155.163 57.4339 158.762 54.7922C159.157 54.5068 159.231 53.9546 158.955 53.5496C158.504 52.8868 158.127 52.1873 157.933 51.5522C156.856 48.2109 158.347 41.7217 164.248 40.0741C164.91 39.89 165.545 39.8348 166.134 39.844C166.724 39.8532 167.129 39.3653 167.055 38.8039C166.779 36.742 167.773 34.2476 170.774 32.8761C173.158 31.7808 175.275 32.8945 176.416 33.7597C176.904 34.1279 177.594 33.9346 177.824 33.3732C178.45 31.8452 179.15 30.1332 181.101 28.7801C184.976 26.0923 190.996 24.9602 195.488 30.4829C195.718 30.7683 196.077 30.8879 196.427 30.8051C197.163 30.6394 197.964 30.5382 198.838 30.5197C203.671 30.4369 205.963 32.8577 207.04 35.0668C207.251 35.4994 207.739 35.7019 208.181 35.5362C209.672 34.984 211.384 34.7354 213.262 35.1312C217.975 36.1161 219.318 42.4765 218.426 46.2043C218.343 46.5449 218.444 46.8854 218.693 47.134C219.521 47.944 220.239 49.0117 220.754 50.4476C223.589 58.1979 215.848 60.499 214.541 60.6555Z" fill="#92684B"/>
<path d="M181.754 75.7964L181.745 75.8056C181.745 75.8056 180.033 73.2928 178.422 71.1757C178.477 71.1665 178.542 71.1665 178.606 71.1665C178.606 71.1665 181.027 73.4492 181.754 75.7964Z" fill="#91684B"/>
<path d="M167.192 55.0678C167.192 55.0678 165.176 55.6385 163.289 54.4787C164.651 54.3774 165.995 54.5707 167.192 55.0678Z" fill="#91684B"/>
<path d="M222.289 182.753C222.464 182.772 222.639 182.772 222.805 182.763L222.289 182.753Z" fill="#F3A273"/>
<path d="M233.797 191.038C236.328 190.044 238.546 188.663 238.546 188.663C238.694 188.626 238.832 188.598 238.951 188.571" fill="#F3A273"/>
<path d="M238.952 188.571C241.087 186.924 240.296 185.736 239.845 185.368C239.541 185.119 238.455 185.018 237.01 185.368C240.084 184.254 240.056 182.634 239.117 181.972C238.85 181.778 238.188 181.732 237.194 181.972C240.553 180.572 243.177 178.649 243.6 177.848C244.373 176.384 243.379 175.39 241.695 176.007C240.526 176.43 231.008 179.836 225.265 181.889C224.547 182.321 223.645 182.358 222.807 182.763C223.488 182.524 224.353 182.441 225.292 182.1C225.605 181.907 225.872 181.484 226.121 181.309C227.041 180.618 231.192 177.682 232.03 176.707C232.877 175.74 233.76 174.442 232.914 173.835C232.067 173.218 231.413 173.641 228.118 175.326C224.823 177.01 222.503 177.553 222.503 177.553C222.503 177.553 218.453 177.47 217.229 178.317C216.345 178.925 213.105 182.027 211.366 183.72C210.399 184.659 209.203 185.34 207.886 185.617C203.21 186.601 196.132 185.69 196.132 185.69L193.141 200.491C193.141 200.491 207.316 198.88 211.927 197.555C212.663 197.343 213.427 197.242 214.201 197.306C216.796 197.509 222.181 198.549 227.63 197.96C230.852 197.61 232.591 196.082 235.684 194.388C235.684 194.388 238.363 192.529 239.716 191.222C240.682 190.292 240.655 189.814 240.526 189.436C240.526 189.436 240.397 188.847 239.964 188.682C239.43 188.479 238.574 188.571 236.752 189.446" fill="#F3A273"/>
<path d="M237.188 181.971C234.473 183.113 231.583 184.171 229.797 184.677L237.188 181.971Z" fill="#F3A273"/>
<path d="M222.81 182.763C221.632 183.186 220.914 183.444 220.914 183.444L222.81 182.763Z" fill="#F3A273"/>
<path d="M237.01 185.368C235.85 185.976 234.157 186.574 231.727 187.062L237.01 185.368Z" fill="#F3A273"/>
<path d="M234.172 182.22C234.31 182.128 235.856 181.971 237.191 181.971L234.172 182.22Z" fill="#F3A273"/>
<path d="M238.955 188.571C237.878 189.565 236.129 190.752 233.414 192.115L238.955 188.571Z" fill="#F3A273"/>
<path d="M237.017 185.368C234.292 185.617 230.656 186.16 230.5 186.206L237.017 185.368Z" fill="#F3A273"/>
<path d="M230.529 193.781C228.707 190.891 227.685 187.559 227.593 184.134C227.593 183.84 227.124 183.84 227.133 184.134C227.234 187.632 228.265 191.047 230.134 194.011C230.29 194.26 230.686 194.029 230.529 193.781Z" fill="#8E5C49"/>
<path d="M238.403 188.608C238.09 188.774 237.814 188.985 237.491 189.133C236.718 189.492 235.807 189.712 234.96 189.924C234.675 189.998 234.795 190.44 235.08 190.366C236.157 190.09 237.307 189.832 238.255 189.225C238.375 189.142 238.504 189.068 238.633 189.004C238.891 188.866 238.66 188.47 238.403 188.608Z" fill="#8E5C49"/>
<path d="M236.735 185.313C235.492 185.828 234.213 186.251 232.878 186.463C232.584 186.509 232.713 186.951 232.998 186.905C234.333 186.693 235.612 186.27 236.855 185.754C237.122 185.644 237.002 185.202 236.735 185.313Z" fill="#8E5C49"/>
<path d="M225.196 181.778C224.827 181.98 224.45 182.165 224.054 182.293C223.622 182.422 223.18 182.487 222.738 182.542C222.618 182.551 222.508 182.634 222.508 182.772C222.508 182.883 222.609 183.011 222.738 183.002C223.226 182.947 223.714 182.883 224.174 182.744C224.616 182.606 225.03 182.404 225.426 182.183C225.683 182.036 225.453 181.64 225.196 181.787V181.778Z" fill="#8E5C49"/>
<path d="M230.998 184.098C233.06 183.684 235.122 183.168 237.045 182.294C237.312 182.174 237.082 181.779 236.815 181.898C234.928 182.745 232.903 183.251 230.878 183.656C230.584 183.712 230.713 184.153 230.998 184.098Z" fill="#8E5C49"/>
<path d="M138.972 199.966C138.972 199.966 165.518 208.913 195.663 204.081C195.663 204.081 198.728 196.717 199.649 184.677V183.582L197.421 183.444C176.094 181.299 168.767 180.637 160.143 177.305C151.73 174.055 152.779 168.634 153.856 162.577C154.933 156.521 159.222 148.54 159.222 148.54C159.222 148.54 137.766 137.292 129.178 158.15C120.591 179.017 138.162 199.699 138.963 199.957L138.972 199.966Z" fill="#B61936"/>
<path d="M179.113 36.1616C178.119 32.13 174.06 29.3134 169.945 30.5192C168.031 31.0807 166.475 32.4429 165.757 34.3115C165.039 36.18 165.186 38.3338 166.346 39.9446C167.755 41.9052 170.387 42.8533 172.697 42.0985C173.259 41.9144 173.02 41.0216 172.449 41.2149C170.654 41.804 168.657 41.2057 167.405 39.8066C166.245 38.5179 165.996 36.6494 166.484 35.0294C167.534 31.5409 171.805 30.2062 174.879 31.9183C176.582 32.8663 177.769 34.5324 178.229 36.4193C178.367 36.99 179.26 36.7507 179.113 36.1708V36.1616Z" fill="#724B3B"/>
<path d="M167.954 40.3867C163.849 37.5794 157.664 38.8404 155.234 43.2586C154.046 45.4124 153.779 48.0725 154.497 50.4289C155.215 52.7853 156.89 54.6262 159.1 55.6295C161.612 56.7709 164.558 56.7985 167.034 55.5374C167.559 55.2705 167.098 54.4697 166.574 54.7459C162.643 56.7524 157.259 54.9668 155.602 50.7879C154.81 48.7813 154.847 46.471 155.666 44.4828C156.485 42.4946 158.244 40.893 160.351 40.2211C162.745 39.4571 165.405 39.77 167.494 41.1875C167.982 41.5189 168.442 40.7273 167.954 40.3959V40.3867Z" fill="#724B3B"/>
<path d="M161.756 55.4456C159.879 55.1143 157.872 54.875 156.022 55.4733C154.172 56.0716 152.662 57.5535 151.852 59.3208C150.987 61.1893 150.867 63.38 151.889 65.2117C152.782 66.8041 154.494 68.0099 156.363 67.927C158.121 67.8442 159.869 66.712 160.403 64.9816C160.937 63.2511 160.026 61.1157 158.185 60.5818C156.344 60.0479 154.439 61.1249 153.233 62.4043C151.788 63.9415 150.923 66.0217 150.646 68.1019C150.039 72.7778 152.782 77.2697 157.09 79.0738C157.633 79.3039 157.872 78.411 157.338 78.1901C154.218 76.8831 151.889 73.8548 151.53 70.4767C151.171 67.0986 152.616 62.9382 155.921 61.6495C157.495 61.0328 159.262 61.6035 159.593 63.4076C159.897 65.0184 158.7 66.4175 157.219 66.8593C155.626 67.3287 154.015 66.6108 153.049 65.3222C151.972 63.8954 151.843 62.0453 152.414 60.3793C153.021 58.6028 154.402 56.992 156.206 56.3845C157.918 55.8046 159.777 56.0255 161.517 56.3293C162.097 56.4305 162.345 55.5469 161.766 55.4456H161.756Z" fill="#724B3B"/>
<path d="M206.285 38.2052C207.04 37.5148 207.776 36.7785 208.623 36.2078C209.47 35.6371 210.27 35.4254 211.246 35.3702C213.059 35.2689 214.827 35.7476 216.373 36.7048C219.401 38.5826 221.408 42.1907 220.055 45.7253C219.843 46.2776 220.736 46.5169 220.939 45.9738C222.034 43.0928 221.077 39.8252 218.996 37.6529C216.769 35.3333 213.575 34.0907 210.372 34.5509C208.42 34.8271 207.021 36.2998 205.631 37.5608C205.19 37.9566 205.843 38.6102 206.285 38.2144V38.2052Z" fill="#724B3B"/>
<path d="M204.856 55.3905C206.467 57.931 208.961 59.9283 211.879 60.7383C214.797 61.5483 217.807 61.0421 220.237 59.4129C222.667 57.7837 224.158 55.1696 224.195 52.2425C224.232 49.4904 222.934 46.729 220.504 45.3207C217.881 43.802 214.411 43.94 212.063 45.9006C211.612 46.278 212.266 46.9315 212.717 46.5541C214.576 44.9986 217.328 44.8329 219.492 45.827C221.811 46.8947 223.155 49.2419 223.275 51.7455C223.394 54.2491 222.225 56.8172 220.127 58.3728C218.028 59.9284 215.395 60.5082 212.892 60.0204C209.882 59.4405 207.277 57.4891 205.648 54.9211C205.335 54.424 204.534 54.8843 204.856 55.3813V55.3905Z" fill="#724B3B"/>
<path d="M206.052 38.205C207.341 37.0452 207.267 35.3516 206.834 33.8144C206.383 32.1852 205.647 30.8598 204.165 29.9669C201.431 28.3193 197.262 28.5218 194.758 30.5008C193.313 31.6421 192.355 33.3358 192.282 35.1859C192.254 35.775 193.175 35.775 193.202 35.1859C193.276 33.3634 194.39 31.7434 195.918 30.7953C197.446 29.8472 199.36 29.6724 201.091 29.8933C202.821 30.1142 204.598 30.915 205.38 32.5166C206.107 33.9985 206.816 36.2812 205.389 37.5607C204.947 37.9565 205.601 38.61 206.043 38.2142L206.052 38.205Z" fill="#724B3B"/>
<path d="M196.209 29.8659C193.954 24.3616 186.194 23.975 181.96 27.2426C177.468 30.7127 176.916 37.7818 180.828 41.8871C182.963 44.133 186.139 45.3756 189.232 45.0534C189.812 44.989 189.821 44.0685 189.232 44.133C184.16 44.6576 179.337 40.7917 179.116 35.6279C179.005 33.1703 179.852 30.6391 181.555 28.8442C183.258 27.0493 185.734 26.0644 188.201 26.0552C190.999 26.0368 194.193 27.3715 195.316 30.1144C195.537 30.6575 196.43 30.4182 196.199 29.8659H196.209Z" fill="#724B3B"/>
<path d="M148.852 231.916C152.847 231.851 157.182 231.584 160.201 228.97C161.646 227.728 162.622 226.043 163.239 224.23C156.123 224.018 148.631 223.604 140.881 222.914C140.374 225.822 139.923 228.805 139.5 231.897C142.62 231.952 145.731 231.971 148.852 231.925V231.916Z" fill="#ABB8C1"/>
<path d="M203.008 223.438C203.643 224.404 204.416 225.27 205.346 225.96C208.558 228.335 212.903 228.27 216.888 228.031C219.567 227.865 222.236 227.654 224.915 227.414C224.445 225.343 223.985 223.337 223.534 221.404C219.484 221.947 212.387 222.784 203.008 223.438Z" fill="#ABB8C1"/>
<path d="M197.567 37.5516C194.548 40.1565 193.987 44.9889 196.499 48.1369C199.012 51.2848 203.633 52.0672 206.901 49.7201C208.723 48.413 209.938 46.434 210.205 44.1973C210.279 43.6082 209.358 43.6174 209.285 44.1973C208.87 47.6674 205.603 50.4472 202.105 50.1619C198.607 49.8765 195.717 46.8574 195.818 43.2861C195.873 41.3347 196.739 39.4754 198.221 38.1959C198.672 37.8094 198.018 37.1558 197.567 37.5424V37.5516Z" fill="#724B3B"/>
<path d="M183.409 47.6212C181.356 50.5666 181.375 54.7087 183.593 57.5621C185.811 60.4155 189.373 61.5385 192.696 60.5076C194.574 59.9185 196.194 58.7219 197.299 57.0927C197.63 56.6048 196.838 56.1354 196.507 56.6324C194.786 59.1821 191.5 60.5168 188.499 59.7528C185.498 58.9888 183.105 56.3379 182.847 53.1991C182.7 51.3858 183.179 49.5909 184.219 48.0998C184.559 47.612 183.759 47.1517 183.427 47.6396L183.409 47.6212Z" fill="#724B3B"/>
<path d="M165.953 45.3206C165.695 47.4928 166.515 49.7387 168.089 51.2667C169.662 52.7947 172.083 53.4482 174.302 53.034C178.784 52.1872 181.454 46.6828 178.95 42.7249C178.324 41.74 177.385 40.8748 176.216 40.6446C174.9 40.3869 173.547 40.7459 172.332 41.2614C171.789 41.4915 172.258 42.2831 172.792 42.0529C173.713 41.6664 174.753 41.381 175.756 41.5007C176.759 41.6203 177.514 42.2462 178.057 43.0378C179.134 44.621 179.226 46.6736 178.526 48.4317C177.827 50.1898 176.336 51.5612 174.476 52.0399C172.617 52.5185 170.519 52.1411 169.037 50.8893C167.417 49.527 166.607 47.41 166.855 45.3114C166.929 44.7223 166.008 44.7315 165.935 45.3114L165.953 45.3206Z" fill="#724B3B"/>
<path d="M157.498 72.8608C158.529 76.377 162.625 78.5584 166.076 77.1133C169.528 75.6682 171.222 71.3881 169.316 68.056C168.286 66.2427 166.472 65.0001 164.41 64.7332C163.821 64.6596 163.83 65.58 164.41 65.6536C167.54 66.0679 169.906 69.3815 169.059 72.465C168.212 75.5485 164.843 77.4631 161.796 76.2665C160.185 75.6314 158.878 74.2783 158.391 72.6123C158.225 72.0416 157.332 72.2901 157.507 72.8608H157.498Z" fill="#724B3B"/>
<path d="M162.024 76.7724C159.456 79.2852 158.711 83.3537 160.395 86.5568C162.079 89.76 165.55 91.4813 169.038 90.9198C171.026 90.5976 172.886 89.5483 174.165 87.9928C174.542 87.5417 173.889 86.8882 173.511 87.3392C171.496 89.7784 168.016 90.8001 165.043 89.6036C162.07 88.407 160.183 85.4247 160.413 82.2675C160.542 80.4358 161.361 78.6961 162.669 77.4167C163.092 77.0025 162.438 76.349 162.015 76.7632L162.024 76.7724Z" fill="#724B3B"/>
<path d="M169.333 56.9638C167.63 60.931 169.351 65.9567 173.392 67.7056C177.507 69.4912 182.486 67.6687 184.207 63.4807C185.137 61.2071 185.064 58.5746 183.904 56.3932C183.628 55.8685 182.827 56.3379 183.112 56.8534C184.935 60.2959 183.609 64.935 180.084 66.7023C176.559 68.4695 172.14 67.1257 170.382 63.5911C169.434 61.695 169.287 59.3754 170.134 57.4241C170.364 56.881 169.572 56.4116 169.342 56.9638H169.333Z" fill="#724B3B"/>
<path d="M134.187 363.605C132.244 363.007 130.339 362.28 128.48 361.442C128.342 363.752 128.296 365.335 128.351 365.906C128.406 366.412 128.655 366.836 129.023 366.983C139.939 371.263 152.191 371.567 163.255 368.005C163.614 367.885 163.908 367.48 163.963 367.001C164.111 365.694 164.239 364.498 164.359 363.393C154.648 366.587 143.943 366.624 134.177 363.614" fill="#ABB8C1"/>
<path d="M243.733 362.712C233.038 365.436 221.486 364.838 211.195 360.825C211.61 362.601 212.051 364.543 212.281 365.768C212.373 366.274 212.65 366.67 212.999 366.78C216.387 367.839 234.115 372.846 247.268 365.906C247.627 365.712 247.774 365.178 247.82 364.608C247.894 363.623 247.885 362.5 247.839 361.487C246.486 361.948 245.123 362.362 243.743 362.712" fill="#ABB8C1"/>
<path d="M165.048 119.095C165.002 121.635 166.649 123.983 168.785 125.373C170.911 126.762 173.461 127.342 175.974 127.738C184.847 129.128 195.018 129.432 202.685 124.765C205.52 123.035 205.925 120.945 206.211 118.708C206.367 117.466 205.962 116.232 205.272 115.183L201.167 114.999H194.604C196.224 115.156 198.157 115.514 199.436 116.509C200.715 117.503 201.461 119.344 200.762 120.798C200.191 121.967 198.893 122.584 197.669 123.007C193.628 124.397 189.32 124.71 185.031 124.618C183.825 124.599 182.619 124.535 181.432 124.452C180.594 124.406 179.766 124.351 178.937 124.286C176.627 124.112 174.363 123.532 172.264 122.538C171.482 122.16 170.663 121.691 170.23 120.918C169.54 119.703 170.037 118.101 171.012 117.107C171.988 116.104 173.562 115.496 174.86 114.999C171.822 114.999 169.144 115.156 166.686 115.459C165.72 116.398 165.085 117.742 165.066 119.095H165.048Z" fill="#DB546A"/>
<path d="M218.341 143.837C218.958 146.644 219.574 149.452 220.2 152.25C220.329 152.83 221.213 152.581 221.084 152.001C220.467 149.194 219.85 146.387 219.225 143.588C219.096 143.008 218.212 143.257 218.341 143.837Z" fill="#DB546A"/>
<path d="M159.234 148.549C159.234 148.549 154.936 156.53 153.868 162.586C152.791 168.643 151.742 174.064 160.155 177.314C168.779 180.646 176.106 181.299 197.433 183.453L199.661 183.591V184.686C198.74 196.726 195.675 204.09 195.675 204.09C159.271 208.756 134.492 197.573 134.492 197.573" stroke="#DB546A" stroke-linecap="round" stroke-linejoin="round"/>
<path d="M199.653 184.678V183.583L197.426 183.444C196.837 183.389 196.257 183.325 195.686 183.27C195.336 187.181 194.223 195.107 190.633 204.762C192.299 204.578 193.974 204.348 195.668 204.081C195.668 204.081 198.733 196.717 199.653 184.678Z" fill="#DB546A"/>
<path d="M154.042 172.675C152.726 172.693 151.428 173.006 150.241 173.586C150.02 173.697 149.955 174.01 150.075 174.212C150.213 174.442 150.48 174.488 150.701 174.378C151.741 173.881 152.882 173.614 154.033 173.595C154.622 173.595 154.622 172.666 154.033 172.675H154.042Z" fill="#DB546A"/>
<path d="M149.683 178.207C151.506 176.808 153.586 175.814 155.823 175.299C156.402 175.17 156.154 174.277 155.574 174.415C153.273 174.949 151.091 175.97 149.214 177.416C149.011 177.572 148.91 177.811 149.048 178.041C149.158 178.235 149.481 178.354 149.674 178.207H149.683Z" fill="#DB546A"/>
<path d="M121.742 180.518C122.828 187.062 124.853 189.464 124.853 189.464C124.853 189.464 126.86 191.894 130.376 194.674C130.1 184.245 124.421 181.318 121.742 180.518Z" fill="#DB546A"/>
<path d="M370.992 53.8159C370.992 53.8159 372.75 51.257 381.034 57.24C389.318 63.2229 388.784 78.3552 388.784 78.3552L391.242 144.527C391.242 144.527 394.924 220.768 403.604 245.722H348.781V53.7698L371.001 53.8159H370.992Z" fill="#798184"/>
<path d="M365.375 49.6647C365.375 49.6647 373.051 48.7902 381.335 54.7732C389.619 60.7562 389.086 75.8885 389.086 75.8885V151.881C389.086 151.881 391.23 219.535 397.986 250.83H343.164V49.6187L365.384 49.6647H365.375Z" fill="#ABB8C1"/>
<path d="M376.183 137.725L375.63 96.2032C375.63 89.0605 373.753 88.186 366.61 88.186H294.529C287.386 88.186 281.597 93.9757 281.597 101.118V115.146C281.597 115.146 278.228 168.928 276.691 183.499C275.153 198.07 268.103 271.302 263.188 291.552H373.237C373.237 291.552 375.778 251.65 376.183 179.238V137.716V137.725Z" fill="#9CA8AF"/>
<path d="M375.906 138.13L375.353 96.6077C375.353 89.465 376.762 85.2861 369.619 85.2861H291.435C284.293 85.2861 278.503 91.0758 278.503 98.2185V112.246C278.503 112.246 275.134 166.029 273.597 180.599C272.06 195.17 265.009 268.402 260.094 288.652H370.144C370.144 288.652 375.224 251.235 375.639 178.823L375.915 138.12L375.906 138.13Z" fill="#CBDBE8"/>
<path d="M375.629 130.776V88.8304C375.629 81.6876 369.84 75.8979 362.697 75.8979H284.513C277.371 75.8979 271.581 81.6876 271.581 88.8304V102.858C271.581 102.858 268.212 156.64 266.675 171.211C265.138 185.782 258.087 259.014 253.172 279.264H363.222C363.222 279.264 373.862 243.67 374.267 171.266L375.639 130.776H375.629Z" fill="#E8EEF9"/>
<path d="M291.345 94.5835C291.345 94.5835 287.939 159.862 281.211 214.749" stroke="#F7B2B6" stroke-miterlimit="10" stroke-linecap="round"/>
<path d="M289.148 75.8976H365.38C358.136 75.8976 352.263 70.025 352.263 62.7811C352.263 55.5371 358.136 49.6646 365.38 49.6646H289.148C281.904 49.6646 276.031 55.5371 276.031 62.7811C276.031 70.025 281.904 75.8976 289.148 75.8976Z" fill="#CBDBE8"/>
<path d="M291.338 103.069C296.025 103.069 299.825 99.2698 299.825 94.5828C299.825 89.8958 296.025 86.0962 291.338 86.0962C286.651 86.0962 282.852 89.8958 282.852 94.5828C282.852 99.2698 286.651 103.069 291.338 103.069Z" fill="#F7B2B6"/>
<path d="M287.207 95.2546C287.888 96.037 288.541 96.8286 289.241 97.6018C289.48 97.8687 289.784 98.0896 290.171 98.0252C290.603 97.9516 290.852 97.5926 291.1 97.2796C292.38 95.6873 293.65 94.0949 294.929 92.5117C295.298 92.0515 294.653 91.3979 294.276 91.8581C293.171 93.2296 292.076 94.6011 290.972 95.9726C290.714 96.2947 290.456 96.6261 290.189 96.9391C290.152 96.9851 290.097 97.0863 290.033 97.1048C290.051 97.1048 290.088 97.1324 290.005 97.0864C289.849 96.9851 289.72 96.7642 289.6 96.6261C289.011 95.9542 288.431 95.273 287.842 94.6011C287.455 94.1501 286.802 94.8036 287.188 95.2546H287.207Z" fill="#B61936"/>
<path d="M303.828 103.079H367.616" stroke="#9CA8AF" stroke-miterlimit="10" stroke-linecap="round" stroke-dasharray="4 4"/>
<path d="M289.51 133.113C294.197 133.113 297.997 129.314 297.997 124.627C297.997 119.94 294.197 116.14 289.51 116.14C284.823 116.14 281.023 119.94 281.023 124.627C281.023 129.314 284.823 133.113 289.51 133.113Z" fill="#F7B2B6"/>
<path d="M301.984 133.113H365.772" stroke="#9CA8AF" stroke-miterlimit="10" stroke-linecap="round" stroke-dasharray="4 4"/>
<path d="M287.658 163.157C292.346 163.157 296.145 159.358 296.145 154.671C296.145 149.984 292.346 146.184 287.658 146.184C282.971 146.184 279.172 149.984 279.172 154.671C279.172 159.358 282.971 163.157 287.658 163.157Z" fill="#F7B2B6"/>
<path d="M300.141 163.157H363.928" stroke="#9CA8AF" stroke-miterlimit="10" stroke-linecap="round" stroke-dasharray="4 4"/>
<path d="M284.908 193.192C289.596 193.192 293.395 189.392 293.395 184.705C293.395 180.018 289.596 176.219 284.908 176.219C280.221 176.219 276.422 180.018 276.422 184.705C276.422 189.392 280.221 193.192 284.908 193.192Z" fill="#F7B2B6"/>
<path d="M297.375 193.2H361.163" stroke="#9CA8AF" stroke-miterlimit="10" stroke-linecap="round" stroke-dasharray="4 4"/>
<path d="M281.221 223.235C285.908 223.235 289.708 219.436 289.708 214.749C289.708 210.062 285.908 206.262 281.221 206.262C276.534 206.262 272.734 210.062 272.734 214.749C272.734 219.436 276.534 223.235 281.221 223.235Z" fill="#F7B2B6"/>
<path d="M293.695 223.235H357.483" stroke="#9CA8AF" stroke-miterlimit="10" stroke-linecap="round" stroke-dasharray="4 4"/>
<defs>
<linearGradient id="paint0_linear_424_1510" x1="504.101" y1="279.558" x2="245.444" y2="279.558" gradientUnits="userSpaceOnUse">
<stop stop-color="white"/>
<stop offset="0.28" stop-color="#FEFEFE" stop-opacity="0.99"/>
<stop offset="0.42" stop-color="#FEFCFC" stop-opacity="0.96"/>
<stop offset="0.52" stop-color="#FEF9F9" stop-opacity="0.91"/>
<stop offset="0.61" stop-color="#FEF5F5" stop-opacity="0.84"/>
<stop offset="0.69" stop-color="#FDEFEF" stop-opacity="0.74"/>
<stop offset="0.77" stop-color="#FDE8E8" stop-opacity="0.62"/>
<stop offset="0.84" stop-color="#FCDFDF" stop-opacity="0.48"/>
<stop offset="0.9" stop-color="#FCD5D5" stop-opacity="0.32"/>
<stop offset="0.96" stop-color="#FBCACA" stop-opacity="0.14"/>
<stop offset="1" stop-color="#FBC2C2" stop-opacity="0"/>
</linearGradient>
</defs>
</svg>
