<?xml version="1.0" encoding="utf-8"?>
<!-- Generator: Adobe Illustrator 25.3.1, SVG Export Plug-In . SVG Version: 6.00 Build 0)  -->
<svg version="1.1" id="Ebene_1" xmlns="http://www.w3.org/2000/svg" xmlns:xlink="http://www.w3.org/1999/xlink" x="0px" y="0px"
	 viewBox="0 0 300 100" style="enable-background:new 0 0 300 100;" xml:space="preserve">
<style type="text/css">
	.st0{fill-rule:evenodd;clip-rule:evenodd;fill:#3D3939;}
	.st1{fill-rule:evenodd;clip-rule:evenodd;fill:#FFFFFF;filter:url(#Adobe_OpacityMaskFilter);}
	.st2{mask:url(#mask0_2_);}
	.st3{fill-rule:evenodd;clip-rule:evenodd;fill:#FFFFFF;filter:url(#Adobe_OpacityMaskFilter_1_);}
	.st4{mask:url(#mask1_2_);}
</style>
<g>
	<path class="st0" d="M28.4,27.5v45h28.8l5.1-7H36.8V53.1h19.5l0-6.9H36.8V34.5h19.5l5.1-7H28.4z"/>
	<defs>
		<filter id="Adobe_OpacityMaskFilter" filterUnits="userSpaceOnUse" x="116" y="26.9" width="48.7" height="46.3">
			<feColorMatrix  type="matrix" values="1 0 0 0 0  0 1 0 0 0  0 0 1 0 0  0 0 0 1 0"/>
		</filter>
	</defs>
	<mask maskUnits="userSpaceOnUse" x="116" y="26.9" width="48.7" height="46.3" id="mask0_2_">
		<path class="st1" d="M116,26.9h48.7v46.3H116V26.9z"/>
	</mask>
	<g class="st2">
		<path class="st0" d="M148.5,63.8c2.4-1.3,4.3-3.2,5.7-5.7s2.1-5.1,2.1-8.1c0-3-0.7-5.7-2.1-8.1s-3.3-4.3-5.7-5.7
			c-2.4-1.4-5.1-2-8.1-2c-3,0-5.7,0.7-8.1,2c-2.4,1.4-4.3,3.2-5.7,5.7c-1.4,2.4-2.1,5.1-2.1,8.1c0,3,0.7,5.7,2.1,8.1
			c1.4,2.4,3.3,4.3,5.7,5.7c2.4,1.4,5.1,2,8.1,2C143.4,65.8,146.1,65.1,148.5,63.8z M127.9,70.2c-3.7-2-6.6-4.8-8.7-8.3
			c-2.1-3.5-3.2-7.5-3.2-11.9c0-4.4,1.1-8.3,3.2-11.9c2.1-3.5,5-6.3,8.7-8.3c3.7-2,7.9-3,12.5-3c4.6,0,8.8,1,12.5,3
			c3.7,2,6.6,4.7,8.7,8.3c2.1,3.5,3.2,7.5,3.2,11.9c0,4.4-1.1,8.4-3.2,11.9c-2.1,3.5-5,6.3-8.7,8.3c-3.7,2-7.9,3-12.5,3
			C135.8,73.1,131.6,72.1,127.9,70.2z"/>
	</g>
	<path class="st0" d="M174.3,27.5h8.4v37.9h23.6l-5.1,7.1h-26.9V27.5z"/>
	<path class="st0" d="M211.8,27.5h8.4v33.4l-8.4,11.6V27.5z"/>
	<path class="st0" d="M96.8,50.8l15.8,21.7h-9.1l-33.4-45h9.6l12.1,17.1l12.3-17.1h9.7L96.8,50.8z"/>
	<defs>
		<filter id="Adobe_OpacityMaskFilter_1_" filterUnits="userSpaceOnUse" x="227.9" y="27.5" width="43.7" height="45">
			<feColorMatrix  type="matrix" values="1 0 0 0 0  0 1 0 0 0  0 0 1 0 0  0 0 0 1 0"/>
		</filter>
	</defs>
	<mask maskUnits="userSpaceOnUse" x="227.9" y="27.5" width="43.7" height="45" id="mask1_2_">
		<path class="st3" d="M227.9,27.5h43.7v45h-43.7V27.5z"/>
	</mask>
	<g class="st4">
		<path class="st0" d="M254.6,49.2l15.8-21.7h-9.1l-33.4,45h9.6l12.1-17.1l12.3,17.1h9.7L254.6,49.2z"/>
	</g>
	<path class="st0" d="M90,72.5L79.9,58.9l-9.8,13.6H78H90z"/>
	<path class="st0" d="M227.9,27.5L238,41.1l9.8-13.6H240H227.9z"/>
</g>
</svg>
