<?xml version="1.0" encoding="utf-8"?>
<!-- Generator: Adobe Illustrator 24.3.0, SVG Export Plug-In . SVG Version: 6.00 Build 0)  -->
<svg version="1.1" id="Capa_1" xmlns="http://www.w3.org/2000/svg" xmlns:xlink="http://www.w3.org/1999/xlink" x="0px" y="0px"
	 viewBox="0 0 345 345" style="enable-background:new 0 0 345 345;" xml:space="preserve">
<style type="text/css">
	.st0{fill:#4F4C4C;}
</style>
<g>
	<g>
		<g>
			<path class="st0" d="M234.4,7.5c-17.6,1.2-38.2,12.5-50.1,27.1c-10.9,13.3-19.9,33.1-16.4,52.3c19.2,0.6,39.1-10.9,50.6-25.8
				C229.2,47.2,237.3,27.5,234.4,7.5z"/>
		</g>
	</g>
	<g>
		<g>
			<path class="st0" d="M303.9,118.2C287,97,263.3,84.7,240.8,84.7c-29.6,0-42.1,14.2-62.7,14.2c-21.2,0-37.3-14.1-62.9-14.1
				c-25.1,0-51.9,15.4-68.9,41.6c-23.9,37-19.8,106.6,18.9,165.8c13.8,21.2,32.3,45,56.5,45.3c21.5,0.2,27.6-13.8,56.7-13.9
				c29.1-0.2,34.7,14.1,56.1,13.9c24.2-0.2,43.7-26.6,57.5-47.8c9.9-15.2,13.6-22.9,21.3-40C257.5,228.3,248.5,148.8,303.9,118.2z"
				/>
		</g>
	</g>
</g>
</svg>
