<?xml version="1.0" encoding="utf-8"?>
<!-- Generator: Adobe Illustrator 24.3.0, SVG Export Plug-In . SVG Version: 6.00 Build 0)  -->
<svg version="1.1" id="Layer_1" xmlns="http://www.w3.org/2000/svg" xmlns:xlink="http://www.w3.org/1999/xlink" x="0px" y="0px"
	 viewBox="0 0 512 512" style="enable-background:new 0 0 512 512;" xml:space="preserve">
<style type="text/css">
	.st0{fill-rule:evenodd;clip-rule:evenodd;fill:#CBDBE8;}
	.st1{fill-rule:evenodd;clip-rule:evenodd;fill:#DFEBF2;}
	.st2{fill:#99A4AA;stroke:#000000;stroke-width:5;stroke-linecap:round;stroke-linejoin:round;stroke-miterlimit:10;}
	.st3{fill:#DFEBF2;stroke:#000000;stroke-width:5;stroke-linecap:round;stroke-linejoin:round;stroke-miterlimit:10;}
	.st4{fill-rule:evenodd;clip-rule:evenodd;fill:#DFEBF2;stroke:#000000;stroke-width:5;stroke-miterlimit:10;}
	
		.st5{fill-rule:evenodd;clip-rule:evenodd;fill:#99A4AA;stroke:#000000;stroke-width:5;stroke-linecap:round;stroke-linejoin:round;stroke-miterlimit:10;}
</style>
<circle class="st0" cx="256" cy="256" r="250"/>
<path id="Path-3_1_" class="st4" d="M119.2,253.4c72.9-31.8,121.5-52.7,145.8-62.8c69.4-28.9,83.9-33.9,93.3-34.1
	c2.1,0,6.7,0.5,9.7,2.9c2.5,2.1,3.2,4.8,3.6,6.8s0.7,6.4,0.4,9.8c-3.8,39.5-20,135.5-28.3,179.7c-3.5,18.7-10.4,25-17.1,25.6
	c-14.5,1.3-25.5-9.6-39.6-18.8c-22-14.4-34.4-23.4-55.8-37.5c-24.7-16.3-8.7-25.2,5.4-39.8c3.7-3.8,67.6-62,68.9-67.3
	c0.2-0.7,0.3-3.1-1.2-4.4s-3.6-0.9-5.2-0.5c-2.2,0.5-37.4,23.7-105.5,69.7c-10,6.9-19,10.2-27.1,10c-8.9-0.2-26.1-5-38.9-9.2
	c-15.7-5.1-28.1-7.8-27-16.4C101.1,262.7,107.3,258.1,119.2,253.4z"/>
</svg>
