<?xml version="1.0" encoding="utf-8"?>
<!-- Generator: Adobe Illustrator 24.3.0, SVG Export Plug-In . SVG Version: 6.00 Build 0)  -->
<svg version="1.1" id="Layer_1" xmlns="http://www.w3.org/2000/svg" xmlns:xlink="http://www.w3.org/1999/xlink" x="0px" y="0px"
	 viewBox="0 0 512 512" style="enable-background:new 0 0 512 512;" xml:space="preserve">
<style type="text/css">
	.st0{fill:#3D3939;}
</style>
<g>
	<path class="st0" d="M368.3,102.2H143.7c-3.6,0-6.9,2.1-8.5,5.4c-1.5,3.3-1,7.2,1.3,10L251.8,256L136.5,394.5
		c-2.3,2.8-2.8,6.7-1.3,9.9c1.5,3.3,4.9,5.4,8.5,5.4h224.7c5.2,0,9.4-4.2,9.4-9.4v-48.1c0-5.2-4.2-9.4-9.4-9.4
		c-5.2,0-9.4,4.2-9.4,9.4v38.8H163.6L271.2,262c2.9-3.5,2.9-8.5,0-12L163.6,120.9H359v38.8c0,5.2,4.2,9.4,9.4,9.4
		c5.2,0,9.4-4.2,9.4-9.4v-48.1C377.7,106.4,373.5,102.2,368.3,102.2z"/>
	<path class="st0" d="M460.5,7.1h-409C27,7.1,7.1,27,7.1,51.5v409c0,24.5,19.9,44.4,44.4,44.4h409c24.5,0,44.4-19.9,44.4-44.4v-409
		C504.9,27,485,7.1,460.5,7.1z M487.7,460.5c0,14.7-12.4,27.1-27.1,27.1h-409c-14.7,0-27.1-12.4-27.1-27.1v-409
		c0-14.7,12.4-27.1,27.1-27.1h409c14.7,0,27.1,12.4,27.1,27.1V460.5z"/>
</g>
</svg>
