<?xml version="1.0" encoding="utf-8"?>
<!-- Generator: Adobe Illustrator 24.1.0, SVG Export Plug-In . SVG Version: 6.00 Build 0)  -->
<svg version="1.1" id="Ebene_1" xmlns="http://www.w3.org/2000/svg" xmlns:xlink="http://www.w3.org/1999/xlink" x="0px" y="0px"
	 width="300px" height="100px" viewBox="0 0 300 100" style="enable-background:new 0 0 300 100;" xml:space="preserve">
<style type="text/css">
	.st0{fill:#3d3939;}
</style>
<g id="ZQ88Yb.tif">
	<g>
		<path class="st0" d="M52.1,14.9c0.2,0.1,0.4,0.1,0.6,0.2c2.6,0.1,5.2,0.5,7.7,1.3c2.1,0.7,4.2,1.5,6.2,2.4
			c2.7,1.3,5.2,3.1,7.5,5.1c2.9,2.5,5.2,5.4,7.2,8.7c2,3.3,3.4,6.8,4.1,10.5c0.3,1.6,0.5,3.2,0.6,4.8c0.1,1.4,0.2,2.8,0.2,4.2
			c-0.2,3.8-0.9,7.5-2.3,11.1c-1,2.5-2.2,4.9-3.7,7.2c-1.6,2.5-3.5,4.7-5.7,6.7c-4.7,4.2-10.1,7-16.3,8.4c-1.7,0.4-3.4,0.5-5.2,0.7
			c-1.1,0.1-2.1,0.2-3.2,0.2c-3.1,0-6.2-0.5-9.3-1.3c-3.8-1-7.3-2.7-10.4-4.9c-1.9-1.4-3.8-2.9-5.5-4.6c-4.1-4.2-7-9.1-8.6-14.7
			c-0.6-2-0.9-4.2-1.2-6.3c-0.2-1.3-0.4-2.7-0.3-4c0.1-4.8,0.9-9.4,2.9-13.8c1.4-3.3,3.3-6.3,5.6-9c3.5-4.1,7.7-7.3,12.6-9.5
			c3-1.3,6.1-2.3,9.3-2.7c1.1-0.1,2.2-0.2,3.3-0.3c0.2,0,0.3-0.1,0.5-0.2C49.9,14.9,51,14.9,52.1,14.9z M50.4,20
			c-17.1,0-29.9,13.7-30.7,29c-0.4,8.9,2.5,16.6,8.6,23c6,6.2,13.4,9.4,22,9.4c8.4,0,15.7-3,21.7-9c6-6,9-13.3,9.1-21.6
			c0-8-2.7-15.1-8.3-20.9C66.8,23.3,59.3,20,50.4,20z"/>
		<path class="st0" d="M287.2,29.3c-0.9,1-1.9,2-2.8,3.1c-1.1,1.3-2.2,2.7-3.4,4c-1.5,1.7-3,3.5-4.5,5.2c-1,1.2-2,2.3-3,3.5
			c-1.5,1.8-3.1,3.5-4.6,5.3c6,7,12.1,14,18.2,21.2c-1.8,0-3.4,0-4.9,0c-1.6,0-3.1,0-4.7,0c-0.8,0-1.4-0.2-1.9-0.8
			c-2-2.4-4.1-4.8-6.1-7.2c-1.4-1.7-2.9-3.3-4.4-5c-0.5-0.6-1-1.2-1.6-1.9c-1,1.2-2,2.3-3,3.4c-1.1,1.3-2.2,2.6-3.3,3.9
			c-1.8,2.1-3.6,4.2-5.4,6.3c-0.7,0.8-1.3,1.4-2.6,1.3c-3-0.2-6-0.1-9.2-0.1c6.1-7.2,12.2-14.2,18.2-21.2c-6-7-12-14.1-18.1-21.2
			c0.3,0,0.6-0.1,0.8-0.1c2.9,0,5.8,0,8.7,0c0.9,0,1.4,0.4,2,1c1.5,1.8,3.1,3.6,4.6,5.4c1.7,2,3.4,4,5,6c0.7,0.9,1.5,1.7,2.3,2.6
			c0.4-0.4,0.8-0.9,1.2-1.3c2.2-2.6,4.5-5.2,6.7-7.8c1.5-1.8,3-3.6,4.6-5.3c0.2-0.3,0.7-0.5,1.1-0.5c3.3,0,6.7,0,10,0
			C287.2,29.2,287.2,29.2,287.2,29.3z"/>
		<path class="st0" d="M120.9,28.5c1.9,0,3.9,0,5.8,0c3.8,0,7.2,1.1,10.3,3.3c3.6,2.6,5.9,6.1,6.7,10.5c0.7,3.9,0.5,7.8,0.5,11.8
			c0,2.6-0.3,5.1-1.4,7.5c-0.7,1.7-1.6,3.2-2.8,4.6c-2.1,2.5-4.8,4.2-7.9,5.1c-1.4,0.4-2.9,0.7-4.3,0.8c-3.8,0.1-7.6,0.2-11.4,0.2
			c-3.8,0-7.4-0.8-10.6-2.9c-2.8-1.8-4.8-4.2-6.2-7.3c-1.2-2.6-1.6-5.3-1.6-8.1c0-2.8,0-5.6,0-8.4c0.1-5.2,2.1-9.6,6-13
			c2.3-2,5.1-3.4,8.2-3.7c2.9-0.3,5.8-0.3,8.7-0.5C120.9,28.4,120.9,28.4,120.9,28.5z M121,36.3c0,0.1,0,0.1,0,0.2
			c-2.4,0-4.9-0.3-7.3,0.1c-4.7,0.6-7.7,4.4-7.8,9c-0.1,3,0,5.9,0,8.9c0,0.7,0,1.5,0.2,2.2c0.5,2.3,1.5,4.2,3.4,5.7
			c1.9,1.4,4.1,2,6.4,2c3.3,0,6.6,0,10,0c1,0,1.9-0.1,2.9-0.3c2.4-0.5,4.4-1.8,5.8-3.8c1.2-1.8,1.6-3.8,1.7-5.9c0.1-2.5,0-4.9,0-7.4
			c0-1-0.1-2-0.3-3c-0.8-4.8-4.8-7.5-9.2-7.7C124.8,36.3,122.9,36.3,121,36.3z"/>
		<path class="st0" d="M236.7,29.1c0,2.6,0,5.1,0,7.7c-5.1,0-10.3,0-15.4,0c-5.1,0-10.2,0-15.4,0c0,0.3,0,0.6,0,0.9
			c0,7.6,0,15.1,0,22.7c0,0.5,0.1,1.1,0.3,1.6c0.4,1.1,1.4,1.8,2.7,1.8c8.9,0,17.9,0,26.8,0c0.3,0,0.6,0,1,0c0,2.6,0,5.2,0,7.9
			c-0.3,0-0.6,0-0.8,0c-9.1,0-18.2,0.1-27.4,0c-3.8-0.1-7-1.8-9-5.2c-0.9-1.5-1.3-3.1-1.3-4.9c0-9.3-0.1-18.6-0.1-27.9
			c0-2.2,0.9-3.7,2.8-4.3c0.2-0.1,0.4-0.1,0.6-0.1c11.6,0,23.2,0,34.7,0C236.4,29.1,236.5,29.1,236.7,29.1z"/>
		<path class="st0" d="M146.9,29.1c2.8,0,5.6,0,8.4,0c0.2,0,0.6,0.3,0.7,0.6c1.7,3.4,3.3,6.7,4.9,10.1c1.8,3.7,3.7,7.4,5.5,11.1
			c1.3,2.7,2.6,5.4,3.9,8.1c0,0.1,0.1,0.2,0.2,0.3c0.8-1.7,1.6-3.3,2.4-4.9c1.8-3.6,3.6-7.2,5.4-10.9c1.3-2.6,2.5-5.1,3.8-7.7
			c1-2.1,2-4.2,3-6.2c0.1-0.3,0.5-0.6,0.7-0.6c2.7,0,5.5,0,8.3,0c-0.4,0.9-0.8,1.8-1.2,2.7c-1.2,2.4-2.4,4.9-3.7,7.3
			c-1.5,3-3,6-4.4,9c-1.4,2.8-2.8,5.7-4.2,8.5c-1.4,2.9-2.9,5.9-4.3,8.8c-0.8,1.7-1.6,3.5-2.6,5.1c-1.1,1.9-4.1,2.2-5.7,0.6
			c-0.5-0.5-0.9-1-1.2-1.6c-2-4-4-8.1-6-12.1c-1.3-2.7-2.7-5.5-4-8.2c-2.6-5.3-5.3-10.7-7.9-16C148.2,31.9,147.6,30.5,146.9,29.1z"
			/>
		<path class="st0" d="M209.1,46.5c8.1,0,16.2,0,24.3,0c0,2.6,0,5.1,0,7.8c-8.1,0-16.2,0-24.3,0C209.1,51.7,209.1,49.1,209.1,46.5z"
			/>
		<path class="st0" d="M26.1,33.3c1.6,1.3,3.3,2.6,4.9,3.9c2.1,1.6,4.1,3.3,6.2,4.9c1.7,1.4,3.5,2.8,5.2,4.2
			c2.1,1.7,4.2,3.4,6.3,5.1c0.5,0.4,1.1,0.8,1.6,1.3c0.1,0.1,0.2,0.4,0.2,0.6c0,8.9,0,17.7,0,26.6c0,0,0,0.1-0.1,0.2
			c-0.1-0.1-0.2-0.2-0.3-0.3c-1.5-3-3.1-6-4.6-8.9c-1.9-3.7-3.9-7.4-5.8-11.1c-1.9-3.6-3.8-7.3-5.7-10.9c-1.9-3.7-3.9-7.4-5.8-11.1
			c-0.7-1.4-1.5-2.8-2.2-4.2C26,33.4,26,33.3,26.1,33.3z"/>
		<path class="st0" d="M75.5,33.4c-2.6,5-5.2,9.9-7.8,14.9c-1.2,2.3-2.5,4.7-3.7,7c-2,3.8-4,7.6-5.9,11.4c-1.2,2.4-2.5,4.7-3.7,7.1
			c-1.1,2.1-2.2,4.1-3.4,6.1c0-0.2,0-0.5,0-0.7c0-8.6,0-17.2,0-25.8c0-0.4,0.1-0.7,0.5-1c2.7-2.1,5.3-4.3,7.9-6.4c2.5-2,5.1-4,7.6-6
			c1.8-1.4,3.5-2.9,5.3-4.3c1-0.8,2.1-1.6,3.1-2.5C75.4,33.3,75.5,33.3,75.5,33.4z"/>
	</g>
</g>
</svg>
