<?xml version="1.0" encoding="utf-8"?>
<!-- Generator: Adobe Illustrator 24.3.0, SVG Export Plug-In . SVG Version: 6.00 Build 0)  -->
<svg version="1.1" id="Layer_1" xmlns="http://www.w3.org/2000/svg" xmlns:xlink="http://www.w3.org/1999/xlink" x="0px" y="0px"
	 viewBox="0 0 1500 880.1" style="enable-background:new 0 0 1500 880.1;" xml:space="preserve">
<style type="text/css">
	.st0{fill:#CBDBE8;}
	.st1{fill:#DFEBF2;}
	.st2{fill:#C9D3DC;}
	.st3{fill:#BB3437;}
	.st4{fill:none;stroke:#000000;stroke-width:5;stroke-linejoin:round;stroke-miterlimit:10;}
	.st5{fill:none;stroke:#000000;stroke-width:5;stroke-miterlimit:10;}
	.st6{fill:#C5D1DA;}
	.st7{fill:#9B1C2E;}
	.st8{clip-path:url(#SVGID_2_);}
	.st9{opacity:0.7;}
	.st10{fill:#ABB8C1;}
	.st11{fill:none;stroke:#000000;stroke-width:5;stroke-linecap:round;stroke-linejoin:round;stroke-miterlimit:10;}
	.st12{fill:#FFFFFF;}
	.st13{fill:#BB3437;stroke:#000000;stroke-width:5;stroke-miterlimit:10;}
	.st14{fill:#DDEDF2;}
	.st15{fill:#C9D3DC;stroke:#000000;stroke-width:5;stroke-miterlimit:10;}
</style>
<g>
	<g>
		<g>
			<g>
				<path class="st0" d="M150,740h600V140h-0.2C418.5,140,150,408.7,150,740z"/>
			</g>
		</g>
		<g>
			<g>
				<path class="st1" d="M750,140v600h600v-0.2C1350,408.6,1081.4,140,750,140z"/>
			</g>
		</g>
	</g>
	<g>
		<g>
			<path class="st11" d="M519.3,506.2L519.3,506.2c5.8,12.2,18.4,19.7,31.6,19c12-0.6,22.8-8.1,28-19.2v0c5.2-11.1,16-18.4,28-19.1
				c13.2-0.7,25.8,6.8,31.6,19.1l0,0c5.8,12.2,18.4,19.8,31.6,19.1c12-0.6,22.8-8,28-19.1l0,0c5.2-11.1,16-18.4,28-19.1
				c13.2-0.7,25.8,6.8,31.6,19.1l0,0c5.8,12.2,18.4,19.8,31.6,19.1c12-0.6,22.8-8,28-19.1"/>
			<path class="st11" d="M519.3,578.7L519.3,578.7c5.8,12.2,18.4,19.7,31.6,19c12-0.6,22.8-8.1,28-19.2v0c5.2-11.1,16-18.4,28-19.1
				c13.2-0.7,25.8,6.8,31.6,19.1l0,0c5.8,12.2,18.4,19.8,31.6,19.1c12-0.6,22.8-8,28-19.1l0,0c5.2-11.1,16-18.4,28-19.1
				c13.2-0.7,25.8,6.8,31.6,19.1l0,0c5.8,12.2,18.4,19.8,31.6,19.1c12-0.6,22.8-8,28-19.1"/>
		</g>
		<g>
			<path class="st11" d="M519.3,578.7L519.3,578.7c5.8,12.2,18.4,19.7,31.6,19c12-0.6,22.8-8.1,28-19.2v0c5.2-11.1,16-18.4,28-19.1
				c13.2-0.7,25.8,6.8,31.6,19.1l0,0c5.8,12.2,18.4,19.8,31.6,19.1c12-0.6,22.8-8,28-19.1l0,0c5.2-11.1,16-18.4,28-19.1
				c13.2-0.7,25.8,6.8,31.6,19.1l0,0c5.8,12.2,18.4,19.8,31.6,19.1c12-0.6,22.8-8,28-19.1"/>
			<path class="st11" d="M519.3,651.2L519.3,651.2c5.8,12.2,18.4,19.7,31.6,19c12-0.6,22.8-8.1,28-19.2v0c5.2-11.1,16-18.4,28-19.1
				c13.2-0.7,25.8,6.8,31.6,19.1l0,0c5.8,12.2,18.4,19.8,31.6,19.1c12-0.6,22.8-8,28-19.1l0,0c5.2-11.1,16-18.4,28-19.1
				c13.2-0.7,25.8,6.8,31.6,19.1l0,0c5.8,12.2,18.4,19.8,31.6,19.1c12-0.6,22.8-8,28-19.1"/>
		</g>
		<g>
			<g>
				<g>
					<g>
						<path class="st2" d="M622.9,537.4l12.5-32.7c16.6-43.4,45.4-80.5,83.2-107.4l10.1-7.2l36.4,58L622.9,537.4z"/>
					</g>
					<g>
						<path d="M622.9,539.9c-0.6,0-1.1-0.2-1.6-0.6c-0.8-0.7-1.1-1.8-0.7-2.8l12.5-32.7c16.8-43.8,45.9-81.4,84.1-108.5l10.1-7.2
							c0.6-0.4,1.3-0.5,1.9-0.4c0.7,0.1,1.3,0.5,1.6,1.1l36.4,58c0.4,0.6,0.5,1.2,0.3,1.9c-0.1,0.6-0.5,1.2-1.1,1.6l-142.2,89.2
							C623.8,539.8,623.3,539.9,622.9,539.9z M728,393.8l-7.9,5.6c-37.4,26.6-65.9,63.3-82.3,106.2l-9.8,25.7l133.7-83.9L728,393.8z
							"/>
					</g>
				</g>
				<g>
					<g>
						
							<rect x="835.9" y="415" transform="matrix(0.8471 -0.5314 0.5314 0.8471 -150.8735 543.9367)" class="st2" width="68.2" height="238.4"/>
					</g>
					<g>
						<path d="M904.4,655.8c-0.8,0-1.6-0.4-2.1-1.2L775.6,452.7c-0.4-0.6-0.5-1.2-0.3-1.9c0.1-0.6,0.5-1.2,1.1-1.6l57.7-36.2
							c1.2-0.7,2.7-0.4,3.4,0.8l126.7,201.9c0.4,0.6,0.5,1.2,0.3,1.9c-0.1,0.6-0.5,1.2-1.1,1.6l-57.7,36.2
							C905.3,655.6,904.9,655.8,904.4,655.8z M781.2,452.1l124,197.7l53.5-33.6l-124-197.7L781.2,452.1z"/>
					</g>
				</g>
				<g>
					<g>
						
							<rect x="740.5" y="353.4" transform="matrix(0.8471 -0.5314 0.5314 0.8471 -90.8614 476.9814)" class="st2" width="86.1" height="86.1"/>
					</g>
					<g>
						<path d="M770,458.2c-0.8,0-1.6-0.4-2.1-1.2l-45.7-72.9c-0.4-0.6-0.5-1.2-0.3-1.9c0.1-0.6,0.5-1.2,1.1-1.6l72.9-45.7
							c1.2-0.7,2.7-0.4,3.4,0.8l45.7,72.9c0.4,0.6,0.5,1.2,0.3,1.9c-0.1,0.6-0.5,1.2-1.1,1.6l-72.9,45.7
							C770.9,458.1,770.4,458.2,770,458.2z M727.7,383.6l43.1,68.7l68.7-43.1l-43.1-68.7L727.7,383.6z"/>
					</g>
				</g>
				<g>
					<g>
						<path class="st2" d="M813,338.3c40.6-22.4,86.6-32.1,132.9-28.2l34.8,3l-142.2,89.2l-36.4-58L813,338.3z"/>
					</g>
					<g>
						<path d="M838.5,404.8c-0.8,0-1.6-0.4-2.1-1.2l-36.4-58c-0.4-0.6-0.5-1.3-0.3-2c0.2-0.7,0.6-1.2,1.2-1.6l10.8-6l0,0
							c41.1-22.6,87.5-32.5,134.3-28.5l34.8,3c1.1,0.1,2,0.9,2.2,1.9c0.3,1-0.2,2.1-1.1,2.7l-142.2,89.2
							C839.4,404.6,839,404.8,838.5,404.8z M805.6,345.2l33.6,53.6L973,314.9l-27.4-2.3c-45.8-3.9-91.3,5.8-131.5,27.9L805.6,345.2z
							"/>
					</g>
				</g>
			</g>
			<g>
				<g>
					<g>
						<rect x="684.3" y="576.8" class="st7" width="93.5" height="93.5"/>
					</g>
					<g>
						<path d="M777.7,672.8h-93.5c-1.4,0-2.5-1.1-2.5-2.5v-93.5c0-1.4,1.1-2.5,2.5-2.5h93.5c1.4,0,2.5,1.1,2.5,2.5v93.5
							C780.2,671.7,779.1,672.8,777.7,672.8z M686.8,667.8h88.5v-88.5h-88.5V667.8z"/>
					</g>
				</g>
			</g>
		</g>
	</g>
</g>
</svg>
