<?xml version="1.0" encoding="utf-8"?>
<!-- Generator: Adobe Illustrator 21.1.0, SVG Export Plug-In . SVG Version: 6.00 Build 0)  -->
<svg version="1.1" id="Ebene_1" xmlns="http://www.w3.org/2000/svg" xmlns:xlink="http://www.w3.org/1999/xlink" x="0px" y="0px"
	 width="300px" height="100px" viewBox="0 0 300 100" style="enable-background:new 0 0 300 100;" xml:space="preserve">
<style type="text/css">
	.st0{fill:#3d3939;}
</style>
<g id="YfAsuH.tif_1_">
	<g>
		<path class="st0" d="M37.4,77.8c-1.6-1.6-3.2-3.3-4.8-4.9c-4-4.1-8.1-8.1-12-12.1c2-2,4-4,6.1-6.1c2.7,2.7,5.4,5.4,8.2,8.2
			c0.7,0.7,1.4,1.3,2,2c0.5,0.6,0.8,0.6,1.4,0c3.4-3.4,6.8-6.8,10.2-10.2c2,2.1,4.1,4.1,6.1,6.2C49.4,66.2,44,71.6,38.6,77
			c-0.3,0.3-0.5,0.6-0.7,0.9C37.7,77.8,37.6,77.8,37.4,77.8z"/>
		<path class="st0" d="M9.8,49.8c1.9-1.8,3.7-3.6,5.6-5.4c0.2-0.2,0.3-0.3,0.5-0.6c1,1,2.1,2.1,3.1,3.1c1,1,2,2,3,3
			c-2,2-4.1,4-6.1,6.1c-1.9-1.9-4-3.8-6-5.8C9.8,50.1,9.8,49.9,9.8,49.8z"/>
		<path class="st0" d="M95.4,49.8c0.3,0.1,0.6,0.3,0.9,0.5c3.5,1.6,4.8,4,4.5,8c-0.2,2.8-2.5,5.4-5.6,6.2c-1.4,0.4-2.9,0.7-4.4,0.7
			c-5,0.1-10,0-15,0c0-9.9,0-19.7,0-29.6c2.2,0,4.4,0,6.6,0c3.1,0,6.3,0,9.4,0.3c4.1,0.3,7.6,3.2,7.4,7.8c-0.1,2.5-1.2,4.4-3.5,5.6
			c-0.1,0.1-0.2,0.1-0.3,0.2C95.4,49.5,95.4,49.6,95.4,49.8z M82,59.5c3.3,0,6.7,0.3,10-0.1c2.2-0.2,2.7-1.3,2.6-3.6
			c-0.1-1.3-1.1-2.6-2.7-2.6c-3.2-0.1-6.5,0-9.8,0C82,55.1,82,57.4,82,59.5z M81.9,47.8c2.8-0.1,5.6-0.1,8.3-0.4
			c1.7-0.2,2.7-1.5,2.7-3.1c0-1.7-0.9-2.8-2.7-3c-2.8-0.2-5.5,0-8.3,0C81.9,43.4,81.9,45.5,81.9,47.8z"/>
		<path class="st0" d="M204.2,65.1c-2.1,0-4.1,0-6.2,0c0-9.9,0-19.6,0-29.6c1.8,0,3.7,0,5.5,0c0.3,0,0.6,0.3,0.7,0.6
			c4.4,5.8,8.7,11.6,13.1,17.4c0.1,0.2,0.4,0.2,0.6,0.4c0-6.2,0-12.2,0-18.3c2.1,0,4.1,0,6.2,0c0,9.8,0,19.6,0,29.6
			c-1.7,0-3.4,0-5.1,0c-0.2,0-0.5-0.3-0.7-0.5c-2.3-3-4.6-6-6.8-8.9c-2.3-3-4.5-6-6.8-9c-0.1-0.2-0.3-0.2-0.6-0.4
			C204.2,52.6,204.2,58.8,204.2,65.1z"/>
		<path class="st0" d="M125.8,35.6c1.8,0,3.5,0,5.3,0c0.3,0,0.7,0.2,0.9,0.5c3.8,5,7.6,10,11.4,15c0.6,0.8,1.1,1.6,1.7,2.4
			c0.1,0.2,0.4,0.3,0.7,0.6c0-6.3,0-12.3,0-18.4c2.1,0,4.1,0,6.2,0c0,9.8,0,19.6,0,29.6c-1.7,0-3.4,0-5.1,0c-0.3,0-0.7-0.4-0.9-0.7
			c-3.9-5.1-7.8-10.2-11.6-15.3c-0.5-0.7-1-1.4-1.5-2.1c-0.2-0.3-0.5-0.5-0.9-0.9c0,6.5,0,12.7,0,19c-2,0-4,0-6.1,0
			C125.8,55.3,125.8,45.5,125.8,35.6z"/>
		<path class="st0" d="M268,35.6c7.4,0,14.8,0,22.2,0c0,1.9,0,3.8,0,5.7c-5.3,0-10.6,0-15.9,0c0,2.1,0,4.1,0,6.2c4.6,0,9.2,0,13.9,0
			c0,1.9,0,3.7,0,5.6c-4.6,0-9.2,0-13.9,0c0,2.1,0,4.3,0,6.5c5.3,0,10.6,0,15.9,0c0,1.8,0,3.6,0,5.5c-7.4,0-14.8,0-22.2,0
			C268,55.3,268,45.5,268,35.6z"/>
		<path class="st0" d="M190.6,65.1c-2.2,0-4.4,0-6.6,0c-0.9-2.2-1.8-4.4-2.7-6.6c-4.3,0-8.5,0-12.8,0c-0.8,1.9-1.5,3.9-2.3,5.8
			c-0.2,0.6-0.6,0.9-1.3,0.8c-1.8-0.1-3.6,0-5.5,0c1-2.4,2-4.8,3-7.1c2.8-6.5,5.6-13.1,8.4-19.6c0.4-1,0.7-2.3,1.4-2.9
			c0.7-0.5,2-0.1,3.1-0.1c2.7,0,2.7,0,3.8,2.5c2.1,4.9,4.2,9.9,6.3,14.8C187.1,56.9,188.8,60.9,190.6,65.1z M170.8,52.9
			c2.8,0,5.4,0,8.2,0c-1.4-3.3-2.7-6.5-4.1-10C173.5,46.4,172.1,49.6,170.8,52.9z"/>
		<path class="st0" d="M255.7,44.3c-5-4.8-10.8-3.9-13.8-0.7c-3.5,3.7-3.5,10.2,0.1,13.9c3.1,3.2,9.1,3.8,13.9-1.1
			c1.3,1.4,2.6,2.7,3.9,4.1c-5.1,6.3-15,6.9-21.2,2.2c-7.3-5.5-7.7-16.1-2.1-22.5c5.6-6.5,16.9-6.8,23.2-0.5
			C258.4,41.2,257.1,42.7,255.7,44.3z"/>
		<path class="st0" d="M26.8,45.2c-2-2-4-4-6.1-6.1c5.6-5.6,11.2-11.3,16.9-16.9c5.7,5.7,11.4,11.4,17,17.1c-2,1.9-4,4-6,6
			c-3.3-3.3-6.7-6.6-10.1-10.1c-0.7-0.7-1-0.6-1.7,0C33.5,38.6,30,42,26.8,45.2z"/>
		<path class="st0" d="M109.3,35.6c2.1,0,4.2,0,6.4,0c0,9.8,0,19.6,0,29.5c-2.1,0-4.2,0-6.4,0C109.3,55.3,109.3,45.5,109.3,35.6z"/>
		<path class="st0" d="M37.6,43.9c2,2,4.1,4.1,6.2,6.2c-1.9,1.9-4.1,4-6.1,6.1c-2-2-4.1-4.1-6.2-6.2C33.5,48,35.6,45.9,37.6,43.9z"
			/>
		<path class="st0" d="M53.4,49.9c1.9-1.9,3.9-3.9,5.9-5.9c2,2,4,4.1,6,6.1c-1.9,1.8-3.9,3.8-6,5.8C57.5,54,55.5,52,53.4,49.9z"/>
	</g>
</g>
</svg>
