<?xml version="1.0" encoding="utf-8"?>
<!-- Generator: Adobe Illustrator 25.3.1, SVG Export Plug-In . SVG Version: 6.00 Build 0)  -->
<svg version="1.1" id="Layer_1" xmlns="http://www.w3.org/2000/svg" xmlns:xlink="http://www.w3.org/1999/xlink" x="0px" y="0px"
	 viewBox="0 0 40.3 40.3" style="enable-background:new 0 0 40.3 40.3;" xml:space="preserve">
<style type="text/css">
	.st0{fill-rule:evenodd;clip-rule:evenodd;fill:url(#SVGID_1_);}
	.st1{opacity:0.6;fill:url(#SVGID_2_);}
</style>
<g>
	
		<linearGradient id="SVGID_1_" gradientUnits="userSpaceOnUse" x1="-2.8728" y1="26.7338" x2="157.1313" y2="-13.2672" gradientTransform="matrix(1 0 0 -1 0 42.32)">
		<stop  offset="0.349" style="stop-color:#BB76DB"/>
		<stop  offset="1" style="stop-color:#727CF5"/>
	</linearGradient>
	<path class="st0" d="M36.9,14.1c-4.3-8-14-10.5-19.2-11.8c-1.2-0.3-2.4-0.5-4-0.8c-0.5-0.1-1-0.2-1.6-0.3l-0.1,0
		c-6-1-8.5-1.4-10.1,0.3c-3.3,3.7,2.6,11.5,3.3,12.4c0,0,0,0,0,0.1c0.1,0.1,0.2,0.2,0.3,0.4c1.7,2.1,4.1,3.9,6,5c0,0,0,0,0,0
		c0,0,0,0.1-0.1,0.1c0,0,0,0.1-0.1,0.1c-2,2.8-2.7,6.2-2.1,9.6c0.6,3.4,2.5,6.3,5.3,8.3c3.7,2.6,8.6,3.1,13.1,1.8
		c3.3-1,6.3-2.8,8.4-5.6C40.8,27.7,39.9,19.5,36.9,14.1z M32.8,31.1c-3.8,4.8-11.1,6.2-15.8,3c-1.9-1.3-3.1-3.3-3.6-5.5
		c-0.4-2.2,0.1-4.6,1.4-6.5c0.9-1.3,2.1-2.1,3.5-2.5c1.8-0.5,3.9-0.3,5.5,1c2.2,1.5,2.8,4.4,1.2,6.6c-1.1,1.5-3.2,1.8-4.8,0.8
		c-1-0.7-2.4-0.3-3,0.8c-0.6,0.9-0.1,2.2,0.8,2.8c3.4,2.3,8.1,1.4,10.4-2c2.8-4.1,1.8-9.7-2.2-12.5c-3.5-2.4-8-2.5-11.5-0.4
		c0,0,0,0,0,0c-1.7-1-4.5-2.9-6.2-5.1c-0.3-0.3-0.5-0.7-0.7-1c-0.5-0.8-1-1.6-1.4-2.4C5.6,6.5,6.9,4.7,8.6,5l2.8,0.4
		C12,5.5,12.5,5.6,13,5.7c1.5,0.3,2.6,0.5,3.6,0.7c0,0,0.1,0,0.1,0c4.9,1.2,13,3.3,16.4,9.6C34.8,19.1,36.8,26,32.8,31.1z"/>
	<g>
		<g>
			<g>
				<linearGradient id="SVGID_2_" gradientUnits="userSpaceOnUse" x1="8.2509" y1="10.3053" x2="11.2929" y2="19.5167">
					<stop  offset="0" style="stop-color:#000000;stop-opacity:0"/>
					<stop  offset="1" style="stop-color:#000000;stop-opacity:0.3"/>
				</linearGradient>
				<path class="st1" d="M14.8,16.5c-1.3,0.8-2.3,1.8-3.2,2.9c0,0,0,0,0,0c-1.9-1.2-4.2-3-6-5c-0.1-0.1-0.2-0.2-0.3-0.4
					c0,0,0,0,0-0.1c-0.1-0.2-0.3-0.4-0.5-0.8c0.8-1.1,1.9-2,3.1-2.8c0.2,0.3,0.5,0.7,0.7,1C10.3,13.6,13.1,15.6,14.8,16.5z"/>
			</g>
		</g>
	</g>
</g>
</svg>
