<?xml version="1.0" encoding="utf-8"?>
<!-- Generator: Adobe Illustrator 24.1.0, SVG Export Plug-In . SVG Version: 6.00 Build 0)  -->
<svg version="1.1" id="Ebene_1" xmlns="http://www.w3.org/2000/svg" xmlns:xlink="http://www.w3.org/1999/xlink" x="0px" y="0px"
	 width="300px" height="100px" viewBox="0 0 300 100" style="enable-background:new 0 0 300 100;" xml:space="preserve">
<style type="text/css">
	.st0{fill:#3d3939;}
</style>
<g id="_x38_jM3pc.tif">
	<g>
		<path class="st0" d="M85.2,40.1c0.1,0,0.2-0.1,0.3-0.1c1.3,0,2.5,0,3.8,0c0,6.2,0,12.4,0,18.6c0.2,0,0.4,0,0.6,0
			c2.5,0,5.1,0,7.6,0c0.5,0,0.6,0.1,0.6,0.6c0,0.9,0,1.9,0,2.9c-0.2,0-0.4,0-0.6,0c-3.9,0-7.8,0-11.8,0c-0.2,0-0.4-0.1-0.6-0.1
			C85.2,54.6,85.2,47.4,85.2,40.1z"/>
		<path class="st0" d="M266.5,47c0,3.3,0,6.5,0,9.7c0,1.6,0,3.2,0,4.8c0,0.4-0.1,0.5-0.5,0.5c-1,0-2.1,0-3.2,0c0-0.2,0-0.4,0-0.6
			c0-6.9,0-13.9,0-20.8c0-0.5,0.1-0.7,0.6-0.6c0.6,0,1.1,0,1.7,0c0.5,0,0.9,0.2,1.3,0.6c3.7,4.8,7.5,9.5,11.2,14.3
			c0.1,0.1,0.1,0.2,0.2,0.1c0-0.4,0-0.9,0-1.3c0-4.4,0-8.8,0-13.2c0-0.4,0.1-0.5,0.5-0.5c0.9,0,1.8,0,2.6,0c0.4,0,0.6,0.1,0.6,0.6
			c0,3.8,0,7.6,0,11.4c0,3.2,0,6.3,0,9.5c0,0.2,0,0.4,0,0.7c-0.9,0-1.8,0.1-2.6,0c-0.4,0-0.8-0.4-1-0.7c-2.7-3.4-5.4-6.7-8-10.1
			c-1-1.3-2.1-2.7-3.1-4C266.6,47.1,266.6,47.1,266.5,47z"/>
		<path class="st0" d="M221.7,39.8c6.5,0,11.1,4.7,11.1,11.3c0,6.6-4.7,11.3-11.3,11.2c-6.5,0-11.2-4.8-11.2-11.3
			C210.4,44.3,215,39.7,221.7,39.8z M221.7,58.7c2.9,0.1,5.3-1.5,6.3-4.3c0.8-2.2,0.8-4.5,0-6.7c-0.5-1.5-1.4-2.7-2.7-3.5
			c-1.2-0.7-2.6-1-4-0.9c-2.5,0.1-4.4,1.1-5.6,3.4c-0.6,1.2-0.9,2.5-0.9,3.9c-0.1,1.8,0.2,3.6,1.2,5.2
			C217.2,57.8,219.1,58.7,221.7,58.7z"/>
		<path class="st0" d="M157.5,62c0-0.2,0-0.4,0-0.6c0-6.9,0-13.8,0-20.8c0-0.5,0.2-0.6,0.7-0.6c4.3,0,8.5,0,12.8,0
			c0.5,0,0.6,0.1,0.6,0.6c0,0.9,0,1.8,0,2.7c-3.3,0-6.5,0-9.8,0c0,2.1,0,4,0,6.1c2.6,0,5.1,0,7.7,0c0,1.1,0,2.1,0,3.1
			c-0.2,0-0.4,0-0.6,0c-2.2,0-4.4,0-6.5,0c-0.4,0-0.6,0.1-0.6,0.6c0,1.7,0,3.4,0,5.1c0,0.4,0.1,0.6,0.6,0.6c2.9,0,5.8,0,8.7,0
			c0.5,0,0.6,0.1,0.6,0.6c0,0.9,0,1.8,0,2.7C166.8,62,162.2,62,157.5,62z"/>
		<path class="st0" d="M125,40c0.5,0,0.9,0,1.4,0c0.6,0,1.1,0,1.7,0c1,0,1.4,0.3,1.7,1.2c0.7,1.7,1.3,3.5,2,5.2
			c1.1,2.8,2.2,5.6,3.3,8.5c0.3,0.7,0.5,1.5,0.7,2.2c0.5-1.3,0.9-2.6,1.3-3.8c1.5-4.1,3.1-8.1,4.7-12.2c0.2-0.6,0.7-1,1.4-1
			c1,0,2.1,0,3.1,0c0.1,0,0.1,0,0.3,0.1c-0.3,0.8-0.6,1.5-0.9,2.2c-2.6,6.4-5.2,12.8-7.8,19.2c-0.2,0.4-0.4,0.6-0.9,0.6
			c-0.9,0-1.8,0-2.7,0c-0.4,0-0.5-0.1-0.6-0.4c-1.8-4.4-3.6-8.9-5.4-13.3c-1.1-2.6-2.1-5.2-3.1-7.8C125.1,40.4,125.1,40.2,125,40z"
			/>
		<path class="st0" d="M192.9,39.7c2.7,0,5.1,0.8,7.1,2.6c0.3,0.3,0.3,0.5,0.1,0.8c-0.4,0.4-0.7,0.9-1,1.4c-0.5,0.7-1,0.7-1.7,0.4
			c-0.9-0.4-1.7-1-2.7-1.2c-2.2-0.6-4.3-0.2-6.1,1.3c-1.2,1-1.8,2.3-2.1,3.8c-0.4,2.1-0.4,4.2,0.5,6.2c1.2,2.7,3.9,4.2,6.8,3.9
			c1.5-0.2,2.8-0.6,3.9-1.6c0.6-0.5,1-0.4,1.5,0.1c0.4,0.4,0.8,0.9,1.2,1.3c0.2,0.2,0.2,0.4,0,0.6c-1.5,1.7-3.4,2.6-5.6,3
			c-2.1,0.3-4.1,0.2-6.1-0.5c-3.1-1.1-5.1-3.2-6.1-6.3c-1.1-3.3-1-6.7,0.5-9.9c1.5-3.1,4.1-5,7.6-5.5
			C191.5,39.8,192.2,39.8,192.9,39.7z"/>
		<path class="st0" d="M245,40c1.4,0,2.8,0,4.2,0c0,7.3,0,14.7,0,22.1c-1.4,0-2.8,0-4.2,0C245,54.7,245,47.4,245,40z"/>
		<path class="st0" d="M114,62c-1.4,0-2.7,0-4.1,0c0-7.3,0-14.6,0-21.9c1.4,0,2.7,0,4.1,0C114,47.4,114,54.7,114,62z"/>
	</g>
</g>
<path class="st0" d="M37.1,26.3C23.8,26.3,13,37.1,13,50.5s10.8,24.2,24.2,24.2s24.2-10.8,24.2-24.2S50.5,26.3,37.1,26.3z M37.1,71
	c-11.3,0-20.5-9.2-20.5-20.5S25.8,30,37.1,30s20.5,9.2,20.5,20.5S48.4,71,37.1,71z"/>
<polygon class="st0" points="34.7,46.9 34.7,58 38.5,58 38.5,43.9 "/>
<polygon class="st0" points="29.2,51.1 29.2,58 33.1,58 33.1,48.1 "/>
<polygon class="st0" points="40.1,42.6 40.1,58 44,58 44,39.6 "/>
</svg>
