<?xml version="1.0" encoding="utf-8"?>
<!-- Generator: Adobe Illustrator 24.1.0, SVG Export Plug-In . SVG Version: 6.00 Build 0)  -->
<svg version="1.1" id="Ebene_1" xmlns="http://www.w3.org/2000/svg" xmlns:xlink="http://www.w3.org/1999/xlink" x="0px" y="0px"
	 width="300px" height="100px" viewBox="0 0 300 100" style="enable-background:new 0 0 300 100;" xml:space="preserve">
<style type="text/css">
	.st0{fill:#3d3939;}
</style>
<g id="bnetR1.tif">
	<g>
		<path class="st0" d="M40.9,20c-0.1,0.1-0.1,0.3-0.2,0.3c-2.4,1.6-3.7,3.9-4.3,6.6c-1.1,5.2-0.9,10.3,1.3,15.1
			c1.5,3.4,3.7,6.4,7,8.3c2.5,1.4,5.2,1.4,7.7,0.1c0.4-0.2,0.9-0.6,1.2-1c0.4-0.5,0.1-0.9-0.5-0.9c-0.3,0-0.6,0-1,0
			c0.4-0.4,0.7-0.8,1.1-1.1c1.3-1.2,2.6-2.3,3.9-3.5c0.8-0.8,1.4-1.7,1.8-2.9c-0.2,0-0.3,0-0.4,0c-0.1,0-0.2,0-0.3,0.1
			c0-0.2,0.1-0.5,0.1-0.7c0.2-2.3-1.2-4-3.5-4.1c-1.5,0-3.1,0.1-4.6,0.2c-0.4,0-0.7,0-1.1,0.1c0.4-1.4,0.9-2.7,1.9-3.8
			c0.4-0.4,0.7-0.8,1.1-1.1c0.5-0.5,0.8-0.9,1-1.6c0.4-1.4,1.5-2.3,2.8-2.8c3.5-1.3,6.7-1,9.6,1.6c4.8,4.3,7.4,9.7,8.3,16
			c0.7,5.4,0,10.6-2.1,15.6c-1.8,4.2-4.4,7.8-7.9,10.8c-4.1,3.6-8.9,5.9-14.2,6.8c-8.9,1.5-17.1-0.5-24.2-6.2
			c-2.7-2.1-5-4.7-6.8-7.9c0.5,0.2,0.9,0.4,1.3,0.5c2.8,0.7,5.5,1.1,8.4,0.7c1.5-0.2,3.1,0,4.7,0c0.1,0,0.3,0,0.4,0
			c-1.6-0.6-3.2-1-5-0.9c-2.5,0.2-4.6-0.7-6.5-2.3c-3.9-3.4-6.1-7.6-6.9-12.7c0-0.1-0.1-0.2-0.1-0.3c0-0.2,0-0.4,0-0.6
			c0.1,0.1,0.3,0.2,0.4,0.4c0.2,0.4,0.4,0.8,0.7,1.2c1,1.8,2.4,3,4.6,3c0.4,0,0.7,0.1,1.1,0.2c1.6,0.6,3.2,1.2,4.8,1.8
			c0.2,0.1,0.4,0.2,0.6,0.3c-0.1-0.2-0.2-0.3-0.4-0.4c-2.4-1.6-4.6-3.4-6.5-5.5c-1.6-1.8-2.6-3.7-2.8-6.1c-0.1-1.9,0-3.7,0.4-5.6
			c0.2-0.8,0.4-1.6,0.5-2.4c0.6,3.4,1.6,6.5,3.7,9.2c2.1,2.7,4.6,4.7,7.7,6.1c0.1-0.1,0.2-0.2,0.2-0.3c-0.2-0.1-0.5-0.2-0.6-0.4
			c-1.4-1.6-2.9-3.3-4.2-5c-1.6-2.1-2.5-4.4-2.8-7c-0.3-3,0.2-5.9,1.5-8.6c0.3-0.8,0.8-1.5,1.2-2.2c0.1,0,0.1,0,0.2,0.1
			c-0.1,2.9-0.1,5.7,1.1,8.4c1.1,2.7,3,4.8,5.1,6.9c-0.8-1.6-1.5-2.9-2.1-4.3c-0.8-1.9-1.6-3.9-1.7-6c-0.1-3.5,1.3-6.5,3.4-9.2
			c0.1-0.1,0.2-0.2,0.4-0.3C31.1,22.8,31,23,31,23.1c-1.5,4.6-0.8,9.1,1,13.4c0.2,0.6,0.7,1.1,1.1,1.6c0.1,0,0.1-0.1,0.2-0.1
			c0-0.3-0.1-0.5-0.1-0.8c-0.5-3.2-0.6-6.3,0.2-9.5c0.6-2.5,1.7-4.8,4-6.3c1-0.7,2.2-1.1,3.4-1.6C40.8,20,40.9,20,40.9,20z"/>
		<path class="st0" d="M145.6,56.7c2.1,3.3,4.2,6.6,6.4,9.9c-0.3,0-0.4,0-0.6,0c-2.6,0-5.3,0-7.9,0c-0.5,0-0.7-0.2-0.9-0.6
			c-1.3-2.5-2.6-4.9-3.9-7.4c-0.2-0.4-0.5-0.6-1-0.6c-1.7,0-3.5,0-5.3,0c0,2.8,0,5.6,0,8.4c-2.7,0-5.3,0-8,0c0-10.2,0-20.3,0-30.5
			c0.1,0,0.3,0,0.4,0c4.8,0,9.6,0,14.4,0c2.1,0,4.2,0.4,6.1,1.3c3.3,1.6,5.2,4.2,5.6,7.9c0.3,3-0.1,5.9-1.9,8.3
			c-0.7,0.9-1.6,1.6-2.5,2.4C146.3,56.4,145.9,56.5,145.6,56.7z M132.5,51.8c2.3,0,4.6,0.1,6.9,0c1.1,0,2.1-0.5,2.9-1.3
			c1.4-1.6,1.4-3.4,0.8-5.3c-0.6-1.8-2.1-2.5-3.9-2.6c-2.1-0.1-4.3-0.1-6.4-0.1c-0.1,0-0.2,0-0.3,0.1
			C132.5,45.7,132.5,48.7,132.5,51.8z"/>
		<path class="st0" d="M167.8,42.5c0,1.9,0,3.8,0,5.7c4.9,0,9.7,0,14.6,0c0,2.1,0,4.2,0,6.4c-4.9,0-9.7,0-14.6,0c0,1.9,0,3.8,0,5.7
			c5.5,0,11.1,0,16.6,0c0,2.2,0,4.2,0,6.4c-8.2,0-16.4,0-24.7,0c0-10.2,0-20.3,0-30.5c8.1,0,16.1,0,24.2,0c0,2.1,0,4.2,0,6.3
			C178.6,42.5,173.2,42.5,167.8,42.5z"/>
		<path class="st0" d="M205.9,57.3c-0.2,0.4-0.5,0.7-0.7,1c-1.8,2.6-3.6,5.3-5.3,7.9c-0.3,0.4-0.5,0.6-1,0.6c-2.7,0-5.3,0-8,0
			c-0.2,0-0.4,0-0.7,0c0.2-0.3,0.4-0.6,0.6-0.9c3.3-4.7,6.6-9.5,10-14.2c0.3-0.4,0.3-0.6,0-1c-3.2-4.6-6.3-9.3-9.5-13.9
			c-0.1-0.2-0.2-0.3-0.4-0.6c0.3,0,0.4,0,0.6,0c2.7,0,5.5,0,8.2,0c0.4,0,0.6,0.1,0.9,0.5c1.6,2.5,3.3,5,5,7.5
			c0.1,0.2,0.3,0.4,0.5,0.7c1.6-2.4,3.3-4.7,4.7-7.1c0.7-1.2,1.5-1.6,2.9-1.6c2.3,0.1,4.6,0,6.9,0c0.2,0,0.4,0,0.7,0
			c-0.2,0.3-0.3,0.5-0.4,0.7c-3.1,4.5-6.2,9-9.3,13.4c-0.3,0.4-0.3,0.7,0,1c3.4,4.9,6.8,9.8,10.2,14.7c0.1,0.2,0.3,0.4,0.4,0.7
			c-0.3,0-0.4,0-0.6,0c-2.8,0-5.6,0-8.4,0c-0.4,0-0.7-0.2-0.9-0.5c-1.9-2.8-3.9-5.6-5.8-8.4C206.2,57.7,206,57.5,205.9,57.3z"/>
		<path class="st0" d="M112.7,56.6c1.6,1.7,3.1,3.3,4.7,5c-1.2,1.3-2.5,2.3-3.9,3.1c-4.2,2.5-8.6,3.3-13.3,2
			c-6.4-1.8-10.4-6-11.4-12.7c-1-6.5,1.1-11.9,6.6-15.6c4.1-2.8,8.6-3.4,13.4-2.3c3.2,0.7,6,2.2,8.3,4.5c0.1,0.1,0.2,0.2,0.3,0.3
			c-1.5,1.8-3.1,3.7-4.6,5.5c-0.5-0.5-1-1-1.5-1.4c-1.8-1.6-3.9-2.7-6.4-2.6c-3.4,0.1-5.9,1.8-7.3,4.9c-1.3,2.9-1.2,5.8,0.3,8.6
			c2,3.7,6.4,5.2,10.5,3.5C110,58.8,111.4,57.8,112.7,56.6z"/>
		<path class="st0" d="M227.5,66.7c0-1.7,0-3.3,0-4.9c0-0.2,0.2-0.5,0.4-0.7c3.5-3.6,7-7.1,10.5-10.7c1-1.1,2-2.2,2.7-3.5
			c1.4-2.4,0.4-4.3-2.4-4.4c-2.2-0.1-4.1,0.6-5.9,1.7c-1,0.6-2,1.3-3.1,2.1c-1-1.9-2-3.9-3-5.8c2.3-1.7,4.8-3,7.5-3.8
			c3.1-0.9,6.1-1.1,9.2-0.3c2.1,0.5,3.9,1.5,5.2,3.2c1.7,2.1,1.9,4.5,1.1,7c-0.9,2.5-2.6,4.6-4.4,6.5c-2.2,2.3-4.5,4.5-6.7,6.8
			c-0.2,0.2-0.4,0.3-0.6,0.4c0,0.1,0.1,0.1,0.1,0.2c4.3,0,8.6,0,12.9,0c0,2.2,0,4.3,0,6.4C243.1,66.7,235.3,66.7,227.5,66.7z"/>
		<path class="st0" d="M269.8,47.6c2.5,0,4.9,0,7.4,0c0,2.1,0,4.2,0,6.4c1.3,0,2.6,0,3.9,0c0,2.1,0,4,0,6.1c-1.3,0-2.6,0-3.9,0
			c0,2.2,0,4.3,0,6.5c-2.5,0-4.9,0-7.4,0c0-2.2,0-4.3,0-6.5c-4.7,0-9.3,0-13.9,0c0-1.2,0.1-2.3,0-3.4c-0.1-1.4,0.2-2.6,0.8-3.8
			c2.6-5.4,5.1-10.8,7.7-16.3c0.2-0.4,0.4-0.5,0.9-0.5c2.3,0,4.6,0,7.1,0c-2.7,6-5.5,11.9-8.2,17.9c1.9,0,3.8,0,5.7,0
			C269.8,51.9,269.8,49.8,269.8,47.6z"/>
	</g>
</g>
</svg>
