<?xml version="1.0" encoding="utf-8"?>
<!-- Generator: Adobe Illustrator 24.3.0, SVG Export Plug-In . SVG Version: 6.00 Build 0)  -->
<svg version="1.1" id="Layer_1" xmlns="http://www.w3.org/2000/svg" xmlns:xlink="http://www.w3.org/1999/xlink" x="0px" y="0px"
	 viewBox="0 0 512 512" style="enable-background:new 0 0 512 512;" xml:space="preserve">
<style type="text/css">
	.st0{fill:#3D3939;}
</style>
<path class="st0" d="M464.7,265.5l2.3,6.4c6.2,16.9,20.8,29.7,37.9,33.2v-21c-12.1-4.1-20.6-15.5-20.6-28c0-12.5,8.6-23.9,20.6-28
	V207c-17.5,3.3-31.8,15.2-37.9,31.8l-2.3,6.4H345.8c-1.1-9-3.5-17.6-7-25.5l103-59.5l5.2,4.4c13.8,11.7,32.4,15,48.3,9.6l-10.5-18.3
	c-12.3,2.4-24.9-3.3-31.2-14.3c-6.3-10.9-4.9-24.7,3.3-34.1l-10.5-18.3c-13.1,11.5-19.2,29.1-16,46.7l1.2,6.7L328.6,202
	c-5.4-7.3-12-13.7-19.3-19.1l59.6-103.2l8,1.4c2.9,0.5,5.4,1,7.6,1c14.5,0,28.3-6.3,37.7-17.1l-18.3-10.5
	c-9.4,8.2-23.2,9.6-34.1,3.3c-11-6.3-16.6-18.9-14.3-31.2L337.2,16c-5.6,16.5-2.1,34.8,9.5,48.4l4.4,5.2l-59.6,103.2
	c-7.9-3.4-16.5-5.7-25.4-6.7V46.6l6.4-2.3c16.6-6.1,28.5-20.4,31.8-37.9h-21.1c-4.1,12.1-15.5,20.6-28,20.6
	c-12.5,0-23.9-8.6-28-20.6h-21c3.5,17,16.2,31.7,33.2,37.9l6.4,2.3v119.5c-9.4,1.1-18.3,3.5-26.6,7.2L159.3,69.6l4.4-5.2
	c11.6-13.6,15.1-31.9,9.5-48.4L155,26.5c0.8,4.4,0.7,8.9-0.5,13.3c-2.1,7.6-7,14-13.8,17.9c-11,6.3-24.7,4.9-34.2-3.3L88.3,65
	c9.4,10.7,23.3,17.1,37.7,17.1c2.3,0,4.8-0.5,7.7-1l7.9-1.4l60,104c-7.1,5.4-13.4,11.7-18.7,18.9l-104-60.1l1.2-6.7
	c3.2-17.6-2.9-35.2-16-46.7l-10.6,18.3c8.2,9.5,9.6,23.2,3.2,34.2c-6.3,11-18.9,16.7-31.2,14.3l-10.5,18.2
	c16.5,5.6,34.8,2.2,48.4-9.5l5.2-4.5l104.1,60.1c-1.9,4.4-3.5,9-4.6,13.8c-0.4,1.1-0.7,2.1-0.9,3.2l-1.6,7.8H45.8l-2.3-6.4
	c-5.9-16.5-19.7-28.4-36.4-31.7v21.1c11.5,4.1,19.1,15,19.1,27.9c0,12.9-7.6,23.8-19.1,27.9v21c16.5-3.5,30.3-15.9,36.4-33.1
	l2.3-6.4h119.9l0.8,4.1c1.2,7.8,3.3,15.2,6.4,22.2L68.7,352l-5.2-4.5c-13.6-11.6-31.9-15.1-48.4-9.5l10.5,18.2
	c12.2-2.4,24.8,3.3,31.2,14.3c6.3,11,4.9,24.7-3.2,34.2L64.2,423c13.1-11.5,19.2-29.1,16-46.7l-1.2-6.7l104.1-60.1
	c5.3,7.2,11.5,13.5,18.7,18.9l-60,104l-6.7-1.2c-17.6-3.2-35.2,2.9-46.7,16l18.2,10.6c9.4-8.2,23.2-9.6,34.2-3.2
	c11,6.4,16.6,19,14.3,31.2l18.3,10.5c5.6-16.5,2.2-34.8-9.4-48.4l-4.4-5.2l60-103.9c7.9,3.5,16.3,5.9,25.2,7v119.8l-6.4,2.3
	c-16.3,5.8-28.6,20.4-31.9,37.8h21.1c4.1-12.2,15.3-20.5,28-20.5c12.7,0,23.9,8.3,28,20.5h21c-3.5-17.2-16.1-31.8-32.9-37.8
	l-6.4-2.3V346c9.4-0.9,18.3-3.2,26.6-6.8l59.7,103.3l-4.4,5.2c-11.6,13.6-15.1,31.9-9.5,48.4l18.3-10.5
	c-2.4-12.3,3.3-24.9,14.3-31.2c10.9-6.4,24.6-5,34.1,3.3l18.3-10.6c-11.5-13.1-29.1-19.2-46.7-16l-6.7,1.2l-59.6-103.2
	c7.3-5.3,13.8-11.7,19.3-19l103,59.5l-1.2,6.7c-3.2,17.6,2.9,35.2,16,46.7l10.5-18.3c-8.2-9.5-9.6-23.2-3.3-34.2
	c6.4-11,19-16.6,31.2-14.3l10.5-18.2c-16.5-5.6-34.8-2.1-48.4,9.5l-5.2,4.4l-102.9-59.4c3.7-8.4,6.2-17.5,7.2-27H464.7z M256,323
	c-37,0-67-30-67-67c0-37,30-67,67-67s67,30,67,67C323,293,293,323,256,323z"/>
</svg>
