<svg width="1500" height="881" viewBox="0 0 1500 881" fill="none" xmlns="http://www.w3.org/2000/svg">
<path d="M1350 740H750V140H750.2C1081.5 140 1350 408.7 1350 740Z" fill="#CBDBE8"/>
<path d="M750 140V740H150V739.8C150 408.6 418.6 140 750 140Z" fill="#DFEBF2"/>
<path d="M842.8 297H471.6V565.4H842.8V297Z" fill="#9B1C2E"/>
<path d="M1130.19 634.596C1102.66 669.469 1038.7 665.557 1002.88 637.281C967.068 609.004 947.616 550.523 975.149 515.65C1002.68 480.776 1067.11 482.289 1102.93 510.566C1138.74 538.843 1157.72 599.722 1130.19 634.596Z" fill="#ED8D47"/>
<path d="M1183 555.089C1218.24 568.504 1165.25 603.822 1131.86 613.747L1123.35 542.363C1130.21 545.053 1147.77 541.674 1183 555.089Z" fill="#ED8D47"/>
<path d="M1043.29 444.473C1022.06 413.308 1000.01 473.052 998.099 507.836L1069.51 499.551C1065.3 493.5 1064.51 475.637 1043.29 444.473Z" fill="#ED8D47"/>
<path d="M1040.47 454.788C1026.68 434.502 1012.25 473.466 1010.97 496.138L1057.48 490.655C1054.74 486.716 1054.25 475.075 1040.47 454.788Z" fill="#EC6E5D"/>
<path d="M1175.18 561.149C1198.11 569.851 1163.56 592.931 1141.8 599.439L1136.35 552.924C1140.81 554.669 1152.25 552.446 1175.18 561.149Z" fill="#EC6E5D"/>
<path d="M1112.91 656.278C1087.96 673.979 1036.93 671.089 1000.51 642.335C964.093 613.581 947.032 574.485 960.433 535.89C966.962 507.801 1017.32 546.17 1053.73 574.925C1090.15 603.679 1135.55 640.215 1112.91 656.278Z" fill="#FFF6C5"/>
<ellipse cx="1034.42" cy="599.843" rx="55.2683" ry="53.8162" transform="rotate(38.2921 1034.42 599.843)" fill="#FFF6C5"/>
<path d="M1053.12 581.366C1060 586.799 1070.78 584.984 1069.64 576.292V576.292C1068.94 570.931 1066.13 566.012 1061.83 562.617C1057.53 559.222 1052.09 557.63 1046.72 558.19V558.19C1038 559.098 1038.73 570.008 1045.62 575.44L1049.37 578.403L1053.12 581.366Z" fill="#454545"/>
<path d="M1054.19 573.203L1037.34 594.535" stroke="#454545" stroke-width="5" stroke-linecap="round"/>
<path d="M1046.69 517.104C1054.25 521.551 1064.64 518.257 1062.29 509.773V509.773C1060.84 504.543 1057.38 500.045 1052.66 497.268C1047.94 494.491 1042.35 493.663 1037.13 494.967V494.967C1028.65 497.081 1030.92 507.823 1038.48 512.27L1042.58 514.687L1046.69 517.104Z" fill="#FFF6C5"/>
<ellipse cx="1027.47" cy="528.214" rx="14.2358" ry="18.7541" transform="rotate(38.2921 1027.47 528.214)" fill="#454545"/>
<ellipse rx="7.25262" ry="9.7916" transform="matrix(0.871878 0.489723 -0.482371 0.875967 1032.48 527.43)" fill="white"/>
<path d="M1113.34 569.768C1107.26 563.447 1108.05 552.578 1116.85 552.892V552.892C1122.27 553.087 1127.45 555.413 1131.25 559.359C1135.04 563.305 1137.14 568.548 1137.09 573.935V573.935C1137 582.672 1126.02 582.958 1119.94 576.637L1116.64 573.202L1113.34 569.768Z" fill="#FFF6C5"/>
<ellipse rx="14.2358" ry="18.7541" transform="matrix(-0.784862 -0.61967 -0.61967 0.784862 1106.99 591.045)" fill="#454545"/>
<ellipse rx="7.24496" ry="9.80248" transform="matrix(-0.915332 -0.402699 -0.390537 0.920587 1111.36 586.939)" fill="white"/>
<path d="M1036.8 593.417L1019.18 587.812C1015.31 594.22 1006.19 610.113 1015.83 617.724C1025.47 625.335 1036.9 619.12 1045.91 608.915L1036.8 593.417Z" fill="#EC6E5D"/>
<path d="M1064.52 606.398C1054.37 610.706 1035.41 608.734 1039.08 592.362" stroke="#454545" stroke-width="5" stroke-linecap="round"/>
<path d="M1018.61 570.421C1016.77 581.289 1023.09 599.276 1038.16 591.911" stroke="#454545" stroke-width="5" stroke-linecap="round"/>
<ellipse cx="991.569" cy="548.006" rx="16.1897" ry="7.61036" transform="rotate(38.2921 991.569 548.006)" fill="#FFA89D"/>
<ellipse rx="16.1897" ry="7.61036" transform="matrix(-0.784862 -0.61967 -0.61967 0.784862 1095.85 630.34)" fill="#FFA89D"/>
<path d="M1028.4 401.7H657.2V670.1H1028.4V401.7Z" fill="#C9D3DC"/>
<path d="M842.8 401.7H657.2V565.5H842.8V401.7Z" fill="#DDEDF2"/>
<path d="M1028.4 672.6H657.2C655.8 672.6 654.7 671.5 654.7 670.1V401.7C654.7 400.3 655.8 399.2 657.2 399.2H803.7C805.1 399.2 806.2 400.3 806.2 401.7C806.2 403.1 805.1 404.2 803.7 404.2H659.7V667.6H1025.9V404.2H842.8C841.4 404.2 840.3 403.1 840.3 401.7C840.3 400.3 841.4 399.2 842.8 399.2H1028.4C1029.8 399.2 1030.9 400.3 1030.9 401.7V670.1C1030.9 671.5 1029.8 672.6 1028.4 672.6Z" fill="black"/>
<path d="M784.6 424C784 424 783.3 423.8 782.8 423.3C781.8 422.3 781.8 420.7 782.8 419.8L800.8 401.8L782.8 383.8C782.3 383.3 782.1 382.7 782.1 382C782.1 381.3 782.3 380.7 782.8 380.2C783.8 379.2 785.4 379.2 786.3 380.2L806.1 400C806.6 400.5 806.8 401.1 806.8 401.8C806.8 402.5 806.6 403.1 806.1 403.6L786.3 423.4C785.9 423.7 785.3 424 784.6 424Z" fill="black"/>
<path d="M842.8 567.9H696.3C694.9 567.9 693.8 566.8 693.8 565.4C693.8 564 694.9 562.9 696.3 562.9H840.3V299.5H474.1V562.9H657.2C658.6 562.9 659.7 564 659.7 565.4C659.7 566.8 658.6 567.9 657.2 567.9H471.6C470.2 567.9 469.1 566.8 469.1 565.4V297C469.1 295.6 470.2 294.5 471.6 294.5H842.8C844.2 294.5 845.3 295.6 845.3 297V565.4C845.3 566.8 844.2 567.9 842.8 567.9Z" fill="black"/>
<path d="M715.4 587.7C714.8 587.7 714.1 587.5 713.6 587L693.8 567.2C693.3 566.7 693.1 566.1 693.1 565.5C693.1 564.9 693.4 564.2 693.8 563.8L713.6 544C714.6 543 716.2 543 717.1 544C718 545 718.1 546.6 717.1 547.5L699.1 565.5L717.1 583.5C717.6 584 717.8 584.6 717.8 585.3C717.8 586 717.6 586.6 717.1 587.1C716.6 587.6 716 587.7 715.4 587.7Z" fill="black"/>
<path d="M620.4 381.7H549.6C547.4 381.7 545.6 379.9 545.6 377.7C545.6 375.5 547.4 373.7 549.6 373.7H620.4C622.6 373.7 624.4 375.5 624.4 377.7C624.4 379.9 622.6 381.7 620.4 381.7Z" fill="#DDEDF2"/>
<path d="M657.199 341.6H606.399C604.199 341.6 602.399 339.8 602.399 337.6C602.399 335.4 604.199 333.6 606.399 333.6H657.199C659.399 333.6 661.199 335.4 661.199 337.6C661.199 339.8 659.399 341.6 657.199 341.6Z" fill="#DDEDF2"/>
<path d="M564.3 421.6H513.6C511.4 421.6 509.6 419.8 509.6 417.6C509.6 415.4 511.4 413.6 513.6 413.6H561.8L602.9 335.7C603.9 333.7 606.4 333 608.3 334C610.3 335 611 337.4 610 339.4L567.8 419.4C567.1 420.7 565.7 421.6 564.3 421.6Z" fill="#DDEDF2"/>
<path d="M910.7 570.8C908.5 570.8 906.7 569 906.7 566.8V526C906.7 523.8 908.5 522 910.7 522C912.9 522 914.7 523.8 914.7 526V566.8C914.7 569 912.9 570.8 910.7 570.8Z" fill="black"/>
<path d="M981.9 529.9H910.7C908.5 529.9 906.7 528.1 906.7 525.9C906.7 523.7 908.5 521.9 910.7 521.9H981.9C984.1 521.9 985.9 523.7 985.9 525.9C985.9 528.1 984.1 529.9 981.9 529.9Z" fill="black"/>
<path d="M981.9 570.8H910.7C908.5 570.8 906.7 569 906.7 566.8C906.7 564.6 908.5 562.8 910.7 562.8H981.9C984.1 562.8 985.9 564.6 985.9 566.8C985.9 569 984.1 570.8 981.9 570.8Z" fill="black"/>
<path d="M981.9 608.9H910.7C908.5 608.9 906.7 607.1 906.7 604.9C906.7 602.7 908.5 600.9 910.7 600.9H981.9C984.1 600.9 985.9 602.7 985.9 604.9C985.9 607.1 984.1 608.9 981.9 608.9Z" fill="black"/>
<path d="M981.9 608.9C979.7 608.9 977.9 607.1 977.9 604.9V566.7C977.9 564.5 979.7 562.7 981.9 562.7C984.1 562.7 985.9 564.5 985.9 566.7V604.9C985.9 607.1 984.1 608.9 981.9 608.9Z" fill="black"/>
<path d="M946.3 635.3C944.1 635.3 942.3 633.5 942.3 631.3V499.5C942.3 497.3 944.1 495.5 946.3 495.5C948.5 495.5 950.3 497.3 950.3 499.5V631.3C950.3 633.6 948.5 635.3 946.3 635.3Z" fill="black"/>
<path d="M800.5 461.5H699.5C698.1 461.5 697 460.4 697 459C697 457.6 698.1 456.5 699.5 456.5H800.6C802 456.5 803.1 457.6 803.1 459C803.1 460.4 801.9 461.5 800.5 461.5Z" fill="black"/>
<path d="M800.5 486H699.5C698.1 486 697 484.9 697 483.5C697 482.1 698.1 481 699.5 481H800.6C802 481 803.1 482.1 803.1 483.5C803.1 484.9 801.9 486 800.5 486Z" fill="black"/>
<path d="M800.5 510.6H699.5C698.1 510.6 697 509.5 697 508.1C697 506.7 698.1 505.6 699.5 505.6H800.6C802 505.6 803.1 506.7 803.1 508.1C803.1 509.5 801.9 510.6 800.5 510.6Z" fill="black"/>
</svg>
