<?xml version="1.0" encoding="utf-8"?>
<!-- Generator: Adobe Illustrator 24.3.0, SVG Export Plug-In . SVG Version: 6.00 Build 0)  -->
<svg version="1.1" id="Layer_1" xmlns="http://www.w3.org/2000/svg" xmlns:xlink="http://www.w3.org/1999/xlink" x="0px" y="0px"
	 viewBox="0 0 512 512" style="enable-background:new 0 0 512 512;" xml:space="preserve">
<style type="text/css">
	.st0{fill:#3D3939;}
</style>
<g>
	<path class="st0" d="M460.5,7.1h-409C27,7.1,7.1,27,7.1,51.5v409c0,24.5,19.9,44.4,44.4,44.4h409c24.5,0,44.4-19.9,44.4-44.4v-409
		C504.9,27,485,7.1,460.5,7.1z M487.7,460.5c0,14.7-12.4,27.1-27.1,27.1h-409c-14.7,0-27.1-12.4-27.1-27.1v-409
		c0-14.7,12.4-27.1,27.1-27.1h409c14.7,0,27.1,12.4,27.1,27.1V460.5z"/>
	<path class="st0" d="M369.1,392.5H151.3V110.8c0-4.8-3.9-8.6-8.6-8.6c-4.8,0-8.6,3.9-8.6,8.6v275c0,12.9,10.3,23.5,23.1,24h211.9
		c4.8,0,8.6-3.9,8.6-8.6C377.7,396.4,373.8,392.5,369.1,392.5z"/>
</g>
</svg>
