<?xml version="1.0" encoding="UTF-8" standalone="no"?>
<svg
   viewBox="0 0 1000 1000"
   version="1.1"
   id="svg1010"
   sodipodi:docname="web.svg"
   inkscape:version="1.2.2 (b0a8486541, 2022-12-01)"
   xmlns:inkscape="http://www.inkscape.org/namespaces/inkscape"
   xmlns:sodipodi="http://sodipodi.sourceforge.net/DTD/sodipodi-0.dtd"
   xmlns="http://www.w3.org/2000/svg"
   xmlns:svg="http://www.w3.org/2000/svg">
  <defs
     id="defs1014" />
  <sodipodi:namedview
     id="namedview1012"
     pagecolor="#ffffff"
     bordercolor="#666666"
     borderopacity="1.0"
     inkscape:showpageshadow="2"
     inkscape:pageopacity="0.0"
     inkscape:pagecheckerboard="0"
     inkscape:deskcolor="#d1d1d1"
     showgrid="false"
     inkscape:zoom="0.779"
     inkscape:cx="500"
     inkscape:cy="499.35815"
     inkscape:window-width="1920"
     inkscape:window-height="959"
     inkscape:window-x="0"
     inkscape:window-y="48"
     inkscape:window-maximized="1"
     inkscape:current-layer="svg1010" />
  <path
     d="M966 371l0 0q-1-2-1-5l0 0q-30-102-100-182-68-79-163-122-96-45-202-45l-2 0q-105 0-201 45-94 44-162 122-70 81-99 182l-2 5q-17 65-17 129 0 64 17 129l2 5 0 0q29 102 99 182 68 79 163.5 123 95.5 44 201.5 44 106 0 202-45 95-43 163-122 70-80 100-182l0 0q0-3 1-5l0 0q17-60 17-129.5 0-69.5-17-128.5z m-339-234q71 25 126 73 55 48 89 115l4 7-147 0-1-4q-27-102-77-184l-7-12 13 5z m-9 428l-1 4-234 0-1-4q-6-65 0-130l1-4 234 0 1 4q6 65 0 130z m-213-239q31-102 91-179l4-5 4 5q60 78 91 179l2 6-194 0 2-6z m-248-1q35-66 90.5-114.5 55.5-48.5 125.5-73.5l13-5-7 12q-53 87-77 185l-1 3-147 0 3-7z m-36 240q-6-32-6-65.5 0-33.5 6-64.5l1-4 162 0 0 5q-6 63 0 127l0 6-162 0-1-4z m252 298q-70-25-125.5-73.5-55.5-48.5-89.5-114.5l-4-7 147 0 1 3q26 103 77 185l7 12-13-5z m222-189q-31 102-91 179l-4 5-4-5q-60-77-91-179l-2-6 194 0-2 6z m248 1q-35 66-90.5 114.5-55.5 48.5-125.5 73.5l-13 5 7-12q53-87 77-185l1-3 147 0-3 7z m36-110l-1 4-162 0 0-5q6-63 0-128l0-5 162 0 1 4q6 33 6 65.5 0 32.5-6 64.5z"
     id="path1008"
     style="fill:#8c939a;fill-opacity:1" />
</svg>
