<?xml version="1.0" encoding="utf-8"?>
<!-- Generator: Adobe Illustrator 24.1.0, SVG Export Plug-In . SVG Version: 6.00 Build 0)  -->
<svg version="1.1" id="Ebene_1" xmlns="http://www.w3.org/2000/svg" xmlns:xlink="http://www.w3.org/1999/xlink" x="0px" y="0px"
	 width="300px" height="100px" viewBox="0 0 300 100" style="enable-background:new 0 0 300 100;" xml:space="preserve">
<style type="text/css">
	.st0{fill:#3d3939;}
</style>
<g id="SR6HEc.tif">
	<g>
		<path class="st0" d="M21.2,62.3c-0.1-4.5,1.3-8.6,3.8-12.4c0.4-0.7,0.5-0.9-0.3-1.4c-4.6-3-8.8-6.4-12-11c-2.4-3.4-4.5-7-5.7-11.1
			c-0.7-2.3-0.7-4.6,0.5-6.8c1.2-2.3,3.3-3.4,5.9-3.3c3,0.2,6.1,0.4,9.1,0.9c4.2,0.6,8.4,1.2,12.5,2.2c4.1,0.9,8.1,2.1,12.1,3.4
			c5.7,1.8,11,4.5,15.7,8.2c4.8,3.9,8.2,8.8,10.2,14.6c1.7,5,2.4,10.2,1.6,15.5c-1.3,8.1-5.4,14.2-12.3,18.6
			c-5.4,3.4-11.3,5.1-17.6,4.9c-6-0.2-11.6-2-16.1-6.1c-4.5-4-7.1-9-7.3-15.1C21.3,63,21.3,62.7,21.2,62.3z M67.4,57.4
			c0.1-5-1.1-9.2-3.1-13.2c-2.1-4.3-5.5-7.4-9.5-9.8c-4.8-3-10.1-4.9-15.6-6.3c-3.5-0.9-7-1.6-10.5-2.3c-2.9-0.6-5.8-1-8.7-1.4
			c-2.8-0.4-4.9,2.3-3.8,4.9c0.4,0.9,1,1.8,1.5,2.6c3.1,5.2,7.7,8.8,12.8,11.8c0.4,0.2,1.1,0.2,1.6,0c1.6-0.5,3.1-1.3,4.7-1.6
			c4.4-0.9,8.7-0.3,12.8,1.7c6.3,3.1,10.5,10.4,8.3,18c-1.4,4.6-4.1,7.8-8.6,9.5c-4.3,1.6-8.4,1-12.2-1.4c-1.7-1.1-2.1-3.3-1.1-4.9
			c1.1-1.8,3.4-2.3,5.4-1.2c1.9,1.1,4,1.3,6,0.4c2.8-1.3,3.7-3.7,3.8-6.5c0.1-2.3-0.9-4.3-2.6-5.8c-1.7-1.6-3.8-2.5-6.2-2.8
			c-4.6-0.5-8.3,1.1-10.9,4.8c-3.1,4.4-3.5,9.4-1.3,14.3c2.4,5.4,7,8,12.7,8.9c3.7,0.6,7.3,0.1,10.8-1.2c4.1-1.5,7.6-3.8,10.2-7.3
			C66.3,65,67.4,61.2,67.4,57.4z"/>
		<path class="st0" d="M188.3,43.7c0.1-0.3,0.2-0.7,0.4-1.1c0.7-1,1.8-1.3,2.9-1.3c1.1,0,1.7,0.7,2.1,1.7c0.9,2.6,1.7,5.2,2.6,7.7
			c0.3,0.7,0.6,1.5,1.1,2.1c0.4,0.6,0.7,0.1,0.8-0.3c1-2.9,1.9-5.8,2.8-8.7c0.7-2,2.3-3,3.9-2.2c0.7,0.4,1.4,1.2,1.7,2
			c0.9,2.3,1.6,4.7,2.4,7.1c0.3,0.8,0.6,1.5,1,2.2c0.1,0.1,0.3,0.3,0.3,0.2c0.2-0.1,0.3-0.2,0.4-0.4c0.9-2.9,1.9-5.7,2.8-8.6
			c0.2-0.7,0.5-1.4,0.8-2c0.7-1.1,1.7-1.4,3.1-0.8c1.2,0.5,2,1.5,1.7,2.5c-0.2,1-0.5,1.9-0.8,2.8c-1.1,3.2-2.2,6.3-3.3,9.5
			c-0.7,1.9-1.3,3.9-2,5.8c-0.1,0.2-0.2,0.5-0.3,0.7c-0.6,1.1-1.4,1.9-2.7,1.8c-1.3-0.1-2.1-0.9-2.5-2c-0.8-2-1.4-4.1-2.1-6.2
			c-0.4-1.1-0.7-2.2-1.1-3.2c0-0.1-0.7-0.2-0.8-0.1c-0.4,0.6-0.7,1.2-0.9,1.9c-0.9,2.5-1.8,5.1-2.7,7.6c-0.4,1.2-1.2,2-2.5,2
			c-1.3,0-2.2-0.8-2.7-2c-0.8-2-1.4-4-2.2-6c-0.7-1.9-1.4-3.9-2-5.8c-0.7-2.1-1.5-4.3-2.2-6.5C188.4,44.2,188.4,44,188.3,43.7z"/>
		<path class="st0" d="M98.8,53c0-2.7,0-5.4,0-8.2c0-0.6,0.1-1.2,0.2-1.8c0.3-1.2,1.2-1.8,2.3-1.7c3,0,6.1-0.1,9.1,0.4
			c3.7,0.7,6.4,3,7.9,6.6c2.2,5.1,0.4,11.2-3.9,14.2c-2.1,1.5-4.5,2.4-7.1,2.4c-1.7,0-3.4,0-5.1,0c-2.4,0-3.4-1-3.4-3.4
			C98.8,58.7,98.8,55.8,98.8,53z M104.5,52.8c0,1.7,0,3.4,0,5.1c0,0.6,0.1,1.4,1,1.4c1.4-0.1,2.8-0.2,4.1-0.5c2.3-0.6,3.6-2.4,4-4.5
			c0.9-4-2.4-7.6-6.1-7.5c-0.7,0-1.3,0-2,0c-0.8,0-1.1,0.3-1.1,1.1C104.6,49.5,104.5,51.2,104.5,52.8z"/>
		<path class="st0" d="M236.1,55.9c0,2.1,0,4.2,0,6.3c0,2.1-1.6,3.1-3.4,2.4c-1.7-0.7-3.1-0.6-4.9,0c-2.3,0.8-5.4-0.8-7-3.2
			c-2.4-3.5-2.2-7.3,0.4-10.6c2.1-2.6,5.1-3.4,8.3-2c0.6,0.2,0.9,0.3,1.5-0.1c1.1-0.7,2.2-1.1,3.5-0.6c0.9,0.4,1.5,1,1.5,2
			C236.1,52,236.1,53.9,236.1,55.9C236.1,55.9,236.1,55.9,236.1,55.9z M227.7,53.5c-1.6,0-3,1.5-3,3c0,1.3,1.6,2.7,3,2.7
			c1.3,0,2.8-1.6,2.7-3C230.4,54.8,229.1,53.5,227.7,53.5z"/>
		<path class="st0" d="M130.6,47.7c4.5-0.5,8.9,4,8.7,8.9c-0.2,4.7-3.9,8.5-8.7,8.5c-4.9,0-8.8-3.6-8.8-8.7
			C121.7,51,126.3,47.4,130.6,47.7z M130.5,53.2c-1.9,0-3.1,1.2-3.2,3c0,1.8,1.4,3.3,3.1,3.3c1.7,0,3.2-1.5,3.3-3.2
			C133.8,54.4,132.5,53.2,130.5,53.2z"/>
		<path class="st0" d="M269,47.7c2.2-0.2,4.3,0.4,5.9,2.2c1.4,1.5,1.9,3.3,1.7,5.3c-0.2,1.8-1.8,2.9-4.1,3c-1.8,0.1-3.7,0.1-5.5,0.2
			c-0.3,0-0.6,0.3-0.8,0.5c0.2,0.3,0.4,0.6,0.6,0.9c1.7,1.3,3.6,0.9,5.5,0.3c2-0.6,3.6,0.6,3.3,2.6c-0.1,1-1.2,2-2.6,2.2
			c-2.2,0.3-4.5,0.5-6.7,0.1c-3.2-0.7-6.2-4.2-6.3-7.4c-0.1-2.1,0.1-4.2,1.3-6C263.1,48.9,265.6,47.5,269,47.7z M268.3,55.2
			C268.3,55.2,268.3,55.2,268.3,55.2c0.5,0,1,0.1,1.5-0.1c0.4-0.1,1.1-0.5,1.1-0.7c0-0.5-0.3-1.2-0.7-1.4c-1-0.7-2.2-0.5-3.3,0.5
			c-0.3,0.3-0.5,0.8-0.8,1.2c0.5,0.2,0.9,0.4,1.4,0.5C267.7,55.2,268,55.2,268.3,55.2z"/>
		<path class="st0" d="M171.4,58.1c-1.2,0.1-2.3,0.2-3.5,0.3c-0.3,0-0.6,0.3-0.8,0.5c0.2,0.3,0.3,0.6,0.6,0.8
			c1.8,1.3,3.8,0.9,5.7,0.4c1.7-0.4,2.8,0.2,3.1,1.9c0.3,1.3-0.7,2.6-2.4,2.9c-2.2,0.4-4.4,0.6-6.6,0.1c-2.3-0.5-4-1.6-5.2-3.6
			c-2-3.2-1.9-7.5,0.3-10.2c1.7-2.1,3.9-3.3,6.7-3.4c1.8,0,3.6,0,5.3,1c2.3,1.4,3.6,4.7,2.7,7.3c-0.6,1.7-2,2.1-3.5,2.2
			C173,58.2,172.2,58.2,171.4,58.1C171.4,58.1,171.4,58.1,171.4,58.1z M169.4,55.2c0.4,0,0.9,0.1,1.3,0c0.5-0.1,1.1-0.4,1.2-0.7
			c0.2-0.6-0.1-1.2-0.8-1.6c-1.1-0.5-2.7-0.2-3.5,0.9c-0.2,0.3-0.4,0.8-0.3,0.9c0.2,0.3,0.6,0.4,1,0.5
			C168.6,55.2,169,55.2,169.4,55.2z"/>
		<path class="st0" d="M286.7,56.2c0.1,0.9,0.2,1.7,0.3,2.6c0,0.7,0.5,0.6,1,0.7c2.2,0.2,3.2,1.6,2.6,3.7c-0.3,1-1.1,1.5-2.1,1.6
			c-1.8,0.2-3.5-0.3-4.9-1.3c-1.3-0.9-1.9-2.2-2-3.8c-0.1-1.4-0.2-2.7-0.2-4.1c0-1.1-0.2-2-1.5-2.5c-1.2-0.4-1.6-1.6-1.5-2.8
			c0.1-1.2,0.7-2.1,1.8-2.4c1.1-0.2,1.1-0.9,1.2-1.7c0.1-0.7,0.1-1.4,0.2-2.1c0.2-1.3,0.7-1.9,1.9-2c1.8-0.1,3,0.4,3.2,1.7
			c0.2,1,0.3,2,0.3,3c0,0.8,0.3,1,1,1c0.7,0,1.5,0,2.2,0.2c1,0.2,1.4,1,1.5,2c0.1,2.8-0.1,3-3.2,3.2c-1.4,0.1-1.4,0.1-1.5,1.5
			C286.7,55.3,286.8,55.8,286.7,56.2C286.7,56.2,286.7,56.2,286.7,56.2z"/>
		<path class="st0" d="M150.1,57.7c1-1.8,1.9-3.6,2.8-5.3c0.6-1.1,1.2-2.3,1.9-3.4c0.8-1.2,2-1.5,3.2-0.8c1.4,0.7,2,2,1.4,3.3
			c-0.8,1.6-1.6,3.1-2.5,4.6c-1.3,2.2-2.7,4.5-4,6.7c-1.5,2.5-4,2.7-5.5,0.2c-2.2-3.6-4.3-7.3-6.4-11c-1.2-2.1,0.3-4.2,2.8-4.1
			c0.9,0.1,1.5,0.6,1.9,1.4C147.1,52,148.5,54.8,150.1,57.7z"/>
		<path class="st0" d="M248.3,50.4c0-2.6,0-5.2,0-7.8c-0.1-2.8,2.8-3.3,4.3-2.3c0.5,0.3,0.9,1.1,1,1.8c0.2,0.9,0.2,1.9,0.2,2.8
			c0,4.3,0,8.5,0,12.8c0,1,0.4,1.5,1.5,1.7c1.8,0.3,2.6,1.3,2.5,3.1c-0.1,1.3-1.2,2.2-2.9,2.2c-4.5,0.1-6.5-2.5-6.6-6.5
			C248.2,55.6,248.3,53,248.3,50.4z"/>
		<path class="st0" d="M245,49.7c0,2.2,0,4.3,0,6.5c0,0.8,0.1,1.6,0.2,2.3c0.1,0.4,0.4,0.8,0.7,0.9c1,0.6,1.5,1.8,1.2,3.4
			c-0.2,1.1-1.1,1.8-2.2,1.8c-2.8,0.1-4.7-1.4-5-4.2c-0.2-1.7-0.4-3.5-0.4-5.3c-0.1-3.8,0-7.6,0-11.4c0-0.6,0.1-1.3,0.2-1.9
			c0.3-1.3,1.5-2.1,2.9-1.9c1.5,0.2,2.4,1.2,2.4,2.9C245,45,245,47.4,245,49.7C245,49.7,245,49.7,245,49.7z"/>
	</g>
</g>
</svg>
