<svg id="Layer_1" data-name="Layer 1" xmlns="http://www.w3.org/2000/svg" viewBox="0 0 512 512"><defs><style>.cls-1{fill:#dfebf2;}.cls-2{fill:#99a4aa;stroke:#000;stroke-miterlimit:10;stroke-width:5px;fill-rule:evenodd;}</style></defs><circle class="cls-1" cx="256" cy="256" r="250"/><path class="cls-2" d="M395.4,186.79c-.76-16.69-3.55-25.76-5.9-31.79A56.64,56.64,0,0,0,357,122.5c-6-2.35-15.1-5.14-31.79-5.9-18.07-.81-23.49-1-69.21-1s-51.14.19-69.21,1c-16.69.76-25.76,3.55-31.79,5.9A56.56,56.56,0,0,0,122.5,155c-2.35,6-5.14,15.1-5.9,31.79-.81,18.07-1,23.49-1,69.21s.19,51.14,1,69.21c.76,16.69,3.55,25.76,5.9,31.79A56.56,56.56,0,0,0,155,389.5c6,2.35,15.1,5.14,31.79,5.9,18.07.81,23.47,1,69.21,1s51.14-.19,69.21-1c16.69-.76,25.76-3.55,31.79-5.9A56.64,56.64,0,0,0,389.5,357c2.35-6,5.14-15.1,5.9-31.79.81-18.07,1-23.49,1-69.21S396.21,204.86,395.4,186.79ZM256,344h-.06a88.05,88.05,0,1,1,.06,0Zm92.83-156.84a20.81,20.81,0,1,1,20.8-20.81A20.81,20.81,0,0,1,348.83,187.19Z"/><path class="cls-2" d="M313.14,256A57.14,57.14,0,1,1,256,198.86h0A57.13,57.13,0,0,1,313.14,256Z"/></svg>