<?xml version="1.0" encoding="utf-8"?>
<!-- Generator: Adobe Illustrator 24.1.0, SVG Export Plug-In . SVG Version: 6.00 Build 0)  -->
<svg version="1.1" id="Ebene_1" xmlns="http://www.w3.org/2000/svg" xmlns:xlink="http://www.w3.org/1999/xlink" x="0px" y="0px"
	 width="300px" height="100px" viewBox="0 0 300 100" style="enable-background:new 0 0 300 100;" xml:space="preserve">
<style type="text/css">
	.st0{fill:#3d3939;}
</style>
<g id="Page-1">
	<g id="SwapzoneBlue_x26_PinkBackroundBl">
		<g id="_x33_z_x5F_rd_x5F_f">
			<path id="Shape" class="st0" d="M110.2,25.6c0-11-9.1-20-20.2-20c-5.8,0-11,2.4-14.6,6.2L29.8,40.3c-0.9,0.5-1.1,1.8-0.6,2.7
				c0.4,0.6,1,0.9,1.7,0.9c0.4,0,0.6-0.1,1-0.3l39-24.5c-0.8,2-1.2,4.2-1.2,6.6c0,5.1,1.9,9.6,5,13.2L44,69.2
				c-0.8,0.8-0.8,1.9,0,2.7c0.4,0.4,0.9,0.5,1.4,0.5c0.5,0,1-0.1,1.4-0.5l30.7-30.3c3.5,2.7,7.8,4.3,12.4,4.3c2.7,0,5.2-0.5,7.5-1.4
				L73,83.8c-0.5,0.9-0.3,2,0.6,2.7c0.3,0.3,0.6,0.3,1,0.3c0.6,0,1.3-0.4,1.7-0.9l29.4-47.6C108.5,34.7,110.2,30.4,110.2,25.6z
				 M80.3,38.8l8.9-8.8c0.8-0.8,0.8-1.9,0-2.7c-0.8-0.8-1.9-0.8-2.7,0l-9.1,8.9c-2.4-2.8-4-6.5-4-10.5c0.1-9,7.4-16.4,16.5-16.4
				c9.1,0,16.4,7.4,16.4,16.2c0,9-7.4,16.2-16.4,16.2C86.4,42,83,40.7,80.3,38.8z"/>
			<path id="Path" class="st0" d="M90,12.4c-7.4,0-13.4,6-13.4,13.3c0,1,0.9,1.9,1.9,1.9c1,0,1.9-0.9,1.9-1.9c0-5.2,4.2-9.5,9.6-9.5
				c1,0,1.9-0.9,1.9-1.9S91,12.4,90,12.4z"/>
		</g>
		<g id="Swapzone">
			<g>
				<path id="path-1" class="st0" d="M122.4,88.6c6.1,0,9.2-2.3,9.2-7c0-4.3-2.5-6.5-7.6-6.5l0,0h-3.1c-2.9,0-4.4-1.3-4.4-3.8
					c0-2.9,2.2-4.3,6.5-4.3c2.8,0,5.3,0.4,7.7,1.3l0,0v-2.8c-2.4-0.7-5-1-7.7-1c-6.4,0-9.5,2.3-9.5,6.8c0,4.3,2.5,6.5,7.5,6.5l0,0
					h3.1c3,0,4.5,1.3,4.5,3.8c0,3-2,4.5-6.1,4.5c-2.9,0-5.6-0.4-8.1-1.3l0,0v2.8C116.8,88.3,119.5,88.6,122.4,88.6z M141.1,88.4
					l4.7-13l5,13h2.8l4.5-17.4h-3.3l-2.8,13.7L147.3,71h-2.8L140,84.7L136.9,71h-3.1l4.4,17.4H141.1z M175.1,88.4v-12
					c0-3.6-2.6-5.4-7.8-5.4c-1.8,0-3.6,0.3-5.5,0.8l0,0v2.5c1.9-0.6,3.7-0.8,5.5-0.8c3.1,0,4.7,1,4.7,3l0,0v1.6
					c-1.5-0.2-3-0.3-4.5-0.3c-4.7,0-7.1,1.8-7.1,5.4c0,3.5,2.1,5.3,6.2,5.3c2,0,3.9-0.6,5.7-1.7l0,0l1.1,1.7H175.1z M166.7,86
					c-2.1,0-3.2-0.9-3.2-2.8s1.3-2.8,4-2.8c1.5,0,3,0.1,4.5,0.3l0,0v3.6C170.6,85.4,168.8,86,166.7,86z M183.2,94.8v-7.1
					c1.3,0.6,2.7,0.8,4.1,0.8c5.6,0,8.4-3,8.4-9.1c0-5.5-2.8-8.3-8.4-8.3c-2.5,0-4.9,0.2-7.2,0.7l0,0v23H183.2z M187.2,85.8
					c-1.5,0-2.8-0.3-4-0.9l0,0V74c1.2-0.3,2.5-0.4,4.1-0.4c3.6,0,5.4,1.9,5.4,5.7C192.6,83.6,190.8,85.8,187.2,85.8z M212.6,88.4
					v-2.3h-10.1l10.4-12.6V71h-13.6v2.5h10.2L199,86.1v2.3H212.6z M224.6,88.4c5.5,0,8.3-2.9,8.3-8.7c0-5.8-2.8-8.7-8.3-8.7
					c-5.5,0-8.3,2.9-8.3,8.7C216.3,85.5,219,88.4,224.6,88.4z M224.6,86c-3.5,0-5.2-2.1-5.2-6.3c0-4.1,1.7-6.2,5.2-6.2
					s5.2,2.1,5.2,6.2C229.8,83.9,228,86,224.6,86z M240.1,88.4V75.8c1.6-1.5,3.3-2.2,5-2.2c2.6,0,3.9,1.3,3.9,3.9l0,0v11h3.1V77.5
					c0-4.3-2.2-6.5-6.5-6.5c-2.1,0-4.1,0.7-5.9,2.2l0,0l-0.5-2.2H237v17.4H240.1z M265.2,88.4c2.2,0,4.1-0.2,5.6-0.7l0,0v-2.5
					c-1.5,0.4-3.3,0.7-5.3,0.7c-4.2,0-6.2-1.8-6.2-5.3l0,0h12.2c0.1-0.8,0.1-1.5,0.1-2.2c0-4.9-2.5-7.4-7.4-7.4c-5.3,0-8,2.8-8,8.5
					C256.2,85.5,259.2,88.4,265.2,88.4z M268.7,78.1h-9.4c0.2-3.1,1.8-4.6,4.9-4.6C267.1,73.5,268.6,75,268.7,78.1L268.7,78.1z"/>
			</g>
			<g>
				<path id="path-1_1_" class="st0" d="M122.4,88.6c6.1,0,9.2-2.3,9.2-7c0-4.3-2.5-6.5-7.6-6.5l0,0h-3.1c-2.9,0-4.4-1.3-4.4-3.8
					c0-2.9,2.2-4.3,6.5-4.3c2.8,0,5.3,0.4,7.7,1.3l0,0v-2.8c-2.4-0.7-5-1-7.7-1c-6.4,0-9.5,2.3-9.5,6.8c0,4.3,2.5,6.5,7.5,6.5l0,0
					h3.1c3,0,4.5,1.3,4.5,3.8c0,3-2,4.5-6.1,4.5c-2.9,0-5.6-0.4-8.1-1.3l0,0v2.8C116.8,88.3,119.5,88.6,122.4,88.6z M141.1,88.4
					l4.7-13l5,13h2.8l4.5-17.4h-3.3l-2.8,13.7L147.3,71h-2.8L140,84.7L136.9,71h-3.1l4.4,17.4H141.1z M175.1,88.4v-12
					c0-3.6-2.6-5.4-7.8-5.4c-1.8,0-3.6,0.3-5.5,0.8l0,0v2.5c1.9-0.6,3.7-0.8,5.5-0.8c3.1,0,4.7,1,4.7,3l0,0v1.6
					c-1.5-0.2-3-0.3-4.5-0.3c-4.7,0-7.1,1.8-7.1,5.4c0,3.5,2.1,5.3,6.2,5.3c2,0,3.9-0.6,5.7-1.7l0,0l1.1,1.7H175.1z M166.7,86
					c-2.1,0-3.2-0.9-3.2-2.8s1.3-2.8,4-2.8c1.5,0,3,0.1,4.5,0.3l0,0v3.6C170.6,85.4,168.8,86,166.7,86z M183.2,94.8v-7.1
					c1.3,0.6,2.7,0.8,4.1,0.8c5.6,0,8.4-3,8.4-9.1c0-5.5-2.8-8.3-8.4-8.3c-2.5,0-4.9,0.2-7.2,0.7l0,0v23H183.2z M187.2,85.8
					c-1.5,0-2.8-0.3-4-0.9l0,0V74c1.2-0.3,2.5-0.4,4.1-0.4c3.6,0,5.4,1.9,5.4,5.7C192.6,83.6,190.8,85.8,187.2,85.8z M212.6,88.4
					v-2.3h-10.1l10.4-12.6V71h-13.6v2.5h10.2L199,86.1v2.3H212.6z M224.6,88.4c5.5,0,8.3-2.9,8.3-8.7c0-5.8-2.8-8.7-8.3-8.7
					c-5.5,0-8.3,2.9-8.3,8.7C216.3,85.5,219,88.4,224.6,88.4z M224.6,86c-3.5,0-5.2-2.1-5.2-6.3c0-4.1,1.7-6.2,5.2-6.2
					s5.2,2.1,5.2,6.2C229.8,83.9,228,86,224.6,86z M240.1,88.4V75.8c1.6-1.5,3.3-2.2,5-2.2c2.6,0,3.9,1.3,3.9,3.9l0,0v11h3.1V77.5
					c0-4.3-2.2-6.5-6.5-6.5c-2.1,0-4.1,0.7-5.9,2.2l0,0l-0.5-2.2H237v17.4H240.1z M265.2,88.4c2.2,0,4.1-0.2,5.6-0.7l0,0v-2.5
					c-1.5,0.4-3.3,0.7-5.3,0.7c-4.2,0-6.2-1.8-6.2-5.3l0,0h12.2c0.1-0.8,0.1-1.5,0.1-2.2c0-4.9-2.5-7.4-7.4-7.4c-5.3,0-8,2.8-8,8.5
					C256.2,85.5,259.2,88.4,265.2,88.4z M268.7,78.1h-9.4c0.2-3.1,1.8-4.6,4.9-4.6C267.1,73.5,268.6,75,268.7,78.1L268.7,78.1z"/>
			</g>
		</g>
	</g>
</g>
</svg>
