<?xml version="1.0" encoding="utf-8"?>
<!-- Generator: Adobe Illustrator 24.3.0, SVG Export Plug-In . SVG Version: 6.00 Build 0)  -->
<svg version="1.1" id="Layer_1" xmlns="http://www.w3.org/2000/svg" xmlns:xlink="http://www.w3.org/1999/xlink" x="0px" y="0px"
	 viewBox="0 0 512 512" style="enable-background:new 0 0 512 512;" xml:space="preserve">
<style type="text/css">
	.st0{fill:#3D3939;}
</style>
<g>
	<path class="st0" d="M460.5,7.1h-409C27,7.1,7.1,27,7.1,51.5v409c0,24.5,19.9,44.4,44.4,44.4h409c24.5,0,44.4-19.9,44.4-44.4v-409
		C504.9,27,485,7.1,460.5,7.1z M487.7,460.5c0,14.7-12.4,27.1-27.1,27.1h-409c-14.7,0-27.1-12.4-27.1-27.1v-409
		c0-14.7,12.4-27.1,27.1-27.1h409c14.7,0,27.1,12.4,27.1,27.1V460.5z"/>
	<path class="st0" d="M156.3,264.2h-27.4V133.9c0-3.7-3-6.7-6.7-6.7h-3.9c-3.7,0-6.7,3-6.7,6.7v130.3H84.1c-2.6,0-4.8,2.1-4.8,4.8
		v24c0,2.6,2.1,4.7,4.8,4.7h27.4v80.5c0,3.7,3,6.7,6.7,6.7h3.9c3.7,0,6.7-3,6.7-6.7v-80.5h27.4c2.6,0,4.7-2.1,4.7-4.7v-24
		C161,266.3,158.9,264.2,156.3,264.2z"/>
	<path class="st0" d="M292.1,188.2h-27.4v-54.4c0-3.7-3-6.7-6.7-6.7H254c-3.7,0-6.7,3-6.7,6.7v54.4h-27.4c-2.6,0-4.7,2.1-4.7,4.8v24
		c0,2.6,2.1,4.7,4.7,4.7h27.4v156.4c0,3.7,3,6.7,6.7,6.7h3.9c3.7,0,6.7-3,6.7-6.7V221.7h27.4c2.6,0,4.7-2.1,4.7-4.7v-24
		C296.8,190.3,294.7,188.2,292.1,188.2z"/>
	<path class="st0" d="M427.9,303.3h-27.4V133.9c0-3.7-3-6.7-6.7-6.7h-3.9c-3.7,0-6.7,3-6.7,6.7v169.4h-27.4c-2.6,0-4.7,2.1-4.7,4.7
		v24c0,2.6,2.1,4.8,4.7,4.8h27.4v41.4c0,3.7,3,6.7,6.7,6.7h3.9c3.7,0,6.7-3,6.7-6.7v-41.4h27.4c2.6,0,4.7-2.1,4.7-4.8v-24
		C432.6,305.4,430.5,303.3,427.9,303.3z"/>
</g>
</svg>
