<?xml version="1.0" encoding="utf-8"?>
<!-- Generator: Adobe Illustrator 24.1.0, SVG Export Plug-In . SVG Version: 6.00 Build 0)  -->
<svg version="1.1" id="Ebene_1" xmlns="http://www.w3.org/2000/svg" xmlns:xlink="http://www.w3.org/1999/xlink" x="0px" y="0px"
	 width="300px" height="100px" viewBox="0 0 300 100" style="enable-background:new 0 0 300 100;" xml:space="preserve">
<style type="text/css">
	.st0{fill:#3d3939;}
	.st1{fill-rule:evenodd;clip-rule:evenodd;fill:#3d3939;}
	.st2{fill:#3d3939;fill-opacity:0.72;}
</style>
<g id="Logo">
	<g id="Artboard" transform="translate(-1712.000000, -2011.000000)">
		<g id="Group-4-Copy" transform="translate(1712.000000, 2011.000000)">
			<path id="Swapy-Copy" class="st0" d="M103.6,33.6c5.2,0,13,2,13.9,10.7h-8.1c-0.4-2.4-1.9-4.1-5.3-4.1c-2.9,0-4.7,1.1-4.7,3.2
				c0,1.9,1.3,2.7,3.9,3.2l4.5,1c6,1.2,9.8,3.7,9.8,9.3c0,6.5-5.3,10.5-13.4,10.5c-7.3,0-13.9-3.5-14.6-11.5h8.1
				c0.5,2.9,3,4.7,6.8,4.7c2.9,0,4.6-1.1,4.6-2.9c0-1.1-0.6-2.3-3.4-2.9l-5.3-1.1c-6.4-1.4-9.4-4.3-9.4-9.5
				C90.8,37.7,96,33.6,103.6,33.6z M146.1,43.7h8.1l-7.6,23.1h-6.9l-4.1-13.4l-4.2,13.4h-6.9l-7.6-23.1h8.1l3.2,13.3l4.2-13.3h6.2
				l4.2,13.2L146.1,43.7z M171.2,43.7h7.7v23.5h-7.7V66c-1.7,1.2-3.8,1.9-6.3,1.9c-6.3,0-11.5-5.4-11.5-12.4c0-7,5.2-12.4,11.5-12.4
				c2.6,0,4.6,0.7,6.3,1.8V43.7z M166.3,60.9c1.7,0,3.3-0.4,4.8-2.1v-7.2c-1.5-1.6-3.1-2.1-4.8-2.1c-3.2,0-5.5,2.5-5.5,5.7
				S163.2,60.9,166.3,60.9z M196.8,43.1c6.3,0,11.5,5.2,11.5,12.1c0,6.9-5.2,12.1-11.5,12.1c-2.5,0-4.6-0.7-6.3-1.7V78h-7.8V43.6
				h7.8v1.2C192.2,43.8,194.2,43.1,196.8,43.1z M194.9,60.9c3.2,0,5.5-2.5,5.5-5.8s-2.3-5.8-5.5-5.8c-1.7,0-3.4,0.5-4.8,2.2v7.3
				C191.6,60.4,193.2,60.9,194.9,60.9z M227.6,43.7h8.1L221.4,78h-8.1l4.8-11.5l-11.3-22.7h8.2l6.6,14.4L227.6,43.7z"/>
			<path class="st1" d="M71.2,17.3H13.5c-2.4,0-4.4,2-4.4,4.4v57.6c0,2.4,2,4.4,4.4,4.4h57.6c2.4,0,4.4-2,4.4-4.4V21.7
				C75.6,19.3,73.6,17.3,71.2,17.3z M41.8,49.9H26c-0.9,0-1.7-0.7-1.7-1.7c0-0.4,0.1-0.7,0.3-1l14.2-18.9c0.6-0.7,1.6-0.9,2.3-0.3
				c0.4,0.3,0.7,0.8,0.7,1.3V49.9z M59,52.4L44.8,71.5c-0.5,0.7-1.6,0.9-2.3,0.3c-0.4-0.3-0.7-0.8-0.7-1.3V49.7h15.8
				c0.9,0,1.7,0.7,1.7,1.7C59.3,51.8,59.2,52.1,59,52.4z"/>
			<path id="Beta" class="st2" d="M244.5,27.3h6.7c2.6,0,4.6,1.5,4.6,4.1c0,2-1.3,3.1-2.7,3.5v0.3c1.4,0.4,2.7,1.5,2.7,3.5
				c0,2.6-2,4.1-4.6,4.1h-6.6V27.3z M246.7,29.2V34h4.3c1.6,0,2.6-0.9,2.6-2.4c0-1.5-1-2.4-2.7-2.4H246.7z M246.7,36v4.8h4.3
				c1.6,0,2.6-0.9,2.6-2.4c0-1.5-1-2.4-2.7-2.4H246.7z M257.5,37.3c0-3.3,2.3-5.7,5.5-5.7c3.1,0,5.3,2.1,5.3,5.4v1h-8.5
				c0.1,1.9,1.4,3.3,3.4,3.3c1.8,0,2.7-1,3.2-2l1.8,1c-0.7,1.3-2,2.9-4.9,2.9C259.8,43.1,257.5,40.6,257.5,37.3z M259.7,36.3h6.4
				c-0.1-1.8-1.3-2.9-3.1-2.9C261.1,33.4,259.9,34.5,259.7,36.3z M269,31.9h3.2v-3.7h2.1v3.7h3.4v1.8h-3.4v6.7
				c0,0.4,0.2,0.7,0.6,0.7h2.1v1.8h-3c-1.1,0-1.9-0.7-1.9-1.8v-7.3H269V31.9z M279.3,34.7c0.8-1.4,2.4-3.1,5.3-3.1
				c2.9,0,4.7,1.7,4.7,4.3v6.9h-2v-1.7H287c-0.6,1-1.6,2-3.9,2c-2.4,0-4.1-1.3-4.1-3.3c0-2,1.5-3,3.6-3.2l4.6-0.5v-0.4
				c0-1.4-1-2.4-2.7-2.4s-2.8,1-3.5,2.4L279.3,34.7z M281.2,39.8c0,0.9,0.9,1.6,2.4,1.6c2.2,0,3.7-1.3,3.7-3.4v-0.2l-4.1,0.4
				C281.9,38.4,281.2,38.9,281.2,39.8z"/>
		</g>
	</g>
</g>
</svg>
