<?xml version="1.0" encoding="utf-8"?>
<!-- Generator: Adobe Illustrator 21.1.0, SVG Export Plug-In . SVG Version: 6.00 Build 0)  -->
<svg version="1.1" id="Ebene_1" xmlns="http://www.w3.org/2000/svg" xmlns:xlink="http://www.w3.org/1999/xlink" x="0px" y="0px"
	 width="300px" height="100px" viewBox="0 0 300 100" style="enable-background:new 0 0 300 100;" xml:space="preserve">
<style type="text/css">
	.st0{fill:#3d3939;}
</style>
<g id="PAywQk.tif_1_">
	<g>
		<path class="st0" d="M139.1,80.3c-13.2,0-20.4-14.2-21.8-25.2c-1.3-9.4,0.5-18.5,6.6-26.1c4-5.1,9.2-7.8,15.9-7.7
			c7.7,0.2,15.4,0,23.3,0c0,3.4,0,6.7,0,10.4c-2.2,0-4.4,0-6.7,0c-4.7,0-9.4-0.1-14,0.1c-6.1,0.2-11.4,6.7-10.6,13.1c5,0,10,0,15,0
			c5,0,10,0,15.2,0c0,3.9,0,7.4,0,11.2c-10.1,0-20.2,0-30.2,0c-0.3,7.7,5,13.4,12.2,13.5c6.3,0.1,12.6,0,19.3,0c0,3.7,0,7.2,0,10.7
			C153.6,80.3,148.8,80.3,139.1,80.3z"/>
		<path class="st0" d="M55.9,80.3c2-4.9,17.4-40.9,23-54.1c1.3-3.1,3.2-5.4,6.9-5.2c3.7,0.1,6.6,5.7,6.6,5.7L116,80.3h-14.9
			L85.6,42.9L70.8,80.3C70.8,80.3,60.9,80.3,55.9,80.3z"/>
		<path class="st0" d="M169.9,80.3c10.3-10.7,20.6-21.4,31.1-32c3-3,6.8-3.1,9.6-0.3c10.3,10.3,20.5,20.8,30.7,31.2
			c0.3,0.3,0.5,0.7,0.8,1.1c-4.8,0-9.5,0-14.3,0c-7.2-7.1-14.3-14.1-21.7-21.3c-0.8,0.8-1.5,1.3-2.1,2c-4.2,4.3-8.3,8.5-12.5,12.8
			c-2.1,2.2-4.1,4.4-6.1,6.6C180.2,80.3,175.1,80.3,169.9,80.3z"/>
		<path class="st0" d="M202.5,39.5c-2.6,2.7-5,5.1-6.8,6.9c-8.6-8.2-17.1-16.3-26.2-25c5.4,0,10.1,0,14.8,0
			C184.6,21.4,196.8,33.7,202.5,39.5z"/>
		<path class="st0" d="M209.7,39.5c2.6,2.7,5,5.1,6.8,6.9c8.6-8.2,17.1-16.3,26.2-25c-5.4,0-10.1,0-14.8,0
			C227.5,21.4,215.4,33.7,209.7,39.5z"/>
	</g>
</g>
</svg>
