<svg width="174" height="40" viewBox="0 0 174 40" fill="none" xmlns="http://www.w3.org/2000/svg">
<path fill-rule="evenodd" clip-rule="evenodd" d="M20.7203 37.1326C24.4244 39.7474 29.3632 40.2557 33.7936 38.9484C37.062 38.0043 40.0399 36.1159 42.2187 33.356C46.8671 27.4003 45.9228 19.1931 42.945 13.7459C38.5872 5.75662 28.9274 3.28721 23.7708 1.97987C22.6005 1.6455 21.3874 1.43941 19.7707 1.16474C19.2803 1.08144 18.7529 0.991835 18.1782 0.890427L18.0687 0.872168C12.0469 -0.131546 9.52617 -0.551698 8.01011 1.18095C4.66914 4.88507 10.6248 12.7291 11.3511 13.6007C13.0942 15.8521 15.7089 17.8131 17.6699 19.0479C17.6335 19.0842 17.6153 19.1206 17.5972 19.1569C17.579 19.1932 17.5609 19.2295 17.5246 19.2658C15.5636 22.0983 14.8373 25.5119 15.4183 28.8529C15.9994 32.2665 17.8878 35.1716 20.7203 37.1326ZM20.9382 21.7352C21.8098 20.4279 23.0444 19.6289 24.4244 19.1931C26.2402 18.6848 28.2738 18.9027 29.9443 20.1373C32.1232 21.6625 32.7042 24.5678 31.179 26.7466C30.0895 28.2719 27.9833 28.5624 26.3854 27.5455C25.3687 26.8919 23.9887 27.255 23.4076 28.3445C22.8266 29.2886 23.2623 30.5234 24.2066 31.1771C27.6201 33.4285 32.2684 32.557 34.5926 29.1434C37.4252 25.0761 36.4083 19.4837 32.3411 16.6511C28.8549 14.2543 24.3518 14.1817 20.8656 16.2153C19.1951 15.2711 16.3625 13.3101 14.6194 11.1312C13.7478 9.96912 13.0216 8.80707 12.4405 7.71763C11.6416 6.1924 12.9489 4.37666 14.6194 4.66718L17.452 5.10295C18.0377 5.20945 18.5671 5.30293 19.0528 5.38871C20.5544 5.6539 21.6386 5.84537 22.6813 6.11977C22.7234 6.13045 22.7657 6.14118 22.8083 6.15198C27.6891 7.38997 35.7847 9.44338 39.2409 15.7796C40.8387 18.7573 42.8724 25.6572 38.8777 30.7413C35.101 35.5348 27.7654 36.9147 23.1171 33.7191C21.2287 32.4117 19.994 30.4507 19.5582 28.1992C19.1225 25.9477 19.6309 23.6235 20.9382 21.7352Z" fill="url(#paint0_linear)"/>
<path fill-rule="evenodd" clip-rule="evenodd" d="M65.0943 14.806L61.7643 14.788C60.9963 14.788 60.5283 14.95 60.3603 15.274C60.2643 15.454 60.2043 15.61 60.1803 15.742C60.1683 15.874 60.1623 16.084 60.1623 16.372V26.38C60.1623 26.896 60.2343 27.28 60.3783 27.532C60.5583 27.832 61.0143 27.982 61.7463 27.982H65.0403C66.8763 27.982 68.4363 27.328 69.7203 26.02C71.0163 24.712 71.6643 23.146 71.6643 21.322C71.6643 19.486 71.0043 17.944 69.6843 16.696C68.3643 15.436 66.8343 14.806 65.0943 14.806ZM67.4343 23.842C66.7383 24.478 65.9583 24.796 65.0943 24.796H63.3483V17.992H65.0763C65.9883 17.992 66.7803 18.322 67.4523 18.982C68.1363 19.63 68.4783 20.44 68.4783 21.412C68.4783 22.384 68.1303 23.194 67.4343 23.842Z" fill="url(#paint1_linear)"/>
<path fill-rule="evenodd" clip-rule="evenodd" d="M74.2761 19.702C73.2681 20.638 72.7641 21.826 72.7641 23.266C72.7641 24.226 73.0161 25.09 73.5201 25.858C74.0361 26.614 74.6661 27.19 75.4101 27.586C76.1541 27.97 76.9221 28.162 77.7141 28.162C78.5061 28.162 79.2681 27.982 80.0001 27.622C80.7441 27.25 81.3741 26.68 81.8901 25.912C82.4061 25.132 82.6641 24.244 82.6641 23.248C82.6641 21.808 82.1661 20.626 81.1701 19.702C80.1741 18.766 79.0281 18.298 77.7321 18.298C76.4361 18.298 75.2841 18.766 74.2761 19.702ZM77.6961 24.994C77.3001 24.994 76.9101 24.85 76.5261 24.562C76.1421 24.262 75.9501 23.824 75.9501 23.248C75.9501 22.66 76.1361 22.216 76.5081 21.916C76.8801 21.616 77.2821 21.466 77.7141 21.466C78.1461 21.466 78.5481 21.61 78.9201 21.898C79.2921 22.186 79.4781 22.624 79.4781 23.212C79.4781 23.8 79.2801 24.244 78.8841 24.544C78.4881 24.844 78.0921 24.994 77.6961 24.994Z" fill="url(#paint2_linear)"/>
<path d="M93.6141 20.908C93.8541 20.488 93.9741 20.158 93.9741 19.918C93.9741 19.498 93.6621 19.102 93.0381 18.73C92.6181 18.478 92.2881 18.352 92.0481 18.352C91.8081 18.352 91.6161 18.406 91.4721 18.514C91.3281 18.61 91.2201 18.712 91.1481 18.82C91.0881 18.916 90.9921 19.078 90.8601 19.306L88.5021 23.842L86.1441 19.306C85.9761 18.982 85.8141 18.742 85.6581 18.586C85.5141 18.418 85.3101 18.334 85.0461 18.334C84.7821 18.334 84.4221 18.466 83.9661 18.73C83.3421 19.102 83.0301 19.504 83.0301 19.936C83.0301 20.188 83.1501 20.512 83.3901 20.908L87.1341 27.316L87.2961 27.514C87.3921 27.646 87.5541 27.778 87.7821 27.91C88.0221 28.03 88.2681 28.09 88.5201 28.09C88.7841 28.09 89.0481 28.012 89.3121 27.856C89.5761 27.688 89.7681 27.502 89.8881 27.298L93.6141 20.908Z" fill="url(#paint3_linear)"/>
<path fill-rule="evenodd" clip-rule="evenodd" d="M103.198 23.77C103.57 23.41 103.756 22.864 103.756 22.132C103.756 21.388 103.552 20.704 103.144 20.08C102.364 18.904 101.14 18.316 99.4717 18.316C98.0077 18.316 96.7837 18.772 95.7997 19.684C94.8277 20.584 94.3417 21.79 94.3417 23.302C94.3417 24.502 94.7197 25.588 95.4757 26.56C95.8597 27.064 96.3937 27.472 97.0777 27.784C97.7737 28.084 98.5657 28.234 99.4537 28.234C102.01 28.234 103.288 27.7 103.288 26.632C103.288 26.404 103.21 26.128 103.054 25.804C102.778 25.264 102.448 24.994 102.064 24.994C101.872 24.994 101.632 25.06 101.344 25.192L101.146 25.264C100.75 25.408 100.204 25.48 99.5077 25.48C99.1117 25.48 98.7157 25.366 98.3197 25.138C97.9237 24.91 97.7257 24.628 97.7257 24.292H101.992C102.436 24.292 102.838 24.118 103.198 23.77ZM100.642 22.078C100.642 22.462 100.414 22.654 99.9577 22.654H97.6897C97.6897 22.294 97.8817 21.958 98.2657 21.646C98.6497 21.322 99.0337 21.16 99.4177 21.16C99.8137 21.16 100.114 21.244 100.318 21.412C100.534 21.58 100.642 21.802 100.642 22.078Z" fill="url(#paint4_linear)"/>
<path d="M126.871 16.03C126.871 15.55 126.469 15.166 125.665 14.878C125.341 14.758 125.059 14.698 124.819 14.698C124.579 14.698 124.375 14.764 124.207 14.896C124.051 15.016 123.943 15.142 123.883 15.274C123.823 15.406 123.745 15.61 123.649 15.886L121.669 21.934L119.599 15.688C119.527 15.496 119.359 15.304 119.095 15.112C118.831 14.908 118.543 14.806 118.231 14.806C117.931 14.806 117.685 14.848 117.493 14.932C117.049 15.124 116.743 15.472 116.575 15.976L114.613 21.898L112.633 15.886C112.513 15.49 112.375 15.196 112.219 15.004C112.075 14.812 111.859 14.716 111.571 14.716C111.295 14.716 110.983 14.776 110.635 14.896C109.831 15.172 109.429 15.55 109.429 16.03C109.429 16.222 109.495 16.516 109.627 16.912L113.101 26.902L113.227 27.172C113.311 27.352 113.473 27.532 113.713 27.712C113.965 27.892 114.283 27.982 114.667 27.982C115.051 27.982 115.381 27.844 115.657 27.568C115.765 27.46 115.861 27.34 115.945 27.208C116.029 27.076 116.083 26.974 116.107 26.902C116.131 26.83 116.809 24.826 118.141 20.89L120.247 27.1C120.331 27.292 120.499 27.49 120.751 27.694C121.015 27.886 121.321 27.982 121.669 27.982C122.029 27.982 122.335 27.886 122.587 27.694C122.851 27.49 123.013 27.328 123.073 27.208C123.133 27.088 123.175 26.986 123.199 26.902L126.655 16.912C126.799 16.48 126.871 16.186 126.871 16.03Z" fill="url(#paint5_linear)"/>
<path fill-rule="evenodd" clip-rule="evenodd" d="M134.372 18.514C133.496 18.514 133.022 18.85 132.95 19.522C132.866 19.402 132.758 19.282 132.626 19.162C132.494 19.03 132.26 18.892 131.924 18.748C131.588 18.604 131.216 18.532 130.808 18.532C129.74 18.532 128.756 19.006 127.856 19.954C126.968 20.89 126.524 21.988 126.524 23.248C126.524 24.496 126.968 25.594 127.856 26.542C128.744 27.49 129.704 27.964 130.736 27.964C131.78 27.964 132.524 27.646 132.968 27.01C133.004 27.322 133.13 27.562 133.346 27.73C133.574 27.886 134.012 27.964 134.66 27.964C135.32 27.964 135.734 27.808 135.902 27.496C135.986 27.316 136.034 27.16 136.046 27.028C136.07 26.884 136.082 26.674 136.082 26.398V20.098C136.082 19.822 136.07 19.618 136.046 19.486C136.034 19.342 135.98 19.18 135.884 19C135.8 18.82 135.644 18.694 135.416 18.622C135.188 18.55 134.84 18.514 134.372 18.514ZM130.142 24.346C129.83 24.022 129.674 23.662 129.674 23.266C129.674 22.87 129.818 22.504 130.106 22.168C130.406 21.832 130.79 21.664 131.258 21.664C131.738 21.664 132.116 21.832 132.392 22.168C132.68 22.504 132.824 22.87 132.824 23.266C132.824 23.65 132.674 24.004 132.374 24.328C132.086 24.652 131.72 24.814 131.276 24.814C130.832 24.814 130.454 24.658 130.142 24.346Z" fill="url(#paint6_linear)"/>
<path d="M141.908 25.12C141.716 24.916 141.422 24.814 141.026 24.814C140.918 24.814 140.864 24.628 140.864 24.256V15.616C140.864 15.34 140.852 15.136 140.828 15.004C140.816 14.86 140.762 14.704 140.666 14.536C140.486 14.2 140.03 14.032 139.298 14.032C138.53 14.032 138.062 14.188 137.894 14.5C137.81 14.68 137.756 14.842 137.732 14.986C137.72 15.118 137.714 15.322 137.714 15.598V24.184C137.714 25.54 137.96 26.512 138.452 27.1C138.944 27.676 139.796 27.964 141.008 27.964C141.392 27.964 141.686 27.862 141.89 27.658C142.094 27.442 142.196 27.016 142.196 26.38C142.196 25.744 142.1 25.324 141.908 25.12Z" fill="url(#paint7_linear)"/>
<path d="M145.868 24.706C145.772 24.634 145.724 24.484 145.724 24.256V15.616C145.724 15.16 145.658 14.8 145.526 14.536C145.346 14.2 144.89 14.032 144.158 14.032C143.402 14.032 142.934 14.188 142.754 14.5C142.658 14.68 142.598 14.842 142.574 14.986C142.562 15.118 142.556 15.322 142.556 15.598L142.574 24.184C142.574 26.704 143.846 27.964 146.39 27.964C146.894 27.964 147.284 27.862 147.56 27.658C147.848 27.442 147.992 27.016 147.992 26.38C147.992 25.744 147.86 25.324 147.596 25.12C147.332 24.916 147.002 24.814 146.606 24.814C146.21 24.814 145.964 24.778 145.868 24.706Z" fill="url(#paint8_linear)"/>
<path fill-rule="evenodd" clip-rule="evenodd" d="M157.766 23.77C158.138 23.41 158.324 22.864 158.324 22.132C158.324 21.388 158.12 20.704 157.712 20.08C156.932 18.904 155.708 18.316 154.04 18.316C152.576 18.316 151.352 18.772 150.368 19.684C149.396 20.584 148.91 21.79 148.91 23.302C148.91 24.502 149.288 25.588 150.044 26.56C150.428 27.064 150.962 27.472 151.646 27.784C152.342 28.084 153.134 28.234 154.022 28.234C156.578 28.234 157.856 27.7 157.856 26.632C157.856 26.404 157.778 26.128 157.622 25.804C157.346 25.264 157.016 24.994 156.632 24.994C156.44 24.994 156.2 25.06 155.912 25.192L155.714 25.264C155.318 25.408 154.772 25.48 154.076 25.48C153.68 25.48 153.284 25.366 152.888 25.138C152.492 24.91 152.294 24.628 152.294 24.292H156.56C157.004 24.292 157.406 24.118 157.766 23.77ZM155.21 22.078C155.21 22.462 154.982 22.654 154.526 22.654H152.258C152.258 22.294 152.45 21.958 152.834 21.646C153.218 21.322 153.602 21.16 153.986 21.16C154.382 21.16 154.682 21.244 154.886 21.412C155.102 21.58 155.21 21.802 155.21 22.078Z" fill="url(#paint9_linear)"/>
<path d="M163.858 21.628L165.028 21.7C165.304 21.7 165.508 21.694 165.64 21.682C165.784 21.658 165.946 21.604 166.126 21.52C166.45 21.352 166.612 20.89 166.612 20.134C166.612 19.366 166.456 18.904 166.144 18.748C165.964 18.652 165.802 18.598 165.658 18.586C165.526 18.562 165.322 18.55 165.046 18.55C164.782 18.55 164.386 18.574 163.858 18.622V16.858C163.858 16.438 163.828 16.132 163.768 15.94C163.612 15.496 163.126 15.274 162.31 15.274C161.542 15.274 161.08 15.424 160.924 15.724C160.828 15.88 160.768 16.024 160.744 16.156C160.732 16.288 160.726 16.492 160.726 16.768V18.622L160.132 18.55C159.844 18.55 159.604 18.628 159.412 18.784C159.304 18.88 159.22 19.042 159.16 19.27C159.1 19.486 159.07 19.84 159.07 20.332C159.07 20.824 159.154 21.172 159.322 21.376C159.502 21.58 159.724 21.682 159.988 21.682C160.252 21.682 160.498 21.664 160.726 21.628V24.292C160.726 25.636 161.05 26.59 161.698 27.154C162.346 27.718 163.294 28 164.542 28C164.806 28 165.004 27.994 165.136 27.982C165.28 27.958 165.442 27.904 165.622 27.82C165.958 27.652 166.126 27.19 166.126 26.434C166.126 25.786 165.988 25.384 165.712 25.228C165.544 25.132 165.382 25.078 165.226 25.066C165.082 25.042 164.866 25.03 164.578 25.03C164.302 25.03 164.11 24.958 164.002 24.814C163.906 24.67 163.858 24.436 163.858 24.112V21.628Z" fill="url(#paint10_linear)"/>
<g style="mix-blend-mode:multiply">
<path style="mix-blend-mode:multiply" d="M14.2347 10.0055C12.9897 10.735 11.8906 11.6843 11.0106 12.8533C11.3027 13.2197 11.5216 13.5127 11.5946 13.6592C13.3466 15.9302 15.9041 17.8368 17.8774 19.0839C18.7573 17.9148 19.8565 16.8924 21.1748 16.0898C19.4938 15.0627 16.6436 13.2288 14.9645 11.031C14.7457 10.6648 14.4535 10.3716 14.2347 10.0055Z" fill="url(#paint11_linear)" fill-opacity="0.6"/>
</g>
<defs>
<linearGradient id="paint0_linear" x1="7" y1="0" x2="167" y2="40" gradientUnits="userSpaceOnUse">
<stop offset="0.348958" stop-color="#BB76DB"/>
<stop offset="1" stop-color="#727CF5"/>
</linearGradient>
<linearGradient id="paint1_linear" x1="7" y1="0" x2="167" y2="40" gradientUnits="userSpaceOnUse">
<stop offset="0.348958" stop-color="#BB76DB"/>
<stop offset="1" stop-color="#727CF5"/>
</linearGradient>
<linearGradient id="paint2_linear" x1="7" y1="0" x2="167" y2="40" gradientUnits="userSpaceOnUse">
<stop offset="0.348958" stop-color="#BB76DB"/>
<stop offset="1" stop-color="#727CF5"/>
</linearGradient>
<linearGradient id="paint3_linear" x1="7" y1="0" x2="167" y2="40" gradientUnits="userSpaceOnUse">
<stop offset="0.348958" stop-color="#BB76DB"/>
<stop offset="1" stop-color="#727CF5"/>
</linearGradient>
<linearGradient id="paint4_linear" x1="7" y1="0" x2="167" y2="40" gradientUnits="userSpaceOnUse">
<stop offset="0.348958" stop-color="#BB76DB"/>
<stop offset="1" stop-color="#727CF5"/>
</linearGradient>
<linearGradient id="paint5_linear" x1="7" y1="0" x2="167" y2="40" gradientUnits="userSpaceOnUse">
<stop offset="0.348958" stop-color="#BB76DB"/>
<stop offset="1" stop-color="#727CF5"/>
</linearGradient>
<linearGradient id="paint6_linear" x1="7" y1="0" x2="167" y2="40" gradientUnits="userSpaceOnUse">
<stop offset="0.348958" stop-color="#BB76DB"/>
<stop offset="1" stop-color="#727CF5"/>
</linearGradient>
<linearGradient id="paint7_linear" x1="7" y1="0" x2="167" y2="40" gradientUnits="userSpaceOnUse">
<stop offset="0.348958" stop-color="#BB76DB"/>
<stop offset="1" stop-color="#727CF5"/>
</linearGradient>
<linearGradient id="paint8_linear" x1="7" y1="0" x2="167" y2="40" gradientUnits="userSpaceOnUse">
<stop offset="0.348958" stop-color="#BB76DB"/>
<stop offset="1" stop-color="#727CF5"/>
</linearGradient>
<linearGradient id="paint9_linear" x1="7" y1="0" x2="167" y2="40" gradientUnits="userSpaceOnUse">
<stop offset="0.348958" stop-color="#BB76DB"/>
<stop offset="1" stop-color="#727CF5"/>
</linearGradient>
<linearGradient id="paint10_linear" x1="7" y1="0" x2="167" y2="40" gradientUnits="userSpaceOnUse">
<stop offset="0.348958" stop-color="#BB76DB"/>
<stop offset="1" stop-color="#727CF5"/>
</linearGradient>
<linearGradient id="paint11_linear" x1="19.2282" y1="8.36691" x2="22.285" y2="17.6231" gradientUnits="userSpaceOnUse">
<stop stop-opacity="0"/>
<stop offset="1" stop-opacity="0.3"/>
</linearGradient>
</defs>
</svg>
