<?xml version="1.0" encoding="utf-8"?>
<!-- Generator: Adobe Illustrator 26.1.0, SVG Export Plug-In . SVG Version: 6.00 Build 0)  -->
<svg version="1.1" id="Layer_1" xmlns="http://www.w3.org/2000/svg" xmlns:xlink="http://www.w3.org/1999/xlink" x="0px" y="0px"
	 viewBox="0 0 300 100" style="enable-background:new 0 0 300 100;" xml:space="preserve">
<style type="text/css">
	.st0{fill:#3D3939;}
</style>
<g id="MCT">
	<g id="MCT-white">
		<g id="Group-35">
			<path id="Path" class="st0" d="M60.7,30.4v0.9c-0.8,0-1.5,0.1-2.3,0.3c-0.5,0.2-0.9,0.6-1,1.1c-0.2,0.8-0.3,1.6-0.3,2.5v22.6
				c0,0.8,0.1,1.7,0.3,2.5c0.1,0.5,0.5,0.9,1,1.1c0.7,0.2,1.5,0.3,2.3,0.4v0.9c-0.9-0.1-2-0.1-3.3-0.1c-1.3,0-2.7,0-4.1,0
				c-1.5,0-2.9,0-4.3,0c-1.3,0-2.4,0.1-3.2,0.1v-0.9c0.8,0,1.7-0.1,2.4-0.4c0.5-0.2,1-0.6,1.1-1.1c0.2-0.8,0.3-1.6,0.3-2.5V33.2h0.3
				L38.2,62.8h-0.8L24.6,33.4v21.8c0,1.3,0.1,2.6,0.3,3.9c0.1,0.8,0.6,1.5,1.3,1.9c0.6,0.4,1.7,0.6,3.1,0.8v0.9
				c-0.6-0.1-1.4-0.1-2.4-0.1c-1,0-1.9,0-2.8,0c-0.7,0-1.5,0-2.2,0c-0.8,0-1.4,0.1-1.9,0.1v-0.9c0.8-0.1,1.6-0.3,2.3-0.8
				c0.6-0.5,0.9-1.1,1-1.8c0.2-1.1,0.3-2.3,0.3-3.4V35.3c0-0.8-0.1-1.7-0.3-2.5c-0.1-0.5-0.5-0.9-1-1.1c-0.7-0.2-1.5-0.3-2.3-0.3
				v-0.9c0.5,0,1.1,0.1,1.9,0.1c0.8,0,1.5,0,2.2,0c1.4,0,2.7,0,4,0c1.3,0,2.5-0.1,3.5-0.1l10,23.1l-1.2,1l9.6-24h3.4
				c1.4,0,2.8,0,4.1,0C58.7,30.5,59.8,30.5,60.7,30.4z"/>
			<path id="Shape" class="st0" d="M84.5,38.9v0.9c-0.7,0.2-1.3,0.6-1.7,1.1c-0.5,0.6-1.1,1.5-1.6,2.9L74.4,62l-1.8,3.2L62,42.5
				c-0.5-1.2-1.1-1.9-1.6-2.2c-0.4-0.2-0.9-0.4-1.4-0.4v-1c1.1,0.1,2.2,0.2,3.3,0.2c1.1,0,2.3,0.1,3.3,0.1c1.3,0,2.5,0,3.6-0.1
				c1.1-0.1,2.1-0.1,3.1-0.2v1c-0.6,0-1.2,0-1.8,0.1c-0.5,0-0.9,0.3-1.2,0.6c-0.2,0.4-0.1,1,0.3,1.8l6.1,13.9l-0.4,0.3l3.6-9.5
				c0.9-2.5,1-4.3,0.4-5.4c-0.6-1.1-1.7-1.8-3.2-1.9v-0.9c0.7,0,1.5,0.1,2.4,0.1c0.9,0,1.6,0,2.3,0c0.6,0,1.3,0,2,0
				C83.5,39,84.1,39,84.5,38.9z M74.4,62l-1.8,4.9c-0.6,1.6-1.3,2.6-2.1,3.3c-0.5,0.4-1.1,0.7-1.7,0.8c-0.8,0.2-1.6,0.3-2.5,0.3
				c-0.8,0-1.6-0.1-2.4-0.4c-0.8-0.2-1.5-0.6-2.1-1.2c-0.6-0.6-0.9-1.3-0.8-2.1c0-0.9,0.4-1.7,1.1-2.3c1.6-1.1,3.8-1.1,5.4-0.1
				c0.7,0.5,1.1,1.3,1,2.2c0,0.6-0.2,1.2-0.6,1.7c-0.5,0.6-1.1,1-1.8,1.2c0.2,0,0.4,0,0.6,0h0.5c0.9,0,1.8-0.3,2.6-0.9
				c0.7-0.6,1.4-1.5,1.8-2.7l1.7-4.7L74.4,62z"/>
			<path id="Path_00000026854965860534199520000008197881372458092169_" class="st0" d="M103.1,28.7c2.1,0,3.8,0.3,5.2,0.9
				c1.3,0.6,2.5,1.3,3.6,2.1c0.6,0.5,1.1,0.5,1.5,0.2c0.3-0.4,0.6-1.2,0.7-2.5h1.1c-0.1,1.2-0.1,2.7-0.1,4.4c0,1.7,0,4,0,6.8h-1.1
				c-0.1-1.2-0.3-2.4-0.6-3.6c-0.2-0.9-0.6-1.8-1-2.7c-0.5-0.8-1.1-1.5-1.9-2.1c-0.8-0.8-1.7-1.3-2.8-1.7c-1.1-0.4-2.2-0.6-3.3-0.6
				c-1.6,0-3.1,0.4-4.4,1.3c-1.3,0.9-2.3,2.2-2.9,3.6c-0.8,1.6-1.3,3.3-1.6,5.1c-0.4,1.9-0.5,3.9-0.5,5.9c0,2,0.2,4,0.5,5.9
				c0.3,1.8,0.9,3.5,1.7,5.1c0.7,1.4,1.7,2.6,3,3.5c1.3,0.9,2.8,1.3,4.4,1.3c1.1,0,2.2-0.2,3.2-0.6c1-0.4,2-0.9,2.7-1.7
				c1.2-0.9,2.1-2.1,2.5-3.4c0.5-1.8,0.9-3.6,1-5.5h1.1c0,2.9,0,5.3,0,7.1c0,1.8,0.1,3.3,0.1,4.6H114c-0.1-1.3-0.3-2.2-0.6-2.5
				c-0.3-0.3-0.8-0.3-1.5,0.1c-1.2,0.8-2.4,1.5-3.7,2.1c-1.3,0.6-3,0.9-5.1,0.9c-3.4,0-6.3-0.7-8.8-2c-2.5-1.3-4.6-3.3-5.9-5.7
				c-1.4-2.5-2.1-5.5-2.1-9c0-3.4,0.7-6.5,2.2-9.1c1.4-2.5,3.4-4.6,6-6.1C96.9,29.5,99.8,28.7,103.1,28.7z"/>
			<path id="Shape_00000112624612150317199680000012866507886054419124_" class="st0" d="M131.3,37.2c2,0,4,0.4,5.8,1.3
				c1.7,0.9,3.1,2.3,3.9,4.1c0.9,1.9,1.4,4.4,1.4,7.4c0,3.1-0.5,5.6-1.4,7.4c-0.8,1.8-2.2,3.2-3.9,4c-3.7,1.7-7.8,1.7-11.5,0
				c-1.7-0.9-3.1-2.3-3.9-4c-0.9-1.9-1.4-4.3-1.4-7.4c0-3.1,0.5-5.6,1.4-7.4c0.8-1.8,2.2-3.2,3.9-4.1
				C127.4,37.6,129.3,37.2,131.3,37.2L131.3,37.2z M131.3,38.2c-1.2,0-2.2,0.9-3,2.8c-0.8,1.9-1.2,4.9-1.2,9.1c0,4.2,0.4,7.2,1.2,9
				c0.8,1.8,1.8,2.8,3,2.8c1.2,0,2.2-0.9,3-2.8c0.8-1.8,1.2-4.9,1.2-9c0-4.2-0.4-7.2-1.2-9.1C133.5,39.1,132.5,38.2,131.3,38.2
				L131.3,38.2z"/>
			<path id="Path_00000067228246728739137210000011954782408613429381_" class="st0" d="M161.6,37.3c1.1,0,2.2,0.1,3.2,0.5
				c0.8,0.3,1.4,0.8,2,1.4c0.5,0.7,0.9,1.5,1.1,2.4c0.3,1.3,0.4,2.6,0.4,3.9v12.9c0,1.3,0.2,2.3,0.7,2.7c0.5,0.5,1.2,0.7,2.3,0.7v1
				c-0.6,0-1.5-0.1-2.7-0.1c-1.2,0-2.4-0.1-3.5-0.1c-1.2,0-2.4,0-3.5,0.1c-1.1,0-2,0.1-2.6,0.1v-1c0.9,0,1.6-0.2,2-0.7
				c0.4-0.5,0.6-1.4,0.6-2.7V43.4c0-0.7-0.1-1.4-0.2-2.1c-0.1-0.5-0.4-1-0.8-1.4c-0.4-0.3-1-0.5-1.8-0.5c-1.3,0-2.5,0.6-3.3,1.6
				c-0.9,1.1-1.4,2.5-1.3,4v13.4c0,1.3,0.2,2.3,0.6,2.7c0.4,0.5,1,0.7,2,0.7v1c-0.6,0-1.4-0.1-2.5-0.1c-1.1,0-2.2-0.1-3.4-0.1
				c-1.2,0-2.4,0-3.7,0.1c-1.3,0-2.2,0.1-2.8,0.1v-1c1.1,0,1.9-0.2,2.3-0.7c0.5-0.5,0.7-1.4,0.7-2.7V43.2c0-1.4-0.2-2.5-0.6-3.2
				c-0.4-0.7-1.2-1-2.4-1v-1c1,0.1,2,0.1,2.9,0.1c1.3,0,2.6-0.1,3.7-0.2c1.1-0.1,2.1-0.3,3.2-0.5v4.3c0.8-1.6,1.9-2.8,3.2-3.5
				C158.5,37.6,160,37.2,161.6,37.3z"/>
			<path id="Path_00000160161108045418684170000001396544176476216984_" class="st0" d="M184.3,37.2c1.1,0,2.2,0.1,3.3,0.5
				c0.7,0.2,1.4,0.5,2,1c1,0.7,1.6,0.3,1.9-1.4h0.9c-0.1,0.9-0.1,1.9-0.1,3.2c0,1.3,0,2.9,0,5h-0.9c-0.2-1.2-0.4-2.3-0.9-3.4
				c-0.4-1.1-1-2-1.8-2.8c-0.9-0.7-2-1.1-3.1-1.1c-0.8,0-1.6,0.2-2.2,0.8c-0.6,0.6-0.9,1.4-0.9,2.2c0,0.9,0.3,1.8,0.8,2.5
				c0.6,0.8,1.3,1.4,2.1,2c0.9,0.6,1.7,1.3,2.7,2c1.4,1,2.6,2.2,3.8,3.5c1,1.2,1.5,2.7,1.5,4.6c0,1.3-0.4,2.6-1.2,3.7
				c-0.8,1.1-1.9,1.9-3.1,2.4c-1.3,0.6-2.8,0.9-4.2,0.8c-0.8,0-1.6-0.1-2.4-0.3c-0.6-0.2-1.2-0.4-1.8-0.7c-0.4-0.2-0.8-0.4-1.1-0.5
				c-0.3-0.2-0.7-0.3-1-0.4c-0.3-0.1-0.6,0-0.8,0.3c-0.3,0.4-0.4,0.8-0.5,1.3h-0.9c0.1-1,0.1-2.2,0.1-3.7c0-1.4,0-3.3,0-5.7h0.9
				c0.1,1.5,0.5,3,1,4.5c0.4,1.2,1.1,2.2,2,3c0.9,0.8,2,1.1,3.1,1.1c0.8,0,1.5-0.3,2.2-0.8c0.7-0.5,1-1.4,1-2.6
				c0-1.3-0.4-2.5-1.3-3.4c-1-1.1-2.1-2-3.3-2.9c-1-0.8-1.9-1.6-2.7-2.4c-0.8-0.8-1.5-1.6-2.1-2.6c-0.5-1-0.8-2.1-0.8-3.3
				c0-1.3,0.3-2.5,1.1-3.6c0.7-1,1.7-1.7,2.8-2.2C181.7,37.5,183,37.2,184.3,37.2z"/>
			<path id="Path_00000052097622225423245490000017169154710970642328_" class="st0" d="M204.2,30.4v7.6h5.6V39h-5.6v18.8
				c0,0.9,0.2,1.6,0.5,2c0.4,0.4,1,0.6,1.6,0.6c0.6,0,1.2-0.2,1.7-0.6c0.6-0.4,1.1-1.1,1.5-2.2l0.8,0.4c-0.5,1.3-1.3,2.5-2.3,3.4
				c-1,0.9-2.4,1.3-4.2,1.3c-0.9,0-1.9-0.1-2.8-0.4c-1.7-0.5-3-2-3.4-3.7c-0.2-1.3-0.4-2.6-0.3-3.9V39h-4v-0.9h4v-6.1
				c1.2,0,2.5-0.1,3.7-0.3C202.2,31.4,203.2,31,204.2,30.4z"/>
			<path id="Shape_00000114754662404055933290000006901666622868488582_" class="st0" d="M217.9,62.8c-2,0-3.5-0.6-4.4-1.7
				c-0.9-1.1-1.4-2.6-1.4-4c-0.1-1.2,0.3-2.3,0.9-3.3c0.6-0.9,1.4-1.6,2.3-2.1c1-0.6,2-1,3-1.4c1.1-0.4,2.1-0.7,3-1.1
				c0.8-0.3,1.6-0.7,2.3-1.3c0.6-0.4,0.9-1.1,0.9-1.8v-3.7c0-0.8-0.1-1.5-0.4-2.2c-0.2-0.6-0.6-1.1-1.2-1.5
				c-0.6-0.4-1.4-0.6-2.1-0.5c-0.6,0-1.2,0.1-1.8,0.3c-0.6,0.2-1.1,0.5-1.5,0.9c0.8,0.3,1.5,0.8,2,1.4c0.5,0.6,0.7,1.4,0.7,2.2
				c0,1-0.4,1.9-1.1,2.6c-0.7,0.6-1.6,1-2.5,0.9c-1.1,0-1.9-0.4-2.5-1.1c-0.6-0.7-0.9-1.6-0.8-2.6c0-0.8,0.2-1.6,0.7-2.3
				c0.5-0.7,1.1-1.2,1.8-1.7c1-0.5,2-0.9,3.1-1.2c1.3-0.3,2.6-0.4,3.9-0.4c1.3,0,2.5,0.1,3.8,0.5c1.1,0.3,2,0.8,2.8,1.6
				c0.7,0.7,1.2,1.7,1.4,2.7c0.2,1.3,0.3,2.7,0.3,4v12.9c0,0.5,0,1.1,0.2,1.6c0.1,0.3,0.4,0.5,0.8,0.5c0.3,0,0.6-0.1,0.9-0.2
				c0.3-0.2,0.5-0.4,0.8-0.6l0.5,0.8c-0.7,0.6-1.4,1-2.2,1.3c-0.9,0.3-1.9,0.5-2.8,0.5c-1.8,0-3-0.4-3.6-1.2
				c-0.6-0.8-0.9-1.7-0.9-2.7c-0.7,1.2-1.6,2.2-2.8,2.9C220.6,62.5,219.2,62.8,217.9,62.8L217.9,62.8z M221.4,59.7
				c0.6,0,1.1-0.1,1.6-0.4c0.6-0.4,1.1-0.9,1.5-1.5v-9.7c-0.4,0.6-0.9,1.2-1.5,1.6c-0.7,0.4-1.3,0.9-2,1.4c-0.7,0.5-1.3,1.1-1.7,1.9
				c-0.5,0.8-0.7,1.8-0.7,3c0,1.4,0.3,2.3,0.8,2.9C219.9,59.4,220.6,59.7,221.4,59.7L221.4,59.7z"/>
			<path id="Path_00000093147087571161555390000001841368448534502802_" class="st0" d="M253.4,37.3c1.1,0,2.2,0.1,3.2,0.5
				c0.8,0.3,1.4,0.8,2,1.4c0.5,0.7,0.9,1.5,1.1,2.4c0.3,1.3,0.4,2.6,0.4,3.9v12.9c0,1.3,0.2,2.3,0.7,2.7c0.5,0.5,1.2,0.7,2.3,0.7v1
				c-0.6,0-1.5-0.1-2.7-0.1c-1.2,0-2.4-0.1-3.5-0.1c-1.2,0-2.4,0-3.5,0.1c-1.1,0-2,0.1-2.6,0.1v-1c0.9,0,1.6-0.2,2-0.7
				c0.4-0.5,0.6-1.4,0.6-2.7V43.4c0-0.7-0.1-1.4-0.2-2.1c-0.1-0.5-0.4-1-0.8-1.4c-0.4-0.3-1-0.5-1.8-0.5c-1.3,0-2.5,0.6-3.3,1.6
				c-0.9,1.1-1.4,2.5-1.3,4v13.4c0,1.3,0.2,2.3,0.6,2.7c0.4,0.5,1,0.7,2,0.7v1c-0.6,0-1.4-0.1-2.5-0.1c-1.1,0-2.2-0.1-3.4-0.1
				c-1.2,0-2.4,0-3.7,0.1c-1.3,0-2.2,0.1-2.8,0.1v-1c1.1,0,1.9-0.2,2.3-0.7c0.5-0.5,0.7-1.4,0.7-2.7V43.2c0-1.4-0.2-2.5-0.6-3.2
				c-0.4-0.7-1.2-1-2.4-1v-1c1,0.1,2,0.1,2.9,0.1c1.3,0,2.6-0.1,3.7-0.2c1.1-0.1,2.1-0.3,3.2-0.5v4.3c0.8-1.6,1.9-2.8,3.2-3.5
				C250.3,37.6,251.9,37.2,253.4,37.3L253.4,37.3z"/>
			<path id="Path_00000019672450416996886880000007364550048259818379_" class="st0" d="M273.9,30.4v7.6h5.6V39h-5.6v18.8
				c0,0.9,0.2,1.6,0.5,2c0.4,0.4,1,0.6,1.6,0.6c0.6,0,1.2-0.2,1.7-0.6c0.6-0.4,1.1-1.1,1.5-2.2l0.8,0.4c-0.5,1.3-1.3,2.5-2.3,3.4
				c-1,0.9-2.4,1.3-4.2,1.3c-0.9,0-1.9-0.1-2.8-0.4c-1.7-0.5-3-2-3.4-3.7c-0.2-1.3-0.4-2.6-0.3-3.9V39h-4v-0.9h4v-6.1
				c1.2,0,2.5-0.1,3.7-0.3C271.9,31.4,273,31,273.9,30.4L273.9,30.4z"/>
		</g>
	</g>
</g>
</svg>
