<svg width="878" height="710" viewBox="0 0 878 710" fill="none" xmlns="http://www.w3.org/2000/svg">
<g clip-path="url(#clip0_191_291)">
<g filter="url(#filter0_f_191_291)">
<ellipse cx="439" cy="355" rx="339" ry="255" fill="#F4CACB"/>
</g>
<path opacity="0.5" d="M536.07 520.13C536.07 520.13 477.23 512.13 461.98 471.46C446.73 430.79 486.98 413.49 499.02 425.14C511.06 436.79 502.49 448.79 502.49 448.79C502.49 448.79 484.03 471.4 448.88 444.26C413.73 417.12 445.17 366.87 445.17 366.87" stroke="white" stroke-miterlimit="10" stroke-linecap="round" stroke-dasharray="3 3"/>
<path opacity="0.5" d="M438.555 200.83C438.555 200.83 469.455 216.01 468.475 250.47C467.495 284.93 437.865 299.59 461.145 322.79" stroke="white" stroke-miterlimit="10" stroke-linecap="round" stroke-dasharray="3 3"/>
<path opacity="0.5" d="M359.88 465.3L381.91 462.06L359.88 458.82L377.24 444.87L356.92 453.1L365.15 432.79L351.19 450.15L347.95 428.12L344.71 450.15L330.76 432.79L338.99 453.1L318.67 444.87L336.03 458.83L314 462.07L336.03 465.31L318.67 479.25L338.99 471.02L330.76 491.33L344.71 473.97L347.95 496L351.19 473.97L365.14 491.33L356.91 471.02L377.23 479.25L359.87 465.3H359.88Z" stroke="#FBC2C2" stroke-width="2" stroke-linejoin="round"/>
<path opacity="0.5" d="M544.054 221.4C544.054 221.4 524.764 236.58 525.374 271.04C525.994 305.5 544.483 320.16 529.953 343.36" stroke="white" stroke-miterlimit="10" stroke-linecap="round" stroke-dasharray="3 3"/>
<path opacity="0.5" d="M564.323 342.16C564.323 342.16 577.533 315 567.583 284.44C557.623 253.88 536.993 253.64 543.733 222.59" stroke="white" stroke-miterlimit="10" stroke-linecap="round" stroke-dasharray="3 3"/>
<path opacity="0.5" d="M216.304 260.61C216.304 260.61 197.014 275.79 197.624 310.25C198.244 344.71 216.734 359.37 202.204 382.57" stroke="white" stroke-miterlimit="10" stroke-linecap="round" stroke-dasharray="3 3"/>
<path opacity="0.5" d="M236.573 381.38C236.573 381.38 249.783 354.22 239.833 323.66C229.873 293.1 209.243 292.86 215.983 261.81" stroke="white" stroke-miterlimit="10" stroke-linecap="round" stroke-dasharray="3 3"/>
<path d="M286.175 434.03C286.175 434.03 283.845 387.85 244.405 355.21C244.405 355.21 204.025 320.18 208.075 280.37C208.075 280.37 212.005 305.85 231.575 317.79C251.145 329.73 259.775 259.67 231.575 231C231.575 231 268.355 255.68 278.855 326.54C278.855 326.54 294.935 316.84 284.585 289.05C284.585 289.05 299.725 308.81 304.805 350.41C308.475 380.43 293.605 389.27 286.175 434.03Z" fill="url(#paint0_linear_191_291)"/>
<path d="M666.565 428.18C666.565 428.18 664.235 382 624.795 349.36C624.795 349.36 584.415 314.33 588.465 274.52C588.465 274.52 592.395 300 611.965 311.94C631.535 323.88 640.165 253.82 611.965 225.15C611.965 225.15 648.745 249.83 659.245 320.69C659.245 320.69 675.325 310.99 664.975 283.2C664.975 283.2 680.115 302.96 685.195 344.56C688.865 374.58 673.995 383.42 666.565 428.18Z" fill="url(#paint1_linear_191_291)"/>
<path d="M413.18 388.55C405.18 391.04 385.5 390.75 409.91 365.23C434.32 339.7 430.56 297.81 425.87 285.61C421.17 273.41 431.79 243.87 431.79 243.87C431.79 243.87 410.84 261.2 413.17 292.43C415.5 323.66 389.25 343.82 381.74 323.63C374.23 303.44 383.62 279.04 393.95 264.02C404.28 249 393.95 217.4 393.95 217.4C393.95 225.22 383.78 268.62 363.38 251.4C336.81 228.98 377.5 155.86 377.98 155C377.29 155.71 329.22 205.11 337.61 237.74C346.06 270.6 319.77 291.25 293.49 328.01C269.78 361.16 273.5 389.12 288.63 407.31C299.11 419.93 315.09 427.85 331.19 429.53C339.38 431.68 347.88 432.8 356.59 432.8C366.37 432.8 375.88 431.38 385 428.69C384.98 428.72 384.95 428.75 384.93 428.78C393.75 427.28 401.21 423.78 407.51 419.1C427.74 404.08 435.97 376.93 438.75 364.89C434.47 377.62 420.12 386.4 413.18 388.57V388.55Z" fill="url(#paint2_linear_191_291)"/>
<path d="M166 366.52H711.95" stroke="#B61936" stroke-width="3" stroke-miterlimit="10" stroke-linecap="round"/>
<path d="M519.563 332.51H454.613C454.011 332.51 453.523 332.998 453.523 333.6V398.55C453.523 399.152 454.011 399.64 454.613 399.64H519.563C520.165 399.64 520.653 399.152 520.653 398.55V333.6C520.653 332.998 520.165 332.51 519.563 332.51Z" fill="#C43050"/>
<path d="M589.797 346.5H537.147C535.887 346.5 534.867 347.48 534.867 348.68V384.36C534.867 385.56 535.887 386.54 537.147 386.54H589.797" stroke="#9B1C2E" stroke-miterlimit="10" stroke-linecap="round"/>
<path d="M574.512 332.73H550.192C549.59 332.73 549.102 333.218 549.102 333.82V398.77C549.102 399.372 549.59 399.86 550.192 399.86H574.512C575.114 399.86 575.602 399.372 575.602 398.77V333.82C575.602 333.218 575.114 332.73 574.512 332.73Z" fill="#FCBE73"/>
<path d="M562.352 352.68C565.765 352.68 568.532 349.913 568.532 346.5C568.532 343.087 565.765 340.32 562.352 340.32C558.939 340.32 556.172 343.087 556.172 346.5C556.172 349.913 558.939 352.68 562.352 352.68Z" fill="#C43050"/>
<path d="M562.352 392.72C565.765 392.72 568.532 389.953 568.532 386.54C568.532 383.127 565.765 380.36 562.352 380.36C558.939 380.36 556.172 383.127 556.172 386.54C556.172 389.953 558.939 392.72 562.352 392.72Z" fill="#C43050"/>
<path d="M615.207 332.73H590.887C590.285 332.73 589.797 333.218 589.797 333.82V398.77C589.797 399.372 590.285 399.86 590.887 399.86H615.207C615.809 399.86 616.297 399.372 616.297 398.77V333.82C616.297 333.218 615.809 332.73 615.207 332.73Z" fill="#798184"/>
<path d="M603.047 352.68C606.46 352.68 609.227 349.913 609.227 346.5C609.227 343.087 606.46 340.32 603.047 340.32C599.634 340.32 596.867 343.087 596.867 346.5C596.867 349.913 599.634 352.68 603.047 352.68Z" fill="#C43050"/>
<path d="M603.047 392.72C606.46 392.72 609.227 389.953 609.227 386.54C609.227 383.127 606.46 380.36 603.047 380.36C599.634 380.36 596.867 383.127 596.867 386.54C596.867 389.953 599.634 392.72 603.047 392.72Z" fill="#CBDBE8"/>
<path d="M384.438 346.5H437.087C438.347 346.5 439.367 347.48 439.367 348.68V384.36C439.367 385.56 438.347 386.54 437.087 386.54H384.438" stroke="#9B1C2E" stroke-miterlimit="10" stroke-linecap="round"/>
<path d="M399.715 399.86H424.035C424.637 399.86 425.125 399.372 425.125 398.77V333.82C425.125 333.218 424.637 332.73 424.035 332.73H399.715C399.113 332.73 398.625 333.218 398.625 333.82V398.77C398.625 399.372 399.113 399.86 399.715 399.86Z" fill="#BACFDD"/>
<path d="M411.875 352.68C415.288 352.68 418.055 349.913 418.055 346.5C418.055 343.087 415.288 340.32 411.875 340.32C408.462 340.32 405.695 343.087 405.695 346.5C405.695 349.913 408.462 352.68 411.875 352.68Z" fill="#B61936"/>
<path d="M411.875 392.72C415.288 392.72 418.055 389.953 418.055 386.54C418.055 383.127 415.288 380.36 411.875 380.36C408.462 380.36 405.695 383.127 405.695 386.54C405.695 389.953 408.462 392.72 411.875 392.72Z" fill="#B61936"/>
<path d="M359.027 399.86H383.348C383.949 399.86 384.438 399.372 384.438 398.77V333.82C384.438 333.218 383.949 332.73 383.348 332.73H359.027C358.426 332.73 357.938 333.218 357.938 333.82V398.77C357.938 399.372 358.426 399.86 359.027 399.86Z" fill="#BACFDD"/>
<path d="M371.18 352.68C374.593 352.68 377.36 349.913 377.36 346.5C377.36 343.087 374.593 340.32 371.18 340.32C367.767 340.32 365 343.087 365 346.5C365 349.913 367.767 352.68 371.18 352.68Z" fill="#B61936"/>
<path d="M371.18 392.72C374.593 392.72 377.36 389.953 377.36 386.54C377.36 383.127 374.593 380.36 371.18 380.36C367.767 380.36 365 383.127 365 386.54C365 389.953 367.767 392.72 371.18 392.72Z" fill="#B61936"/>
<path d="M235.235 346.5H182.585C181.325 346.5 180.305 347.48 180.305 348.68V384.36C180.305 385.56 181.325 386.54 182.585 386.54H235.235" stroke="#9B1C2E" stroke-miterlimit="10" stroke-linecap="round"/>
<path d="M219.957 332.73H195.637C195.035 332.73 194.547 333.218 194.547 333.82V398.77C194.547 399.372 195.035 399.86 195.637 399.86H219.957C220.559 399.86 221.047 399.372 221.047 398.77V333.82C221.047 333.218 220.559 332.73 219.957 332.73Z" fill="#B61936"/>
<path d="M207.797 352.68C211.21 352.68 213.977 349.913 213.977 346.5C213.977 343.087 211.21 340.32 207.797 340.32C204.384 340.32 201.617 343.087 201.617 346.5C201.617 349.913 204.384 352.68 207.797 352.68Z" fill="#CBDBE8"/>
<path d="M207.797 392.72C211.21 392.72 213.977 389.953 213.977 386.54C213.977 383.127 211.21 380.36 207.797 380.36C204.384 380.36 201.617 383.127 201.617 386.54C201.617 389.953 204.384 392.72 207.797 392.72Z" fill="#CBDBE8"/>
<path d="M260.644 332.73H236.324C235.722 332.73 235.234 333.218 235.234 333.82V398.77C235.234 399.372 235.722 399.86 236.324 399.86H260.644C261.246 399.86 261.734 399.372 261.734 398.77V333.82C261.734 333.218 261.246 332.73 260.644 332.73Z" fill="#B61936"/>
<path d="M248.485 352.68C251.898 352.68 254.665 349.913 254.665 346.5C254.665 343.087 251.898 340.32 248.485 340.32C245.072 340.32 242.305 343.087 242.305 346.5C242.305 349.913 245.072 352.68 248.485 352.68Z" fill="#CBDBE8"/>
<path d="M248.485 392.72C251.898 392.72 254.665 389.953 254.665 386.54C254.665 383.127 251.898 380.36 248.485 380.36C245.072 380.36 242.305 383.127 242.305 386.54C242.305 389.953 245.072 392.72 248.485 392.72Z" fill="#CBDBE8"/>
<path d="M309.857 399.63C328.392 399.63 343.417 384.605 343.417 366.07C343.417 347.535 328.392 332.51 309.857 332.51C291.322 332.51 276.297 347.535 276.297 366.07C276.297 384.605 291.322 399.63 309.857 399.63Z" fill="#798184"/>
<path d="M309.856 375.41C315.014 375.41 319.196 371.228 319.196 366.07C319.196 360.912 315.014 356.73 309.856 356.73C304.697 356.73 300.516 360.912 300.516 366.07C300.516 371.228 304.697 375.41 309.856 375.41Z" fill="#CBDBE8"/>
<path d="M664.076 399.63C682.61 399.63 697.636 384.605 697.636 366.07C697.636 347.535 682.61 332.51 664.076 332.51C645.541 332.51 630.516 347.535 630.516 366.07C630.516 384.605 645.541 399.63 664.076 399.63Z" fill="#BACFDD"/>
<path d="M664.074 375.41C669.233 375.41 673.414 371.228 673.414 366.07C673.414 360.912 669.233 356.73 664.074 356.73C658.916 356.73 654.734 360.912 654.734 366.07C654.734 371.228 658.916 375.41 664.074 375.41Z" fill="#B61936"/>
<path d="M568.055 422.78L595.015 455L604.475 447.11L577.515 414.89L568.055 422.78Z" fill="#BACFDD"/>
<path d="M609.983 444.97C609.243 444.09 608.213 443.54 607.073 443.44C605.923 443.34 604.813 443.69 603.923 444.42L592.663 453.82C590.843 455.34 590.593 458.07 592.113 459.89L638.633 515.64C642.313 520.05 648.893 520.64 653.313 516.96L655.193 515.39C659.603 511.71 660.203 505.13 656.513 500.71L609.993 444.96L609.983 444.97Z" fill="#ABB8C1"/>
<mask id="mask0_191_291" style="mask-type:luminance" maskUnits="userSpaceOnUse" x="591" y="443" width="68" height="77">
<path d="M609.983 444.97C609.243 444.09 608.213 443.54 607.073 443.44C605.923 443.34 604.813 443.69 603.923 444.42L592.663 453.82C590.843 455.34 590.593 458.07 592.113 459.89L638.633 515.64C642.313 520.05 648.893 520.64 653.313 516.96L655.193 515.39C659.603 511.71 660.203 505.13 656.513 500.71L609.993 444.96L609.983 444.97Z" fill="white"/>
</mask>
<g mask="url(#mask0_191_291)">
<path d="M590.029 467.02C600.029 465.32 609.099 459.33 614.859 451.02C616.489 448.67 617.829 446.13 618.859 443.46C619.059 442.95 618.359 442.69 618.019 442.97C617.789 443.17 617.549 443.36 617.319 443.56C616.829 443.97 617.539 444.68 618.029 444.27C618.259 444.07 618.499 443.88 618.729 443.68L617.889 443.19C614.309 452.39 606.789 459.9 597.719 463.73C595.169 464.81 592.489 465.59 589.749 466.05C589.119 466.16 589.389 467.12 590.019 467.01L590.029 467.02Z" fill="#7C8589"/>
<path d="M595.442 474.83C605.432 472.01 614.252 465.52 620.072 456.94C621.712 454.53 623.082 451.95 624.202 449.26C624.452 448.67 623.482 448.41 623.242 448.99C619.362 458.33 612.022 466.12 603.052 470.75C600.542 472.05 597.902 473.08 595.182 473.85C594.562 474.02 594.822 474.99 595.452 474.81L595.442 474.83Z" fill="#7C8589"/>
</g>
<path d="M587.992 294.57C620.072 333.15 614.802 390.42 576.232 422.5C537.652 454.58 480.382 449.31 448.302 410.74C416.222 372.16 421.492 314.89 460.062 282.81C498.642 250.73 555.912 256 587.992 294.57Z" fill="#BACFDD"/>
<path d="M580.576 300.72C609.256 335.21 604.556 386.42 570.056 415.11C535.566 443.79 484.356 439.09 455.666 404.59C426.986 370.1 431.686 318.89 466.186 290.2C500.676 261.52 551.886 266.22 580.576 300.72Z" fill="#E8EEF9"/>
<path d="M588.172 384.79V311.52C585.972 307.78 583.452 304.16 580.582 300.71C551.902 266.22 500.682 261.51 466.192 290.19C460.302 295.09 455.302 300.65 451.172 306.67H486.202C487.072 306.67 487.782 307.38 487.782 308.25V402.54C487.782 403.41 487.072 404.12 486.202 404.12H455.322C455.442 404.27 455.552 404.42 455.682 404.57C484.362 439.06 535.582 443.77 570.072 415.09C577.502 408.91 583.542 401.68 588.172 393.8V384.78" fill="#F8BEBF"/>
<path d="M487.794 402.55V308.26C487.794 307.39 487.084 306.68 486.214 306.68H451.184C431.204 335.74 431.904 375.56 455.334 404.14H486.214C487.084 404.14 487.794 403.43 487.794 402.56V402.55Z" fill="#B61936"/>
<path d="M589.507 326.66H511.807C509.947 326.66 508.438 328.08 508.438 329.83V381.63C508.438 383.38 509.947 384.8 511.807 384.8H589.507" stroke="#9B1C2E" stroke-miterlimit="10" stroke-linecap="round"/>
<path d="M565.982 306.68H530.682C529.812 306.68 529.102 307.39 529.102 308.26V402.55C529.102 403.42 529.812 404.13 530.682 404.13H565.982C566.852 404.13 567.562 403.42 567.562 402.55V308.26C567.562 307.39 566.852 306.68 565.982 306.68ZM548.332 393.77C543.372 393.77 539.352 389.75 539.352 384.79C539.352 379.83 543.372 375.81 548.332 375.81C553.292 375.81 557.312 379.83 557.312 384.79C557.312 389.75 553.292 393.77 548.332 393.77ZM548.332 335.64C543.372 335.64 539.352 331.62 539.352 326.66C539.352 321.7 543.372 317.68 548.332 317.68C553.292 317.68 557.312 321.7 557.312 326.66C557.312 331.62 553.292 335.64 548.332 335.64Z" fill="#798184"/>
<path d="M548.332 375.82C543.372 375.82 539.352 379.84 539.352 384.8C539.352 389.76 543.372 393.78 548.332 393.78C553.292 393.78 557.312 389.76 557.312 384.8C557.312 379.84 553.292 375.82 548.332 375.82Z" fill="#CBDBE8"/>
<path d="M548.332 317.69C543.372 317.69 539.352 321.71 539.352 326.67C539.352 331.63 543.372 335.65 548.332 335.65C553.292 335.65 557.312 331.63 557.312 326.67C557.312 321.71 553.292 317.69 548.332 317.69Z" fill="#CBDBE8"/>
<path d="M588.172 311.52V393.81C602.882 368.77 603.262 337.15 588.172 311.52Z" fill="#798184"/>
<path d="M563.935 419.75C534.675 439.77 496.035 438.23 468.555 417.01" stroke="#7C8589" stroke-miterlimit="10"/>
<path d="M594.557 325.05C591.437 316.42 586.797 308.18 580.597 300.72C567.207 284.62 548.897 275.01 529.688 272.25" stroke="#7C8589" stroke-miterlimit="10"/>
<path d="M367.09 458.03L365.35 451.24L363.61 458.03L356.82 459.77L363.61 461.51L365.35 468.3L367.09 461.51L373.88 459.77L367.09 458.03Z" fill="#FEFEFE"/>
<path d="M367.09 481.98L365.35 475.2L363.61 481.98L356.82 483.72L363.61 485.46L365.35 492.25L367.09 485.46L373.88 483.72L367.09 481.98Z" fill="#FEFEFE"/>
<path d="M356.942 469.4L355.202 462.61L353.462 469.4L346.672 471.14L353.462 472.88L355.202 479.67L356.942 472.88L363.732 471.14L356.942 469.4Z" fill="#FEFEFE"/>
<path d="M377.32 469.4L375.5 462.61L373.68 469.4L366.57 471.14L373.68 472.88L375.5 479.67L377.32 472.88L384.43 471.14L377.32 469.4Z" fill="#FEFEFE"/>
<path d="M503.452 299.74L511.292 297.5L503.452 295.26L505.972 290.73L501.442 293.25L499.202 285.4L496.962 293.25L492.432 290.73L494.942 295.26L487.102 297.5L494.942 299.74L492.432 304.27L496.962 301.75L499.202 309.6L501.442 301.75L505.972 304.27L503.452 299.74Z" fill="#FDD9D9"/>
<path d="M580.303 365.56L588.143 363.32L580.303 361.08L582.823 356.55L578.293 359.07L576.053 351.22L573.813 359.07L569.283 356.55L571.793 361.08L563.953 363.32L571.793 365.56L569.283 370.09L573.813 367.57L576.053 375.42L578.293 367.57L582.823 370.09L580.303 365.56Z" fill="#FDD9D9"/>
<path d="M477.461 342.49L473.411 326.66L469.361 342.49L453.531 346.54L469.361 350.6L473.411 366.43L477.461 350.6L493.291 346.54L477.461 342.49Z" fill="#FEFEFE"/>
<path d="M502.571 408.58L500.341 399.86L498.111 408.58L489.391 410.81L498.111 413.04L500.341 421.76L502.571 413.04L511.291 410.81L502.571 408.58Z" fill="#FEFEFE"/>
<path d="M526.157 355.58L523.927 346.86L521.697 355.58L512.977 357.81L521.697 360.04L523.927 368.76L526.157 360.04L534.877 357.81L526.157 355.58Z" fill="#FEFEFE"/>
<path d="M548.055 296.42L545.825 287.7L543.595 296.42L534.875 298.65L543.595 300.88L545.825 309.6L548.055 300.88L556.775 298.65L548.055 296.42Z" fill="#FEFEFE"/>
<path d="M441.712 511.08C440.402 515.76 436.822 519.42 432.242 520.76C436.822 522.1 440.402 525.76 441.712 530.44C443.022 525.76 446.602 522.1 451.182 520.76C446.602 519.42 443.022 515.76 441.712 511.08Z" fill="#F8BEBF"/>
<path d="M681.194 220.31C680.114 224.22 677.174 227.28 673.414 228.4C677.174 229.52 680.124 232.58 681.194 236.49C682.274 232.58 685.214 229.52 688.974 228.4C685.214 227.28 682.264 224.22 681.194 220.31Z" fill="#F8BEBF"/>
<path opacity="0.5" d="M319.195 535.89C317.905 540.4 314.375 543.93 309.875 545.21C314.385 546.5 317.915 550.03 319.195 554.53C320.485 550.02 324.015 546.49 328.515 545.21C324.005 543.92 320.475 540.39 319.195 535.89Z" fill="white"/>
<path opacity="0.5" d="M575.602 219.22C574.782 222.09 572.542 224.33 569.672 225.15C572.542 225.97 574.782 228.21 575.602 231.08C576.422 228.21 578.662 225.97 581.532 225.15C578.662 224.33 576.422 222.09 575.602 219.22Z" fill="white"/>
<path opacity="0.5" d="M267.131 450.99L277.081 448.14L267.131 445.3L270.321 439.56L264.581 442.75L261.731 432.8L258.891 442.75L253.151 439.56L256.341 445.3L246.391 448.14L256.341 450.99L253.151 456.73L258.891 453.54L261.731 463.49L264.581 453.54L270.321 456.73L267.131 450.99Z" fill="white"/>
<path d="M489.408 197.81L490.608 200.21L491.638 202.28L493.948 202.61L496.628 203L494.688 204.87L493.018 206.48L493.408 208.76L493.867 211.4L491.478 210.15L489.418 209.07L487.358 210.15L484.967 211.4L485.427 208.76L485.818 206.48L484.147 204.87L482.207 203L484.888 202.61L487.198 202.28L488.228 200.21L489.427 197.81M489.427 187.87L484.258 198.27L472.688 199.94L481.057 208.03L479.087 219.46L489.427 214.06L499.768 219.46L497.798 208.03L506.168 199.94L494.598 198.27L489.427 187.87Z" fill="#FFEBEE"/>
<path d="M552.56 513.36L553.5 515.26L554.31 516.9L556.13 517.16L558.24 517.47L556.71 518.95L555.39 520.22L555.7 522.02L556.06 524.11L554.17 523.13L552.54 522.28L550.91 523.13L549.02 524.11L549.38 522.02L549.69 520.22L548.37 518.95L546.84 517.47L548.95 517.16L550.77 516.9L551.58 515.26L552.52 513.36M552.52 505.52L548.44 513.72L539.32 515.04L545.92 521.43L544.36 530.45L552.52 526.19L560.68 530.45L559.12 521.43L565.72 515.04L556.6 513.72L552.52 505.52Z" fill="#FFEBEE"/>
<path d="M293.655 205.25L294.595 207.13L295.405 208.75L297.205 209.01L299.305 209.31L297.785 210.77L296.475 212.03L296.785 213.81L297.145 215.88L295.275 214.9L293.655 214.06L292.035 214.9L290.165 215.88L290.525 213.81L290.835 212.03L289.525 210.77L288.005 209.31L290.105 209.01L291.905 208.75L292.715 207.13L293.655 205.25ZM301.745 222.19L300.205 213.24L306.755 206.91L297.705 205.61L293.655 197.47L289.605 205.61L280.555 206.91L287.105 213.24L285.565 222.19L293.655 217.97" fill="#F8BEBF"/>
<path opacity="0.5" d="M406.095 321.59C406.095 321.59 384.935 294.43 400.875 263.87C416.825 233.31 449.865 233.07 439.065 202.02" stroke="white" stroke-miterlimit="10" stroke-linecap="round" stroke-dasharray="3 3"/>
</g>
<defs>
<filter id="filter0_f_191_291" x="0" y="0" width="878" height="710" filterUnits="userSpaceOnUse" color-interpolation-filters="sRGB">
<feFlood flood-opacity="0" result="BackgroundImageFix"/>
<feBlend mode="normal" in="SourceGraphic" in2="BackgroundImageFix" result="shape"/>
<feGaussianBlur stdDeviation="50" result="effect1_foregroundBlur_191_291"/>
</filter>
<linearGradient id="paint0_linear_191_291" x1="256.585" y1="231" x2="256.585" y2="434.03" gradientUnits="userSpaceOnUse">
<stop stop-color="white"/>
<stop offset="0.1" stop-color="#FEFDFD" stop-opacity="0.98"/>
<stop offset="0.22" stop-color="#FEF9F9" stop-opacity="0.91"/>
<stop offset="0.36" stop-color="#FEF3F3" stop-opacity="0.81"/>
<stop offset="0.51" stop-color="#FDEAEA" stop-opacity="0.66"/>
<stop offset="0.67" stop-color="#FCDFDF" stop-opacity="0.48"/>
<stop offset="0.84" stop-color="#FCD1D1" stop-opacity="0.25"/>
<stop offset="1" stop-color="#FBC2C2" stop-opacity="0"/>
</linearGradient>
<linearGradient id="paint1_linear_191_291" x1="636.975" y1="225.15" x2="636.975" y2="428.18" gradientUnits="userSpaceOnUse">
<stop stop-color="white"/>
<stop offset="0.1" stop-color="#FEFDFD" stop-opacity="0.98"/>
<stop offset="0.22" stop-color="#FEF9F9" stop-opacity="0.91"/>
<stop offset="0.36" stop-color="#FEF3F3" stop-opacity="0.81"/>
<stop offset="0.51" stop-color="#FDEAEA" stop-opacity="0.66"/>
<stop offset="0.67" stop-color="#FCDFDF" stop-opacity="0.48"/>
<stop offset="0.84" stop-color="#FCD1D1" stop-opacity="0.25"/>
<stop offset="1" stop-color="#FBC2C2" stop-opacity="0"/>
</linearGradient>
<linearGradient id="paint2_linear_191_291" x1="357.63" y1="154.99" x2="357.63" y2="432.79" gradientUnits="userSpaceOnUse">
<stop stop-color="white"/>
<stop offset="0.1" stop-color="#FEFDFD" stop-opacity="0.98"/>
<stop offset="0.22" stop-color="#FEF9F9" stop-opacity="0.91"/>
<stop offset="0.36" stop-color="#FEF3F3" stop-opacity="0.81"/>
<stop offset="0.51" stop-color="#FDEAEA" stop-opacity="0.66"/>
<stop offset="0.67" stop-color="#FCDFDF" stop-opacity="0.48"/>
<stop offset="0.84" stop-color="#FCD1D1" stop-opacity="0.25"/>
<stop offset="1" stop-color="#FBC2C2" stop-opacity="0"/>
</linearGradient>
<clipPath id="clip0_191_291">
<rect width="878" height="710" fill="white"/>
</clipPath>
</defs>
</svg>
