<?xml version="1.0" encoding="utf-8"?>
<!-- Generator: Adobe Illustrator 24.3.0, SVG Export Plug-In . SVG Version: 6.00 Build 0)  -->
<svg version="1.1" id="Layer_1" xmlns="http://www.w3.org/2000/svg" xmlns:xlink="http://www.w3.org/1999/xlink" x="0px" y="0px"
	 viewBox="0 0 1500 880.1" style="enable-background:new 0 0 1500 880.1;" xml:space="preserve">
<style type="text/css">
	.st0{fill:#CBDBE8;}
	.st1{fill:#DFEBF2;}
	.st2{fill:#C9D3DC;}
	.st3{fill:#BB3437;}
	.st4{fill:none;stroke:#000000;stroke-width:5;stroke-linejoin:round;stroke-miterlimit:10;}
	.st5{fill:none;stroke:#000000;stroke-width:5;stroke-miterlimit:10;}
	.st6{fill:#C5D1DA;}
	.st7{fill:#9B1C2E;}
	.st8{clip-path:url(#SVGID_2_);}
	.st9{opacity:0.7;}
	.st10{fill:#ABB8C1;}
	.st11{fill:none;stroke:#000000;stroke-width:5;stroke-linecap:round;stroke-linejoin:round;stroke-miterlimit:10;}
	.st12{fill:#FFFFFF;}
	.st13{fill:#BB3437;stroke:#000000;stroke-width:5;stroke-miterlimit:10;}
	.st14{fill:#DDEDF2;}
	.st15{fill:#C9D3DC;stroke:#000000;stroke-width:5;stroke-miterlimit:10;}
</style>
<g>
	<g>
		<g>
			<g>
				<path class="st0" d="M1350,740H750V140h0.2C1081.5,140,1350,408.7,1350,740z"/>
			</g>
		</g>
		<g>
			<g>
				<path class="st1" d="M750,140v600H150v-0.2C150,408.6,418.6,140,750,140z"/>
			</g>
		</g>
	</g>
	<g>
		<g>
			<g>
				<path class="st6" d="M870.2,554.8c0,16.5-13.1,33.1-29.2,37l-297.5,71.3c-16,3.8-29.2-6.5-29.2-23V424.7
					c0-16.5,13.1-33.1,29.2-37L841,316.5c16-3.8,29.2,6.5,29.2,23V554.8z"/>
			</g>
		</g>
		<g>
			<g>
				<path d="M536.8,666.4c-5.8,0-11.1-1.8-15.5-5.2c-6.1-4.8-9.5-12.3-9.5-21.1V424.7c0-17.6,13.9-35.3,31.1-39.4L840.4,314
					c8.5-2,16.6-0.5,22.7,4.3c6.1,4.8,9.5,12.3,9.5,21.1v215.4c0,17.6-13.9,35.3-31.1,39.4L544,665.5
					C541.6,666.1,539.1,666.4,536.8,666.4z M847.6,318.2c-2,0-4,0.2-6,0.7L544,390.1c-15,3.6-27.3,19.1-27.3,34.6v215.4
					c0,7.2,2.7,13.3,7.6,17.2c4.9,3.9,11.5,5.1,18.5,3.4l297.5-71.3c15-3.6,27.3-19.1,27.3-34.6V339.5c0-7.2-2.7-13.3-7.6-17.2
					C856.6,319.6,852.3,318.2,847.6,318.2z"/>
			</g>
		</g>
	</g>
	<g>
		<g>
			<g>
				<g>
					<path d="M851.1,455.5h-48.3c-1.4,0-2.5-1.1-2.5-2.5v-87.4c0-1.4,1.1-2.5,2.5-2.5h48.3c1.4,0,2.5,1.1,2.5,2.5V453
						C853.6,454.4,852.4,455.5,851.1,455.5z M805.3,450.5h43.3v-82.4h-43.3V450.5z"/>
				</g>
			</g>
			<g>
				<g>
					<path d="M762.3,455.5c-1.4,0-2.5-1.1-2.5-2.5v-87.4c0-1.4,1.1-2.5,2.5-2.5s2.5,1.1,2.5,2.5V453
						C764.8,454.4,763.7,455.5,762.3,455.5z"/>
				</g>
			</g>
		</g>
		<g>
			<g>
				<g>
					<path d="M724.5,455.5h-48.3c-1.4,0-2.5-1.1-2.5-2.5v-87.4c0-1.4,1.1-2.5,2.5-2.5h48.3c1.4,0,2.5,1.1,2.5,2.5V453
						C727,454.4,725.8,455.5,724.5,455.5z M678.7,450.5H722v-82.4h-43.3V450.5z"/>
				</g>
			</g>
			<g>
				<g>
					<path d="M635.7,455.5c-1.4,0-2.5-1.1-2.5-2.5v-87.4c0-1.4,1.1-2.5,2.5-2.5s2.5,1.1,2.5,2.5V453
						C638.2,454.4,637.1,455.5,635.7,455.5z"/>
				</g>
			</g>
		</g>
		<g>
			<g>
				<g>
					<path d="M684,332.8h-48.3c-1.4,0-2.5-1.1-2.5-2.5v-87.4c0-1.4,1.1-2.5,2.5-2.5H684c1.4,0,2.5,1.1,2.5,2.5v87.4
						C686.5,331.7,685.4,332.8,684,332.8z M638.2,327.8h43.3v-82.4h-43.3V327.8z"/>
				</g>
			</g>
			<g>
				<g>
					<path d="M724.5,332.8c-1.4,0-2.5-1.1-2.5-2.5v-87.4c0-1.4,1.1-2.5,2.5-2.5s2.5,1.1,2.5,2.5v87.4
						C727,331.7,725.8,332.8,724.5,332.8z"/>
				</g>
			</g>
		</g>
		<g>
			<g>
				<g>
					<path d="M810.6,332.8h-48.3c-1.4,0-2.5-1.1-2.5-2.5v-87.4c0-1.4,1.1-2.5,2.5-2.5h48.3c1.4,0,2.5,1.1,2.5,2.5v87.4
						C813.1,331.7,812,332.8,810.6,332.8z M764.8,327.8h43.3v-82.4h-43.3V327.8z"/>
				</g>
			</g>
			<g>
				<g>
					<path d="M851.1,332.8c-1.4,0-2.5-1.1-2.5-2.5v-87.4c0-1.4,1.1-2.5,2.5-2.5s2.5,1.1,2.5,2.5v87.4
						C853.6,331.7,852.4,332.8,851.1,332.8z"/>
				</g>
			</g>
		</g>
	</g>
	<g>
		<g>
			<g>
				<path class="st7" d="M985.7,640.1c0,16.5-13.5,30-30,30H544.3c-16.5,0-30-13.5-30-30V424.7c0-16.5,13.5-30,30-30h411.5
					c16.5,0,30,13.5,30,30V640.1z"/>
			</g>
		</g>
		<g>
			<g>
				<path d="M955.7,672.6H544.3c-17.9,0-32.5-14.6-32.5-32.5V424.7c0-17.9,14.6-32.5,32.5-32.5h411.5c17.9,0,32.5,14.6,32.5,32.5
					v215.4C988.2,658,973.7,672.6,955.7,672.6z M544.3,397.2c-15.2,0-27.5,12.3-27.5,27.5v215.4c0,15.2,12.3,27.5,27.5,27.5h411.5
					c15.2,0,27.5-12.3,27.5-27.5V424.7c0-15.2-12.3-27.5-27.5-27.5H544.3z"/>
			</g>
		</g>
	</g>
	<g>
		<g>
			<g>
				<circle class="st7" cx="941.4" cy="532.4" r="13.7"/>
			</g>
		</g>
		<g>
			<g>
				<path d="M941.4,548.6c-8.9,0-16.2-7.3-16.2-16.2s7.3-16.2,16.2-16.2s16.2,7.3,16.2,16.2S950.4,548.6,941.4,548.6z M941.4,521.2
					c-6.2,0-11.2,5-11.2,11.2s5,11.2,11.2,11.2s11.2-5,11.2-11.2S947.6,521.2,941.4,521.2z"/>
			</g>
		</g>
	</g>
	<g>
		<g>
			<g>
				<path class="st2" d="M831.4,544.1H666.9c-2.2,0-4-1.8-4-4s1.8-4,4-4h164.5c2.2,0,4,1.8,4,4S833.7,544.1,831.4,544.1z"/>
			</g>
		</g>
		<g>
			<g>
				<path class="st2" d="M916.9,450.7h-118c-2.2,0-4-1.8-4-4s1.8-4,4-4h118c2.2,0,4,1.8,4,4S919.1,450.7,916.9,450.7z"/>
			</g>
		</g>
		<g>
			<g>
				<path class="st2" d="M700.8,636.7H583.1c-2.2,0-4-1.8-4-4s1.8-4,4-4h115.4l96.9-183.9c1-2,3.5-2.7,5.4-1.7c2,1,2.7,3.4,1.7,5.4
					l-98.1,186C703.7,635.9,702.3,636.7,700.8,636.7z"/>
			</g>
		</g>
	</g>
</g>
</svg>
