<?xml version="1.0" encoding="utf-8"?>
<!-- Generator: Adobe Illustrator 24.3.0, SVG Export Plug-In . SVG Version: 6.00 Build 0)  -->
<svg version="1.1" id="Layer_1" xmlns="http://www.w3.org/2000/svg" xmlns:xlink="http://www.w3.org/1999/xlink" x="0px" y="0px"
	 viewBox="0 0 512 512" style="enable-background:new 0 0 512 512;" xml:space="preserve">
<style type="text/css">
	.st0{fill:#3D3939;}
</style>
<g>
	<path class="st0" d="M484.3,114.2H237.4l-38.1-68.7c-1.7-3.1-5-5-8.5-5h-163c-5.5,0-9.8,4.3-9.8,9.8v381.6c0,5.5,4.3,9.8,9.8,9.8
		h368.7l22.9,22.9c4.2,4.3,10.2,6.8,16.5,6.8c0,0,0,0,0,0c6.3,0,12.4-2.5,16.4-6.8c4.3-4.2,6.8-10.2,6.8-16.5c0-2.2-0.4-4.4-1-6.5
		h26.2c2.6,0,5.1-1,6.9-2.9c1.8-1.8,2.8-4.3,2.8-6.8V124C494.1,118.5,489.8,114.2,484.3,114.2z M369.2,279.4
		c0,58.6-47.6,106.2-106.2,106.2S156.8,338,156.8,279.4S204.4,173.2,263,173.2S369.2,220.8,369.2,279.4z M438.9,445.2
		c2.2,2.2,1.3,4.6,0,6c-1.4,1.4-3.7,2.2-5.9,0.1l-9.5-9.5l-19.6-19.6l-53.3-53.3c2-2,4-4,5.9-6.1l59.4,59.4l19.6,19.6L438.9,445.2z
		 M474.6,422.2h-31.8l-74.7-74.7c3.7-5.7,7-11.7,9.7-17.9c0.5-1,0.9-2.1,1.3-3.1c1.2-3,2.4-6,3.3-9.1l0.7-2.3
		c0.9-2.9,1.6-5.9,2.3-8.9l0.5-2.1c0.7-3.3,1.2-6.8,1.7-11l0.2-1.6c0.3-3.7,0.5-7.4,0.6-11.2l0-1.7c0-3.8-0.2-7.6-0.6-11.2l-0.2-2
		c-0.4-3.8-1-7.2-1.6-10.5l-0.5-2.1c-0.6-2.9-1.4-5.7-2.2-8.5l-0.3-1c-0.2-0.7-0.4-1.4-0.6-2.1c-0.9-2.9-2-5.8-3.2-8.6
		c-0.5-1.2-1-2.4-1.5-3.6c-3.6-8.2-8.3-16.1-13.8-23.7c-2-2.6-4-5.2-6.2-7.7l-2.1-2.3c-2.2-2.4-4.4-4.7-6.8-6.9
		c-6.9-6.5-14.5-12.2-22.7-17l-1.1-0.7c-1.1-0.6-2.2-1.3-3.3-1.9c-2.8-1.5-5.6-2.8-8.5-4.1c-1.1-0.5-2.3-1-3.5-1.4l-0.9-0.3
		c-2-0.8-4-1.5-6-2.2c-1.4-0.5-2.8-0.9-4.2-1.3c-3.2-1-6.5-1.8-9.8-2.5l-2.3-0.4c-3-0.6-6-1-9-1.4c-1-0.1-2.1-0.2-3.1-0.3
		c-7.5-0.7-15.1-0.7-22.6,0c-1,0.1-2.1,0.2-3.1,0.3c-3,0.4-6.1,0.8-9.1,1.4l-2.4,0.4c-3.2,0.7-6.4,1.5-9.6,2.5
		c-1.4,0.4-2.7,0.9-4.3,1.4c-2,0.7-4,1.4-6,2.2l-1,0.4c-1.1,0.4-2.2,0.9-3.3,1.3c-2.9,1.3-5.7,2.6-8.5,4.1c-1.2,0.6-2.3,1.3-3.5,2
		l-1,0.6c-6.3,3.7-12.1,7.7-17.2,12l-1.1,1c-1.9,1.6-3.8,3.3-5.6,5.1c-0.9,0.9-1.8,1.7-2.6,2.6c-2.1,2.2-4.2,4.4-6.1,6.7
		c-0.7,0.8-1.4,1.7-2,2.5c-2,2.5-3.9,5-5.6,7.6l-1.4,2.2c-1.5,2.3-3,4.7-4.3,7.1l-1.4,2.5c-1.5,2.7-2.8,5.5-4,8.3l-0.3,0.7
		c-0.3,0.8-0.7,1.5-1,2.3c-1.2,2.9-2.3,5.9-3.2,8.9c-0.3,1-0.6,2-0.9,3c-0.9,3.1-1.8,6.3-2.5,9.6l-0.5,2.4
		c-0.7,3.9-1.3,7.4-1.6,10.7l-0.1,1.2c-0.4,4.3-0.6,8.2-0.6,12c0,5.1,0.4,10.5,1.3,16.8c7.5,55.6,51.6,99.7,107.2,107.2
		c10.9,1.5,18.3,1.6,28.5,0.7c0.8-0.1,1.5-0.2,2.3-0.3l1.1-0.1c2.7-0.3,5.4-0.7,8-1.2c1.4-0.3,2.8-0.5,4.1-0.8
		c2.4-0.5,4.7-1.2,7.1-1.8l1.2-0.3c1-0.3,1.9-0.5,2.9-0.8c2.7-0.9,5.3-1.8,7.8-2.9c1.8-0.7,3.6-1.5,5.4-2.3c2.3-1,4.6-2.1,6.8-3.3
		c1.3-0.7,2.6-1.5,3.9-2.3l0.8-0.5c1.6-0.9,3.1-1.8,4.6-2.8c1.7-1.1,3.4-2.3,5-3.5l41,41H37.5V60.1H185l38.2,68.7c1.7,3.1,5,5,8.5,5
		h242.9V422.2z"/>
	<path class="st0" d="M263,188.5c-50.2,0-91,40.8-91,91s40.8,91,91,91s91-40.8,91-91S313.1,188.5,263,188.5z M263,352.3
		c-40.2,0-72.9-32.7-72.9-72.9s32.7-72.9,72.9-72.9c40.2,0,72.9,32.7,72.9,72.9C335.8,319.5,303.1,352.2,263,352.3z"/>
	<path class="st0" d="M263,269.9c-5.3,0-9.5,4.3-9.5,9.5c0,5.3,4.3,9.5,9.5,9.5s9.5-4.3,9.5-9.5C272.5,274.1,268.2,269.9,263,269.9z
		"/>
	<path class="st0" d="M234,269.9c-5.3,0-9.5,4.3-9.5,9.5c0,5.3,4.3,9.5,9.5,9.5s9.5-4.3,9.5-9.5C243.6,274.1,239.3,269.9,234,269.9z
		"/>
	<path class="st0" d="M291.9,269.9c-5.3,0-9.5,4.3-9.5,9.5c0,5.3,4.3,9.5,9.5,9.5s9.5-4.3,9.5-9.5
		C301.4,274.1,297.2,269.9,291.9,269.9z"/>
</g>
</svg>
