<?xml version="1.0" encoding="utf-8"?>
<!-- Generator: Adobe Illustrator 24.1.0, SVG Export Plug-In . SVG Version: 6.00 Build 0)  -->
<svg version="1.1" id="Ebene_1" xmlns="http://www.w3.org/2000/svg" xmlns:xlink="http://www.w3.org/1999/xlink" x="0px" y="0px"
	 width="300px" height="100px" viewBox="0 0 300 100" style="enable-background:new 0 0 300 100;" xml:space="preserve">
<style type="text/css">
	.st0{fill:#3d3939;}
</style>
<g id="sygh8K.tif">
	<g>
		<path class="st0" d="M283.6,52.5c-0.2,0.9-0.3,1.9-0.6,2.8c-1.3,4.6-3.9,8.1-7.9,10.6c-3.5,2.2-7.3,3-11.3,2.6
			c-5.1-0.5-9.3-2.9-12.4-6.9c-1.9-2.4-3.1-5.1-3.5-8c-0.2-1-0.3-2.1-0.3-3.1c0-8.9,0-17.7,0-26.6c0-1.8,0.6-3.2,2.3-4
			c1.7-0.9,4.8-0.5,5.6,2.5c0.1,0.6,0.2,1.1,0.2,1.7c0,3.5,0,7,0,10.6c0,0.2,0.1,0.5,0.1,0.7c0.2-0.1,0.5-0.2,0.7-0.3
			c1.6-1,3.4-1.7,5.3-2.1c2.2-0.5,4.4-0.6,6.7-0.2c5.3,0.9,9.4,3.5,12.4,8c1.5,2.2,2.4,4.6,2.7,7.2c0,0.2,0.1,0.4,0.2,0.7
			C283.6,50,283.6,51.2,283.6,52.5z M265.5,60.5c5.4,0.1,10-4.5,10-9.8c0.1-5.6-4.7-10-9.9-10c-5.2,0-10.1,4.3-10.1,9.9
			C255.5,56.1,260.3,60.6,265.5,60.5z"/>
		<path class="st0" d="M144.9,80.9c-0.3-0.1-0.6-0.2-0.9-0.4c-1.7-0.9-2.4-2.3-2.4-4.2c0-6.6,0-13.3,0-19.9c0-2.3,0-4.6,0.1-6.9
			c0.1-3.3,1.2-6.4,3.2-9.1c2.1-3,4.8-5.2,8.2-6.5c2.4-0.9,4.8-1.4,7.4-1.2c6.7,0.4,11.7,3.6,15.1,9.4c1.3,2.3,2,4.8,2.1,7.5
			c0.2,3.9-0.7,7.4-2.7,10.7c-2.5,3.9-5.9,6.5-10.3,7.7c-2.6,0.7-5.2,0.9-7.8,0.4c-2.2-0.4-4.3-1.1-6.2-2.3
			c-0.2-0.1-0.4-0.2-0.8-0.4c0,0.3-0.1,0.5-0.1,0.8c0,3.3,0,6.6,0,10c0,1.2-0.2,2.3-1,3.2c-0.6,0.7-1.3,1-2.1,1.3
			C146,80.9,145.5,80.9,144.9,80.9z M159.7,60.5c5.4,0.1,10-4.5,10-9.9c0-5.5-4.6-9.9-9.9-9.9c-5.2,0-10.1,4.3-10.1,9.9
			C149.7,56.1,154.5,60.6,159.7,60.5z"/>
		<path class="st0" d="M283.6,79.1c-0.2,0-0.4,0.1-0.6,0.1c-41.8,0-83.7,0-125.5,0c-0.2,0-0.3,0-0.5,0c0-0.9,0-1.7,0-2.6
			c0.2,0,0.4,0,0.6,0c41.8,0,83.6,0,125.5,0c0.2,0,0.4,0,0.6,0C283.6,77.4,283.6,78.2,283.6,79.1z"/>
		<path class="st0" d="M61,54.7c0.2-0.3,0.3-0.5,0.4-0.6c2.8-6.1,5.6-12.1,8.3-18.2c0.6-1.4,1.5-2.4,3.1-2.8
			c1.3-0.3,2.4,0.1,3.4,0.8c1.4,1.1,1.8,2.7,1.2,4.3c-0.7,1.8-1.6,3.6-2.4,5.4c-0.1,0.3-0.1,0.6,0,0.9c1.5,3.1,2.9,6.3,4.4,9.4
			c0.1,0.2,0.2,0.3,0.3,0.6c0.2-0.3,0.3-0.4,0.4-0.6c2.8-6.1,5.6-12.2,8.4-18.3c0.9-2,2.5-2.9,4.6-2.5c1.3,0.2,2.7,1.5,3,2.8
			c0.3,1,0.1,2-0.3,3c-3.6,7.8-7.2,15.5-10.8,23.3c-0.6,1.4-1.3,2.7-2,4.1c-0.8,1.6-2.2,2.1-3.9,1.8c-1.6-0.3-2.6-1.3-3.3-2.7
			c-1.6-3.7-3.3-7.5-4.9-11.2c-0.1-0.1-0.1-0.3-0.2-0.4c-0.1-0.1-0.2-0.2-0.3-0.3c-0.1,0.1-0.2,0.2-0.3,0.3
			c-0.5,1.2-1.1,2.4-1.6,3.6c-1.2,2.7-2.4,5.4-3.6,8.1C64.2,67,63,68,61.3,68.1c-1.2,0.1-3.2-0.6-4.1-2.5c-3.2-7-6.5-14-9.7-21
			c-0.9-1.9-1.8-3.8-2.7-5.8c-0.7-1.5-0.4-3,0.6-4.2c1-1.3,2.5-1.8,4.1-1.4c1.4,0.3,2.2,1.3,2.8,2.6c1.5,3.3,3.1,6.7,4.6,10
			c1.3,2.7,2.5,5.5,3.8,8.2C60.7,54.2,60.8,54.4,61,54.7z"/>
		<path class="st0" d="M134.4,56.5c0,2.4,0,4.9,0,7.3c0,1.9-0.8,3.3-2.6,4c-2,0.9-4.2-0.1-5.1-2.1c-0.3-0.7-0.3-0.7-0.9-0.3
			c-1.7,1.2-3.6,2.1-5.7,2.7c-2,0.5-4.1,0.6-6.2,0.3c-3.3-0.4-6.2-1.7-8.8-3.7c-3.1-2.5-5.2-5.6-6.3-9.5c-1-3.8-0.8-7.6,0.7-11.2
			c1.8-4.4,4.9-7.6,9.2-9.7c3.5-1.7,7.2-2.1,11-1.3c6.4,1.3,10.8,5,13.3,11c0.9,2.2,1.3,4.5,1.3,6.9
			C134.4,52.7,134.4,54.6,134.4,56.5z M116.4,60.5c5.5,0.1,10-4.6,10-9.9c0-5.5-4.6-9.9-9.9-9.9c-5.2,0-10,4.4-10,9.9
			C106.4,56.1,111.1,60.6,116.4,60.5z"/>
		<path class="st0" d="M239.4,56.8c0,2.4,0,4.7,0,7.1c0,2.2-1.4,4.1-4,4.3c-1.5,0.1-3-0.7-3.7-2.4c-0.3-0.7-0.3-0.7-0.9-0.3
			c-1.7,1.2-3.6,2.1-5.7,2.7c-2,0.5-4.1,0.6-6.2,0.3c-3.2-0.4-6.1-1.6-8.7-3.6c-2.7-2.1-4.6-4.7-5.9-7.9c-1-2.6-1.4-5.4-1.1-8.2
			c0.5-4.5,2.5-8.3,5.8-11.4c2.2-2,4.8-3.4,7.8-4.2c2.6-0.6,5.2-0.7,7.8-0.2c5.6,1.1,9.8,4.2,12.5,9.2c1.4,2.5,2.1,5.3,2.1,8.2
			C239.4,52.5,239.4,54.6,239.4,56.8C239.4,56.8,239.4,56.8,239.4,56.8z M221.3,60.5c5.4,0.1,9.9-4.5,10-9.7
			c0.1-5.6-4.6-10.1-9.9-10.1c-5.2,0-10,4.3-10,9.9C211.4,56.1,216.1,60.6,221.3,60.5z"/>
		<path class="st0" d="M28.7,32.6c2.3,0,4.6,0.3,6.8,1.1c1.6,0.6,3,1.6,4,3.1c1.4,2,0.6,4.8-1.7,5.7c-0.9,0.4-1.9,0.3-2.8-0.2
			c-1.1-0.7-2.3-1.3-3.6-1.6c-1.2-0.3-2.4-0.4-3.7-0.1c-0.8,0.2-1.6,0.3-2.3,0.6c-1.4,0.6-2,2.6-0.3,3.7c0.6,0.4,1.3,0.7,2,0.9
			c1.9,0.7,3.9,1.2,5.8,1.9c2.1,0.8,4.2,1.8,5.8,3.4c1.7,1.6,2.6,3.6,2.8,5.9c0.4,5.3-3.2,9.4-7.7,10.9c-2.5,0.8-5,0.9-7.5,0.6
			c-2.3-0.3-4.4-0.9-6.4-2c-2.1-1.2-3.8-2.7-4.7-4.9c-0.8-2.1-0.2-4.1,1.7-4.9c1.3-0.6,2.6-0.4,3.8,0.3c0.6,0.3,1.2,0.7,1.7,1.2
			c1.4,1.4,3.1,2.2,5,2.6c1.6,0.3,3,0.1,4.4-0.5c0.3-0.1,0.5-0.3,0.7-0.4c1.3-1,1.3-2.6,0-3.4c-1.2-0.7-2.4-1.4-3.7-1.9
			c-2.7-1-5.3-1.8-7.8-3.3c-1.8-1.1-3.5-2.4-4.3-4.4c-1.4-3.5-0.9-6.8,1.4-9.8c1.5-1.9,3.6-3.1,6-3.6c1.5-0.3,3-0.5,4.5-0.7
			C28.7,32.5,28.7,32.6,28.7,32.6z"/>
		<path class="st0" d="M183.7,40.2c0-5.6,0-11.2,0-16.8c0-1.7,1-3.2,2.5-3.7c2.7-1,5.5,1,5.5,3.9c0,3,0,6.1,0,9.1
			c0,7.6,0,15.2,0,22.9c0,0.6,0.1,1.1,0.2,1.7c0.4,1.5,1.4,2.3,2.9,2.6c0.9,0.2,1.8,0.2,2.7,0.4c1.5,0.4,2.6,2,2.7,3.6
			c0.1,1.9-0.7,3.3-2.4,3.9c-0.5,0.2-1.1,0.3-1.7,0.3c-3.5-0.1-6.7-1.2-9.2-3.8c-2-2.1-3.2-4.6-3.2-7.5
			C183.6,51.3,183.7,45.8,183.7,40.2C183.7,40.2,183.7,40.2,183.7,40.2z"/>
		<path class="st0" d="M134.7,76.6c0,0.8,0,1.7,0,2.5c-39.8,0-79.7,0-119.5,0c0-0.8,0-1.7,0-2.5C55,76.6,94.9,76.6,134.7,76.6z"/>
	</g>
</g>
</svg>
