<?xml version="1.0" encoding="utf-8"?>
<!-- Generator: Adobe Illustrator 24.1.0, SVG Export Plug-In . SVG Version: 6.00 Build 0)  -->
<svg version="1.1" id="Ebene_1" xmlns="http://www.w3.org/2000/svg" xmlns:xlink="http://www.w3.org/1999/xlink" x="0px" y="0px"
	 width="300px" height="100px" viewBox="0 0 300 100" style="enable-background:new 0 0 300 100;" xml:space="preserve">
<style type="text/css">
	.st0{fill:#3d3939;}
</style>
<g id="_x30_29YCU.tif">
	<g>
		<path class="st0" d="M212,15.8c0,5.2,0,10.4,0,15.5c-1.2,0.2-2.3,0.3-3.4,0.5c-4.4,1.1-7.7,3.8-9.9,7.7c-3.9,7.1-3.6,14.2,0.8,21
			c2.4,3.7,5.9,6.1,10.4,6.7c0.7,0.1,1.3,0.1,2.1,0.2c0,5.2,0,10.5,0,15.7c-0.1,0-0.2,0-0.3,0c-1-0.1-2-0.2-3-0.3
			c-5.9-0.7-10.9-3.3-15.3-7.3c-3.8-3.5-6.5-7.7-8.4-12.5c-0.1-0.2-0.2-0.5-0.4-0.8c-0.2,0.4-0.3,0.7-0.4,0.9
			c-2.1,5.3-5.2,9.8-9.5,13.5c-3.9,3.3-8.3,5.4-13.4,6.1c-1.2,0.2-2.5,0.3-3.7,0.4c-0.1,0-0.2,0-0.3,0c0-5.2,0-10.4,0-15.7
			c0.4,0,0.7-0.1,1.1-0.1c0.3,0,0.7,0,1-0.1c4.5-0.7,7.9-3,10.4-6.7c4.1-6.2,4.5-12.8,1.6-19.5c-1.7-4.1-4.7-7.2-8.9-8.7
			c-1.6-0.6-3.4-0.8-5.2-1.2c0-5,0-10.2,0-15.4c0.4,0,0.7,0,1.1,0c0.3,0,0.5,0.1,0.8,0.1c5,0.3,9.5,2,13.6,4.9
			c5.4,3.8,9.1,8.9,11.5,15c0.1,0.3,0.2,0.5,0.4,0.9c0.2-0.5,0.3-0.8,0.5-1.1c2.1-5.2,5.2-9.8,9.5-13.4c3.4-2.8,7.3-4.9,11.6-5.8
			c1.5-0.3,3.1-0.5,4.7-0.7C211.3,15.8,211.6,15.8,212,15.8z"/>
		<path class="st0" d="M149.9,83.2c-1.3-0.1-2.5-0.2-3.8-0.4c-5.2-0.8-9.7-3.1-13.7-6.6c-6.5-5.7-10-13-11.2-21.5
			c-1.4-10.1,0.9-19.4,7.1-27.6c4.4-5.8,10.3-9.6,17.6-10.9c0.9-0.2,1.9-0.3,2.8-0.4c0.9,0,1.8,0,2.7,0c0.3,0.1,0.6,0.1,0.9,0.2
			c0,5.2,0,10.4,0,15.6c-0.5,0-1-0.1-1.5-0.1c-5.5-0.1-9.7,2.4-12.9,6.9c-4.5,6.4-4.5,16,0,22.4c2.8,4,6.6,6.5,11.6,6.7
			c0.9,0.1,1.8,0,2.7,0c0,5.2,0,10.4,0,15.5c-0.6,0.1-1.2,0.1-1.8,0.2C150.3,83.2,150.1,83.2,149.9,83.2z"/>
		<path class="st0" d="M127.3,15.8c0.1,2.6,0.2,5.3-0.8,7.8c-1.6,4.1-4.3,6.9-8.7,7.7c-0.5,0.1-1,0.1-1.6,0.1c-11.6,0-23.1,0-34.7,0
			c-0.2,0-0.3,0-0.6,0c0-1.4-0.1-2.7,0-4.1c0.3-4,1.9-7.3,5.2-9.7c1.4-1,3-1.6,4.7-1.8c0.2,0,0.4-0.1,0.7-0.1
			C103.5,15.8,115.4,15.8,127.3,15.8z"/>
		<path class="st0" d="M80.9,83.1c0-0.4,0-0.6,0-0.9c0-9.2,0-18.4,0-27.7c0-3.6,1-6.8,3.4-9.5c2.1-2.4,4.9-3.5,8-3.5
			c7.9,0,15.8,0,23.7,0c0.1,0,0.2,0,0.5,0c-0.1,1.8,0,3.6-0.3,5.4c-0.7,4.4-3,7.7-7.1,9.4c-0.9,0.4-1.9,0.6-2.9,0.7
			c-1.7,0.1-3.5,0.1-5.3,0c-4.1-0.2-6.4,3-6.4,6.4c0,2.4,0,4.7,0,7.1c-0.1,4.5-1.7,8.2-5.5,10.9c-1.7,1.2-3.6,1.7-5.6,1.7
			C82.7,83.1,81.9,83.1,80.9,83.1z"/>
		<path class="st0" d="M154,41.7c1.4,0.1,2.9,0,4.2,0.3c2.4,0.6,4,2.3,4.8,4.7c1.1,3.4,0.5,6.5-2.2,9.1c-1.1,1.1-2.5,1.6-4.1,1.6
			c-1.9,0-3.7,0-5.6,0c-2.8-0.1-5.5-2.2-6.3-5.1c-0.8-2.8-0.5-5.5,1.3-7.9c1.2-1.6,2.9-2.6,4.9-2.6c1,0,1.9,0,2.9,0
			C154,41.8,154,41.8,154,41.7z"/>
	</g>
</g>
</svg>
