<?xml version="1.0" encoding="utf-8"?>
<!-- Generator: Adobe Illustrator 24.1.0, SVG Export Plug-In . SVG Version: 6.00 Build 0)  -->
<svg version="1.1" id="Ebene_1" xmlns="http://www.w3.org/2000/svg" xmlns:xlink="http://www.w3.org/1999/xlink" x="0px" y="0px"
	 width="300px" height="100px" viewBox="0 0 300 100" style="enable-background:new 0 0 300 100;" xml:space="preserve">
<style type="text/css">
	.st0{fill:#3d3939;}
</style>
<g>
	<path class="st0" d="M187.3,70.2c0-0.2-0.1-0.4-0.2-0.6l0,0l-1-1.5c-0.6-0.8-1.2-1.7-1.7-2.5c-1.5-2.3-3-4.6-4.5-6.9
		c-1.3-2-2.7-4-4-6c-0.4-0.6-0.4-1.1,0-1.7c2.3-3.2,4.5-6.5,6.8-9.7c1.2-1.8,2.5-3.5,3.7-5.3c0,0,0-0.1,0-0.1
		c0.1-0.2,0.2-0.4,0.2-0.7c0-0.6-0.5-1.1-1.1-1.1c0,0,0,0,0,0c0,0,0,0,0,0c0,0,0,0,0,0c-0.1,0-5.8,0-6.8,0.1c-0.3,0-0.8,0.2-1,0.4
		c-1.1,1.5-2.2,2.9-3.2,4.4c-2,2.8-3.9,5.6-5.9,8.4c-2.1,3-4.2,5.9-6.3,8.9c-0.1,0.2-0.3,0.3-0.5,0.4c-0.1-0.2-0.2-0.4-0.3-0.7
		c0-0.1,0-0.2,0-0.3c0-3.5,0-7,0-10.4c0-3.2,0-6.4,0-9.6c0-1.3-0.3-1.7-1.7-1.7c-1.6,0-3.2,0-4.9,0c-1.2,0-1.5,0.3-1.5,1.5
		c0,5.7,0,11.3,0,17c0,0,0,0,0,0c0,3.2,0,6.4,0,9.6c0,2.6,0,5.2,0,7.8c0,1.1,0.4,1.4,1.5,1.4c1.7,0,3.5,0,5.2,0
		c0.7,0,1.3-0.3,1.7-0.9c0.3-0.4,0.6-0.9,0.9-1.3c1.4-1.9,2.7-3.8,4.1-5.7c1.1-1.5,2.2-3,3.2-4.4c0.4-0.6,0.8-0.6,1.2,0
		c0.8,1.3,1.7,2.6,2.5,3.9c1.5,2.5,3,4.9,4.6,7.4c0.2,0.4,0.7,0.8,1,0.8c2.2,0.1,4.4,0.1,6.7,0c0,0,0,0,0,0c0,0,0,0,0,0c0,0,0,0,0,0
		c0,0,0.1,0,0.1,0C186.8,71.3,187.3,70.8,187.3,70.2z"/>
	<g>
		<path class="st0" d="M142.5,52c-0.5-0.2-0.5-0.4-0.2-0.8c0.1-0.1,0.2-0.2,0.3-0.2c1.9-1.3,3.2-3,3.8-5.3c0.8-3.5-0.3-6.6-2.9-9
			c-1.9-1.7-4.3-2.4-6.8-2.6c-2.5-0.1-5-0.1-7.6-0.2c-3.7,0-7.4,0-11.1,0c-0.5,0-0.9,0-1.4,0c-1,0-1.2,0.4-1.2,1.5
			c0,5.8,0,11.6,0,17.4c0,0,0,0,0,0c0,5.8,0,11.6,0,17.4c0,1,0.2,1.2,1.2,1.2c6.5,0,13,0,19.4,0c1.7,0,3.3-0.1,4.9-0.7
			c1.1-0.4,2.3-0.8,3.2-1.5c2.3-1.8,3.8-4.2,4.3-7.2c0.4-2.5-0.1-4.7-1.5-6.8C145.8,53.8,144.3,52.7,142.5,52z M124.8,40.6
			c2.4,0,4.7,0,7.1,0c1.3,0,1.9,0.1,3.2,0.1c1.5,0,2.7,1.1,3.2,2.2c0.6,1.5,0.4,3.1-0.5,4.4c-0.8,1.1-2,1.2-3.2,1.4
			c-0.6,0.1-1.3,0.1-2,0.2c-1.2,0-2.3,0-3.5,0c0,0,0,0,0,0c-1.4,0-2.9,0-4.3,0c-1,0-1.1-0.1-1.2-1.1c-0.1-2.1-0.1-4.1-0.1-6.2
			C123.6,40.9,124,40.6,124.8,40.6z M137.8,64.3c-0.9,0.5-1.9,0.7-2.9,0.7c-3.1,0-6.3,0.1-9.4,0.1c-0.3,0-0.6,0-0.9,0
			c-0.6,0-0.8-0.3-0.8-0.9c0-2.5,0-5.1,0-7.6c0-0.8,0.3-1,1.1-1c1.8,0,3.5,0,5.3,0c0,0.1,3.5,0,5.3,0.1c1.6,0.1,3,0.9,3.9,2.2
			C140.7,59.9,140.3,62.9,137.8,64.3z"/>
		<path class="st0" d="M221.1,65.1c-0.3-0.1-0.6-0.1-0.9-0.1c-3.1,0-6.2,0-9.4,0c-3.2,0-6.3,0-9.5,0c-0.8,0-0.9-0.2-0.9-0.9
			c0-2.3-0.1-4.6-0.1-6.8c0-0.5,0.1-0.9,0.1-1.4c0-0.4,0.2-0.6,0.6-0.6c0.7,0,1.5-0.1,2.2-0.1c2.8,0,5.7,0,8.5,0c1.5,0,4.9,0,6.8,0
			c0.7,0,1.3-0.6,1.3-1.3v-4c0-0.7-0.6-1.3-1.3-1.3c-3.5,0-12.8,0-17.1,0c-0.6,0-1.1-0.5-1.2-1.1c0-1.9,0-3.7,0-5.6
			c0-0.9,0.2-1.1,1.1-1.1c5.8,0,11.7,0,17.5,0c0.7,0,1.4,0,2,0c0.7-0.1,1.2-0.6,1.2-1.2c0.1-1.3,0.1-2.7,0.1-4.1
			c0-1.1-0.4-1.4-1.5-1.5c-1,0-2,0-3,0c-1.4,0-2.9,0-4.3,0c-1.5,0-3.1,0-4.6,0c-5.1,0-10.3,0-15.4,0c-0.6,0-0.9,0.1-1.3,0.7
			c-0.3,0.5-0.2,1.1-0.2,1.6c0,5.6,0,11.1,0,16.7c0,0,0,0,0,0c0,5.7,0,11.5,0,17.2c0,1.1,0.3,1.4,1.4,1.4c6.5,0,13,0,19.5,0
			c2.8,0,5.5,0,8.3-0.1c0.6,0,1.1-0.5,1.1-1.1c0-1.3,0-2.7,0-4C222.3,65.8,221.8,65.2,221.1,65.1z"/>
		<path class="st0" d="M259.5,69c-1.3-1.6-2.5-3.5-3.7-5.2c-1.4-2-2.8-4-4.2-6c-1.1-1.5-2.1-3-3.2-4.5c-0.5-0.7-0.5-1.3,0-2
			c1.6-2.4,3.2-4.9,4.9-7.3c1.9-2.9,3.9-5.7,5.8-8.6c0.4-0.7,0.2-1.2-0.6-1.2c-2.5,0-5,0-7.6,0c-0.2,0-0.6,0.1-0.7,0.3
			c-0.5,0.6-0.9,1.2-1.3,1.8c-1.9,3-3.8,5.9-5.6,8.9c-0.2,0.3-0.4,0.3-0.7,0.1c-0.1-0.1-0.3-0.3-0.4-0.4c-1.1-1.6-2.2-3.3-3.3-4.9
			c-1.2-1.8-2.4-3.6-3.6-5.4c-0.1-0.2-0.5-0.4-0.7-0.4c-2.6,0-5.1,0-7.7,0c-0.8,0-1,0.5-0.5,1.2c1.4,2,2.7,4,4.1,6
			c1.3,2,2.7,3.9,4,5.9c0.9,1.3,1.8,2.6,2.7,3.9c0.3,0.5,0.3,0.9,0,1.3c-0.7,1-1.3,1.9-2,2.9c-1,1.5-2,3-3,4.4
			c-0.8,1.1-1.6,2.2-2.4,3.4c-1.3,1.9-2.6,3.9-3.9,5.8c-0.4,0.5-0.5,1.1-0.4,1.7c0,0.4,0.2,0.6,0.7,0.6c2.4,0,4.7,0,7.1,0
			c0.6,0,1.1-0.3,1.4-0.8c0.7-1,1.4-2,2.1-3.1c1.8-2.6,3.6-5.2,5.3-7.8c0.5-0.7,0.9-0.7,1.3,0c1.1,1.6,2.1,3.2,3.2,4.8
			c1.2,1.8,2.3,3.3,3.4,5.2c0,0,0.6,0.9,0.6,0.9s0.5,0.7,1.2,0.7c0.1,0,0.5,0,0.5,0l3.5,0c0,0,2.2,0,3.3,0c0.5,0,0.8-0.1,0.7-0.7
			C260,70.2,260,69.7,259.5,69z"/>
	</g>
	<g>
		<path class="st0" d="M70.9,67.8l-10-14.1c-1.1-1.5-1.1-3.5,0-5l10.2-13.9l-8-13.3h-17c-4.3,0-7.8,3.5-7.8,7.8v44.2
			c0,4.3,3.5,7.8,7.8,7.8h16.4L70.9,67.8z"/>
		<path class="st0" d="M90.3,21.5H69.3L89,49c1.1,1.5,1.1,3.5,0,5l-20,27.3h21.3c4.3,0,7.8-3.5,7.8-7.8V29.2
			C98.1,24.9,94.6,21.5,90.3,21.5z"/>
		<path class="st0" d="M69.8,53l5.1,8.5l5.2-8.2c0.7-1.1,0.7-2.4,0-3.5L75,41.2l-5.2,8.2C69.1,50.5,69.1,51.9,69.8,53z"/>
	</g>
</g>
</svg>
