<?xml version="1.0" encoding="utf-8"?>
<!-- Generator: Adobe Illustrator 24.1.0, SVG Export Plug-In . SVG Version: 6.00 Build 0)  -->
<svg version="1.1" id="Ebene_1" xmlns="http://www.w3.org/2000/svg" xmlns:xlink="http://www.w3.org/1999/xlink" x="0px" y="0px"
	 width="300px" height="100px" viewBox="0 0 300 100" style="enable-background:new 0 0 300 100;" xml:space="preserve">
<style type="text/css">
	.st0{fill:#3d3939;}
</style>
<g id="_x33_vE1a9.tif">
	<g>
		<path class="st0" d="M64.8,52.8c1.9-2,3.6-3.9,5.5-5.8c3.4-3.2,7-6.1,11.3-8c7.1-3.1,14.1-3.3,21.1,0.4c2.2,1.1,4,2.7,5.6,4.6
			c0.2,0.2,0.4,0.4,0.6,0.7c3.1-4.4,7.2-7.3,12.7-7.8c5.4-0.5,10.1,0.7,13.6,5.4c0-8.1,0-16,0-24c3.5,0,6.9,0,10.6,0
			c0,20.4,0,40.8,0,61.3c-2.9,0-5.9,0-9.1,0c-0.1-2.2-0.3-4.3-0.5-6.8c-3.3,5.4-8,7.8-14,7.7c-6-0.1-10.5-3.1-13.9-8.2
			c-0.2,0.3-0.3,0.5-0.4,0.6C101,80.9,90,83,80.7,78.2c-4.1-2.1-7.5-4.9-10.7-8.1c-1.8-1.7-3.5-3.5-5.4-5.5c-0.4,0.5-0.6,1-1,1.3
			c-3.2,3.2-6.4,6.5-10.1,9.2c-5,3.6-10.4,5.8-16.7,5.7c-10.8-0.2-19.2-7.9-20.4-18.6c-0.9-8.3,1.6-15.3,8.1-20.6
			c7.2-5.9,17.1-6.4,25.5-1.6c4.2,2.4,7.7,5.6,11,8.9C62.1,50.2,63.3,51.4,64.8,52.8z M70.5,58.8c4,3.7,7.5,7.8,12.2,10.6
			c1.3,0.7,2.7,1.4,4.1,1.8c8.8,2.8,17.5-3.8,17.1-13c-0.2-6.3-4.3-11.2-10.3-12.2c-3.8-0.7-7.4,0.3-10.7,2.2
			C78.1,50.8,74.4,54.8,70.5,58.8z M58.9,58.9c-4-3.7-7.4-7.7-11.8-10.4c-0.9-0.5-1.8-1-2.7-1.4c-9.8-4.4-19.9,2.7-19,13.3
			c0.5,5.6,4.3,10.1,9.6,11.2c3.4,0.7,6.7,0.1,9.8-1.4c3.6-1.7,6.6-4.3,9.5-7C55.8,61.7,57.3,60.3,58.9,58.9z M135.3,58.4
			c-0.1,0-0.1,0-0.2,0c0-1.3,0-2.7,0-4c-0.2-4.6-3.1-8.2-7.2-9.1c-4.3-1-8.4,1-10.6,5.2c-1,1.9-1.5,4-1.7,6.2
			c-0.3,3.6,0,7.2,1.8,10.5c2,3.7,5.6,5.4,9.7,4.9c3.7-0.5,6.8-3.3,7.6-7.3C135.1,62.6,135.1,60.5,135.3,58.4z"/>
		<path class="st0" d="M212.3,73.5c-0.1,1.8-0.3,3.6-0.4,5.4c0,0.7-0.3,0.9-1,0.9c-2.4,0-4.8,0-7.2,0c-0.2,0-0.5,0-0.7,0
			c0-20.5,0-40.9,0-61.3c3.6,0,7,0,10.5,0c0,8.3,0,16.6,0,25.2c0.2-0.2,0.3-0.3,0.4-0.4c3.4-4.9,8.3-6.7,14-6.3
			c6.5,0.4,11.1,3.8,13.7,9.6c3.7,8.3,3.5,16.7-0.7,24.8c-4,7.6-12.7,11.1-20.6,8.7c-3.2-1-5.6-2.9-7.4-5.7
			c-0.2-0.3-0.3-0.5-0.5-0.7C212.5,73.5,212.4,73.5,212.3,73.5z M213.6,59.1C213.6,59.1,213.7,59.1,213.6,59.1
			c0.1,1.2,0,2.4,0.1,3.6c0.1,1,0.2,2,0.5,3c1.5,3.9,4.3,6.3,8.5,6.5c4.2,0.2,7.3-1.7,9.2-5.4c1.6-3.1,1.9-6.5,1.7-10
			c-0.2-2.8-0.9-5.4-2.5-7.8c-3.2-4.6-9.7-5.4-13.8-1.6c-1.8,1.6-3,3.7-3.3,6.1C213.7,55.4,213.7,57.2,213.6,59.1z"/>
		<path class="st0" d="M173.3,61.6c-0.1,4.5,2.6,8.4,6.9,10c2.5,0.9,5.2,1.1,7.8,0.9c3-0.2,6-0.6,8.8-1.7c0.1,0,0.3-0.1,0.4-0.1
			c0.1,0.2,0.1,0.3,0.1,0.4c0.5,2.3,0.9,4.5,1.4,6.8c-0.1,0.1-0.2,0.2-0.3,0.2c-6.6,2.4-13.3,3.3-20.1,1.7
			c-8.2-1.9-13-7.2-14.6-15.4c-1.2-6.5-0.4-12.8,3.1-18.6c4.9-8.3,15.8-11.6,24.4-7.6c4.4,2.1,7,5.7,8.6,10.1
			c1.4,4,1.6,8.2,1.2,12.4c-0.1,0.7-0.5,0.7-1,0.7c-8.5,0-17,0-25.6,0C174,61.6,173.7,61.6,173.3,61.6z M191.3,54.2
			c0-1.7-0.2-3.3-0.8-4.9c-2.5-6.5-10.1-6.2-13.4-3.1c-2.3,2.2-3.4,4.9-3.8,8C179.3,54.2,185.2,54.2,191.3,54.2z"/>
		<path class="st0" d="M273.7,37.6c3.3,0,6.6,0,9.8,0c0,2.7,0,5.3,0,8c-3.2,0-6.5,0-9.7,0c0,0.3-0.1,0.4-0.1,0.6
			c0,6.6,0,13.1,0.1,19.7c0,1,0.2,2,0.5,2.9c0.6,2.1,2.1,3.1,4.3,3.2c1.3,0,2.6-0.2,3.9-0.3c0.2,0,0.4,0,0.8-0.1c0,2.2,0,4.4,0,6.6
			c0,1.6,0,1.6-1.5,1.9c-2.9,0.6-5.8,0.8-8.7,0.4c-4.7-0.8-7.8-3.6-8.8-8.3c-0.4-2-0.7-4.1-0.7-6.1c-0.1-6.4,0-12.9,0-19.3
			c0-0.3,0-0.7,0-1.1c-2,0-3.9,0-5.9,0c0-2.7,0-5.3,0-8c1.9,0,3.8,0,5.9,0c0-1.3,0-2.4,0-3.6c0-1.8,0-3.5,0-5.3
			c0-0.2,0.3-0.6,0.5-0.7c3.1-0.8,6.2-1.6,9.3-2.3c0.1,0,0.2,0,0.4,0C273.7,29.6,273.7,33.6,273.7,37.6z"/>
		<path class="st0" d="M160.9,79.7c-3.5,0-6.9,0-10.4,0c0-20.4,0-40.8,0-61.3c3.4,0,6.9,0,10.4,0C160.9,38.8,160.9,59.2,160.9,79.7z
			"/>
		<path class="st0" d="M256.9,79.7c-3.5,0-6.9,0-10.4,0c0-14,0-27.9,0-42c3.4,0,6.9,0,10.4,0C256.9,51.7,256.9,65.6,256.9,79.7z"/>
		<path class="st0" d="M251.7,31.5c-3.4,0-5.8-2.4-5.7-5.8c0-3.3,2.5-5.7,5.9-5.7c3.4,0,5.8,2.5,5.8,5.9
			C257.6,29.2,255.1,31.5,251.7,31.5z"/>
	</g>
</g>
</svg>
