<?xml version="1.0" encoding="utf-8"?>
<!-- Generator: Adobe Illustrator 24.3.0, SVG Export Plug-In . SVG Version: 6.00 Build 0)  -->
<svg version="1.1" id="Layer_1" xmlns="http://www.w3.org/2000/svg" xmlns:xlink="http://www.w3.org/1999/xlink" x="0px" y="0px"
	 viewBox="0 0 512 512" style="enable-background:new 0 0 512 512;" xml:space="preserve">
<style type="text/css">
	.st0{fill:#3D3939;}
</style>
<g>
	<path class="st0" d="M414.9,343.8L414.9,343.8l-53.7-18.7c-3.3-1.2-7-0.2-9.4,2.3c-26.7,29.1-60.7,45.1-95.8,45.1
		c-35.1,0-69.2-16-95.9-45.1c-1.7-1.8-4-2.8-6.5-2.8c-1,0-1.9,0.2-2.9,0.5l-53.7,18.7c-53.9,18.7-90,69.6-90,126.6v15.3
		c0,4.8,3.9,8.8,8.8,8.8h480.4c4.8,0,8.8-3.9,8.8-8.8v-15.3C504.9,413.4,468.8,362.5,414.9,343.8z M487.4,477H24.6l0-6.7
		c0.1-49.5,31.5-93.7,78.3-110l48.3-16.8l3,2.9c28.9,28.2,65,43.7,101.9,43.7s73-15.5,101.9-43.7l3-2.9l48.3,16.8
		c46.7,16.3,78.2,60.4,78.3,110L487.4,477z"/>
	<path class="st0" d="M186.9,320.1c20.5,18.5,44.4,28.2,69.1,28.2c24.8,0,48.7-9.8,69.1-28.2c19.8-17.8,35.1-42.7,44.5-72.1l1.2-3.8
		l3.9-0.8c15-3,25.8-24.1,25.8-50.2c0-21.2-6.9-39.1-18-46.7l-2.9-2v-3.5c0-68.2-55.5-123.6-123.6-123.6S132.4,72.9,132.4,141.1v3.5
		l-2.9,2c-11.1,7.6-18,25.5-18,46.7c0,26.1,10.9,47.2,25.8,50.2l3.9,0.8l1.2,3.8C151.7,277.3,167.1,302.3,186.9,320.1z M150.3,225.2
		c-1.8-0.8-4.2-0.8-6.3,0l-4.8,1.6l-2.9-4.1c-3.5-5-7.3-15.4-7.3-29.4c0-16.4,5.1-26.8,8.2-30.5l1.9-2.3l3-0.1
		c2.4-0.1,4.5-1,6.1-2.5c1.9-1.9,2.8-4.5,2.5-7.1l-0.4-3.5c-0.2-2.2-0.5-4.2-0.5-6.2C149.9,82.6,197.5,35,256,35
		s106.1,47.6,106.1,106.1c0,2-0.2,4.1-0.5,6.3l-0.4,3.5c-0.3,2.6,0.7,5.2,2.5,7c1.6,1.6,3.8,2.5,6.1,2.6l3,0.1l1.9,2.3
		c3,3.6,8.1,14.1,8.1,30.4c0,14.8-4,24.9-7.7,29.5l-3,3.7l-4.5-1.7c-2.1-0.8-4.4-0.7-6.4,0.1c-2.5,1-4.5,3.3-5.2,6
		c-14.8,59.7-55.1,99.8-100.2,99.8c-45.1,0-85.4-40.1-100.2-99.8C155.1,228.5,153.1,226.4,150.3,225.2z"/>
	<path class="st0" d="M224.7,149.9c4.8,0,8.8-3.9,8.8-8.8c0-14.1,8.4-22.6,22.6-22.6c14.1,0,22.6,8.4,22.6,22.6
		c0,18-4.2,26.7-16.7,34.3c-22.5,13.7-26.3,31.7-25,40.2c0.6,4.2,4.3,7.2,8.6,7.2c0.4,0,0.8,0,1.1-0.1c4.6-0.5,8-4.8,7.7-9.5
		c0-2.4,0.7-13,16.8-22.8c17.8-10.9,25.1-25.2,25.1-49.2c0-11.5-4-21.7-11.2-28.9C277.7,105,267.4,101,256,101
		c-24,0-40.1,16.1-40.1,40.1C215.9,146,219.8,149.9,224.7,149.9z"/>
	<path class="st0" d="M236.8,256c0,4.8,3.9,8.8,8.8,8.8c4.8,0,8.8-3.9,8.8-8.8c0-4.8-3.9-8.8-8.8-8.8
		C240.7,247.2,236.8,251.2,236.8,256z"/>
</g>
</svg>
