<?xml version="1.0" encoding="UTF-8" standalone="no"?>
<svg
   width="148"
   height="30"
   viewBox="0 0 148 30"
   fill="none"
   version="1.1"
   id="svg15"
   sodipodi:docname="exchangio.svg"
   xmlns:inkscape="http://www.inkscape.org/namespaces/inkscape"
   xmlns:sodipodi="http://sodipodi.sourceforge.net/DTD/sodipodi-0.dtd"
   xmlns="http://www.w3.org/2000/svg"
   xmlns:svg="http://www.w3.org/2000/svg">
  <sodipodi:namedview
     id="namedview15"
     pagecolor="#ffffff"
     bordercolor="#666666"
     borderopacity="1.0"
     inkscape:showpageshadow="2"
     inkscape:pageopacity="0.0"
     inkscape:pagecheckerboard="0"
     inkscape:deskcolor="#d1d1d1"
     inkscape:zoom="7.3108108"
     inkscape:cx="74"
     inkscape:cy="15.046211"
     inkscape:window-width="1920"
     inkscape:window-height="958"
     inkscape:window-x="0"
     inkscape:window-y="50"
     inkscape:window-maximized="1"
     inkscape:current-layer="svg15" />
  <defs
     id="defs15" />
  <path
     d="m 4.84309,2.36403 v 2.43491 c 0,0.59347 -0.4811,1.07456 -1.07457,1.07456 H 2.5842 c -0.90513,0 -1.638888,0.73376 -1.638888,1.63889 0,0.90514 0.733758,1.63889 1.638888,1.63889 h 0.6572 c 0.48266,0 0.87199,0.39203 0.88962,0.87432 0.32844,8.9859 4.99312,8.4689 4.99312,12.8625 0,1.0563 -0.72294,2.1414 -1.29222,2.8321 -0.32022,0.3885 -0.25833,0.9958 0.19144,1.2221 4.56644,2.2969 10.53904,0.9926 11.91104,-0.3088 0.1165,-0.1105 0.164,-0.2693 0.155,-0.4297 -0.1222,-2.1865 -1.8422,-3.7557 -2.9262,-4.4061 -2.9909,-1.7945 -4.1136,-3.6025 -4.399,-4.5938 -0.0604,-0.21 0.1396,-0.3703 0.3483,-0.3057 1.8234,0.564 5.2517,1.4866 5.6883,0.3107 2.5537,0.8072 5.6986,-4.4067 3.5268,-5.3198 C 19.5414,10.7176 18.6787,6.96176 15.0714,6.06643 14.1705,5.84284 13.405,5.12104 13.405,4.19284 V 2.36391 c 0,-0.78347 -0.6352,-1.418598 -1.4186,-1.418598 h -0.2737 c -0.6323,0 -1.1449,0.512608 -1.1449,1.144938 v 2.33964 c 0,0.79729 -0.64637,1.44361 -1.44366,1.44361 -0.79728,0 -1.44361,-0.64632 -1.44361,-1.44361 V 2.09025 C 7.68053,1.45792 7.16792,0.945312 6.5356,0.945312 H 6.26181 c -0.78354,0 -1.41872,0.635188 -1.41872,1.418718 z"
     fill="#FFE034"
     id="path1"
     style="fill:#d6d6d6" />
  <path
     fill-rule="evenodd"
     clip-rule="evenodd"
     d="M 3.89778,4.799 V 2.36409 C 3.89778,1.05844 4.95621,0 6.26187,0 h 0.27379 c 1.15444,0 2.0903,0.935861 2.0903,2.0903 v 2.33965 c 0,0.27517 0.22307,0.49824 0.49824,0.49824 0.27517,0 0.49824,-0.22307 0.49824,-0.49824 V 2.09031 C 9.62244,0.935864 10.5583,0 11.7127,0 h 0.2737 c 1.3056,0 2.364,1.05839 2.364,2.36397 V 4.1929 c 0,0.35946 0.3233,0.80083 0.9488,0.95606 2.1136,0.5246 3.3969,1.89587 4.4294,3.11402 0.1185,0.13981 0.2329,0.27617 0.3442,0.4088 0.9115,1.08621 1.6127,1.92182 2.6213,2.34592 0.4728,0.1988 0.8316,0.5341 1.0519,0.9647 0.212,0.4142 0.2705,0.8649 0.2502,1.2825 -0.0398,0.8213 -0.3906,1.6921 -0.8612,2.4351 -0.4761,0.7518 -1.1348,1.4681 -1.8973,1.9472 -0.5878,0.3693 -1.3006,0.6329 -2.0542,0.5872 -0.3258,0.2595 -0.7215,0.3791 -1.0405,0.4334 -0.552,0.094 -1.1902,0.0567 -1.793,-0.0249 -0.6401,-0.0866 -1.3224,-0.2354 -1.9592,-0.3983 0.5908,0.7745 1.5975,1.7457 3.2589,2.7425 1.1928,0.7158 3.2356,2.5158 3.3837,5.164 0.0207,0.3701 -0.0859,0.8245 -0.4484,1.1683 -0.4957,0.4703 -1.2859,0.8491 -2.1546,1.133 -0.8982,0.2936 -1.9867,0.5199 -3.1686,0.6265 -2.3528,0.2122 -5.1772,-0.0416 -7.66319,-1.292 -1.11456,-0.5606 -1.10964,-1.9236 -0.49613,-2.668 0.25865,-0.3138 0.53765,-0.7003 0.74844,-1.1101 0.21442,-0.4168 0.32791,-0.7991 0.32791,-1.1207 0,-1.47 -0.5772,-2.1719 -1.51849,-3.3166 C 6.45836,19.3259 6.23961,19.0599 6.00621,18.7615 4.68787,17.0763 3.36518,14.7773 3.18769,10.0967 H 2.58426 C 1.15701,10.0967 0,8.9397 0,7.51245 0,6.08521 1.15701,4.92819 2.58426,4.92819 h 1.18432 c 0.07135,0 0.1292,-0.05784 0.1292,-0.12919 z m 9.13192,13.0626 c 0.5217,1.0296 1.7187,2.4873 4.1336,3.9362 1.0839,0.6504 2.8039,2.2195 2.9262,4.4061 0.0089,0.1603 -0.0386,0.3191 -0.1551,0.4296 -1.372,1.3015 -7.3445,2.6058 -11.91098,0.3088 C 7.57365,26.7161 7.51176,26.1087 7.83198,25.7202 8.40126,25.0296 9.1242,23.9445 9.1242,22.8881 9.1242,21.0561 8.31317,20.0779 7.34366,18.9086 5.98804,17.2735 4.32257,15.2647 4.13108,10.0257 4.11345,9.54337 3.72412,9.15134 3.24146,9.15134 h -0.6572 c -0.90513,0 -1.638888,-0.73375 -1.638888,-1.63889 0,-0.90513 0.733758,-1.63889 1.638888,-1.63889 h 1.18432 c 0.59347,0 1.07457,-0.4811 1.07457,-1.07456 V 2.36409 c 0,-0.78353 0.63518,-1.418718 1.41872,-1.418718 h 0.27379 c 0.63232,0 1.14493,0.512608 1.14493,1.144928 v 2.33965 c 0,0.79729 0.64632,1.44361 1.44361,1.44361 0.79728,0 1.4436,-0.64632 1.4436,-1.44361 V 2.09031 c 0,-0.63233 0.5126,-1.144938 1.1449,-1.144938 h 0.2737 c 0.7835,0 1.4186,0.635128 1.4186,1.418598 V 4.1929 c 0,0.9282 0.7656,1.65 1.6664,1.87359 2.0095,0.49875 3.1673,1.88517 4.2804,3.21802 0.885,1.05979 1.7418,2.08579 2.9759,2.60469 2.1718,0.9131 -0.9731,6.1269 -3.5268,5.3198 -0.392,1.0556 -3.1947,0.4201 -5.0832,-0.129 -0.007,-0.0021 -0.014,-0.0041 -0.021,-0.0062 -0.0809,-0.0235 -0.1601,-0.0469 -0.2373,-0.07 -0.1208,-0.0362 -0.2367,-0.0715 -0.3469,-0.1056 -0.2086,-0.0645 -0.4087,0.0958 -0.3482,0.3057 0.0333,0.116 0.0782,0.2431 0.1361,0.3801 0.0332,0.0785 0.0708,0.1602 0.1129,0.245 0.0054,0.0108 0.0109,0.0217 0.0164,0.0326 z"
     fill="#252525"
     id="path2"
     style="fill:#252525" />
  <path
     d="m 14.5848,10.6894 c 0,0.8081 -0.6552,1.4632 -1.4633,1.4632 -0.8082,0 -1.4633,-0.6551 -1.4633,-1.4632 0,-0.80819 0.6551,-1.46333 1.4633,-1.46333 0.8081,0 1.4633,0.65514 1.4633,1.46333 z"
     fill="white"
     id="path3"
     style="fill:#ffffff" />
  <path
     d="m 14.1195,10.6725 c 0,0.5392 -0.4371,0.9763 -0.9762,0.9763 -0.5392,0 -0.9763,-0.4371 -0.9763,-0.9763 0,-0.5391 0.4371,-0.97621 0.9763,-0.97621 0.5391,0 0.9762,0.43711 0.9762,0.97621 z"
     fill="#252525"
     id="path4"
     style="fill:#252525" />
  <path
     fill-rule="evenodd"
     clip-rule="evenodd"
     d="m 18.7993,17.214 c -0.4308,-0.0017 -1.5617,-0.2433 -2.7696,-1.2077 0.3409,0.4272 1.2493,1.2135 2.0971,1.2825 -0.3101,0.1462 -1.2545,0.4694 -3.2363,-0.0846 -0.4022,-0.1501 -0.749,-0.3028 -1.0491,-0.4349 v 0 c -0.9024,-0.3974 -1.3822,-0.6086 -1.6741,-0.0024 -0.5402,1.1219 2.0938,3.4285 3.9366,4.336 l -0.0552,-0.093 c -0.1571,-0.1585 -0.2353,-0.2964 -0.2509,-0.4233 l -1.6526,-2.7878 h 1.0371 l 0.3181,0.2284 h 1.7615 l 1.3039,-0.2975 c 0.0863,-0.1601 0.1648,-0.3315 0.2335,-0.5157 z"
     fill="#9E7D1C"
     id="path5"
     style="fill:#7c7c7c" />
  <path
     d="m 36.3892,9.71513 v 3.67497 h 4.935 v 2.331 h -4.935 v 3.885 h 5.565 v 2.394 h -8.505 V 7.32113 h 8.505 v 2.394 z"
     fill="#212529"
     id="path6"
     style="fill:#242424" />
  <path
     d="m 51.052,22.0001 -2.394,-3.612 -2.121,3.612 h -3.15 l 3.801,-5.838 -3.843,-5.796 h 3.318 l 2.373,3.591 2.142,-3.591 h 3.15 l -3.822,5.796 3.864,5.838 z"
     fill="#212529"
     id="path7"
     style="fill:#242424" />
  <path
     d="m 55.2108,16.1831 c 0,-1.204 0.245,-2.254 0.735,-3.15 0.49,-0.91 1.169,-1.61 2.037,-2.1 0.868,-0.504 1.862,-0.756 2.982,-0.756 1.442,0 2.632,0.364 3.57,1.092 0.952,0.714 1.589,1.722 1.911,3.024 h -3.171 c -0.168,-0.504 -0.455,-0.896 -0.861,-1.176 -0.392,-0.294 -0.882,-0.441 -1.47,-0.441 -0.84,0 -1.505,0.308 -1.995,0.924 -0.49,0.602 -0.735,1.463 -0.735,2.583 0,1.106 0.245,1.967 0.735,2.583 0.49,0.602 1.155,0.903 1.995,0.903 1.19,0 1.967,-0.532 2.331,-1.596 h 3.171 c -0.322,1.26 -0.959,2.261 -1.911,3.003 -0.952,0.742 -2.142,1.113 -3.57,1.113 -1.12,0 -2.114,-0.245 -2.982,-0.735 -0.868,-0.504 -1.547,-1.204 -2.037,-2.1 -0.49,-0.91 -0.735,-1.967 -0.735,-3.171 z"
     fill="#212529"
     id="path8"
     style="fill:#242424" />
  <path
     d="m 75.1516,10.1981 c 0.882,0 1.666,0.196 2.352,0.588 0.686,0.378 1.218,0.945 1.596,1.701 0.392,0.742 0.588,1.638 0.588,2.688 v 6.825 h -2.94 v -6.426 c 0,-0.924 -0.231,-1.631 -0.693,-2.121 -0.462,-0.504 -1.092,-0.756 -1.89,-0.756 -0.812,0 -1.456,0.252 -1.932,0.756 -0.462,0.49 -0.693,1.197 -0.693,2.121 v 6.426 h -2.94 V 6.46013 h 2.94 v 5.35497 c 0.378,-0.504 0.882,-0.896 1.512,-1.176 0.63,-0.294 1.33,-0.441 2.1,-0.441 z"
     fill="#212529"
     id="path9"
     style="fill:#242424" />
  <path
     d="m 81.7274,16.1411 c 0,-1.176 0.231,-2.219 0.693,-3.129 0.476,-0.91 1.113,-1.61 1.911,-2.1 0.812,-0.49 1.715,-0.735 2.709,-0.735 0.868,0 1.624,0.175 2.268,0.525 0.658,0.35 1.183,0.791 1.575,1.323 v -1.659 h 2.961 v 11.634 h -2.961 v -1.701 c -0.378,0.546 -0.903,1.001 -1.575,1.365 -0.658,0.35 -1.421,0.525 -2.289,0.525 -0.98,0 -1.876,-0.252 -2.688,-0.756 -0.798,-0.504 -1.435,-1.211 -1.911,-2.121 -0.462,-0.924 -0.693,-1.981 -0.693,-3.171 z m 9.156,0.042 c 0,-0.714 -0.14,-1.323 -0.42,-1.827 -0.28,-0.518 -0.658,-0.91 -1.134,-1.176 -0.476,-0.28 -0.987,-0.42 -1.533,-0.42 -0.546,0 -1.05,0.133 -1.512,0.399 -0.462,0.266 -0.84,0.658 -1.134,1.176 -0.28,0.504 -0.42,1.106 -0.42,1.806 0,0.7 0.14,1.316 0.42,1.848 0.294,0.518 0.672,0.917 1.134,1.197 0.476,0.28 0.98,0.42 1.512,0.42 0.546,0 1.057,-0.133 1.533,-0.399 0.476,-0.28 0.854,-0.672 1.134,-1.176 0.28,-0.518 0.42,-1.134 0.42,-1.848 z"
     fill="#212529"
     id="path10"
     style="fill:#242424" />
  <path
     d="m 103.163,10.1981 c 1.386,0 2.506,0.441 3.36,1.323 0.854,0.868 1.281,2.086 1.281,3.654 v 6.825 h -2.94 v -6.426 c 0,-0.924 -0.231,-1.631 -0.693,-2.121 -0.462,-0.504 -1.092,-0.756 -1.89,-0.756 -0.812,0 -1.456,0.252 -1.932,0.756 -0.4622,0.49 -0.6932,1.197 -0.6932,2.121 v 6.426 h -2.94 v -11.634 h 2.94 v 1.449 c 0.3922,-0.504 0.8892,-0.896 1.4912,-1.176 0.616,-0.294 1.288,-0.441 2.016,-0.441 z"
     fill="#212529"
     id="path11"
     style="fill:#242424" />
  <path
     d="m 115.157,10.1771 c 0.868,0 1.631,0.175 2.289,0.525 0.658,0.336 1.176,0.777 1.554,1.323 v -1.659 h 2.961 v 11.718 c 0,1.078 -0.217,2.037 -0.651,2.877 -0.434,0.854 -1.085,1.526 -1.953,2.016 -0.868,0.504 -1.918,0.756 -3.15,0.756 -1.652,0 -3.01,-0.385 -4.074,-1.155 -1.05,-0.77 -1.645,-1.82 -1.785,-3.15 h 2.919 c 0.154,0.532 0.483,0.952 0.987,1.26 0.518,0.322 1.141,0.483 1.869,0.483 0.854,0 1.547,-0.259 2.079,-0.777 0.532,-0.504 0.798,-1.274 0.798,-2.31 v -1.806 c -0.378,0.546 -0.903,1.001 -1.575,1.365 -0.658,0.364 -1.414,0.546 -2.268,0.546 -0.98,0 -1.876,-0.252 -2.688,-0.756 -0.812,-0.504 -1.456,-1.211 -1.932,-2.121 -0.462,-0.924 -0.693,-1.981 -0.693,-3.171 0,-1.176 0.231,-2.219 0.693,-3.129 0.476,-0.91 1.113,-1.61 1.911,-2.1 0.812,-0.49 1.715,-0.735 2.709,-0.735 z m 3.843,6.006 c 0,-0.714 -0.14,-1.323 -0.42,-1.827 -0.28,-0.518 -0.658,-0.91 -1.134,-1.176 -0.476,-0.28 -0.987,-0.42 -1.533,-0.42 -0.546,0 -1.05,0.133 -1.512,0.399 -0.462,0.266 -0.84,0.658 -1.134,1.176 -0.28,0.504 -0.42,1.106 -0.42,1.806 0,0.7 0.14,1.316 0.42,1.848 0.294,0.518 0.672,0.917 1.134,1.197 0.476,0.28 0.98,0.42 1.512,0.42 0.546,0 1.057,-0.133 1.533,-0.399 0.476,-0.28 0.854,-0.672 1.134,-1.176 0.28,-0.518 0.42,-1.134 0.42,-1.848 z"
     fill="#212529"
     id="path12"
     style="fill:#242424" />
  <path
     d="m 126.134,22.1471 c -0.532,0 -0.973,-0.161 -1.323,-0.483 -0.336,-0.336 -0.504,-0.749 -0.504,-1.239 0,-0.49 0.168,-0.896 0.504,-1.218 0.35,-0.336 0.791,-0.504 1.323,-0.504 0.518,0 0.945,0.168 1.281,0.504 0.336,0.322 0.504,0.728 0.504,1.218 0,0.49 -0.168,0.903 -0.504,1.239 -0.336,0.322 -0.763,0.483 -1.281,0.483 z"
     fill="#212529"
     id="path13"
     style="fill:#242424" />
  <path
     d="m 131.778,8.98013 c -0.518,0 -0.952,-0.161 -1.302,-0.483 -0.336,-0.336 -0.504,-0.749 -0.504,-1.239 0,-0.49 0.168,-0.896 0.504,-1.218 0.35,-0.336 0.784,-0.504 1.302,-0.504 0.518,0 0.945,0.168 1.281,0.504 0.35,0.322 0.525,0.728 0.525,1.218 0,0.49 -0.175,0.903 -0.525,1.239 -0.336,0.322 -0.763,0.483 -1.281,0.483 z m 1.449,1.38597 v 11.634 h -2.94 v -11.634 z"
     fill="#212529"
     id="path14"
     style="fill:#242424" />
  <path
     d="m 141.298,22.1891 c -1.12,0 -2.128,-0.245 -3.024,-0.735 -0.896,-0.504 -1.603,-1.211 -2.121,-2.121 -0.504,-0.91 -0.756,-1.96 -0.756,-3.15 0,-1.19 0.259,-2.24 0.777,-3.15 0.532,-0.91 1.253,-1.61 2.163,-2.1 0.91,-0.504 1.925,-0.756 3.045,-0.756 1.12,0 2.135,0.252 3.045,0.756 0.91,0.49 1.624,1.19 2.142,2.1 0.532,0.91 0.798,1.96 0.798,3.15 0,1.19 -0.273,2.24 -0.819,3.15 -0.532,0.91 -1.26,1.617 -2.184,2.121 -0.91,0.49 -1.932,0.735 -3.066,0.735 z m 0,-2.562 c 0.532,0 1.029,-0.126 1.491,-0.378 0.476,-0.266 0.854,-0.658 1.134,-1.176 0.28,-0.518 0.42,-1.148 0.42,-1.89 0,-1.106 -0.294,-1.953 -0.882,-2.541 -0.574,-0.602 -1.281,-0.903 -2.121,-0.903 -0.84,0 -1.547,0.301 -2.121,0.903 -0.56,0.588 -0.84,1.435 -0.84,2.541 0,1.106 0.273,1.96 0.819,2.562 0.56,0.588 1.26,0.882 2.1,0.882 z"
     fill="#212529"
     id="path15"
     style="fill:#242424" />
</svg>
