<?xml version="1.0" encoding="utf-8"?>
<!-- Generator: Adobe Illustrator 21.1.0, SVG Export Plug-In . SVG Version: 6.00 Build 0)  -->
<svg version="1.1" id="Ebene_1" xmlns="http://www.w3.org/2000/svg" xmlns:xlink="http://www.w3.org/1999/xlink" x="0px" y="0px"
	 width="300px" height="100px" viewBox="0 0 300 100" style="enable-background:new 0 0 300 100;" xml:space="preserve">
<style type="text/css">
	.st0{fill:#3d3939;}
</style>
<g id="aecK9G.tif">
	<g>
		<path class="st0" d="M28.7,61c0.4-2.1,0.7-4.3,1.3-6.4c1.3-4.2,3.9-7.7,7-10.8c2.7-2.8,5.3-5.5,7.4-8.8c2.9-4.5,4.5-9.5,5-14.8
			c0.2-1.6,0.2-3.3,0.4-5c0.3,0.2,0.6,0.3,0.8,0.5c1.8,1.6,3.1,3.6,4.2,5.7c2.5,4.7,3.7,9.8,3.8,15.1c0,2.9-1,5.6-2.6,7.9
			c-1.9,2.9-4.1,5.7-6.1,8.6c-1.6,2.2-3.2,4.5-4.6,6.8C42,65.1,41.7,70.7,44,76.4c0.7,1.8,1.6,3.5,2.5,5.2c0.3,0.6,0.7,1.2,1,1.9
			c0.2,0.4,0.1,0.8,0.2,1.2c-0.4,0-0.8,0.2-1.2,0.1c-1.3-0.4-2.7-0.6-3.9-1.3c-8.1-4.1-12.6-10.7-13.7-19.7c0-0.3-0.1-0.5-0.1-0.8
			C28.7,62.4,28.7,61.7,28.7,61z"/>
		<path class="st0" d="M268,37.3c-0.4,0.8-0.6,1.8-1.1,2.5c-1.4,2-4.1,2.6-6.3,1.6c-2.2-0.9-3.5-3.4-3.1-5.6
			c0.4-2.5,2.4-4.3,4.9-4.5c2.4-0.2,4.6,1.3,5.4,3.6c0.1,0.3,0.2,0.6,0.3,0.9C268,36.3,268,36.8,268,37.3z"/>
		<path class="st0" d="M97.3,51.7c6.7,0,13.4,0,20.1,0c0-6.7,0-13.4,0-20.2c0.3,0,0.5-0.1,0.7-0.1c2,0,4,0,6,0
			c1.7,0,2.8,1.1,2.8,2.8c0,15.8,0,31.7,0,47.5c0,0.2,0,0.5,0,0.8c-0.3,0-0.5,0-0.7,0c-2,0-3.9,0-5.9,0c-1.8,0-2.8-1.1-2.8-2.9
			c0-6.3,0-12.5,0-18.8c0-0.3,0-0.6,0-0.9c-6.7,0-13.4,0-20.1,0c0,7.5,0,15,0,22.6c-1.4,0-2.7,0-4,0c-0.9,0-1.9,0-2.8,0
			c-1.6,0-2.7-1.1-2.7-2.7c0-0.2,0-0.4,0-0.6c0-15.7,0-31.3,0-47c0-0.3,0-0.5,0-0.9c0.7,0,1.4,0,2,0c1.5,0,3,0,4.6,0
			c1.9,0,2.9,1,2.9,2.9c0,5.5,0,11,0,16.5C97.3,51,97.3,51.3,97.3,51.7z"/>
		<path class="st0" d="M215.7,31.4c0.7,0,1.3,0,1.9,0c1.6,0,3.2,0,4.8,0c1.6,0,2.7,1.1,2.7,2.8c0,3.6,0,7.3,0,10.9
			c0,0.3,0,0.5,0,0.7c1.6-0.5,3.1-1,4.7-1.3c6.5-1.1,12.4,0.2,17.2,5c3.1,3,4.6,6.8,4.7,11.1c0.1,2.3,0.1,4.7-0.1,7
			c-0.6,7.3-4.5,12.1-11.3,14.6c-5.2,1.9-10.5,1.6-15.5-0.9c-6.1-3.1-9.2-8.3-9.2-15.2c0-11.3,0-22.6,0-33.9
			C215.6,32,215.6,31.7,215.7,31.4z M242.1,63.8c0-1.2,0-2.5,0-3.7c0-1.9-0.7-3.5-2-4.9c-2.4-2.5-5.4-3-8.7-2.3
			c-3.6,0.8-6,3.4-6.2,7.1c-0.1,2.5-0.1,5,0,7.6c0,1.7,0.7,3.1,1.8,4.4c2.6,3.1,7.9,3.8,11.5,1.6c2.4-1.5,3.6-3.6,3.7-6.5
			C242.1,66,242.1,64.9,242.1,63.8z"/>
		<path class="st0" d="M209.3,63.7c0,2.4,0.1,4.8-0.6,7.1c-2.1,6.9-6.9,10.8-13.9,12.1c-5.4,1-10.5,0-14.9-3.3
			c-4.5-3.3-6.6-7.9-6.7-13.4c0-2.6-0.2-5.2,0.2-7.7c1.1-7.1,5.3-11.6,12.1-13.7c6.5-1.9,12.7-0.9,18,3.5c3.8,3.2,5.6,7.4,5.7,12.4
			C209.3,61.8,209.3,62.8,209.3,63.7z M199.7,63.7c0-1.2,0-2.4,0-3.5c0-1.9-0.6-3.6-2-5c-2.6-2.6-5.8-3.1-9.3-2.2
			c-3.3,0.9-5.5,3.5-5.6,6.8c-0.1,2.6-0.1,5.1,0,7.7c0,1.7,0.6,3.2,1.8,4.5c2.6,2.7,5.9,3.3,9.4,2.4c3.6-1,5.7-3.8,5.7-7.6
			C199.7,65.8,199.7,64.8,199.7,63.7z"/>
		<path class="st0" d="M134.1,44.1c2.4,0,4.7,0,7,0c1.5,0,2.4,1.2,2.4,2.8c0,6.9,0,13.9,0,20.8c0,3.3,1.9,5.9,4.8,6.9
			c3.1,1.1,8.1-0.4,9-4.8c0.1-0.6,0.2-1.3,0.2-1.9c0-7.6,0-15.1,0-22.7c0-0.3,0-0.6,0-1.1c0.3,0,0.5,0,0.8,0c2,0,3.9,0,5.9,0
			c1.8,0,2.8,1.1,2.8,2.8c0,7.4,0,14.8,0,22.3c0,7-5.6,13.3-12.6,14c-3.3,0.3-6.6,0.5-9.8-0.4c-6.2-1.7-10.5-7.4-10.5-13.8
			c0-8,0-15.9,0-23.9C134.1,44.8,134.1,44.5,134.1,44.1z"/>
		<path class="st0" d="M65,43c0.7,0.6,1.4,1.2,2,1.8c4.1,4.2,6.7,9.2,7.1,15.1c0.6,8.5-2.6,15.2-9.5,20.2c-0.7,0.5-1.5,1-2.3,1.4
			c-1.4,0.7-2.6,1.6-3.4,2.9c-0.2,0.4-0.5,0.5-0.9,0.1c-2.5-2.8-4.8-5.7-5.5-9.5c-0.7-3.3-0.2-6.5,0.9-9.6c1.2-3.6,3.1-6.8,5.2-9.8
			c2.2-3.2,4.2-6.4,5.6-10C64.5,44.8,64.7,44,65,43z"/>
		<path class="st0" d="M258,45.5c2.4,0,4.7-0.1,7,0c1.5,0.1,2.4,1.2,2.4,2.6c0,11.3,0,22.6,0,33.9c0,0.2,0,0.3,0,0.6
			c-0.2,0-0.4,0-0.7,0.1c-1.9,0-3.9,0-5.8,0c-1.9,0-2.9-1-2.9-3c0-11.1,0-22.2,0-33.3C258,46.1,258,45.8,258,45.5z"/>
	</g>
</g>
</svg>
