<?xml version="1.0" encoding="utf-8"?>
<!-- Generator: Adobe Illustrator 24.3.0, SVG Export Plug-In . SVG Version: 6.00 Build 0)  -->
<svg version="1.1" id="Layer_1" xmlns="http://www.w3.org/2000/svg" xmlns:xlink="http://www.w3.org/1999/xlink" x="0px" y="0px"
	 viewBox="0 0 485 485" style="enable-background:new 0 0 485 485;" xml:space="preserve">
<style type="text/css">
	.st0{fill:#4F4C4C;}
</style>
<path class="st0" d="M86.7,454.4c25.1,3,53.2,19.2,76.8,22.1c23.7,3,31-16.1,31-16.1s26.6-6,54.7-6.6c28-0.8,54.6,5.8,54.6,5.8
	s5.1,11.8,14.8,16.9c9.6,5.2,30.3,6,43.6-8c13.3-14.1,48.7-31.8,68.6-42.9c20-11.1,16.4-28,3.8-33.2c-12.6-5.1-22.9-13.3-22.1-28.8
	c0.7-15.4-11.1-25.7-11.1-25.7s10.3-34,0.7-62.1c-9.6-28-41.3-73.1-65.7-107c-24.4-34-3.7-73.2-25.9-123.3
	C288.2-4.7,230.7-1.8,199.7,19.6c-31,21.4-21.5,74.5-20,99.7c1.5,25.1,0.7,43-2.2,49.4c-2.9,6.5-22.9,30.3-36.2,50.2
	c-13.3,20-22.9,61.3-32.6,78.4c-9.5,16.9-2.9,32.4-2.9,32.4S99.2,331.9,94,343c-5.1,11-15.4,16.2-34,19.8
	c-18.4,3.8-18.4,15.6-14,28.9c4.5,13.3,0,20.7-5.1,37.6C35.8,446.3,61.5,451.5,86.7,454.4z M347.1,377.2c13.2,5.8,32.1-2.3,37.8-8
	c5.7-5.7,9.8-14.3,9.8-14.3s5.8,2.9,5.2,12c-0.6,9.2,4,22.4,12.6,27c8.6,4.5,21.8,10.9,15,17.2c-6.9,6.3-45.4,21.8-56.9,33.9
	c-11.4,12-26.3,21.8-35.4,18.9c-9.2-2.9-17.2-15.4-13.3-33.9c4.1-18.3,7.5-38.4,6.9-49.9c-0.6-11.5-2.9-27,0-29.2
	c2.9-2.3,7.4-1.2,7.4-1.2S333.9,371.5,347.1,377.2z M261.7,66.9c12.7,0,22.9,12.6,22.9,28c0,11-5.1,20.5-12.7,25.1
	c-1.9-0.8-3.9-1.7-6.1-2.6c4.6-2.3,7.7-8,7.7-14.7c0-8.7-5.3-15.8-12.1-15.8c-6.5,0-12,7.1-12,15.8c0,3.2,0.8,6.3,2.1,8.8
	c-4-1.6-7.5-3-10.4-4.1c-1.5-3.8-2.4-8-2.4-12.6C238.8,79.5,249,66.9,261.7,66.9z M230.3,115.2c6.2,1.1,23.4,8.5,29.7,10.8
	c6.3,2.2,13.4,6.2,12.7,10.3c-0.8,4.2-4.1,4.2-12.7,9.4c-8.5,5.1-27.1,16.6-33.1,17.4c-5.9,0.8-9.3-2.6-15.6-6.6
	c-6.3-4.2-18.2-13.9-15.2-19c0,0,9.3-7.1,13.4-10.8C213.4,122.9,223.9,114,230.3,115.2z M202.9,71.3c10,0,18.1,11.9,18.1,26.5
	c0,2.7-0.3,5.1-0.8,7.6c-2.5,0.8-5,2.1-7.4,4.2c-1.2,1-2.3,1.9-3.2,2.9c1.6-3,2.2-7.2,1.5-11.7c-1.4-7.9-6.7-13.8-12-13
	c-5.3,0.9-8.4,8.1-7.2,16.2c1.4,8.1,6.6,14,12,13.1c0.3-0.1,0.6-0.2,0.9-0.3c-2.6,2.5-4.9,4.7-7.4,6.4c-7.2-3.4-12.6-13.5-12.6-25.4
	C184.9,83.1,192.9,71.3,202.9,71.3z M147.3,263.2c10.3-16.2,16.9-51.7,27.2-63.5c10.4-11.8,18.4-36.8,14.8-47.9
	c0,0,22.2,26.5,37.6,22.2c15.5-4.5,50.2-30.3,55.4-25.9c5.1,4.5,49.4,101.8,53.9,132.8c4.5,31-3,54.7-3,54.7s-16.9-4.5-19.1,5.8
	c-2.2,10.4-2.2,48.1-2.2,48.1s-22.9,31.7-58.3,36.9c-35.4,5.1-53.2,1.4-53.2,1.4L180.5,405c0,0,15.5-2.3,13.3-17.8
	c-2.2-15.4-47.3-36.8-55.4-56.1C130.3,311.9,136.9,279.4,147.3,263.2z M59.6,379.5c1.8-7.6,24.7-7.6,33.6-13
	c8.8-5.4,10.6-20.7,17.7-24.8c7-4.2,20,10.6,25.4,18.9c5.2,8.1,25.4,43.6,33.6,52.4c8.3,8.9,15.9,20.7,13.6,31.3
	c-2.3,10.6-14.8,18.3-14.8,18.3c-11.2,3.4-42.4-10-56.5-15.9c-14.2-6-50.2-7.7-54.9-13c-4.8-5.4,2.3-17.1,4.2-28.3
	C63.1,394.1,57.8,387.1,59.6,379.5z"/>
</svg>
