<svg width="1024" height="1024" viewBox="0 0 1024 1024" fill="none" xmlns="http://www.w3.org/2000/svg">
<g clip-path="url(#clip0_13_51)">
<path d="M481.4 575.2C481.1 575.1 451.8 566.6 434.5 542.1L434.3 541.8V541.5C434.3 541.2 434.3 534.5 439.6 529C444 524.6 450.5 522.4 459 522.4C461.9 522.4 465 522.7 468.3 523.2C482.4 525.4 492.1 532.9 494.8 543.8C497.6 554.9 492.5 567.5 482.2 575.1L481.8 575.4L481.4 575.2Z" fill="#FF5B7E"/>
<path d="M459.2 523.4C461.9 523.4 464.9 523.6 468.3 524.1C500.5 529 501 559.8 481.7 574.1C481.7 574.1 452.7 565.9 435.4 541.4C435.4 541.4 435.2 523.4 459.2 523.4ZM459.2 521.3C450.3 521.3 443.6 523.6 439 528.3C433.3 534.1 433.3 541.2 433.3 541.5V542.2L433.7 542.7C442.8 555.7 455.2 564.1 464 568.9C473.5 574.1 480.8 576.2 481.1 576.2L482.1 576.5L482.9 575.9C493.5 568 498.8 555 495.9 543.5C493.1 532.1 483.1 524.3 468.5 522.1C465.3 521.5 462.1 521.3 459.2 521.3Z" fill="black"/>
<path d="M512 512.4H256V768.2H512V512.4Z" fill="white"/>
<path d="M1024 0.900024H768V256.7H1024V0.900024Z" fill="white"/>
<path d="M256 0.900024H0V256.7H256V0.900024Z" fill="#CBDBE8"/>
<path d="M512 0.900024H256V256.7H512V0.900024Z" fill="#DFEBF2"/>
<path d="M768 0.900024H512V256.7H768V0.900024Z" fill="white"/>
<path d="M256 256.6H0V512.4H256V256.6Z" fill="white"/>
<path d="M512 256.6H256V512.4H512V256.6Z" fill="#ABB8C1"/>
<path d="M768 256.6H512V512.4H768V256.6Z" fill="#DFEBF2"/>
<path d="M1024 256.6H768V512.4H1024V256.6Z" fill="white"/>
<path d="M256 512.4H0V768.2H256V512.4Z" fill="white"/>
<path d="M1024 512.4H768V768.2H1024V512.4Z" fill="white"/>
<path d="M256 768.2H0V1024H256V768.2Z" fill="white"/>
<path d="M512 768.2H256V1024H512V768.2Z" fill="white"/>
<path d="M768 768.2H512V1024H768V768.2Z" fill="white"/>
<path d="M1024 768.2H768V1024H1024V768.2Z" fill="#DFEBF2"/>
<path d="M552.1 512.4V768.2H424.3C353.5 768.2 296.1 710.9 296.1 640.3C296.1 569.7 353.5 512.4 424.3 512.4H552.1V512.4Z" fill="#DFEBF2"/>
<path d="M768 768.2V512.4H895.8C966.6 512.4 1024 569.7 1024 640.3C1024 710.9 966.6 768.2 895.8 768.2H768Z" fill="#ABB8C1"/>
<path d="M843.7 863.5H823.1C822.5 863.5 822 863 822 862.4V825.1C822 824.5 822.5 824 823.1 824H843.7C844.3 824 844.8 824.5 844.8 825.1V862.4C844.7 863 844.2 863.5 843.7 863.5ZM824.1 861.4H842.6V826.3H824.1V861.4Z" fill="black"/>
<path d="M860.9 863.5C860.3 863.5 859.8 863 859.8 862.4V825.1C859.8 824.5 860.3 824 860.9 824C861.5 824 862 824.5 862 825.1V862.4C862 863 861.5 863.5 860.9 863.5Z" fill="black"/>
<path d="M897.7 863.5H877.1C876.5 863.5 876 863 876 862.4V825.1C876 824.5 876.5 824 877.1 824H897.7C898.3 824 898.8 824.5 898.8 825.1V862.4C898.7 863 898.3 863.5 897.7 863.5ZM878.1 861.4H896.6V826.3H878.1V861.4Z" fill="black"/>
<path d="M914.9 863.5C914.3 863.5 913.8 863 913.8 862.4V825.1C913.8 824.5 914.3 824 914.9 824C915.5 824 916 824.5 916 825.1V862.4C916 863 915.5 863.5 914.9 863.5Z" fill="black"/>
<path d="M951.7 863.5H931.1C930.5 863.5 930 863 930 862.4V825.1C930 824.5 930.5 824 931.1 824H951.7C952.3 824 952.8 824.5 952.8 825.1V862.4C952.8 863 952.3 863.5 951.7 863.5ZM932.1 861.4H950.6V826.3H932.1V861.4Z" fill="black"/>
<path d="M968.9 863.5C968.3 863.5 967.8 863 967.8 862.4V825.1C967.8 824.5 968.3 824 968.9 824C969.5 824 970 824.5 970 825.1V862.4C970 863 969.5 863.5 968.9 863.5Z" fill="black"/>
<path d="M968.9 915.8H948.3C947.7 915.8 947.2 915.3 947.2 914.7V877.4C947.2 876.8 947.7 876.3 948.3 876.3H968.9C969.5 876.3 970 876.8 970 877.4V914.7C970 915.3 969.5 915.8 968.9 915.8ZM949.4 913.7H967.9V878.6H949.4V913.7Z" fill="black"/>
<path d="M931.1 915.8C930.5 915.8 930 915.3 930 914.7V877.4C930 876.8 930.5 876.3 931.1 876.3C931.7 876.3 932.2 876.8 932.2 877.4V914.7C932.1 915.3 931.7 915.8 931.1 915.8Z" fill="black"/>
<path d="M914.9 915.8H894.3C893.7 915.8 893.2 915.3 893.2 914.7V877.4C893.2 876.8 893.7 876.3 894.3 876.3H914.9C915.5 876.3 916 876.8 916 877.4V914.7C916 915.3 915.5 915.8 914.9 915.8ZM895.4 913.7H913.9V878.6H895.4V913.7Z" fill="black"/>
<path d="M877.1 915.8C876.5 915.8 876 915.3 876 914.7V877.4C876 876.8 876.5 876.3 877.1 876.3C877.7 876.3 878.2 876.8 878.2 877.4V914.7C878.1 915.3 877.7 915.8 877.1 915.8Z" fill="black"/>
<path d="M860.9 915.8H840.3C839.7 915.8 839.2 915.3 839.2 914.7V877.4C839.2 876.8 839.7 876.3 840.3 876.3H860.9C861.5 876.3 862 876.8 862 877.4V914.7C862 915.3 861.5 915.8 860.9 915.8ZM841.4 913.7H859.9V878.6H841.4V913.7Z" fill="black"/>
<path d="M823.1 915.8C822.5 915.8 822 915.3 822 914.7V877.4C822 876.8 822.5 876.3 823.1 876.3C823.7 876.3 824.2 876.8 824.2 877.4V914.7C824.1 915.3 823.6 915.8 823.1 915.8Z" fill="black"/>
<path d="M843.7 968.1H823.1C822.5 968.1 822 967.6 822 967V929.7C822 929.1 822.5 928.6 823.1 928.6H843.7C844.3 928.6 844.8 929.1 844.8 929.7V967C844.7 967.6 844.2 968.1 843.7 968.1ZM824.1 966H842.6V930.9H824.1V966Z" fill="black"/>
<path d="M860.9 968.1C860.3 968.1 859.8 967.6 859.8 967V929.7C859.8 929.1 860.3 928.6 860.9 928.6C861.5 928.6 862 929.1 862 929.7V967C862 967.6 861.5 968.1 860.9 968.1Z" fill="black"/>
<path d="M897.7 968.1H877.1C876.5 968.1 876 967.6 876 967V929.7C876 929.1 876.5 928.6 877.1 928.6H897.7C898.3 928.6 898.8 929.1 898.8 929.7V967C898.7 967.6 898.3 968.1 897.7 968.1ZM878.1 966H896.6V930.9H878.1V966Z" fill="black"/>
<path d="M914.9 968.1C914.3 968.1 913.8 967.6 913.8 967V929.7C913.8 929.1 914.3 928.6 914.9 928.6C915.5 928.6 916 929.1 916 929.7V967C916 967.6 915.5 968.1 914.9 968.1Z" fill="black"/>
<path d="M951.7 968.1H931.1C930.5 968.1 930 967.6 930 967V929.7C930 929.1 930.5 928.6 931.1 928.6H951.7C952.3 928.6 952.8 929.1 952.8 929.7V967C952.8 967.6 952.3 968.1 951.7 968.1ZM932.1 966H950.6V930.9H932.1V966Z" fill="black"/>
<path d="M968.9 968.1C968.3 968.1 967.8 967.6 967.8 967V929.7C967.8 929.1 968.3 928.6 968.9 928.6C969.5 928.6 970 929.1 970 929.7V967C970 967.6 969.5 968.1 968.9 968.1Z" fill="black"/>
<path d="M512 625.2C510.1 630.1 506.8 634.6 502.2 638C501.7 637.4 501.1 636.7 500.6 636.1C500.8 637.2 500.8 638.3 500.4 639.3C500.1 639.9 499.7 640.4 499.2 640.9C497.2 641 495.3 641.5 493.5 642.8C493.1 643.1 492.8 643.4 492.4 643.7C484.4 645.9 475.8 646.3 467.6 644.8C465.8 644.5 463.9 644 463 642.4C462.9 642.2 462.8 642 462.7 641.7L457.6 650.2C452.5 643 449.8 629.4 448.5 617.4C447.8 611.4 447.5 605.8 447.3 601.4C447.3 600.7 447.2 600 447.2 599.3C447.1 597.1 447.1 595.4 447.1 594.4C447.1 593.6 447.1 593.2 447.1 593.2C447.1 593.2 447.2 592.9 447.5 592.4C449.8 587.5 462.4 561 462.9 560.8C463.3 560.6 481.6 552 491.7 547.2C495.5 545.4 493.5 539.8 493.5 539.8C493.5 539.8 505.7 555.4 510.7 561.8C511.2 562.4 511.6 563 512 563.5V606.1V625.2Z" fill="#961518"/>
<path d="M465.3 591.5C465.3 591.5 449.1 569.1 444.8 563.8C445.2 554.7 446.3 528 446.3 528C446.3 528 414 522.6 403.2 558.6C403.2 558.6 402.1 569.7 398.4 576.1C389.1 592.2 384.2 586.9 379 600.2C373.5 614.6 383 621.1 388.3 624C393.6 626.8 388.5 642 398.5 648.1C411.6 656.1 420.1 644.6 428.9 648.8C437.6 653 440.9 661 458.8 656C476.7 651 465.3 591.5 465.3 591.5Z" fill="#961518"/>
<path d="M512 641.4V625.2V606.1V563.5V561.4C511.1 561.7 510.4 562.2 509.9 563L493.5 590.3L490.1 596L490 596.2L484.3 605.7L475.6 620.1L473.9 623L473.6 623.5L462.8 641.5L457.7 650L454.9 654.6L512.1 717.5L512 641.4Z" fill="#99A5AA"/>
<path d="M495 622C495.6 622 496.2 622 496.9 622C496.2 622.1 495.6 622.1 495 622Z" fill="#E96848"/>
<path d="M473.3 623.4C473.3 623.4 473.4 623.4 473.4 623.5C473.6 623.7 474 624.3 474.4 624.9C477.3 629 482 631.5 486.9 631.2C490.7 631 493.9 629.4 496.3 626.3C500.6 621 500.6 613.2 496.9 607.5L493.9 602.9L478.8 577.7L455.4 593.1L458.2 597.8L467.4 613.3L473.3 623.4Z" fill="#FFBAB9"/>
<path d="M768 512.4H512V768.2H768V512.4Z" fill="#CBDBE8"/>
<path d="M473.3 623.4C473.3 623.4 473.4 623.4 473.4 623.5C496.5 606.9 475.8 580.3 475.8 580.3L458.2 597.8L467.4 613.3L473.3 623.4Z" fill="#FFA0A0"/>
<path d="M426.1 576.6C426.7 572 427.3 567.5 427.7 562.9C428.1 556.3 432.1 549.7 436 544.2C438.5 540.7 443.2 543.5 446.7 541.1C456.1 534.7 468.3 527.6 478.7 532.1C493.3 538.3 494.6 553.1 490.5 566.3C499.9 561.7 500.2 573.7 500.2 573.7C500.5 585.7 487.1 590 487.1 590C485.1 592.9 483.5 595.2 482.2 597C477.7 603.4 472 608.9 465.2 612.7C462.7 614.1 460.4 615.1 458.2 615.9C447.5 619.7 435.9 615.4 430.1 606C425.3 598.3 424.2 589.5 425.4 580.6C425.7 579.4 425.9 578 426.1 576.6Z" fill="#FFBAB9"/>
<path d="M439.5 588.4C439.9 587.5 440.7 586.8 441.3 586C442 585.1 442.6 584.2 443.2 583.2C444.3 581.2 445 579.1 445.3 576.9C445.4 576.3 446.1 575.9 446.7 576C447.3 576.1 447.6 576.7 447.5 577.3C446.9 581 445.3 584.5 442.9 587.5C442 588.6 440.6 589.8 441.8 591.2C443 592.6 445.1 592.4 446.8 592.3C448.2 592.2 448.2 594.4 446.8 594.5C444.6 594.6 442.3 594.7 440.6 593.2C439.2 592 438.7 590.1 439.5 588.4Z" fill="#F5887E"/>
<path d="M462.2 579C461.8 581 460.3 582.6 458.9 582.4C457.5 582.2 456.7 580.4 457.1 578.4C457.5 576.4 459 574.8 460.4 575C461.8 575.2 462.6 577 462.2 579Z" fill="#070200"/>
<path d="M440.1 577.5C439.7 579.5 438.2 581 436.8 580.9C435.4 580.7 434.6 578.9 435 576.9C435.4 574.9 436.9 573.3 438.3 573.5C439.7 573.7 440.5 575.5 440.1 577.5Z" fill="#070200"/>
<path d="M456.8 596.4C453.2 599.3 448.1 600.1 443.8 598.6C442.5 598.2 441.9 600.1 443.2 600.6C448.3 602.3 454 601.2 458.2 597.9C459.2 597.1 457.8 595.6 456.8 596.4Z" fill="#F5887E"/>
<path d="M545 649.6C545 649.6 563.4 626.5 563 616.7C563 616.7 564.9 606.5 551.1 628.3C551.1 628.3 560.1 612.3 560.2 603.4C560.2 601.7 557.9 601.1 557.1 602.7L547.6 621.5C547.6 621.5 555.4 604.7 555.7 597.6C555.8 596 553.9 595.3 552.8 596.4C550.8 598.6 547.6 604.5 543.3 619.9C543.3 619.9 549.1 601.3 547.9 597.8C545.5 591.2 530.8 625.8 531.3 628C531.3 628 527.1 630.8 531.4 616.4C531.4 616.4 532.8 613.2 532.1 610.5C531.8 609.2 530.1 608.9 529.3 610C527 613.1 522.7 619.7 521.4 628.5C520.4 635.3 522.6 642.2 527.1 647.4L522.3 663.9L537.8 671.7L545 649.6Z" fill="#F9B9B9"/>
<path d="M523.3 649.3L496.7 708.5L492.6 695C486.9 676.2 479.8 661.7 460.9 656.5L454.8 654.8C454.8 654.8 439.5 733.9 490.4 760.9C500.8 766.4 513.6 761 517.1 749.8L545.5 658.8L523.3 649.3Z" fill="#ABB8C1"/>
<path d="M482.7 574.2C482.7 574.2 453.7 566 436.4 541.5C436.4 541.5 436.1 519.2 469.3 524.2C501.5 529.1 501.9 559.9 482.7 574.2Z" fill="#961518"/>
<path d="M896 256.6C966.692 256.6 1024 199.337 1024 128.7C1024 58.0628 966.692 0.799988 896 0.799988C825.308 0.799988 768 58.0628 768 128.7C768 199.337 825.308 256.6 896 256.6Z" fill="#DFEBF2"/>
<path d="M845.1 122.6C839.3 122.6 834.1 119.3 831.5 114C831.4 113.9 831.3 113.7 831.3 113.5C831.3 113 831.6 112.5 832.1 112.4C832.6 112.3 833.1 112.5 833.3 113C835.6 117.9 840.5 120.8 845.8 120.5C850.5 120.2 854.7 117.4 856.8 113V112.9C859.2 107.8 864.1 104.5 869.7 104.2C875.8 103.9 881.4 107.2 884.1 112.8C884.1 112.8 884.1 112.9 884.2 112.9C886.5 117.8 891.4 120.7 896.7 120.4C901.4 120.1 905.7 117.3 907.7 112.9C907.7 112.9 907.7 112.8 907.8 112.8C910.2 107.8 915.1 104.5 920.6 104.2C926.7 103.9 932.3 107.2 935 112.8C935 112.8 935 112.9 935.1 112.9C937.4 117.8 942.3 120.7 947.6 120.4C952.3 120.1 956.6 117.3 958.6 112.9C958.9 112.4 959.5 112.1 960 112.4C960.5 112.7 960.8 113.3 960.5 113.8C958.1 118.9 953.2 122.2 947.6 122.5C941.5 122.8 935.9 119.5 933.2 113.9C933.2 113.9 933.2 113.8 933.1 113.8C930.8 108.9 925.9 106 920.6 106.3C915.9 106.6 911.6 109.4 909.5 113.8C909.5 113.8 909.5 113.9 909.4 113.9C907 118.9 902.1 122.2 896.6 122.5C890.5 122.8 884.9 119.5 882.2 113.9C882.2 113.9 882.2 113.8 882.1 113.8C879.8 108.9 874.9 106 869.6 106.3C864.9 106.6 860.7 109.4 858.6 113.7V113.8C856.2 118.9 851.2 122.3 845.7 122.6C845.7 122.5 845.4 122.6 845.1 122.6Z" fill="black"/>
<path d="M845.1 153.5C839.3 153.5 834.1 150.2 831.5 144.9C831.4 144.8 831.3 144.6 831.3 144.4C831.3 143.9 831.6 143.4 832.1 143.3C832.6 143.2 833.1 143.4 833.3 143.9C835.6 148.8 840.5 151.7 845.8 151.4C850.5 151.1 854.7 148.3 856.8 143.9V143.8C859.2 138.7 864.1 135.4 869.7 135.1C875.8 134.8 881.4 138.1 884.1 143.7C884.1 143.7 884.1 143.8 884.2 143.8C886.5 148.7 891.4 151.6 896.7 151.3C901.4 151 905.7 148.2 907.7 143.8C907.7 143.8 907.7 143.7 907.8 143.7C910.2 138.7 915.1 135.4 920.6 135.1C926.7 134.8 932.3 138.1 935 143.7C935 143.7 935 143.8 935.1 143.8C937.4 148.7 942.3 151.6 947.6 151.3C952.3 151 956.6 148.2 958.6 143.8C958.9 143.3 959.5 143 960 143.3C960.5 143.6 960.8 144.2 960.5 144.7C958.1 149.8 953.2 153.1 947.6 153.4C941.5 153.7 935.9 150.4 933.2 144.8C933.2 144.8 933.2 144.7 933.1 144.7C930.8 139.8 925.9 136.9 920.6 137.2C915.9 137.5 911.6 140.3 909.5 144.7C909.5 144.7 909.5 144.8 909.4 144.8C907 149.8 902.1 153.1 896.6 153.4C890.5 153.7 884.9 150.4 882.2 144.8C882.2 144.8 882.2 144.7 882.1 144.7C879.8 139.8 874.9 136.9 869.6 137.2C864.9 137.5 860.7 140.3 858.6 144.6V144.7C856.2 149.8 851.2 153.2 845.7 153.5C845.7 153.5 845.4 153.5 845.1 153.5Z" fill="black"/>
<path d="M371.3 329.2H328.6V371.8H371.3V329.2Z" fill="#DFEBF2"/>
<path d="M371.3 372.9H328.6C328 372.9 327.5 372.4 327.5 371.8V329.2C327.5 328.6 328 328.1 328.6 328.1H371.3C371.9 328.1 372.4 328.6 372.4 329.2V371.8C372.3 372.4 371.9 372.9 371.3 372.9ZM329.7 370.8H370.2V330.3H329.7V370.8Z" fill="black"/>
<path d="M439.4 329.2H396.7V371.8H439.4V329.2Z" fill="#DFEBF2"/>
<path d="M439.4 372.9H396.7C396.1 372.9 395.6 372.4 395.6 371.8V329.2C395.6 328.6 396.1 328.1 396.7 328.1H439.4C440 328.1 440.5 328.6 440.5 329.2V371.8C440.5 372.4 440 372.9 439.4 372.9ZM397.8 370.8H438.3V330.3H397.8V370.8Z" fill="black"/>
<path d="M371.3 397.2H328.6V439.8H371.3V397.2Z" fill="#DFEBF2"/>
<path d="M371.3 440.9H328.6C328 440.9 327.5 440.4 327.5 439.8V397.2C327.5 396.6 328 396.1 328.6 396.1H371.3C371.9 396.1 372.4 396.6 372.4 397.2V439.8C372.3 440.5 371.9 440.9 371.3 440.9ZM329.7 438.8H370.2V398.3H329.7V438.8Z" fill="black"/>
<path d="M439.4 397.2H396.7V439.8H439.4V397.2Z" fill="#DFEBF2"/>
<path d="M439.4 440.9H396.7C396.1 440.9 395.6 440.4 395.6 439.8V397.2C395.6 396.6 396.1 396.1 396.7 396.1H439.4C440 396.1 440.5 396.6 440.5 397.2V439.8C440.5 440.5 440 440.9 439.4 440.9ZM397.8 438.8H438.3V398.3H397.8V438.8Z" fill="black"/>
<path d="M695.4 627.6V612.3V585H652.7V612.3V627.6V695.7H695.4V627.6Z" fill="#DFEBF2"/>
<path d="M695.4 696.7H652.7C652.1 696.7 651.6 696.2 651.6 695.6V585C651.6 584.4 652.1 583.9 652.7 583.9H695.4C696 583.9 696.5 584.4 696.5 585V695.7C696.5 696.3 696 696.7 695.4 696.7ZM653.8 694.6H694.3V586H653.8V694.6Z" fill="black"/>
<path d="M627.3 671.8V653V585H584.6V653V671.8V695.7H627.3V671.8Z" fill="#DFEBF2"/>
<path d="M627.3 696.7H584.6C584 696.7 583.5 696.2 583.5 695.6V585C583.5 584.4 584 583.9 584.6 583.9H627.3C627.9 583.9 628.4 584.4 628.4 585V695.7C628.3 696.3 627.9 696.7 627.3 696.7ZM585.7 694.6H626.2V586H585.7V694.6Z" fill="black"/>
<path d="M896 704.2C931.346 704.2 960 675.591 960 640.3C960 605.009 931.346 576.4 896 576.4C860.654 576.4 832 605.009 832 640.3C832 675.591 860.654 704.2 896 704.2Z" fill="#C9D3DC"/>
<path d="M896 675.3H895.9C895.7 675.3 895.5 675.2 895.4 675.1C895.4 675.1 895.4 675.1 895.3 675L869.4 649.2C869 648.8 869 648.1 869.4 647.7C869.8 647.3 870.5 647.3 870.9 647.7L894.9 671.7V606.5C894.9 605.9 895.4 605.4 896 605.4C896.6 605.4 897.1 605.9 897.1 606.5V671.7L921.1 647.7C921.5 647.3 922.2 647.3 922.6 647.7C922.8 647.9 922.9 648.2 922.9 648.5C922.9 648.8 922.8 649 922.6 649.3L896.8 675C896.6 675.1 896.3 675.2 896 675.3C896.1 675.3 896.1 675.3 896 675.3C896 675.3 896.1 675.3 896 675.3Z" fill="black"/>
<path d="M371.2 171C370.9 171 370.7 170.9 370.4 170.7L329.2 129.6C329 129.4 328.9 129.2 328.9 128.9C328.9 128.8 328.9 128.8 328.9 128.7C328.9 128.5 329 128.3 329.2 128.1C329.2 128.1 329.2 128.1 329.3 128L370.5 86.9C370.9 86.5 371.6 86.5 372 86.9C372.4 87.3 372.4 88 372 88.4L332.6 127.7H438C438.6 127.7 439.1 128.2 439.1 128.8C439.1 129.4 438.6 129.9 438 129.9H332.6L372 169.2C372.2 169.4 372.3 169.7 372.3 170C372.3 170.3 372.2 170.5 372 170.8C371.7 170.8 371.5 171 371.2 171Z" fill="black"/>
<path d="M128 512.4C198.692 512.4 256 455.137 256 384.5C256 313.863 198.692 256.6 128 256.6C57.3075 256.6 0 313.863 0 384.5C0 455.137 57.3075 512.4 128 512.4Z" fill="#CBDBE8"/>
<path d="M640 1024C710.692 1024 768 966.737 768 896.1C768 825.463 710.692 768.2 640 768.2C569.308 768.2 512 825.463 512 896.1C512 966.737 569.308 1024 640 1024Z" fill="#DFEBF2"/>
<path d="M512 1024H256V768.2H256.1C397.4 768.2 512 882.7 512 1024Z" fill="#CBDBE8"/>
<path d="M256 768.2V1024H0V1023.9C0 882.7 114.6 768.2 256 768.2Z" fill="#DFEBF2"/>
<path d="M768 0.900024V256.7H512V256.6C512 115.3 626.6 0.900024 768 0.900024Z" fill="#ABB8C1"/>
<path d="M0 768.2V512.4H256V512.5C256 653.7 141.4 768.2 0 768.2Z" fill="#DFEBF2"/>
<path d="M658.5 935.7H646.9V928.6H658.5V921.7H643.5V887.7C655.5 886 664.7 875.8 664.7 863.3C664.7 849.7 653.7 838.7 640.1 838.7C626.5 838.7 615.5 849.7 615.5 863.3C615.5 875.7 624.7 886 636.7 887.7V953.3H643.6V942.5H658.6V935.7H658.5ZM634.8 850.9C634.8 848 637.1 845.7 640 845.7C642.9 845.7 645.2 848 645.2 850.9C645.2 853.8 642.9 856.1 640 856.1C637.1 856.1 634.8 853.8 634.8 850.9Z" fill="#99A4AA"/>
<path d="M643.5 954.4H636.6C636 954.4 635.5 953.9 635.5 953.3V888.6C623.4 886.4 614.3 875.7 614.3 863.3C614.3 849.2 625.8 837.6 640 837.6C654.2 837.6 665.7 849.1 665.7 863.3C665.7 875.7 656.7 886.4 644.5 888.6V920.6H658.4C659 920.6 659.5 921.1 659.5 921.7V928.6C659.5 929.2 659 929.7 658.4 929.7H648V934.7H658.5C659.1 934.7 659.6 935.2 659.6 935.8V942.7C659.6 943.3 659.1 943.8 658.5 943.8H644.6V953.5C644.5 954 644 954.4 643.5 954.4ZM637.6 952.3H642.4V942.6C642.4 942 642.9 941.5 643.5 941.5H657.4V936.7H646.9C646.3 936.7 645.8 936.2 645.8 935.6V928.5C645.8 927.9 646.3 927.4 646.9 927.4H657.4V922.6H643.5C642.9 922.6 642.4 922.1 642.4 921.5V887.5C642.4 887 642.8 886.5 643.3 886.4C654.8 884.8 663.5 874.8 663.5 863.1C663.5 850.1 652.9 839.6 640 839.6C627 839.6 616.5 850.2 616.5 863.1C616.5 874.8 625.2 884.8 636.7 886.4C637.2 886.5 637.6 886.9 637.6 887.5V952.3ZM640 857.1C636.6 857.1 633.8 854.3 633.8 850.9C633.8 847.5 636.6 844.7 640 844.7C643.4 844.7 646.2 847.5 646.2 850.9C646.2 854.3 643.4 857.1 640 857.1ZM640 846.8C637.7 846.8 635.9 848.6 635.9 850.9C635.9 853.2 637.7 855 640 855C642.3 855 644.1 853.2 644.1 850.9C644.1 848.6 642.3 846.8 640 846.8Z" fill="black"/>
<path d="M127.8 431.9C131.887 431.9 135.2 428.587 135.2 424.5C135.2 420.413 131.887 417.1 127.8 417.1C123.713 417.1 120.4 420.413 120.4 424.5C120.4 428.587 123.713 431.9 127.8 431.9Z" fill="#99A4AA"/>
<path d="M127.8 433C123.1 433 119.3 429.2 119.3 424.5C119.3 419.8 123.1 416 127.8 416C132.5 416 136.3 419.8 136.3 424.5C136.3 429.2 132.5 433 127.8 433ZM127.8 418.2C124.3 418.2 121.4 421.1 121.4 424.6C121.4 428.1 124.3 431 127.8 431C131.3 431 134.2 428.1 134.2 424.6C134.2 421.1 131.3 418.2 127.8 418.2Z" fill="black"/>
<path d="M184.5 361.7C169.7 345.8 149.6 337 128 337C106.4 337 86.3001 345.8 71.5001 361.7C69.8001 363.5 69.9001 366.4 71.7001 368.1C73.5001 369.8 76.4001 369.7 78.1001 367.9C91.2001 353.9 108.9 346.1 128 346.1C147.1 346.1 164.8 353.8 177.9 367.9C178.8 368.9 180 369.3 181.2 369.3C182.3 369.3 183.4 368.9 184.3 368.1C186.1 366.4 186.2 363.6 184.5 361.7Z" fill="#99A4AA"/>
<path d="M181.2 370.4C179.7 370.4 178.2 369.8 177.1 368.6C164.2 354.8 146.7 347.2 127.9 347.2C109.1 347.2 91.6 354.8 78.7 368.6C76.6 370.8 73.1 371 70.8 368.9C68.5 366.8 68.4 363.3 70.5 361C85.5 344.9 105.9 336 127.8 336C149.7 336 170.1 344.9 185.1 361C187.2 363.2 187.1 366.8 184.8 368.9C184 369.9 182.7 370.4 181.2 370.4ZM128 345C147.4 345 165.4 352.9 178.7 367.1C179.4 367.8 180.3 368.2 181.2 368.2C182.1 368.2 182.9 367.9 183.5 367.3C184.9 366 185 363.8 183.7 362.4C169.1 346.7 149.3 338.1 127.9 338.1C106.6 338.1 86.8 346.7 72.1 362.4C70.8 363.8 70.9 366 72.3 367.3C73.7 368.6 75.9 368.5 77.2 367.1C90.6 352.9 108.6 345 128 345Z" fill="black"/>
<path d="M168 380.4C157 369.4 142.8 363.3 128 363.3C113.2 363.3 98.9998 369.4 87.9998 380.4C86.1998 382.2 86.2998 385 87.9998 386.8C89.7998 388.6 92.5998 388.5 94.3998 386.8C103.7 377.5 115.6 372.4 128 372.4C140.4 372.4 152.3 377.5 161.6 386.8C162.5 387.7 163.6 388.1 164.8 388.1C165.9 388.1 167.1 387.7 168 386.8C169.7 385 169.7 382.1 168 380.4Z" fill="#99A4AA"/>
<path d="M91.1999 389.1C89.6999 389.1 88.2999 388.5 87.2999 387.5C85.0999 385.3 85.0999 381.8 87.2999 379.6C98.4999 368.4 112.9 362.2 128 362.2C143.1 362.2 157.6 368.4 168.7 379.6C170.9 381.8 170.9 385.3 168.7 387.5C167.6 388.5 166.3 389.1 164.8 389.1C163.3 389.1 161.9 388.5 160.8 387.5C151.7 378.4 140.1 373.4 128 373.4C115.9 373.4 104.2 378.4 95.1999 387.5C94.0999 388.5 92.6999 389.1 91.1999 389.1ZM128 364.3C113.5 364.3 99.4999 370.3 88.7999 381.1C87.4999 382.4 87.4999 384.6 88.7999 386C89.4999 386.6 90.2999 387 91.1999 387C92.0999 387 92.9999 386.6 93.5999 386C103.1 376.5 115.2 371.2 127.9 371.2C140.6 371.2 152.8 376.4 162.2 386C162.9 386.7 163.7 387 164.6 387C165.5 387 166.4 386.6 167 386C168.3 384.7 168.4 382.5 167 381.1C156.5 370.3 142.5 364.3 128 364.3Z" fill="black"/>
<path d="M149.9 399C144 393.2 135.6 389.6 127.9 389.6H127.6C119.9 389.6 111.5 393.2 105.6 399C103.8 400.8 103.8 403.6 105.6 405.4C106.5 406.3 107.6 406.7 108.8 406.7C109.9 406.7 111.1 406.3 112 405.4C116.2 401.3 122.3 398.6 127.6 398.6H127.9C133.2 398.6 139.3 401.3 143.5 405.4C145.3 407.2 148.1 407.1 149.9 405.4C151.7 403.6 151.7 400.8 149.9 399Z" fill="#99A4AA"/>
<path d="M146.7 407.8C145.2 407.8 143.8 407.2 142.8 406.2C138.8 402.3 133 399.7 127.9 399.7H127.6C122.6 399.7 116.7 402.3 112.7 406.2C111.6 407.2 110.3 407.8 108.8 407.8C107.3 407.8 105.9 407.2 104.8 406.1C102.6 403.9 102.7 400.4 104.8 398.2C110.9 392.2 119.6 388.5 127.5 388.5H127.8C135.7 388.5 144.5 392.2 150.5 398.2C151.6 399.2 152.1 400.6 152.2 402.1C152.2 403.6 151.6 405 150.6 406C149.7 407.2 148.3 407.8 146.7 407.8C146.8 407.8 146.8 407.8 146.7 407.8ZM127.6 397.6H127.9C133.5 397.6 139.9 400.4 144.3 404.7C144.9 405.3 145.8 405.7 146.7 405.7C147.6 405.7 148.5 405.3 149.1 404.7C149.7 404 150.1 403.2 150.1 402.3C150.1 401.4 149.7 400.5 149.1 399.9C143.4 394.3 135.3 390.8 127.9 390.8H127.6C120.2 390.8 112.1 394.3 106.4 399.9C105.1 401.2 105 403.4 106.4 404.8C107.1 405.5 107.9 405.8 108.8 405.8C109.7 405.8 110.6 405.4 111.2 404.8C115.6 400.4 122.1 397.6 127.6 397.6Z" fill="black"/>
<g opacity="0.7">
<g opacity="0.7">
<path opacity="0.7" d="M878.8 310.3C876.7 310.7 874.6 311.2 872.6 311.8C872.3 311.9 871.9 312 871.6 312.1C871.3 312.2 871 312.3 870.7 312.4C870.5 312.5 870.3 312.5 870.1 312.6C869.9 312.7 869.6 312.8 869.4 312.8C867.3 313.5 865.3 314.3 863.3 315.1C863.1 315.2 862.9 315.3 862.7 315.4C862.3 315.6 862 315.7 861.7 315.9C861.4 316 861.1 316.2 860.8 316.3C860.5 316.4 860.3 316.6 860 316.7C859.4 317 858.9 317.3 858.4 317.5C858.1 317.6 857.9 317.8 857.6 317.9C857.3 318 857.1 318.2 856.8 318.3C856.5 318.4 856.3 318.6 856 318.8C855.9 318.8 855.9 318.9 855.9 318.9C854.9 319.5 853.9 320.1 853 320.7C852.7 320.9 852.4 321.1 852.1 321.3C851.9 321.4 851.6 321.6 851.4 321.8C851.1 322 850.9 322.1 850.6 322.3C850.3 322.5 850.1 322.6 849.8 322.8C849.6 322.9 849.4 323.1 849.2 323.3C848.9 323.5 848.6 323.7 848.4 323.9C848.2 324.1 847.9 324.3 847.7 324.5C847.5 324.7 847.2 324.9 847 325.1C846.8 325.3 846.5 325.5 846.3 325.7C846.2 325.8 846.2 325.8 846.1 325.9C845.2 326.6 844.4 327.3 843.5 328.1C843.1 328.5 842.6 328.9 842.2 329.3C842 329.5 841.8 329.7 841.5 329.9C841.3 330.1 841.1 330.3 840.8 330.5C840.6 330.7 840.4 330.9 840.2 331.1C840 331.3 839.8 331.5 839.6 331.7C839 332.3 838.4 332.9 837.8 333.6C837.3 334.2 836.8 334.7 836.3 335.3C836.1 335.5 835.9 335.7 835.7 336C835.5 336.2 835.4 336.4 835.3 336.5C835.1 336.7 835 336.9 834.8 337.1C833.3 339 831.9 340.9 830.6 342.9C830.4 343.1 830.3 343.4 830.1 343.6C829.9 343.8 829.8 344.1 829.6 344.3C829.4 344.5 829.3 344.8 829.1 345C828.9 345.2 828.8 345.5 828.7 345.7C828.5 345.9 828.4 346.2 828.3 346.4C828.2 346.6 828 346.9 827.9 347.1C827.8 347.3 827.6 347.6 827.5 347.9C827.4 348.2 827.2 348.4 827.1 348.7C827 349 826.8 349.2 826.7 349.5C826.4 350 826.2 350.5 825.9 351C825.9 351 825.9 351 825.9 351.1C825.7 351.6 825.4 352.1 825.2 352.6C825.1 352.9 825 353.1 824.8 353.4C824.8 353.5 824.7 353.5 824.7 353.6C824.4 354.2 824.2 354.7 824 355.3C823.9 355.6 823.8 355.8 823.7 356.1C823.2 357.4 822.7 358.7 822.2 360C822.1 360.3 822 360.7 821.8 361C821.7 361.3 821.6 361.6 821.5 361.8C821.4 362.2 821.2 362.7 821.1 363.1C821 363.4 820.9 363.7 820.8 364C820.7 364.5 820.5 365 820.4 365.5C820.3 365.7 820.3 366 820.2 366.2C820.2 366.4 820.1 366.5 820.1 366.7C820.1 366.8 820.1 366.9 820 366.9C819.9 367.2 819.9 367.4 819.8 367.7C819.7 368 819.7 368.3 819.6 368.6C819.6 368.8 819.5 369 819.5 369.2C819.4 369.9 819.2 370.6 819.1 371.2L768 352.4L512 257.1V256.7C512 115.5 626.6 1.09998 768 1.09998H768.8L859.8 256.9L878.8 310.3Z" fill="#DFEBF2"/>
</g>
</g>
<path d="M819.7 372.8L510.9 257.9V256.7C510.9 222 517.7 188.4 531.1 156.8C544 126.2 562.6 98.8 586.2 75.2C609.8 51.6 637.3 33.1 667.9 20.2C699.6 6.8 733.3 0 768 0H769.5L769.8 0.7L860.8 256.5L880.2 311.1L879 311.3C876.9 311.7 874.9 312.2 872.9 312.8C872.6 312.9 872.2 313 871.9 313.1C871.6 313.2 871.3 313.3 871 313.4C870.8 313.5 870.6 313.5 870.4 313.6H870.3C870.1 313.7 869.9 313.7 869.7 313.8C867.7 314.5 865.7 315.3 863.7 316.1L863.1 316.4C862.8 316.6 862.4 316.7 862.1 316.9C861.8 317 861.5 317.2 861.2 317.3C860.9 317.4 860.7 317.6 860.4 317.7C859.8 318 859.3 318.2 858.8 318.5C858.5 318.6 858.3 318.8 858 318.9C857.7 319 857.5 319.2 857.2 319.3C856.9 319.5 856.7 319.6 856.4 319.7L856.2 319.8C855.2 320.4 854.2 321 853.3 321.6C853 321.8 852.7 322 852.4 322.2C852.2 322.4 851.9 322.5 851.7 322.6C851.4 322.8 851.2 322.9 851 323.1C850.7 323.3 850.5 323.4 850.3 323.6C850.1 323.8 849.9 323.9 849.7 324.1C849.4 324.3 849.2 324.5 848.9 324.7C848.7 324.9 848.4 325.1 848.2 325.2C847.9 325.4 847.7 325.6 847.5 325.8C847.3 326 847 326.2 846.8 326.4C846.7 326.5 846.6 326.5 846.6 326.6C845.7 327.3 844.8 328.1 844.1 328.8C843.7 329.2 843.3 329.6 842.8 329.9L842.7 330C842.5 330.2 842.3 330.4 842.1 330.6C841.9 330.8 841.6 331 841.4 331.2C841.2 331.4 841 331.6 840.8 331.8C840.6 332 840.4 332.2 840.2 332.4C839.6 333 839 333.6 838.4 334.3C837.9 334.9 837.4 335.4 836.9 336C836.7 336.2 836.5 336.4 836.4 336.6C836.2 336.8 836.1 336.9 836 337.1C835.9 337.3 835.7 337.4 835.6 337.6L835.5 337.7C834 339.5 832.6 341.4 831.3 343.4L831.1 343.6L831.2 343.7L830.8 344.1C830.7 344.3 830.5 344.5 830.4 344.7C830.2 345 830.1 345.2 830 345.4C829.8 345.7 829.7 345.9 829.6 346.1C829.4 346.4 829.3 346.6 829.2 346.8C829.1 347 828.9 347.3 828.8 347.5C828.7 347.8 828.5 348 828.4 348.2C828.3 348.5 828.1 348.7 828 348.9C827.8 349.2 827.7 349.4 827.6 349.7C827.3 350.2 827.1 350.7 826.8 351.2V351.3C826.6 351.8 826.3 352.3 826.1 352.8L826 353C825.9 353.2 825.8 353.4 825.7 353.6L825.6 353.8L825.4 354.2C825.2 354.6 825 355 824.9 355.5C824.8 355.7 824.7 356 824.6 356.2C824.1 357.5 823.6 358.8 823.1 360.1C823 360.5 822.9 360.8 822.7 361.1C822.6 361.4 822.5 361.7 822.4 361.9C822.3 362.3 822.1 362.8 822 363.2C821.9 363.5 821.8 363.8 821.7 364.1C821.6 364.6 821.4 365.1 821.3 365.6C821.2 365.8 821.2 366.1 821.1 366.3V366.4C821.1 366.5 821 366.7 821 366.8C821 366.9 821 366.9 821 367C820.9 367.3 820.9 367.5 820.8 367.8C820.7 368.1 820.7 368.4 820.6 368.7C820.6 368.9 820.5 369.1 820.5 369.3C820.4 370 820.2 370.6 820.1 371.3L819.7 372.8ZM513.1 256.4L818.1 369.9C818.2 369.6 818.2 369.4 818.3 369.1C818.3 368.9 818.4 368.7 818.4 368.5C818.5 368.2 818.5 367.9 818.6 367.6C818.7 367.3 818.7 367.1 818.8 366.8C818.8 366.7 818.8 366.6 818.9 366.6C818.9 366.4 819 366.3 819 366.1C819.1 365.9 819.1 365.6 819.2 365.4C819.3 364.9 819.5 364.4 819.6 363.9C819.7 363.6 819.8 363.3 819.9 363C820 362.5 820.2 362.1 820.3 361.6C820.4 361.3 820.5 361 820.6 360.7C820.7 360.3 820.8 360 821 359.6C821.5 358.3 822 356.9 822.5 355.7C822.6 355.5 822.7 355.2 822.8 354.9C823 354.3 823.3 353.7 823.5 353.2C823.5 353.1 823.6 353.1 823.6 353L824 352.1C824.2 351.6 824.5 351.1 824.7 350.6V350.5C825 350 825.2 349.5 825.5 348.9C825.6 348.6 825.8 348.4 825.9 348.1C826 347.9 826.2 347.6 826.3 347.3C826.4 347.1 826.6 346.8 826.7 346.5C826.8 346.3 827 346 827.1 345.8C827.2 345.5 827.4 345.3 827.6 345C827.7 344.8 827.8 344.6 827.9 344.4H827.8L829.4 342C830.7 340 832.2 338 833.7 336.1L833.8 336C833.9 335.8 834.1 335.7 834.2 335.5C834.3 335.3 834.5 335.1 834.7 335C834.9 334.8 835.1 334.6 835.3 334.3C835.8 333.8 836.3 333.2 836.8 332.6C837.4 332 838 331.3 838.6 330.7C838.8 330.5 839 330.3 839.3 330C839.5 329.8 839.7 329.6 839.9 329.4C840.1 329.2 840.3 329 840.6 328.8C840.8 328.6 841 328.4 841.3 328.2C841.3 328.2 841.3 328.2 841.4 328.1C841.9 327.7 842.3 327.3 842.7 326.9C843.5 326.2 844.4 325.4 845.3 324.7C845.4 324.6 845.5 324.6 845.5 324.5C845.7 324.3 846 324.1 846.2 323.9C846.4 323.7 846.7 323.5 846.9 323.3C847.2 323.1 847.4 322.9 847.6 322.7C847.9 322.5 848.1 322.3 848.4 322.1C848.6 321.9 848.8 321.8 849.1 321.6C849.3 321.4 849.6 321.2 849.9 321.1C850.2 320.9 850.4 320.7 850.7 320.6C850.9 320.5 851.2 320.3 851.4 320.1C851.7 319.9 852 319.7 852.3 319.5C853.3 318.9 854.3 318.3 855.3 317.7C855.3 317.7 855.4 317.7 855.4 317.6C855.7 317.4 856 317.3 856.2 317.1C856.5 317 856.7 316.8 857 316.7C857.3 316.6 857.5 316.4 857.8 316.3C858.4 316 858.9 315.7 859.5 315.4C859.8 315.3 860 315.1 860.3 315C860.6 314.9 860.9 314.7 861.2 314.6C861.5 314.4 861.9 314.3 862.3 314.1L862.9 313.8C864.9 312.9 867 312.1 869.1 311.4C869.3 311.3 869.5 311.3 869.7 311.2H869.8C870 311.1 870.2 311.1 870.4 311C870.7 310.9 871 310.8 871.3 310.7C871.6 310.6 872 310.5 872.3 310.4C874 309.9 875.7 309.5 877.4 309.1L858.8 256.8L768 2.1C627.5 2.1 513.2 116.2 513.1 256.4Z" fill="black"/>
<path d="M210.2 95.7H45.7999C45.1999 95.7 44.7 95.2 44.7 94.6C44.7 94 45.1999 93.5 45.7999 93.5H210.3C210.9 93.5 211.4 94 211.4 94.6C211.4 95.2 210.8 95.7 210.2 95.7Z" fill="black"/>
<path d="M210.2 118.4H45.7999C45.1999 118.4 44.7 117.9 44.7 117.3C44.7 116.7 45.1999 116.2 45.7999 116.2H210.3C210.9 116.2 211.4 116.7 211.4 117.3C211.3 118 210.8 118.4 210.2 118.4Z" fill="black"/>
<path d="M210.2 141.2H45.7999C45.1999 141.2 44.7 140.7 44.7 140.1C44.7 139.5 45.1999 139 45.7999 139H210.3C210.9 139 211.4 139.5 211.4 140.1C211.3 140.7 210.8 141.2 210.2 141.2Z" fill="black"/>
<path d="M210.2 163.9H45.7999C45.1999 163.9 44.7 163.4 44.7 162.8C44.7 162.2 45.1999 161.7 45.7999 161.7H210.3C210.9 161.7 211.4 162.2 211.4 162.8C211.3 163.5 210.8 163.9 210.2 163.9Z" fill="black"/>
<path d="M162.2 212C161.6 212 161.1 211.5 161.1 210.9V46.6C161.1 46 161.6 45.5 162.2 45.5C162.8 45.5 163.3 46 163.3 46.6V210.9C163.2 211.5 162.7 212 162.2 212Z" fill="black"/>
<path d="M139.4 212C138.8 212 138.3 211.5 138.3 210.9V46.6C138.3 46 138.8 45.5 139.4 45.5C140 45.5 140.5 46 140.5 46.6V210.9C140.5 211.5 140 212 139.4 212Z" fill="black"/>
<path d="M116.6 212C116 212 115.5 211.5 115.5 210.9V46.6C115.5 46 116 45.5 116.6 45.5C117.2 45.5 117.7 46 117.7 46.6V210.9C117.7 211.5 117.2 212 116.6 212Z" fill="black"/>
<path d="M93.8 212C93.2 212 92.7 211.5 92.7 210.9V46.6C92.7 46 93.2 45.5 93.8 45.5C94.4 45.5 94.9 46 94.9 46.6V210.9C94.9 211.5 94.4 212 93.8 212Z" fill="black"/>
<path d="M183.4 73.3H72.5V184.1H183.4V73.3Z" fill="#DFEBF2"/>
<path d="M162.7 94.1H93.3V163.4H162.7V94.1Z" fill="#DFEBF2"/>
<path d="M163.8 164.5H92.2V93H163.7V164.5H163.8ZM94.4 162.3H161.6V95.2H94.4V162.3Z" fill="black"/>
<path d="M903.6 479.7H884V512.4H903.6V479.7Z" fill="#ABB8C1"/>
<path d="M904.8 513.5H883V478.7H904.8V513.5ZM885.1 511.4H902.6V480.8H885.1V511.4Z" fill="black"/>
<path d="M920.5 455.4H867.2V479.7H920.5V455.4Z" fill="#ABB8C1"/>
<path d="M921.6 480.8H866.2V454.4H921.6V480.8ZM868.3 478.6H919.5V456.4H868.3V478.6Z" fill="black"/>
<path d="M893.9 460.9C935.984 460.9 970.1 426.784 970.1 384.7C970.1 342.616 935.984 308.5 893.9 308.5C851.816 308.5 817.7 342.616 817.7 384.7C817.7 426.784 851.816 460.9 893.9 460.9Z" fill="#C9D3DC"/>
<path d="M512.345 255.946L511.612 257.914L912.64 407.166L913.373 405.197L512.345 255.946Z" fill="black"/>
<path d="M769.828 0.726969L767.849 1.43109L912.062 406.628L914.04 405.924L769.828 0.726969Z" fill="black"/>
<path d="M913.1 406.2L819.2 371.2C852 366.4 877.3 341 878.9 310L913.1 406.2Z" fill="#DFEBF2"/>
<path d="M913.1 407.3C913 407.3 912.8 407.3 912.7 407.2L818.8 372.2C818.3 372 818.1 371.6 818.1 371.1C818.2 370.6 818.5 370.2 819 370.2C851.5 365.4 876.2 340.1 877.8 310C877.8 309.5 878.2 309.1 878.7 309C879.2 308.9 879.7 309.2 879.9 309.7L914.1 405.8C914.2 406.2 914.1 406.6 913.8 406.9C913.6 407.2 913.3 407.3 913.1 407.3ZM823.2 371.6L911.3 404.4L879.5 315C877.7 328.4 871.4 341.2 861.5 351.3C851.3 361.5 837.8 368.7 823.2 371.6Z" fill="black"/>
<path d="M878.8 310.1C877.2 341.1 851.9 366.4 819.1 371.3L818.8 371.2C819.9 364.9 821.8 358.9 824.4 353.2C845.6 352.7 862.6 336.1 862.6 315.7C862.6 315.5 862.6 315.4 862.6 315.2C867.8 312.9 873.2 311.2 878.8 310.1Z" fill="#C9D3DC"/>
<path d="M819 372.4L817.6 371.9L817.8 371C818.9 364.7 820.8 358.6 823.5 352.7L823.8 352.1H824.5C845.3 351.6 861.7 335.6 861.7 315.7C861.7 315.6 861.7 315.4 861.7 315.3V314.6L862.4 314.3C867.6 312 873.1 310.2 878.7 309.1L879.4 309L880 309.9V310.3C879.2 325.5 872.6 340.1 861.5 351.4C850.5 362.6 835.5 370.1 819.4 372.5L819 372.4ZM825.2 354.2C822.9 359.3 821.3 364.6 820.2 370C851.6 364.8 875.5 340.5 877.7 311.4C872.9 312.4 868.3 314 863.8 315.9C863.7 326 859.7 335.4 852.3 342.6C845.1 349.7 835.5 353.8 825.2 354.2Z" fill="black"/>
<path d="M862.701 315.7C862.701 336.1 845.7 352.7 824.5 353.2C832.2 336.4 845.801 322.8 862.701 315.2C862.701 315.4 862.701 315.5 862.701 315.7Z" fill="#DFEBF2"/>
<path d="M822.8 354.3L823.5 352.8C831.3 335.7 845.1 322 862.3 314.3L863.7 313.7L863.8 315.2C863.8 315.4 863.8 315.5 863.8 315.7C863.8 325.8 859.7 335.4 852.3 342.7C844.9 349.9 835.1 354 824.5 354.3H822.8ZM861.6 316.9C846.1 324.2 833.6 336.6 826.2 352C845.8 350.7 861 335.7 861.6 316.9Z" fill="black"/>
<path d="M292.7 230.7C298.609 230.7 303.4 225.909 303.4 220C303.4 214.091 298.609 209.3 292.7 209.3C286.791 209.3 282 214.091 282 220C282 225.909 286.791 230.7 292.7 230.7Z" fill="#BB3437"/>
<path d="M292.7 231.7C286.2 231.7 281 226.4 281 220C281 213.6 286.3 208.3 292.7 208.3C299.1 208.3 304.4 213.6 304.4 220C304.4 226.4 299.2 231.7 292.7 231.7ZM292.7 210.4C287.4 210.4 283.1 214.7 283.1 220C283.1 225.3 287.4 229.6 292.7 229.6C298 229.6 302.3 225.3 302.3 220C302.3 214.7 298 210.4 292.7 210.4Z" fill="black"/>
<path d="M219.3 230.7C225.21 230.7 230 225.909 230 220C230 214.091 225.21 209.3 219.3 209.3C213.391 209.3 208.6 214.091 208.6 220C208.6 225.909 213.391 230.7 219.3 230.7Z" fill="#BB3437"/>
<path d="M219.3 231.7C212.8 231.7 207.6 226.4 207.6 220C207.6 213.6 212.9 208.3 219.3 208.3C225.7 208.3 231 213.5 231 220C231 226.5 225.8 231.7 219.3 231.7ZM219.3 210.4C214 210.4 209.7 214.7 209.7 220C209.7 225.3 214 229.6 219.3 229.6C224.6 229.6 228.9 225.3 228.9 220C228.9 214.7 224.6 210.4 219.3 210.4Z" fill="black"/>
<path d="M282.3 218.9H230V221H282.3V218.9Z" fill="black"/>
<path d="M804.7 742.3C810.609 742.3 815.4 737.509 815.4 731.6C815.4 725.691 810.609 720.9 804.7 720.9C798.791 720.9 794 725.691 794 731.6C794 737.509 798.791 742.3 804.7 742.3Z" fill="white"/>
<path d="M804.7 743.3C798.2 743.3 793 738 793 731.6C793 725.1 798.3 719.9 804.7 719.9C811.2 719.9 816.4 725.2 816.4 731.6C816.4 738 811.2 743.3 804.7 743.3ZM804.7 722C799.4 722 795.1 726.3 795.1 731.6C795.1 736.9 799.4 741.2 804.7 741.2C810 741.2 814.3 736.9 814.3 731.6C814.3 726.3 810 722 804.7 722Z" fill="black"/>
<path d="M731.3 742.3C737.21 742.3 742 737.509 742 731.6C742 725.691 737.21 720.9 731.3 720.9C725.391 720.9 720.6 725.691 720.6 731.6C720.6 737.509 725.391 742.3 731.3 742.3Z" fill="#BB3437"/>
<path d="M731.3 743.3C724.8 743.3 719.6 738 719.6 731.6C719.6 725.1 724.9 719.9 731.3 719.9C737.8 719.9 743 725.2 743 731.6C743 738 737.8 743.3 731.3 743.3ZM731.3 722C726 722 721.7 726.3 721.7 731.6C721.7 736.9 726 741.2 731.3 741.2C736.6 741.2 740.9 736.9 740.9 731.6C740.9 726.3 736.6 722 731.3 722Z" fill="black"/>
<path d="M794.3 730.5H742V732.6H794.3V730.5Z" fill="black"/>
<path d="M804.7 742.3C810.609 742.3 815.4 737.509 815.4 731.6C815.4 725.691 810.609 720.9 804.7 720.9C798.791 720.9 794 725.691 794 731.6C794 737.509 798.791 742.3 804.7 742.3Z" fill="#BB3437"/>
<path d="M804.7 743.3C798.2 743.3 793 738 793 731.6C793 725.1 798.3 719.9 804.7 719.9C811.2 719.9 816.4 725.2 816.4 731.6C816.4 738 811.2 743.3 804.7 743.3ZM804.7 722C799.4 722 795.1 726.3 795.1 731.6C795.1 736.9 799.4 741.2 804.7 741.2C810 741.2 814.3 736.9 814.3 731.6C814.3 726.3 810 722 804.7 722Z" fill="black"/>
<path d="M804.7 815.6C810.609 815.6 815.4 810.809 815.4 804.9C815.4 798.991 810.609 794.2 804.7 794.2C798.791 794.2 794 798.991 794 804.9C794 810.809 798.791 815.6 804.7 815.6Z" fill="#BB3437"/>
<path d="M804.7 816.6C798.2 816.6 793 811.3 793 804.9C793 798.5 798.3 793.2 804.7 793.2C811.2 793.2 816.4 798.5 816.4 804.9C816.4 811.3 811.2 816.6 804.7 816.6ZM804.7 795.3C799.4 795.3 795.1 799.6 795.1 804.9C795.1 810.2 799.4 814.5 804.7 814.5C810 814.5 814.3 810.2 814.3 804.9C814.3 799.6 810 795.3 804.7 795.3Z" fill="black"/>
<path d="M805.7 741.9H803.6V794.2H805.7V741.9Z" fill="black"/>
<path d="M475.3 304C481.21 304 486 299.209 486 293.3C486 287.391 481.21 282.6 475.3 282.6C469.391 282.6 464.6 287.391 464.6 293.3C464.6 299.209 469.391 304 475.3 304Z" fill="white"/>
<path d="M475.3 305C468.8 305 463.6 299.7 463.6 293.3C463.6 286.8 468.9 281.6 475.3 281.6C481.7 281.6 487 286.9 487 293.3C487 299.8 481.8 305 475.3 305ZM475.3 283.7C470 283.7 465.7 288 465.7 293.3C465.7 298.6 470 302.9 475.3 302.9C480.6 302.9 484.9 298.6 484.9 293.3C484.9 288 480.6 283.7 475.3 283.7Z" fill="black"/>
<path d="M548.7 304C554.609 304 559.4 299.209 559.4 293.3C559.4 287.391 554.609 282.6 548.7 282.6C542.791 282.6 538 287.391 538 293.3C538 299.209 542.791 304 548.7 304Z" fill="#BB3437"/>
<path d="M548.7 305C542.2 305 537 299.7 537 293.3C537 286.8 542.3 281.6 548.7 281.6C555.2 281.6 560.4 286.9 560.4 293.3C560.4 299.8 555.2 305 548.7 305ZM548.7 283.7C543.4 283.7 539.1 288 539.1 293.3C539.1 298.6 543.4 302.9 548.7 302.9C554 302.9 558.3 298.6 558.3 293.3C558.3 288 554 283.7 548.7 283.7Z" fill="black"/>
<path d="M538 292.3H485.7V294.4H538V292.3Z" fill="black"/>
<path d="M601.6 433.6C607.509 433.6 612.3 428.809 612.3 422.9C612.3 416.991 607.509 412.2 601.6 412.2C595.69 412.2 590.9 416.991 590.9 422.9C590.9 428.809 595.69 433.6 601.6 433.6Z" fill="#BB3437"/>
<path d="M601.6 434.7C595.1 434.7 589.9 429.4 589.9 423C589.9 416.5 595.2 411.3 601.6 411.3C608.1 411.3 613.3 416.6 613.3 423C613.3 429.4 608 434.7 601.6 434.7ZM601.6 413.3C596.3 413.3 592 417.6 592 422.9C592 428.2 596.3 432.5 601.6 432.5C606.9 432.5 611.2 428.2 611.2 422.9C611.2 417.6 606.9 413.3 601.6 413.3Z" fill="black"/>
<path d="M664.2 421.9H611.9V424H664.2V421.9Z" fill="black"/>
<path d="M674.6 433.6C680.509 433.6 685.3 428.809 685.3 422.9C685.3 416.991 680.509 412.2 674.6 412.2C668.69 412.2 663.9 416.991 663.9 422.9C663.9 428.809 668.69 433.6 674.6 433.6Z" fill="#C9D3DC"/>
<path d="M674.6 434.7C670.8 434.7 667.1 432.9 664.8 429.5C661.2 424.1 662.6 416.8 668 413.2C673.4 409.6 680.7 411 684.3 416.4C687.9 421.8 686.5 429.1 681.1 432.7C679.1 434 676.8 434.7 674.6 434.7ZM666.6 428.3C669.6 432.7 675.5 433.9 679.9 430.9C684.3 428 685.5 422 682.5 417.6C679.5 413.2 673.6 412 669.2 415C664.8 417.9 663.7 423.9 666.6 428.3Z" fill="black"/>
<path d="M705.2 477.1C711.109 477.1 715.9 472.309 715.9 466.4C715.9 460.491 711.109 455.7 705.2 455.7C699.29 455.7 694.5 460.491 694.5 466.4C694.5 472.309 699.29 477.1 705.2 477.1Z" fill="#C9D3DC"/>
<path d="M705.2 478.1C701.4 478.1 697.7 476.3 695.4 472.9C691.8 467.5 693.2 460.2 698.6 456.6C704 453 711.3 454.4 714.9 459.8C718.5 465.2 717.1 472.5 711.7 476.1C709.7 477.5 707.5 478.1 705.2 478.1ZM697.2 471.8C700.2 476.2 706.1 477.4 710.5 474.4C714.9 471.5 716.1 465.5 713.1 461.1C710.1 456.7 704.2 455.5 699.8 458.5C695.4 461.4 694.3 467.4 697.2 471.8Z" fill="black"/>
<path d="M681.072 431.12L679.329 432.291L697.398 459.183L699.141 458.012L681.072 431.12Z" fill="black"/>
<path d="M632.4 477.5C638.309 477.5 643.1 472.709 643.1 466.8C643.1 460.891 638.309 456.1 632.4 456.1C626.49 456.1 621.7 460.891 621.7 466.8C621.7 472.709 626.49 477.5 632.4 477.5Z" fill="#C9D3DC"/>
<path d="M632.4 478.5C628.6 478.5 624.9 476.7 622.6 473.3C619 467.9 620.4 460.6 625.8 457C628.4 455.3 631.5 454.6 634.6 455.2C637.7 455.8 640.3 457.6 642.1 460.2C645.7 465.6 644.3 472.9 638.9 476.5C636.9 477.9 634.7 478.5 632.4 478.5ZM624.4 472.1C627.4 476.5 633.3 477.7 637.7 474.7C642.1 471.8 643.3 465.8 640.3 461.4C638.9 459.3 636.7 457.8 634.2 457.3C631.7 456.8 629.1 457.3 627 458.7C622.6 461.8 621.5 467.7 624.4 472.1Z" fill="black"/>
<path d="M608.229 431.435L606.486 432.606L624.556 459.498L626.299 458.327L608.229 431.435Z" fill="black"/>
<path d="M553 410.9C558.91 410.9 563.7 406.109 563.7 400.2C563.7 394.291 558.91 389.5 553 389.5C547.091 389.5 542.3 394.291 542.3 400.2C542.3 406.109 547.091 410.9 553 410.9Z" fill="#C9D3DC"/>
<path d="M553 411.9C551.1 411.9 549.3 411.4 547.6 410.6C541.9 407.6 539.6 400.5 542.6 394.8C544.1 392 546.5 390 549.5 389C552.5 388.1 555.7 388.3 558.4 389.8C561.2 391.3 563.2 393.7 564.2 396.7C565.1 399.7 564.9 402.9 563.4 405.6C561.9 408.4 559.5 410.4 556.5 411.4C555.3 411.7 554.2 411.9 553 411.9ZM553 390.6C552 390.6 551.1 390.7 550.1 391C547.7 391.8 545.7 393.4 544.5 395.7C542 400.4 543.9 406.2 548.6 408.6C550.9 409.8 553.5 410 555.9 409.3C558.3 408.5 560.3 406.9 561.5 404.6C562.7 402.3 562.9 399.7 562.2 397.3C561.5 394.9 559.8 392.9 557.5 391.7C556 390.9 554.5 390.6 553 390.6Z" fill="black"/>
<path d="M563.254 402.805L562.282 404.666L590.995 419.673L591.967 417.812L563.254 402.805Z" fill="black"/>
<path d="M651.1 375.1C657.01 375.1 661.8 370.309 661.8 364.4C661.8 358.491 657.01 353.7 651.1 353.7C645.191 353.7 640.4 358.491 640.4 364.4C640.4 370.309 645.191 375.1 651.1 375.1Z" fill="#C9D3DC"/>
<path d="M651.1 376.1C649.4 376.1 647.7 375.7 646.1 375C643.3 373.6 641.1 371.3 640.1 368.3C639.1 365.3 639.2 362.2 640.6 359.3C642 356.5 644.3 354.3 647.3 353.3C650.3 352.3 653.4 352.4 656.3 353.8C662.1 356.6 664.6 363.6 661.8 369.4C659.7 373.7 655.5 376.1 651.1 376.1ZM651.1 354.8C650 354.8 648.9 355 647.9 355.4C645.5 356.3 643.5 358 642.4 360.3C641.3 362.6 641.2 365.2 642 367.6C642.9 370 644.6 372 646.9 373.1C651.7 375.4 657.4 373.4 659.7 368.6C662 363.8 660 358.1 655.2 355.8C654 355.1 652.5 354.8 651.1 354.8Z" fill="black"/>
<path d="M612.397 346.297L611.491 348.192L640.722 362.169L641.628 360.275L612.397 346.297Z" fill="black"/>
<path d="M717.2 402.1C723.109 402.1 727.9 397.309 727.9 391.4C727.9 385.491 723.109 380.7 717.2 380.7C711.291 380.7 706.5 385.491 706.5 391.4C706.5 397.309 711.291 402.1 717.2 402.1Z" fill="#C9D3DC"/>
<path d="M717.2 403.1C716.4 403.1 715.7 403 714.9 402.9C711.8 402.3 709.2 400.5 707.4 397.9C703.8 392.5 705.2 385.2 710.6 381.6C716 378 723.3 379.4 726.9 384.8C730.5 390.2 729.1 397.5 723.7 401.1C721.8 402.4 719.6 403.1 717.2 403.1ZM717.2 381.8C715.4 381.8 713.5 382.3 711.9 383.4C707.5 386.3 706.3 392.3 709.3 396.7C710.7 398.8 712.9 400.3 715.4 400.8C717.9 401.3 720.5 400.8 722.6 399.4C727 396.5 728.2 390.5 725.2 386.1C723.3 383.3 720.3 381.8 717.2 381.8Z" fill="black"/>
<path d="M708.837 397.421L681.945 415.491L683.116 417.234L710.009 399.164L708.837 397.421Z" fill="black"/>
<path d="M601.6 354.8C607.51 354.8 612.3 350.009 612.3 344.1C612.3 338.191 607.51 333.4 601.6 333.4C595.691 333.4 590.9 338.191 590.9 344.1C590.9 350.009 595.691 354.8 601.6 354.8Z" fill="#BB3437"/>
<path d="M601.6 355.8C598.5 355.8 595.5 354.6 593.3 352.4C588.7 347.8 588.7 340.4 593.3 335.8C595.5 333.6 598.5 332.4 601.6 332.4C604.7 332.4 607.7 333.6 609.9 335.8C612.1 338 613.3 341 613.3 344.1C613.3 347.2 612.1 350.2 609.9 352.4C607.6 354.6 604.7 355.8 601.6 355.8ZM601.6 334.5C599 334.5 596.6 335.5 594.8 337.3C591.1 341 591.1 347.1 594.8 350.9C596.6 352.7 599 353.7 601.6 353.7C604.2 353.7 606.6 352.7 608.4 350.9C610.2 349.1 611.2 346.7 611.2 344.1C611.2 341.5 610.2 339.1 608.4 337.3C606.5 335.5 604.1 334.5 601.6 334.5Z" fill="black"/>
<path d="M557.66 298.87L556.176 300.355L593.173 337.321L594.657 335.835L557.66 298.87Z" fill="black"/>
<path d="M593.238 429.676L555.777 467.168L557.263 468.652L594.723 431.16L593.238 429.676Z" fill="black"/>
<path d="M475.3 230.7C481.21 230.7 486 225.909 486 220C486 214.091 481.21 209.3 475.3 209.3C469.391 209.3 464.6 214.091 464.6 220C464.6 225.909 469.391 230.7 475.3 230.7Z" fill="#BB3437"/>
<path d="M475.3 231.7C468.8 231.7 463.6 226.4 463.6 220C463.6 213.6 468.9 208.3 475.3 208.3C481.7 208.3 487 213.5 487 220C487 226.5 481.8 231.7 475.3 231.7ZM475.3 210.4C470 210.4 465.7 214.7 465.7 220C465.7 225.3 470 229.6 475.3 229.6C480.6 229.6 484.9 225.3 484.9 220C484.9 214.7 480.6 210.4 475.3 210.4Z" fill="black"/>
<path d="M475.3 304C481.21 304 486 299.209 486 293.3C486 287.391 481.21 282.6 475.3 282.6C469.391 282.6 464.6 287.391 464.6 293.3C464.6 299.209 469.391 304 475.3 304Z" fill="#BB3437"/>
<path d="M475.3 305C468.8 305 463.6 299.7 463.6 293.3C463.6 286.8 468.9 281.6 475.3 281.6C481.7 281.6 487 286.9 487 293.3C487 299.8 481.8 305 475.3 305ZM475.3 283.7C470 283.7 465.7 288 465.7 293.3C465.7 298.6 470 302.9 475.3 302.9C480.6 302.9 484.9 298.6 484.9 293.3C484.9 288 480.6 283.7 475.3 283.7Z" fill="black"/>
<path d="M476.3 230.3H474.2V282.6H476.3V230.3Z" fill="black"/>
<path d="M548.7 486.3C554.609 486.3 559.4 481.509 559.4 475.6C559.4 469.691 554.609 464.9 548.7 464.9C542.791 464.9 538 469.691 538 475.6C538 481.509 542.791 486.3 548.7 486.3Z" fill="#BB3437"/>
<path d="M548.7 487.3C542.2 487.3 537 482 537 475.6C537 469.1 542.3 463.9 548.7 463.9C555.2 463.9 560.4 469.2 560.4 475.6C560.4 482.1 555.2 487.3 548.7 487.3ZM548.7 466C543.4 466 539.1 470.3 539.1 475.6C539.1 480.9 543.4 485.2 548.7 485.2C554 485.2 558.3 480.9 558.3 475.6C558.3 470.3 554 466 548.7 466Z" fill="black"/>
<path d="M548.7 559.6C554.609 559.6 559.4 554.809 559.4 548.9C559.4 542.991 554.609 538.2 548.7 538.2C542.791 538.2 538 542.991 538 548.9C538 554.809 542.791 559.6 548.7 559.6Z" fill="#BB3437"/>
<path d="M548.7 560.7C542.2 560.7 537 555.4 537 549C537 542.6 542.3 537.3 548.7 537.3C555.2 537.3 560.4 542.6 560.4 549C560.4 555.4 555.2 560.7 548.7 560.7ZM548.7 539.4C543.4 539.4 539.1 543.7 539.1 549C539.1 554.3 543.4 558.6 548.7 558.6C554 558.6 558.3 554.3 558.3 549C558.3 543.7 554 539.4 548.7 539.4Z" fill="black"/>
<path d="M549.7 486H547.6V538.3H549.7V486Z" fill="black"/>
<path d="M602.6 354.8H600.5V412.3H602.6V354.8Z" fill="black"/>
<path d="M173 586.4H45.7999C45.1999 586.4 44.7 585.9 44.7 585.3C44.7 584.7 45.1999 584.2 45.7999 584.2H173C173.6 584.2 174.1 584.7 174.1 585.3C174.1 585.9 173.6 586.4 173 586.4Z" fill="black"/>
<path d="M173 617.3H45.7999C45.1999 617.3 44.7 616.8 44.7 616.2C44.7 615.6 45.1999 615.1 45.7999 615.1H173C173.6 615.1 174.1 615.6 174.1 616.2C174 616.8 173.6 617.3 173 617.3Z" fill="black"/>
<path d="M116 648.2H45.7999C45.1999 648.2 44.7 647.7 44.7 647.1C44.7 646.5 45.1999 646 45.7999 646H116C116.6 646 117.1 646.5 117.1 647.1C117.1 647.7 116.6 648.2 116 648.2Z" fill="black"/>
<path d="M683.2 170.4H633.6V99.3C633.6 91.6 639.9 85.3 647.6 85.3H669.1C676.8 85.3 683.1 91.6 683.1 99.3V170.4H683.2ZM635.7 168.2H681V99.2C681 92.6 675.7 87.3 669.1 87.3H647.6C641 87.3 635.7 92.6 635.7 99.2V168.2Z" fill="black"/>
<path d="M709.7 133.4H607.1V209.9H709.7V133.4Z" fill="#961518"/>
<path d="M666.1 167.5C666.1 163.2 662.6 159.8 658.4 159.8C654.2 159.8 650.7 163.3 650.7 167.5C650.7 170.5 652.5 173.2 655 174.4V181.8C655 182.7 655.8 183.5 656.7 183.5H660.1C661 183.5 661.8 182.7 661.8 181.8V174.4C664.3 173.2 666.1 170.5 666.1 167.5Z" fill="#ABB8C1"/>
<path d="M660.1 184.6H656.7C655.2 184.6 653.9 183.4 653.9 181.8V175C651.2 173.4 649.6 170.6 649.6 167.4C649.6 162.6 653.5 158.6 658.4 158.6C663.2 158.6 667.2 162.5 667.2 167.4C667.2 170.5 665.6 173.4 662.9 175V181.8C662.8 183.3 661.6 184.6 660.1 184.6ZM658.4 160.9C654.7 160.9 651.8 163.9 651.8 167.5C651.8 170 653.2 172.3 655.5 173.5L656.1 173.8V181.9C656.1 182.2 656.4 182.5 656.7 182.5H660.1C660.4 182.5 660.7 182.2 660.7 181.9V173.8L661.3 173.5C663.6 172.4 665 170.1 665 167.5C665 163.8 662 160.9 658.4 160.9Z" fill="#3D3939"/>
<path d="M289.8 1109.4L171.6 1193.7L180.7 1230.5L342.3 1142.7C349 1139.1 352.6 1131.5 351.1 1124L321.1 971L310.6 941.9L310.5 941.1L309.6 935.7L290.2 944.1L282.3 947.5L244.6 959.9L291.2 1105.4C291.7 1106.9 291.1 1108.5 289.8 1109.4Z" fill="#99A4AA"/>
<path d="M216.4 1287.1L253.7 1282L270.2 987.4L265.3 936.5L199.7 947.7L200.4 957.9V959.7L199.3 997.9L216.4 1287.1Z" fill="#A4AEB2"/>
<path d="M347.1 820.4C346.8 811.9 328.1 826.7 322.1 830.2C319.3 831.8 309.3 848.9 314 853.9C317.6 857.8 345 842.4 347.1 820.4Z" fill="#D8AD9C"/>
<path d="M305.6 931.4C306.7 939.6 321.2 954 334.5 960.9C336.4 961.9 338.6 962.6 340.7 963.5L328.4 929.3L328.2 928.3L305.6 931.4Z" fill="#4F8BC6"/>
<path d="M330.7 934C331.1 936.8 312.1 940.8 288.4 944.3C272.3 946.7 254 948.8 238.2 950.3C216.2 952.3 198.9 952.9 198.6 950.8C198 943.7 197 908.2 196.2 875.5C196 869 195.9 862.7 195.7 856.7C195.7 856.6 195.7 856.6 195.7 856.5V856.4C195.6 854 195.6 851.6 195.5 849.4C195.5 848.8 195.5 848.3 195.5 847.7C195.1 829.9 194.8 817 194.8 817C193.1 804.3 200.6 792.9 211.5 791.4L280 782.1C291 780.6 301.2 789.7 303 802.3C303 802.4 328.6 920.5 330.7 934Z" fill="#C9D3DC"/>
<path d="M436.4 839.2C434.6 846.2 427.6 848.4 423 850.6C420.6 851.8 416.5 853.2 411.4 855.1C406.6 856.9 374.6 872.4 373.1 871.6C368.3 869.2 364.6 844.8 373.4 842.5C394.7 836.9 403.9 835.2 414.4 824.2C414.7 823.8 415.1 823.5 415.4 823.2C423.4 814.9 425.1 813.3 427.4 814C429.9 814.8 430.9 816.1 433.1 821.8C435.7 828.9 437.6 834.4 436.4 839.2Z" fill="#E96848"/>
<path d="M439.7 840.1C437.9 847.1 427.6 848.3 423 850.6C420.6 851.8 416.5 853.2 411.4 855.1C411.4 853.8 411.5 852.8 411.6 852.4C412.3 846.3 416.1 844.9 417.2 838.6C417.4 837.6 417.7 835.5 416.2 827.7C415.9 826.3 415.6 824.8 415.3 823.2C423.3 814.9 425 813.3 427.3 814C429.8 814.8 430.8 816.1 433 821.8C435.7 828.9 440.9 835.4 439.7 840.1Z" fill="#FFBAB9"/>
<path d="M401.7 834.8C401 834.2 408.4 816.5 410.5 814.6C412.7 812.6 418.7 808.5 419.7 812.4C419.9 813.3 416.9 817.3 416 818.4C414.2 820.7 415.3 824.2 412.8 828.3C410.8 831.7 402.4 835.5 401.7 834.8Z" fill="#873C3A"/>
<path d="M432.8 837.9C432.8 837.9 386.1 843.5 367.6 845.7C363.1 846.2 360.3 846.6 360.2 846.6C352 849 352.5 856.5 350.4 866.4L350.3 866.9C350.2 867.4 350.1 867.8 350 868.3C348.7 876.2 350.8 883.9 356.4 886.6C358.2 887.4 360.3 887.8 362.7 887.4C369.7 886.4 376.7 884.7 383.4 882.5C413.3 872.8 438.2 854.3 438.2 854.3L432.8 837.9Z" fill="#873C3A"/>
<path d="M302.8 810.4C301.2 810.7 299.7 811 298.2 811.4C287.5 813.9 279.1 817.4 282 820.1L335.7 867.7L354 884C356.7 886.5 360.2 887.9 363.8 888.2C368.7 888.6 374 886.9 377.8 883.3L379.6 881.6L382.2 879.2C388.9 872.9 389.2 863 382.7 857.1L371.2 846.5L331.4 810C328.3 807.1 314.9 808 302.8 810.4Z" fill="#873C3A"/>
<path d="M302.8 810.4C301.2 810.7 299.7 811 298.2 811.4C287.5 813.9 279.1 817.4 282 820.1L335.7 867.7C329.6 860.8 320.7 850.3 312.4 833.3C307.4 823.5 304.9 815.9 302.8 810.4Z" fill="#7F2F2F"/>
<path d="M347.1 820.4C336.7 824.1 312.1 848.2 312.5 858.9C312.6 863.2 257.1 811.6 257.1 811.6C263.5 786.8 275.8 778.2 297.9 783.5C315.2 787.6 350.5 819.2 347.1 820.4Z" fill="#E9C5B5"/>
<path d="M198.6 950.8C198.9 952.9 216.2 952.3 238.2 950.3C195.7 931.9 200 860 195.8 856.4V856.5C195.8 856.5 195.8 856.6 195.8 856.7C195.9 862.7 196.1 869.1 196.3 875.5C197 908.2 198 943.7 198.6 950.8Z" fill="#8B9950"/>
<path d="M288.4 944.3C272.3 946.7 254 948.8 238.2 950.3C216.2 952.3 198.9 952.9 198.6 950.8C198 943.7 197 908.2 196.2 875.5C196 869 195.9 862.7 195.7 856.7C195.7 856.6 195.7 856.6 195.7 856.5V856.4C195.6 854 195.6 851.6 195.5 849.4C195.5 848.8 195.5 848.3 195.5 847.7C202.1 841 209.2 834.4 216.8 827.8C225.2 850.8 230.8 866.6 234 875.5C241.1 895.3 243.9 903.3 251.5 913.4C260.2 925 270.6 933.1 272.1 934.3C279.7 940.1 285.1 942.7 288.4 944.3Z" fill="#ABB8C1"/>
<path d="M343.6 970.7C401.535 970.7 448.5 923.779 448.5 865.9C448.5 808.021 401.535 761.1 343.6 761.1C285.665 761.1 238.7 808.021 238.7 865.9C238.7 923.779 285.665 970.7 343.6 970.7Z" fill="#961518"/>
<path d="M256.6 770.8C251.1 771.2 243.6 769.8 237.8 766.3C235.2 764.7 233.1 762.8 231.5 761C231.4 760.3 231.4 759.8 231.4 759.4C231.4 759.4 250.2 757.1 253.6 757.1C254 759.5 254.5 762.4 255.2 765.3C255.8 767.4 256.2 769.2 256.6 770.8Z" fill="#4C100D"/>
<path d="M212.7 951.6L202.2 926.5L175.6 862.7C174 858.7 185.3 859.7 197.5 862.8C209.8 865.9 223 871 224.6 875.1L250.4 939.9C253.6 948 249.1 956.8 240.3 959.6L234.5 961.4C225.8 964 216 959.7 212.7 951.6Z" fill="#FFBAB9"/>
<path d="M313 976.6C312.5 978.3 319.4 984.4 330 988C342.9 992.3 334.5 991.1 359 991C361.1 991 363.6 990.1 364.1 989.1C364.7 987.8 361.8 986.5 361.5 986.4C360.1 985.8 344.6 985.2 342.7 985C336.6 984.2 313.7 974.3 313 976.6Z" fill="#FFBAB9"/>
<path d="M317.3 963.9C321.6 968.6 338.3 972.8 347.1 975.5C354.7 977.8 351.2 976.2 363.9 976.2C365.9 976.2 368.5 976.4 369 975.3C369.7 973.9 367.4 972.5 367.1 972.4C362.6 971 349.9 969.9 348.4 969.2C334.2 962.6 315.5 961.9 317.3 963.9Z" fill="#FFBAB9"/>
<path d="M326.1 975.9C328.1 974.6 328.5 973.8 332.7 975.2C336.7 976.6 349.1 982.9 357.5 982.5C362.4 982.3 367.5 983.3 368.8 984C369.1 984.2 371.7 985.7 371.1 986.9C370.6 987.8 368.3 988 366.3 988.2C357.1 989.2 355 989.5 351.6 989.2C349.1 989 335.9 987.5 328.6 984.8C318.4 981.1 324.1 979.1 324.6 977.6C324.8 977 325.3 976.4 326.1 975.9Z" fill="#FFBAB9"/>
<path d="M327.5 970.8C329.5 969.5 331.5 967.8 335.7 969.3C339.7 970.7 347 978.2 358.9 977.5C363.9 977.2 368.9 978.3 370.2 979C370.5 979.2 373.1 980.7 372.5 981.9C372 982.8 369.7 983 367.7 983.2C358.5 984.2 356.4 984.5 353 984.2C350.5 984 337.3 982.5 330 979.8C319.8 976.1 325.5 974.1 326 972.6C326.2 972 326.7 971.3 327.5 970.8Z" fill="#FFBAB9"/>
<path d="M287.1 952.3C288.1 951.6 292.4 953.1 297.5 955.2C299.6 956 301.9 957 304.2 957.9C308.5 959.6 312.8 961.2 315.9 961.9C317.4 962.2 318.6 962.4 319.4 962.2C323.1 961.6 325.9 961.8 331.9 963C337.1 964 349.9 969.6 349.4 970.7C348.5 972.9 346.9 974 345.1 974.6C344.9 974.7 344.8 974.7 344.6 974.7C340.4 975.8 335.6 974.1 336.2 976.6C336.3 977.1 336.6 977.7 337.2 978.5C338.1 979.9 340.1 981.3 342.5 982.7C343.9 983.5 345.4 984.3 346.9 985.1C350.2 986.8 353.4 988.2 354.8 989.3C356.1 990.2 355.9 991.2 353.4 990.9C345 989.9 340.1 989.6 332.2 988.4C332.1 988.4 331.9 988.4 331.8 988.3C326 986.8 281.4 977.3 277.9 974.8C276.4 973.7 278.8 971.3 279.2 967.7C280.1 961.3 281.5 956.2 287.1 952.3Z" fill="#FFBAB9"/>
<path d="M294.9 729.5C292.3 731.9 289.1 733.8 286.8 736.5C284.5 739.2 283.2 743.4 285.1 746.4C287 749.4 291.4 750.4 292.8 753.7C294 756.6 292.4 759.9 290.2 762.1C286.6 765.9 281.4 768.1 276.1 768.1C276 768.1 275.8 768.1 275.7 768.1C271.5 768 266.5 766.8 263.5 769.7C261.4 771.8 261.2 775 260.3 777.8C259.8 779.3 259.2 780.6 258.3 781.9L258 780.2C257.4 780.3 256.2 780.8 255.6 780.8L255.2 784.6C253.2 786.7 252.1 787.8 249.4 788.7C248.6 789 247.7 789.2 246.8 789.4C241.4 790.4 235.6 788.9 231.2 785.7C230.6 785.3 230.1 784.8 229.5 784.4C227 782.2 224.6 779.2 221.3 778.8C216.7 778.2 213.1 782.7 208.8 784.3C205.3 785.6 201.2 784.9 198.4 782.6C195.5 780.3 194 776.4 194.5 772.8C194.9 769.7 196.7 767 197.5 764.1C198.3 761.1 198 757.4 195.3 755.8C193 754.5 190 755.3 187.8 753.9C184.9 752.1 185.1 747.7 186.7 744.8C188.4 741.9 191.1 739.6 192.8 736.7C194.5 733.8 194.6 729.4 191.7 727.6C190.9 727.1 190 726.9 189.3 726.4C186.4 724.6 186.8 720 189 717.4C191.2 714.8 194.5 713.5 197.5 711.8C200.5 710.1 203.4 707.4 203.5 704C203.6 702.1 202.8 700.3 202.9 698.4C203.2 695.4 206 693.1 209 692.4C212 691.7 215 692.1 218.1 692.3C219.8 692.4 221.5 692.4 223.2 692.2C231.6 683.6 243.7 678.7 255.8 679.2C260.1 679.4 264.5 680.3 268 682.7C271.5 685.1 274.1 689.3 273.7 693.6C273.3 697.4 270.7 701 271.5 704.8C272.2 708.5 275.9 710.9 279.6 711.8C283.3 712.7 287.1 712.5 290.8 713.3C294.5 714.1 298.2 716.5 299 720.1C299.7 723.5 297.6 727 294.9 729.5Z" fill="#070200"/>
<path d="M256.8 790.5C245.9 789.1 236.5 782.7 231.4 773.5V772.2C231.5 771.2 232 770.2 233 769.7L238.3 773L241.7 775.1L243.9 773.6L247.4 771.3L253.4 767.3L256.5 776.3L256.7 786.1L256.8 790.5Z" fill="#E96848"/>
<path d="M256.5 776.3L253.4 767.3L256 765.6L256.4 765.4L256.3 767.8L256.4 771.2L256.5 776.3Z" fill="#E96848"/>
<path d="M256.9 795.4C256.9 795.9 256.9 796.3 256.8 796.8V796.9C256.8 797.2 256.7 797.5 256.7 797.8C256 802.2 253.3 806.2 249.4 808.4C248.2 809.1 246.9 809.5 245.6 809.8C238 811.2 230.6 805.3 230.9 796.7V796.5V796.2V795.6L231.2 791.7L231.5 773.3C236.6 782.5 246 788.9 256.9 790.3V790.6V795.4Z" fill="#FFBAB9"/>
<path d="M256.8 790.5C254.3 790.2 251.8 789.6 249.4 788.8C242.2 786.2 236.1 781.3 232.2 775C231.9 774.5 231.6 774.1 231.4 773.6V772.3C231.5 771.3 232 770.3 233 769.8L238.3 773.1L241.7 775.2L243.9 773.7L247.4 771.4L253.4 767.4L256.5 776.4L256.6 782.3V784.2V786.2L256.8 790.5Z" fill="#FFA0A0"/>
<g opacity="0.45">
<path opacity="0.45" d="M250.5 758.9L253.4 767.4L247.4 771.4L243.9 773.7L241.7 775.2L238.3 773.1L233 769.8C232.1 770.3 231.5 771.3 231.4 772.3V773.6C230.6 772.1 229.9 770.6 229.3 769C228.8 767.8 228.5 766.6 228.2 765.4L232.5 766.2L236.3 767.3L240.8 768.6L249.7 758.8C249.9 758.7 250.2 758.8 250.5 758.9Z" fill="#E96848"/>
</g>
<path d="M232 762.3C233.6 765 236.3 769.7 240 772.4C244.4 775.5 251.7 777.1 255.8 776.8C255.2 771 254.5 764.6 254.3 762.4C254.2 761.8 254.2 761.5 254.2 761.5H234.1C233.3 761.5 232.5 761.8 232 762.3Z" fill="#EA4456"/>
<path d="M276.7 766.5C276.5 767 276.3 767.5 276 768.1C272.5 775.4 265.9 780.5 258.3 781.9C257.7 782 257.1 782.1 256.6 782.1C254.7 782.3 252.7 782.3 250.7 781.9C245.7 781.1 239.7 779.1 232.6 775C232.5 774.9 232.3 774.9 232.2 774.8C231.9 774.6 231.6 774.5 231.4 774.3C230.9 774 230.4 773.7 230 773.4C230 773.4 221.2 768 216 757.2C216 757.2 204.5 759.6 203 747.5C203 747.5 201.4 735.4 211.4 738.2C211.4 738.2 200.5 715.8 212.6 706.4C212.6 706.4 228.3 687.6 251.2 698C255.1 699.7 258.5 702.3 261.5 705.4C265.7 709.7 271.6 716.8 272.8 723.8C272.8 723.8 273.2 729.6 276.2 736.1C278.1 740.4 279.3 744.9 279.6 749.5C279.6 750 279.6 750.6 279.6 751.1C279.5 755.5 278.9 761 276.7 766.5Z" fill="#FFBAB9"/>
<path d="M246.4 759.4C250.7 761.9 256.1 761.9 260.4 759.6C261.6 758.9 262.6 760.9 261.4 761.6C256.4 764.3 250.2 764.1 245.2 761.2C244 760.6 245.2 758.7 246.4 759.4Z" fill="#F5887E"/>
<path d="M260.2 751.8C261.4 751.7 262.6 751.3 263.6 750.6C264.1 750.3 264.6 749.8 264.9 749.4C265 749.3 265.1 749.1 265.1 749C265.1 749.1 265.1 749 265.1 749C265 748.7 264.6 748.4 264.4 748.2C262.6 746 260.6 744 258.4 742.1C257.9 741.7 257.8 741.1 258.1 740.6C258.4 740.1 259.2 739.9 259.6 740.3C261 741.5 262.3 742.7 263.5 744C264.1 744.6 264.7 745.2 265.2 745.9C265.8 746.6 266.5 747.3 266.9 748C267.9 749.7 266.4 751.3 265.1 752.3C263.8 753.3 262.2 754 260.5 754.1C259.9 754.2 259.3 753.8 259.2 753.2C259.2 752.5 259.6 751.9 260.2 751.8Z" fill="#F5887E"/>
<path d="M240.4 737.8C241.1 739.7 242.7 740.9 244 740.5C245.3 740.1 245.8 738.1 245.1 736.2C244.4 734.3 242.8 733.1 241.5 733.5C240.2 733.9 239.7 735.8 240.4 737.8Z" fill="#070200"/>
<path d="M261.9 731.3C262.6 733.2 264.2 734.4 265.5 734C266.8 733.6 267.3 731.6 266.6 729.7C265.9 727.8 264.3 726.6 263 727C261.7 727.5 261.2 729.4 261.9 731.3Z" fill="#070200"/>
<path d="M273.4 713C273.4 709.1 271.8 705.2 269.4 702.1C266.9 699 263.7 696.6 260.2 694.8C250.2 689.4 237.9 688.2 227.3 692.1C216.7 696.1 208 705.4 205.6 716.4C203.6 725.7 206.3 736 212.7 743C220.3 752.5 222.1 732.1 225.1 726.2C228.1 720.3 235.2 716.6 241.7 717.9C244.5 718.4 247.7 719.7 250.1 718.2C252.2 716.9 252.9 714.1 254.8 712.5C257.3 710.5 273.4 716 273.4 713Z" fill="#070200"/>
<path d="M441.5 816.2C440.3 814.2 439.1 813.7 433.1 809.7C429.3 807.2 428.5 807.1 428.1 806.8C426.2 805.6 426.7 808.6 429.2 811.7C432.9 816.3 441.3 823 442.7 821.8C443.6 820.9 442.5 817.9 441.5 816.2Z" fill="#FFBAB9"/>
<path d="M443.1 820.5C441.9 818.5 440.4 820.5 434.4 816.5C430.6 814 429.7 813.3 429.4 813.6C428.6 814.3 430.2 818.2 433.1 820.9C437.7 825.1 442.9 827.3 444.3 826.1C445.2 825.2 444.1 822.2 443.1 820.5Z" fill="#FFBAB9"/>
<path d="M444.9 826C443.4 824.2 442.6 825.3 436 822.4C431.9 820.6 430.9 820.1 430.6 820.5C430 821.3 432.7 825 435.7 827.7C440.1 831.6 445.1 835 446.3 833.4C447 832.4 446.1 827.6 444.9 826Z" fill="#FFBAB9"/>
<path d="M446 831C445.7 830.6 445.2 830.3 445 830.2C444.1 829.8 443 829.9 438 828.4C433.7 827 432.7 826.6 432.5 827C432 827.9 436.9 832.7 440.6 834.6C440.9 834.8 441.7 835.3 442.6 836.3C443 836.8 443.7 837.4 444.2 838.4C445.2 840.1 445.4 840.9 445.7 840.9C446.2 840.9 446.5 839 446.6 838.4C446.7 837.3 446.6 837 446.6 834.8C446.5 832.4 446.6 831.7 446 831Z" fill="#FFBAB9"/>
<path d="M222.2 960.4C256.2 978.3 302.9 977.4 302.9 977.4L307.9 960.8C307.9 960.8 244.3 925.9 243.8 925.7C235.7 922.9 231.8 929.3 224.3 936.1L223.9 936.4C215.6 944 212.6 955.4 222.2 960.4Z" fill="#FFBAB9"/>
<path d="M343.6 784.8C298.8 784.8 262.4 821.2 262.4 866C262.4 910.7 298.8 947.2 343.6 947.2C388.4 947.2 424.8 910.8 424.8 866C424.8 821.2 388.4 784.8 343.6 784.8ZM343.6 787.5C372.1 787.5 397.2 802.8 410.9 825.6H364H363.9C363.8 825.6 363.8 825.6 363.7 825.6C363.6 825.6 363.6 825.6 363.5 825.6C363.4 825.6 363.4 825.6 363.3 825.6C363.2 825.6 363.2 825.6 363.1 825.7C363.1 825.7 363 825.7 363 825.8L362.9 825.9L362.8 826L362.7 826.1L362.6 826.2C362.6 826.2 362.5 826.3 362.5 826.4C362.5 826.4 362.5 826.4 362.5 826.5L342.5 864.3H309.2C308.3 864.3 307.5 865.1 307.5 866C307.5 866.9 308.3 867.7 309.2 867.7H340.7L322.2 902.7H274.4H274.3C268.4 891.7 265.1 879.2 265.1 865.8C265.1 822.7 300.3 787.5 343.6 787.5ZM343.6 944.3C315.1 944.3 290 929 276.3 906.2H323.3C323.9 906.2 324.5 905.8 324.8 905.3L344.6 867.8H377.5C378.4 867.8 379.2 867 379.2 866.1C379.2 865.2 378.4 864.4 377.5 864.4H346.4L365 829.1H412.8C418.7 840.1 422 852.6 422 865.9C422.1 909.2 386.9 944.3 343.6 944.3Z" fill="#DFEBF2"/>
<path d="M229 877.6C227.7 857.1 218.7 793.2 207.7 792.5C207.7 792.5 175.9 800 170.4 826.6C168.7 834.6 173.1 873.1 175.5 888.3L229 877.6Z" fill="#C9D3DC"/>
<path d="M297.772 724.57C293.95 727.696 289.245 730.172 285.864 733.689C282.482 737.206 280.571 742.677 283.365 746.585C286.158 750.493 292.627 751.796 294.685 756.095C296.449 759.873 294.097 764.171 290.863 767.037C285.57 771.987 277.925 774.853 270.133 774.853C269.986 774.853 269.692 774.853 269.545 774.853C263.37 774.723 256.019 773.16 251.608 776.938C248.521 779.673 248.227 783.842 246.904 787.489C246.169 789.443 245.286 791.137 243.963 792.83L243.522 790.616C242.64 790.746 240.876 791.397 239.994 791.397L239.406 796.348C236.465 799.083 234.848 800.516 230.879 801.689C229.702 802.079 228.379 802.34 227.056 802.6C219.117 803.903 210.59 801.949 204.121 797.781C203.239 797.259 202.504 796.608 201.622 796.087C197.946 793.221 194.418 789.313 189.566 788.792C182.803 788.01 177.511 793.872 171.189 795.957C166.043 797.65 160.015 796.738 155.899 793.742C151.635 790.746 149.43 785.666 150.165 780.976C150.753 776.938 153.399 773.42 154.576 769.643C155.752 765.735 155.311 760.915 151.341 758.83C147.96 757.137 143.549 758.179 140.315 756.355C136.051 754.011 136.345 748.279 138.697 744.501C141.197 740.723 145.166 737.727 147.666 733.949C150.165 730.172 150.312 724.44 146.048 722.095C144.872 721.444 143.549 721.183 142.52 720.532C138.256 718.187 138.844 712.195 142.079 708.808C145.313 705.421 150.165 703.727 154.576 701.513C158.986 699.298 163.25 695.781 163.397 691.352C163.544 688.877 162.368 686.532 162.515 684.057C162.956 680.149 167.072 677.153 171.483 676.241C175.893 675.329 180.304 675.85 184.862 676.11C187.361 676.241 189.86 676.241 192.36 675.98C204.709 664.777 222.499 658.394 240.288 659.045C246.61 659.306 253.079 660.478 258.224 663.605C263.37 666.731 267.192 672.202 266.604 677.804C266.016 682.754 262.194 687.444 263.37 692.394C264.399 697.214 269.839 700.34 275.278 701.513C280.718 702.685 286.305 702.425 291.745 703.467C297.184 704.509 302.624 707.635 303.8 712.325C304.829 716.754 301.742 721.313 297.772 724.57Z" fill="#070200"/>
<path d="M306.912 716.524C313.324 749.961 280.041 784.871 246.604 791.283C213.168 797.696 170.542 779.464 164.129 746.028C157.717 712.591 189.868 676.202 223.304 669.789C256.741 663.377 300.499 683.088 306.912 716.524Z" fill="#ED8D47"/>
<path d="M287.456 646.035C312.181 632.471 306.479 680.814 295.893 705.066L251.26 674.027C256.119 671.424 262.73 659.599 287.456 646.035Z" fill="#ED8D47"/>
<path d="M156.842 670.896C128.853 667.442 152.035 710.245 170.842 728.86L200.825 683.512C195.347 682.891 184.831 674.35 156.842 670.896Z" fill="#ED8D47"/>
<path d="M161.324 677.718C143.119 675.452 158.215 703.394 170.454 715.551L189.934 685.97C186.371 685.563 179.528 679.985 161.324 677.718Z" fill="#EC6E5D"/>
<path d="M287.093 653.598C303.168 644.758 299.481 676.302 292.607 692.124L263.566 671.849C266.725 670.153 271.019 662.439 287.093 653.598Z" fill="#EC6E5D"/>
<path d="M310.822 737.404C308.747 760.705 282.322 788.675 248.321 795.195C214.319 801.716 183.853 791.867 168.465 764.705C155.7 746.796 201.924 737.083 235.925 730.562C269.927 724.041 312.704 716.262 310.822 737.404Z" fill="#FFF6C5"/>
<ellipse cx="240.68" cy="754.249" rx="41.2361" ry="41.2361" transform="rotate(-10.8564 240.68 754.249)" fill="#FFF6C5"/>
<path d="M239.026 734.209C245.592 732.949 249.961 725.828 244.428 722.076V722.076C241.045 719.782 236.89 718.926 232.875 719.696C228.861 720.466 225.317 722.799 223.023 726.182V726.182C219.271 731.714 225.965 736.714 232.53 735.454L235.778 734.832L239.026 734.209Z" fill="#454545"/>
<path d="M235.167 729.435L239.09 749.889" stroke="#454545" stroke-width="5" stroke-linecap="round"/>
<path d="M199.464 705.588C205.789 703.425 209.121 695.763 203.119 692.821V692.821C199.448 691.022 195.214 690.754 191.347 692.077C187.479 693.4 184.296 696.205 182.497 699.875V699.875C179.554 705.877 186.88 709.893 193.205 707.73L196.335 706.659L199.464 705.588Z" fill="#FFF6C5"/>
<ellipse cx="196.667" cy="722.187" rx="10.6214" ry="14.3701" transform="rotate(-10.8564 196.667 722.187)" fill="#454545"/>
<ellipse cx="198.658" cy="718.9" rx="5.41483" ry="7.49747" transform="rotate(-20.064 198.658 718.9)" fill="white"/>
<path d="M262.197 693.586C255.52 693.916 249.59 688.031 254.078 683.076V683.076C256.822 680.047 260.657 678.232 264.74 678.03C268.822 677.828 272.818 679.257 275.847 682.001V682.001C280.801 686.489 275.481 692.93 268.804 693.26L265.5 693.423L262.197 693.586Z" fill="#FFF6C5"/>
<ellipse rx="10.6214" ry="14.3701" transform="matrix(-0.982102 0.188347 0.188347 0.982102 270.936 707.972)" fill="#454545"/>
<ellipse rx="5.41484" ry="7.49747" transform="matrix(-0.900497 0.434863 0.434863 0.900497 270.73 703.383)" fill="white"/>
<path d="M238.193 749.637L226.453 756.977C228.207 762.437 232.8 775.694 241.799 773.968C250.799 772.242 252.823 762.523 251.407 752.192L238.193 749.637Z" fill="#EC6E5D"/>
<path d="M259.019 740.193C256.535 748.212 246.207 758.153 238.699 747.794" stroke="#454545" stroke-width="5" stroke-linecap="round"/>
<path d="M216.31 748.549C221.583 755.081 234.857 760.495 237.999 748.094" stroke="#454545" stroke-width="5" stroke-linecap="round"/>
<ellipse cx="190.461" cy="752.853" rx="12.0793" ry="5.83136" transform="rotate(-10.8564 190.461 752.853)" fill="#FFA89D"/>
<ellipse rx="12.0793" ry="5.83136" transform="matrix(-0.982102 0.188347 0.188347 0.982102 287.82 734.182)" fill="#FFA89D"/>
<path d="M402.391 597.563C408.405 621.172 440.58 633.664 464.189 627.65C487.798 621.636 509.866 596.864 503.852 573.255C497.838 549.646 465.946 535.851 442.337 541.865C418.728 547.88 396.377 573.954 402.391 597.563Z" fill="#ED8D47"/>
<path d="M393.559 545.986C373.418 544.719 391.812 574.299 406.044 586.79L425.517 553.112C421.578 552.904 413.7 547.254 393.559 545.986Z" fill="#ED8D47"/>
<path d="M485.726 522.372C502.806 511.623 500.805 546.399 494.283 564.176L461.071 543.919C464.431 541.851 468.646 533.121 485.726 522.372Z" fill="#ED8D47"/>
<path d="M484.897 528.154C496 521.15 494.719 543.841 490.487 555.437L468.874 542.199C471.058 540.852 473.794 535.158 484.897 528.154Z" fill="#EC6E5D"/>
<path d="M396.093 550.775C382.993 549.937 394.973 569.249 404.237 577.408L416.883 555.443C414.321 555.305 409.194 551.614 396.093 550.775Z" fill="#EC6E5D"/>
<path d="M406.208 612.277C414.637 626.739 440.259 636.822 464.267 630.706C488.275 624.591 505.015 608.946 506.723 586.673C509.546 571.19 476.65 578.954 452.642 585.07C428.634 591.186 398.559 599.154 406.208 612.277Z" fill="#FFF6C5"/>
<ellipse rx="29.5081" ry="29.5081" transform="matrix(-0.969053 0.246851 0.246851 0.969053 456.765 601.859)" fill="#FFF6C5"/>
<path d="M451.742 588.375C447.107 589.556 442.111 586.272 444.554 582.159V582.159C446.048 579.644 448.479 577.826 451.313 577.104C454.148 576.382 457.153 576.815 459.668 578.309V578.309C463.78 580.752 460.965 586.026 456.329 587.206L454.036 587.791L451.742 588.375Z" fill="#454545"/>
<path d="M452.791 584.109L456.469 598.551" stroke="#454545" stroke-width="5" stroke-linecap="round"/>
<path d="M468.666 557.805C463.911 558.327 459.423 554.378 462.416 550.646V550.646C464.246 548.365 466.908 546.904 469.815 546.585C472.723 546.266 475.638 547.115 477.919 548.945V548.945C481.651 551.938 478.126 556.767 473.371 557.289L471.019 557.547L468.666 557.805Z" fill="#FFF6C5"/>
<ellipse rx="7.60058" ry="10.2831" transform="matrix(-0.969053 0.246851 0.246851 0.969053 475.525 567.707)" fill="#454545"/>
<ellipse rx="3.8748" ry="5.36512" transform="matrix(-0.996066 0.088609 0.0886089 0.996066 473.236 566.183)" fill="white"/>
<path d="M424.38 569.107C428.805 567.29 430.857 561.675 426.443 559.83V559.83C423.744 558.703 420.708 558.693 418.002 559.804C415.297 560.915 413.143 563.055 412.015 565.753V565.753C410.171 570.167 415.576 572.721 420.001 570.905L422.191 570.006L424.38 569.107Z" fill="#FFF6C5"/>
<ellipse cx="423.094" cy="581.083" rx="7.60057" ry="10.2831" transform="rotate(-14.2912 423.094 581.083)" fill="#454545"/>
<ellipse cx="421.832" cy="578.048" rx="3.8748" ry="5.36511" transform="rotate(0.628988 421.832 578.048)" fill="white"/>
<path d="M456.973 598.115L466.81 599.3C467.334 603.371 468.391 613.354 462.036 614.973C455.682 616.591 451.416 610.912 449.191 603.789L456.973 598.115Z" fill="#EC6E5D"/>
<path d="M440.612 598.331C444.659 602.77 454.372 606.069 456.085 597.076" stroke="#454545" stroke-width="5" stroke-linecap="round"/>
<path d="M470.818 590.756C469.388 596.591 462.436 604.134 456.63 597.057" stroke="#454545" stroke-width="5" stroke-linecap="round"/>
<ellipse rx="8.6438" ry="4.17287" transform="matrix(-0.969053 0.246851 0.246851 0.969053 488.871 585.684)" fill="#FFA89D"/>
<ellipse cx="420.128" cy="603.195" rx="8.6438" ry="4.17287" transform="rotate(-14.2912 420.128 603.195)" fill="#FFA89D"/>
</g>
<defs>
<clipPath id="clip0_13_51">
<rect width="1024" height="1024" fill="white"/>
</clipPath>
</defs>
</svg>
