<?xml version="1.0" encoding="utf-8"?>
<!-- Generator: Adobe Illustrator 24.1.0, SVG Export Plug-In . SVG Version: 6.00 Build 0)  -->
<svg version="1.1" id="Ebene_1" xmlns="http://www.w3.org/2000/svg" xmlns:xlink="http://www.w3.org/1999/xlink" x="0px" y="0px"
	 width="300px" height="100px" viewBox="0 0 300 100" style="enable-background:new 0 0 300 100;" xml:space="preserve">
<style type="text/css">
	.st0{fill:#3d3939;}
</style>
<g id="_x39_tpYhn.tif">
	<g>
		<path class="st0" d="M181.2,54.4c-0.9,0-1.7,0-2.6,0c-11.4,0-22.8,0-34.3,0c-8,0-16-0.1-24-0.2c-1.6,0-3.3-0.4-4.6-1.4
			c-1.8-1.4-3.1-3.2-3.5-5.5c-0.4-2.2,0.2-4.2,1.3-6.1c1.3-2.1,2.5-4.3,3.7-6.4c1.3-2.3,2.7-4.6,4-6.9c1.4-2.4,2.6-4.7,4-7.1
			c1.9-3.4,3.9-6.7,5.9-10.1c1.1-1.9,2.7-3.3,4.9-4c1.5-0.5,3-0.4,4.4-0.2c1.1,0.2,2.1,0.8,3.1,1.5c1.8,1.3,2.6,3.2,3.6,4.9
			c0.5,0.9,1,1.7,1.5,2.6c1.8,3.1,3.5,6.2,5.3,9.2c3.6,6.1,7.2,12.3,10.8,18.4c1.4,2.3,2.8,4.7,4.8,6.6c1,1,2.2,1.9,3.5,2.5
			c2.4,1.3,4.9,2.1,7.7,1.9c0.1,0,0.3,0,0.4,0C181.2,54.3,181.2,54.3,181.2,54.4z"/>
		<path class="st0" d="M181.5,53.7c-3.6,0-6.4-1-9-2.7c-2.1-1.3-3.8-3.1-5-5.2c-3.4-5.6-6.8-11.2-10.1-16.8
			c-1.9-3.2-3.7-6.4-5.6-9.5c-0.3-0.6-0.3-1,0-1.5c1.1-1.9,2.1-3.8,3.1-5.7c0.7-1.4,1.5-2.7,2.5-3.9c0.8-0.9,1.7-1.4,2.7-1.9
			c1.7-0.8,3.5-0.9,5.3-0.5c2.1,0.4,3.8,1.6,5,3.4c1,1.6,1.9,3.2,2.8,4.8c0.4,0.6,0.7,1.2,1.1,1.8c0.9,1.6,1.7,3.1,2.7,4.7
			c0.7,1.3,1.6,2.5,2.3,3.8c1.1,2,2.2,4,3.4,5.9c0.7,1.2,1.4,2.3,2.1,3.4c1.2,2.2,2.4,4.4,3.7,6.5c0.7,1.2,1.3,2.4,1.5,3.7
			c0.1,0.8,0,1.6-0.1,2.4c-0.1,0.8-0.3,1.5-0.7,2.2c-0.9,1.9-2.2,3.4-4.3,4.3C183.6,53.6,182.4,53.8,181.5,53.7z"/>
		<path class="st0" d="M126.9,80c-0.2,0.2-0.5,0.5-0.7,0.7c-1.8,2.5-3.6,5.1-5.4,7.7c-0.7,1-1.4,1.9-2.2,2.8
			c-0.6,0.7-1.2,0.6-1.7-0.2c-0.9-1.3-1.8-2.6-2.7-3.9c-0.9-1.2-1.8-2.4-2.7-3.7c-0.8-1.2-1.7-2.3-2.5-3.5c-0.1-0.1-0.2-0.2-0.3-0.3
			c-0.1,0.1-0.2,0.3-0.3,0.4c0,0.1,0,0.3,0,0.5c0,4.2,0,8.4,0,12.6c0,0.7-0.2,0.8-0.8,0.8c-1.2,0-2.4,0-3.6,0
			c-0.5,0-0.7-0.2-0.7-0.7c0-6.7,0-13.4,0-20.1c0-0.6,0.2-0.8,0.8-0.7c1.1,0,2.2,0.1,3.2,0c1.2-0.2,1.9,0.5,2.5,1.3
			c1.6,2.3,3.2,4.5,4.8,6.7c0.9,1.3,1.9,2.7,2.8,4.1c0.5,0.7,0.6,0.7,1.1,0c1.3-2,2.7-3.9,4.1-5.8c1.3-1.8,2.5-3.6,3.8-5.5
			c0.4-0.5,0.8-0.8,1.4-0.8c1.2,0,2.4,0,3.6,0c0.8,0,0.9,0.1,0.9,1c0,0.6,0,1.1,0,1.7c0,6,0,12,0,18c0,0.7-0.2,0.9-0.8,0.9
			c-1.2-0.1-2.4,0-3.6,0c-0.6,0-0.8-0.2-0.8-0.9c0-3.9,0-7.9,0-11.8c0-0.4,0-0.8,0-1.2C127,80.1,126.9,80.1,126.9,80z"/>
		<path class="st0" d="M141.1,93.8c1-1,1.8-1.9,2.7-2.8c1.2-1.2,2.3-2.4,3.5-3.7c1.3-1.3,2.5-2.6,3.7-3.9c0.3-0.3,0.4-0.7,0-1.1
			c-2.6-2.7-5.3-5.4-7.9-8.1c-0.4-0.5-0.8-1-1.2-1.5c0-0.1,0.1-0.1,0.1-0.2c0.6,0,1.2,0,1.8,0c1.2,0,2.4,0.1,3.6,0
			c0.7,0,1.1,0.4,1.5,0.8c1.5,1.6,3,3.3,4.5,5c0.3,0.3,0.6,0.6,0.9,1c0.3,0.3,0.6,0.4,1,0c0.9-1,1.9-2.1,2.9-3.1
			c1.1-1.1,2.1-2.3,3.2-3.4c0.1-0.1,0.4-0.3,0.6-0.3c1.8,0,3.6,0,5.4,0c0.1,0,0.3,0.1,0.6,0.1c-3.2,3.5-6.4,6.7-9.7,10.2
			c3.5,3.6,6.9,7.3,10.5,11c-0.3,0.1-0.5,0.1-0.6,0.1c-1.8,0-3.5,0-5.3,0c-0.3,0-0.6-0.2-0.8-0.4c-2.2-2.2-4.3-4.5-6.5-6.7
			c-0.6-0.6-1-0.6-1.5,0c-2.1,2.3-4.1,4.6-6.2,6.8c-0.1,0.1-0.3,0.3-0.5,0.3c-1.9,0-3.7,0-5.6,0C141.5,94,141.4,93.9,141.1,93.8z"/>
		<path class="st0" d="M198.3,72.5c0,1.3,0,2.5,0,3.7c0,0.5-0.4,0.6-0.8,0.6c-5.2,0-10.5,0-15.7,0c-1.2,0-1.2,0-1.2,1.2
			c0,3.6,0,7.3,0,10.9c0,0.7,0.2,1,0.9,1c5.3,0,10.6,0.1,15.9,0.1c0.9,0,0.9,0,1,1c0,0.8,0,1.6,0,2.3c0,0.5-0.1,0.7-0.7,0.7
			c-6.2,0-12.5,0-18.7,0c-1.2,0-2.7-1.1-3-2.2c-0.2-0.7-0.4-1.5-0.4-2.2c0-4.4,0-8.8,0-13.3c0-1.4,1-2.9,2.4-3.4
			c0.7-0.3,1.4-0.4,2.2-0.4c5.7,0,11.3,0,17,0C197.4,72.5,197.7,72.5,198.3,72.5z"/>
	</g>
</g>
</svg>
