<svg width="140" height="140" viewBox="0 0 140 140" fill="none" xmlns="http://www.w3.org/2000/svg">
<path d="M84.043 56.5589L70.5 4L56.957 56.5589L4 70.0001L56.957 83.4411L70.5 136L84.043 83.4411L137 70.0001L84.043 56.5589Z" fill="#FAEAEA"/>
<path d="M99.5 64V48M99.5 48L105 53M99.5 48L94 53" stroke="#B61936" stroke-width="3" stroke-linecap="round" stroke-linejoin="round"/>
<path d="M40.5 78L40.5 94M40.5 94L35 89M40.5 94L46 89" stroke="#B61936" stroke-width="3" stroke-linecap="round" stroke-linejoin="round"/>
<path d="M83.5 55V39M83.5 39L89 44M83.5 39L78 44" stroke="#B61936" stroke-width="3" stroke-linecap="round" stroke-linejoin="round"/>
<path d="M56.5 87L56.5 103M56.5 103L51 98M56.5 103L62 98" stroke="#B61936" stroke-width="3" stroke-linecap="round" stroke-linejoin="round"/>
<path d="M34 63H45.5L58 39.5H68M42 51H62" stroke="#B61936" stroke-width="3" stroke-linecap="round" stroke-linejoin="round"/>
<circle cx="51" cy="51" r="21" stroke="#B61936" stroke-width="3"/>
<circle cx="89" cy="89" r="21" stroke="#B61936" stroke-width="3"/>
<path d="M89 76L89 81" stroke="#B61936" stroke-width="3" stroke-linecap="round" stroke-linejoin="round"/>
<path d="M89 97L89 102" stroke="#B61936" stroke-width="3" stroke-linecap="round" stroke-linejoin="round"/>
<path d="M83 97H91.9167C92.9996 97 94.0382 96.5786 94.804 95.8284C95.5698 95.0783 96 94.0609 96 93C96 91.9391 95.5698 90.9217 94.804 90.1716C94.0382 89.4214 92.9996 89 91.9167 89H86.0833C85.0004 89 83.9618 88.5786 83.196 87.8284C82.4302 87.0783 82 86.0609 82 85C82 83.9391 82.4302 82.9217 83.196 82.1716C83.9618 81.4214 85.0004 81 86.0833 81C86.0833 81 90.9083 81 94 81" stroke="#B61936" stroke-width="3" stroke-linecap="round" stroke-linejoin="round"/>
</svg>
