<svg width="1706" height="1305" viewBox="0 0 1706 1305" fill="none" xmlns="http://www.w3.org/2000/svg">
<g opacity="0.65">
<path opacity="0.2" d="M1168.52 735.433L1171.7 741.827L1174.44 747.342L1180.57 748.229L1187.69 749.258L1182.54 754.232L1178.1 758.524L1179.14 764.589L1180.36 771.621L1174 768.305L1168.51 765.44L1163.02 768.305L1156.66 771.621L1157.88 764.589L1158.92 758.524L1154.48 754.232L1149.33 749.258L1156.45 748.229L1162.58 747.342L1165.32 741.827L1168.5 735.433M1168.5 709L1154.75 736.648L1124 741.082L1146.25 762.603L1141 793L1168.5 778.653L1196 793L1190.75 762.603L1213 741.082L1182.25 736.648L1168.5 709Z" fill="white"/>
<path opacity="0.5" d="M1268.73 591.547L1320 584L1268.73 576.467L1309.13 544.003L1261.85 563.148L1281.01 515.874L1248.53 556.269L1241 505L1233.45 556.269L1200.99 515.874L1220.15 563.148L1172.87 543.988L1213.27 576.467L1162 584L1213.27 591.547L1172.87 623.997L1220.15 604.852L1200.99 652.126L1233.45 611.731L1241 663L1248.53 611.731L1281 652.126L1261.85 604.852L1309.13 624.012L1268.73 591.547Z" stroke="#FBC2C2" stroke-width="4" stroke-linejoin="round"/>
<path d="M1073.28 582.72L1069 566L1064.72 582.72L1048 586.996L1064.72 591.28L1069 608L1073.28 591.28L1090 586.996L1073.28 582.72Z" fill="white"/>
<path d="M1073.28 641.715L1069 625L1064.72 641.715L1048 646L1064.72 650.276L1069 667L1073.28 650.276L1090 646L1073.28 641.715Z" fill="white"/>
<path d="M1048.28 610.72L1044 594L1039.72 610.72L1023 614.996L1039.72 619.28L1044 636L1048.28 619.28L1065 614.996L1048.28 610.72Z" fill="white"/>
<path d="M1098.48 610.72L1094 594L1089.52 610.72L1072 614.996L1089.52 619.28L1094 636L1098.48 619.28L1116 614.996L1098.48 610.72Z" fill="white"/>
<path d="M1027 751C1023.96 761.638 1015.64 769.957 1005 773C1015.64 776.043 1023.96 784.362 1027 795C1030.04 784.362 1038.36 776.043 1049 773C1038.36 769.957 1030.04 761.638 1027 751Z" fill="#C23B58"/>
<path opacity="0.5" d="M1534.5 212C1531.39 222.88 1522.88 231.388 1512 234.5C1522.88 237.612 1531.39 246.12 1534.5 257C1537.61 246.12 1546.12 237.612 1557 234.5C1546.12 231.388 1537.61 222.88 1534.5 212Z" stroke="#FBC2C2" stroke-width="4" stroke-linejoin="round"/>
<path d="M1240.75 413.011L1267 405.5L1240.75 397.998L1249.17 382.843L1234.01 391.261L1226.5 365L1219 391.261L1203.84 382.843L1212.25 397.998L1186 405.5L1212.25 413.011L1203.84 428.166L1219 419.748L1226.5 446L1234.01 419.748L1249.17 428.166L1240.75 413.011Z" fill="#CD4566"/>
<path opacity="0.4" d="M789.93 885.527L811 879.5L789.93 873.48L796.69 861.318L784.527 868.074L778.5 847L772.48 868.074L760.318 861.318L767.067 873.48L746 879.5L767.067 885.527L760.318 897.689L772.48 890.933L778.5 912L784.527 890.933L796.69 897.689L789.93 885.527Z" fill="white"/>
<path d="M1110.88 862.118L1106.5 845L1102.12 862.118L1085 866.495L1102.12 870.882L1106.5 888L1110.88 870.882L1128 866.495L1110.88 862.118Z" fill="#FEFEFE"/>
<path d="M1559.68 571.72L1555.5 555L1551.32 571.72L1535 575.996L1551.32 580.28L1555.5 597L1559.68 580.28L1576 575.996L1559.68 571.72Z" fill="white"/>
<path opacity="0.2" d="M899.28 788.516L895 771L890.72 788.516L874 792.995L890.72 797.484L895 815L899.28 797.484L916 792.995L899.28 788.516Z" fill="white"/>
<path d="M1314 273C1310.82 284.365 1302.12 293.25 1291 296.5C1302.12 299.75 1310.82 308.635 1314 320C1317.18 308.635 1325.88 299.75 1337 296.5C1325.88 293.25 1317.18 284.365 1314 273Z" fill="#FEFEFE"/>
<path d="M1336.5 257C1334.77 263.292 1330.04 268.208 1324 270C1330.05 271.802 1334.78 276.717 1336.5 283C1338.23 276.708 1342.96 271.792 1349 270C1342.95 268.198 1338.22 263.283 1336.5 257Z" fill="#FEFEFE"/>
<path d="M1336.5 310C1334.77 316.05 1330.04 320.776 1324 322.5C1330.05 324.232 1334.78 328.959 1336.5 335C1338.23 328.95 1342.96 324.224 1349 322.5C1342.95 320.768 1338.22 316.041 1336.5 310Z" fill="#FEFEFE"/>
<path opacity="0.3" d="M988.91 889.701L1010 886.5L988.91 883.306L1005.53 869.539L986.08 877.658L993.96 857.611L980.6 874.741L977.5 853L974.4 874.741L961.04 857.611L968.92 877.658L949.47 869.533L966.09 883.306L945 886.5L966.09 889.701L949.47 903.461L968.92 895.342L961.04 915.389L974.4 898.259L977.5 920L980.6 898.259L993.95 915.389L986.08 895.342L1005.53 903.467L988.91 889.701Z" stroke="white" stroke-width="4" stroke-linejoin="round"/>
<path d="M1559.5 965C1556.39 975.881 1547.88 984.389 1537 987.5C1547.88 990.611 1556.39 999.119 1559.5 1010C1562.61 999.119 1571.12 990.611 1582 987.5C1571.12 984.389 1562.61 975.881 1559.5 965Z" stroke="#FBC2C2" stroke-width="4" stroke-linejoin="round"/>
<path d="M1580 950C1578.34 955.808 1573.8 960.345 1568 962C1573.81 963.663 1578.35 968.2 1580 974C1581.66 968.192 1586.2 963.655 1592 962C1586.19 960.337 1581.65 955.8 1580 950Z" stroke="#FBC2C2" stroke-width="4" stroke-linejoin="round"/>
<path d="M1580 1001C1578.34 1007.05 1573.8 1011.78 1568 1013.5C1573.81 1015.23 1578.35 1019.96 1580 1026C1581.66 1019.95 1586.2 1015.22 1592 1013.5C1586.19 1011.77 1581.65 1007.04 1580 1001Z" stroke="#FBC2C2" stroke-width="4" stroke-linejoin="round"/>
<path d="M1443.58 1124C1443.58 1124 1307 1095.44 1307 985.532C1307 875.623 1377.13 816.283 1329.16 772.323C1329.16 772.323 1379 759.125 1386.37 866.831C1386.37 866.831 1447.29 765.714 1362.37 642.627C1277.47 519.54 1310.69 442.616 1349.45 389.843C1388.21 337.092 1428.82 297.539 1414.05 225C1414.05 225 1452.82 266.756 1443.58 308.513C1434.35 350.269 1343.92 455.793 1421.42 506.342C1421.42 506.342 1506.22 535.191 1471.27 431.6C1471.27 431.6 1545.08 462.382 1565.4 526.108C1585.69 589.854 1606 693.154 1469.42 855.815C1332.84 1018.48 1443.58 1123.98 1443.58 1123.98V1124Z" fill="url(#paint0_linear_265_351)"/>
<path d="M1493 930C1493 930 1497.58 877.27 1565.19 801.913C1632.8 726.556 1608.22 637 1608.22 637C1608.22 637 1663 748.979 1618.71 812.182C1574.43 875.408 1535.02 852.053 1493 930Z" fill="url(#paint1_linear_265_351)"/>
<path d="M1349.56 1015C1349.56 1015 1254 995.209 1254 919.043C1254 842.877 1303.07 801.754 1269.5 771.291C1269.5 771.291 1304.37 762.144 1309.53 836.784C1309.53 836.784 1352.15 766.71 1292.74 681.412C1233.34 596.114 1256.58 542.806 1283.7 506.235C1310.82 469.679 1339.23 442.269 1328.9 392C1328.9 392 1356.02 420.937 1349.56 449.874C1343.1 478.811 1279.83 551.938 1334.06 586.967C1334.06 586.967 1393.38 606.96 1368.93 535.172C1368.93 535.172 1420.57 556.504 1434.78 600.665C1448.98 644.841 1463.19 716.427 1367.64 829.15C1272.08 941.873 1349.56 1014.99 1349.56 1014.99V1015Z" stroke="white" stroke-width="4" stroke-linecap="round" stroke-linejoin="round"/>
<path d="M1383 881C1383 881 1386.21 844.467 1433.48 792.257C1480.76 740.047 1463.57 678 1463.57 678C1463.57 678 1501.88 755.583 1470.91 799.372C1439.94 843.177 1412.38 826.996 1383 881Z" stroke="white" stroke-width="4" stroke-linejoin="round"/>
<path d="M1541.72 360.693L1565 328L1532.76 351.589L1529 328L1525.23 351.589L1493 328L1516.27 360.693L1493 364.5L1516.27 368.307L1493 401L1525.23 377.411L1529 401L1532.76 377.411L1565 401L1541.72 368.307L1565 364.5L1541.72 360.693Z" stroke="#FEFEFE" stroke-width="4" stroke-linejoin="round"/>
</g>
<defs>
<linearGradient id="paint0_linear_265_351" x1="1443.5" y1="225" x2="1443.5" y2="1124" gradientUnits="userSpaceOnUse">
<stop stop-color="#FBC2C2"/>
<stop offset="1" stop-color="#FBC2C2" stop-opacity="0"/>
</linearGradient>
<linearGradient id="paint1_linear_265_351" x1="1564.5" y1="637" x2="1564.5" y2="930" gradientUnits="userSpaceOnUse">
<stop stop-color="#FBC2C2"/>
<stop offset="1" stop-color="#FBC2C2" stop-opacity="0"/>
</linearGradient>
</defs>
</svg>
