<svg width="1920" height="1305" viewBox="0 0 1920 1305" fill="none" xmlns="http://www.w3.org/2000/svg">
<g opacity="0.65">
<path opacity="0.2" d="M1382.52 735.433L1385.7 741.827L1388.44 747.342L1394.57 748.229L1401.69 749.258L1396.54 754.232L1392.1 758.524L1393.14 764.589L1394.36 771.621L1388 768.305L1382.51 765.44L1377.02 768.305L1370.66 771.621L1371.88 764.589L1372.92 758.524L1368.48 754.232L1363.33 749.258L1370.45 748.229L1376.58 747.342L1379.32 741.827L1382.5 735.433M1382.5 709L1368.75 736.648L1338 741.082L1360.25 762.603L1355 793L1382.5 778.653L1410 793L1404.75 762.603L1427 741.082L1396.25 736.648L1382.5 709Z" fill="white"/>
<path opacity="0.5" d="M1482.73 591.547L1534 584L1482.73 576.467L1523.13 544.003L1475.85 563.148L1495.01 515.874L1462.53 556.269L1455 505L1447.45 556.269L1414.99 515.874L1434.15 563.148L1386.87 543.988L1427.27 576.467L1376 584L1427.27 591.547L1386.87 623.997L1434.15 604.852L1414.99 652.126L1447.45 611.731L1455 663L1462.53 611.731L1495 652.126L1475.85 604.852L1523.13 624.012L1482.73 591.547Z" stroke="#FBC2C2" stroke-width="4" stroke-linejoin="round"/>
<path d="M1287.28 582.72L1283 566L1278.72 582.72L1262 586.996L1278.72 591.28L1283 608L1287.28 591.28L1304 586.996L1287.28 582.72Z" fill="white"/>
<path d="M1287.28 641.715L1283 625L1278.72 641.715L1262 646L1278.72 650.276L1283 667L1287.28 650.276L1304 646L1287.28 641.715Z" fill="white"/>
<path d="M1262.28 610.72L1258 594L1253.72 610.72L1237 614.996L1253.72 619.28L1258 636L1262.28 619.28L1279 614.996L1262.28 610.72Z" fill="white"/>
<path d="M1312.48 610.72L1308 594L1303.52 610.72L1286 614.996L1303.52 619.28L1308 636L1312.48 619.28L1330 614.996L1312.48 610.72Z" fill="white"/>
<path d="M1241 751C1237.96 761.638 1229.64 769.957 1219 773C1229.64 776.043 1237.96 784.362 1241 795C1244.04 784.362 1252.36 776.043 1263 773C1252.36 769.957 1244.04 761.638 1241 751Z" fill="#F94242"/>
<path opacity="0.5" d="M1748.5 212C1745.39 222.88 1736.88 231.388 1726 234.5C1736.88 237.612 1745.39 246.12 1748.5 257C1751.61 246.12 1760.12 237.612 1771 234.5C1760.12 231.388 1751.61 222.88 1748.5 212Z" stroke="#FBC2C2" stroke-width="4" stroke-linejoin="round"/>
<path d="M1454.75 413.011L1481 405.5L1454.75 397.998L1463.17 382.843L1448.01 391.261L1440.5 365L1433 391.261L1417.84 382.843L1426.25 397.998L1400 405.5L1426.25 413.011L1417.84 428.166L1433 419.748L1440.5 446L1448.01 419.748L1463.17 428.166L1454.75 413.011Z" fill="#F56768"/>
<path opacity="0.4" d="M1003.93 885.527L1025 879.5L1003.93 873.48L1010.69 861.318L998.527 868.074L992.5 847L986.48 868.074L974.318 861.318L981.067 873.48L960 879.5L981.067 885.527L974.318 897.689L986.48 890.933L992.5 912L998.527 890.933L1010.69 897.689L1003.93 885.527Z" fill="white"/>
<path d="M1324.88 862.118L1320.5 845L1316.12 862.118L1299 866.495L1316.12 870.882L1320.5 888L1324.88 870.882L1342 866.495L1324.88 862.118Z" fill="#FEFEFE"/>
<path d="M1773.68 571.72L1769.5 555L1765.32 571.72L1749 575.996L1765.32 580.28L1769.5 597L1773.68 580.28L1790 575.996L1773.68 571.72Z" fill="white"/>
<path opacity="0.2" d="M1113.28 788.516L1109 771L1104.72 788.516L1088 792.995L1104.72 797.484L1109 815L1113.28 797.484L1130 792.995L1113.28 788.516Z" fill="white"/>
<path d="M1528 273C1524.82 284.365 1516.12 293.25 1505 296.5C1516.12 299.75 1524.82 308.635 1528 320C1531.18 308.635 1539.88 299.75 1551 296.5C1539.88 293.25 1531.18 284.365 1528 273Z" fill="#FEFEFE"/>
<path d="M1550.5 257C1548.77 263.292 1544.04 268.208 1538 270C1544.05 271.802 1548.78 276.717 1550.5 283C1552.23 276.708 1556.96 271.792 1563 270C1556.95 268.198 1552.22 263.283 1550.5 257Z" fill="#FEFEFE"/>
<path d="M1550.5 310C1548.77 316.05 1544.04 320.776 1538 322.5C1544.05 324.232 1548.78 328.959 1550.5 335C1552.23 328.95 1556.96 324.224 1563 322.5C1556.95 320.768 1552.22 316.041 1550.5 310Z" fill="#FEFEFE"/>
<path opacity="0.3" d="M1202.91 889.701L1224 886.5L1202.91 883.306L1219.53 869.539L1200.08 877.658L1207.96 857.611L1194.6 874.741L1191.5 853L1188.4 874.741L1175.04 857.611L1182.92 877.658L1163.47 869.533L1180.09 883.306L1159 886.5L1180.09 889.701L1163.47 903.461L1182.92 895.342L1175.04 915.389L1188.4 898.259L1191.5 920L1194.6 898.259L1207.95 915.389L1200.08 895.342L1219.53 903.467L1202.91 889.701Z" stroke="white" stroke-width="4" stroke-linejoin="round"/>
<path d="M1773.5 965C1770.39 975.881 1761.88 984.389 1751 987.5C1761.88 990.611 1770.39 999.119 1773.5 1010C1776.61 999.119 1785.12 990.611 1796 987.5C1785.12 984.389 1776.61 975.881 1773.5 965Z" stroke="#FBC2C2" stroke-width="4" stroke-linejoin="round"/>
<path d="M1794 950C1792.34 955.808 1787.8 960.345 1782 962C1787.81 963.663 1792.35 968.2 1794 974C1795.66 968.192 1800.2 963.655 1806 962C1800.19 960.337 1795.65 955.8 1794 950Z" stroke="#FBC2C2" stroke-width="4" stroke-linejoin="round"/>
<path d="M1794 1001C1792.34 1007.05 1787.8 1011.78 1782 1013.5C1787.81 1015.23 1792.35 1019.96 1794 1026C1795.66 1019.95 1800.2 1015.22 1806 1013.5C1800.19 1011.77 1795.65 1007.04 1794 1001Z" stroke="#FBC2C2" stroke-width="4" stroke-linejoin="round"/>
<path d="M1657.58 1124C1657.58 1124 1521 1095.44 1521 985.532C1521 875.623 1591.13 816.283 1543.16 772.323C1543.16 772.323 1593 759.125 1600.37 866.831C1600.37 866.831 1661.29 765.714 1576.37 642.627C1491.47 519.54 1524.69 442.616 1563.45 389.843C1602.21 337.092 1642.82 297.539 1628.05 225C1628.05 225 1666.82 266.756 1657.58 308.513C1648.35 350.269 1557.92 455.793 1635.42 506.342C1635.42 506.342 1720.22 535.191 1685.27 431.6C1685.27 431.6 1759.08 462.382 1779.4 526.108C1799.69 589.854 1820 693.154 1683.42 855.815C1546.84 1018.48 1657.58 1123.98 1657.58 1123.98V1124Z" fill="url(#paint0_linear_186_303)"/>
<path d="M1707 930C1707 930 1711.58 877.27 1779.19 801.913C1846.8 726.556 1822.22 637 1822.22 637C1822.22 637 1877 748.979 1832.71 812.182C1788.43 875.408 1749.02 852.053 1707 930Z" fill="url(#paint1_linear_186_303)"/>
<path d="M1563.56 1015C1563.56 1015 1468 995.209 1468 919.043C1468 842.877 1517.07 801.754 1483.5 771.291C1483.5 771.291 1518.37 762.144 1523.53 836.784C1523.53 836.784 1566.15 766.71 1506.74 681.412C1447.34 596.114 1470.58 542.806 1497.7 506.235C1524.82 469.679 1553.23 442.269 1542.9 392C1542.9 392 1570.02 420.937 1563.56 449.874C1557.1 478.811 1493.83 551.938 1548.06 586.967C1548.06 586.967 1607.38 606.96 1582.93 535.172C1582.93 535.172 1634.57 556.504 1648.78 600.665C1662.98 644.841 1677.19 716.427 1581.64 829.15C1486.08 941.873 1563.56 1014.99 1563.56 1014.99V1015Z" stroke="white" stroke-width="4" stroke-linecap="round" stroke-linejoin="round"/>
<path d="M1597 881C1597 881 1600.21 844.467 1647.48 792.257C1694.76 740.047 1677.57 678 1677.57 678C1677.57 678 1715.88 755.583 1684.91 799.372C1653.94 843.177 1626.38 826.996 1597 881Z" stroke="white" stroke-width="4" stroke-linejoin="round"/>
<path d="M1755.72 360.693L1779 328L1746.76 351.589L1743 328L1739.23 351.589L1707 328L1730.27 360.693L1707 364.5L1730.27 368.307L1707 401L1739.23 377.411L1743 401L1746.76 377.411L1779 401L1755.72 368.307L1779 364.5L1755.72 360.693Z" stroke="#FEFEFE" stroke-width="4" stroke-linejoin="round"/>
</g>
<defs>
<linearGradient id="paint0_linear_186_303" x1="1657.5" y1="225" x2="1657.5" y2="1124" gradientUnits="userSpaceOnUse">
<stop stop-color="#FBC2C2"/>
<stop offset="1" stop-color="#FBC2C2" stop-opacity="0"/>
</linearGradient>
<linearGradient id="paint1_linear_186_303" x1="1778.5" y1="637" x2="1778.5" y2="930" gradientUnits="userSpaceOnUse">
<stop stop-color="#FBC2C2"/>
<stop offset="1" stop-color="#FBC2C2" stop-opacity="0"/>
</linearGradient>
</defs>
</svg>
