<svg width="140" height="140" viewBox="0 0 140 140" fill="none" xmlns="http://www.w3.org/2000/svg">
<path opacity="0.5" d="M93.8878 81.8344L137 69.5L93.8878 57.1797L107.717 32.2931L82.8317 46.1185L70.4977 3L58.1778 46.1185L33.2921 32.2931L47.1028 57.1797L4 69.5L47.1028 81.8344L33.2921 106.721L58.1778 92.8957L70.4977 136L82.8317 92.8957L107.717 106.721L93.8878 81.8344Z" fill="#F3D5D5"/>
<path d="M102 81H79C74.5817 81 71 77.4183 71 73C71 68.5817 74.5817 65 79 65C79 65 100.895 65 102 65M102 81C103.105 81 104 80.1046 104 79V67C104 65.8954 103.105 65 102 65M102 81V92C102 95.3137 99.3137 98 96 98H38C36.8954 98 36 97.1046 36 96V77.5M102 65V54C102 50.6863 99.3137 48 96 48H75.5M46.5 48H38C36.8954 48 36 48.8954 36 50V72" stroke="#B61936" stroke-width="3"/>
<circle cx="79" cy="73" r="2" fill="#B61936"/>
<circle cx="61.0602" cy="41.0602" r="16.0602" stroke="#B61936" stroke-width="3"/>
<path d="M48.0625 50.2375H56.8574L66.417 32.2654H74.0647M54.1807 41.0602H69.4761" stroke="#B61936" stroke-width="3" stroke-linecap="round" stroke-linejoin="round"/>
<path d="M28.5 62C26.7746 68.2888 22.0449 73.2135 16 75C22.0449 76.7985 26.7746 81.7233 28.5 88C30.2253 81.7112 34.9551 76.7864 41 75C34.9551 73.2015 30.2253 68.2767 28.5 62Z" stroke="#B61936" stroke-width="3" stroke-linejoin="round"/>
</svg>
