<?xml version="1.0" encoding="utf-8"?>
<!-- Generator: Adobe Illustrator 24.3.0, SVG Export Plug-In . SVG Version: 6.00 Build 0)  -->
<svg version="1.1" id="Ebene_1" xmlns="http://www.w3.org/2000/svg" xmlns:xlink="http://www.w3.org/1999/xlink" x="0px" y="0px"
	 viewBox="0 0 900 900" style="enable-background:new 0 0 900 900;" xml:space="preserve">
<style type="text/css">
	.st0{fill:#FFFFFF;}
	.st1{fill:#9B1C2E;}
</style>
<g>
	<circle class="st0" cx="450" cy="450" r="294.8"/>
	<path class="st1" d="M450,48.7C228.4,48.7,48.7,228.4,48.7,450S228.4,851.3,450,851.3S851.3,671.6,851.3,450S671.7,48.7,450,48.7z
		 M206.5,450.2c0-134.6,109.2-243.6,243.6-243.6c69.7,0,132.5,29.2,176.9,76.2H512.4c-5.6,0-10.8,3.1-13.4,8.1l-68,128.9h-87.6
		c-8.3,0-15.2,6.7-15.2,15.2v30.5c0,8.3,6.7,15.2,15.2,15.2h55.4l-35.8,68c-2.5,5-7.8,8.1-13.4,8.1v0.2H231.1
		C215.3,524.6,206.5,488.3,206.5,450.2z M449.8,693.5c-69.7,0-132.5-29.2-176.9-76.2h114.6c5.6,0,10.8-3.1,13.4-8.1l68-128.9h87.6
		c8.3,0,15.2-6.7,15.2-15.2v-30.5c0-8.3-6.7-15.2-15.2-15.2h-55.4l35.8-68c2.5-5,7.8-8.1,13.4-8.1v-0.2h118.4
		c15.8,32.2,24.6,68.5,24.6,106.6C693.5,584.5,584.3,693.5,449.8,693.5z"/>
	<g>
		<path class="st0" d="M383.9,766.2c0.5-2.9,1.4-5.4,2.6-7.7c1.4-2.2,3-4.2,5-5.6c2-1.4,4.3-2.5,6.9-3.1c2.6-0.6,5.4-0.7,8.4-0.2
			l15,2.2l-5.9,39.3l-15-2.2c-3-0.5-5.6-1.4-7.9-2.7c-2.3-1.4-4.2-3-5.7-5c-1.4-2-2.5-4.2-3.1-6.9
			C383.6,771.8,383.5,769.1,383.9,766.2z M391.4,767.4c-0.3,2.1-0.3,4.2,0,5.9c0.3,1.8,1,3.4,1.8,4.7s2,2.4,3.5,3.3
			c1.4,0.9,3.1,1.4,5,1.7l7.6,1.2l4.2-27.7l-7.6-1.2c-1.9-0.3-3.7-0.2-5.3,0.2s-3.1,1.2-4.3,2.1c-1.3,1.1-2.3,2.3-3.1,4
			C392.3,763.3,391.7,765.2,391.4,767.4z"/>
		<path class="st0" d="M339.9,753.8c0.8-2.8,2-5.2,3.7-7.3c1.6-2.1,3.6-3.8,5.7-5c2.2-1.3,4.6-2,7.2-2.3c2.7-0.3,5.4,0,8.3,0.9
			c2.9,0.9,5.4,2.1,7.4,3.8c2.1,1.6,3.8,3.7,4.9,5.9c1.2,2.2,1.9,4.7,2.1,7.3c0.2,2.7-0.1,5.4-0.9,8.2c-0.8,2.8-2,5.2-3.7,7.3
			c-1.6,2.1-3.6,3.8-5.8,5c-2.2,1.3-4.6,2-7.3,2.3c-2.7,0.3-5.4,0-8.3-0.9c-1.9-0.6-3.7-1.4-5.3-2.3c-1.5-1-3-2-4.2-3.3
			c-1.2-1.3-2.2-2.6-3-4.2c-0.8-1.5-1.4-3.1-1.7-4.7c-0.4-1.6-0.5-3.4-0.4-5.2C339,757.4,339.3,755.6,339.9,753.8z M347.1,755.9
			c-0.6,2.1-0.9,4.1-0.8,5.9c0.1,1.8,0.5,3.5,1.2,4.9c0.7,1.4,1.7,2.7,3,3.8c1.4,1.1,2.9,1.8,4.7,2.4c1.8,0.6,3.7,0.8,5.3,0.6
			s3.2-0.7,4.5-1.5s2.6-2,3.7-3.6c1.1-1.5,1.8-3.3,2.5-5.4c0.6-2.1,0.9-4.1,0.8-5.9c-0.1-1.8-0.5-3.5-1.2-4.9s-1.7-2.7-3-3.8
			c-1.4-1.1-2.9-1.8-4.7-2.4c-1.8-0.6-3.7-0.8-5.3-0.6s-3.2,0.7-4.5,1.5c-1.4,0.9-2.6,2-3.7,3.5C348.6,752,347.7,753.8,347.1,755.9z
			"/>
		<path class="st0" d="M293.6,755l16.4-36.2l3.5,1.5c0.6,0.3,1,0.6,1.3,0.9c0.3,0.4,0.5,0.8,0.7,1.4l8,32.7c0.4-1.2,0.8-2.2,1.3-3.1
			l10-22.2l5.9,2.7l-16.4,36.2l-3.6-1.6c-0.3-0.1-0.5-0.3-0.7-0.4s-0.4-0.3-0.5-0.4c-0.1-0.2-0.2-0.3-0.3-0.6
			c-0.1-0.2-0.2-0.5-0.3-0.8l-8-32.8c-0.2,0.6-0.4,1.2-0.7,1.7c-0.2,0.6-0.5,1.2-0.7,1.6l-9.9,21.9L293.6,755z"/>
		<path class="st0" d="M274.4,697.1l4.8,3c0.6,0.4,0.9,0.8,1.1,1.3c0.2,0.5,0.2,1,0.1,1.4l-1.7,8.5l14,8.7l6.8-5.3
			c0.4-0.3,0.8-0.5,1.4-0.6c0.6-0.1,1.1,0.1,1.6,0.4l4.9,3.1L273.1,743l-6.4-4L274.4,697.1z M277.6,716.8l-2.9,13.8
			c-0.1,0.6-0.3,1.4-0.5,2.1c-0.2,0.8-0.5,1.7-0.7,2.6c0.7-0.7,1.4-1.3,2-1.8c0.7-0.6,1.3-1.1,1.7-1.4l11-8.7L277.6,716.8z"/>
		<path class="st0" d="M232.7,706.8l9.5,7.3l20.6-26.6l5.9,4.5l-20.6,26.6l9.5,7.3l-3.7,4.8l-24.8-19.2L232.7,706.8z"/>
		<path class="st0" d="M244.7,672l5.5,5l-26.7,29.4l-5.5-5L244.7,672z"/>
		<path class="st0" d="M198.4,652.1c2.1-1.9,4.4-3.4,6.9-4.3c2.5-1,5-1.4,7.5-1.3c2.5,0.1,5,0.7,7.4,1.8c2.4,1.2,4.6,2.8,6.7,5.1
			c2,2.2,3.5,4.6,4.3,7.1c0.9,2.5,1.3,5,1.2,7.5c-0.2,2.5-0.9,5-2,7.3c-1.2,2.4-2.9,4.5-5,6.5c-2.1,1.9-4.4,3.4-6.9,4.3
			c-2.5,1-5,1.4-7.5,1.3c-2.5-0.1-5-0.7-7.4-1.8c-2.4-1.2-4.6-2.8-6.7-5c-1.4-1.4-2.4-3.1-3.3-4.7s-1.4-3.3-1.8-4.9s-0.5-3.4-0.4-5
			c0.1-1.7,0.5-3.4,1-4.9c0.6-1.6,1.4-3.2,2.3-4.6C195.8,654.8,196.9,653.5,198.4,652.1z M203.5,657.7c-1.6,1.4-2.9,3-3.8,4.6
			s-1.4,3.2-1.5,4.8c-0.2,1.6,0,3.2,0.6,4.8c0.6,1.5,1.4,3.1,2.8,4.5c1.3,1.4,2.7,2.5,4.2,3.3c1.5,0.7,3.1,1.1,4.7,1.1
			c1.6,0,3.3-0.4,4.9-1.1c1.6-0.8,3.3-1.8,4.9-3.3c1.6-1.4,2.9-3,3.8-4.6s1.4-3.2,1.5-4.8c0.2-1.6,0-3.2-0.6-4.8
			c-0.6-1.5-1.5-3.1-2.8-4.5c-1.3-1.4-2.7-2.5-4.2-3.2c-1.5-0.7-3.1-1.1-4.7-1.1c-1.6,0-3.3,0.4-4.9,1.1
			C206.8,655.2,205,656.3,203.5,657.7z"/>
		<path class="st0" d="M158.4,629.1l32.8-22.3l2.1,3.1c0.3,0.5,0.5,1,0.6,1.4c0.1,0.4,0,1-0.2,1.4l-10.2,32c1-0.8,1.8-1.4,2.7-2
			l20.2-13.7l3.7,5.4l-32.8,22.3l-2.2-3.2c-0.2-0.3-0.3-0.5-0.4-0.7c-0.1-0.2-0.2-0.4-0.2-0.6s0-0.4,0-0.6c0-0.2,0.1-0.5,0.2-0.8
			l10.3-32.1c-0.5,0.4-1,0.8-1.4,1.2s-1,0.7-1.4,1.1l-20,13.6L158.4,629.1z"/>
		<path class="st0" d="M149,596.2c0.5,0,0.8,0.1,1.1,0.2c0.3,0.1,0.5,0.4,0.7,0.7c0.2,0.4,0.3,0.8,0.2,1.4c0,0.5-0.1,1.2-0.1,1.8
			c0,0.7,0,1.5,0.2,2.4c0.1,0.9,0.5,1.8,1,2.8c0.5,0.9,1,1.6,1.5,2.2c0.6,0.6,1.2,1,1.8,1.3c0.7,0.3,1.3,0.4,1.9,0.3
			c0.7-0.1,1.4-0.3,1.9-0.6c0.9-0.4,1.4-1.1,1.7-1.7c0.3-0.8,0.5-1.6,0.5-2.6c0-1-0.1-2-0.3-3.2s-0.4-2.3-0.6-3.5
			c-0.2-1.2-0.3-2.4-0.4-3.7c0-1.3,0.1-2.4,0.4-3.5c0.3-1.2,0.9-2.2,1.6-3.2c0.8-1,1.9-1.8,3.4-2.6c1.5-0.9,3.2-1.4,4.9-1.5
			c1.6-0.2,3.3,0,4.9,0.5c1.5,0.5,3.1,1.4,4.4,2.6c1.4,1.2,2.6,2.8,3.6,4.7c0.6,1.2,1.1,2.3,1.4,3.5c0.4,1.2,0.6,2.4,0.7,3.6
			c0.1,1.3,0.1,2.4,0,3.6c-0.1,1.2-0.3,2.3-0.7,3.3l-4.2-0.3c-0.3,0-0.6-0.2-0.9-0.3c-0.3-0.2-0.5-0.4-0.7-0.7
			c-0.2-0.4-0.3-1-0.2-1.5c0.1-0.7,0.2-1.4,0.2-2.2c0.1-0.9,0-1.8-0.1-2.9s-0.5-2.2-1.2-3.4c-1-1.8-2.1-3.1-3.6-3.7
			c-1.4-0.6-3-0.4-4.6,0.5c-1,0.5-1.5,1.1-1.9,1.8c-0.4,0.8-0.5,1.6-0.5,2.6c0,1,0.1,2,0.4,3.1c0.2,1.2,0.5,2.2,0.7,3.5
			c0.2,1.2,0.3,2.4,0.4,3.6c0.1,1.3-0.1,2.4-0.4,3.6c-0.3,1.2-1,2.2-1.7,3.3c-0.9,1.1-2.1,1.9-3.7,2.8c-1.3,0.7-2.7,1.1-4.2,1.2
			c-1.4,0.1-3-0.1-4.4-0.6c-1.4-0.5-2.8-1.3-4.2-2.4c-1.4-1.2-2.4-2.6-3.4-4.4c-1.1-2.1-1.7-4.2-2-6.3s-0.1-4.1,0.4-5.9L149,596.2z"
			/>
		<path class="st0" d="M158.7,531.6l1.8,5.4c0.2,0.6,0.2,1.2,0.1,1.6c-0.2,0.5-0.5,0.9-0.9,1.3l-6.7,5.5l5.4,15.5l8.6,0.1
			c0.5,0,0.9,0.1,1.4,0.4s0.8,0.7,1,1.4l1.9,5.4l-42.7-1.7l-2.5-7.1L158.7,531.6z M148.8,548.8l-10.9,8.9c-0.5,0.4-1.1,0.9-1.7,1.4
			c-0.7,0.5-1.4,1.1-2.2,1.5c1-0.1,1.8-0.1,2.7-0.2c0.9,0,1.6,0,2.2,0l14,0.2L148.8,548.8z"/>
		<path class="st0" d="M143.4,505.1c-0.1-0.4,0-0.8,0.2-1.2l2.4-3.6c2.3,1.2,4.2,2.7,5.8,4.8c1.5,2,2.7,4.7,3.4,7.9
			c0.7,2.9,0.8,5.6,0.3,8.1c-0.5,2.5-1.4,4.8-2.8,6.8c-1.4,2-3.2,3.8-5.4,5.1c-2.2,1.4-4.8,2.4-7.7,3.1c-2.9,0.7-5.7,0.8-8.3,0.4
			c-2.6-0.4-5-1.3-7.1-2.5c-2.1-1.3-4-3-5.4-5.1c-1.4-2.1-2.6-4.6-3.2-7.4c-0.7-2.8-0.7-5.4-0.3-7.8c0.5-2.4,1.3-4.5,2.4-6.4
			l3.9,1.6c0.3,0.1,0.5,0.2,0.7,0.4c0.2,0.2,0.4,0.5,0.5,0.9c0.1,0.3,0,0.6,0,0.9c-0.1,0.3-0.2,0.7-0.4,1.1
			c-0.2,0.4-0.3,0.9-0.5,1.4s-0.3,1.1-0.4,1.7c-0.1,0.7-0.1,1.4-0.1,2.2c0,0.8,0.1,1.7,0.4,2.7c0.4,1.7,1.1,3.3,2,4.5
			s2.1,2.3,3.5,3.1c1.4,0.8,3,1.3,4.8,1.4c1.8,0.2,3.8,0.1,6-0.4s4.1-1.3,5.6-2.2c1.5-1,2.8-2.1,3.8-3.5c1-1.4,1.5-2.8,1.8-4.3
			s0.3-3.2-0.1-4.8c-0.2-1-0.5-1.8-0.8-2.6c-0.3-0.8-0.6-1.4-1-2.1c-0.4-0.6-0.9-1.2-1.4-1.7c-0.5-0.5-1.1-1-1.7-1.4
			c-0.2-0.1-0.4-0.3-0.5-0.5C143.6,505.5,143.5,505.3,143.4,505.1z"/>
		<path class="st0" d="M139.2,469.9c0-0.4,0.1-0.8,0.4-1.2l2.8-3.2c2.1,1.4,3.9,3.2,5.2,5.4s2.1,5,2.5,8.3c0.3,2.9,0.1,5.6-0.7,8.1
			c-0.8,2.4-1.9,4.6-3.6,6.5c-1.6,1.8-3.6,3.4-6,4.4c-2.4,1.2-5,1.8-8,2.2c-3,0.3-5.7,0.1-8.3-0.6c-2.6-0.7-4.8-1.8-6.8-3.4
			c-1.9-1.5-3.6-3.5-4.8-5.7c-1.3-2.3-2-4.8-2.3-7.7c-0.3-2.9-0.1-5.5,0.6-7.8c0.7-2.3,1.7-4.3,3.1-6.1l3.7,2.1
			c0.2,0.1,0.5,0.3,0.7,0.5s0.3,0.5,0.4,0.9c0,0.3,0,0.6-0.1,0.9c-0.1,0.3-0.3,0.7-0.5,1.1c-0.2,0.4-0.4,0.8-0.6,1.3
			c-0.2,0.5-0.4,1.1-0.6,1.6c-0.2,0.6-0.3,1.4-0.4,2.1c-0.1,0.8-0.1,1.7,0.1,2.8c0.2,1.7,0.7,3.4,1.4,4.7c0.8,1.4,1.8,2.6,3.1,3.5
			c1.4,1,2.9,1.6,4.6,2c1.7,0.4,3.8,0.5,6,0.3c2.2-0.2,4.2-0.8,5.8-1.5c1.6-0.8,3-1.8,4.2-3c1.1-1.2,1.8-2.6,2.3-4.1
			c0.5-1.5,0.6-3.1,0.5-4.8c-0.1-1-0.3-1.9-0.5-2.7c-0.2-0.8-0.5-1.5-0.8-2.2c-0.3-0.7-0.7-1.3-1.2-1.8s-1-1.2-1.5-1.6
			c-0.2-0.2-0.3-0.4-0.5-0.6C139.3,470.3,139.2,470.1,139.2,469.9z"/>
		<path class="st0" d="M114.4,453.3l11,0.1l0.1-13.9h5.7l-0.1,13.9l11.2,0.1l0.1-17.7h5.9l-0.1,25.1l-39.7-0.3l0.1-25.1h5.9
			L114.4,453.3z"/>
		<path class="st0" d="M110.7,413c0.3-2.6,0.9-4.9,1.7-6.8s1.8-3.4,3.1-4.5c1.3-1.2,2.7-1.9,4.3-2.3s3.4-0.6,5.2-0.4
			c1.9,0.2,3.7,0.8,5.1,1.5c1.5,0.8,2.8,1.9,3.8,3.3c1,1.4,1.7,3.1,2.1,5.1c0.4,2,0.5,4.2,0.2,6.9l-0.6,5.5l13.9,1.5l-0.8,7.3
			l-39.5-4.4L110.7,413z M130.5,415.3c0.2-1.4,0.1-2.5-0.1-3.6c-0.2-1.1-0.6-1.9-1.2-2.7s-1.3-1.4-2.1-1.7c-0.9-0.4-1.8-0.7-3-0.9
			c-1.1-0.1-2-0.1-2.9,0.2c-0.9,0.2-1.6,0.7-2.3,1.3c-0.7,0.6-1.3,1.4-1.6,2.3c-0.4,1-0.7,2.1-0.9,3.5l-0.6,5.5l14.2,1.5
			L130.5,415.3z"/>
		<path class="st0" d="M126,363.1l-2.6,11.7l32.8,7.3l-1.6,7.2l-32.8-7.3l-2.6,11.7l-5.8-1.4l6.8-30.6L126,363.1z"/>
		<path class="st0" d="M130.4,348.7l10.4,3.5l4.3-13.2l5.4,1.8l-4.3,13.2l10.6,3.6l5.6-16.7l5.6,1.8l-7.9,23.7l-37.7-12.5l7.9-23.7
			l5.6,1.8L130.4,348.7z"/>
		<path class="st0" d="M167,297.1c2.6,1.3,4.8,2.8,6.7,4.7s3.1,4.1,4,6.4c0.9,2.3,1.2,4.8,1.1,7.5c-0.2,2.6-0.9,5.3-2.2,8.1
			l-6.5,13.7l-36-16.9l6.5-13.7c1.3-2.7,2.9-5,4.8-6.9s4.1-3.2,6.4-4.1c2.3-0.9,4.8-1.2,7.4-1.1C161.7,295.2,164.3,295.9,167,297.1z
			 M163.7,304c-1.9-1-3.9-1.4-5.7-1.7c-1.8-0.2-3.5-0.1-5,0.4c-1.5,0.5-2.9,1.3-4.2,2.4c-1.3,1.2-2.2,2.6-3.1,4.3l-3.3,6.9
			l25.3,11.9l3.3-6.9c0.9-1.7,1.3-3.5,1.4-5.1c0.1-1.6-0.2-3.3-0.9-4.7c-0.6-1.4-1.6-2.9-2.9-4.2C167.4,306,165.8,304.8,163.7,304z"
			/>
		<path class="st0" d="M207.4,238.9c2.3,1.7,4.2,3.8,5.4,6.1c1.4,2.2,2.1,4.6,2.5,7c0.3,2.5,0.1,5-0.7,7.5c-0.8,2.5-2,5-3.9,7.4
			l-9.3,12l-31.4-24.3l9.3-12c1.8-2.4,4-4.2,6.2-5.6c2.3-1.4,4.6-2.2,7.1-2.5c2.4-0.3,4.9-0.1,7.4,0.6
			C202.7,235.9,205,237.2,207.4,238.9z M202.7,245c-1.7-1.4-3.5-2.3-5.2-2.9c-1.7-0.6-3.4-0.9-5-0.7c-1.6,0.1-3.2,0.6-4.6,1.4
			s-2.8,2-4,3.6l-4.7,6.1l22.1,17.2l4.7-6.1c1.2-1.5,2-3.1,2.4-4.7c0.5-1.6,0.5-3.2,0.3-4.8c-0.3-1.6-1-3.2-1.9-4.6
			C205.8,247.7,204.5,246.3,202.7,245z"/>
		<path class="st0" d="M239.9,206.6c2,2.1,3.6,4.3,4.6,6.8c1.1,2.4,1.5,4.9,1.5,7.4s-0.5,5-1.5,7.4c-1.1,2.4-2.7,4.7-4.8,6.9
			c-2.1,2.1-4.4,3.7-6.9,4.6c-2.5,1-5,1.4-7.5,1.4c-2.5-0.1-5-0.7-7.4-1.7s-4.6-2.7-6.7-4.8c-2-2.1-3.6-4.3-4.6-6.9
			c-1.1-2.4-1.5-4.9-1.5-7.5c0-2.5,0.6-5,1.6-7.4c1.1-2.4,2.7-4.7,4.8-6.9c1.4-1.4,3-2.6,4.5-3.5c1.6-0.9,3.2-1.5,4.9-2
			c1.6-0.4,3.4-0.6,5-0.6c1.7,0.1,3.4,0.3,5,0.9c1.6,0.5,3.2,1.3,4.7,2.2C237.1,204.1,238.5,205.2,239.9,206.6z M234.5,211.9
			c-1.5-1.5-3.1-2.8-4.7-3.6c-1.6-0.9-3.3-1.3-4.8-1.4c-1.6-0.1-3.2,0.1-4.7,0.8c-1.5,0.6-3,1.6-4.4,3c-1.4,1.4-2.4,2.8-3.1,4.3
			c-0.7,1.5-1,3.1-0.9,4.7s0.5,3.3,1.3,4.9s1.9,3.3,3.5,4.8c1.5,1.5,3.1,2.8,4.7,3.6c1.6,0.9,3.3,1.3,4.8,1.4
			c1.6,0.1,3.2-0.2,4.7-0.8c1.5-0.6,3-1.6,4.4-3c1.4-1.4,2.4-2.8,3.1-4.3c0.7-1.5,1-3.1,0.9-4.7c-0.1-1.6-0.5-3.3-1.3-4.9
			C237.2,215.1,236,213.4,234.5,211.9z"/>
		<path class="st0" d="M261.4,165.8l23.5,32l-3.1,2.2c-0.5,0.4-1,0.6-1.4,0.7c-0.4,0.1-1,0-1.4-0.1l-32.4-9.1
			c0.8,0.9,1.5,1.7,2.1,2.6l14.5,19.7l-5.2,3.9l-23.5-32l3.1-2.3c0.3-0.2,0.5-0.3,0.7-0.5c0.2-0.1,0.4-0.2,0.6-0.2
			c0.2,0,0.4,0,0.6,0s0.5,0.1,0.8,0.2l32.5,9.2c-0.4-0.5-0.9-1-1.3-1.4c-0.4-0.5-0.8-1-1.1-1.4l-14.2-19.6L261.4,165.8z"/>
		<path class="st0" d="M321.2,177.3l-5,2.8c-0.6,0.3-1.1,0.4-1.6,0.3c-0.5-0.1-1-0.3-1.4-0.6l-6.5-5.7l-14.4,7.9l1.4,8.5
			c0.1,0.5,0,0.9-0.2,1.4c-0.2,0.5-0.6,0.9-1.2,1.3l-5,2.8l-5.5-42.4l6.6-3.7L321.2,177.3z M302.6,170.6l-10.6-9.3
			c-0.5-0.4-1.1-0.9-1.6-1.4c-0.6-0.6-1.3-1.3-1.9-1.9c0.3,1,0.5,1.8,0.6,2.7c0.2,0.9,0.3,1.5,0.4,2.2l2.1,13.8L302.6,170.6z"/>
		<path class="st0" d="M333.1,136.1l-11,4.7l13.2,31l-6.8,2.9l-13.2-31l-11,4.7l-2.4-5.6l28.9-12.3L333.1,136.1z"/>
		<path class="st0" d="M357.7,163.6l-7,2.3L338,128.3l7-2.3L357.7,163.6z"/>
		<path class="st0" d="M397.7,132.9c0.7,2.8,0.8,5.6,0.4,8.2s-1.3,5-2.5,7.2c-1.4,2.1-3.1,4.1-5.2,5.6c-2.2,1.5-4.7,2.7-7.7,3.4
			c-2.9,0.7-5.7,0.8-8.3,0.4c-2.6-0.5-5-1.4-7.1-2.7c-2.1-1.4-4-3.2-5.4-5.3c-1.5-2.2-2.6-4.7-3.3-7.5c-0.7-2.8-0.8-5.6-0.4-8.2
			c0.4-2.6,1.3-5,2.5-7.2c1.4-2.1,3.1-4.1,5.2-5.6c2.2-1.5,4.7-2.7,7.6-3.4c1.9-0.5,3.9-0.7,5.7-0.6c1.8,0.1,3.6,0.3,5.2,0.9
			c1.6,0.5,3.2,1.2,4.6,2.1c1.4,1,2.7,2,3.9,3.3c1.2,1.3,2.1,2.7,2.9,4.3C396.6,129.3,397.2,131,397.7,132.9z M390.3,134.6
			c-0.5-2.1-1.3-4-2.2-5.5c-1-1.5-2.1-2.8-3.5-3.8c-1.4-1-2.8-1.5-4.4-1.8c-1.6-0.3-3.4-0.2-5.3,0.2c-1.9,0.5-3.5,1.2-4.9,2.1
			c-1.4,1-2.4,2.1-3.2,3.6c-0.8,1.4-1.3,3.1-1.4,4.8c-0.2,1.8,0,3.8,0.5,5.9c0.5,2.1,1.3,4,2.2,5.5s2.1,2.8,3.5,3.8
			c1.4,1,2.8,1.5,4.4,1.8s3.4,0.2,5.3-0.2c1.9-0.5,3.5-1.2,4.9-2.1c1.4-1,2.4-2.1,3.2-3.6c0.8-1.4,1.3-3,1.4-4.8
			S390.7,136.7,390.3,134.6z"/>
		<path class="st0" d="M437.3,109.2l3.5,39.6l-3.8,0.3c-0.6,0.1-1.1,0-1.4-0.2c-0.4-0.2-0.8-0.5-1.3-0.9l-23-24.6
			c0.2,1.2,0.4,2.3,0.5,3.3l2.1,24.3l-6.5,0.6L404,112l3.9-0.3c0.3,0,0.6,0,0.8,0s0.5,0,0.6,0.1c0.2,0.1,0.4,0.2,0.6,0.3
			c0.2,0.1,0.4,0.3,0.6,0.6l23.1,24.7c-0.1-0.7-0.2-1.3-0.3-1.8c-0.1-0.6-0.2-1.2-0.2-1.7l-2.1-24L437.3,109.2z"/>
		<path class="st0" d="M470.6,117c-0.2,0.4-0.5,0.7-0.8,0.8c-0.3,0.2-0.6,0.3-1,0.2c-0.4,0-0.8-0.2-1.3-0.5c-0.5-0.3-1-0.7-1.5-1
			c-0.6-0.4-1.4-0.7-2.1-1.1c-0.9-0.3-1.8-0.5-2.9-0.5s-1.9,0.1-2.7,0.3c-0.8,0.2-1.4,0.6-1.9,1c-0.6,0.4-1,1-1.3,1.5
			c-0.3,0.6-0.4,1.3-0.5,2c0,1,0.2,1.7,0.7,2.3c0.5,0.7,1.2,1.2,2,1.6s1.8,0.9,2.9,1.3c1.1,0.4,2.2,0.8,3.4,1.3
			c1.2,0.4,2.2,1,3.4,1.4c1.1,0.6,2,1.3,2.9,2c0.9,0.9,1.5,1.8,2,3c0.5,1.2,0.7,2.6,0.7,4.2c-0.1,1.8-0.4,3.5-1.1,5
			c-0.7,1.5-1.6,2.9-2.8,4.1c-1.3,1.2-2.7,2-4.4,2.6c-1.7,0.6-3.7,0.9-5.9,0.9c-1.3,0-2.5-0.2-3.8-0.5s-2.4-0.7-3.5-1.2
			c-1.2-0.5-2.1-1.1-3.1-1.7c-1-0.7-1.8-1.4-2.6-2.2l2.3-3.5c0.2-0.3,0.5-0.5,0.8-0.6c0.3-0.1,0.6-0.3,1-0.2c0.5,0,1,0.2,1.4,0.6
			c0.5,0.4,1.2,0.9,1.8,1.4c0.7,0.5,1.5,1,2.5,1.4s2.1,0.7,3.5,0.7c2.1,0.1,3.8-0.4,4.9-1.4s1.8-2.4,1.8-4.2c0-1.1-0.2-1.9-0.7-2.6
			c-0.5-0.7-1.2-1.3-2-1.7s-1.8-0.9-2.9-1.3c-1.1-0.4-2.2-0.7-3.3-1.2c-1.2-0.4-2.2-0.9-3.3-1.4c-1.1-0.6-2-1.3-2.9-2.1
			c-0.9-0.9-1.4-1.9-2-3.2c-0.5-1.3-0.7-2.8-0.7-4.6c0-1.4,0.4-2.8,1-4.2c0.6-1.4,1.4-2.5,2.6-3.6c1.2-1.1,2.5-1.8,4.2-2.4
			c1.6-0.6,3.5-0.9,5.6-0.8c2.3,0.1,4.5,0.5,6.5,1.3c1.9,0.8,3.6,1.8,4.9,3.2L470.6,117z"/>
		<path class="st0" d="M522.2,157.2l-5.6-1c-0.7-0.1-1.2-0.4-1.4-0.8c-0.4-0.4-0.6-0.9-0.7-1.4l-1.4-8.5l-16.2-2.9l-4.3,7.4
			c-0.2,0.4-0.6,0.7-1.1,1c-0.5,0.3-1.1,0.4-1.6,0.2l-5.7-1.1l22.4-36.3l7.4,1.4L522.2,157.2z M512,140.2l-2.4-13.9
			c-0.1-0.6-0.3-1.4-0.4-2.2c-0.1-0.9-0.2-1.7-0.3-2.7c-0.4,0.9-0.8,1.7-1.2,2.4c-0.4,0.8-0.8,1.4-1.1,1.9l-7,12.1L512,140.2z"/>
		<path class="st0" d="M552.7,156.8c0.4,0.1,0.7,0.4,0.9,0.8l1.9,3.9c-2.1,1.4-4.4,2.4-6.9,2.7c-2.5,0.4-5.4,0.1-8.6-0.9
			c-2.8-0.9-5.2-2-7.2-3.7c-1.9-1.6-3.5-3.6-4.6-5.7c-1.1-2.2-1.7-4.6-1.8-7.2c-0.2-2.6,0.2-5.4,1.1-8.2c0.9-2.9,2-5.3,3.7-7.4
			c1.6-2.1,3.5-3.8,5.7-5c2.1-1.3,4.5-2,7.1-2.3c2.6-0.3,5.3,0,8.1,0.8c2.8,0.8,5.1,2,6.9,3.6c1.9,1.5,3.4,3.3,4.4,5.2l-3.4,2.6
			c-0.2,0.2-0.5,0.3-0.7,0.4c-0.3,0.1-0.6,0.1-1,0c-0.3-0.1-0.5-0.2-0.8-0.5c-0.2-0.2-0.5-0.5-0.8-0.9c-0.3-0.3-0.6-0.7-1-1.1
			c-0.4-0.4-0.8-0.8-1.4-1.2c-0.5-0.4-1.2-0.8-1.8-1.2c-0.7-0.4-1.5-0.7-2.6-1c-1.7-0.5-3.4-0.7-4.9-0.5c-1.6,0.2-3.1,0.7-4.4,1.5
			c-1.4,0.9-2.6,2-3.6,3.6c-1.1,1.4-1.9,3.3-2.5,5.4c-0.7,2.1-0.9,4.2-0.8,6c0.1,1.8,0.5,3.5,1.3,4.9c0.7,1.4,1.6,2.7,2.9,3.7
			c1.3,1.1,2.6,1.7,4.2,2.2c1,0.3,1.8,0.5,2.7,0.6c0.8,0.1,1.5,0.2,2.3,0.1c0.8,0,1.4-0.2,2.1-0.3c0.7-0.2,1.4-0.5,2.1-0.8
			c0.2-0.1,0.5-0.2,0.7-0.2C552.2,156.7,552.4,156.7,552.7,156.8z"/>
		<path class="st0" d="M585.5,170.4c0.4,0.2,0.7,0.5,0.8,0.9l1.4,4.1c-2.3,1.2-4.7,1.8-7.2,1.8c-2.6,0.1-5.4-0.6-8.4-1.8
			c-2.7-1.2-4.9-2.7-6.8-4.5c-1.7-1.8-3.1-4-3.9-6.3c-0.9-2.3-1.2-4.8-1-7.4c0.2-2.6,0.9-5.3,2-8c1.2-2.7,2.7-5.1,4.5-6.9
			c1.8-1.9,4-3.4,6.3-4.3s4.7-1.4,7.3-1.4c2.6,0,5.2,0.6,7.9,1.7c2.7,1.2,4.8,2.6,6.6,4.3c1.6,1.7,3,3.7,3.8,5.7l-3.7,2.2
			c-0.2,0.1-0.5,0.3-0.8,0.3c-0.3,0.1-0.6,0-1-0.2c-0.3-0.1-0.5-0.3-0.7-0.6c-0.2-0.3-0.4-0.6-0.7-0.9c-0.2-0.4-0.5-0.8-0.8-1.2
			c-0.3-0.4-0.7-0.9-1.2-1.4s-1.1-0.9-1.7-1.4s-1.4-0.9-2.4-1.3c-1.6-0.7-3.3-1.1-4.8-1.1c-1.6,0-3.1,0.4-4.5,1.1
			c-1.4,0.7-2.8,1.7-4,3.1c-1.3,1.4-2.2,3.1-3.2,5.1c-0.9,2-1.4,4-1.4,5.9c-0.1,1.8,0.1,3.6,0.6,5c0.5,1.5,1.4,2.9,2.4,4.1
			c1.1,1.2,2.4,2,4,2.7c1,0.4,1.7,0.7,2.6,1c0.8,0.2,1.5,0.4,2.3,0.4c0.8,0.1,1.4,0,2.1-0.1c0.7-0.1,1.4-0.3,2.2-0.6
			c0.2-0.1,0.5-0.1,0.7-0.1C585.1,170.3,585.3,170.3,585.5,170.4z"/>
		<path class="st0" d="M612.1,156.9l-5.4,9.6l12.1,6.9l-2.8,4.9l-12.1-6.9l-5.5,9.7l15.3,8.7l-2.9,5.1l-21.8-12.4l19.6-34.6
			l21.8,12.4l-2.9,5.1L612.1,156.9z"/>
		<path class="st0" d="M649.1,173.3c2.1,1.5,3.9,3.1,5,4.7c1.3,1.6,2,3.3,2.4,4.9c0.4,1.6,0.4,3.3,0,4.9c-0.4,1.6-1.2,3.2-2.2,4.7
			c-1.2,1.5-2.4,2.8-3.9,3.8c-1.4,1-3,1.4-4.7,1.6c-1.7,0.2-3.6,0-5.5-0.6s-4-1.6-6.1-3.2l-4.5-3.2l-8.1,11.4l-6-4.3l23.1-32.3
			L649.1,173.3z M637.5,189.5c1.1,0.8,2.1,1.4,3.2,1.6c1.1,0.3,2,0.4,2.9,0.3c0.9-0.1,1.7-0.5,2.6-1c0.8-0.6,1.5-1.3,2.1-2.2
			c0.6-0.9,1.1-1.7,1.3-2.6s0.3-1.7,0.1-2.6s-0.6-1.7-1.3-2.6c-0.7-0.9-1.5-1.6-2.6-2.5l-4.5-3.2l-8.3,11.6L637.5,189.5z"/>
		<path class="st0" d="M685.2,211l-9-8l-22.4,25.1l-5.5-4.9l22.4-25.1l-9-8l4.1-4.5l23.4,20.8L685.2,211z"/>
		<path class="st0" d="M695.6,222l-8.1,7.4l9.4,10.3l-4.2,3.9l-9.4-10.3l-8.3,7.5l11.9,13l-4.3,4l-16.9-18.5l29.4-26.7l16.9,18.5
			l-4.3,4L695.6,222z"/>
		<path class="st0" d="M722.7,279.1c-2.4,1.7-4.8,2.9-7.3,3.5c-2.5,0.6-5,0.8-7.5,0.3c-2.4-0.4-4.8-1.4-7-2.8
			c-2.2-1.4-4.2-3.4-6-5.9l-8.8-12.4l32.3-23.1l8.8,12.4c1.7,2.4,3,5,3.6,7.5c0.7,2.6,0.8,5.1,0.4,7.5c-0.4,2.4-1.4,4.7-2.7,6.9
			C727,275.5,725.1,277.4,722.7,279.1z M718.3,273c1.7-1.3,3.2-2.6,4.2-4.2c1.1-1.4,1.7-3,2.1-4.6c0.4-1.5,0.3-3.2-0.1-4.8
			c-0.4-1.6-1.2-3.3-2.2-4.8l-4.4-6.3l-22.8,16.2l4.4,6.3c1.2,1.5,2.4,2.8,3.9,3.7s2.9,1.4,4.5,1.6s3.3,0,5-0.5
			C714.7,275.1,716.5,274.3,718.3,273z"/>
		<path class="st0" d="M753.6,342.8c-2.7,1.2-5.3,1.7-7.9,1.8c-2.6,0.1-5.1-0.4-7.4-1.4c-2.3-1-4.3-2.3-6.3-4.2
			c-1.8-1.9-3.4-4.2-4.5-7l-5.9-13.9l36.6-15.5l5.9,13.9c1.2,2.8,1.8,5.5,1.8,8.2c0.1,2.7-0.4,5.1-1.3,7.4c-1,2.3-2.3,4.3-4.2,6.2
			C758.6,340.2,756.3,341.6,753.6,342.8z M750.7,335.7c2-0.9,3.7-1.8,5-3.1c1.4-1.3,2.4-2.5,3.1-4.1c0.7-1.5,1-3.1,1-4.7
			s-0.4-3.4-1.2-5.2l-3-7.1l-25.8,10.9l3,7.1c0.8,1.8,1.7,3.3,2.9,4.4c1.2,1.2,2.5,2,4.1,2.6c1.5,0.6,3.2,0.8,5,0.6
			C746.8,337.1,748.6,336.6,750.7,335.7z"/>
		<path class="st0" d="M766,386.9c-2.8,0.8-5.5,1-8.2,0.7c-2.6-0.3-5.1-1.1-7.2-2.2c-2.2-1.3-4.2-2.9-5.8-5
			c-1.6-2.1-2.8-4.6-3.6-7.5c-0.8-2.9-1-5.7-0.7-8.3c0.4-2.6,1.2-5,2.4-7.2c1.3-2.2,3-4.1,5.1-5.6s4.6-2.8,7.4-3.5
			c2.8-0.8,5.5-1,8.2-0.7c2.6,0.3,5.1,1.1,7.3,2.3c2.2,1.3,4.2,2.9,5.8,5s2.8,4.6,3.6,7.5c0.5,1.9,0.8,3.9,0.8,5.7s-0.2,3.6-0.7,5.2
			c-0.5,1.6-1.1,3.2-1.9,4.6c-0.9,1.4-1.9,2.8-3.2,4c-1.3,1.2-2.6,2.2-4.2,3.1C769.7,385.7,767.9,386.4,766,386.9z M764.1,379.6
			c2.1-0.6,4-1.4,5.4-2.4c1.5-1.1,2.7-2.2,3.6-3.6c0.9-1.4,1.4-2.9,1.6-4.5s0.1-3.5-0.4-5.3s-1.3-3.5-2.3-4.8
			c-1.1-1.4-2.2-2.3-3.7-3.1c-1.4-0.8-3.1-1.2-4.9-1.3c-1.8-0.1-3.8,0.1-5.9,0.7c-2.1,0.6-4,1.4-5.4,2.4c-1.5,1.1-2.7,2.2-3.6,3.6
			c-0.9,1.4-1.4,2.9-1.6,4.5s-0.1,3.5,0.4,5.3c0.5,1.8,1.3,3.5,2.3,4.8c1.1,1.4,2.2,2.3,3.7,3.1c1.4,0.8,3.1,1.2,4.9,1.3
			C760,380.4,761.9,380.2,764.1,379.6z"/>
		<path class="st0" d="M791.2,425.6l-39.4,4.9l-0.5-3.8c-0.1-0.6,0-1.1,0.1-1.4c0.1-0.4,0.4-0.9,0.9-1.3l23.7-23.8
			c-1.2,0.3-2.3,0.5-3.3,0.6l-24.2,3l-0.8-6.5l39.3-4.9l0.5,3.9c0,0.3,0.1,0.6,0.1,0.8s0,0.5-0.1,0.6c-0.1,0.2-0.2,0.4-0.3,0.6
			c-0.1,0.2-0.3,0.4-0.6,0.6l-23.8,23.9c0.7-0.1,1.3-0.3,1.8-0.4c0.6-0.1,1.2-0.2,1.7-0.3l23.9-3L791.2,425.6z"/>
		<path class="st0" d="M751.8,472.2v-5.7c0-0.7,0.2-1.2,0.5-1.5c0.3-0.4,0.7-0.7,1.2-0.9l8.1-2.9l0.1-16.4l-8.1-3
			c-0.4-0.2-0.8-0.5-1.2-0.9c-0.4-0.4-0.5-1-0.5-1.5v-5.8l39.6,15.9l-0.1,7.5L751.8,472.2z M767,459.3l13.2-4.7
			c0.6-0.2,1.3-0.5,2.1-0.8c0.8-0.3,1.6-0.5,2.6-0.8c-1-0.3-1.8-0.5-2.6-0.8c-0.8-0.3-1.5-0.5-2.1-0.8l-13.1-4.9L767,459.3z"/>
		<path class="st0" d="M781.9,502.7l1.4-11.9l-33.5-3.7l0.8-7.3l33.5,3.7l1.4-11.9l6.1,0.7l-3.5,31.1L781.9,502.7z"/>
		<path class="st0" d="M745.9,510.7l1.4-7.2l39,7.4l-1.4,7.2L745.9,510.7z"/>
		<path class="st0" d="M753.2,560.5c-2.8-0.8-5.2-2-7.3-3.7c-2.1-1.6-3.8-3.6-5-5.7c-1.3-2.2-2-4.6-2.3-7.2c-0.3-2.7,0-5.4,0.9-8.3
			c0.9-2.9,2.1-5.4,3.8-7.4c1.6-2.1,3.7-3.8,5.9-4.9c2.2-1.2,4.7-1.9,7.3-2.1c2.7-0.2,5.4,0.1,8.2,0.9c2.8,0.8,5.2,2,7.3,3.7
			c2.1,1.6,3.8,3.6,5,5.8c1.3,2.2,2,4.6,2.3,7.3c0.3,2.7,0,5.4-0.9,8.3c-0.6,1.9-1.4,3.7-2.3,5.2c-1,1.5-2,3-3.3,4.2
			c-1.3,1.2-2.6,2.2-4.2,3c-1.5,0.8-3.1,1.4-4.7,1.7s-3.4,0.5-5.2,0.4C756.8,561.4,755,561.1,753.2,560.5z M755.3,553.3
			c2.1,0.6,4.1,0.9,5.9,0.8c1.8-0.1,3.5-0.5,4.9-1.2c1.4-0.7,2.7-1.7,3.8-3c1.1-1.4,1.8-2.9,2.4-4.7s0.8-3.7,0.6-5.3
			s-0.7-3.2-1.5-4.5c-0.9-1.4-2-2.6-3.6-3.7c-1.5-1.1-3.3-1.8-5.4-2.5c-2.1-0.6-4.1-0.9-5.9-0.8c-1.8,0.1-3.5,0.5-4.9,1.2
			c-1.4,0.7-2.7,1.7-3.8,3c-1.1,1.4-1.8,2.9-2.4,4.7c-0.6,1.8-0.8,3.7-0.6,5.3c0.2,1.6,0.7,3.2,1.5,4.5c0.9,1.4,2,2.6,3.5,3.7
			C751.4,551.8,753.2,552.7,755.3,553.3z"/>
		<path class="st0" d="M754.5,606.7l-36.2-16.3l1.5-3.5c0.3-0.6,0.5-1,0.9-1.3c0.3-0.3,0.8-0.5,1.4-0.7l32.6-8
			c-1.2-0.4-2.2-0.8-3.1-1.3l-22.2-10l2.7-6l36.2,16.3l-1.5,3.6c-0.1,0.3-0.3,0.5-0.4,0.7c-0.1,0.2-0.3,0.4-0.4,0.5
			c-0.2,0.1-0.3,0.2-0.6,0.3c-0.2,0.1-0.5,0.2-0.8,0.3l-32.8,8.1c0.6,0.2,1.2,0.4,1.7,0.7c0.6,0.2,1.2,0.5,1.6,0.7l22,9.9
			L754.5,606.7z"/>
		<path class="st0" d="M731.4,631.9c-0.2-0.4-0.3-0.8-0.4-1.1c0-0.3,0.1-0.6,0.3-1c0.2-0.3,0.6-0.6,1-0.9c0.5-0.2,1.1-0.6,1.6-0.9
			c0.6-0.4,1.3-0.8,1.9-1.4c0.7-0.6,1.3-1.4,1.9-2.3c0.5-0.9,0.9-1.7,1.1-2.5c0.2-0.8,0.2-1.5,0.1-2.2c-0.1-0.7-0.4-1.3-0.8-1.8
			c-0.4-0.6-0.9-1-1.5-1.4c-0.8-0.5-1.6-0.7-2.4-0.5c-0.8,0.1-1.6,0.5-2.4,1c-0.8,0.5-1.6,1.2-2.5,1.9c-0.9,0.8-1.7,1.5-2.7,2.3
			c-1,0.8-1.9,1.5-2.9,2.2c-1,0.7-2.1,1.2-3.2,1.5c-1.2,0.3-2.3,0.4-3.6,0.3c-1.3-0.2-2.6-0.7-4.1-1.4c-1.5-1-2.8-2-3.9-3.4
			c-1.1-1.4-1.7-2.8-2.1-4.4c-0.4-1.6-0.5-3.3-0.1-5.1c0.3-1.8,1.1-3.7,2.1-5.5c0.7-1.1,1.4-2.1,2.2-3c0.9-1,1.7-1.7,2.7-2.5
			c1-0.8,2-1.4,3.1-1.8c1.1-0.5,2.1-0.9,3.2-1.2l1.9,3.7c0.1,0.3,0.2,0.6,0.2,1s-0.1,0.7-0.3,1c-0.2,0.4-0.7,0.7-1.3,1
			c-0.6,0.3-1.3,0.6-2,1c-0.8,0.4-1.5,0.9-2.4,1.5c-0.9,0.7-1.5,1.5-2.3,2.7c-1.1,1.8-1.4,3.5-1.3,4.9c0.3,1.5,1.2,2.7,2.8,3.7
			c0.9,0.6,1.7,0.8,2.6,0.7c0.9-0.1,1.6-0.4,2.5-1c0.9-0.5,1.6-1.2,2.5-1.9c0.9-0.8,1.7-1.5,2.6-2.3c0.9-0.8,1.8-1.5,2.9-2.2
			c1-0.7,2.1-1.2,3.2-1.4c1.2-0.3,2.4-0.4,3.8-0.2s2.8,0.8,4.3,1.6c1.3,0.8,2.3,1.7,3.2,2.9c0.9,1.2,1.4,2.5,1.8,4.1
			c0.4,1.4,0.4,3.1,0.1,4.8c-0.3,1.7-1,3.5-2,5.2c-1.2,2-2.6,3.7-4.2,5s-3.4,2.2-5.2,2.8L731.4,631.9z"/>
		<path class="st0" d="M671.2,657.3l3.7-4.4c0.4-0.5,0.9-0.8,1.4-0.9c0.5-0.1,1-0.1,1.5,0.1l8.1,2.9l10.4-12.7l-4.3-7.4
			c-0.2-0.4-0.4-0.9-0.4-1.4c0-0.6,0.2-1.1,0.6-1.5l3.7-4.4l20.8,37.3l-4.8,5.8L671.2,657.3z M691,656.8l13.3,4.6
			c0.6,0.2,1.3,0.5,2.1,0.8c0.9,0.3,1.6,0.7,2.5,1.1c-0.6-0.8-1.1-1.5-1.5-2.2c-0.5-0.7-0.9-1.4-1.2-1.9l-7.1-12.1L691,656.8z"/>
		<path class="st0" d="M656.5,684.2c-0.3,0.3-0.7,0.4-1.1,0.4l-4.2-0.3c-0.2-2.5,0.1-5,1.1-7.4c1-2.4,2.6-4.7,5-7
			c2.1-2,4.3-3.5,6.8-4.4c2.4-0.9,4.8-1.3,7.2-1.2c2.4,0.1,4.8,0.8,7.2,1.9c2.4,1.2,4.5,2.8,6.7,4.9c2,2.1,3.7,4.4,4.6,6.9
			c1.1,2.4,1.5,4.9,1.5,7.4c0,2.5-0.5,4.9-1.5,7.3c-1.1,2.4-2.6,4.6-4.7,6.6c-2.1,2-4.2,3.5-6.6,4.3c-2.3,0.9-4.5,1.3-6.8,1.3
			l-0.6-4.2c0-0.3,0-0.5,0-0.8c0.1-0.3,0.2-0.6,0.5-0.9c0.2-0.2,0.5-0.3,0.8-0.4s0.7-0.2,1.1-0.3c0.4-0.1,0.9-0.2,1.4-0.3
			c0.5-0.1,1.1-0.3,1.6-0.6c0.6-0.3,1.3-0.6,1.9-1.1c0.7-0.5,1.4-1.1,2.1-1.7c1.3-1.3,2.2-2.6,2.9-4.1c0.6-1.4,0.9-3,0.9-4.6
			c-0.1-1.6-0.5-3.2-1.3-4.9c-0.8-1.6-1.9-3.3-3.5-4.8c-1.5-1.6-3.2-2.8-4.8-3.7c-1.6-0.8-3.3-1.3-4.9-1.4c-1.6-0.1-3.2,0.1-4.6,0.7
			c-1.4,0.6-2.8,1.4-4.1,2.6c-0.8,0.7-1.4,1.4-1.8,2c-0.5,0.7-1,1.3-1.3,1.9c-0.3,0.7-0.6,1.4-0.8,2c-0.2,0.7-0.3,1.4-0.4,2.2
			c0,0.3-0.1,0.5-0.1,0.7C656.8,683.9,656.6,684.1,656.5,684.2z"/>
		<path class="st0" d="M628.7,706.2c-0.3,0.3-0.7,0.4-1.2,0.3l-4.2-0.8c0.1-2.6,0.7-5,1.9-7.2c1.3-2.3,3.2-4.4,5.8-6.4
			c2.3-1.8,4.7-3,7.2-3.7c2.5-0.7,4.9-0.8,7.3-0.3c2.4,0.4,4.7,1.4,6.9,2.8c2.2,1.4,4.2,3.4,6,5.7c1.8,2.4,3.1,4.8,3.9,7.3
			c0.8,2.5,1,5,0.7,7.5c-0.3,2.5-1.1,4.8-2.4,7c-1.3,2.2-3.1,4.2-5.4,6c-2.3,1.7-4.6,2.9-6.9,3.6c-2.3,0.6-4.6,0.8-6.9,0.5l-0.1-4.2
			c0-0.3,0-0.6,0.1-0.8c0.1-0.2,0.3-0.5,0.6-0.8c0.2-0.2,0.5-0.3,0.8-0.3c0.3-0.1,0.7-0.1,1.2-0.1c0.4,0,0.9-0.1,1.4-0.1
			c0.5-0.1,1.1-0.2,1.7-0.4c0.6-0.2,1.3-0.5,2-0.8c0.8-0.4,1.5-0.9,2.3-1.4c1.4-1.1,2.5-2.3,3.3-3.7c0.8-1.4,1.3-2.9,1.4-4.5
			c0.1-1.6-0.1-3.3-0.7-5c-0.6-1.7-1.5-3.5-2.9-5.2c-1.4-1.7-2.8-3.2-4.3-4.2c-1.5-1-3.1-1.6-4.7-1.9c-1.5-0.3-3.2-0.2-4.7,0.2
			c-1.5,0.4-3,1.1-4.3,2.1c-0.8,0.6-1.4,1.3-2,1.8c-0.6,0.6-1.1,1.2-1.4,1.7s-0.8,1.3-1,1.9c-0.3,0.7-0.5,1.4-0.6,2.2
			c0,0.2-0.1,0.5-0.2,0.7C628.9,705.9,628.8,706,628.7,706.2z"/>
		<path class="st0" d="M627.4,735.9l-5.7-9.5l-11.9,7.2l-3-4.8l11.9-7.2l-5.8-9.7l-15.1,9.2l-3.1-5l21.4-12.9l20.6,34l-21.4,12.9
			l-3.1-5L627.4,735.9z"/>
		<path class="st0" d="M595.1,760.1c-2.4,1.2-4.6,1.8-6.7,2.1c-2,0.3-3.9,0.2-5.5-0.3c-1.6-0.5-3-1.3-4.2-2.4
			c-1.3-1.2-2.2-2.6-3-4.2c-0.8-1.7-1.3-3.5-1.4-5.2c-0.1-1.7,0.2-3.4,0.9-4.9c0.7-1.5,1.7-3.1,3.2-4.4c1.4-1.4,3.4-2.6,5.7-3.8
			l5-2.3l-6-12.6l6.7-3.2l16.9,35.9L595.1,760.1z M586.6,742.1c-1.3,0.6-2.2,1.3-3,1.9c-0.8,0.8-1.4,1.5-1.6,2.4
			c-0.3,0.9-0.5,1.7-0.4,2.7c0.1,1,0.4,1.9,0.9,3c0.5,1,1,1.7,1.6,2.4c0.7,0.7,1.4,1.1,2.3,1.4c0.9,0.3,1.8,0.3,2.9,0.2
			c1.1-0.1,2.2-0.5,3.5-1.1l5-2.3l-6.1-12.9L586.6,742.1z"/>
		<path class="st0" d="M544.6,773.2l11.3-3.9l-11-31.9l6.9-2.4l11,31.9l11.3-4l2,5.7l-29.6,10.2L544.6,773.2z"/>
		<path class="st0" d="M529.8,777l-2.5-10.7l-13.5,3.2l-1.3-5.5l13.5-3.2l-2.5-10.9l-17.2,4l-1.4-5.8l24.4-5.7l9,38.7l-24.4,5.7
			l-1.4-5.7L529.8,777z"/>
		<path class="st0" d="M466.8,772.8c-0.3-2.9-0.1-5.6,0.6-8.1c0.7-2.5,1.8-4.7,3.4-6.7c1.5-1.9,3.5-3.6,5.9-4.7c2.3-1.3,5-2,8-2.3
			l15.1-1.6l4.3,39.5l-15.1,1.6c-3,0.3-5.8,0.2-8.4-0.6c-2.6-0.7-4.8-1.8-6.8-3.4s-3.6-3.5-4.7-5.8
			C467.9,778.3,467.1,775.7,466.8,772.8z M474.3,771.9c0.2,2.1,0.8,4.1,1.5,5.7c0.8,1.6,1.7,3,3,4.1c1.3,1.1,2.6,1.8,4.2,2.3
			c1.6,0.5,3.4,0.6,5.3,0.4l7.7-0.9l-3.1-27.8l-7.7,0.9c-1.9,0.2-3.7,0.8-5.1,1.5c-1.4,0.8-2.7,1.8-3.7,3.2s-1.6,2.9-2,4.6
			C474.1,767.7,474,769.8,474.3,771.9z"/>
	</g>
</g>
</svg>
