<?xml version="1.0" encoding="utf-8"?>
<!-- Generator: Adobe Illustrator 24.3.0, SVG Export Plug-In . SVG Version: 6.00 Build 0)  -->
<svg version="1.1" id="Layer_1" xmlns="http://www.w3.org/2000/svg" xmlns:xlink="http://www.w3.org/1999/xlink" x="0px" y="0px"
	 viewBox="0 0 1024 256" style="enable-background:new 0 0 1024 256;" xml:space="preserve">
<style type="text/css">
	.st0{fill:#ABB8C1;}
	.st1{fill:#C9D3DC;}
	.st2{fill:#CBDBE8;}
	.st3{fill:#DFEBF2;}
	.st4{fill:#99A4AA;}
	.st5{fill:#FFFFFF;}
	.st6{fill:#BB3437;}
	.st7{fill:#FF5B7E;}
	.st8{fill:#961518;}
	.st9{fill:#99A5AA;}
	.st10{fill:#E96848;}
	.st11{fill:#FFBAB9;}
	.st12{fill:#FFA0A0;}
	.st13{fill:#F5887E;}
	.st14{fill:#070200;}
	.st15{fill:#F9B9B9;}
	.st16{opacity:0.7;}
	.st17{fill:none;stroke:#000000;stroke-width:3;stroke-linecap:round;stroke-linejoin:round;stroke-miterlimit:10;}
	.st18{clip-path:url(#SVGID_2_);}
	.st19{fill:#A4AEB2;}
	.st20{fill:#D8AD9C;}
	.st21{fill:#4F8BC6;}
	.st22{fill:#873C3A;}
	.st23{fill:#7F2F2F;}
	.st24{fill:#E9C5B5;}
	.st25{fill:#8B9950;}
	.st26{fill:#4C100D;}
	.st27{opacity:0.45;}
	.st28{fill:#EA4456;}
	.st29{fill:#3D3939;}
	.st30{clip-path:url(#SVGID_4_);}
	.st31{clip-path:url(#SVGID_6_);}
</style>
<g>
	<rect x="256" y="0.1" class="st0" width="256" height="255.8"/>
</g>
<g>
	<ellipse class="st2" cx="384" cy="128" rx="128" ry="127.9"/>
</g>
<g>
	<g>
		<polygon class="st3" points="328.6,115.3 328.6,99.9 328.6,72.6 371.3,72.6 371.3,99.9 371.3,115.3 371.3,183.3 328.6,183.3 		"/>
		<path d="M327.5,183.3V72.6c0-0.6,0.5-1.1,1.1-1.1h42.7c0.6,0,1.1,0.5,1.1,1.1v110.7c0,0.6-0.5,1.1-1.1,1.1h-42.7
			C328,184.4,327.5,183.9,327.5,183.3z M370.2,73.7h-40.5v108.6h40.5V73.7z"/>
	</g>
	<g>
		<polygon class="st3" points="396.7,159.4 396.7,140.7 396.7,72.6 439.4,72.6 439.4,140.7 439.4,159.4 439.4,183.3 396.7,183.3 		
			"/>
		<path d="M395.7,183.3V72.6c0-0.6,0.5-1.1,1.1-1.1h42.7c0.6,0,1.1,0.5,1.1,1.1v110.7c0,0.6-0.5,1.1-1.1,1.1h-42.7
			C396.1,184.4,395.7,183.9,395.7,183.3z M438.3,73.7h-40.5v108.6h40.5V73.7z"/>
	</g>
</g>
<g>
	<rect x="0" y="0.1" class="st5" width="256" height="255.8"/>
</g>
<g>
	<rect x="768" y="0.1" class="st1" width="256" height="255.8"/>
</g>
<g>
	<rect x="512" y="0.1" class="st2" width="256" height="255.8"/>
</g>
<g>
	<rect x="0" y="0.1" class="st3" width="256" height="255.8"/>
</g>
<g>
	<g>
		<path d="M178.9,121.8c5.8,0,11-3.3,13.6-8.6c0.1-0.1,0.2-0.3,0.2-0.5l0,0c0-0.5-0.3-1-0.8-1.1c-0.5-0.1-1,0.1-1.2,0.6
			c-2.3,4.9-7.2,7.8-12.5,7.5c-4.7-0.3-8.9-3.1-11-7.5c0,0,0-0.1,0-0.1c-2.4-5.1-7.3-8.4-12.9-8.7c-6.1-0.3-11.7,3-14.4,8.6
			c0,0,0,0.1-0.1,0.1c-2.3,4.9-7.2,7.8-12.5,7.5c-4.7-0.3-9-3.1-11.1-7.5c0,0,0-0.1-0.1-0.1c-2.4-5-7.3-8.3-12.8-8.6
			c-6.1-0.3-11.7,3-14.4,8.6c0,0,0,0.1-0.1,0.1c-2.3,4.9-7.2,7.8-12.5,7.5c-4.7-0.3-9-3.1-11.1-7.5c-0.3-0.5-0.9-0.8-1.4-0.5
			c-0.5,0.3-0.8,0.9-0.5,1.4c2.4,5.1,7.3,8.4,12.9,8.7c6.1,0.3,11.7-3,14.4-8.6c0,0,0-0.1,0.1-0.1c2.3-4.9,7.2-7.8,12.5-7.5
			c4.7,0.3,9,3.1,11,7.5c0,0,0,0.1,0.1,0.1c2.4,5,7.3,8.3,12.8,8.6c6.1,0.3,11.7-3,14.4-8.6c0,0,0-0.1,0.1-0.1
			c2.3-4.9,7.2-7.8,12.5-7.5c4.7,0.3,8.9,3.1,11,7.4c0,0,0,0.1,0,0.1c2.4,5.1,7.4,8.5,12.9,8.8C178.3,121.8,178.6,121.8,178.9,121.8
			z"/>
	</g>
	<g>
		<path d="M178.9,152.7c5.8,0,11-3.3,13.6-8.6c0.1-0.1,0.2-0.3,0.2-0.5l0,0c0-0.5-0.3-1-0.8-1.1c-0.5-0.1-1,0.1-1.2,0.6
			c-2.3,4.9-7.2,7.8-12.5,7.5c-4.7-0.3-8.9-3.1-11-7.5c0,0,0-0.1,0-0.1c-2.4-5.1-7.3-8.4-12.9-8.7c-6.1-0.3-11.7,3-14.4,8.6
			c0,0,0,0.1-0.1,0.1c-2.3,4.9-7.2,7.8-12.5,7.5c-4.7-0.3-9-3.1-11.1-7.5c0,0,0-0.1-0.1-0.1c-2.4-5-7.3-8.3-12.8-8.6
			c-6.1-0.3-11.7,3-14.4,8.6c0,0,0,0.1-0.1,0.1c-2.3,4.9-7.2,7.8-12.5,7.5c-4.7-0.3-9-3.1-11.1-7.5c-0.3-0.5-0.9-0.8-1.4-0.5
			c-0.5,0.3-0.8,0.9-0.5,1.4c2.4,5.1,7.3,8.4,12.9,8.7c6.1,0.3,11.7-3,14.4-8.6c0,0,0-0.1,0.1-0.1c2.3-4.9,7.2-7.8,12.5-7.5
			c4.7,0.3,9,3.1,11,7.5c0,0,0,0.1,0.1,0.1c2.4,5,7.3,8.3,12.8,8.6c6.1,0.3,11.7-3,14.4-8.6c0,0,0-0.1,0.1-0.1
			c2.3-4.9,7.2-7.8,12.5-7.5c4.7,0.3,8.9,3.1,11,7.4c0,0,0,0.1,0,0.1c2.4,5.1,7.4,8.5,12.9,8.8C178.3,152.7,178.6,152.7,178.9,152.7
			z"/>
	</g>
</g>
<g>
	<g>
		<g>
			<g>
				<path d="M813.8,94.9h164.5c0.6,0,1.1-0.5,1.1-1.1s-0.5-1.1-1.1-1.1H813.8c-0.6,0-1.1,0.5-1.1,1.1S813.2,94.9,813.8,94.9z"/>
			</g>
			<g>
				<path d="M813.8,117.7h164.5c0.6,0,1.1-0.5,1.1-1.1s-0.5-1.1-1.1-1.1H813.8c-0.6,0-1.1,0.5-1.1,1.1S813.2,117.7,813.8,117.7z"/>
			</g>
			<g>
				<path d="M813.8,140.4h164.5c0.6,0,1.1-0.5,1.1-1.1c0-0.6-0.5-1.1-1.1-1.1H813.8c-0.6,0-1.1,0.5-1.1,1.1
					C812.7,139.9,813.2,140.4,813.8,140.4z"/>
			</g>
			<g>
				<path d="M813.8,163.2h164.5c0.6,0,1.1-0.5,1.1-1.1c0-0.6-0.5-1.1-1.1-1.1H813.8c-0.6,0-1.1,0.5-1.1,1.1
					C812.7,162.7,813.2,163.2,813.8,163.2z"/>
			</g>
		</g>
		<g>
			<g>
				<path d="M861.8,211.2c0.6,0,1.1-0.5,1.1-1.1V45.8c0-0.6-0.5-1.1-1.1-1.1s-1.1,0.5-1.1,1.1v164.3
					C860.8,210.7,861.3,211.2,861.8,211.2z"/>
			</g>
			<g>
				<path d="M884.6,211.2c0.6,0,1.1-0.5,1.1-1.1V45.8c0-0.6-0.5-1.1-1.1-1.1s-1.1,0.5-1.1,1.1v164.3
					C883.5,210.7,884,211.2,884.6,211.2z"/>
			</g>
			<g>
				<path d="M907.4,211.2c0.6,0,1.1-0.5,1.1-1.1V45.8c0-0.6-0.5-1.1-1.1-1.1c-0.6,0-1.1,0.5-1.1,1.1v164.3
					C906.3,210.7,906.8,211.2,907.4,211.2z"/>
			</g>
			<g>
				<path d="M930.2,211.2c0.6,0,1.1-0.5,1.1-1.1V45.8c0-0.6-0.5-1.1-1.1-1.1s-1.1,0.5-1.1,1.1v164.3
					C929.1,210.7,929.6,211.2,930.2,211.2z"/>
			</g>
		</g>
	</g>
	<g>
		<rect x="840.5" y="72.6" class="st3" width="110.9" height="110.8"/>
	</g>
	<g>
		<g>
			<rect x="861.3" y="93.3" class="st3" width="69.4" height="69.3"/>
		</g>
		<g>
			<path d="M860.2,92.3h71.5v71.5h-71.5V92.3z M929.6,94.4h-67.2v67.2h67.2V94.4z"/>
		</g>
	</g>
</g>
<g>
	<g>
		<path class="st3" d="M768,0.1l0,255.8l-127.8,0C569.4,255.9,512,198.6,512,128C512,57.3,569.4,0.1,640.2,0.1L768,0.1z"/>
	</g>
	<g>
		<g>
			<g>
				<path d="M679.7,145.8h-49.6V74.7c0-7.7,6.3-14,14-14h21.5c7.7,0,14,6.3,14,14V145.8z M632.3,143.7h45.3v-69
					c0-6.6-5.3-11.9-11.9-11.9h-21.5c-6.6,0-11.9,5.3-11.9,11.9V143.7z"/>
			</g>
			<g>
				<rect x="603.6" y="108.8" class="st8" width="102.6" height="76.5"/>
			</g>
		</g>
		<g>
			<g>
				<path class="st0" d="M662.6,142.9c0-4.3-3.5-7.7-7.7-7.7s-7.7,3.5-7.7,7.7c0,3,1.8,5.7,4.3,6.9v7.4c0,0.9,0.8,1.7,1.7,1.7h3.4
					c0.9,0,1.7-0.8,1.7-1.7v-7.4C660.9,148.6,662.6,146,662.6,142.9z"/>
			</g>
			<g>
				<path class="st29" d="M656.6,160h-3.4c-1.5,0-2.8-1.2-2.8-2.8v-6.8c-2.7-1.6-4.3-4.4-4.3-7.6c0-4.8,3.9-8.8,8.8-8.8
					c4.8,0,8.8,3.9,8.8,8.8c0,3.1-1.6,6-4.3,7.6v6.8C659.4,158.8,658.1,160,656.6,160z M654.9,136.3c-3.7,0-6.6,3-6.6,6.6
					c0,2.5,1.4,4.8,3.7,6l0.6,0.3v8.1c0,0.3,0.3,0.6,0.6,0.6h3.4c0.3,0,0.6-0.3,0.6-0.6v-8.1l0.6-0.3c2.3-1.1,3.7-3.4,3.7-6
					C661.6,139.3,658.6,136.3,654.9,136.3z"/>
			</g>
		</g>
	</g>
</g>
</svg>
