<?xml version="1.0" encoding="utf-8"?>
<!-- Generator: Adobe Illustrator 24.3.0, SVG Export Plug-In . SVG Version: 6.00 Build 0)  -->
<svg version="1.1" id="Layer_1" xmlns="http://www.w3.org/2000/svg" xmlns:xlink="http://www.w3.org/1999/xlink" x="0px" y="0px"
	 viewBox="0 0 1024 256" style="enable-background:new 0 0 1024 256;" xml:space="preserve">
<style type="text/css">
	.st0{fill:#CBDBE8;}
	.st1{fill:#DFEBF2;}
	.st2{fill:#C9D3DC;}
	.st3{fill:#99A4AA;}
	.st4{fill:#BB3437;}
	.st5{fill:#FFFFFF;}
	.st6{fill:#FF5B7E;}
	.st7{fill:#ABB8C1;}
	.st8{fill:#961518;}
	.st9{fill:#99A5AA;}
	.st10{fill:#E96848;}
	.st11{fill:#FFBAB9;}
	.st12{fill:#FFA0A0;}
	.st13{fill:#F5887E;}
	.st14{fill:#070200;}
	.st15{fill:#F9B9B9;}
	.st16{opacity:0.7;}
	.st17{fill:none;stroke:#000000;stroke-width:3;stroke-linecap:round;stroke-linejoin:round;stroke-miterlimit:10;}
	.st18{clip-path:url(#SVGID_2_);}
	.st19{fill:#A4AEB2;}
	.st20{fill:#D8AD9C;}
	.st21{fill:#4F8BC6;}
	.st22{fill:#873C3A;}
	.st23{fill:#7F2F2F;}
	.st24{fill:#E9C5B5;}
	.st25{fill:#8B9950;}
	.st26{fill:#4C100D;}
	.st27{opacity:0.45;}
	.st28{fill:#EA4456;}
	.st29{fill:#3D3939;}
	.st30{clip-path:url(#SVGID_4_);}
	.st31{clip-path:url(#SVGID_6_);}
</style>
<g>
	<ellipse class="st0" cx="640" cy="128" rx="128" ry="127.9"/>
</g>
<g>
	<g>
		<polygon class="st1" points="695.4,115.3 695.4,99.9 695.4,72.6 652.7,72.6 652.7,99.9 652.7,115.3 652.7,183.3 695.4,183.3 		"/>
		<path d="M695.4,184.4h-42.7c-0.6,0-1.1-0.5-1.1-1.1V72.6c0-0.6,0.5-1.1,1.1-1.1h42.7c0.6,0,1.1,0.5,1.1,1.1v110.7
			C696.5,183.9,696,184.4,695.4,184.4z M653.8,182.3h40.5V73.7h-40.5V182.3z"/>
	</g>
	<g>
		<polygon class="st1" points="627.3,159.4 627.3,140.7 627.3,72.6 584.6,72.6 584.6,140.7 584.6,159.4 584.6,183.3 627.3,183.3 		
			"/>
		<path d="M627.3,184.4h-42.7c-0.6,0-1.1-0.5-1.1-1.1V72.6c0-0.6,0.5-1.1,1.1-1.1h42.7c0.6,0,1.1,0.5,1.1,1.1v110.7
			C628.3,183.9,627.9,184.4,627.3,184.4z M585.7,182.3h40.5V73.7h-40.5V182.3z"/>
	</g>
</g>
<g>
	<rect x="768" y="0.1" class="st5" width="256" height="255.8"/>
</g>
<g>
	<rect x="0" y="0.1" class="st0" width="256" height="255.8"/>
</g>
<g>
	<rect x="768" y="0.1" class="st2" width="256" height="255.8"/>
</g>
<g>
	<g>
		<path d="M845.1,121.8c-5.8,0-11-3.3-13.6-8.6c-0.1-0.1-0.2-0.3-0.2-0.5l0,0c0-0.5,0.3-1,0.8-1.1c0.5-0.1,1,0.1,1.2,0.6
			c2.3,4.9,7.2,7.8,12.5,7.5c4.7-0.3,8.9-3.1,11-7.5c0,0,0-0.1,0-0.1c2.4-5.1,7.3-8.4,12.9-8.7c6.1-0.3,11.7,3,14.4,8.6
			c0,0,0,0.1,0.1,0.1c2.3,4.9,7.2,7.8,12.5,7.5c4.7-0.3,9-3.1,11-7.5c0,0,0-0.1,0.1-0.1c2.4-5,7.3-8.3,12.8-8.6
			c6.1-0.3,11.7,3,14.4,8.6c0,0,0,0.1,0.1,0.1c2.3,4.9,7.2,7.8,12.5,7.5c4.7-0.3,9-3.1,11-7.5c0.3-0.5,0.9-0.8,1.4-0.5
			c0.5,0.3,0.8,0.9,0.5,1.4c-2.4,5.1-7.3,8.4-12.9,8.7c-6.1,0.3-11.7-3-14.4-8.6c0,0,0-0.1-0.1-0.1c-2.3-4.9-7.2-7.8-12.5-7.5
			c-4.7,0.3-9,3.1-11.1,7.5c0,0,0,0.1-0.1,0.1c-2.4,5-7.3,8.3-12.8,8.6c-6.1,0.3-11.7-3-14.4-8.6c0,0,0-0.1-0.1-0.1
			c-2.3-4.9-7.2-7.8-12.5-7.5c-4.7,0.3-8.9,3.1-11,7.4c0,0,0,0.1,0,0.1c-2.4,5.1-7.4,8.5-12.9,8.8
			C845.7,121.8,845.4,121.8,845.1,121.8z"/>
	</g>
	<g>
		<path d="M845.1,152.7c-5.8,0-11-3.3-13.6-8.6c-0.1-0.1-0.2-0.3-0.2-0.5l0,0c0-0.5,0.3-1,0.8-1.1c0.5-0.1,1,0.1,1.2,0.6
			c2.3,4.9,7.2,7.8,12.5,7.5c4.7-0.3,8.9-3.1,11-7.5c0,0,0-0.1,0-0.1c2.4-5.1,7.3-8.4,12.9-8.7c6.1-0.3,11.7,3,14.4,8.6
			c0,0,0,0.1,0.1,0.1c2.3,4.9,7.2,7.8,12.5,7.5c4.7-0.3,9-3.1,11-7.5c0,0,0-0.1,0.1-0.1c2.4-5,7.3-8.3,12.8-8.6
			c6.1-0.3,11.7,3,14.4,8.6c0,0,0,0.1,0.1,0.1c2.3,4.9,7.2,7.8,12.5,7.5c4.7-0.3,9-3.1,11-7.5c0.3-0.5,0.9-0.8,1.4-0.5
			c0.5,0.3,0.8,0.9,0.5,1.4c-2.4,5.1-7.3,8.4-12.9,8.7c-6.1,0.3-11.7-3-14.4-8.6c0,0,0-0.1-0.1-0.1c-2.3-4.9-7.2-7.8-12.5-7.5
			c-4.7,0.3-9,3.1-11.1,7.5c0,0,0,0.1-0.1,0.1c-2.4,5-7.3,8.3-12.8,8.6c-6.1,0.3-11.7-3-14.4-8.6c0,0,0-0.1-0.1-0.1
			c-2.3-4.9-7.2-7.8-12.5-7.5c-4.7,0.3-8.9,3.1-11,7.4c0,0,0,0.1,0,0.1c-2.4,5.1-7.4,8.5-12.9,8.8
			C845.7,152.7,845.4,152.7,845.1,152.7z"/>
	</g>
</g>
<g>
	<path class="st1" d="M256,0.1v255.8h256v-0.1C512,114.6,397.4,0.1,256,0.1z"/>
</g>
<g>
	<g>
		<g>
			<g>
				<path d="M210.2,94.9H45.8c-0.6,0-1.1-0.5-1.1-1.1s0.5-1.1,1.1-1.1h164.5c0.6,0,1.1,0.5,1.1,1.1S210.8,94.9,210.2,94.9z"/>
			</g>
			<g>
				<path d="M210.2,117.7H45.8c-0.6,0-1.1-0.5-1.1-1.1s0.5-1.1,1.1-1.1h164.5c0.6,0,1.1,0.5,1.1,1.1S210.8,117.7,210.2,117.7z"/>
			</g>
			<g>
				<path d="M210.2,140.4H45.8c-0.6,0-1.1-0.5-1.1-1.1c0-0.6,0.5-1.1,1.1-1.1h164.5c0.6,0,1.1,0.5,1.1,1.1
					C211.3,139.9,210.8,140.4,210.2,140.4z"/>
			</g>
			<g>
				<path d="M210.2,163.2H45.8c-0.6,0-1.1-0.5-1.1-1.1c0-0.6,0.5-1.1,1.1-1.1h164.5c0.6,0,1.1,0.5,1.1,1.1
					C211.3,162.7,210.8,163.2,210.2,163.2z"/>
			</g>
		</g>
		<g>
			<g>
				<path d="M162.2,211.2c-0.6,0-1.1-0.5-1.1-1.1V45.8c0-0.6,0.5-1.1,1.1-1.1s1.1,0.5,1.1,1.1v164.3
					C163.2,210.7,162.7,211.2,162.2,211.2z"/>
			</g>
			<g>
				<path d="M139.4,211.2c-0.6,0-1.1-0.5-1.1-1.1V45.8c0-0.6,0.5-1.1,1.1-1.1c0.6,0,1.1,0.5,1.1,1.1v164.3
					C140.5,210.7,140,211.2,139.4,211.2z"/>
			</g>
			<g>
				<path d="M116.6,211.2c-0.6,0-1.1-0.5-1.1-1.1V45.8c0-0.6,0.5-1.1,1.1-1.1s1.1,0.5,1.1,1.1v164.3
					C117.7,210.7,117.2,211.2,116.6,211.2z"/>
			</g>
			<g>
				<path d="M93.8,211.2c-0.6,0-1.1-0.5-1.1-1.1V45.8c0-0.6,0.5-1.1,1.1-1.1s1.1,0.5,1.1,1.1v164.3
					C94.9,210.7,94.4,211.2,93.8,211.2z"/>
			</g>
		</g>
	</g>
	<g>
		<rect x="72.5" y="72.6" class="st1" width="110.9" height="110.8"/>
	</g>
	<g>
		<g>
			<rect x="93.3" y="93.3" class="st1" width="69.4" height="69.3"/>
		</g>
		<g>
			<path d="M163.8,163.7H92.2V92.3h71.5V163.7z M94.4,161.6h67.2V94.4H94.4V161.6z"/>
		</g>
	</g>
</g>
<g>
	<g>
		<g>
			<path d="M340.8,99.3c0-7.7,6.3-14,14-14h21.5c7.7,0,14,6.3,14,14v71.1h-49.6V99.3z M388.3,99.3c0-6.6-5.3-11.9-11.9-11.9h-21.5
				c-6.6,0-11.9,5.3-11.9,11.9v69h45.3V99.3z"/>
		</g>
		<g>
			<rect x="314.3" y="133.4" class="st8" width="102.6" height="76.5"/>
		</g>
	</g>
	<g>
		<g>
			<path class="st7" d="M357.9,167.5c0-4.3,3.5-7.7,7.7-7.7c4.3,0,7.7,3.5,7.7,7.7c0,3-1.8,5.7-4.3,6.9v7.4c0,0.9-0.8,1.7-1.7,1.7
				h-3.4c-0.9,0-1.7-0.8-1.7-1.7v-7.4C359.7,173.2,357.9,170.5,357.9,167.5z"/>
		</g>
		<g>
			<path class="st29" d="M361.2,181.8V175c-2.7-1.6-4.3-4.4-4.3-7.6c0-4.8,3.9-8.8,8.8-8.8s8.8,3.9,8.8,8.8c0,3.1-1.6,6-4.3,7.6v6.8
				c0,1.5-1.2,2.8-2.8,2.8h-3.4C362.4,184.6,361.2,183.3,361.2,181.8z M359,167.5c0,2.5,1.4,4.8,3.7,6l0.6,0.3v8.1
				c0,0.3,0.3,0.6,0.6,0.6h3.4c0.3,0,0.6-0.3,0.6-0.6v-8.1l0.6-0.3c2.3-1.1,3.7-3.4,3.7-6c0-3.7-3-6.6-6.6-6.6
				C362,160.9,359,163.8,359,167.5z"/>
		</g>
	</g>
</g>
<g>
	<g>
		<defs>
			<rect id="SVGID_3_" x="125.6" y="-293.3" width="246.9" height="88.4"/>
		</defs>
		<clipPath id="SVGID_2_">
			<use xlink:href="#SVGID_3_"  style="overflow:visible;"/>
		</clipPath>
		<g class="st18">
			<g>
				<path class="st3" d="M289.8-119.5L171.7-35.2l9.1,36.8l161.6-87.8c6.7-3.6,10.3-11.2,8.8-18.7l-30.1-153.1l-10.5-29.1l-0.1-0.8
					l-0.9-5.4l-19.4,8.4l-7.9,3.4L244.6-269l46.6,145.5C291.7-122.1,291.1-120.4,289.8-119.5z"/>
			</g>
			<g>
				<polygon class="st19" points="216.4,58.1 253.7,53.1 270.2,-241.5 265.3,-292.5 199.7,-281.2 200.4,-271.1 200.4,-269.2 
					199.3,-231 				"/>
			</g>
		</g>
	</g>
</g>
</svg>
