<svg width="140" height="140" viewBox="0 0 140 140" fill="none" xmlns="http://www.w3.org/2000/svg">
<path d="M84.043 56.5589L70.5 4L56.957 56.5589L4 70.0001L56.957 83.4411L70.5 136L84.043 83.4411L137 70.0001L84.043 56.5589Z" fill="#FAEAEA"/>
<path d="M51 50L56 55M89 88L85 84M92 48L84.5 55.5M48 92L55.5 84.5" stroke="#B61936" stroke-width="3" stroke-linecap="round" stroke-linejoin="round"/>
<circle cx="70" cy="70" r="20" stroke="#B61936" stroke-width="3"/>
<circle cx="46" cy="45" r="7" stroke="#B61936" stroke-width="3"/>
<circle cx="94" cy="93" r="7" stroke="#B61936" stroke-width="3"/>
<circle cx="43" cy="97" r="7" stroke="#B61936" stroke-width="3"/>
<circle cx="97" cy="43" r="7" stroke="#B61936" stroke-width="3"/>
<path d="M59 66.2308L60.5714 78H79.4286L81 66.2308L74.7143 70.1538L70 61L65.2857 70.1538L59 66.2308Z" stroke="#B61936" stroke-width="3" stroke-linecap="round" stroke-linejoin="round"/>
</svg>
