<svg id="Layer_1" data-name="Layer 1" xmlns="http://www.w3.org/2000/svg" viewBox="0 0 1500 1500"><defs><style>.cls-1{fill:#dfebf2;}.cls-2{fill:#c9d3dc;}.cls-3{fill:#c5d1da;}.cls-4{fill:#ddedf2;}.cls-5{fill:#fff;}.cls-6{fill:#bb3437;}.cls-7{fill:none;}</style></defs><rect class="cls-1" x="750" y="750" width="650" height="650"/><path d="M1160,1222.55H990l-85-147.33,85-147.34H1160l85,147.34Zm-166.94-5.42H1157l81.9-141.91L1157,933.3H993.1l-81.9,141.92Z"/><rect x="912.5" y="1072.51" width="162.5" height="5.42"/><rect x="1031.66" y="923.63" width="5.42" height="162.5" transform="translate(-363.86 651.83) rotate(-30)"/><polygon points="1237.5 1077.92 1070.34 1077.92 1153.87 933.19 1158.63 935.9 1079.66 1072.51 1237.5 1072.51 1237.5 1077.92"/><rect x="912.5" y="1072.51" width="162.5" height="5.42"/><rect x="953.12" y="1142.93" width="162.5" height="5.42" transform="translate(-474.97 1468.59) rotate(-60)"/><rect x="1075" y="1072.51" width="162.5" height="5.42"/><rect x="1112.9" y="1064.35" width="5.42" height="162.5" transform="translate(-423.34 711.31) rotate(-30)"/><circle class="cls-2" cx="1075" cy="1075.22" r="27.08"/><path d="M1075,1105a29.8,29.8,0,1,1,29.79-29.79A29.77,29.77,0,0,1,1075,1105Zm0-54.17a24.38,24.38,0,1,0,24.38,24.38A24.41,24.41,0,0,0,1075,1050.84Z"/><circle class="cls-2" cx="1156.25" cy="934.49" r="27.08"/><path d="M1156.25,964.28A29.79,29.79,0,1,1,1186,934.49,29.77,29.77,0,0,1,1156.25,964.28Zm0-54.16a24.38,24.38,0,1,0,24.38,24.37A24.41,24.41,0,0,0,1156.25,910.12Z"/><circle class="cls-2" cx="993.75" cy="934.49" r="27.08"/><path d="M993.75,964.28a29.79,29.79,0,1,1,29.79-29.79A29.77,29.77,0,0,1,993.75,964.28Zm0-54.16a24.38,24.38,0,1,0,24.38,24.37A24.41,24.41,0,0,0,993.75,910.12Z"/><circle class="cls-2" cx="1156.25" cy="1215.51" r="27.08"/><path d="M1156.25,1245.3a29.79,29.79,0,1,1,29.79-29.79A29.77,29.77,0,0,1,1156.25,1245.3Zm0-54.17a24.38,24.38,0,1,0,24.38,24.38A24.41,24.41,0,0,0,1156.25,1191.13Z"/><circle class="cls-2" cx="993.75" cy="1215.51" r="27.08"/><path d="M993.75,1245.3a29.79,29.79,0,1,1,29.79-29.79A29.77,29.77,0,0,1,993.75,1245.3Zm0-54.17a24.38,24.38,0,1,0,24.38,24.38A24.41,24.41,0,0,0,993.75,1191.13Z"/><circle class="cls-2" cx="1237.5" cy="1075.22" r="27.08"/><path d="M1237.5,1105a29.8,29.8,0,1,1,29.79-29.79A29.77,29.77,0,0,1,1237.5,1105Zm0-54.17a24.38,24.38,0,1,0,24.38,24.38A24.41,24.41,0,0,0,1237.5,1050.84Z"/><circle class="cls-2" cx="912.5" cy="1075.22" r="27.08"/><path d="M912.5,1105a29.8,29.8,0,1,1,29.79-29.79A29.77,29.77,0,0,1,912.5,1105Zm0-54.17a24.38,24.38,0,1,0,24.38,24.38A24.41,24.41,0,0,0,912.5,1050.84Z"/><rect class="cls-3" x="750" y="100" width="650" height="650"/><rect class="cls-4" x="100" y="100" width="650" height="650"/><rect class="cls-5" x="100" y="750" width="650" height="650"/><circle class="cls-6" cx="518.17" cy="939.15" r="27.08"/><path d="M518.17,968.94A29.79,29.79,0,1,1,548,939.15,29.77,29.77,0,0,1,518.17,968.94Zm0-54.17a24.38,24.38,0,1,0,24.37,24.38A24.42,24.42,0,0,0,518.17,914.77Z"/><circle class="cls-6" cx="331.83" cy="939.15" r="27.08"/><path d="M331.83,968.94a29.79,29.79,0,1,1,29.79-29.79A29.77,29.77,0,0,1,331.83,968.94Zm0-54.17a24.38,24.38,0,1,0,24.38,24.38A24.42,24.42,0,0,0,331.83,914.77Z"/><rect x="358.92" y="936.33" width="132.92" height="5.42"/><circle class="cls-6" cx="518.17" cy="1210.85" r="27.08"/><path d="M518.17,1240.64A29.79,29.79,0,1,1,548,1210.85,29.77,29.77,0,0,1,518.17,1240.64Zm0-54.16a24.38,24.38,0,1,0,24.37,24.37A24.41,24.41,0,0,0,518.17,1186.48Z"/><circle class="cls-6" cx="331.83" cy="1210.85" r="27.08"/><path d="M331.83,1240.64a29.79,29.79,0,1,1,29.79-29.79A29.77,29.77,0,0,1,331.83,1240.64Zm0-54.16a24.38,24.38,0,1,0,24.38,24.37A24.41,24.41,0,0,0,331.83,1186.48Z"/><rect x="358.92" y="1208.14" width="132.92" height="5.42"/><circle class="cls-6" cx="425" cy="1075" r="27.08"/><path d="M425,1104.79A29.79,29.79,0,1,1,454.79,1075,29.77,29.77,0,0,1,425,1104.79Zm0-54.17A24.38,24.38,0,1,0,449.38,1075,24.42,24.42,0,0,0,425,1050.62Z"/><line class="cls-7" x1="346.46" y1="961.9" x2="409.51" y2="1052.79"/><rect x="375.27" y="952.03" width="5.42" height="110.61" transform="translate(-507.14 395.65) rotate(-34.79)"/><line class="cls-7" x1="409.51" y1="1097.1" x2="347.11" y2="1186.91"/><rect x="323.67" y="1139.29" width="109.31" height="5.42" transform="translate(-775.51 801.46) rotate(-55.23)"/><circle class="cls-2" cx="981.83" cy="289.15" r="27.08"/><path d="M981.83,318.94a29.79,29.79,0,1,1,29.8-29.79A29.77,29.77,0,0,1,981.83,318.94Zm0-54.17a24.38,24.38,0,1,0,24.38,24.38A24.42,24.42,0,0,0,981.83,264.77Z"/><circle class="cls-2" cx="1168.17" cy="560.85" r="27.08"/><path d="M1168.17,590.64A29.79,29.79,0,1,1,1198,560.85,29.77,29.77,0,0,1,1168.17,590.64Zm0-54.16a24.38,24.38,0,1,0,24.37,24.37A24.41,24.41,0,0,0,1168.17,536.48Z"/><circle class="cls-2" cx="981.83" cy="560.85" r="27.08"/><path d="M981.83,590.64a29.79,29.79,0,1,1,29.8-29.79A29.77,29.77,0,0,1,981.83,590.64Zm0-54.16a24.38,24.38,0,1,0,24.38,24.37A24.41,24.41,0,0,0,981.83,536.48Z"/><rect x="1008.92" y="558.14" width="132.93" height="5.42"/><rect x="979.13" y="316.23" width="5.42" height="217.64"/><path d="M605.82,427.71c-101.2,0-183.53-82.33-183.53-183.53h5.42c0,98.21,79.9,178.11,178.11,178.11Z"/><path d="M244.18,427.71v-5.42c98.21,0,178.11-79.9,178.11-178.11h5.42C427.71,345.38,345.38,427.71,244.18,427.71Z"/><path d="M427.71,605.82h-5.42c0-98.21-79.9-178.11-178.11-178.11v-5.42C345.38,422.29,427.71,504.62,427.71,605.82Z"/><path d="M427.71,605.82h-5.42c0-101.2,82.33-183.53,183.53-183.53v5.42C507.61,427.71,427.71,507.61,427.71,605.82Z"/><circle class="cls-2" cx="425" cy="264.45" r="27.08"/><path d="M425,294.24a29.79,29.79,0,1,1,29.79-29.79A29.77,29.77,0,0,1,425,294.24Zm0-54.16a24.38,24.38,0,1,0,24.38,24.37A24.42,24.42,0,0,0,425,240.08Z"/><circle class="cls-2" cx="425" cy="585.55" r="27.08"/><path d="M425,615.34a29.79,29.79,0,1,1,29.79-29.79A29.77,29.77,0,0,1,425,615.34Zm0-54.17a24.38,24.38,0,1,0,24.38,24.38A24.42,24.42,0,0,0,425,561.17Z"/><circle class="cls-2" cx="585.55" cy="425" r="27.08"/><path d="M555.76,425a29.79,29.79,0,1,1,29.79,29.79A29.77,29.77,0,0,1,555.76,425Zm54.16,0a24.38,24.38,0,1,0-24.37,24.38A24.42,24.42,0,0,0,609.92,425Z"/><circle class="cls-2" cx="264.45" cy="425" r="27.08"/><path d="M234.66,425a29.79,29.79,0,1,1,29.79,29.79A29.77,29.77,0,0,1,234.66,425Zm54.17,0a24.38,24.38,0,1,0-24.38,24.38A24.42,24.42,0,0,0,288.83,425Z"/></svg>